%TF.GenerationSoftware,KiCad,Pcbnew,5.1.9-73d0e3b20d~88~ubuntu20.04.1*%
%TF.CreationDate,2021-03-05T17:28:59-06:00*%
%TF.ProjectId,portalgun-display,706f7274-616c-4677-956e-2d646973706c,rev?*%
%TF.SameCoordinates,Original*%
%TF.FileFunction,Copper,L2,Inr*%
%TF.FilePolarity,Positive*%
%FSLAX46Y46*%
G04 Gerber Fmt 4.6, Leading zero omitted, Abs format (unit mm)*
G04 Created by KiCad (PCBNEW 5.1.9-73d0e3b20d~88~ubuntu20.04.1) date 2021-03-05 17:28:59*
%MOMM*%
%LPD*%
G01*
G04 APERTURE LIST*
%TA.AperFunction,ComponentPad*%
%ADD10C,1.700000*%
%TD*%
%TA.AperFunction,ComponentPad*%
%ADD11R,1.700000X1.700000*%
%TD*%
%TA.AperFunction,ComponentPad*%
%ADD12O,0.800000X1.300000*%
%TD*%
%TA.AperFunction,ViaPad*%
%ADD13C,0.457200*%
%TD*%
%TA.AperFunction,Conductor*%
%ADD14C,0.254000*%
%TD*%
%TA.AperFunction,Conductor*%
%ADD15C,0.100000*%
%TD*%
G04 APERTURE END LIST*
D10*
%TO.N,/segment_e*%
%TO.C,U6*%
X135890000Y-100076000D03*
%TO.N,/segment_d*%
X135890000Y-97536000D03*
%TO.N,Net-(Q2-Pad3)*%
X135890000Y-94996000D03*
%TO.N,/segment_c*%
X135890000Y-92456000D03*
%TO.N,/decimal_point*%
X135890000Y-89916000D03*
%TO.N,/segment_b*%
X120650000Y-89916000D03*
%TO.N,/segment_a*%
X120650000Y-92456000D03*
%TO.N,Net-(U6-Pad3)*%
X120650000Y-94996000D03*
%TO.N,/segment_f*%
X120650000Y-97536000D03*
D11*
%TO.N,/segment_g*%
X120650000Y-100076000D03*
%TD*%
D10*
%TO.N,/segment_e*%
%TO.C,U8*%
X135890000Y-112776000D03*
%TO.N,/segment_d*%
X135890000Y-110236000D03*
%TO.N,Net-(Q3-Pad3)*%
X135890000Y-107696000D03*
%TO.N,/segment_c*%
X135890000Y-105156000D03*
%TO.N,/decimal_point*%
X135890000Y-102616000D03*
%TO.N,/segment_b*%
X120650000Y-102616000D03*
%TO.N,/segment_a*%
X120650000Y-105156000D03*
%TO.N,Net-(U8-Pad3)*%
X120650000Y-107696000D03*
%TO.N,/segment_f*%
X120650000Y-110236000D03*
D11*
%TO.N,/segment_g*%
X120650000Y-112776000D03*
%TD*%
D10*
%TO.N,/segment_e*%
%TO.C,U9*%
X135890000Y-125476000D03*
%TO.N,/segment_d*%
X135890000Y-122936000D03*
%TO.N,Net-(Q4-Pad3)*%
X135890000Y-120396000D03*
%TO.N,/segment_c*%
X135890000Y-117856000D03*
%TO.N,/decimal_point*%
X135890000Y-115316000D03*
%TO.N,/segment_b*%
X120650000Y-115316000D03*
%TO.N,/segment_a*%
X120650000Y-117856000D03*
%TO.N,Net-(U9-Pad3)*%
X120650000Y-120396000D03*
%TO.N,/segment_f*%
X120650000Y-122936000D03*
D11*
%TO.N,/segment_g*%
X120650000Y-125476000D03*
%TD*%
D10*
%TO.N,/segment_e*%
%TO.C,U5*%
X135890000Y-87376000D03*
%TO.N,/segment_d*%
X135890000Y-84836000D03*
%TO.N,Net-(Q1-Pad3)*%
X135890000Y-82296000D03*
%TO.N,/segment_c*%
X135890000Y-79756000D03*
%TO.N,/decimal_point*%
X135890000Y-77216000D03*
%TO.N,/segment_b*%
X120650000Y-77216000D03*
%TO.N,/segment_a*%
X120650000Y-79756000D03*
%TO.N,Net-(U5-Pad3)*%
X120650000Y-82296000D03*
%TO.N,/segment_f*%
X120650000Y-84836000D03*
D11*
%TO.N,/segment_g*%
X120650000Y-87376000D03*
%TD*%
D12*
%TO.N,Net-(J1-Pad7)*%
%TO.C,J1*%
X132156700Y-125051000D03*
%TO.N,Net-(J1-Pad6)*%
X130906700Y-125051000D03*
%TO.N,Net-(J1-Pad5)*%
X129656700Y-125051000D03*
%TO.N,Net-(J1-Pad4)*%
X128406700Y-125051000D03*
%TO.N,Net-(J1-Pad3)*%
X127156700Y-125051000D03*
%TO.N,GND*%
X125906700Y-125051000D03*
%TO.N,VBAT*%
%TA.AperFunction,ComponentPad*%
G36*
G01*
X124256700Y-125501000D02*
X124256700Y-124601000D01*
G75*
G02*
X124456700Y-124401000I200000J0D01*
G01*
X124856700Y-124401000D01*
G75*
G02*
X125056700Y-124601000I0J-200000D01*
G01*
X125056700Y-125501000D01*
G75*
G02*
X124856700Y-125701000I-200000J0D01*
G01*
X124456700Y-125701000D01*
G75*
G02*
X124256700Y-125501000I0J200000D01*
G01*
G37*
%TD.AperFunction*%
%TD*%
D13*
%TO.N,GND*%
X121608700Y-121749000D03*
X126053700Y-117304000D03*
X129101700Y-117304000D03*
X124656700Y-117304000D03*
X124656700Y-97238000D03*
X123640700Y-102064000D03*
X123767700Y-104604000D03*
X125418700Y-105747000D03*
X124529688Y-105747000D03*
X129367260Y-101942490D03*
X132911700Y-99905000D03*
X127641210Y-117304000D03*
X130244700Y-106001000D03*
X130244700Y-107017000D03*
X133038700Y-107271000D03*
X129990700Y-110319000D03*
X131514700Y-111081000D03*
X131514700Y-114129000D03*
X129990700Y-113621000D03*
X133292700Y-114129000D03*
X133292700Y-111081000D03*
X133038700Y-116923000D03*
X131514700Y-119463000D03*
X127704700Y-121495000D03*
X126180700Y-121495000D03*
X129228700Y-121495000D03*
X122878700Y-121495000D03*
X125164700Y-123527000D03*
X125926700Y-126321000D03*
X126942700Y-96095000D03*
X124402700Y-91269000D03*
X123386700Y-88729000D03*
X131260700Y-85173000D03*
X130244700Y-84157000D03*
%TO.N,VBAT*%
X127450700Y-97238000D03*
X123767700Y-102699000D03*
X129355700Y-101327387D03*
%TO.N,Net-(R27-Pad1)*%
X124783700Y-112859000D03*
X128720700Y-106636000D03*
%TO.N,Net-(R28-Pad1)*%
X128106912Y-106233788D03*
X124910700Y-110065000D03*
%TO.N,/display_en0*%
X123132700Y-101429000D03*
X133038700Y-85427000D03*
%TO.N,/display_en1*%
X123640700Y-100921000D03*
X130244700Y-92793000D03*
%TD*%
D14*
%TO.N,VBAT*%
X139236700Y-97345059D02*
X139234736Y-97365000D01*
X139242575Y-97444590D01*
X139265790Y-97521121D01*
X139303490Y-97591653D01*
X139332169Y-97626598D01*
X139354226Y-97653474D01*
X139416047Y-97704210D01*
X139446000Y-97720220D01*
X139446000Y-105137780D01*
X139416047Y-105153790D01*
X139354226Y-105204526D01*
X139303490Y-105266347D01*
X139265790Y-105336879D01*
X139242575Y-105413410D01*
X139234736Y-105493000D01*
X139236701Y-105512951D01*
X139236700Y-127185000D01*
X117188700Y-127185000D01*
X117188700Y-124626000D01*
X119417157Y-124626000D01*
X119417157Y-126326000D01*
X119424513Y-126400689D01*
X119446299Y-126472508D01*
X119481678Y-126538696D01*
X119529289Y-126596711D01*
X119587304Y-126644322D01*
X119653492Y-126679701D01*
X119725311Y-126701487D01*
X119800000Y-126708843D01*
X121500000Y-126708843D01*
X121574689Y-126701487D01*
X121646508Y-126679701D01*
X121712696Y-126644322D01*
X121770711Y-126596711D01*
X121818322Y-126538696D01*
X121853701Y-126472508D01*
X121875487Y-126400689D01*
X121882843Y-126326000D01*
X121882843Y-125701000D01*
X123618628Y-125701000D01*
X123630888Y-125825482D01*
X123667198Y-125945180D01*
X123726163Y-126055494D01*
X123805515Y-126152185D01*
X123902206Y-126231537D01*
X124012520Y-126290502D01*
X124132218Y-126326812D01*
X124256700Y-126339072D01*
X124370950Y-126336000D01*
X124529700Y-126177250D01*
X124529700Y-125178000D01*
X123780450Y-125178000D01*
X123621700Y-125336750D01*
X123618628Y-125701000D01*
X121882843Y-125701000D01*
X121882843Y-124626000D01*
X121875487Y-124551311D01*
X121853701Y-124479492D01*
X121818322Y-124413304D01*
X121808225Y-124401000D01*
X123618628Y-124401000D01*
X123621700Y-124765250D01*
X123780450Y-124924000D01*
X124529700Y-124924000D01*
X124529700Y-124904000D01*
X124783700Y-124904000D01*
X124783700Y-124924000D01*
X124803700Y-124924000D01*
X124803700Y-125178000D01*
X124783700Y-125178000D01*
X124783700Y-126177250D01*
X124942450Y-126336000D01*
X125056700Y-126339072D01*
X125181182Y-126326812D01*
X125300880Y-126290502D01*
X125317100Y-126281832D01*
X125317100Y-126381040D01*
X125340526Y-126498814D01*
X125386479Y-126609754D01*
X125453192Y-126709598D01*
X125538102Y-126794508D01*
X125637946Y-126861221D01*
X125748886Y-126907174D01*
X125866660Y-126930600D01*
X125986740Y-126930600D01*
X126104514Y-126907174D01*
X126215454Y-126861221D01*
X126315298Y-126794508D01*
X126400208Y-126709598D01*
X126466921Y-126609754D01*
X126512874Y-126498814D01*
X126536300Y-126381040D01*
X126536300Y-126260960D01*
X126512874Y-126143186D01*
X126466921Y-126032246D01*
X126400208Y-125932402D01*
X126385884Y-125918078D01*
X126461622Y-125855922D01*
X126531700Y-125770531D01*
X126601779Y-125855922D01*
X126720702Y-125953519D01*
X126856379Y-126026040D01*
X127003598Y-126070699D01*
X127156700Y-126085778D01*
X127309803Y-126070699D01*
X127457022Y-126026040D01*
X127592699Y-125953519D01*
X127711622Y-125855922D01*
X127781700Y-125770531D01*
X127851779Y-125855922D01*
X127970702Y-125953519D01*
X128106379Y-126026040D01*
X128253598Y-126070699D01*
X128406700Y-126085778D01*
X128559803Y-126070699D01*
X128707022Y-126026040D01*
X128842699Y-125953519D01*
X128961622Y-125855922D01*
X129031700Y-125770531D01*
X129101779Y-125855922D01*
X129220702Y-125953519D01*
X129356379Y-126026040D01*
X129503598Y-126070699D01*
X129656700Y-126085778D01*
X129809803Y-126070699D01*
X129957022Y-126026040D01*
X130092699Y-125953519D01*
X130211622Y-125855922D01*
X130281700Y-125770531D01*
X130351779Y-125855922D01*
X130470702Y-125953519D01*
X130606379Y-126026040D01*
X130753598Y-126070699D01*
X130906700Y-126085778D01*
X131059803Y-126070699D01*
X131207022Y-126026040D01*
X131342699Y-125953519D01*
X131461622Y-125855922D01*
X131531700Y-125770531D01*
X131601779Y-125855922D01*
X131720702Y-125953519D01*
X131856379Y-126026040D01*
X132003598Y-126070699D01*
X132156700Y-126085778D01*
X132309803Y-126070699D01*
X132457022Y-126026040D01*
X132592699Y-125953519D01*
X132711622Y-125855922D01*
X132809219Y-125736999D01*
X132881740Y-125601322D01*
X132926399Y-125454103D01*
X132936183Y-125354757D01*
X134659000Y-125354757D01*
X134659000Y-125597243D01*
X134706307Y-125835069D01*
X134799102Y-126059097D01*
X134933820Y-126260717D01*
X135105283Y-126432180D01*
X135306903Y-126566898D01*
X135530931Y-126659693D01*
X135768757Y-126707000D01*
X136011243Y-126707000D01*
X136249069Y-126659693D01*
X136473097Y-126566898D01*
X136674717Y-126432180D01*
X136846180Y-126260717D01*
X136980898Y-126059097D01*
X137073693Y-125835069D01*
X137121000Y-125597243D01*
X137121000Y-125354757D01*
X137073693Y-125116931D01*
X136980898Y-124892903D01*
X136846180Y-124691283D01*
X136674717Y-124519820D01*
X136473097Y-124385102D01*
X136249069Y-124292307D01*
X136011243Y-124245000D01*
X135768757Y-124245000D01*
X135530931Y-124292307D01*
X135306903Y-124385102D01*
X135105283Y-124519820D01*
X134933820Y-124691283D01*
X134799102Y-124892903D01*
X134706307Y-125116931D01*
X134659000Y-125354757D01*
X132936183Y-125354757D01*
X132937700Y-125339360D01*
X132937700Y-124762640D01*
X132926399Y-124647897D01*
X132881740Y-124500678D01*
X132809219Y-124365001D01*
X132711622Y-124246078D01*
X132592698Y-124148481D01*
X132457021Y-124075960D01*
X132309802Y-124031301D01*
X132156700Y-124016222D01*
X132003597Y-124031301D01*
X131856378Y-124075960D01*
X131720701Y-124148481D01*
X131601778Y-124246078D01*
X131531700Y-124331469D01*
X131461622Y-124246078D01*
X131342698Y-124148481D01*
X131207021Y-124075960D01*
X131059802Y-124031301D01*
X130906700Y-124016222D01*
X130753597Y-124031301D01*
X130606378Y-124075960D01*
X130470701Y-124148481D01*
X130351778Y-124246078D01*
X130281700Y-124331469D01*
X130211622Y-124246078D01*
X130092698Y-124148481D01*
X129957021Y-124075960D01*
X129809802Y-124031301D01*
X129656700Y-124016222D01*
X129503597Y-124031301D01*
X129356378Y-124075960D01*
X129220701Y-124148481D01*
X129101778Y-124246078D01*
X129031700Y-124331469D01*
X128961622Y-124246078D01*
X128842698Y-124148481D01*
X128707021Y-124075960D01*
X128559802Y-124031301D01*
X128406700Y-124016222D01*
X128253597Y-124031301D01*
X128106378Y-124075960D01*
X127970701Y-124148481D01*
X127851778Y-124246078D01*
X127781700Y-124331469D01*
X127711622Y-124246078D01*
X127592698Y-124148481D01*
X127457021Y-124075960D01*
X127309802Y-124031301D01*
X127156700Y-124016222D01*
X127003597Y-124031301D01*
X126856378Y-124075960D01*
X126720701Y-124148481D01*
X126601778Y-124246078D01*
X126531700Y-124331469D01*
X126461622Y-124246078D01*
X126342698Y-124148481D01*
X126207021Y-124075960D01*
X126059802Y-124031301D01*
X125906700Y-124016222D01*
X125753597Y-124031301D01*
X125606378Y-124075960D01*
X125603736Y-124077372D01*
X125587237Y-124046506D01*
X125550837Y-124002152D01*
X125553298Y-124000508D01*
X125638208Y-123915598D01*
X125704921Y-123815754D01*
X125750874Y-123704814D01*
X125774300Y-123587040D01*
X125774300Y-123466960D01*
X125750874Y-123349186D01*
X125704921Y-123238246D01*
X125638208Y-123138402D01*
X125553298Y-123053492D01*
X125453454Y-122986779D01*
X125342514Y-122940826D01*
X125224740Y-122917400D01*
X125104660Y-122917400D01*
X124986886Y-122940826D01*
X124875946Y-122986779D01*
X124776102Y-123053492D01*
X124691192Y-123138402D01*
X124624479Y-123238246D01*
X124578526Y-123349186D01*
X124555100Y-123466960D01*
X124555100Y-123587040D01*
X124578526Y-123704814D01*
X124603870Y-123766000D01*
X124529698Y-123766000D01*
X124529698Y-123924748D01*
X124370950Y-123766000D01*
X124256700Y-123762928D01*
X124132218Y-123775188D01*
X124012520Y-123811498D01*
X123902206Y-123870463D01*
X123805515Y-123949815D01*
X123726163Y-124046506D01*
X123667198Y-124156820D01*
X123630888Y-124276518D01*
X123618628Y-124401000D01*
X121808225Y-124401000D01*
X121770711Y-124355289D01*
X121712696Y-124307678D01*
X121646508Y-124272299D01*
X121574689Y-124250513D01*
X121500000Y-124243157D01*
X119800000Y-124243157D01*
X119725311Y-124250513D01*
X119653492Y-124272299D01*
X119587304Y-124307678D01*
X119529289Y-124355289D01*
X119481678Y-124413304D01*
X119446299Y-124479492D01*
X119424513Y-124551311D01*
X119417157Y-124626000D01*
X117188700Y-124626000D01*
X117188700Y-120274757D01*
X119419000Y-120274757D01*
X119419000Y-120517243D01*
X119466307Y-120755069D01*
X119559102Y-120979097D01*
X119693820Y-121180717D01*
X119865283Y-121352180D01*
X120066903Y-121486898D01*
X120290931Y-121579693D01*
X120528757Y-121627000D01*
X120771243Y-121627000D01*
X121009069Y-121579693D01*
X121021890Y-121574382D01*
X120999100Y-121688960D01*
X120999100Y-121750324D01*
X120771243Y-121705000D01*
X120528757Y-121705000D01*
X120290931Y-121752307D01*
X120066903Y-121845102D01*
X119865283Y-121979820D01*
X119693820Y-122151283D01*
X119559102Y-122352903D01*
X119466307Y-122576931D01*
X119419000Y-122814757D01*
X119419000Y-123057243D01*
X119466307Y-123295069D01*
X119559102Y-123519097D01*
X119693820Y-123720717D01*
X119865283Y-123892180D01*
X120066903Y-124026898D01*
X120290931Y-124119693D01*
X120528757Y-124167000D01*
X120771243Y-124167000D01*
X121009069Y-124119693D01*
X121233097Y-124026898D01*
X121434717Y-123892180D01*
X121606180Y-123720717D01*
X121740898Y-123519097D01*
X121833693Y-123295069D01*
X121881000Y-123057243D01*
X121881000Y-122814757D01*
X134659000Y-122814757D01*
X134659000Y-123057243D01*
X134706307Y-123295069D01*
X134799102Y-123519097D01*
X134933820Y-123720717D01*
X135105283Y-123892180D01*
X135306903Y-124026898D01*
X135530931Y-124119693D01*
X135768757Y-124167000D01*
X136011243Y-124167000D01*
X136249069Y-124119693D01*
X136473097Y-124026898D01*
X136674717Y-123892180D01*
X136846180Y-123720717D01*
X136980898Y-123519097D01*
X137073693Y-123295069D01*
X137121000Y-123057243D01*
X137121000Y-122814757D01*
X137073693Y-122576931D01*
X136980898Y-122352903D01*
X136846180Y-122151283D01*
X136674717Y-121979820D01*
X136473097Y-121845102D01*
X136249069Y-121752307D01*
X136011243Y-121705000D01*
X135768757Y-121705000D01*
X135530931Y-121752307D01*
X135306903Y-121845102D01*
X135105283Y-121979820D01*
X134933820Y-122151283D01*
X134799102Y-122352903D01*
X134706307Y-122576931D01*
X134659000Y-122814757D01*
X121881000Y-122814757D01*
X121833693Y-122576931D01*
X121740898Y-122352903D01*
X121735793Y-122345263D01*
X121786514Y-122335174D01*
X121897454Y-122289221D01*
X121997298Y-122222508D01*
X122082208Y-122137598D01*
X122148921Y-122037754D01*
X122194874Y-121926814D01*
X122218300Y-121809040D01*
X122218300Y-121688960D01*
X122194874Y-121571186D01*
X122148921Y-121460246D01*
X122132026Y-121434960D01*
X122269100Y-121434960D01*
X122269100Y-121555040D01*
X122292526Y-121672814D01*
X122338479Y-121783754D01*
X122405192Y-121883598D01*
X122490102Y-121968508D01*
X122589946Y-122035221D01*
X122700886Y-122081174D01*
X122818660Y-122104600D01*
X122938740Y-122104600D01*
X123056514Y-122081174D01*
X123167454Y-122035221D01*
X123267298Y-121968508D01*
X123352208Y-121883598D01*
X123418921Y-121783754D01*
X123464874Y-121672814D01*
X123488300Y-121555040D01*
X123488300Y-121434960D01*
X125571100Y-121434960D01*
X125571100Y-121555040D01*
X125594526Y-121672814D01*
X125640479Y-121783754D01*
X125707192Y-121883598D01*
X125792102Y-121968508D01*
X125891946Y-122035221D01*
X126002886Y-122081174D01*
X126120660Y-122104600D01*
X126240740Y-122104600D01*
X126358514Y-122081174D01*
X126469454Y-122035221D01*
X126569298Y-121968508D01*
X126654208Y-121883598D01*
X126720921Y-121783754D01*
X126766874Y-121672814D01*
X126790300Y-121555040D01*
X126790300Y-121434960D01*
X127095100Y-121434960D01*
X127095100Y-121555040D01*
X127118526Y-121672814D01*
X127164479Y-121783754D01*
X127231192Y-121883598D01*
X127316102Y-121968508D01*
X127415946Y-122035221D01*
X127526886Y-122081174D01*
X127644660Y-122104600D01*
X127764740Y-122104600D01*
X127882514Y-122081174D01*
X127993454Y-122035221D01*
X128093298Y-121968508D01*
X128178208Y-121883598D01*
X128244921Y-121783754D01*
X128290874Y-121672814D01*
X128314300Y-121555040D01*
X128314300Y-121434960D01*
X128619100Y-121434960D01*
X128619100Y-121555040D01*
X128642526Y-121672814D01*
X128688479Y-121783754D01*
X128755192Y-121883598D01*
X128840102Y-121968508D01*
X128939946Y-122035221D01*
X129050886Y-122081174D01*
X129168660Y-122104600D01*
X129288740Y-122104600D01*
X129406514Y-122081174D01*
X129517454Y-122035221D01*
X129617298Y-121968508D01*
X129702208Y-121883598D01*
X129768921Y-121783754D01*
X129814874Y-121672814D01*
X129838300Y-121555040D01*
X129838300Y-121434960D01*
X129814874Y-121317186D01*
X129768921Y-121206246D01*
X129702208Y-121106402D01*
X129617298Y-121021492D01*
X129517454Y-120954779D01*
X129406514Y-120908826D01*
X129288740Y-120885400D01*
X129168660Y-120885400D01*
X129050886Y-120908826D01*
X128939946Y-120954779D01*
X128840102Y-121021492D01*
X128755192Y-121106402D01*
X128688479Y-121206246D01*
X128642526Y-121317186D01*
X128619100Y-121434960D01*
X128314300Y-121434960D01*
X128290874Y-121317186D01*
X128244921Y-121206246D01*
X128178208Y-121106402D01*
X128093298Y-121021492D01*
X127993454Y-120954779D01*
X127882514Y-120908826D01*
X127764740Y-120885400D01*
X127644660Y-120885400D01*
X127526886Y-120908826D01*
X127415946Y-120954779D01*
X127316102Y-121021492D01*
X127231192Y-121106402D01*
X127164479Y-121206246D01*
X127118526Y-121317186D01*
X127095100Y-121434960D01*
X126790300Y-121434960D01*
X126766874Y-121317186D01*
X126720921Y-121206246D01*
X126654208Y-121106402D01*
X126569298Y-121021492D01*
X126469454Y-120954779D01*
X126358514Y-120908826D01*
X126240740Y-120885400D01*
X126120660Y-120885400D01*
X126002886Y-120908826D01*
X125891946Y-120954779D01*
X125792102Y-121021492D01*
X125707192Y-121106402D01*
X125640479Y-121206246D01*
X125594526Y-121317186D01*
X125571100Y-121434960D01*
X123488300Y-121434960D01*
X123464874Y-121317186D01*
X123418921Y-121206246D01*
X123352208Y-121106402D01*
X123267298Y-121021492D01*
X123167454Y-120954779D01*
X123056514Y-120908826D01*
X122938740Y-120885400D01*
X122818660Y-120885400D01*
X122700886Y-120908826D01*
X122589946Y-120954779D01*
X122490102Y-121021492D01*
X122405192Y-121106402D01*
X122338479Y-121206246D01*
X122292526Y-121317186D01*
X122269100Y-121434960D01*
X122132026Y-121434960D01*
X122082208Y-121360402D01*
X121997298Y-121275492D01*
X121897454Y-121208779D01*
X121786514Y-121162826D01*
X121668740Y-121139400D01*
X121633787Y-121139400D01*
X121740898Y-120979097D01*
X121833693Y-120755069D01*
X121881000Y-120517243D01*
X121881000Y-120274757D01*
X134659000Y-120274757D01*
X134659000Y-120517243D01*
X134706307Y-120755069D01*
X134799102Y-120979097D01*
X134933820Y-121180717D01*
X135105283Y-121352180D01*
X135306903Y-121486898D01*
X135530931Y-121579693D01*
X135768757Y-121627000D01*
X136011243Y-121627000D01*
X136249069Y-121579693D01*
X136473097Y-121486898D01*
X136674717Y-121352180D01*
X136846180Y-121180717D01*
X136980898Y-120979097D01*
X137073693Y-120755069D01*
X137121000Y-120517243D01*
X137121000Y-120274757D01*
X137073693Y-120036931D01*
X136980898Y-119812903D01*
X136846180Y-119611283D01*
X136674717Y-119439820D01*
X136473097Y-119305102D01*
X136249069Y-119212307D01*
X136011243Y-119165000D01*
X135768757Y-119165000D01*
X135530931Y-119212307D01*
X135306903Y-119305102D01*
X135105283Y-119439820D01*
X134933820Y-119611283D01*
X134799102Y-119812903D01*
X134706307Y-120036931D01*
X134659000Y-120274757D01*
X121881000Y-120274757D01*
X121833693Y-120036931D01*
X121740898Y-119812903D01*
X121606180Y-119611283D01*
X121434717Y-119439820D01*
X121379553Y-119402960D01*
X130905100Y-119402960D01*
X130905100Y-119523040D01*
X130928526Y-119640814D01*
X130974479Y-119751754D01*
X131041192Y-119851598D01*
X131126102Y-119936508D01*
X131225946Y-120003221D01*
X131336886Y-120049174D01*
X131454660Y-120072600D01*
X131574740Y-120072600D01*
X131692514Y-120049174D01*
X131803454Y-120003221D01*
X131903298Y-119936508D01*
X131988208Y-119851598D01*
X132054921Y-119751754D01*
X132100874Y-119640814D01*
X132124300Y-119523040D01*
X132124300Y-119402960D01*
X132100874Y-119285186D01*
X132054921Y-119174246D01*
X131988208Y-119074402D01*
X131903298Y-118989492D01*
X131803454Y-118922779D01*
X131692514Y-118876826D01*
X131574740Y-118853400D01*
X131454660Y-118853400D01*
X131336886Y-118876826D01*
X131225946Y-118922779D01*
X131126102Y-118989492D01*
X131041192Y-119074402D01*
X130974479Y-119174246D01*
X130928526Y-119285186D01*
X130905100Y-119402960D01*
X121379553Y-119402960D01*
X121233097Y-119305102D01*
X121009069Y-119212307D01*
X120771243Y-119165000D01*
X120528757Y-119165000D01*
X120290931Y-119212307D01*
X120066903Y-119305102D01*
X119865283Y-119439820D01*
X119693820Y-119611283D01*
X119559102Y-119812903D01*
X119466307Y-120036931D01*
X119419000Y-120274757D01*
X117188700Y-120274757D01*
X117188700Y-117734757D01*
X119419000Y-117734757D01*
X119419000Y-117977243D01*
X119466307Y-118215069D01*
X119559102Y-118439097D01*
X119693820Y-118640717D01*
X119865283Y-118812180D01*
X120066903Y-118946898D01*
X120290931Y-119039693D01*
X120528757Y-119087000D01*
X120771243Y-119087000D01*
X121009069Y-119039693D01*
X121233097Y-118946898D01*
X121434717Y-118812180D01*
X121606180Y-118640717D01*
X121740898Y-118439097D01*
X121833693Y-118215069D01*
X121881000Y-117977243D01*
X121881000Y-117734757D01*
X121833693Y-117496931D01*
X121740898Y-117272903D01*
X121721559Y-117243960D01*
X124047100Y-117243960D01*
X124047100Y-117364040D01*
X124070526Y-117481814D01*
X124116479Y-117592754D01*
X124183192Y-117692598D01*
X124268102Y-117777508D01*
X124367946Y-117844221D01*
X124478886Y-117890174D01*
X124596660Y-117913600D01*
X124716740Y-117913600D01*
X124834514Y-117890174D01*
X124945454Y-117844221D01*
X125045298Y-117777508D01*
X125130208Y-117692598D01*
X125196921Y-117592754D01*
X125242874Y-117481814D01*
X125266300Y-117364040D01*
X125266300Y-117243960D01*
X125444100Y-117243960D01*
X125444100Y-117364040D01*
X125467526Y-117481814D01*
X125513479Y-117592754D01*
X125580192Y-117692598D01*
X125665102Y-117777508D01*
X125764946Y-117844221D01*
X125875886Y-117890174D01*
X125993660Y-117913600D01*
X126113740Y-117913600D01*
X126231514Y-117890174D01*
X126342454Y-117844221D01*
X126442298Y-117777508D01*
X126527208Y-117692598D01*
X126593921Y-117592754D01*
X126639874Y-117481814D01*
X126663300Y-117364040D01*
X126663300Y-117243960D01*
X127031610Y-117243960D01*
X127031610Y-117364040D01*
X127055036Y-117481814D01*
X127100989Y-117592754D01*
X127167702Y-117692598D01*
X127252612Y-117777508D01*
X127352456Y-117844221D01*
X127463396Y-117890174D01*
X127581170Y-117913600D01*
X127701250Y-117913600D01*
X127819024Y-117890174D01*
X127929964Y-117844221D01*
X128029808Y-117777508D01*
X128114718Y-117692598D01*
X128181431Y-117592754D01*
X128227384Y-117481814D01*
X128250810Y-117364040D01*
X128250810Y-117243960D01*
X128492100Y-117243960D01*
X128492100Y-117364040D01*
X128515526Y-117481814D01*
X128561479Y-117592754D01*
X128628192Y-117692598D01*
X128713102Y-117777508D01*
X128812946Y-117844221D01*
X128923886Y-117890174D01*
X129041660Y-117913600D01*
X129161740Y-117913600D01*
X129279514Y-117890174D01*
X129390454Y-117844221D01*
X129490298Y-117777508D01*
X129533049Y-117734757D01*
X134659000Y-117734757D01*
X134659000Y-117977243D01*
X134706307Y-118215069D01*
X134799102Y-118439097D01*
X134933820Y-118640717D01*
X135105283Y-118812180D01*
X135306903Y-118946898D01*
X135530931Y-119039693D01*
X135768757Y-119087000D01*
X136011243Y-119087000D01*
X136249069Y-119039693D01*
X136473097Y-118946898D01*
X136674717Y-118812180D01*
X136846180Y-118640717D01*
X136980898Y-118439097D01*
X137073693Y-118215069D01*
X137121000Y-117977243D01*
X137121000Y-117734757D01*
X137073693Y-117496931D01*
X136980898Y-117272903D01*
X136846180Y-117071283D01*
X136674717Y-116899820D01*
X136473097Y-116765102D01*
X136249069Y-116672307D01*
X136011243Y-116625000D01*
X135768757Y-116625000D01*
X135530931Y-116672307D01*
X135306903Y-116765102D01*
X135105283Y-116899820D01*
X134933820Y-117071283D01*
X134799102Y-117272903D01*
X134706307Y-117496931D01*
X134659000Y-117734757D01*
X129533049Y-117734757D01*
X129575208Y-117692598D01*
X129641921Y-117592754D01*
X129687874Y-117481814D01*
X129711300Y-117364040D01*
X129711300Y-117243960D01*
X129687874Y-117126186D01*
X129641921Y-117015246D01*
X129575208Y-116915402D01*
X129522766Y-116862960D01*
X132429100Y-116862960D01*
X132429100Y-116983040D01*
X132452526Y-117100814D01*
X132498479Y-117211754D01*
X132565192Y-117311598D01*
X132650102Y-117396508D01*
X132749946Y-117463221D01*
X132860886Y-117509174D01*
X132978660Y-117532600D01*
X133098740Y-117532600D01*
X133216514Y-117509174D01*
X133327454Y-117463221D01*
X133427298Y-117396508D01*
X133512208Y-117311598D01*
X133578921Y-117211754D01*
X133624874Y-117100814D01*
X133648300Y-116983040D01*
X133648300Y-116862960D01*
X133624874Y-116745186D01*
X133578921Y-116634246D01*
X133512208Y-116534402D01*
X133427298Y-116449492D01*
X133327454Y-116382779D01*
X133216514Y-116336826D01*
X133098740Y-116313400D01*
X132978660Y-116313400D01*
X132860886Y-116336826D01*
X132749946Y-116382779D01*
X132650102Y-116449492D01*
X132565192Y-116534402D01*
X132498479Y-116634246D01*
X132452526Y-116745186D01*
X132429100Y-116862960D01*
X129522766Y-116862960D01*
X129490298Y-116830492D01*
X129390454Y-116763779D01*
X129279514Y-116717826D01*
X129161740Y-116694400D01*
X129041660Y-116694400D01*
X128923886Y-116717826D01*
X128812946Y-116763779D01*
X128713102Y-116830492D01*
X128628192Y-116915402D01*
X128561479Y-117015246D01*
X128515526Y-117126186D01*
X128492100Y-117243960D01*
X128250810Y-117243960D01*
X128227384Y-117126186D01*
X128181431Y-117015246D01*
X128114718Y-116915402D01*
X128029808Y-116830492D01*
X127929964Y-116763779D01*
X127819024Y-116717826D01*
X127701250Y-116694400D01*
X127581170Y-116694400D01*
X127463396Y-116717826D01*
X127352456Y-116763779D01*
X127252612Y-116830492D01*
X127167702Y-116915402D01*
X127100989Y-117015246D01*
X127055036Y-117126186D01*
X127031610Y-117243960D01*
X126663300Y-117243960D01*
X126639874Y-117126186D01*
X126593921Y-117015246D01*
X126527208Y-116915402D01*
X126442298Y-116830492D01*
X126342454Y-116763779D01*
X126231514Y-116717826D01*
X126113740Y-116694400D01*
X125993660Y-116694400D01*
X125875886Y-116717826D01*
X125764946Y-116763779D01*
X125665102Y-116830492D01*
X125580192Y-116915402D01*
X125513479Y-117015246D01*
X125467526Y-117126186D01*
X125444100Y-117243960D01*
X125266300Y-117243960D01*
X125242874Y-117126186D01*
X125196921Y-117015246D01*
X125130208Y-116915402D01*
X125045298Y-116830492D01*
X124945454Y-116763779D01*
X124834514Y-116717826D01*
X124716740Y-116694400D01*
X124596660Y-116694400D01*
X124478886Y-116717826D01*
X124367946Y-116763779D01*
X124268102Y-116830492D01*
X124183192Y-116915402D01*
X124116479Y-117015246D01*
X124070526Y-117126186D01*
X124047100Y-117243960D01*
X121721559Y-117243960D01*
X121606180Y-117071283D01*
X121434717Y-116899820D01*
X121233097Y-116765102D01*
X121009069Y-116672307D01*
X120771243Y-116625000D01*
X120528757Y-116625000D01*
X120290931Y-116672307D01*
X120066903Y-116765102D01*
X119865283Y-116899820D01*
X119693820Y-117071283D01*
X119559102Y-117272903D01*
X119466307Y-117496931D01*
X119419000Y-117734757D01*
X117188700Y-117734757D01*
X117188700Y-115194757D01*
X119419000Y-115194757D01*
X119419000Y-115437243D01*
X119466307Y-115675069D01*
X119559102Y-115899097D01*
X119693820Y-116100717D01*
X119865283Y-116272180D01*
X120066903Y-116406898D01*
X120290931Y-116499693D01*
X120528757Y-116547000D01*
X120771243Y-116547000D01*
X121009069Y-116499693D01*
X121233097Y-116406898D01*
X121434717Y-116272180D01*
X121606180Y-116100717D01*
X121740898Y-115899097D01*
X121833693Y-115675069D01*
X121881000Y-115437243D01*
X121881000Y-115194757D01*
X134659000Y-115194757D01*
X134659000Y-115437243D01*
X134706307Y-115675069D01*
X134799102Y-115899097D01*
X134933820Y-116100717D01*
X135105283Y-116272180D01*
X135306903Y-116406898D01*
X135530931Y-116499693D01*
X135768757Y-116547000D01*
X136011243Y-116547000D01*
X136249069Y-116499693D01*
X136473097Y-116406898D01*
X136674717Y-116272180D01*
X136846180Y-116100717D01*
X136980898Y-115899097D01*
X137073693Y-115675069D01*
X137121000Y-115437243D01*
X137121000Y-115194757D01*
X137073693Y-114956931D01*
X136980898Y-114732903D01*
X136846180Y-114531283D01*
X136674717Y-114359820D01*
X136473097Y-114225102D01*
X136249069Y-114132307D01*
X136011243Y-114085000D01*
X135768757Y-114085000D01*
X135530931Y-114132307D01*
X135306903Y-114225102D01*
X135105283Y-114359820D01*
X134933820Y-114531283D01*
X134799102Y-114732903D01*
X134706307Y-114956931D01*
X134659000Y-115194757D01*
X121881000Y-115194757D01*
X121833693Y-114956931D01*
X121740898Y-114732903D01*
X121606180Y-114531283D01*
X121434717Y-114359820D01*
X121233097Y-114225102D01*
X121009069Y-114132307D01*
X120771243Y-114085000D01*
X120528757Y-114085000D01*
X120290931Y-114132307D01*
X120066903Y-114225102D01*
X119865283Y-114359820D01*
X119693820Y-114531283D01*
X119559102Y-114732903D01*
X119466307Y-114956931D01*
X119419000Y-115194757D01*
X117188700Y-115194757D01*
X117188700Y-111926000D01*
X119417157Y-111926000D01*
X119417157Y-113626000D01*
X119424513Y-113700689D01*
X119446299Y-113772508D01*
X119481678Y-113838696D01*
X119529289Y-113896711D01*
X119587304Y-113944322D01*
X119653492Y-113979701D01*
X119725311Y-114001487D01*
X119800000Y-114008843D01*
X121500000Y-114008843D01*
X121574689Y-114001487D01*
X121646508Y-113979701D01*
X121712696Y-113944322D01*
X121770711Y-113896711D01*
X121818322Y-113838696D01*
X121853701Y-113772508D01*
X121875487Y-113700689D01*
X121882843Y-113626000D01*
X121882843Y-113560960D01*
X129381100Y-113560960D01*
X129381100Y-113681040D01*
X129404526Y-113798814D01*
X129450479Y-113909754D01*
X129517192Y-114009598D01*
X129602102Y-114094508D01*
X129701946Y-114161221D01*
X129812886Y-114207174D01*
X129930660Y-114230600D01*
X130050740Y-114230600D01*
X130168514Y-114207174D01*
X130279454Y-114161221D01*
X130379298Y-114094508D01*
X130404846Y-114068960D01*
X130905100Y-114068960D01*
X130905100Y-114189040D01*
X130928526Y-114306814D01*
X130974479Y-114417754D01*
X131041192Y-114517598D01*
X131126102Y-114602508D01*
X131225946Y-114669221D01*
X131336886Y-114715174D01*
X131454660Y-114738600D01*
X131574740Y-114738600D01*
X131692514Y-114715174D01*
X131803454Y-114669221D01*
X131903298Y-114602508D01*
X131988208Y-114517598D01*
X132054921Y-114417754D01*
X132100874Y-114306814D01*
X132124300Y-114189040D01*
X132124300Y-114068960D01*
X132683100Y-114068960D01*
X132683100Y-114189040D01*
X132706526Y-114306814D01*
X132752479Y-114417754D01*
X132819192Y-114517598D01*
X132904102Y-114602508D01*
X133003946Y-114669221D01*
X133114886Y-114715174D01*
X133232660Y-114738600D01*
X133352740Y-114738600D01*
X133470514Y-114715174D01*
X133581454Y-114669221D01*
X133681298Y-114602508D01*
X133766208Y-114517598D01*
X133832921Y-114417754D01*
X133878874Y-114306814D01*
X133902300Y-114189040D01*
X133902300Y-114068960D01*
X133878874Y-113951186D01*
X133832921Y-113840246D01*
X133766208Y-113740402D01*
X133681298Y-113655492D01*
X133581454Y-113588779D01*
X133470514Y-113542826D01*
X133352740Y-113519400D01*
X133232660Y-113519400D01*
X133114886Y-113542826D01*
X133003946Y-113588779D01*
X132904102Y-113655492D01*
X132819192Y-113740402D01*
X132752479Y-113840246D01*
X132706526Y-113951186D01*
X132683100Y-114068960D01*
X132124300Y-114068960D01*
X132100874Y-113951186D01*
X132054921Y-113840246D01*
X131988208Y-113740402D01*
X131903298Y-113655492D01*
X131803454Y-113588779D01*
X131692514Y-113542826D01*
X131574740Y-113519400D01*
X131454660Y-113519400D01*
X131336886Y-113542826D01*
X131225946Y-113588779D01*
X131126102Y-113655492D01*
X131041192Y-113740402D01*
X130974479Y-113840246D01*
X130928526Y-113951186D01*
X130905100Y-114068960D01*
X130404846Y-114068960D01*
X130464208Y-114009598D01*
X130530921Y-113909754D01*
X130576874Y-113798814D01*
X130600300Y-113681040D01*
X130600300Y-113560960D01*
X130576874Y-113443186D01*
X130530921Y-113332246D01*
X130464208Y-113232402D01*
X130379298Y-113147492D01*
X130279454Y-113080779D01*
X130168514Y-113034826D01*
X130050740Y-113011400D01*
X129930660Y-113011400D01*
X129812886Y-113034826D01*
X129701946Y-113080779D01*
X129602102Y-113147492D01*
X129517192Y-113232402D01*
X129450479Y-113332246D01*
X129404526Y-113443186D01*
X129381100Y-113560960D01*
X121882843Y-113560960D01*
X121882843Y-112798960D01*
X124174100Y-112798960D01*
X124174100Y-112919040D01*
X124197526Y-113036814D01*
X124243479Y-113147754D01*
X124310192Y-113247598D01*
X124395102Y-113332508D01*
X124494946Y-113399221D01*
X124605886Y-113445174D01*
X124723660Y-113468600D01*
X124843740Y-113468600D01*
X124961514Y-113445174D01*
X125072454Y-113399221D01*
X125172298Y-113332508D01*
X125257208Y-113247598D01*
X125323921Y-113147754D01*
X125369874Y-113036814D01*
X125393300Y-112919040D01*
X125393300Y-112798960D01*
X125369874Y-112681186D01*
X125358927Y-112654757D01*
X134659000Y-112654757D01*
X134659000Y-112897243D01*
X134706307Y-113135069D01*
X134799102Y-113359097D01*
X134933820Y-113560717D01*
X135105283Y-113732180D01*
X135306903Y-113866898D01*
X135530931Y-113959693D01*
X135768757Y-114007000D01*
X136011243Y-114007000D01*
X136249069Y-113959693D01*
X136473097Y-113866898D01*
X136674717Y-113732180D01*
X136846180Y-113560717D01*
X136980898Y-113359097D01*
X137073693Y-113135069D01*
X137121000Y-112897243D01*
X137121000Y-112654757D01*
X137073693Y-112416931D01*
X136980898Y-112192903D01*
X136846180Y-111991283D01*
X136674717Y-111819820D01*
X136473097Y-111685102D01*
X136249069Y-111592307D01*
X136011243Y-111545000D01*
X135768757Y-111545000D01*
X135530931Y-111592307D01*
X135306903Y-111685102D01*
X135105283Y-111819820D01*
X134933820Y-111991283D01*
X134799102Y-112192903D01*
X134706307Y-112416931D01*
X134659000Y-112654757D01*
X125358927Y-112654757D01*
X125323921Y-112570246D01*
X125257208Y-112470402D01*
X125172298Y-112385492D01*
X125072454Y-112318779D01*
X124961514Y-112272826D01*
X124843740Y-112249400D01*
X124723660Y-112249400D01*
X124605886Y-112272826D01*
X124494946Y-112318779D01*
X124395102Y-112385492D01*
X124310192Y-112470402D01*
X124243479Y-112570246D01*
X124197526Y-112681186D01*
X124174100Y-112798960D01*
X121882843Y-112798960D01*
X121882843Y-111926000D01*
X121875487Y-111851311D01*
X121853701Y-111779492D01*
X121818322Y-111713304D01*
X121770711Y-111655289D01*
X121712696Y-111607678D01*
X121646508Y-111572299D01*
X121574689Y-111550513D01*
X121500000Y-111543157D01*
X119800000Y-111543157D01*
X119725311Y-111550513D01*
X119653492Y-111572299D01*
X119587304Y-111607678D01*
X119529289Y-111655289D01*
X119481678Y-111713304D01*
X119446299Y-111779492D01*
X119424513Y-111851311D01*
X119417157Y-111926000D01*
X117188700Y-111926000D01*
X117188700Y-110114757D01*
X119419000Y-110114757D01*
X119419000Y-110357243D01*
X119466307Y-110595069D01*
X119559102Y-110819097D01*
X119693820Y-111020717D01*
X119865283Y-111192180D01*
X120066903Y-111326898D01*
X120290931Y-111419693D01*
X120528757Y-111467000D01*
X120771243Y-111467000D01*
X121009069Y-111419693D01*
X121233097Y-111326898D01*
X121434717Y-111192180D01*
X121605937Y-111020960D01*
X130905100Y-111020960D01*
X130905100Y-111141040D01*
X130928526Y-111258814D01*
X130974479Y-111369754D01*
X131041192Y-111469598D01*
X131126102Y-111554508D01*
X131225946Y-111621221D01*
X131336886Y-111667174D01*
X131454660Y-111690600D01*
X131574740Y-111690600D01*
X131692514Y-111667174D01*
X131803454Y-111621221D01*
X131903298Y-111554508D01*
X131988208Y-111469598D01*
X132054921Y-111369754D01*
X132100874Y-111258814D01*
X132124300Y-111141040D01*
X132124300Y-111020960D01*
X132683100Y-111020960D01*
X132683100Y-111141040D01*
X132706526Y-111258814D01*
X132752479Y-111369754D01*
X132819192Y-111469598D01*
X132904102Y-111554508D01*
X133003946Y-111621221D01*
X133114886Y-111667174D01*
X133232660Y-111690600D01*
X133352740Y-111690600D01*
X133470514Y-111667174D01*
X133581454Y-111621221D01*
X133681298Y-111554508D01*
X133766208Y-111469598D01*
X133832921Y-111369754D01*
X133878874Y-111258814D01*
X133902300Y-111141040D01*
X133902300Y-111020960D01*
X133878874Y-110903186D01*
X133832921Y-110792246D01*
X133766208Y-110692402D01*
X133681298Y-110607492D01*
X133581454Y-110540779D01*
X133470514Y-110494826D01*
X133352740Y-110471400D01*
X133232660Y-110471400D01*
X133114886Y-110494826D01*
X133003946Y-110540779D01*
X132904102Y-110607492D01*
X132819192Y-110692402D01*
X132752479Y-110792246D01*
X132706526Y-110903186D01*
X132683100Y-111020960D01*
X132124300Y-111020960D01*
X132100874Y-110903186D01*
X132054921Y-110792246D01*
X131988208Y-110692402D01*
X131903298Y-110607492D01*
X131803454Y-110540779D01*
X131692514Y-110494826D01*
X131574740Y-110471400D01*
X131454660Y-110471400D01*
X131336886Y-110494826D01*
X131225946Y-110540779D01*
X131126102Y-110607492D01*
X131041192Y-110692402D01*
X130974479Y-110792246D01*
X130928526Y-110903186D01*
X130905100Y-111020960D01*
X121605937Y-111020960D01*
X121606180Y-111020717D01*
X121740898Y-110819097D01*
X121833693Y-110595069D01*
X121881000Y-110357243D01*
X121881000Y-110114757D01*
X121859160Y-110004960D01*
X124301100Y-110004960D01*
X124301100Y-110125040D01*
X124324526Y-110242814D01*
X124370479Y-110353754D01*
X124437192Y-110453598D01*
X124522102Y-110538508D01*
X124621946Y-110605221D01*
X124732886Y-110651174D01*
X124850660Y-110674600D01*
X124970740Y-110674600D01*
X125088514Y-110651174D01*
X125199454Y-110605221D01*
X125299298Y-110538508D01*
X125384208Y-110453598D01*
X125450921Y-110353754D01*
X125490186Y-110258960D01*
X129381100Y-110258960D01*
X129381100Y-110379040D01*
X129404526Y-110496814D01*
X129450479Y-110607754D01*
X129517192Y-110707598D01*
X129602102Y-110792508D01*
X129701946Y-110859221D01*
X129812886Y-110905174D01*
X129930660Y-110928600D01*
X130050740Y-110928600D01*
X130168514Y-110905174D01*
X130279454Y-110859221D01*
X130379298Y-110792508D01*
X130464208Y-110707598D01*
X130530921Y-110607754D01*
X130576874Y-110496814D01*
X130600300Y-110379040D01*
X130600300Y-110258960D01*
X130576874Y-110141186D01*
X130565927Y-110114757D01*
X134659000Y-110114757D01*
X134659000Y-110357243D01*
X134706307Y-110595069D01*
X134799102Y-110819097D01*
X134933820Y-111020717D01*
X135105283Y-111192180D01*
X135306903Y-111326898D01*
X135530931Y-111419693D01*
X135768757Y-111467000D01*
X136011243Y-111467000D01*
X136249069Y-111419693D01*
X136473097Y-111326898D01*
X136674717Y-111192180D01*
X136846180Y-111020717D01*
X136980898Y-110819097D01*
X137073693Y-110595069D01*
X137121000Y-110357243D01*
X137121000Y-110114757D01*
X137073693Y-109876931D01*
X136980898Y-109652903D01*
X136846180Y-109451283D01*
X136674717Y-109279820D01*
X136473097Y-109145102D01*
X136249069Y-109052307D01*
X136011243Y-109005000D01*
X135768757Y-109005000D01*
X135530931Y-109052307D01*
X135306903Y-109145102D01*
X135105283Y-109279820D01*
X134933820Y-109451283D01*
X134799102Y-109652903D01*
X134706307Y-109876931D01*
X134659000Y-110114757D01*
X130565927Y-110114757D01*
X130530921Y-110030246D01*
X130464208Y-109930402D01*
X130379298Y-109845492D01*
X130279454Y-109778779D01*
X130168514Y-109732826D01*
X130050740Y-109709400D01*
X129930660Y-109709400D01*
X129812886Y-109732826D01*
X129701946Y-109778779D01*
X129602102Y-109845492D01*
X129517192Y-109930402D01*
X129450479Y-110030246D01*
X129404526Y-110141186D01*
X129381100Y-110258960D01*
X125490186Y-110258960D01*
X125496874Y-110242814D01*
X125520300Y-110125040D01*
X125520300Y-110004960D01*
X125496874Y-109887186D01*
X125450921Y-109776246D01*
X125384208Y-109676402D01*
X125299298Y-109591492D01*
X125199454Y-109524779D01*
X125088514Y-109478826D01*
X124970740Y-109455400D01*
X124850660Y-109455400D01*
X124732886Y-109478826D01*
X124621946Y-109524779D01*
X124522102Y-109591492D01*
X124437192Y-109676402D01*
X124370479Y-109776246D01*
X124324526Y-109887186D01*
X124301100Y-110004960D01*
X121859160Y-110004960D01*
X121833693Y-109876931D01*
X121740898Y-109652903D01*
X121606180Y-109451283D01*
X121434717Y-109279820D01*
X121233097Y-109145102D01*
X121009069Y-109052307D01*
X120771243Y-109005000D01*
X120528757Y-109005000D01*
X120290931Y-109052307D01*
X120066903Y-109145102D01*
X119865283Y-109279820D01*
X119693820Y-109451283D01*
X119559102Y-109652903D01*
X119466307Y-109876931D01*
X119419000Y-110114757D01*
X117188700Y-110114757D01*
X117188700Y-107574757D01*
X119419000Y-107574757D01*
X119419000Y-107817243D01*
X119466307Y-108055069D01*
X119559102Y-108279097D01*
X119693820Y-108480717D01*
X119865283Y-108652180D01*
X120066903Y-108786898D01*
X120290931Y-108879693D01*
X120528757Y-108927000D01*
X120771243Y-108927000D01*
X121009069Y-108879693D01*
X121233097Y-108786898D01*
X121434717Y-108652180D01*
X121606180Y-108480717D01*
X121740898Y-108279097D01*
X121833693Y-108055069D01*
X121881000Y-107817243D01*
X121881000Y-107574757D01*
X121833693Y-107336931D01*
X121740898Y-107112903D01*
X121606180Y-106911283D01*
X121434717Y-106739820D01*
X121233097Y-106605102D01*
X121009069Y-106512307D01*
X120771243Y-106465000D01*
X120528757Y-106465000D01*
X120290931Y-106512307D01*
X120066903Y-106605102D01*
X119865283Y-106739820D01*
X119693820Y-106911283D01*
X119559102Y-107112903D01*
X119466307Y-107336931D01*
X119419000Y-107574757D01*
X117188700Y-107574757D01*
X117188700Y-105512941D01*
X117190664Y-105493000D01*
X117187491Y-105460779D01*
X117182825Y-105413410D01*
X117159610Y-105336879D01*
X117121910Y-105266347D01*
X117094000Y-105232339D01*
X117094000Y-105034757D01*
X119419000Y-105034757D01*
X119419000Y-105277243D01*
X119466307Y-105515069D01*
X119559102Y-105739097D01*
X119693820Y-105940717D01*
X119865283Y-106112180D01*
X120066903Y-106246898D01*
X120290931Y-106339693D01*
X120528757Y-106387000D01*
X120771243Y-106387000D01*
X121009069Y-106339693D01*
X121233097Y-106246898D01*
X121434717Y-106112180D01*
X121606180Y-105940717D01*
X121740898Y-105739097D01*
X121762493Y-105686960D01*
X123920088Y-105686960D01*
X123920088Y-105807040D01*
X123943514Y-105924814D01*
X123989467Y-106035754D01*
X124056180Y-106135598D01*
X124141090Y-106220508D01*
X124240934Y-106287221D01*
X124351874Y-106333174D01*
X124469648Y-106356600D01*
X124589728Y-106356600D01*
X124707502Y-106333174D01*
X124818442Y-106287221D01*
X124918286Y-106220508D01*
X124974194Y-106164600D01*
X125030102Y-106220508D01*
X125129946Y-106287221D01*
X125240886Y-106333174D01*
X125358660Y-106356600D01*
X125478740Y-106356600D01*
X125596514Y-106333174D01*
X125707454Y-106287221D01*
X125807298Y-106220508D01*
X125854058Y-106173748D01*
X127497312Y-106173748D01*
X127497312Y-106293828D01*
X127520738Y-106411602D01*
X127566691Y-106522542D01*
X127633404Y-106622386D01*
X127718314Y-106707296D01*
X127818158Y-106774009D01*
X127929098Y-106819962D01*
X128046872Y-106843388D01*
X128146776Y-106843388D01*
X128180479Y-106924754D01*
X128247192Y-107024598D01*
X128332102Y-107109508D01*
X128431946Y-107176221D01*
X128542886Y-107222174D01*
X128660660Y-107245600D01*
X128780740Y-107245600D01*
X128898514Y-107222174D01*
X129009454Y-107176221D01*
X129109298Y-107109508D01*
X129194208Y-107024598D01*
X129260921Y-106924754D01*
X129306874Y-106813814D01*
X129330300Y-106696040D01*
X129330300Y-106575960D01*
X129306874Y-106458186D01*
X129260921Y-106347246D01*
X129194208Y-106247402D01*
X129109298Y-106162492D01*
X129009454Y-106095779D01*
X128898514Y-106049826D01*
X128780740Y-106026400D01*
X128680836Y-106026400D01*
X128647133Y-105945034D01*
X128644411Y-105940960D01*
X129635100Y-105940960D01*
X129635100Y-106061040D01*
X129658526Y-106178814D01*
X129704479Y-106289754D01*
X129771192Y-106389598D01*
X129856102Y-106474508D01*
X129907723Y-106509000D01*
X129856102Y-106543492D01*
X129771192Y-106628402D01*
X129704479Y-106728246D01*
X129658526Y-106839186D01*
X129635100Y-106956960D01*
X129635100Y-107077040D01*
X129658526Y-107194814D01*
X129704479Y-107305754D01*
X129771192Y-107405598D01*
X129856102Y-107490508D01*
X129955946Y-107557221D01*
X130066886Y-107603174D01*
X130184660Y-107626600D01*
X130304740Y-107626600D01*
X130422514Y-107603174D01*
X130533454Y-107557221D01*
X130633298Y-107490508D01*
X130718208Y-107405598D01*
X130784921Y-107305754D01*
X130824186Y-107210960D01*
X132429100Y-107210960D01*
X132429100Y-107331040D01*
X132452526Y-107448814D01*
X132498479Y-107559754D01*
X132565192Y-107659598D01*
X132650102Y-107744508D01*
X132749946Y-107811221D01*
X132860886Y-107857174D01*
X132978660Y-107880600D01*
X133098740Y-107880600D01*
X133216514Y-107857174D01*
X133327454Y-107811221D01*
X133427298Y-107744508D01*
X133512208Y-107659598D01*
X133568896Y-107574757D01*
X134659000Y-107574757D01*
X134659000Y-107817243D01*
X134706307Y-108055069D01*
X134799102Y-108279097D01*
X134933820Y-108480717D01*
X135105283Y-108652180D01*
X135306903Y-108786898D01*
X135530931Y-108879693D01*
X135768757Y-108927000D01*
X136011243Y-108927000D01*
X136249069Y-108879693D01*
X136473097Y-108786898D01*
X136674717Y-108652180D01*
X136846180Y-108480717D01*
X136980898Y-108279097D01*
X137073693Y-108055069D01*
X137121000Y-107817243D01*
X137121000Y-107574757D01*
X137073693Y-107336931D01*
X136980898Y-107112903D01*
X136846180Y-106911283D01*
X136674717Y-106739820D01*
X136473097Y-106605102D01*
X136249069Y-106512307D01*
X136011243Y-106465000D01*
X135768757Y-106465000D01*
X135530931Y-106512307D01*
X135306903Y-106605102D01*
X135105283Y-106739820D01*
X134933820Y-106911283D01*
X134799102Y-107112903D01*
X134706307Y-107336931D01*
X134659000Y-107574757D01*
X133568896Y-107574757D01*
X133578921Y-107559754D01*
X133624874Y-107448814D01*
X133648300Y-107331040D01*
X133648300Y-107210960D01*
X133624874Y-107093186D01*
X133578921Y-106982246D01*
X133512208Y-106882402D01*
X133427298Y-106797492D01*
X133327454Y-106730779D01*
X133216514Y-106684826D01*
X133098740Y-106661400D01*
X132978660Y-106661400D01*
X132860886Y-106684826D01*
X132749946Y-106730779D01*
X132650102Y-106797492D01*
X132565192Y-106882402D01*
X132498479Y-106982246D01*
X132452526Y-107093186D01*
X132429100Y-107210960D01*
X130824186Y-107210960D01*
X130830874Y-107194814D01*
X130854300Y-107077040D01*
X130854300Y-106956960D01*
X130830874Y-106839186D01*
X130784921Y-106728246D01*
X130718208Y-106628402D01*
X130633298Y-106543492D01*
X130581677Y-106509000D01*
X130633298Y-106474508D01*
X130718208Y-106389598D01*
X130784921Y-106289754D01*
X130830874Y-106178814D01*
X130854300Y-106061040D01*
X130854300Y-105940960D01*
X130830874Y-105823186D01*
X130784921Y-105712246D01*
X130718208Y-105612402D01*
X130633298Y-105527492D01*
X130533454Y-105460779D01*
X130422514Y-105414826D01*
X130304740Y-105391400D01*
X130184660Y-105391400D01*
X130066886Y-105414826D01*
X129955946Y-105460779D01*
X129856102Y-105527492D01*
X129771192Y-105612402D01*
X129704479Y-105712246D01*
X129658526Y-105823186D01*
X129635100Y-105940960D01*
X128644411Y-105940960D01*
X128580420Y-105845190D01*
X128495510Y-105760280D01*
X128395666Y-105693567D01*
X128284726Y-105647614D01*
X128166952Y-105624188D01*
X128046872Y-105624188D01*
X127929098Y-105647614D01*
X127818158Y-105693567D01*
X127718314Y-105760280D01*
X127633404Y-105845190D01*
X127566691Y-105945034D01*
X127520738Y-106055974D01*
X127497312Y-106173748D01*
X125854058Y-106173748D01*
X125892208Y-106135598D01*
X125958921Y-106035754D01*
X126004874Y-105924814D01*
X126028300Y-105807040D01*
X126028300Y-105686960D01*
X126004874Y-105569186D01*
X125958921Y-105458246D01*
X125892208Y-105358402D01*
X125807298Y-105273492D01*
X125707454Y-105206779D01*
X125596514Y-105160826D01*
X125478740Y-105137400D01*
X125358660Y-105137400D01*
X125240886Y-105160826D01*
X125129946Y-105206779D01*
X125030102Y-105273492D01*
X124974194Y-105329400D01*
X124918286Y-105273492D01*
X124818442Y-105206779D01*
X124707502Y-105160826D01*
X124589728Y-105137400D01*
X124469648Y-105137400D01*
X124351874Y-105160826D01*
X124240934Y-105206779D01*
X124141090Y-105273492D01*
X124056180Y-105358402D01*
X123989467Y-105458246D01*
X123943514Y-105569186D01*
X123920088Y-105686960D01*
X121762493Y-105686960D01*
X121833693Y-105515069D01*
X121881000Y-105277243D01*
X121881000Y-105034757D01*
X121833693Y-104796931D01*
X121740898Y-104572903D01*
X121721559Y-104543960D01*
X123158100Y-104543960D01*
X123158100Y-104664040D01*
X123181526Y-104781814D01*
X123227479Y-104892754D01*
X123294192Y-104992598D01*
X123379102Y-105077508D01*
X123478946Y-105144221D01*
X123589886Y-105190174D01*
X123707660Y-105213600D01*
X123827740Y-105213600D01*
X123945514Y-105190174D01*
X124056454Y-105144221D01*
X124156298Y-105077508D01*
X124199049Y-105034757D01*
X134659000Y-105034757D01*
X134659000Y-105277243D01*
X134706307Y-105515069D01*
X134799102Y-105739097D01*
X134933820Y-105940717D01*
X135105283Y-106112180D01*
X135306903Y-106246898D01*
X135530931Y-106339693D01*
X135768757Y-106387000D01*
X136011243Y-106387000D01*
X136249069Y-106339693D01*
X136473097Y-106246898D01*
X136674717Y-106112180D01*
X136846180Y-105940717D01*
X136980898Y-105739097D01*
X137073693Y-105515069D01*
X137121000Y-105277243D01*
X137121000Y-105034757D01*
X137073693Y-104796931D01*
X136980898Y-104572903D01*
X136846180Y-104371283D01*
X136674717Y-104199820D01*
X136473097Y-104065102D01*
X136249069Y-103972307D01*
X136011243Y-103925000D01*
X135768757Y-103925000D01*
X135530931Y-103972307D01*
X135306903Y-104065102D01*
X135105283Y-104199820D01*
X134933820Y-104371283D01*
X134799102Y-104572903D01*
X134706307Y-104796931D01*
X134659000Y-105034757D01*
X124199049Y-105034757D01*
X124241208Y-104992598D01*
X124307921Y-104892754D01*
X124353874Y-104781814D01*
X124377300Y-104664040D01*
X124377300Y-104543960D01*
X124353874Y-104426186D01*
X124307921Y-104315246D01*
X124241208Y-104215402D01*
X124156298Y-104130492D01*
X124056454Y-104063779D01*
X123945514Y-104017826D01*
X123827740Y-103994400D01*
X123707660Y-103994400D01*
X123589886Y-104017826D01*
X123478946Y-104063779D01*
X123379102Y-104130492D01*
X123294192Y-104215402D01*
X123227479Y-104315246D01*
X123181526Y-104426186D01*
X123158100Y-104543960D01*
X121721559Y-104543960D01*
X121606180Y-104371283D01*
X121434717Y-104199820D01*
X121233097Y-104065102D01*
X121009069Y-103972307D01*
X120771243Y-103925000D01*
X120528757Y-103925000D01*
X120290931Y-103972307D01*
X120066903Y-104065102D01*
X119865283Y-104199820D01*
X119693820Y-104371283D01*
X119559102Y-104572903D01*
X119466307Y-104796931D01*
X119419000Y-105034757D01*
X117094000Y-105034757D01*
X117094000Y-102494757D01*
X119419000Y-102494757D01*
X119419000Y-102737243D01*
X119466307Y-102975069D01*
X119559102Y-103199097D01*
X119693820Y-103400717D01*
X119865283Y-103572180D01*
X120066903Y-103706898D01*
X120290931Y-103799693D01*
X120528757Y-103847000D01*
X120771243Y-103847000D01*
X121009069Y-103799693D01*
X121233097Y-103706898D01*
X121434717Y-103572180D01*
X121606180Y-103400717D01*
X121740898Y-103199097D01*
X121833693Y-102975069D01*
X121881000Y-102737243D01*
X121881000Y-102494757D01*
X121833693Y-102256931D01*
X121740898Y-102032903D01*
X121606180Y-101831283D01*
X121434717Y-101659820D01*
X121233097Y-101525102D01*
X121009069Y-101432307D01*
X120771243Y-101385000D01*
X120528757Y-101385000D01*
X120290931Y-101432307D01*
X120066903Y-101525102D01*
X119865283Y-101659820D01*
X119693820Y-101831283D01*
X119559102Y-102032903D01*
X119466307Y-102256931D01*
X119419000Y-102494757D01*
X117094000Y-102494757D01*
X117094000Y-101368960D01*
X122523100Y-101368960D01*
X122523100Y-101489040D01*
X122546526Y-101606814D01*
X122592479Y-101717754D01*
X122659192Y-101817598D01*
X122744102Y-101902508D01*
X122843946Y-101969221D01*
X122954886Y-102015174D01*
X123031100Y-102030333D01*
X123031100Y-102124040D01*
X123054526Y-102241814D01*
X123100479Y-102352754D01*
X123167192Y-102452598D01*
X123252102Y-102537508D01*
X123351946Y-102604221D01*
X123462886Y-102650174D01*
X123580660Y-102673600D01*
X123700740Y-102673600D01*
X123818514Y-102650174D01*
X123929454Y-102604221D01*
X124029298Y-102537508D01*
X124114208Y-102452598D01*
X124180921Y-102352754D01*
X124226874Y-102241814D01*
X124250300Y-102124040D01*
X124250300Y-102003960D01*
X124226874Y-101886186D01*
X124225327Y-101882450D01*
X128757660Y-101882450D01*
X128757660Y-102002530D01*
X128781086Y-102120304D01*
X128827039Y-102231244D01*
X128893752Y-102331088D01*
X128978662Y-102415998D01*
X129078506Y-102482711D01*
X129189446Y-102528664D01*
X129307220Y-102552090D01*
X129427300Y-102552090D01*
X129545074Y-102528664D01*
X129626932Y-102494757D01*
X134659000Y-102494757D01*
X134659000Y-102737243D01*
X134706307Y-102975069D01*
X134799102Y-103199097D01*
X134933820Y-103400717D01*
X135105283Y-103572180D01*
X135306903Y-103706898D01*
X135530931Y-103799693D01*
X135768757Y-103847000D01*
X136011243Y-103847000D01*
X136249069Y-103799693D01*
X136473097Y-103706898D01*
X136674717Y-103572180D01*
X136846180Y-103400717D01*
X136980898Y-103199097D01*
X137073693Y-102975069D01*
X137121000Y-102737243D01*
X137121000Y-102494757D01*
X137073693Y-102256931D01*
X136980898Y-102032903D01*
X136846180Y-101831283D01*
X136674717Y-101659820D01*
X136473097Y-101525102D01*
X136249069Y-101432307D01*
X136011243Y-101385000D01*
X135768757Y-101385000D01*
X135530931Y-101432307D01*
X135306903Y-101525102D01*
X135105283Y-101659820D01*
X134933820Y-101831283D01*
X134799102Y-102032903D01*
X134706307Y-102256931D01*
X134659000Y-102494757D01*
X129626932Y-102494757D01*
X129656014Y-102482711D01*
X129755858Y-102415998D01*
X129840768Y-102331088D01*
X129907481Y-102231244D01*
X129953434Y-102120304D01*
X129976860Y-102002530D01*
X129976860Y-101882450D01*
X129953434Y-101764676D01*
X129907481Y-101653736D01*
X129840768Y-101553892D01*
X129755858Y-101468982D01*
X129656014Y-101402269D01*
X129545074Y-101356316D01*
X129427300Y-101332890D01*
X129307220Y-101332890D01*
X129189446Y-101356316D01*
X129078506Y-101402269D01*
X128978662Y-101468982D01*
X128893752Y-101553892D01*
X128827039Y-101653736D01*
X128781086Y-101764676D01*
X128757660Y-101882450D01*
X124225327Y-101882450D01*
X124180921Y-101775246D01*
X124114208Y-101675402D01*
X124029298Y-101590492D01*
X123929454Y-101523779D01*
X123853940Y-101492500D01*
X123929454Y-101461221D01*
X124029298Y-101394508D01*
X124114208Y-101309598D01*
X124180921Y-101209754D01*
X124226874Y-101098814D01*
X124250300Y-100981040D01*
X124250300Y-100860960D01*
X124226874Y-100743186D01*
X124180921Y-100632246D01*
X124114208Y-100532402D01*
X124029298Y-100447492D01*
X123929454Y-100380779D01*
X123818514Y-100334826D01*
X123700740Y-100311400D01*
X123580660Y-100311400D01*
X123462886Y-100334826D01*
X123351946Y-100380779D01*
X123252102Y-100447492D01*
X123167192Y-100532402D01*
X123100479Y-100632246D01*
X123054526Y-100743186D01*
X123037995Y-100826295D01*
X122954886Y-100842826D01*
X122843946Y-100888779D01*
X122744102Y-100955492D01*
X122659192Y-101040402D01*
X122592479Y-101140246D01*
X122546526Y-101251186D01*
X122523100Y-101368960D01*
X117094000Y-101368960D01*
X117094000Y-99226000D01*
X119417157Y-99226000D01*
X119417157Y-100926000D01*
X119424513Y-101000689D01*
X119446299Y-101072508D01*
X119481678Y-101138696D01*
X119529289Y-101196711D01*
X119587304Y-101244322D01*
X119653492Y-101279701D01*
X119725311Y-101301487D01*
X119800000Y-101308843D01*
X121500000Y-101308843D01*
X121574689Y-101301487D01*
X121646508Y-101279701D01*
X121712696Y-101244322D01*
X121770711Y-101196711D01*
X121818322Y-101138696D01*
X121853701Y-101072508D01*
X121875487Y-101000689D01*
X121882843Y-100926000D01*
X121882843Y-99844960D01*
X132302100Y-99844960D01*
X132302100Y-99965040D01*
X132325526Y-100082814D01*
X132371479Y-100193754D01*
X132438192Y-100293598D01*
X132523102Y-100378508D01*
X132622946Y-100445221D01*
X132733886Y-100491174D01*
X132851660Y-100514600D01*
X132971740Y-100514600D01*
X133089514Y-100491174D01*
X133200454Y-100445221D01*
X133300298Y-100378508D01*
X133385208Y-100293598D01*
X133451921Y-100193754D01*
X133497874Y-100082814D01*
X133521300Y-99965040D01*
X133521300Y-99954757D01*
X134659000Y-99954757D01*
X134659000Y-100197243D01*
X134706307Y-100435069D01*
X134799102Y-100659097D01*
X134933820Y-100860717D01*
X135105283Y-101032180D01*
X135306903Y-101166898D01*
X135530931Y-101259693D01*
X135768757Y-101307000D01*
X136011243Y-101307000D01*
X136249069Y-101259693D01*
X136473097Y-101166898D01*
X136674717Y-101032180D01*
X136846180Y-100860717D01*
X136980898Y-100659097D01*
X137073693Y-100435069D01*
X137121000Y-100197243D01*
X137121000Y-99954757D01*
X137073693Y-99716931D01*
X136980898Y-99492903D01*
X136846180Y-99291283D01*
X136674717Y-99119820D01*
X136473097Y-98985102D01*
X136249069Y-98892307D01*
X136011243Y-98845000D01*
X135768757Y-98845000D01*
X135530931Y-98892307D01*
X135306903Y-98985102D01*
X135105283Y-99119820D01*
X134933820Y-99291283D01*
X134799102Y-99492903D01*
X134706307Y-99716931D01*
X134659000Y-99954757D01*
X133521300Y-99954757D01*
X133521300Y-99844960D01*
X133497874Y-99727186D01*
X133451921Y-99616246D01*
X133385208Y-99516402D01*
X133300298Y-99431492D01*
X133200454Y-99364779D01*
X133089514Y-99318826D01*
X132971740Y-99295400D01*
X132851660Y-99295400D01*
X132733886Y-99318826D01*
X132622946Y-99364779D01*
X132523102Y-99431492D01*
X132438192Y-99516402D01*
X132371479Y-99616246D01*
X132325526Y-99727186D01*
X132302100Y-99844960D01*
X121882843Y-99844960D01*
X121882843Y-99226000D01*
X121875487Y-99151311D01*
X121853701Y-99079492D01*
X121818322Y-99013304D01*
X121770711Y-98955289D01*
X121712696Y-98907678D01*
X121646508Y-98872299D01*
X121574689Y-98850513D01*
X121500000Y-98843157D01*
X119800000Y-98843157D01*
X119725311Y-98850513D01*
X119653492Y-98872299D01*
X119587304Y-98907678D01*
X119529289Y-98955289D01*
X119481678Y-99013304D01*
X119446299Y-99079492D01*
X119424513Y-99151311D01*
X119417157Y-99226000D01*
X117094000Y-99226000D01*
X117094000Y-97625661D01*
X117121910Y-97591653D01*
X117159610Y-97521121D01*
X117182825Y-97444590D01*
X117185763Y-97414757D01*
X119419000Y-97414757D01*
X119419000Y-97657243D01*
X119466307Y-97895069D01*
X119559102Y-98119097D01*
X119693820Y-98320717D01*
X119865283Y-98492180D01*
X120066903Y-98626898D01*
X120290931Y-98719693D01*
X120528757Y-98767000D01*
X120771243Y-98767000D01*
X121009069Y-98719693D01*
X121233097Y-98626898D01*
X121434717Y-98492180D01*
X121606180Y-98320717D01*
X121740898Y-98119097D01*
X121833693Y-97895069D01*
X121881000Y-97657243D01*
X121881000Y-97414757D01*
X121833898Y-97177960D01*
X124047100Y-97177960D01*
X124047100Y-97298040D01*
X124070526Y-97415814D01*
X124116479Y-97526754D01*
X124183192Y-97626598D01*
X124268102Y-97711508D01*
X124367946Y-97778221D01*
X124478886Y-97824174D01*
X124596660Y-97847600D01*
X124716740Y-97847600D01*
X124834514Y-97824174D01*
X124945454Y-97778221D01*
X125045298Y-97711508D01*
X125130208Y-97626598D01*
X125196921Y-97526754D01*
X125242874Y-97415814D01*
X125243084Y-97414757D01*
X134659000Y-97414757D01*
X134659000Y-97657243D01*
X134706307Y-97895069D01*
X134799102Y-98119097D01*
X134933820Y-98320717D01*
X135105283Y-98492180D01*
X135306903Y-98626898D01*
X135530931Y-98719693D01*
X135768757Y-98767000D01*
X136011243Y-98767000D01*
X136249069Y-98719693D01*
X136473097Y-98626898D01*
X136674717Y-98492180D01*
X136846180Y-98320717D01*
X136980898Y-98119097D01*
X137073693Y-97895069D01*
X137121000Y-97657243D01*
X137121000Y-97414757D01*
X137073693Y-97176931D01*
X136980898Y-96952903D01*
X136846180Y-96751283D01*
X136674717Y-96579820D01*
X136473097Y-96445102D01*
X136249069Y-96352307D01*
X136011243Y-96305000D01*
X135768757Y-96305000D01*
X135530931Y-96352307D01*
X135306903Y-96445102D01*
X135105283Y-96579820D01*
X134933820Y-96751283D01*
X134799102Y-96952903D01*
X134706307Y-97176931D01*
X134659000Y-97414757D01*
X125243084Y-97414757D01*
X125266300Y-97298040D01*
X125266300Y-97177960D01*
X125242874Y-97060186D01*
X125196921Y-96949246D01*
X125130208Y-96849402D01*
X125045298Y-96764492D01*
X124945454Y-96697779D01*
X124834514Y-96651826D01*
X124716740Y-96628400D01*
X124596660Y-96628400D01*
X124478886Y-96651826D01*
X124367946Y-96697779D01*
X124268102Y-96764492D01*
X124183192Y-96849402D01*
X124116479Y-96949246D01*
X124070526Y-97060186D01*
X124047100Y-97177960D01*
X121833898Y-97177960D01*
X121833693Y-97176931D01*
X121740898Y-96952903D01*
X121606180Y-96751283D01*
X121434717Y-96579820D01*
X121233097Y-96445102D01*
X121009069Y-96352307D01*
X120771243Y-96305000D01*
X120528757Y-96305000D01*
X120290931Y-96352307D01*
X120066903Y-96445102D01*
X119865283Y-96579820D01*
X119693820Y-96751283D01*
X119559102Y-96952903D01*
X119466307Y-97176931D01*
X119419000Y-97414757D01*
X117185763Y-97414757D01*
X117188700Y-97384941D01*
X117188700Y-97384940D01*
X117190664Y-97365000D01*
X117188700Y-97345059D01*
X117188700Y-94874757D01*
X119419000Y-94874757D01*
X119419000Y-95117243D01*
X119466307Y-95355069D01*
X119559102Y-95579097D01*
X119693820Y-95780717D01*
X119865283Y-95952180D01*
X120066903Y-96086898D01*
X120290931Y-96179693D01*
X120528757Y-96227000D01*
X120771243Y-96227000D01*
X121009069Y-96179693D01*
X121233097Y-96086898D01*
X121310827Y-96034960D01*
X126333100Y-96034960D01*
X126333100Y-96155040D01*
X126356526Y-96272814D01*
X126402479Y-96383754D01*
X126469192Y-96483598D01*
X126554102Y-96568508D01*
X126653946Y-96635221D01*
X126764886Y-96681174D01*
X126882660Y-96704600D01*
X127002740Y-96704600D01*
X127120514Y-96681174D01*
X127231454Y-96635221D01*
X127331298Y-96568508D01*
X127416208Y-96483598D01*
X127482921Y-96383754D01*
X127528874Y-96272814D01*
X127552300Y-96155040D01*
X127552300Y-96034960D01*
X127528874Y-95917186D01*
X127482921Y-95806246D01*
X127416208Y-95706402D01*
X127331298Y-95621492D01*
X127231454Y-95554779D01*
X127120514Y-95508826D01*
X127002740Y-95485400D01*
X126882660Y-95485400D01*
X126764886Y-95508826D01*
X126653946Y-95554779D01*
X126554102Y-95621492D01*
X126469192Y-95706402D01*
X126402479Y-95806246D01*
X126356526Y-95917186D01*
X126333100Y-96034960D01*
X121310827Y-96034960D01*
X121434717Y-95952180D01*
X121606180Y-95780717D01*
X121740898Y-95579097D01*
X121833693Y-95355069D01*
X121881000Y-95117243D01*
X121881000Y-94874757D01*
X134659000Y-94874757D01*
X134659000Y-95117243D01*
X134706307Y-95355069D01*
X134799102Y-95579097D01*
X134933820Y-95780717D01*
X135105283Y-95952180D01*
X135306903Y-96086898D01*
X135530931Y-96179693D01*
X135768757Y-96227000D01*
X136011243Y-96227000D01*
X136249069Y-96179693D01*
X136473097Y-96086898D01*
X136674717Y-95952180D01*
X136846180Y-95780717D01*
X136980898Y-95579097D01*
X137073693Y-95355069D01*
X137121000Y-95117243D01*
X137121000Y-94874757D01*
X137073693Y-94636931D01*
X136980898Y-94412903D01*
X136846180Y-94211283D01*
X136674717Y-94039820D01*
X136473097Y-93905102D01*
X136249069Y-93812307D01*
X136011243Y-93765000D01*
X135768757Y-93765000D01*
X135530931Y-93812307D01*
X135306903Y-93905102D01*
X135105283Y-94039820D01*
X134933820Y-94211283D01*
X134799102Y-94412903D01*
X134706307Y-94636931D01*
X134659000Y-94874757D01*
X121881000Y-94874757D01*
X121833693Y-94636931D01*
X121740898Y-94412903D01*
X121606180Y-94211283D01*
X121434717Y-94039820D01*
X121233097Y-93905102D01*
X121009069Y-93812307D01*
X120771243Y-93765000D01*
X120528757Y-93765000D01*
X120290931Y-93812307D01*
X120066903Y-93905102D01*
X119865283Y-94039820D01*
X119693820Y-94211283D01*
X119559102Y-94412903D01*
X119466307Y-94636931D01*
X119419000Y-94874757D01*
X117188700Y-94874757D01*
X117188700Y-92334757D01*
X119419000Y-92334757D01*
X119419000Y-92577243D01*
X119466307Y-92815069D01*
X119559102Y-93039097D01*
X119693820Y-93240717D01*
X119865283Y-93412180D01*
X120066903Y-93546898D01*
X120290931Y-93639693D01*
X120528757Y-93687000D01*
X120771243Y-93687000D01*
X121009069Y-93639693D01*
X121233097Y-93546898D01*
X121434717Y-93412180D01*
X121606180Y-93240717D01*
X121740898Y-93039097D01*
X121833693Y-92815069D01*
X121850025Y-92732960D01*
X129635100Y-92732960D01*
X129635100Y-92853040D01*
X129658526Y-92970814D01*
X129704479Y-93081754D01*
X129771192Y-93181598D01*
X129856102Y-93266508D01*
X129955946Y-93333221D01*
X130066886Y-93379174D01*
X130184660Y-93402600D01*
X130304740Y-93402600D01*
X130422514Y-93379174D01*
X130533454Y-93333221D01*
X130633298Y-93266508D01*
X130718208Y-93181598D01*
X130784921Y-93081754D01*
X130830874Y-92970814D01*
X130854300Y-92853040D01*
X130854300Y-92732960D01*
X130830874Y-92615186D01*
X130784921Y-92504246D01*
X130718208Y-92404402D01*
X130648563Y-92334757D01*
X134659000Y-92334757D01*
X134659000Y-92577243D01*
X134706307Y-92815069D01*
X134799102Y-93039097D01*
X134933820Y-93240717D01*
X135105283Y-93412180D01*
X135306903Y-93546898D01*
X135530931Y-93639693D01*
X135768757Y-93687000D01*
X136011243Y-93687000D01*
X136249069Y-93639693D01*
X136473097Y-93546898D01*
X136674717Y-93412180D01*
X136846180Y-93240717D01*
X136980898Y-93039097D01*
X137073693Y-92815069D01*
X137121000Y-92577243D01*
X137121000Y-92334757D01*
X137073693Y-92096931D01*
X136980898Y-91872903D01*
X136846180Y-91671283D01*
X136674717Y-91499820D01*
X136473097Y-91365102D01*
X136249069Y-91272307D01*
X136011243Y-91225000D01*
X135768757Y-91225000D01*
X135530931Y-91272307D01*
X135306903Y-91365102D01*
X135105283Y-91499820D01*
X134933820Y-91671283D01*
X134799102Y-91872903D01*
X134706307Y-92096931D01*
X134659000Y-92334757D01*
X130648563Y-92334757D01*
X130633298Y-92319492D01*
X130533454Y-92252779D01*
X130422514Y-92206826D01*
X130304740Y-92183400D01*
X130184660Y-92183400D01*
X130066886Y-92206826D01*
X129955946Y-92252779D01*
X129856102Y-92319492D01*
X129771192Y-92404402D01*
X129704479Y-92504246D01*
X129658526Y-92615186D01*
X129635100Y-92732960D01*
X121850025Y-92732960D01*
X121881000Y-92577243D01*
X121881000Y-92334757D01*
X121833693Y-92096931D01*
X121740898Y-91872903D01*
X121606180Y-91671283D01*
X121434717Y-91499820D01*
X121233097Y-91365102D01*
X121009069Y-91272307D01*
X120771243Y-91225000D01*
X120528757Y-91225000D01*
X120290931Y-91272307D01*
X120066903Y-91365102D01*
X119865283Y-91499820D01*
X119693820Y-91671283D01*
X119559102Y-91872903D01*
X119466307Y-92096931D01*
X119419000Y-92334757D01*
X117188700Y-92334757D01*
X117188700Y-91208960D01*
X123793100Y-91208960D01*
X123793100Y-91329040D01*
X123816526Y-91446814D01*
X123862479Y-91557754D01*
X123929192Y-91657598D01*
X124014102Y-91742508D01*
X124113946Y-91809221D01*
X124224886Y-91855174D01*
X124342660Y-91878600D01*
X124462740Y-91878600D01*
X124580514Y-91855174D01*
X124691454Y-91809221D01*
X124791298Y-91742508D01*
X124876208Y-91657598D01*
X124942921Y-91557754D01*
X124988874Y-91446814D01*
X125012300Y-91329040D01*
X125012300Y-91208960D01*
X124988874Y-91091186D01*
X124942921Y-90980246D01*
X124876208Y-90880402D01*
X124791298Y-90795492D01*
X124691454Y-90728779D01*
X124580514Y-90682826D01*
X124462740Y-90659400D01*
X124342660Y-90659400D01*
X124224886Y-90682826D01*
X124113946Y-90728779D01*
X124014102Y-90795492D01*
X123929192Y-90880402D01*
X123862479Y-90980246D01*
X123816526Y-91091186D01*
X123793100Y-91208960D01*
X117188700Y-91208960D01*
X117188700Y-89794757D01*
X119419000Y-89794757D01*
X119419000Y-90037243D01*
X119466307Y-90275069D01*
X119559102Y-90499097D01*
X119693820Y-90700717D01*
X119865283Y-90872180D01*
X120066903Y-91006898D01*
X120290931Y-91099693D01*
X120528757Y-91147000D01*
X120771243Y-91147000D01*
X121009069Y-91099693D01*
X121233097Y-91006898D01*
X121434717Y-90872180D01*
X121606180Y-90700717D01*
X121740898Y-90499097D01*
X121833693Y-90275069D01*
X121881000Y-90037243D01*
X121881000Y-89794757D01*
X134659000Y-89794757D01*
X134659000Y-90037243D01*
X134706307Y-90275069D01*
X134799102Y-90499097D01*
X134933820Y-90700717D01*
X135105283Y-90872180D01*
X135306903Y-91006898D01*
X135530931Y-91099693D01*
X135768757Y-91147000D01*
X136011243Y-91147000D01*
X136249069Y-91099693D01*
X136473097Y-91006898D01*
X136674717Y-90872180D01*
X136846180Y-90700717D01*
X136980898Y-90499097D01*
X137073693Y-90275069D01*
X137121000Y-90037243D01*
X137121000Y-89794757D01*
X137073693Y-89556931D01*
X136980898Y-89332903D01*
X136846180Y-89131283D01*
X136674717Y-88959820D01*
X136473097Y-88825102D01*
X136249069Y-88732307D01*
X136011243Y-88685000D01*
X135768757Y-88685000D01*
X135530931Y-88732307D01*
X135306903Y-88825102D01*
X135105283Y-88959820D01*
X134933820Y-89131283D01*
X134799102Y-89332903D01*
X134706307Y-89556931D01*
X134659000Y-89794757D01*
X121881000Y-89794757D01*
X121833693Y-89556931D01*
X121740898Y-89332903D01*
X121606180Y-89131283D01*
X121434717Y-88959820D01*
X121233097Y-88825102D01*
X121009069Y-88732307D01*
X120771243Y-88685000D01*
X120528757Y-88685000D01*
X120290931Y-88732307D01*
X120066903Y-88825102D01*
X119865283Y-88959820D01*
X119693820Y-89131283D01*
X119559102Y-89332903D01*
X119466307Y-89556931D01*
X119419000Y-89794757D01*
X117188700Y-89794757D01*
X117188700Y-88668960D01*
X122777100Y-88668960D01*
X122777100Y-88789040D01*
X122800526Y-88906814D01*
X122846479Y-89017754D01*
X122913192Y-89117598D01*
X122998102Y-89202508D01*
X123097946Y-89269221D01*
X123208886Y-89315174D01*
X123326660Y-89338600D01*
X123446740Y-89338600D01*
X123564514Y-89315174D01*
X123675454Y-89269221D01*
X123775298Y-89202508D01*
X123860208Y-89117598D01*
X123926921Y-89017754D01*
X123972874Y-88906814D01*
X123996300Y-88789040D01*
X123996300Y-88668960D01*
X123972874Y-88551186D01*
X123926921Y-88440246D01*
X123860208Y-88340402D01*
X123775298Y-88255492D01*
X123675454Y-88188779D01*
X123564514Y-88142826D01*
X123446740Y-88119400D01*
X123326660Y-88119400D01*
X123208886Y-88142826D01*
X123097946Y-88188779D01*
X122998102Y-88255492D01*
X122913192Y-88340402D01*
X122846479Y-88440246D01*
X122800526Y-88551186D01*
X122777100Y-88668960D01*
X117188700Y-88668960D01*
X117188700Y-86526000D01*
X119417157Y-86526000D01*
X119417157Y-88226000D01*
X119424513Y-88300689D01*
X119446299Y-88372508D01*
X119481678Y-88438696D01*
X119529289Y-88496711D01*
X119587304Y-88544322D01*
X119653492Y-88579701D01*
X119725311Y-88601487D01*
X119800000Y-88608843D01*
X121500000Y-88608843D01*
X121574689Y-88601487D01*
X121646508Y-88579701D01*
X121712696Y-88544322D01*
X121770711Y-88496711D01*
X121818322Y-88438696D01*
X121853701Y-88372508D01*
X121875487Y-88300689D01*
X121882843Y-88226000D01*
X121882843Y-87254757D01*
X134659000Y-87254757D01*
X134659000Y-87497243D01*
X134706307Y-87735069D01*
X134799102Y-87959097D01*
X134933820Y-88160717D01*
X135105283Y-88332180D01*
X135306903Y-88466898D01*
X135530931Y-88559693D01*
X135768757Y-88607000D01*
X136011243Y-88607000D01*
X136249069Y-88559693D01*
X136473097Y-88466898D01*
X136674717Y-88332180D01*
X136846180Y-88160717D01*
X136980898Y-87959097D01*
X137073693Y-87735069D01*
X137121000Y-87497243D01*
X137121000Y-87254757D01*
X137073693Y-87016931D01*
X136980898Y-86792903D01*
X136846180Y-86591283D01*
X136674717Y-86419820D01*
X136473097Y-86285102D01*
X136249069Y-86192307D01*
X136011243Y-86145000D01*
X135768757Y-86145000D01*
X135530931Y-86192307D01*
X135306903Y-86285102D01*
X135105283Y-86419820D01*
X134933820Y-86591283D01*
X134799102Y-86792903D01*
X134706307Y-87016931D01*
X134659000Y-87254757D01*
X121882843Y-87254757D01*
X121882843Y-86526000D01*
X121875487Y-86451311D01*
X121853701Y-86379492D01*
X121818322Y-86313304D01*
X121770711Y-86255289D01*
X121712696Y-86207678D01*
X121646508Y-86172299D01*
X121574689Y-86150513D01*
X121500000Y-86143157D01*
X119800000Y-86143157D01*
X119725311Y-86150513D01*
X119653492Y-86172299D01*
X119587304Y-86207678D01*
X119529289Y-86255289D01*
X119481678Y-86313304D01*
X119446299Y-86379492D01*
X119424513Y-86451311D01*
X119417157Y-86526000D01*
X117188700Y-86526000D01*
X117188700Y-84714757D01*
X119419000Y-84714757D01*
X119419000Y-84957243D01*
X119466307Y-85195069D01*
X119559102Y-85419097D01*
X119693820Y-85620717D01*
X119865283Y-85792180D01*
X120066903Y-85926898D01*
X120290931Y-86019693D01*
X120528757Y-86067000D01*
X120771243Y-86067000D01*
X121009069Y-86019693D01*
X121233097Y-85926898D01*
X121434717Y-85792180D01*
X121606180Y-85620717D01*
X121740898Y-85419097D01*
X121833693Y-85195069D01*
X121850025Y-85112960D01*
X130651100Y-85112960D01*
X130651100Y-85233040D01*
X130674526Y-85350814D01*
X130720479Y-85461754D01*
X130787192Y-85561598D01*
X130872102Y-85646508D01*
X130971946Y-85713221D01*
X131082886Y-85759174D01*
X131200660Y-85782600D01*
X131320740Y-85782600D01*
X131438514Y-85759174D01*
X131549454Y-85713221D01*
X131649298Y-85646508D01*
X131734208Y-85561598D01*
X131800921Y-85461754D01*
X131840186Y-85366960D01*
X132429100Y-85366960D01*
X132429100Y-85487040D01*
X132452526Y-85604814D01*
X132498479Y-85715754D01*
X132565192Y-85815598D01*
X132650102Y-85900508D01*
X132749946Y-85967221D01*
X132860886Y-86013174D01*
X132978660Y-86036600D01*
X133098740Y-86036600D01*
X133216514Y-86013174D01*
X133327454Y-85967221D01*
X133427298Y-85900508D01*
X133512208Y-85815598D01*
X133578921Y-85715754D01*
X133624874Y-85604814D01*
X133648300Y-85487040D01*
X133648300Y-85366960D01*
X133624874Y-85249186D01*
X133578921Y-85138246D01*
X133512208Y-85038402D01*
X133427298Y-84953492D01*
X133327454Y-84886779D01*
X133216514Y-84840826D01*
X133098740Y-84817400D01*
X132978660Y-84817400D01*
X132860886Y-84840826D01*
X132749946Y-84886779D01*
X132650102Y-84953492D01*
X132565192Y-85038402D01*
X132498479Y-85138246D01*
X132452526Y-85249186D01*
X132429100Y-85366960D01*
X131840186Y-85366960D01*
X131846874Y-85350814D01*
X131870300Y-85233040D01*
X131870300Y-85112960D01*
X131846874Y-84995186D01*
X131800921Y-84884246D01*
X131734208Y-84784402D01*
X131664563Y-84714757D01*
X134659000Y-84714757D01*
X134659000Y-84957243D01*
X134706307Y-85195069D01*
X134799102Y-85419097D01*
X134933820Y-85620717D01*
X135105283Y-85792180D01*
X135306903Y-85926898D01*
X135530931Y-86019693D01*
X135768757Y-86067000D01*
X136011243Y-86067000D01*
X136249069Y-86019693D01*
X136473097Y-85926898D01*
X136674717Y-85792180D01*
X136846180Y-85620717D01*
X136980898Y-85419097D01*
X137073693Y-85195069D01*
X137121000Y-84957243D01*
X137121000Y-84714757D01*
X137073693Y-84476931D01*
X136980898Y-84252903D01*
X136846180Y-84051283D01*
X136674717Y-83879820D01*
X136473097Y-83745102D01*
X136249069Y-83652307D01*
X136011243Y-83605000D01*
X135768757Y-83605000D01*
X135530931Y-83652307D01*
X135306903Y-83745102D01*
X135105283Y-83879820D01*
X134933820Y-84051283D01*
X134799102Y-84252903D01*
X134706307Y-84476931D01*
X134659000Y-84714757D01*
X131664563Y-84714757D01*
X131649298Y-84699492D01*
X131549454Y-84632779D01*
X131438514Y-84586826D01*
X131320740Y-84563400D01*
X131200660Y-84563400D01*
X131082886Y-84586826D01*
X130971946Y-84632779D01*
X130872102Y-84699492D01*
X130787192Y-84784402D01*
X130720479Y-84884246D01*
X130674526Y-84995186D01*
X130651100Y-85112960D01*
X121850025Y-85112960D01*
X121881000Y-84957243D01*
X121881000Y-84714757D01*
X121833693Y-84476931D01*
X121740898Y-84252903D01*
X121636701Y-84096960D01*
X129635100Y-84096960D01*
X129635100Y-84217040D01*
X129658526Y-84334814D01*
X129704479Y-84445754D01*
X129771192Y-84545598D01*
X129856102Y-84630508D01*
X129955946Y-84697221D01*
X130066886Y-84743174D01*
X130184660Y-84766600D01*
X130304740Y-84766600D01*
X130422514Y-84743174D01*
X130533454Y-84697221D01*
X130633298Y-84630508D01*
X130718208Y-84545598D01*
X130784921Y-84445754D01*
X130830874Y-84334814D01*
X130854300Y-84217040D01*
X130854300Y-84096960D01*
X130830874Y-83979186D01*
X130784921Y-83868246D01*
X130718208Y-83768402D01*
X130633298Y-83683492D01*
X130533454Y-83616779D01*
X130422514Y-83570826D01*
X130304740Y-83547400D01*
X130184660Y-83547400D01*
X130066886Y-83570826D01*
X129955946Y-83616779D01*
X129856102Y-83683492D01*
X129771192Y-83768402D01*
X129704479Y-83868246D01*
X129658526Y-83979186D01*
X129635100Y-84096960D01*
X121636701Y-84096960D01*
X121606180Y-84051283D01*
X121434717Y-83879820D01*
X121233097Y-83745102D01*
X121009069Y-83652307D01*
X120771243Y-83605000D01*
X120528757Y-83605000D01*
X120290931Y-83652307D01*
X120066903Y-83745102D01*
X119865283Y-83879820D01*
X119693820Y-84051283D01*
X119559102Y-84252903D01*
X119466307Y-84476931D01*
X119419000Y-84714757D01*
X117188700Y-84714757D01*
X117188700Y-82174757D01*
X119419000Y-82174757D01*
X119419000Y-82417243D01*
X119466307Y-82655069D01*
X119559102Y-82879097D01*
X119693820Y-83080717D01*
X119865283Y-83252180D01*
X120066903Y-83386898D01*
X120290931Y-83479693D01*
X120528757Y-83527000D01*
X120771243Y-83527000D01*
X121009069Y-83479693D01*
X121233097Y-83386898D01*
X121434717Y-83252180D01*
X121606180Y-83080717D01*
X121740898Y-82879097D01*
X121833693Y-82655069D01*
X121881000Y-82417243D01*
X121881000Y-82174757D01*
X134659000Y-82174757D01*
X134659000Y-82417243D01*
X134706307Y-82655069D01*
X134799102Y-82879097D01*
X134933820Y-83080717D01*
X135105283Y-83252180D01*
X135306903Y-83386898D01*
X135530931Y-83479693D01*
X135768757Y-83527000D01*
X136011243Y-83527000D01*
X136249069Y-83479693D01*
X136473097Y-83386898D01*
X136674717Y-83252180D01*
X136846180Y-83080717D01*
X136980898Y-82879097D01*
X137073693Y-82655069D01*
X137121000Y-82417243D01*
X137121000Y-82174757D01*
X137073693Y-81936931D01*
X136980898Y-81712903D01*
X136846180Y-81511283D01*
X136674717Y-81339820D01*
X136473097Y-81205102D01*
X136249069Y-81112307D01*
X136011243Y-81065000D01*
X135768757Y-81065000D01*
X135530931Y-81112307D01*
X135306903Y-81205102D01*
X135105283Y-81339820D01*
X134933820Y-81511283D01*
X134799102Y-81712903D01*
X134706307Y-81936931D01*
X134659000Y-82174757D01*
X121881000Y-82174757D01*
X121833693Y-81936931D01*
X121740898Y-81712903D01*
X121606180Y-81511283D01*
X121434717Y-81339820D01*
X121233097Y-81205102D01*
X121009069Y-81112307D01*
X120771243Y-81065000D01*
X120528757Y-81065000D01*
X120290931Y-81112307D01*
X120066903Y-81205102D01*
X119865283Y-81339820D01*
X119693820Y-81511283D01*
X119559102Y-81712903D01*
X119466307Y-81936931D01*
X119419000Y-82174757D01*
X117188700Y-82174757D01*
X117188700Y-79634757D01*
X119419000Y-79634757D01*
X119419000Y-79877243D01*
X119466307Y-80115069D01*
X119559102Y-80339097D01*
X119693820Y-80540717D01*
X119865283Y-80712180D01*
X120066903Y-80846898D01*
X120290931Y-80939693D01*
X120528757Y-80987000D01*
X120771243Y-80987000D01*
X121009069Y-80939693D01*
X121233097Y-80846898D01*
X121434717Y-80712180D01*
X121606180Y-80540717D01*
X121740898Y-80339097D01*
X121833693Y-80115069D01*
X121881000Y-79877243D01*
X121881000Y-79634757D01*
X134659000Y-79634757D01*
X134659000Y-79877243D01*
X134706307Y-80115069D01*
X134799102Y-80339097D01*
X134933820Y-80540717D01*
X135105283Y-80712180D01*
X135306903Y-80846898D01*
X135530931Y-80939693D01*
X135768757Y-80987000D01*
X136011243Y-80987000D01*
X136249069Y-80939693D01*
X136473097Y-80846898D01*
X136674717Y-80712180D01*
X136846180Y-80540717D01*
X136980898Y-80339097D01*
X137073693Y-80115069D01*
X137121000Y-79877243D01*
X137121000Y-79634757D01*
X137073693Y-79396931D01*
X136980898Y-79172903D01*
X136846180Y-78971283D01*
X136674717Y-78799820D01*
X136473097Y-78665102D01*
X136249069Y-78572307D01*
X136011243Y-78525000D01*
X135768757Y-78525000D01*
X135530931Y-78572307D01*
X135306903Y-78665102D01*
X135105283Y-78799820D01*
X134933820Y-78971283D01*
X134799102Y-79172903D01*
X134706307Y-79396931D01*
X134659000Y-79634757D01*
X121881000Y-79634757D01*
X121833693Y-79396931D01*
X121740898Y-79172903D01*
X121606180Y-78971283D01*
X121434717Y-78799820D01*
X121233097Y-78665102D01*
X121009069Y-78572307D01*
X120771243Y-78525000D01*
X120528757Y-78525000D01*
X120290931Y-78572307D01*
X120066903Y-78665102D01*
X119865283Y-78799820D01*
X119693820Y-78971283D01*
X119559102Y-79172903D01*
X119466307Y-79396931D01*
X119419000Y-79634757D01*
X117188700Y-79634757D01*
X117188700Y-77094757D01*
X119419000Y-77094757D01*
X119419000Y-77337243D01*
X119466307Y-77575069D01*
X119559102Y-77799097D01*
X119693820Y-78000717D01*
X119865283Y-78172180D01*
X120066903Y-78306898D01*
X120290931Y-78399693D01*
X120528757Y-78447000D01*
X120771243Y-78447000D01*
X121009069Y-78399693D01*
X121233097Y-78306898D01*
X121434717Y-78172180D01*
X121606180Y-78000717D01*
X121740898Y-77799097D01*
X121833693Y-77575069D01*
X121881000Y-77337243D01*
X121881000Y-77094757D01*
X134659000Y-77094757D01*
X134659000Y-77337243D01*
X134706307Y-77575069D01*
X134799102Y-77799097D01*
X134933820Y-78000717D01*
X135105283Y-78172180D01*
X135306903Y-78306898D01*
X135530931Y-78399693D01*
X135768757Y-78447000D01*
X136011243Y-78447000D01*
X136249069Y-78399693D01*
X136473097Y-78306898D01*
X136674717Y-78172180D01*
X136846180Y-78000717D01*
X136980898Y-77799097D01*
X137073693Y-77575069D01*
X137121000Y-77337243D01*
X137121000Y-77094757D01*
X137073693Y-76856931D01*
X136980898Y-76632903D01*
X136846180Y-76431283D01*
X136674717Y-76259820D01*
X136473097Y-76125102D01*
X136249069Y-76032307D01*
X136011243Y-75985000D01*
X135768757Y-75985000D01*
X135530931Y-76032307D01*
X135306903Y-76125102D01*
X135105283Y-76259820D01*
X134933820Y-76431283D01*
X134799102Y-76632903D01*
X134706307Y-76856931D01*
X134659000Y-77094757D01*
X121881000Y-77094757D01*
X121833693Y-76856931D01*
X121740898Y-76632903D01*
X121606180Y-76431283D01*
X121434717Y-76259820D01*
X121233097Y-76125102D01*
X121009069Y-76032307D01*
X120771243Y-75985000D01*
X120528757Y-75985000D01*
X120290931Y-76032307D01*
X120066903Y-76125102D01*
X119865283Y-76259820D01*
X119693820Y-76431283D01*
X119559102Y-76632903D01*
X119466307Y-76856931D01*
X119419000Y-77094757D01*
X117188700Y-77094757D01*
X117188700Y-74911000D01*
X139236701Y-74911000D01*
X139236700Y-97345059D01*
%TA.AperFunction,Conductor*%
D15*
G36*
X139236700Y-97345059D02*
G01*
X139234736Y-97365000D01*
X139242575Y-97444590D01*
X139265790Y-97521121D01*
X139303490Y-97591653D01*
X139332169Y-97626598D01*
X139354226Y-97653474D01*
X139416047Y-97704210D01*
X139446000Y-97720220D01*
X139446000Y-105137780D01*
X139416047Y-105153790D01*
X139354226Y-105204526D01*
X139303490Y-105266347D01*
X139265790Y-105336879D01*
X139242575Y-105413410D01*
X139234736Y-105493000D01*
X139236701Y-105512951D01*
X139236700Y-127185000D01*
X117188700Y-127185000D01*
X117188700Y-124626000D01*
X119417157Y-124626000D01*
X119417157Y-126326000D01*
X119424513Y-126400689D01*
X119446299Y-126472508D01*
X119481678Y-126538696D01*
X119529289Y-126596711D01*
X119587304Y-126644322D01*
X119653492Y-126679701D01*
X119725311Y-126701487D01*
X119800000Y-126708843D01*
X121500000Y-126708843D01*
X121574689Y-126701487D01*
X121646508Y-126679701D01*
X121712696Y-126644322D01*
X121770711Y-126596711D01*
X121818322Y-126538696D01*
X121853701Y-126472508D01*
X121875487Y-126400689D01*
X121882843Y-126326000D01*
X121882843Y-125701000D01*
X123618628Y-125701000D01*
X123630888Y-125825482D01*
X123667198Y-125945180D01*
X123726163Y-126055494D01*
X123805515Y-126152185D01*
X123902206Y-126231537D01*
X124012520Y-126290502D01*
X124132218Y-126326812D01*
X124256700Y-126339072D01*
X124370950Y-126336000D01*
X124529700Y-126177250D01*
X124529700Y-125178000D01*
X123780450Y-125178000D01*
X123621700Y-125336750D01*
X123618628Y-125701000D01*
X121882843Y-125701000D01*
X121882843Y-124626000D01*
X121875487Y-124551311D01*
X121853701Y-124479492D01*
X121818322Y-124413304D01*
X121808225Y-124401000D01*
X123618628Y-124401000D01*
X123621700Y-124765250D01*
X123780450Y-124924000D01*
X124529700Y-124924000D01*
X124529700Y-124904000D01*
X124783700Y-124904000D01*
X124783700Y-124924000D01*
X124803700Y-124924000D01*
X124803700Y-125178000D01*
X124783700Y-125178000D01*
X124783700Y-126177250D01*
X124942450Y-126336000D01*
X125056700Y-126339072D01*
X125181182Y-126326812D01*
X125300880Y-126290502D01*
X125317100Y-126281832D01*
X125317100Y-126381040D01*
X125340526Y-126498814D01*
X125386479Y-126609754D01*
X125453192Y-126709598D01*
X125538102Y-126794508D01*
X125637946Y-126861221D01*
X125748886Y-126907174D01*
X125866660Y-126930600D01*
X125986740Y-126930600D01*
X126104514Y-126907174D01*
X126215454Y-126861221D01*
X126315298Y-126794508D01*
X126400208Y-126709598D01*
X126466921Y-126609754D01*
X126512874Y-126498814D01*
X126536300Y-126381040D01*
X126536300Y-126260960D01*
X126512874Y-126143186D01*
X126466921Y-126032246D01*
X126400208Y-125932402D01*
X126385884Y-125918078D01*
X126461622Y-125855922D01*
X126531700Y-125770531D01*
X126601779Y-125855922D01*
X126720702Y-125953519D01*
X126856379Y-126026040D01*
X127003598Y-126070699D01*
X127156700Y-126085778D01*
X127309803Y-126070699D01*
X127457022Y-126026040D01*
X127592699Y-125953519D01*
X127711622Y-125855922D01*
X127781700Y-125770531D01*
X127851779Y-125855922D01*
X127970702Y-125953519D01*
X128106379Y-126026040D01*
X128253598Y-126070699D01*
X128406700Y-126085778D01*
X128559803Y-126070699D01*
X128707022Y-126026040D01*
X128842699Y-125953519D01*
X128961622Y-125855922D01*
X129031700Y-125770531D01*
X129101779Y-125855922D01*
X129220702Y-125953519D01*
X129356379Y-126026040D01*
X129503598Y-126070699D01*
X129656700Y-126085778D01*
X129809803Y-126070699D01*
X129957022Y-126026040D01*
X130092699Y-125953519D01*
X130211622Y-125855922D01*
X130281700Y-125770531D01*
X130351779Y-125855922D01*
X130470702Y-125953519D01*
X130606379Y-126026040D01*
X130753598Y-126070699D01*
X130906700Y-126085778D01*
X131059803Y-126070699D01*
X131207022Y-126026040D01*
X131342699Y-125953519D01*
X131461622Y-125855922D01*
X131531700Y-125770531D01*
X131601779Y-125855922D01*
X131720702Y-125953519D01*
X131856379Y-126026040D01*
X132003598Y-126070699D01*
X132156700Y-126085778D01*
X132309803Y-126070699D01*
X132457022Y-126026040D01*
X132592699Y-125953519D01*
X132711622Y-125855922D01*
X132809219Y-125736999D01*
X132881740Y-125601322D01*
X132926399Y-125454103D01*
X132936183Y-125354757D01*
X134659000Y-125354757D01*
X134659000Y-125597243D01*
X134706307Y-125835069D01*
X134799102Y-126059097D01*
X134933820Y-126260717D01*
X135105283Y-126432180D01*
X135306903Y-126566898D01*
X135530931Y-126659693D01*
X135768757Y-126707000D01*
X136011243Y-126707000D01*
X136249069Y-126659693D01*
X136473097Y-126566898D01*
X136674717Y-126432180D01*
X136846180Y-126260717D01*
X136980898Y-126059097D01*
X137073693Y-125835069D01*
X137121000Y-125597243D01*
X137121000Y-125354757D01*
X137073693Y-125116931D01*
X136980898Y-124892903D01*
X136846180Y-124691283D01*
X136674717Y-124519820D01*
X136473097Y-124385102D01*
X136249069Y-124292307D01*
X136011243Y-124245000D01*
X135768757Y-124245000D01*
X135530931Y-124292307D01*
X135306903Y-124385102D01*
X135105283Y-124519820D01*
X134933820Y-124691283D01*
X134799102Y-124892903D01*
X134706307Y-125116931D01*
X134659000Y-125354757D01*
X132936183Y-125354757D01*
X132937700Y-125339360D01*
X132937700Y-124762640D01*
X132926399Y-124647897D01*
X132881740Y-124500678D01*
X132809219Y-124365001D01*
X132711622Y-124246078D01*
X132592698Y-124148481D01*
X132457021Y-124075960D01*
X132309802Y-124031301D01*
X132156700Y-124016222D01*
X132003597Y-124031301D01*
X131856378Y-124075960D01*
X131720701Y-124148481D01*
X131601778Y-124246078D01*
X131531700Y-124331469D01*
X131461622Y-124246078D01*
X131342698Y-124148481D01*
X131207021Y-124075960D01*
X131059802Y-124031301D01*
X130906700Y-124016222D01*
X130753597Y-124031301D01*
X130606378Y-124075960D01*
X130470701Y-124148481D01*
X130351778Y-124246078D01*
X130281700Y-124331469D01*
X130211622Y-124246078D01*
X130092698Y-124148481D01*
X129957021Y-124075960D01*
X129809802Y-124031301D01*
X129656700Y-124016222D01*
X129503597Y-124031301D01*
X129356378Y-124075960D01*
X129220701Y-124148481D01*
X129101778Y-124246078D01*
X129031700Y-124331469D01*
X128961622Y-124246078D01*
X128842698Y-124148481D01*
X128707021Y-124075960D01*
X128559802Y-124031301D01*
X128406700Y-124016222D01*
X128253597Y-124031301D01*
X128106378Y-124075960D01*
X127970701Y-124148481D01*
X127851778Y-124246078D01*
X127781700Y-124331469D01*
X127711622Y-124246078D01*
X127592698Y-124148481D01*
X127457021Y-124075960D01*
X127309802Y-124031301D01*
X127156700Y-124016222D01*
X127003597Y-124031301D01*
X126856378Y-124075960D01*
X126720701Y-124148481D01*
X126601778Y-124246078D01*
X126531700Y-124331469D01*
X126461622Y-124246078D01*
X126342698Y-124148481D01*
X126207021Y-124075960D01*
X126059802Y-124031301D01*
X125906700Y-124016222D01*
X125753597Y-124031301D01*
X125606378Y-124075960D01*
X125603736Y-124077372D01*
X125587237Y-124046506D01*
X125550837Y-124002152D01*
X125553298Y-124000508D01*
X125638208Y-123915598D01*
X125704921Y-123815754D01*
X125750874Y-123704814D01*
X125774300Y-123587040D01*
X125774300Y-123466960D01*
X125750874Y-123349186D01*
X125704921Y-123238246D01*
X125638208Y-123138402D01*
X125553298Y-123053492D01*
X125453454Y-122986779D01*
X125342514Y-122940826D01*
X125224740Y-122917400D01*
X125104660Y-122917400D01*
X124986886Y-122940826D01*
X124875946Y-122986779D01*
X124776102Y-123053492D01*
X124691192Y-123138402D01*
X124624479Y-123238246D01*
X124578526Y-123349186D01*
X124555100Y-123466960D01*
X124555100Y-123587040D01*
X124578526Y-123704814D01*
X124603870Y-123766000D01*
X124529698Y-123766000D01*
X124529698Y-123924748D01*
X124370950Y-123766000D01*
X124256700Y-123762928D01*
X124132218Y-123775188D01*
X124012520Y-123811498D01*
X123902206Y-123870463D01*
X123805515Y-123949815D01*
X123726163Y-124046506D01*
X123667198Y-124156820D01*
X123630888Y-124276518D01*
X123618628Y-124401000D01*
X121808225Y-124401000D01*
X121770711Y-124355289D01*
X121712696Y-124307678D01*
X121646508Y-124272299D01*
X121574689Y-124250513D01*
X121500000Y-124243157D01*
X119800000Y-124243157D01*
X119725311Y-124250513D01*
X119653492Y-124272299D01*
X119587304Y-124307678D01*
X119529289Y-124355289D01*
X119481678Y-124413304D01*
X119446299Y-124479492D01*
X119424513Y-124551311D01*
X119417157Y-124626000D01*
X117188700Y-124626000D01*
X117188700Y-120274757D01*
X119419000Y-120274757D01*
X119419000Y-120517243D01*
X119466307Y-120755069D01*
X119559102Y-120979097D01*
X119693820Y-121180717D01*
X119865283Y-121352180D01*
X120066903Y-121486898D01*
X120290931Y-121579693D01*
X120528757Y-121627000D01*
X120771243Y-121627000D01*
X121009069Y-121579693D01*
X121021890Y-121574382D01*
X120999100Y-121688960D01*
X120999100Y-121750324D01*
X120771243Y-121705000D01*
X120528757Y-121705000D01*
X120290931Y-121752307D01*
X120066903Y-121845102D01*
X119865283Y-121979820D01*
X119693820Y-122151283D01*
X119559102Y-122352903D01*
X119466307Y-122576931D01*
X119419000Y-122814757D01*
X119419000Y-123057243D01*
X119466307Y-123295069D01*
X119559102Y-123519097D01*
X119693820Y-123720717D01*
X119865283Y-123892180D01*
X120066903Y-124026898D01*
X120290931Y-124119693D01*
X120528757Y-124167000D01*
X120771243Y-124167000D01*
X121009069Y-124119693D01*
X121233097Y-124026898D01*
X121434717Y-123892180D01*
X121606180Y-123720717D01*
X121740898Y-123519097D01*
X121833693Y-123295069D01*
X121881000Y-123057243D01*
X121881000Y-122814757D01*
X134659000Y-122814757D01*
X134659000Y-123057243D01*
X134706307Y-123295069D01*
X134799102Y-123519097D01*
X134933820Y-123720717D01*
X135105283Y-123892180D01*
X135306903Y-124026898D01*
X135530931Y-124119693D01*
X135768757Y-124167000D01*
X136011243Y-124167000D01*
X136249069Y-124119693D01*
X136473097Y-124026898D01*
X136674717Y-123892180D01*
X136846180Y-123720717D01*
X136980898Y-123519097D01*
X137073693Y-123295069D01*
X137121000Y-123057243D01*
X137121000Y-122814757D01*
X137073693Y-122576931D01*
X136980898Y-122352903D01*
X136846180Y-122151283D01*
X136674717Y-121979820D01*
X136473097Y-121845102D01*
X136249069Y-121752307D01*
X136011243Y-121705000D01*
X135768757Y-121705000D01*
X135530931Y-121752307D01*
X135306903Y-121845102D01*
X135105283Y-121979820D01*
X134933820Y-122151283D01*
X134799102Y-122352903D01*
X134706307Y-122576931D01*
X134659000Y-122814757D01*
X121881000Y-122814757D01*
X121833693Y-122576931D01*
X121740898Y-122352903D01*
X121735793Y-122345263D01*
X121786514Y-122335174D01*
X121897454Y-122289221D01*
X121997298Y-122222508D01*
X122082208Y-122137598D01*
X122148921Y-122037754D01*
X122194874Y-121926814D01*
X122218300Y-121809040D01*
X122218300Y-121688960D01*
X122194874Y-121571186D01*
X122148921Y-121460246D01*
X122132026Y-121434960D01*
X122269100Y-121434960D01*
X122269100Y-121555040D01*
X122292526Y-121672814D01*
X122338479Y-121783754D01*
X122405192Y-121883598D01*
X122490102Y-121968508D01*
X122589946Y-122035221D01*
X122700886Y-122081174D01*
X122818660Y-122104600D01*
X122938740Y-122104600D01*
X123056514Y-122081174D01*
X123167454Y-122035221D01*
X123267298Y-121968508D01*
X123352208Y-121883598D01*
X123418921Y-121783754D01*
X123464874Y-121672814D01*
X123488300Y-121555040D01*
X123488300Y-121434960D01*
X125571100Y-121434960D01*
X125571100Y-121555040D01*
X125594526Y-121672814D01*
X125640479Y-121783754D01*
X125707192Y-121883598D01*
X125792102Y-121968508D01*
X125891946Y-122035221D01*
X126002886Y-122081174D01*
X126120660Y-122104600D01*
X126240740Y-122104600D01*
X126358514Y-122081174D01*
X126469454Y-122035221D01*
X126569298Y-121968508D01*
X126654208Y-121883598D01*
X126720921Y-121783754D01*
X126766874Y-121672814D01*
X126790300Y-121555040D01*
X126790300Y-121434960D01*
X127095100Y-121434960D01*
X127095100Y-121555040D01*
X127118526Y-121672814D01*
X127164479Y-121783754D01*
X127231192Y-121883598D01*
X127316102Y-121968508D01*
X127415946Y-122035221D01*
X127526886Y-122081174D01*
X127644660Y-122104600D01*
X127764740Y-122104600D01*
X127882514Y-122081174D01*
X127993454Y-122035221D01*
X128093298Y-121968508D01*
X128178208Y-121883598D01*
X128244921Y-121783754D01*
X128290874Y-121672814D01*
X128314300Y-121555040D01*
X128314300Y-121434960D01*
X128619100Y-121434960D01*
X128619100Y-121555040D01*
X128642526Y-121672814D01*
X128688479Y-121783754D01*
X128755192Y-121883598D01*
X128840102Y-121968508D01*
X128939946Y-122035221D01*
X129050886Y-122081174D01*
X129168660Y-122104600D01*
X129288740Y-122104600D01*
X129406514Y-122081174D01*
X129517454Y-122035221D01*
X129617298Y-121968508D01*
X129702208Y-121883598D01*
X129768921Y-121783754D01*
X129814874Y-121672814D01*
X129838300Y-121555040D01*
X129838300Y-121434960D01*
X129814874Y-121317186D01*
X129768921Y-121206246D01*
X129702208Y-121106402D01*
X129617298Y-121021492D01*
X129517454Y-120954779D01*
X129406514Y-120908826D01*
X129288740Y-120885400D01*
X129168660Y-120885400D01*
X129050886Y-120908826D01*
X128939946Y-120954779D01*
X128840102Y-121021492D01*
X128755192Y-121106402D01*
X128688479Y-121206246D01*
X128642526Y-121317186D01*
X128619100Y-121434960D01*
X128314300Y-121434960D01*
X128290874Y-121317186D01*
X128244921Y-121206246D01*
X128178208Y-121106402D01*
X128093298Y-121021492D01*
X127993454Y-120954779D01*
X127882514Y-120908826D01*
X127764740Y-120885400D01*
X127644660Y-120885400D01*
X127526886Y-120908826D01*
X127415946Y-120954779D01*
X127316102Y-121021492D01*
X127231192Y-121106402D01*
X127164479Y-121206246D01*
X127118526Y-121317186D01*
X127095100Y-121434960D01*
X126790300Y-121434960D01*
X126766874Y-121317186D01*
X126720921Y-121206246D01*
X126654208Y-121106402D01*
X126569298Y-121021492D01*
X126469454Y-120954779D01*
X126358514Y-120908826D01*
X126240740Y-120885400D01*
X126120660Y-120885400D01*
X126002886Y-120908826D01*
X125891946Y-120954779D01*
X125792102Y-121021492D01*
X125707192Y-121106402D01*
X125640479Y-121206246D01*
X125594526Y-121317186D01*
X125571100Y-121434960D01*
X123488300Y-121434960D01*
X123464874Y-121317186D01*
X123418921Y-121206246D01*
X123352208Y-121106402D01*
X123267298Y-121021492D01*
X123167454Y-120954779D01*
X123056514Y-120908826D01*
X122938740Y-120885400D01*
X122818660Y-120885400D01*
X122700886Y-120908826D01*
X122589946Y-120954779D01*
X122490102Y-121021492D01*
X122405192Y-121106402D01*
X122338479Y-121206246D01*
X122292526Y-121317186D01*
X122269100Y-121434960D01*
X122132026Y-121434960D01*
X122082208Y-121360402D01*
X121997298Y-121275492D01*
X121897454Y-121208779D01*
X121786514Y-121162826D01*
X121668740Y-121139400D01*
X121633787Y-121139400D01*
X121740898Y-120979097D01*
X121833693Y-120755069D01*
X121881000Y-120517243D01*
X121881000Y-120274757D01*
X134659000Y-120274757D01*
X134659000Y-120517243D01*
X134706307Y-120755069D01*
X134799102Y-120979097D01*
X134933820Y-121180717D01*
X135105283Y-121352180D01*
X135306903Y-121486898D01*
X135530931Y-121579693D01*
X135768757Y-121627000D01*
X136011243Y-121627000D01*
X136249069Y-121579693D01*
X136473097Y-121486898D01*
X136674717Y-121352180D01*
X136846180Y-121180717D01*
X136980898Y-120979097D01*
X137073693Y-120755069D01*
X137121000Y-120517243D01*
X137121000Y-120274757D01*
X137073693Y-120036931D01*
X136980898Y-119812903D01*
X136846180Y-119611283D01*
X136674717Y-119439820D01*
X136473097Y-119305102D01*
X136249069Y-119212307D01*
X136011243Y-119165000D01*
X135768757Y-119165000D01*
X135530931Y-119212307D01*
X135306903Y-119305102D01*
X135105283Y-119439820D01*
X134933820Y-119611283D01*
X134799102Y-119812903D01*
X134706307Y-120036931D01*
X134659000Y-120274757D01*
X121881000Y-120274757D01*
X121833693Y-120036931D01*
X121740898Y-119812903D01*
X121606180Y-119611283D01*
X121434717Y-119439820D01*
X121379553Y-119402960D01*
X130905100Y-119402960D01*
X130905100Y-119523040D01*
X130928526Y-119640814D01*
X130974479Y-119751754D01*
X131041192Y-119851598D01*
X131126102Y-119936508D01*
X131225946Y-120003221D01*
X131336886Y-120049174D01*
X131454660Y-120072600D01*
X131574740Y-120072600D01*
X131692514Y-120049174D01*
X131803454Y-120003221D01*
X131903298Y-119936508D01*
X131988208Y-119851598D01*
X132054921Y-119751754D01*
X132100874Y-119640814D01*
X132124300Y-119523040D01*
X132124300Y-119402960D01*
X132100874Y-119285186D01*
X132054921Y-119174246D01*
X131988208Y-119074402D01*
X131903298Y-118989492D01*
X131803454Y-118922779D01*
X131692514Y-118876826D01*
X131574740Y-118853400D01*
X131454660Y-118853400D01*
X131336886Y-118876826D01*
X131225946Y-118922779D01*
X131126102Y-118989492D01*
X131041192Y-119074402D01*
X130974479Y-119174246D01*
X130928526Y-119285186D01*
X130905100Y-119402960D01*
X121379553Y-119402960D01*
X121233097Y-119305102D01*
X121009069Y-119212307D01*
X120771243Y-119165000D01*
X120528757Y-119165000D01*
X120290931Y-119212307D01*
X120066903Y-119305102D01*
X119865283Y-119439820D01*
X119693820Y-119611283D01*
X119559102Y-119812903D01*
X119466307Y-120036931D01*
X119419000Y-120274757D01*
X117188700Y-120274757D01*
X117188700Y-117734757D01*
X119419000Y-117734757D01*
X119419000Y-117977243D01*
X119466307Y-118215069D01*
X119559102Y-118439097D01*
X119693820Y-118640717D01*
X119865283Y-118812180D01*
X120066903Y-118946898D01*
X120290931Y-119039693D01*
X120528757Y-119087000D01*
X120771243Y-119087000D01*
X121009069Y-119039693D01*
X121233097Y-118946898D01*
X121434717Y-118812180D01*
X121606180Y-118640717D01*
X121740898Y-118439097D01*
X121833693Y-118215069D01*
X121881000Y-117977243D01*
X121881000Y-117734757D01*
X121833693Y-117496931D01*
X121740898Y-117272903D01*
X121721559Y-117243960D01*
X124047100Y-117243960D01*
X124047100Y-117364040D01*
X124070526Y-117481814D01*
X124116479Y-117592754D01*
X124183192Y-117692598D01*
X124268102Y-117777508D01*
X124367946Y-117844221D01*
X124478886Y-117890174D01*
X124596660Y-117913600D01*
X124716740Y-117913600D01*
X124834514Y-117890174D01*
X124945454Y-117844221D01*
X125045298Y-117777508D01*
X125130208Y-117692598D01*
X125196921Y-117592754D01*
X125242874Y-117481814D01*
X125266300Y-117364040D01*
X125266300Y-117243960D01*
X125444100Y-117243960D01*
X125444100Y-117364040D01*
X125467526Y-117481814D01*
X125513479Y-117592754D01*
X125580192Y-117692598D01*
X125665102Y-117777508D01*
X125764946Y-117844221D01*
X125875886Y-117890174D01*
X125993660Y-117913600D01*
X126113740Y-117913600D01*
X126231514Y-117890174D01*
X126342454Y-117844221D01*
X126442298Y-117777508D01*
X126527208Y-117692598D01*
X126593921Y-117592754D01*
X126639874Y-117481814D01*
X126663300Y-117364040D01*
X126663300Y-117243960D01*
X127031610Y-117243960D01*
X127031610Y-117364040D01*
X127055036Y-117481814D01*
X127100989Y-117592754D01*
X127167702Y-117692598D01*
X127252612Y-117777508D01*
X127352456Y-117844221D01*
X127463396Y-117890174D01*
X127581170Y-117913600D01*
X127701250Y-117913600D01*
X127819024Y-117890174D01*
X127929964Y-117844221D01*
X128029808Y-117777508D01*
X128114718Y-117692598D01*
X128181431Y-117592754D01*
X128227384Y-117481814D01*
X128250810Y-117364040D01*
X128250810Y-117243960D01*
X128492100Y-117243960D01*
X128492100Y-117364040D01*
X128515526Y-117481814D01*
X128561479Y-117592754D01*
X128628192Y-117692598D01*
X128713102Y-117777508D01*
X128812946Y-117844221D01*
X128923886Y-117890174D01*
X129041660Y-117913600D01*
X129161740Y-117913600D01*
X129279514Y-117890174D01*
X129390454Y-117844221D01*
X129490298Y-117777508D01*
X129533049Y-117734757D01*
X134659000Y-117734757D01*
X134659000Y-117977243D01*
X134706307Y-118215069D01*
X134799102Y-118439097D01*
X134933820Y-118640717D01*
X135105283Y-118812180D01*
X135306903Y-118946898D01*
X135530931Y-119039693D01*
X135768757Y-119087000D01*
X136011243Y-119087000D01*
X136249069Y-119039693D01*
X136473097Y-118946898D01*
X136674717Y-118812180D01*
X136846180Y-118640717D01*
X136980898Y-118439097D01*
X137073693Y-118215069D01*
X137121000Y-117977243D01*
X137121000Y-117734757D01*
X137073693Y-117496931D01*
X136980898Y-117272903D01*
X136846180Y-117071283D01*
X136674717Y-116899820D01*
X136473097Y-116765102D01*
X136249069Y-116672307D01*
X136011243Y-116625000D01*
X135768757Y-116625000D01*
X135530931Y-116672307D01*
X135306903Y-116765102D01*
X135105283Y-116899820D01*
X134933820Y-117071283D01*
X134799102Y-117272903D01*
X134706307Y-117496931D01*
X134659000Y-117734757D01*
X129533049Y-117734757D01*
X129575208Y-117692598D01*
X129641921Y-117592754D01*
X129687874Y-117481814D01*
X129711300Y-117364040D01*
X129711300Y-117243960D01*
X129687874Y-117126186D01*
X129641921Y-117015246D01*
X129575208Y-116915402D01*
X129522766Y-116862960D01*
X132429100Y-116862960D01*
X132429100Y-116983040D01*
X132452526Y-117100814D01*
X132498479Y-117211754D01*
X132565192Y-117311598D01*
X132650102Y-117396508D01*
X132749946Y-117463221D01*
X132860886Y-117509174D01*
X132978660Y-117532600D01*
X133098740Y-117532600D01*
X133216514Y-117509174D01*
X133327454Y-117463221D01*
X133427298Y-117396508D01*
X133512208Y-117311598D01*
X133578921Y-117211754D01*
X133624874Y-117100814D01*
X133648300Y-116983040D01*
X133648300Y-116862960D01*
X133624874Y-116745186D01*
X133578921Y-116634246D01*
X133512208Y-116534402D01*
X133427298Y-116449492D01*
X133327454Y-116382779D01*
X133216514Y-116336826D01*
X133098740Y-116313400D01*
X132978660Y-116313400D01*
X132860886Y-116336826D01*
X132749946Y-116382779D01*
X132650102Y-116449492D01*
X132565192Y-116534402D01*
X132498479Y-116634246D01*
X132452526Y-116745186D01*
X132429100Y-116862960D01*
X129522766Y-116862960D01*
X129490298Y-116830492D01*
X129390454Y-116763779D01*
X129279514Y-116717826D01*
X129161740Y-116694400D01*
X129041660Y-116694400D01*
X128923886Y-116717826D01*
X128812946Y-116763779D01*
X128713102Y-116830492D01*
X128628192Y-116915402D01*
X128561479Y-117015246D01*
X128515526Y-117126186D01*
X128492100Y-117243960D01*
X128250810Y-117243960D01*
X128227384Y-117126186D01*
X128181431Y-117015246D01*
X128114718Y-116915402D01*
X128029808Y-116830492D01*
X127929964Y-116763779D01*
X127819024Y-116717826D01*
X127701250Y-116694400D01*
X127581170Y-116694400D01*
X127463396Y-116717826D01*
X127352456Y-116763779D01*
X127252612Y-116830492D01*
X127167702Y-116915402D01*
X127100989Y-117015246D01*
X127055036Y-117126186D01*
X127031610Y-117243960D01*
X126663300Y-117243960D01*
X126639874Y-117126186D01*
X126593921Y-117015246D01*
X126527208Y-116915402D01*
X126442298Y-116830492D01*
X126342454Y-116763779D01*
X126231514Y-116717826D01*
X126113740Y-116694400D01*
X125993660Y-116694400D01*
X125875886Y-116717826D01*
X125764946Y-116763779D01*
X125665102Y-116830492D01*
X125580192Y-116915402D01*
X125513479Y-117015246D01*
X125467526Y-117126186D01*
X125444100Y-117243960D01*
X125266300Y-117243960D01*
X125242874Y-117126186D01*
X125196921Y-117015246D01*
X125130208Y-116915402D01*
X125045298Y-116830492D01*
X124945454Y-116763779D01*
X124834514Y-116717826D01*
X124716740Y-116694400D01*
X124596660Y-116694400D01*
X124478886Y-116717826D01*
X124367946Y-116763779D01*
X124268102Y-116830492D01*
X124183192Y-116915402D01*
X124116479Y-117015246D01*
X124070526Y-117126186D01*
X124047100Y-117243960D01*
X121721559Y-117243960D01*
X121606180Y-117071283D01*
X121434717Y-116899820D01*
X121233097Y-116765102D01*
X121009069Y-116672307D01*
X120771243Y-116625000D01*
X120528757Y-116625000D01*
X120290931Y-116672307D01*
X120066903Y-116765102D01*
X119865283Y-116899820D01*
X119693820Y-117071283D01*
X119559102Y-117272903D01*
X119466307Y-117496931D01*
X119419000Y-117734757D01*
X117188700Y-117734757D01*
X117188700Y-115194757D01*
X119419000Y-115194757D01*
X119419000Y-115437243D01*
X119466307Y-115675069D01*
X119559102Y-115899097D01*
X119693820Y-116100717D01*
X119865283Y-116272180D01*
X120066903Y-116406898D01*
X120290931Y-116499693D01*
X120528757Y-116547000D01*
X120771243Y-116547000D01*
X121009069Y-116499693D01*
X121233097Y-116406898D01*
X121434717Y-116272180D01*
X121606180Y-116100717D01*
X121740898Y-115899097D01*
X121833693Y-115675069D01*
X121881000Y-115437243D01*
X121881000Y-115194757D01*
X134659000Y-115194757D01*
X134659000Y-115437243D01*
X134706307Y-115675069D01*
X134799102Y-115899097D01*
X134933820Y-116100717D01*
X135105283Y-116272180D01*
X135306903Y-116406898D01*
X135530931Y-116499693D01*
X135768757Y-116547000D01*
X136011243Y-116547000D01*
X136249069Y-116499693D01*
X136473097Y-116406898D01*
X136674717Y-116272180D01*
X136846180Y-116100717D01*
X136980898Y-115899097D01*
X137073693Y-115675069D01*
X137121000Y-115437243D01*
X137121000Y-115194757D01*
X137073693Y-114956931D01*
X136980898Y-114732903D01*
X136846180Y-114531283D01*
X136674717Y-114359820D01*
X136473097Y-114225102D01*
X136249069Y-114132307D01*
X136011243Y-114085000D01*
X135768757Y-114085000D01*
X135530931Y-114132307D01*
X135306903Y-114225102D01*
X135105283Y-114359820D01*
X134933820Y-114531283D01*
X134799102Y-114732903D01*
X134706307Y-114956931D01*
X134659000Y-115194757D01*
X121881000Y-115194757D01*
X121833693Y-114956931D01*
X121740898Y-114732903D01*
X121606180Y-114531283D01*
X121434717Y-114359820D01*
X121233097Y-114225102D01*
X121009069Y-114132307D01*
X120771243Y-114085000D01*
X120528757Y-114085000D01*
X120290931Y-114132307D01*
X120066903Y-114225102D01*
X119865283Y-114359820D01*
X119693820Y-114531283D01*
X119559102Y-114732903D01*
X119466307Y-114956931D01*
X119419000Y-115194757D01*
X117188700Y-115194757D01*
X117188700Y-111926000D01*
X119417157Y-111926000D01*
X119417157Y-113626000D01*
X119424513Y-113700689D01*
X119446299Y-113772508D01*
X119481678Y-113838696D01*
X119529289Y-113896711D01*
X119587304Y-113944322D01*
X119653492Y-113979701D01*
X119725311Y-114001487D01*
X119800000Y-114008843D01*
X121500000Y-114008843D01*
X121574689Y-114001487D01*
X121646508Y-113979701D01*
X121712696Y-113944322D01*
X121770711Y-113896711D01*
X121818322Y-113838696D01*
X121853701Y-113772508D01*
X121875487Y-113700689D01*
X121882843Y-113626000D01*
X121882843Y-113560960D01*
X129381100Y-113560960D01*
X129381100Y-113681040D01*
X129404526Y-113798814D01*
X129450479Y-113909754D01*
X129517192Y-114009598D01*
X129602102Y-114094508D01*
X129701946Y-114161221D01*
X129812886Y-114207174D01*
X129930660Y-114230600D01*
X130050740Y-114230600D01*
X130168514Y-114207174D01*
X130279454Y-114161221D01*
X130379298Y-114094508D01*
X130404846Y-114068960D01*
X130905100Y-114068960D01*
X130905100Y-114189040D01*
X130928526Y-114306814D01*
X130974479Y-114417754D01*
X131041192Y-114517598D01*
X131126102Y-114602508D01*
X131225946Y-114669221D01*
X131336886Y-114715174D01*
X131454660Y-114738600D01*
X131574740Y-114738600D01*
X131692514Y-114715174D01*
X131803454Y-114669221D01*
X131903298Y-114602508D01*
X131988208Y-114517598D01*
X132054921Y-114417754D01*
X132100874Y-114306814D01*
X132124300Y-114189040D01*
X132124300Y-114068960D01*
X132683100Y-114068960D01*
X132683100Y-114189040D01*
X132706526Y-114306814D01*
X132752479Y-114417754D01*
X132819192Y-114517598D01*
X132904102Y-114602508D01*
X133003946Y-114669221D01*
X133114886Y-114715174D01*
X133232660Y-114738600D01*
X133352740Y-114738600D01*
X133470514Y-114715174D01*
X133581454Y-114669221D01*
X133681298Y-114602508D01*
X133766208Y-114517598D01*
X133832921Y-114417754D01*
X133878874Y-114306814D01*
X133902300Y-114189040D01*
X133902300Y-114068960D01*
X133878874Y-113951186D01*
X133832921Y-113840246D01*
X133766208Y-113740402D01*
X133681298Y-113655492D01*
X133581454Y-113588779D01*
X133470514Y-113542826D01*
X133352740Y-113519400D01*
X133232660Y-113519400D01*
X133114886Y-113542826D01*
X133003946Y-113588779D01*
X132904102Y-113655492D01*
X132819192Y-113740402D01*
X132752479Y-113840246D01*
X132706526Y-113951186D01*
X132683100Y-114068960D01*
X132124300Y-114068960D01*
X132100874Y-113951186D01*
X132054921Y-113840246D01*
X131988208Y-113740402D01*
X131903298Y-113655492D01*
X131803454Y-113588779D01*
X131692514Y-113542826D01*
X131574740Y-113519400D01*
X131454660Y-113519400D01*
X131336886Y-113542826D01*
X131225946Y-113588779D01*
X131126102Y-113655492D01*
X131041192Y-113740402D01*
X130974479Y-113840246D01*
X130928526Y-113951186D01*
X130905100Y-114068960D01*
X130404846Y-114068960D01*
X130464208Y-114009598D01*
X130530921Y-113909754D01*
X130576874Y-113798814D01*
X130600300Y-113681040D01*
X130600300Y-113560960D01*
X130576874Y-113443186D01*
X130530921Y-113332246D01*
X130464208Y-113232402D01*
X130379298Y-113147492D01*
X130279454Y-113080779D01*
X130168514Y-113034826D01*
X130050740Y-113011400D01*
X129930660Y-113011400D01*
X129812886Y-113034826D01*
X129701946Y-113080779D01*
X129602102Y-113147492D01*
X129517192Y-113232402D01*
X129450479Y-113332246D01*
X129404526Y-113443186D01*
X129381100Y-113560960D01*
X121882843Y-113560960D01*
X121882843Y-112798960D01*
X124174100Y-112798960D01*
X124174100Y-112919040D01*
X124197526Y-113036814D01*
X124243479Y-113147754D01*
X124310192Y-113247598D01*
X124395102Y-113332508D01*
X124494946Y-113399221D01*
X124605886Y-113445174D01*
X124723660Y-113468600D01*
X124843740Y-113468600D01*
X124961514Y-113445174D01*
X125072454Y-113399221D01*
X125172298Y-113332508D01*
X125257208Y-113247598D01*
X125323921Y-113147754D01*
X125369874Y-113036814D01*
X125393300Y-112919040D01*
X125393300Y-112798960D01*
X125369874Y-112681186D01*
X125358927Y-112654757D01*
X134659000Y-112654757D01*
X134659000Y-112897243D01*
X134706307Y-113135069D01*
X134799102Y-113359097D01*
X134933820Y-113560717D01*
X135105283Y-113732180D01*
X135306903Y-113866898D01*
X135530931Y-113959693D01*
X135768757Y-114007000D01*
X136011243Y-114007000D01*
X136249069Y-113959693D01*
X136473097Y-113866898D01*
X136674717Y-113732180D01*
X136846180Y-113560717D01*
X136980898Y-113359097D01*
X137073693Y-113135069D01*
X137121000Y-112897243D01*
X137121000Y-112654757D01*
X137073693Y-112416931D01*
X136980898Y-112192903D01*
X136846180Y-111991283D01*
X136674717Y-111819820D01*
X136473097Y-111685102D01*
X136249069Y-111592307D01*
X136011243Y-111545000D01*
X135768757Y-111545000D01*
X135530931Y-111592307D01*
X135306903Y-111685102D01*
X135105283Y-111819820D01*
X134933820Y-111991283D01*
X134799102Y-112192903D01*
X134706307Y-112416931D01*
X134659000Y-112654757D01*
X125358927Y-112654757D01*
X125323921Y-112570246D01*
X125257208Y-112470402D01*
X125172298Y-112385492D01*
X125072454Y-112318779D01*
X124961514Y-112272826D01*
X124843740Y-112249400D01*
X124723660Y-112249400D01*
X124605886Y-112272826D01*
X124494946Y-112318779D01*
X124395102Y-112385492D01*
X124310192Y-112470402D01*
X124243479Y-112570246D01*
X124197526Y-112681186D01*
X124174100Y-112798960D01*
X121882843Y-112798960D01*
X121882843Y-111926000D01*
X121875487Y-111851311D01*
X121853701Y-111779492D01*
X121818322Y-111713304D01*
X121770711Y-111655289D01*
X121712696Y-111607678D01*
X121646508Y-111572299D01*
X121574689Y-111550513D01*
X121500000Y-111543157D01*
X119800000Y-111543157D01*
X119725311Y-111550513D01*
X119653492Y-111572299D01*
X119587304Y-111607678D01*
X119529289Y-111655289D01*
X119481678Y-111713304D01*
X119446299Y-111779492D01*
X119424513Y-111851311D01*
X119417157Y-111926000D01*
X117188700Y-111926000D01*
X117188700Y-110114757D01*
X119419000Y-110114757D01*
X119419000Y-110357243D01*
X119466307Y-110595069D01*
X119559102Y-110819097D01*
X119693820Y-111020717D01*
X119865283Y-111192180D01*
X120066903Y-111326898D01*
X120290931Y-111419693D01*
X120528757Y-111467000D01*
X120771243Y-111467000D01*
X121009069Y-111419693D01*
X121233097Y-111326898D01*
X121434717Y-111192180D01*
X121605937Y-111020960D01*
X130905100Y-111020960D01*
X130905100Y-111141040D01*
X130928526Y-111258814D01*
X130974479Y-111369754D01*
X131041192Y-111469598D01*
X131126102Y-111554508D01*
X131225946Y-111621221D01*
X131336886Y-111667174D01*
X131454660Y-111690600D01*
X131574740Y-111690600D01*
X131692514Y-111667174D01*
X131803454Y-111621221D01*
X131903298Y-111554508D01*
X131988208Y-111469598D01*
X132054921Y-111369754D01*
X132100874Y-111258814D01*
X132124300Y-111141040D01*
X132124300Y-111020960D01*
X132683100Y-111020960D01*
X132683100Y-111141040D01*
X132706526Y-111258814D01*
X132752479Y-111369754D01*
X132819192Y-111469598D01*
X132904102Y-111554508D01*
X133003946Y-111621221D01*
X133114886Y-111667174D01*
X133232660Y-111690600D01*
X133352740Y-111690600D01*
X133470514Y-111667174D01*
X133581454Y-111621221D01*
X133681298Y-111554508D01*
X133766208Y-111469598D01*
X133832921Y-111369754D01*
X133878874Y-111258814D01*
X133902300Y-111141040D01*
X133902300Y-111020960D01*
X133878874Y-110903186D01*
X133832921Y-110792246D01*
X133766208Y-110692402D01*
X133681298Y-110607492D01*
X133581454Y-110540779D01*
X133470514Y-110494826D01*
X133352740Y-110471400D01*
X133232660Y-110471400D01*
X133114886Y-110494826D01*
X133003946Y-110540779D01*
X132904102Y-110607492D01*
X132819192Y-110692402D01*
X132752479Y-110792246D01*
X132706526Y-110903186D01*
X132683100Y-111020960D01*
X132124300Y-111020960D01*
X132100874Y-110903186D01*
X132054921Y-110792246D01*
X131988208Y-110692402D01*
X131903298Y-110607492D01*
X131803454Y-110540779D01*
X131692514Y-110494826D01*
X131574740Y-110471400D01*
X131454660Y-110471400D01*
X131336886Y-110494826D01*
X131225946Y-110540779D01*
X131126102Y-110607492D01*
X131041192Y-110692402D01*
X130974479Y-110792246D01*
X130928526Y-110903186D01*
X130905100Y-111020960D01*
X121605937Y-111020960D01*
X121606180Y-111020717D01*
X121740898Y-110819097D01*
X121833693Y-110595069D01*
X121881000Y-110357243D01*
X121881000Y-110114757D01*
X121859160Y-110004960D01*
X124301100Y-110004960D01*
X124301100Y-110125040D01*
X124324526Y-110242814D01*
X124370479Y-110353754D01*
X124437192Y-110453598D01*
X124522102Y-110538508D01*
X124621946Y-110605221D01*
X124732886Y-110651174D01*
X124850660Y-110674600D01*
X124970740Y-110674600D01*
X125088514Y-110651174D01*
X125199454Y-110605221D01*
X125299298Y-110538508D01*
X125384208Y-110453598D01*
X125450921Y-110353754D01*
X125490186Y-110258960D01*
X129381100Y-110258960D01*
X129381100Y-110379040D01*
X129404526Y-110496814D01*
X129450479Y-110607754D01*
X129517192Y-110707598D01*
X129602102Y-110792508D01*
X129701946Y-110859221D01*
X129812886Y-110905174D01*
X129930660Y-110928600D01*
X130050740Y-110928600D01*
X130168514Y-110905174D01*
X130279454Y-110859221D01*
X130379298Y-110792508D01*
X130464208Y-110707598D01*
X130530921Y-110607754D01*
X130576874Y-110496814D01*
X130600300Y-110379040D01*
X130600300Y-110258960D01*
X130576874Y-110141186D01*
X130565927Y-110114757D01*
X134659000Y-110114757D01*
X134659000Y-110357243D01*
X134706307Y-110595069D01*
X134799102Y-110819097D01*
X134933820Y-111020717D01*
X135105283Y-111192180D01*
X135306903Y-111326898D01*
X135530931Y-111419693D01*
X135768757Y-111467000D01*
X136011243Y-111467000D01*
X136249069Y-111419693D01*
X136473097Y-111326898D01*
X136674717Y-111192180D01*
X136846180Y-111020717D01*
X136980898Y-110819097D01*
X137073693Y-110595069D01*
X137121000Y-110357243D01*
X137121000Y-110114757D01*
X137073693Y-109876931D01*
X136980898Y-109652903D01*
X136846180Y-109451283D01*
X136674717Y-109279820D01*
X136473097Y-109145102D01*
X136249069Y-109052307D01*
X136011243Y-109005000D01*
X135768757Y-109005000D01*
X135530931Y-109052307D01*
X135306903Y-109145102D01*
X135105283Y-109279820D01*
X134933820Y-109451283D01*
X134799102Y-109652903D01*
X134706307Y-109876931D01*
X134659000Y-110114757D01*
X130565927Y-110114757D01*
X130530921Y-110030246D01*
X130464208Y-109930402D01*
X130379298Y-109845492D01*
X130279454Y-109778779D01*
X130168514Y-109732826D01*
X130050740Y-109709400D01*
X129930660Y-109709400D01*
X129812886Y-109732826D01*
X129701946Y-109778779D01*
X129602102Y-109845492D01*
X129517192Y-109930402D01*
X129450479Y-110030246D01*
X129404526Y-110141186D01*
X129381100Y-110258960D01*
X125490186Y-110258960D01*
X125496874Y-110242814D01*
X125520300Y-110125040D01*
X125520300Y-110004960D01*
X125496874Y-109887186D01*
X125450921Y-109776246D01*
X125384208Y-109676402D01*
X125299298Y-109591492D01*
X125199454Y-109524779D01*
X125088514Y-109478826D01*
X124970740Y-109455400D01*
X124850660Y-109455400D01*
X124732886Y-109478826D01*
X124621946Y-109524779D01*
X124522102Y-109591492D01*
X124437192Y-109676402D01*
X124370479Y-109776246D01*
X124324526Y-109887186D01*
X124301100Y-110004960D01*
X121859160Y-110004960D01*
X121833693Y-109876931D01*
X121740898Y-109652903D01*
X121606180Y-109451283D01*
X121434717Y-109279820D01*
X121233097Y-109145102D01*
X121009069Y-109052307D01*
X120771243Y-109005000D01*
X120528757Y-109005000D01*
X120290931Y-109052307D01*
X120066903Y-109145102D01*
X119865283Y-109279820D01*
X119693820Y-109451283D01*
X119559102Y-109652903D01*
X119466307Y-109876931D01*
X119419000Y-110114757D01*
X117188700Y-110114757D01*
X117188700Y-107574757D01*
X119419000Y-107574757D01*
X119419000Y-107817243D01*
X119466307Y-108055069D01*
X119559102Y-108279097D01*
X119693820Y-108480717D01*
X119865283Y-108652180D01*
X120066903Y-108786898D01*
X120290931Y-108879693D01*
X120528757Y-108927000D01*
X120771243Y-108927000D01*
X121009069Y-108879693D01*
X121233097Y-108786898D01*
X121434717Y-108652180D01*
X121606180Y-108480717D01*
X121740898Y-108279097D01*
X121833693Y-108055069D01*
X121881000Y-107817243D01*
X121881000Y-107574757D01*
X121833693Y-107336931D01*
X121740898Y-107112903D01*
X121606180Y-106911283D01*
X121434717Y-106739820D01*
X121233097Y-106605102D01*
X121009069Y-106512307D01*
X120771243Y-106465000D01*
X120528757Y-106465000D01*
X120290931Y-106512307D01*
X120066903Y-106605102D01*
X119865283Y-106739820D01*
X119693820Y-106911283D01*
X119559102Y-107112903D01*
X119466307Y-107336931D01*
X119419000Y-107574757D01*
X117188700Y-107574757D01*
X117188700Y-105512941D01*
X117190664Y-105493000D01*
X117187491Y-105460779D01*
X117182825Y-105413410D01*
X117159610Y-105336879D01*
X117121910Y-105266347D01*
X117094000Y-105232339D01*
X117094000Y-105034757D01*
X119419000Y-105034757D01*
X119419000Y-105277243D01*
X119466307Y-105515069D01*
X119559102Y-105739097D01*
X119693820Y-105940717D01*
X119865283Y-106112180D01*
X120066903Y-106246898D01*
X120290931Y-106339693D01*
X120528757Y-106387000D01*
X120771243Y-106387000D01*
X121009069Y-106339693D01*
X121233097Y-106246898D01*
X121434717Y-106112180D01*
X121606180Y-105940717D01*
X121740898Y-105739097D01*
X121762493Y-105686960D01*
X123920088Y-105686960D01*
X123920088Y-105807040D01*
X123943514Y-105924814D01*
X123989467Y-106035754D01*
X124056180Y-106135598D01*
X124141090Y-106220508D01*
X124240934Y-106287221D01*
X124351874Y-106333174D01*
X124469648Y-106356600D01*
X124589728Y-106356600D01*
X124707502Y-106333174D01*
X124818442Y-106287221D01*
X124918286Y-106220508D01*
X124974194Y-106164600D01*
X125030102Y-106220508D01*
X125129946Y-106287221D01*
X125240886Y-106333174D01*
X125358660Y-106356600D01*
X125478740Y-106356600D01*
X125596514Y-106333174D01*
X125707454Y-106287221D01*
X125807298Y-106220508D01*
X125854058Y-106173748D01*
X127497312Y-106173748D01*
X127497312Y-106293828D01*
X127520738Y-106411602D01*
X127566691Y-106522542D01*
X127633404Y-106622386D01*
X127718314Y-106707296D01*
X127818158Y-106774009D01*
X127929098Y-106819962D01*
X128046872Y-106843388D01*
X128146776Y-106843388D01*
X128180479Y-106924754D01*
X128247192Y-107024598D01*
X128332102Y-107109508D01*
X128431946Y-107176221D01*
X128542886Y-107222174D01*
X128660660Y-107245600D01*
X128780740Y-107245600D01*
X128898514Y-107222174D01*
X129009454Y-107176221D01*
X129109298Y-107109508D01*
X129194208Y-107024598D01*
X129260921Y-106924754D01*
X129306874Y-106813814D01*
X129330300Y-106696040D01*
X129330300Y-106575960D01*
X129306874Y-106458186D01*
X129260921Y-106347246D01*
X129194208Y-106247402D01*
X129109298Y-106162492D01*
X129009454Y-106095779D01*
X128898514Y-106049826D01*
X128780740Y-106026400D01*
X128680836Y-106026400D01*
X128647133Y-105945034D01*
X128644411Y-105940960D01*
X129635100Y-105940960D01*
X129635100Y-106061040D01*
X129658526Y-106178814D01*
X129704479Y-106289754D01*
X129771192Y-106389598D01*
X129856102Y-106474508D01*
X129907723Y-106509000D01*
X129856102Y-106543492D01*
X129771192Y-106628402D01*
X129704479Y-106728246D01*
X129658526Y-106839186D01*
X129635100Y-106956960D01*
X129635100Y-107077040D01*
X129658526Y-107194814D01*
X129704479Y-107305754D01*
X129771192Y-107405598D01*
X129856102Y-107490508D01*
X129955946Y-107557221D01*
X130066886Y-107603174D01*
X130184660Y-107626600D01*
X130304740Y-107626600D01*
X130422514Y-107603174D01*
X130533454Y-107557221D01*
X130633298Y-107490508D01*
X130718208Y-107405598D01*
X130784921Y-107305754D01*
X130824186Y-107210960D01*
X132429100Y-107210960D01*
X132429100Y-107331040D01*
X132452526Y-107448814D01*
X132498479Y-107559754D01*
X132565192Y-107659598D01*
X132650102Y-107744508D01*
X132749946Y-107811221D01*
X132860886Y-107857174D01*
X132978660Y-107880600D01*
X133098740Y-107880600D01*
X133216514Y-107857174D01*
X133327454Y-107811221D01*
X133427298Y-107744508D01*
X133512208Y-107659598D01*
X133568896Y-107574757D01*
X134659000Y-107574757D01*
X134659000Y-107817243D01*
X134706307Y-108055069D01*
X134799102Y-108279097D01*
X134933820Y-108480717D01*
X135105283Y-108652180D01*
X135306903Y-108786898D01*
X135530931Y-108879693D01*
X135768757Y-108927000D01*
X136011243Y-108927000D01*
X136249069Y-108879693D01*
X136473097Y-108786898D01*
X136674717Y-108652180D01*
X136846180Y-108480717D01*
X136980898Y-108279097D01*
X137073693Y-108055069D01*
X137121000Y-107817243D01*
X137121000Y-107574757D01*
X137073693Y-107336931D01*
X136980898Y-107112903D01*
X136846180Y-106911283D01*
X136674717Y-106739820D01*
X136473097Y-106605102D01*
X136249069Y-106512307D01*
X136011243Y-106465000D01*
X135768757Y-106465000D01*
X135530931Y-106512307D01*
X135306903Y-106605102D01*
X135105283Y-106739820D01*
X134933820Y-106911283D01*
X134799102Y-107112903D01*
X134706307Y-107336931D01*
X134659000Y-107574757D01*
X133568896Y-107574757D01*
X133578921Y-107559754D01*
X133624874Y-107448814D01*
X133648300Y-107331040D01*
X133648300Y-107210960D01*
X133624874Y-107093186D01*
X133578921Y-106982246D01*
X133512208Y-106882402D01*
X133427298Y-106797492D01*
X133327454Y-106730779D01*
X133216514Y-106684826D01*
X133098740Y-106661400D01*
X132978660Y-106661400D01*
X132860886Y-106684826D01*
X132749946Y-106730779D01*
X132650102Y-106797492D01*
X132565192Y-106882402D01*
X132498479Y-106982246D01*
X132452526Y-107093186D01*
X132429100Y-107210960D01*
X130824186Y-107210960D01*
X130830874Y-107194814D01*
X130854300Y-107077040D01*
X130854300Y-106956960D01*
X130830874Y-106839186D01*
X130784921Y-106728246D01*
X130718208Y-106628402D01*
X130633298Y-106543492D01*
X130581677Y-106509000D01*
X130633298Y-106474508D01*
X130718208Y-106389598D01*
X130784921Y-106289754D01*
X130830874Y-106178814D01*
X130854300Y-106061040D01*
X130854300Y-105940960D01*
X130830874Y-105823186D01*
X130784921Y-105712246D01*
X130718208Y-105612402D01*
X130633298Y-105527492D01*
X130533454Y-105460779D01*
X130422514Y-105414826D01*
X130304740Y-105391400D01*
X130184660Y-105391400D01*
X130066886Y-105414826D01*
X129955946Y-105460779D01*
X129856102Y-105527492D01*
X129771192Y-105612402D01*
X129704479Y-105712246D01*
X129658526Y-105823186D01*
X129635100Y-105940960D01*
X128644411Y-105940960D01*
X128580420Y-105845190D01*
X128495510Y-105760280D01*
X128395666Y-105693567D01*
X128284726Y-105647614D01*
X128166952Y-105624188D01*
X128046872Y-105624188D01*
X127929098Y-105647614D01*
X127818158Y-105693567D01*
X127718314Y-105760280D01*
X127633404Y-105845190D01*
X127566691Y-105945034D01*
X127520738Y-106055974D01*
X127497312Y-106173748D01*
X125854058Y-106173748D01*
X125892208Y-106135598D01*
X125958921Y-106035754D01*
X126004874Y-105924814D01*
X126028300Y-105807040D01*
X126028300Y-105686960D01*
X126004874Y-105569186D01*
X125958921Y-105458246D01*
X125892208Y-105358402D01*
X125807298Y-105273492D01*
X125707454Y-105206779D01*
X125596514Y-105160826D01*
X125478740Y-105137400D01*
X125358660Y-105137400D01*
X125240886Y-105160826D01*
X125129946Y-105206779D01*
X125030102Y-105273492D01*
X124974194Y-105329400D01*
X124918286Y-105273492D01*
X124818442Y-105206779D01*
X124707502Y-105160826D01*
X124589728Y-105137400D01*
X124469648Y-105137400D01*
X124351874Y-105160826D01*
X124240934Y-105206779D01*
X124141090Y-105273492D01*
X124056180Y-105358402D01*
X123989467Y-105458246D01*
X123943514Y-105569186D01*
X123920088Y-105686960D01*
X121762493Y-105686960D01*
X121833693Y-105515069D01*
X121881000Y-105277243D01*
X121881000Y-105034757D01*
X121833693Y-104796931D01*
X121740898Y-104572903D01*
X121721559Y-104543960D01*
X123158100Y-104543960D01*
X123158100Y-104664040D01*
X123181526Y-104781814D01*
X123227479Y-104892754D01*
X123294192Y-104992598D01*
X123379102Y-105077508D01*
X123478946Y-105144221D01*
X123589886Y-105190174D01*
X123707660Y-105213600D01*
X123827740Y-105213600D01*
X123945514Y-105190174D01*
X124056454Y-105144221D01*
X124156298Y-105077508D01*
X124199049Y-105034757D01*
X134659000Y-105034757D01*
X134659000Y-105277243D01*
X134706307Y-105515069D01*
X134799102Y-105739097D01*
X134933820Y-105940717D01*
X135105283Y-106112180D01*
X135306903Y-106246898D01*
X135530931Y-106339693D01*
X135768757Y-106387000D01*
X136011243Y-106387000D01*
X136249069Y-106339693D01*
X136473097Y-106246898D01*
X136674717Y-106112180D01*
X136846180Y-105940717D01*
X136980898Y-105739097D01*
X137073693Y-105515069D01*
X137121000Y-105277243D01*
X137121000Y-105034757D01*
X137073693Y-104796931D01*
X136980898Y-104572903D01*
X136846180Y-104371283D01*
X136674717Y-104199820D01*
X136473097Y-104065102D01*
X136249069Y-103972307D01*
X136011243Y-103925000D01*
X135768757Y-103925000D01*
X135530931Y-103972307D01*
X135306903Y-104065102D01*
X135105283Y-104199820D01*
X134933820Y-104371283D01*
X134799102Y-104572903D01*
X134706307Y-104796931D01*
X134659000Y-105034757D01*
X124199049Y-105034757D01*
X124241208Y-104992598D01*
X124307921Y-104892754D01*
X124353874Y-104781814D01*
X124377300Y-104664040D01*
X124377300Y-104543960D01*
X124353874Y-104426186D01*
X124307921Y-104315246D01*
X124241208Y-104215402D01*
X124156298Y-104130492D01*
X124056454Y-104063779D01*
X123945514Y-104017826D01*
X123827740Y-103994400D01*
X123707660Y-103994400D01*
X123589886Y-104017826D01*
X123478946Y-104063779D01*
X123379102Y-104130492D01*
X123294192Y-104215402D01*
X123227479Y-104315246D01*
X123181526Y-104426186D01*
X123158100Y-104543960D01*
X121721559Y-104543960D01*
X121606180Y-104371283D01*
X121434717Y-104199820D01*
X121233097Y-104065102D01*
X121009069Y-103972307D01*
X120771243Y-103925000D01*
X120528757Y-103925000D01*
X120290931Y-103972307D01*
X120066903Y-104065102D01*
X119865283Y-104199820D01*
X119693820Y-104371283D01*
X119559102Y-104572903D01*
X119466307Y-104796931D01*
X119419000Y-105034757D01*
X117094000Y-105034757D01*
X117094000Y-102494757D01*
X119419000Y-102494757D01*
X119419000Y-102737243D01*
X119466307Y-102975069D01*
X119559102Y-103199097D01*
X119693820Y-103400717D01*
X119865283Y-103572180D01*
X120066903Y-103706898D01*
X120290931Y-103799693D01*
X120528757Y-103847000D01*
X120771243Y-103847000D01*
X121009069Y-103799693D01*
X121233097Y-103706898D01*
X121434717Y-103572180D01*
X121606180Y-103400717D01*
X121740898Y-103199097D01*
X121833693Y-102975069D01*
X121881000Y-102737243D01*
X121881000Y-102494757D01*
X121833693Y-102256931D01*
X121740898Y-102032903D01*
X121606180Y-101831283D01*
X121434717Y-101659820D01*
X121233097Y-101525102D01*
X121009069Y-101432307D01*
X120771243Y-101385000D01*
X120528757Y-101385000D01*
X120290931Y-101432307D01*
X120066903Y-101525102D01*
X119865283Y-101659820D01*
X119693820Y-101831283D01*
X119559102Y-102032903D01*
X119466307Y-102256931D01*
X119419000Y-102494757D01*
X117094000Y-102494757D01*
X117094000Y-101368960D01*
X122523100Y-101368960D01*
X122523100Y-101489040D01*
X122546526Y-101606814D01*
X122592479Y-101717754D01*
X122659192Y-101817598D01*
X122744102Y-101902508D01*
X122843946Y-101969221D01*
X122954886Y-102015174D01*
X123031100Y-102030333D01*
X123031100Y-102124040D01*
X123054526Y-102241814D01*
X123100479Y-102352754D01*
X123167192Y-102452598D01*
X123252102Y-102537508D01*
X123351946Y-102604221D01*
X123462886Y-102650174D01*
X123580660Y-102673600D01*
X123700740Y-102673600D01*
X123818514Y-102650174D01*
X123929454Y-102604221D01*
X124029298Y-102537508D01*
X124114208Y-102452598D01*
X124180921Y-102352754D01*
X124226874Y-102241814D01*
X124250300Y-102124040D01*
X124250300Y-102003960D01*
X124226874Y-101886186D01*
X124225327Y-101882450D01*
X128757660Y-101882450D01*
X128757660Y-102002530D01*
X128781086Y-102120304D01*
X128827039Y-102231244D01*
X128893752Y-102331088D01*
X128978662Y-102415998D01*
X129078506Y-102482711D01*
X129189446Y-102528664D01*
X129307220Y-102552090D01*
X129427300Y-102552090D01*
X129545074Y-102528664D01*
X129626932Y-102494757D01*
X134659000Y-102494757D01*
X134659000Y-102737243D01*
X134706307Y-102975069D01*
X134799102Y-103199097D01*
X134933820Y-103400717D01*
X135105283Y-103572180D01*
X135306903Y-103706898D01*
X135530931Y-103799693D01*
X135768757Y-103847000D01*
X136011243Y-103847000D01*
X136249069Y-103799693D01*
X136473097Y-103706898D01*
X136674717Y-103572180D01*
X136846180Y-103400717D01*
X136980898Y-103199097D01*
X137073693Y-102975069D01*
X137121000Y-102737243D01*
X137121000Y-102494757D01*
X137073693Y-102256931D01*
X136980898Y-102032903D01*
X136846180Y-101831283D01*
X136674717Y-101659820D01*
X136473097Y-101525102D01*
X136249069Y-101432307D01*
X136011243Y-101385000D01*
X135768757Y-101385000D01*
X135530931Y-101432307D01*
X135306903Y-101525102D01*
X135105283Y-101659820D01*
X134933820Y-101831283D01*
X134799102Y-102032903D01*
X134706307Y-102256931D01*
X134659000Y-102494757D01*
X129626932Y-102494757D01*
X129656014Y-102482711D01*
X129755858Y-102415998D01*
X129840768Y-102331088D01*
X129907481Y-102231244D01*
X129953434Y-102120304D01*
X129976860Y-102002530D01*
X129976860Y-101882450D01*
X129953434Y-101764676D01*
X129907481Y-101653736D01*
X129840768Y-101553892D01*
X129755858Y-101468982D01*
X129656014Y-101402269D01*
X129545074Y-101356316D01*
X129427300Y-101332890D01*
X129307220Y-101332890D01*
X129189446Y-101356316D01*
X129078506Y-101402269D01*
X128978662Y-101468982D01*
X128893752Y-101553892D01*
X128827039Y-101653736D01*
X128781086Y-101764676D01*
X128757660Y-101882450D01*
X124225327Y-101882450D01*
X124180921Y-101775246D01*
X124114208Y-101675402D01*
X124029298Y-101590492D01*
X123929454Y-101523779D01*
X123853940Y-101492500D01*
X123929454Y-101461221D01*
X124029298Y-101394508D01*
X124114208Y-101309598D01*
X124180921Y-101209754D01*
X124226874Y-101098814D01*
X124250300Y-100981040D01*
X124250300Y-100860960D01*
X124226874Y-100743186D01*
X124180921Y-100632246D01*
X124114208Y-100532402D01*
X124029298Y-100447492D01*
X123929454Y-100380779D01*
X123818514Y-100334826D01*
X123700740Y-100311400D01*
X123580660Y-100311400D01*
X123462886Y-100334826D01*
X123351946Y-100380779D01*
X123252102Y-100447492D01*
X123167192Y-100532402D01*
X123100479Y-100632246D01*
X123054526Y-100743186D01*
X123037995Y-100826295D01*
X122954886Y-100842826D01*
X122843946Y-100888779D01*
X122744102Y-100955492D01*
X122659192Y-101040402D01*
X122592479Y-101140246D01*
X122546526Y-101251186D01*
X122523100Y-101368960D01*
X117094000Y-101368960D01*
X117094000Y-99226000D01*
X119417157Y-99226000D01*
X119417157Y-100926000D01*
X119424513Y-101000689D01*
X119446299Y-101072508D01*
X119481678Y-101138696D01*
X119529289Y-101196711D01*
X119587304Y-101244322D01*
X119653492Y-101279701D01*
X119725311Y-101301487D01*
X119800000Y-101308843D01*
X121500000Y-101308843D01*
X121574689Y-101301487D01*
X121646508Y-101279701D01*
X121712696Y-101244322D01*
X121770711Y-101196711D01*
X121818322Y-101138696D01*
X121853701Y-101072508D01*
X121875487Y-101000689D01*
X121882843Y-100926000D01*
X121882843Y-99844960D01*
X132302100Y-99844960D01*
X132302100Y-99965040D01*
X132325526Y-100082814D01*
X132371479Y-100193754D01*
X132438192Y-100293598D01*
X132523102Y-100378508D01*
X132622946Y-100445221D01*
X132733886Y-100491174D01*
X132851660Y-100514600D01*
X132971740Y-100514600D01*
X133089514Y-100491174D01*
X133200454Y-100445221D01*
X133300298Y-100378508D01*
X133385208Y-100293598D01*
X133451921Y-100193754D01*
X133497874Y-100082814D01*
X133521300Y-99965040D01*
X133521300Y-99954757D01*
X134659000Y-99954757D01*
X134659000Y-100197243D01*
X134706307Y-100435069D01*
X134799102Y-100659097D01*
X134933820Y-100860717D01*
X135105283Y-101032180D01*
X135306903Y-101166898D01*
X135530931Y-101259693D01*
X135768757Y-101307000D01*
X136011243Y-101307000D01*
X136249069Y-101259693D01*
X136473097Y-101166898D01*
X136674717Y-101032180D01*
X136846180Y-100860717D01*
X136980898Y-100659097D01*
X137073693Y-100435069D01*
X137121000Y-100197243D01*
X137121000Y-99954757D01*
X137073693Y-99716931D01*
X136980898Y-99492903D01*
X136846180Y-99291283D01*
X136674717Y-99119820D01*
X136473097Y-98985102D01*
X136249069Y-98892307D01*
X136011243Y-98845000D01*
X135768757Y-98845000D01*
X135530931Y-98892307D01*
X135306903Y-98985102D01*
X135105283Y-99119820D01*
X134933820Y-99291283D01*
X134799102Y-99492903D01*
X134706307Y-99716931D01*
X134659000Y-99954757D01*
X133521300Y-99954757D01*
X133521300Y-99844960D01*
X133497874Y-99727186D01*
X133451921Y-99616246D01*
X133385208Y-99516402D01*
X133300298Y-99431492D01*
X133200454Y-99364779D01*
X133089514Y-99318826D01*
X132971740Y-99295400D01*
X132851660Y-99295400D01*
X132733886Y-99318826D01*
X132622946Y-99364779D01*
X132523102Y-99431492D01*
X132438192Y-99516402D01*
X132371479Y-99616246D01*
X132325526Y-99727186D01*
X132302100Y-99844960D01*
X121882843Y-99844960D01*
X121882843Y-99226000D01*
X121875487Y-99151311D01*
X121853701Y-99079492D01*
X121818322Y-99013304D01*
X121770711Y-98955289D01*
X121712696Y-98907678D01*
X121646508Y-98872299D01*
X121574689Y-98850513D01*
X121500000Y-98843157D01*
X119800000Y-98843157D01*
X119725311Y-98850513D01*
X119653492Y-98872299D01*
X119587304Y-98907678D01*
X119529289Y-98955289D01*
X119481678Y-99013304D01*
X119446299Y-99079492D01*
X119424513Y-99151311D01*
X119417157Y-99226000D01*
X117094000Y-99226000D01*
X117094000Y-97625661D01*
X117121910Y-97591653D01*
X117159610Y-97521121D01*
X117182825Y-97444590D01*
X117185763Y-97414757D01*
X119419000Y-97414757D01*
X119419000Y-97657243D01*
X119466307Y-97895069D01*
X119559102Y-98119097D01*
X119693820Y-98320717D01*
X119865283Y-98492180D01*
X120066903Y-98626898D01*
X120290931Y-98719693D01*
X120528757Y-98767000D01*
X120771243Y-98767000D01*
X121009069Y-98719693D01*
X121233097Y-98626898D01*
X121434717Y-98492180D01*
X121606180Y-98320717D01*
X121740898Y-98119097D01*
X121833693Y-97895069D01*
X121881000Y-97657243D01*
X121881000Y-97414757D01*
X121833898Y-97177960D01*
X124047100Y-97177960D01*
X124047100Y-97298040D01*
X124070526Y-97415814D01*
X124116479Y-97526754D01*
X124183192Y-97626598D01*
X124268102Y-97711508D01*
X124367946Y-97778221D01*
X124478886Y-97824174D01*
X124596660Y-97847600D01*
X124716740Y-97847600D01*
X124834514Y-97824174D01*
X124945454Y-97778221D01*
X125045298Y-97711508D01*
X125130208Y-97626598D01*
X125196921Y-97526754D01*
X125242874Y-97415814D01*
X125243084Y-97414757D01*
X134659000Y-97414757D01*
X134659000Y-97657243D01*
X134706307Y-97895069D01*
X134799102Y-98119097D01*
X134933820Y-98320717D01*
X135105283Y-98492180D01*
X135306903Y-98626898D01*
X135530931Y-98719693D01*
X135768757Y-98767000D01*
X136011243Y-98767000D01*
X136249069Y-98719693D01*
X136473097Y-98626898D01*
X136674717Y-98492180D01*
X136846180Y-98320717D01*
X136980898Y-98119097D01*
X137073693Y-97895069D01*
X137121000Y-97657243D01*
X137121000Y-97414757D01*
X137073693Y-97176931D01*
X136980898Y-96952903D01*
X136846180Y-96751283D01*
X136674717Y-96579820D01*
X136473097Y-96445102D01*
X136249069Y-96352307D01*
X136011243Y-96305000D01*
X135768757Y-96305000D01*
X135530931Y-96352307D01*
X135306903Y-96445102D01*
X135105283Y-96579820D01*
X134933820Y-96751283D01*
X134799102Y-96952903D01*
X134706307Y-97176931D01*
X134659000Y-97414757D01*
X125243084Y-97414757D01*
X125266300Y-97298040D01*
X125266300Y-97177960D01*
X125242874Y-97060186D01*
X125196921Y-96949246D01*
X125130208Y-96849402D01*
X125045298Y-96764492D01*
X124945454Y-96697779D01*
X124834514Y-96651826D01*
X124716740Y-96628400D01*
X124596660Y-96628400D01*
X124478886Y-96651826D01*
X124367946Y-96697779D01*
X124268102Y-96764492D01*
X124183192Y-96849402D01*
X124116479Y-96949246D01*
X124070526Y-97060186D01*
X124047100Y-97177960D01*
X121833898Y-97177960D01*
X121833693Y-97176931D01*
X121740898Y-96952903D01*
X121606180Y-96751283D01*
X121434717Y-96579820D01*
X121233097Y-96445102D01*
X121009069Y-96352307D01*
X120771243Y-96305000D01*
X120528757Y-96305000D01*
X120290931Y-96352307D01*
X120066903Y-96445102D01*
X119865283Y-96579820D01*
X119693820Y-96751283D01*
X119559102Y-96952903D01*
X119466307Y-97176931D01*
X119419000Y-97414757D01*
X117185763Y-97414757D01*
X117188700Y-97384941D01*
X117188700Y-97384940D01*
X117190664Y-97365000D01*
X117188700Y-97345059D01*
X117188700Y-94874757D01*
X119419000Y-94874757D01*
X119419000Y-95117243D01*
X119466307Y-95355069D01*
X119559102Y-95579097D01*
X119693820Y-95780717D01*
X119865283Y-95952180D01*
X120066903Y-96086898D01*
X120290931Y-96179693D01*
X120528757Y-96227000D01*
X120771243Y-96227000D01*
X121009069Y-96179693D01*
X121233097Y-96086898D01*
X121310827Y-96034960D01*
X126333100Y-96034960D01*
X126333100Y-96155040D01*
X126356526Y-96272814D01*
X126402479Y-96383754D01*
X126469192Y-96483598D01*
X126554102Y-96568508D01*
X126653946Y-96635221D01*
X126764886Y-96681174D01*
X126882660Y-96704600D01*
X127002740Y-96704600D01*
X127120514Y-96681174D01*
X127231454Y-96635221D01*
X127331298Y-96568508D01*
X127416208Y-96483598D01*
X127482921Y-96383754D01*
X127528874Y-96272814D01*
X127552300Y-96155040D01*
X127552300Y-96034960D01*
X127528874Y-95917186D01*
X127482921Y-95806246D01*
X127416208Y-95706402D01*
X127331298Y-95621492D01*
X127231454Y-95554779D01*
X127120514Y-95508826D01*
X127002740Y-95485400D01*
X126882660Y-95485400D01*
X126764886Y-95508826D01*
X126653946Y-95554779D01*
X126554102Y-95621492D01*
X126469192Y-95706402D01*
X126402479Y-95806246D01*
X126356526Y-95917186D01*
X126333100Y-96034960D01*
X121310827Y-96034960D01*
X121434717Y-95952180D01*
X121606180Y-95780717D01*
X121740898Y-95579097D01*
X121833693Y-95355069D01*
X121881000Y-95117243D01*
X121881000Y-94874757D01*
X134659000Y-94874757D01*
X134659000Y-95117243D01*
X134706307Y-95355069D01*
X134799102Y-95579097D01*
X134933820Y-95780717D01*
X135105283Y-95952180D01*
X135306903Y-96086898D01*
X135530931Y-96179693D01*
X135768757Y-96227000D01*
X136011243Y-96227000D01*
X136249069Y-96179693D01*
X136473097Y-96086898D01*
X136674717Y-95952180D01*
X136846180Y-95780717D01*
X136980898Y-95579097D01*
X137073693Y-95355069D01*
X137121000Y-95117243D01*
X137121000Y-94874757D01*
X137073693Y-94636931D01*
X136980898Y-94412903D01*
X136846180Y-94211283D01*
X136674717Y-94039820D01*
X136473097Y-93905102D01*
X136249069Y-93812307D01*
X136011243Y-93765000D01*
X135768757Y-93765000D01*
X135530931Y-93812307D01*
X135306903Y-93905102D01*
X135105283Y-94039820D01*
X134933820Y-94211283D01*
X134799102Y-94412903D01*
X134706307Y-94636931D01*
X134659000Y-94874757D01*
X121881000Y-94874757D01*
X121833693Y-94636931D01*
X121740898Y-94412903D01*
X121606180Y-94211283D01*
X121434717Y-94039820D01*
X121233097Y-93905102D01*
X121009069Y-93812307D01*
X120771243Y-93765000D01*
X120528757Y-93765000D01*
X120290931Y-93812307D01*
X120066903Y-93905102D01*
X119865283Y-94039820D01*
X119693820Y-94211283D01*
X119559102Y-94412903D01*
X119466307Y-94636931D01*
X119419000Y-94874757D01*
X117188700Y-94874757D01*
X117188700Y-92334757D01*
X119419000Y-92334757D01*
X119419000Y-92577243D01*
X119466307Y-92815069D01*
X119559102Y-93039097D01*
X119693820Y-93240717D01*
X119865283Y-93412180D01*
X120066903Y-93546898D01*
X120290931Y-93639693D01*
X120528757Y-93687000D01*
X120771243Y-93687000D01*
X121009069Y-93639693D01*
X121233097Y-93546898D01*
X121434717Y-93412180D01*
X121606180Y-93240717D01*
X121740898Y-93039097D01*
X121833693Y-92815069D01*
X121850025Y-92732960D01*
X129635100Y-92732960D01*
X129635100Y-92853040D01*
X129658526Y-92970814D01*
X129704479Y-93081754D01*
X129771192Y-93181598D01*
X129856102Y-93266508D01*
X129955946Y-93333221D01*
X130066886Y-93379174D01*
X130184660Y-93402600D01*
X130304740Y-93402600D01*
X130422514Y-93379174D01*
X130533454Y-93333221D01*
X130633298Y-93266508D01*
X130718208Y-93181598D01*
X130784921Y-93081754D01*
X130830874Y-92970814D01*
X130854300Y-92853040D01*
X130854300Y-92732960D01*
X130830874Y-92615186D01*
X130784921Y-92504246D01*
X130718208Y-92404402D01*
X130648563Y-92334757D01*
X134659000Y-92334757D01*
X134659000Y-92577243D01*
X134706307Y-92815069D01*
X134799102Y-93039097D01*
X134933820Y-93240717D01*
X135105283Y-93412180D01*
X135306903Y-93546898D01*
X135530931Y-93639693D01*
X135768757Y-93687000D01*
X136011243Y-93687000D01*
X136249069Y-93639693D01*
X136473097Y-93546898D01*
X136674717Y-93412180D01*
X136846180Y-93240717D01*
X136980898Y-93039097D01*
X137073693Y-92815069D01*
X137121000Y-92577243D01*
X137121000Y-92334757D01*
X137073693Y-92096931D01*
X136980898Y-91872903D01*
X136846180Y-91671283D01*
X136674717Y-91499820D01*
X136473097Y-91365102D01*
X136249069Y-91272307D01*
X136011243Y-91225000D01*
X135768757Y-91225000D01*
X135530931Y-91272307D01*
X135306903Y-91365102D01*
X135105283Y-91499820D01*
X134933820Y-91671283D01*
X134799102Y-91872903D01*
X134706307Y-92096931D01*
X134659000Y-92334757D01*
X130648563Y-92334757D01*
X130633298Y-92319492D01*
X130533454Y-92252779D01*
X130422514Y-92206826D01*
X130304740Y-92183400D01*
X130184660Y-92183400D01*
X130066886Y-92206826D01*
X129955946Y-92252779D01*
X129856102Y-92319492D01*
X129771192Y-92404402D01*
X129704479Y-92504246D01*
X129658526Y-92615186D01*
X129635100Y-92732960D01*
X121850025Y-92732960D01*
X121881000Y-92577243D01*
X121881000Y-92334757D01*
X121833693Y-92096931D01*
X121740898Y-91872903D01*
X121606180Y-91671283D01*
X121434717Y-91499820D01*
X121233097Y-91365102D01*
X121009069Y-91272307D01*
X120771243Y-91225000D01*
X120528757Y-91225000D01*
X120290931Y-91272307D01*
X120066903Y-91365102D01*
X119865283Y-91499820D01*
X119693820Y-91671283D01*
X119559102Y-91872903D01*
X119466307Y-92096931D01*
X119419000Y-92334757D01*
X117188700Y-92334757D01*
X117188700Y-91208960D01*
X123793100Y-91208960D01*
X123793100Y-91329040D01*
X123816526Y-91446814D01*
X123862479Y-91557754D01*
X123929192Y-91657598D01*
X124014102Y-91742508D01*
X124113946Y-91809221D01*
X124224886Y-91855174D01*
X124342660Y-91878600D01*
X124462740Y-91878600D01*
X124580514Y-91855174D01*
X124691454Y-91809221D01*
X124791298Y-91742508D01*
X124876208Y-91657598D01*
X124942921Y-91557754D01*
X124988874Y-91446814D01*
X125012300Y-91329040D01*
X125012300Y-91208960D01*
X124988874Y-91091186D01*
X124942921Y-90980246D01*
X124876208Y-90880402D01*
X124791298Y-90795492D01*
X124691454Y-90728779D01*
X124580514Y-90682826D01*
X124462740Y-90659400D01*
X124342660Y-90659400D01*
X124224886Y-90682826D01*
X124113946Y-90728779D01*
X124014102Y-90795492D01*
X123929192Y-90880402D01*
X123862479Y-90980246D01*
X123816526Y-91091186D01*
X123793100Y-91208960D01*
X117188700Y-91208960D01*
X117188700Y-89794757D01*
X119419000Y-89794757D01*
X119419000Y-90037243D01*
X119466307Y-90275069D01*
X119559102Y-90499097D01*
X119693820Y-90700717D01*
X119865283Y-90872180D01*
X120066903Y-91006898D01*
X120290931Y-91099693D01*
X120528757Y-91147000D01*
X120771243Y-91147000D01*
X121009069Y-91099693D01*
X121233097Y-91006898D01*
X121434717Y-90872180D01*
X121606180Y-90700717D01*
X121740898Y-90499097D01*
X121833693Y-90275069D01*
X121881000Y-90037243D01*
X121881000Y-89794757D01*
X134659000Y-89794757D01*
X134659000Y-90037243D01*
X134706307Y-90275069D01*
X134799102Y-90499097D01*
X134933820Y-90700717D01*
X135105283Y-90872180D01*
X135306903Y-91006898D01*
X135530931Y-91099693D01*
X135768757Y-91147000D01*
X136011243Y-91147000D01*
X136249069Y-91099693D01*
X136473097Y-91006898D01*
X136674717Y-90872180D01*
X136846180Y-90700717D01*
X136980898Y-90499097D01*
X137073693Y-90275069D01*
X137121000Y-90037243D01*
X137121000Y-89794757D01*
X137073693Y-89556931D01*
X136980898Y-89332903D01*
X136846180Y-89131283D01*
X136674717Y-88959820D01*
X136473097Y-88825102D01*
X136249069Y-88732307D01*
X136011243Y-88685000D01*
X135768757Y-88685000D01*
X135530931Y-88732307D01*
X135306903Y-88825102D01*
X135105283Y-88959820D01*
X134933820Y-89131283D01*
X134799102Y-89332903D01*
X134706307Y-89556931D01*
X134659000Y-89794757D01*
X121881000Y-89794757D01*
X121833693Y-89556931D01*
X121740898Y-89332903D01*
X121606180Y-89131283D01*
X121434717Y-88959820D01*
X121233097Y-88825102D01*
X121009069Y-88732307D01*
X120771243Y-88685000D01*
X120528757Y-88685000D01*
X120290931Y-88732307D01*
X120066903Y-88825102D01*
X119865283Y-88959820D01*
X119693820Y-89131283D01*
X119559102Y-89332903D01*
X119466307Y-89556931D01*
X119419000Y-89794757D01*
X117188700Y-89794757D01*
X117188700Y-88668960D01*
X122777100Y-88668960D01*
X122777100Y-88789040D01*
X122800526Y-88906814D01*
X122846479Y-89017754D01*
X122913192Y-89117598D01*
X122998102Y-89202508D01*
X123097946Y-89269221D01*
X123208886Y-89315174D01*
X123326660Y-89338600D01*
X123446740Y-89338600D01*
X123564514Y-89315174D01*
X123675454Y-89269221D01*
X123775298Y-89202508D01*
X123860208Y-89117598D01*
X123926921Y-89017754D01*
X123972874Y-88906814D01*
X123996300Y-88789040D01*
X123996300Y-88668960D01*
X123972874Y-88551186D01*
X123926921Y-88440246D01*
X123860208Y-88340402D01*
X123775298Y-88255492D01*
X123675454Y-88188779D01*
X123564514Y-88142826D01*
X123446740Y-88119400D01*
X123326660Y-88119400D01*
X123208886Y-88142826D01*
X123097946Y-88188779D01*
X122998102Y-88255492D01*
X122913192Y-88340402D01*
X122846479Y-88440246D01*
X122800526Y-88551186D01*
X122777100Y-88668960D01*
X117188700Y-88668960D01*
X117188700Y-86526000D01*
X119417157Y-86526000D01*
X119417157Y-88226000D01*
X119424513Y-88300689D01*
X119446299Y-88372508D01*
X119481678Y-88438696D01*
X119529289Y-88496711D01*
X119587304Y-88544322D01*
X119653492Y-88579701D01*
X119725311Y-88601487D01*
X119800000Y-88608843D01*
X121500000Y-88608843D01*
X121574689Y-88601487D01*
X121646508Y-88579701D01*
X121712696Y-88544322D01*
X121770711Y-88496711D01*
X121818322Y-88438696D01*
X121853701Y-88372508D01*
X121875487Y-88300689D01*
X121882843Y-88226000D01*
X121882843Y-87254757D01*
X134659000Y-87254757D01*
X134659000Y-87497243D01*
X134706307Y-87735069D01*
X134799102Y-87959097D01*
X134933820Y-88160717D01*
X135105283Y-88332180D01*
X135306903Y-88466898D01*
X135530931Y-88559693D01*
X135768757Y-88607000D01*
X136011243Y-88607000D01*
X136249069Y-88559693D01*
X136473097Y-88466898D01*
X136674717Y-88332180D01*
X136846180Y-88160717D01*
X136980898Y-87959097D01*
X137073693Y-87735069D01*
X137121000Y-87497243D01*
X137121000Y-87254757D01*
X137073693Y-87016931D01*
X136980898Y-86792903D01*
X136846180Y-86591283D01*
X136674717Y-86419820D01*
X136473097Y-86285102D01*
X136249069Y-86192307D01*
X136011243Y-86145000D01*
X135768757Y-86145000D01*
X135530931Y-86192307D01*
X135306903Y-86285102D01*
X135105283Y-86419820D01*
X134933820Y-86591283D01*
X134799102Y-86792903D01*
X134706307Y-87016931D01*
X134659000Y-87254757D01*
X121882843Y-87254757D01*
X121882843Y-86526000D01*
X121875487Y-86451311D01*
X121853701Y-86379492D01*
X121818322Y-86313304D01*
X121770711Y-86255289D01*
X121712696Y-86207678D01*
X121646508Y-86172299D01*
X121574689Y-86150513D01*
X121500000Y-86143157D01*
X119800000Y-86143157D01*
X119725311Y-86150513D01*
X119653492Y-86172299D01*
X119587304Y-86207678D01*
X119529289Y-86255289D01*
X119481678Y-86313304D01*
X119446299Y-86379492D01*
X119424513Y-86451311D01*
X119417157Y-86526000D01*
X117188700Y-86526000D01*
X117188700Y-84714757D01*
X119419000Y-84714757D01*
X119419000Y-84957243D01*
X119466307Y-85195069D01*
X119559102Y-85419097D01*
X119693820Y-85620717D01*
X119865283Y-85792180D01*
X120066903Y-85926898D01*
X120290931Y-86019693D01*
X120528757Y-86067000D01*
X120771243Y-86067000D01*
X121009069Y-86019693D01*
X121233097Y-85926898D01*
X121434717Y-85792180D01*
X121606180Y-85620717D01*
X121740898Y-85419097D01*
X121833693Y-85195069D01*
X121850025Y-85112960D01*
X130651100Y-85112960D01*
X130651100Y-85233040D01*
X130674526Y-85350814D01*
X130720479Y-85461754D01*
X130787192Y-85561598D01*
X130872102Y-85646508D01*
X130971946Y-85713221D01*
X131082886Y-85759174D01*
X131200660Y-85782600D01*
X131320740Y-85782600D01*
X131438514Y-85759174D01*
X131549454Y-85713221D01*
X131649298Y-85646508D01*
X131734208Y-85561598D01*
X131800921Y-85461754D01*
X131840186Y-85366960D01*
X132429100Y-85366960D01*
X132429100Y-85487040D01*
X132452526Y-85604814D01*
X132498479Y-85715754D01*
X132565192Y-85815598D01*
X132650102Y-85900508D01*
X132749946Y-85967221D01*
X132860886Y-86013174D01*
X132978660Y-86036600D01*
X133098740Y-86036600D01*
X133216514Y-86013174D01*
X133327454Y-85967221D01*
X133427298Y-85900508D01*
X133512208Y-85815598D01*
X133578921Y-85715754D01*
X133624874Y-85604814D01*
X133648300Y-85487040D01*
X133648300Y-85366960D01*
X133624874Y-85249186D01*
X133578921Y-85138246D01*
X133512208Y-85038402D01*
X133427298Y-84953492D01*
X133327454Y-84886779D01*
X133216514Y-84840826D01*
X133098740Y-84817400D01*
X132978660Y-84817400D01*
X132860886Y-84840826D01*
X132749946Y-84886779D01*
X132650102Y-84953492D01*
X132565192Y-85038402D01*
X132498479Y-85138246D01*
X132452526Y-85249186D01*
X132429100Y-85366960D01*
X131840186Y-85366960D01*
X131846874Y-85350814D01*
X131870300Y-85233040D01*
X131870300Y-85112960D01*
X131846874Y-84995186D01*
X131800921Y-84884246D01*
X131734208Y-84784402D01*
X131664563Y-84714757D01*
X134659000Y-84714757D01*
X134659000Y-84957243D01*
X134706307Y-85195069D01*
X134799102Y-85419097D01*
X134933820Y-85620717D01*
X135105283Y-85792180D01*
X135306903Y-85926898D01*
X135530931Y-86019693D01*
X135768757Y-86067000D01*
X136011243Y-86067000D01*
X136249069Y-86019693D01*
X136473097Y-85926898D01*
X136674717Y-85792180D01*
X136846180Y-85620717D01*
X136980898Y-85419097D01*
X137073693Y-85195069D01*
X137121000Y-84957243D01*
X137121000Y-84714757D01*
X137073693Y-84476931D01*
X136980898Y-84252903D01*
X136846180Y-84051283D01*
X136674717Y-83879820D01*
X136473097Y-83745102D01*
X136249069Y-83652307D01*
X136011243Y-83605000D01*
X135768757Y-83605000D01*
X135530931Y-83652307D01*
X135306903Y-83745102D01*
X135105283Y-83879820D01*
X134933820Y-84051283D01*
X134799102Y-84252903D01*
X134706307Y-84476931D01*
X134659000Y-84714757D01*
X131664563Y-84714757D01*
X131649298Y-84699492D01*
X131549454Y-84632779D01*
X131438514Y-84586826D01*
X131320740Y-84563400D01*
X131200660Y-84563400D01*
X131082886Y-84586826D01*
X130971946Y-84632779D01*
X130872102Y-84699492D01*
X130787192Y-84784402D01*
X130720479Y-84884246D01*
X130674526Y-84995186D01*
X130651100Y-85112960D01*
X121850025Y-85112960D01*
X121881000Y-84957243D01*
X121881000Y-84714757D01*
X121833693Y-84476931D01*
X121740898Y-84252903D01*
X121636701Y-84096960D01*
X129635100Y-84096960D01*
X129635100Y-84217040D01*
X129658526Y-84334814D01*
X129704479Y-84445754D01*
X129771192Y-84545598D01*
X129856102Y-84630508D01*
X129955946Y-84697221D01*
X130066886Y-84743174D01*
X130184660Y-84766600D01*
X130304740Y-84766600D01*
X130422514Y-84743174D01*
X130533454Y-84697221D01*
X130633298Y-84630508D01*
X130718208Y-84545598D01*
X130784921Y-84445754D01*
X130830874Y-84334814D01*
X130854300Y-84217040D01*
X130854300Y-84096960D01*
X130830874Y-83979186D01*
X130784921Y-83868246D01*
X130718208Y-83768402D01*
X130633298Y-83683492D01*
X130533454Y-83616779D01*
X130422514Y-83570826D01*
X130304740Y-83547400D01*
X130184660Y-83547400D01*
X130066886Y-83570826D01*
X129955946Y-83616779D01*
X129856102Y-83683492D01*
X129771192Y-83768402D01*
X129704479Y-83868246D01*
X129658526Y-83979186D01*
X129635100Y-84096960D01*
X121636701Y-84096960D01*
X121606180Y-84051283D01*
X121434717Y-83879820D01*
X121233097Y-83745102D01*
X121009069Y-83652307D01*
X120771243Y-83605000D01*
X120528757Y-83605000D01*
X120290931Y-83652307D01*
X120066903Y-83745102D01*
X119865283Y-83879820D01*
X119693820Y-84051283D01*
X119559102Y-84252903D01*
X119466307Y-84476931D01*
X119419000Y-84714757D01*
X117188700Y-84714757D01*
X117188700Y-82174757D01*
X119419000Y-82174757D01*
X119419000Y-82417243D01*
X119466307Y-82655069D01*
X119559102Y-82879097D01*
X119693820Y-83080717D01*
X119865283Y-83252180D01*
X120066903Y-83386898D01*
X120290931Y-83479693D01*
X120528757Y-83527000D01*
X120771243Y-83527000D01*
X121009069Y-83479693D01*
X121233097Y-83386898D01*
X121434717Y-83252180D01*
X121606180Y-83080717D01*
X121740898Y-82879097D01*
X121833693Y-82655069D01*
X121881000Y-82417243D01*
X121881000Y-82174757D01*
X134659000Y-82174757D01*
X134659000Y-82417243D01*
X134706307Y-82655069D01*
X134799102Y-82879097D01*
X134933820Y-83080717D01*
X135105283Y-83252180D01*
X135306903Y-83386898D01*
X135530931Y-83479693D01*
X135768757Y-83527000D01*
X136011243Y-83527000D01*
X136249069Y-83479693D01*
X136473097Y-83386898D01*
X136674717Y-83252180D01*
X136846180Y-83080717D01*
X136980898Y-82879097D01*
X137073693Y-82655069D01*
X137121000Y-82417243D01*
X137121000Y-82174757D01*
X137073693Y-81936931D01*
X136980898Y-81712903D01*
X136846180Y-81511283D01*
X136674717Y-81339820D01*
X136473097Y-81205102D01*
X136249069Y-81112307D01*
X136011243Y-81065000D01*
X135768757Y-81065000D01*
X135530931Y-81112307D01*
X135306903Y-81205102D01*
X135105283Y-81339820D01*
X134933820Y-81511283D01*
X134799102Y-81712903D01*
X134706307Y-81936931D01*
X134659000Y-82174757D01*
X121881000Y-82174757D01*
X121833693Y-81936931D01*
X121740898Y-81712903D01*
X121606180Y-81511283D01*
X121434717Y-81339820D01*
X121233097Y-81205102D01*
X121009069Y-81112307D01*
X120771243Y-81065000D01*
X120528757Y-81065000D01*
X120290931Y-81112307D01*
X120066903Y-81205102D01*
X119865283Y-81339820D01*
X119693820Y-81511283D01*
X119559102Y-81712903D01*
X119466307Y-81936931D01*
X119419000Y-82174757D01*
X117188700Y-82174757D01*
X117188700Y-79634757D01*
X119419000Y-79634757D01*
X119419000Y-79877243D01*
X119466307Y-80115069D01*
X119559102Y-80339097D01*
X119693820Y-80540717D01*
X119865283Y-80712180D01*
X120066903Y-80846898D01*
X120290931Y-80939693D01*
X120528757Y-80987000D01*
X120771243Y-80987000D01*
X121009069Y-80939693D01*
X121233097Y-80846898D01*
X121434717Y-80712180D01*
X121606180Y-80540717D01*
X121740898Y-80339097D01*
X121833693Y-80115069D01*
X121881000Y-79877243D01*
X121881000Y-79634757D01*
X134659000Y-79634757D01*
X134659000Y-79877243D01*
X134706307Y-80115069D01*
X134799102Y-80339097D01*
X134933820Y-80540717D01*
X135105283Y-80712180D01*
X135306903Y-80846898D01*
X135530931Y-80939693D01*
X135768757Y-80987000D01*
X136011243Y-80987000D01*
X136249069Y-80939693D01*
X136473097Y-80846898D01*
X136674717Y-80712180D01*
X136846180Y-80540717D01*
X136980898Y-80339097D01*
X137073693Y-80115069D01*
X137121000Y-79877243D01*
X137121000Y-79634757D01*
X137073693Y-79396931D01*
X136980898Y-79172903D01*
X136846180Y-78971283D01*
X136674717Y-78799820D01*
X136473097Y-78665102D01*
X136249069Y-78572307D01*
X136011243Y-78525000D01*
X135768757Y-78525000D01*
X135530931Y-78572307D01*
X135306903Y-78665102D01*
X135105283Y-78799820D01*
X134933820Y-78971283D01*
X134799102Y-79172903D01*
X134706307Y-79396931D01*
X134659000Y-79634757D01*
X121881000Y-79634757D01*
X121833693Y-79396931D01*
X121740898Y-79172903D01*
X121606180Y-78971283D01*
X121434717Y-78799820D01*
X121233097Y-78665102D01*
X121009069Y-78572307D01*
X120771243Y-78525000D01*
X120528757Y-78525000D01*
X120290931Y-78572307D01*
X120066903Y-78665102D01*
X119865283Y-78799820D01*
X119693820Y-78971283D01*
X119559102Y-79172903D01*
X119466307Y-79396931D01*
X119419000Y-79634757D01*
X117188700Y-79634757D01*
X117188700Y-77094757D01*
X119419000Y-77094757D01*
X119419000Y-77337243D01*
X119466307Y-77575069D01*
X119559102Y-77799097D01*
X119693820Y-78000717D01*
X119865283Y-78172180D01*
X120066903Y-78306898D01*
X120290931Y-78399693D01*
X120528757Y-78447000D01*
X120771243Y-78447000D01*
X121009069Y-78399693D01*
X121233097Y-78306898D01*
X121434717Y-78172180D01*
X121606180Y-78000717D01*
X121740898Y-77799097D01*
X121833693Y-77575069D01*
X121881000Y-77337243D01*
X121881000Y-77094757D01*
X134659000Y-77094757D01*
X134659000Y-77337243D01*
X134706307Y-77575069D01*
X134799102Y-77799097D01*
X134933820Y-78000717D01*
X135105283Y-78172180D01*
X135306903Y-78306898D01*
X135530931Y-78399693D01*
X135768757Y-78447000D01*
X136011243Y-78447000D01*
X136249069Y-78399693D01*
X136473097Y-78306898D01*
X136674717Y-78172180D01*
X136846180Y-78000717D01*
X136980898Y-77799097D01*
X137073693Y-77575069D01*
X137121000Y-77337243D01*
X137121000Y-77094757D01*
X137073693Y-76856931D01*
X136980898Y-76632903D01*
X136846180Y-76431283D01*
X136674717Y-76259820D01*
X136473097Y-76125102D01*
X136249069Y-76032307D01*
X136011243Y-75985000D01*
X135768757Y-75985000D01*
X135530931Y-76032307D01*
X135306903Y-76125102D01*
X135105283Y-76259820D01*
X134933820Y-76431283D01*
X134799102Y-76632903D01*
X134706307Y-76856931D01*
X134659000Y-77094757D01*
X121881000Y-77094757D01*
X121833693Y-76856931D01*
X121740898Y-76632903D01*
X121606180Y-76431283D01*
X121434717Y-76259820D01*
X121233097Y-76125102D01*
X121009069Y-76032307D01*
X120771243Y-75985000D01*
X120528757Y-75985000D01*
X120290931Y-76032307D01*
X120066903Y-76125102D01*
X119865283Y-76259820D01*
X119693820Y-76431283D01*
X119559102Y-76632903D01*
X119466307Y-76856931D01*
X119419000Y-77094757D01*
X117188700Y-77094757D01*
X117188700Y-74911000D01*
X139236701Y-74911000D01*
X139236700Y-97345059D01*
G37*
%TD.AperFunction*%
%TD*%
M02*
