%TF.GenerationSoftware,KiCad,Pcbnew,5.1.9-73d0e3b20d~88~ubuntu20.04.1*%
%TF.CreationDate,2021-03-05T17:28:59-06:00*%
%TF.ProjectId,portalgun-display,706f7274-616c-4677-956e-2d646973706c,rev?*%
%TF.SameCoordinates,Original*%
%TF.FileFunction,Legend,Bot*%
%TF.FilePolarity,Positive*%
%FSLAX46Y46*%
G04 Gerber Fmt 4.6, Leading zero omitted, Abs format (unit mm)*
G04 Created by KiCad (PCBNEW 5.1.9-73d0e3b20d~88~ubuntu20.04.1) date 2021-03-05 17:28:59*
%MOMM*%
%LPD*%
G01*
G04 APERTURE LIST*
%ADD10C,0.120000*%
%ADD11C,0.150000*%
G04 APERTURE END LIST*
D10*
X129732700Y-100413000D02*
G75*
G03*
X129732700Y-100413000I-250000J0D01*
G01*
%TO.C,Q4*%
X134364700Y-119969000D02*
X134364700Y-118509000D01*
X131204700Y-119969000D02*
X131204700Y-117809000D01*
X131204700Y-119969000D02*
X132134700Y-119969000D01*
X134364700Y-119969000D02*
X133434700Y-119969000D01*
%TO.C,Q3*%
X133290700Y-107215000D02*
X131830700Y-107215000D01*
X133290700Y-110375000D02*
X131130700Y-110375000D01*
X133290700Y-110375000D02*
X133290700Y-109445000D01*
X133290700Y-107215000D02*
X133290700Y-108145000D01*
%TO.C,Q2*%
X134110700Y-94569000D02*
X134110700Y-93109000D01*
X130950700Y-94569000D02*
X130950700Y-92409000D01*
X130950700Y-94569000D02*
X131880700Y-94569000D01*
X134110700Y-94569000D02*
X133180700Y-94569000D01*
%TO.C,Q1*%
X130696700Y-82381000D02*
X130696700Y-83841000D01*
X133856700Y-82381000D02*
X133856700Y-84541000D01*
X133856700Y-82381000D02*
X132926700Y-82381000D01*
X130696700Y-82381000D02*
X131626700Y-82381000D01*
%TO.C,R5*%
X130386200Y-119462276D02*
X130386200Y-119971724D01*
X129341200Y-119462276D02*
X129341200Y-119971724D01*
%TO.C,J1*%
X122756700Y-123501000D02*
X123756700Y-123501000D01*
X122756700Y-123501000D02*
X122756700Y-124501000D01*
X133256700Y-126701000D02*
X128406700Y-126701000D01*
X133256700Y-125851000D02*
X133256700Y-126701000D01*
X133456700Y-125851000D02*
X133256700Y-125851000D01*
X133456700Y-125051000D02*
X133456700Y-125851000D01*
X133256700Y-125051000D02*
X133456700Y-125051000D01*
X133256700Y-124301000D02*
X133256700Y-125051000D01*
X128406700Y-124301000D02*
X133256700Y-124301000D01*
X123556700Y-126701000D02*
X128406700Y-126701000D01*
X123556700Y-125851000D02*
X123556700Y-126701000D01*
X123356700Y-125851000D02*
X123556700Y-125851000D01*
X123356700Y-125051000D02*
X123356700Y-125851000D01*
X123556700Y-125051000D02*
X123356700Y-125051000D01*
X123556700Y-124301000D02*
X123556700Y-125051000D01*
X128406700Y-124301000D02*
X123556700Y-124301000D01*
X133766700Y-127211000D02*
X123046700Y-127211000D01*
X133766700Y-123791000D02*
X133766700Y-127211000D01*
X123046700Y-123791000D02*
X133766700Y-123791000D01*
X123046700Y-127211000D02*
X123046700Y-123791000D01*
%TO.C,Y1*%
X134080000Y-101601000D02*
X134080000Y-104901000D01*
X134080000Y-104901000D02*
X130080000Y-104901000D01*
%TO.C,U7*%
X124699700Y-99827000D02*
X124324700Y-99827000D01*
X124324700Y-99827000D02*
X124324700Y-100202000D01*
X128169700Y-104047000D02*
X128544700Y-104047000D01*
X128544700Y-104047000D02*
X128544700Y-103672000D01*
X124699700Y-104047000D02*
X124324700Y-104047000D01*
X124324700Y-104047000D02*
X124324700Y-103672000D01*
X128169700Y-99827000D02*
X128544700Y-99827000D01*
%TO.C,R28*%
X123427258Y-109713500D02*
X122952742Y-109713500D01*
X123427258Y-110758500D02*
X122952742Y-110758500D01*
%TO.C,R27*%
X123427258Y-112253500D02*
X122952742Y-112253500D01*
X123427258Y-113298500D02*
X122952742Y-113298500D01*
%TO.C,R26*%
X133112742Y-115838500D02*
X133587258Y-115838500D01*
X133112742Y-114793500D02*
X133587258Y-114793500D01*
%TO.C,R25*%
X132350742Y-89168500D02*
X132825258Y-89168500D01*
X132350742Y-88123500D02*
X132825258Y-88123500D01*
%TO.C,R24*%
X132350742Y-87644500D02*
X132825258Y-87644500D01*
X132350742Y-86599500D02*
X132825258Y-86599500D01*
%TO.C,R23*%
X132858742Y-80278500D02*
X133333258Y-80278500D01*
X132858742Y-79233500D02*
X133333258Y-79233500D01*
%TO.C,R22*%
X123681258Y-89393500D02*
X123206742Y-89393500D01*
X123681258Y-90438500D02*
X123206742Y-90438500D01*
%TO.C,R21*%
X123681258Y-91933500D02*
X123206742Y-91933500D01*
X123681258Y-92978500D02*
X123206742Y-92978500D01*
%TO.C,R4*%
X123245200Y-119462276D02*
X123245200Y-119971724D01*
X124290200Y-119462276D02*
X124290200Y-119971724D01*
%TO.C,R3*%
X124769200Y-119462276D02*
X124769200Y-119971724D01*
X125814200Y-119462276D02*
X125814200Y-119971724D01*
%TO.C,R2*%
X127817200Y-119462276D02*
X127817200Y-119971724D01*
X128862200Y-119462276D02*
X128862200Y-119971724D01*
%TO.C,R1*%
X126293200Y-119462276D02*
X126293200Y-119971724D01*
X127338200Y-119462276D02*
X127338200Y-119971724D01*
%TO.C,C8*%
X131939420Y-101221000D02*
X132220580Y-101221000D01*
X131939420Y-100201000D02*
X132220580Y-100201000D01*
%TO.C,C4*%
X132474580Y-105281000D02*
X132193420Y-105281000D01*
X132474580Y-106301000D02*
X132193420Y-106301000D01*
%TO.C,C2*%
X126194280Y-96728000D02*
X125913120Y-96728000D01*
X126194280Y-97748000D02*
X125913120Y-97748000D01*
%TO.C,Q4*%
D11*
X132879938Y-122296619D02*
X132975176Y-122249000D01*
X133070414Y-122153761D01*
X133213271Y-122010904D01*
X133308509Y-121963285D01*
X133403747Y-121963285D01*
X133356128Y-122201380D02*
X133451366Y-122153761D01*
X133546604Y-122058523D01*
X133594223Y-121868047D01*
X133594223Y-121534714D01*
X133546604Y-121344238D01*
X133451366Y-121249000D01*
X133356128Y-121201380D01*
X133165652Y-121201380D01*
X133070414Y-121249000D01*
X132975176Y-121344238D01*
X132927557Y-121534714D01*
X132927557Y-121868047D01*
X132975176Y-122058523D01*
X133070414Y-122153761D01*
X133165652Y-122201380D01*
X133356128Y-122201380D01*
X132070414Y-121534714D02*
X132070414Y-122201380D01*
X132308509Y-121153761D02*
X132546604Y-121868047D01*
X131927557Y-121868047D01*
%TO.C,Q3*%
X132625938Y-111842619D02*
X132721176Y-111795000D01*
X132816414Y-111699761D01*
X132959271Y-111556904D01*
X133054509Y-111509285D01*
X133149747Y-111509285D01*
X133102128Y-111747380D02*
X133197366Y-111699761D01*
X133292604Y-111604523D01*
X133340223Y-111414047D01*
X133340223Y-111080714D01*
X133292604Y-110890238D01*
X133197366Y-110795000D01*
X133102128Y-110747380D01*
X132911652Y-110747380D01*
X132816414Y-110795000D01*
X132721176Y-110890238D01*
X132673557Y-111080714D01*
X132673557Y-111414047D01*
X132721176Y-111604523D01*
X132816414Y-111699761D01*
X132911652Y-111747380D01*
X133102128Y-111747380D01*
X132340223Y-110747380D02*
X131721176Y-110747380D01*
X132054509Y-111128333D01*
X131911652Y-111128333D01*
X131816414Y-111175952D01*
X131768795Y-111223571D01*
X131721176Y-111318809D01*
X131721176Y-111556904D01*
X131768795Y-111652142D01*
X131816414Y-111699761D01*
X131911652Y-111747380D01*
X132197366Y-111747380D01*
X132292604Y-111699761D01*
X132340223Y-111652142D01*
%TO.C,Q2*%
X130578319Y-93713761D02*
X130530700Y-93618523D01*
X130435461Y-93523285D01*
X130292604Y-93380428D01*
X130244985Y-93285190D01*
X130244985Y-93189952D01*
X130483080Y-93237571D02*
X130435461Y-93142333D01*
X130340223Y-93047095D01*
X130149747Y-92999476D01*
X129816414Y-92999476D01*
X129625938Y-93047095D01*
X129530700Y-93142333D01*
X129483080Y-93237571D01*
X129483080Y-93428047D01*
X129530700Y-93523285D01*
X129625938Y-93618523D01*
X129816414Y-93666142D01*
X130149747Y-93666142D01*
X130340223Y-93618523D01*
X130435461Y-93523285D01*
X130483080Y-93428047D01*
X130483080Y-93237571D01*
X129578319Y-94047095D02*
X129530700Y-94094714D01*
X129483080Y-94189952D01*
X129483080Y-94428047D01*
X129530700Y-94523285D01*
X129578319Y-94570904D01*
X129673557Y-94618523D01*
X129768795Y-94618523D01*
X129911652Y-94570904D01*
X130483080Y-93999476D01*
X130483080Y-94618523D01*
%TO.C,Q1*%
X130284319Y-83045761D02*
X130236700Y-82950523D01*
X130141461Y-82855285D01*
X129998604Y-82712428D01*
X129950985Y-82617190D01*
X129950985Y-82521952D01*
X130189080Y-82569571D02*
X130141461Y-82474333D01*
X130046223Y-82379095D01*
X129855747Y-82331476D01*
X129522414Y-82331476D01*
X129331938Y-82379095D01*
X129236700Y-82474333D01*
X129189080Y-82569571D01*
X129189080Y-82760047D01*
X129236700Y-82855285D01*
X129331938Y-82950523D01*
X129522414Y-82998142D01*
X129855747Y-82998142D01*
X130046223Y-82950523D01*
X130141461Y-82855285D01*
X130189080Y-82760047D01*
X130189080Y-82569571D01*
X130189080Y-83950523D02*
X130189080Y-83379095D01*
X130189080Y-83664809D02*
X129189080Y-83664809D01*
X129331938Y-83569571D01*
X129427176Y-83474333D01*
X129474795Y-83379095D01*
%TO.C,R5*%
X130316080Y-116883333D02*
X129839890Y-116550000D01*
X130316080Y-116311904D02*
X129316080Y-116311904D01*
X129316080Y-116692857D01*
X129363700Y-116788095D01*
X129411319Y-116835714D01*
X129506557Y-116883333D01*
X129649414Y-116883333D01*
X129744652Y-116835714D01*
X129792271Y-116788095D01*
X129839890Y-116692857D01*
X129839890Y-116311904D01*
X129316080Y-117788095D02*
X129316080Y-117311904D01*
X129792271Y-117264285D01*
X129744652Y-117311904D01*
X129697033Y-117407142D01*
X129697033Y-117645238D01*
X129744652Y-117740476D01*
X129792271Y-117788095D01*
X129887509Y-117835714D01*
X130125604Y-117835714D01*
X130220842Y-117788095D01*
X130268461Y-117740476D01*
X130316080Y-117645238D01*
X130316080Y-117407142D01*
X130268461Y-117311904D01*
X130220842Y-117264285D01*
%TO.C,J1*%
X128740033Y-127753380D02*
X128740033Y-128467666D01*
X128787652Y-128610523D01*
X128882890Y-128705761D01*
X129025747Y-128753380D01*
X129120985Y-128753380D01*
X127740033Y-128753380D02*
X128311461Y-128753380D01*
X128025747Y-128753380D02*
X128025747Y-127753380D01*
X128120985Y-127896238D01*
X128216223Y-127991476D01*
X128311461Y-128039095D01*
%TO.C,Y1*%
X130212890Y-105850190D02*
X130212890Y-106326380D01*
X130546223Y-105326380D02*
X130212890Y-105850190D01*
X129879557Y-105326380D01*
X129022414Y-106326380D02*
X129593842Y-106326380D01*
X129308128Y-106326380D02*
X129308128Y-105326380D01*
X129403366Y-105469238D01*
X129498604Y-105564476D01*
X129593842Y-105612095D01*
%TO.C,U7*%
X129863604Y-98214380D02*
X129863604Y-99023904D01*
X129815985Y-99119142D01*
X129768366Y-99166761D01*
X129673128Y-99214380D01*
X129482652Y-99214380D01*
X129387414Y-99166761D01*
X129339795Y-99119142D01*
X129292176Y-99023904D01*
X129292176Y-98214380D01*
X128911223Y-98214380D02*
X128244557Y-98214380D01*
X128673128Y-99214380D01*
%TO.C,R28*%
X123832857Y-109258380D02*
X124166190Y-108782190D01*
X124404285Y-109258380D02*
X124404285Y-108258380D01*
X124023333Y-108258380D01*
X123928095Y-108306000D01*
X123880476Y-108353619D01*
X123832857Y-108448857D01*
X123832857Y-108591714D01*
X123880476Y-108686952D01*
X123928095Y-108734571D01*
X124023333Y-108782190D01*
X124404285Y-108782190D01*
X123451904Y-108353619D02*
X123404285Y-108306000D01*
X123309047Y-108258380D01*
X123070952Y-108258380D01*
X122975714Y-108306000D01*
X122928095Y-108353619D01*
X122880476Y-108448857D01*
X122880476Y-108544095D01*
X122928095Y-108686952D01*
X123499523Y-109258380D01*
X122880476Y-109258380D01*
X122309047Y-108686952D02*
X122404285Y-108639333D01*
X122451904Y-108591714D01*
X122499523Y-108496476D01*
X122499523Y-108448857D01*
X122451904Y-108353619D01*
X122404285Y-108306000D01*
X122309047Y-108258380D01*
X122118571Y-108258380D01*
X122023333Y-108306000D01*
X121975714Y-108353619D01*
X121928095Y-108448857D01*
X121928095Y-108496476D01*
X121975714Y-108591714D01*
X122023333Y-108639333D01*
X122118571Y-108686952D01*
X122309047Y-108686952D01*
X122404285Y-108734571D01*
X122451904Y-108782190D01*
X122499523Y-108877428D01*
X122499523Y-109067904D01*
X122451904Y-109163142D01*
X122404285Y-109210761D01*
X122309047Y-109258380D01*
X122118571Y-109258380D01*
X122023333Y-109210761D01*
X121975714Y-109163142D01*
X121928095Y-109067904D01*
X121928095Y-108877428D01*
X121975714Y-108782190D01*
X122023333Y-108734571D01*
X122118571Y-108686952D01*
%TO.C,R27*%
X123832857Y-114581380D02*
X124166190Y-114105190D01*
X124404285Y-114581380D02*
X124404285Y-113581380D01*
X124023333Y-113581380D01*
X123928095Y-113629000D01*
X123880476Y-113676619D01*
X123832857Y-113771857D01*
X123832857Y-113914714D01*
X123880476Y-114009952D01*
X123928095Y-114057571D01*
X124023333Y-114105190D01*
X124404285Y-114105190D01*
X123451904Y-113676619D02*
X123404285Y-113629000D01*
X123309047Y-113581380D01*
X123070952Y-113581380D01*
X122975714Y-113629000D01*
X122928095Y-113676619D01*
X122880476Y-113771857D01*
X122880476Y-113867095D01*
X122928095Y-114009952D01*
X123499523Y-114581380D01*
X122880476Y-114581380D01*
X122547142Y-113581380D02*
X121880476Y-113581380D01*
X122309047Y-114581380D01*
%TO.C,R26*%
X131014557Y-114581380D02*
X131347890Y-114105190D01*
X131585985Y-114581380D02*
X131585985Y-113581380D01*
X131205033Y-113581380D01*
X131109795Y-113629000D01*
X131062176Y-113676619D01*
X131014557Y-113771857D01*
X131014557Y-113914714D01*
X131062176Y-114009952D01*
X131109795Y-114057571D01*
X131205033Y-114105190D01*
X131585985Y-114105190D01*
X130633604Y-113676619D02*
X130585985Y-113629000D01*
X130490747Y-113581380D01*
X130252652Y-113581380D01*
X130157414Y-113629000D01*
X130109795Y-113676619D01*
X130062176Y-113771857D01*
X130062176Y-113867095D01*
X130109795Y-114009952D01*
X130681223Y-114581380D01*
X130062176Y-114581380D01*
X129205033Y-113581380D02*
X129395509Y-113581380D01*
X129490747Y-113629000D01*
X129538366Y-113676619D01*
X129633604Y-113819476D01*
X129681223Y-114009952D01*
X129681223Y-114390904D01*
X129633604Y-114486142D01*
X129585985Y-114533761D01*
X129490747Y-114581380D01*
X129300271Y-114581380D01*
X129205033Y-114533761D01*
X129157414Y-114486142D01*
X129109795Y-114390904D01*
X129109795Y-114152809D01*
X129157414Y-114057571D01*
X129205033Y-114009952D01*
X129300271Y-113962333D01*
X129490747Y-113962333D01*
X129585985Y-114009952D01*
X129633604Y-114057571D01*
X129681223Y-114152809D01*
%TO.C,R25*%
X130252557Y-89054380D02*
X130585890Y-88578190D01*
X130823985Y-89054380D02*
X130823985Y-88054380D01*
X130443033Y-88054380D01*
X130347795Y-88102000D01*
X130300176Y-88149619D01*
X130252557Y-88244857D01*
X130252557Y-88387714D01*
X130300176Y-88482952D01*
X130347795Y-88530571D01*
X130443033Y-88578190D01*
X130823985Y-88578190D01*
X129871604Y-88149619D02*
X129823985Y-88102000D01*
X129728747Y-88054380D01*
X129490652Y-88054380D01*
X129395414Y-88102000D01*
X129347795Y-88149619D01*
X129300176Y-88244857D01*
X129300176Y-88340095D01*
X129347795Y-88482952D01*
X129919223Y-89054380D01*
X129300176Y-89054380D01*
X128395414Y-88054380D02*
X128871604Y-88054380D01*
X128919223Y-88530571D01*
X128871604Y-88482952D01*
X128776366Y-88435333D01*
X128538271Y-88435333D01*
X128443033Y-88482952D01*
X128395414Y-88530571D01*
X128347795Y-88625809D01*
X128347795Y-88863904D01*
X128395414Y-88959142D01*
X128443033Y-89006761D01*
X128538271Y-89054380D01*
X128776366Y-89054380D01*
X128871604Y-89006761D01*
X128919223Y-88959142D01*
%TO.C,R24*%
X130252557Y-87530380D02*
X130585890Y-87054190D01*
X130823985Y-87530380D02*
X130823985Y-86530380D01*
X130443033Y-86530380D01*
X130347795Y-86578000D01*
X130300176Y-86625619D01*
X130252557Y-86720857D01*
X130252557Y-86863714D01*
X130300176Y-86958952D01*
X130347795Y-87006571D01*
X130443033Y-87054190D01*
X130823985Y-87054190D01*
X129871604Y-86625619D02*
X129823985Y-86578000D01*
X129728747Y-86530380D01*
X129490652Y-86530380D01*
X129395414Y-86578000D01*
X129347795Y-86625619D01*
X129300176Y-86720857D01*
X129300176Y-86816095D01*
X129347795Y-86958952D01*
X129919223Y-87530380D01*
X129300176Y-87530380D01*
X128443033Y-86863714D02*
X128443033Y-87530380D01*
X128681128Y-86482761D02*
X128919223Y-87197047D01*
X128300176Y-87197047D01*
%TO.C,R23*%
X133681557Y-78767380D02*
X134014890Y-78291190D01*
X134252985Y-78767380D02*
X134252985Y-77767380D01*
X133872033Y-77767380D01*
X133776795Y-77815000D01*
X133729176Y-77862619D01*
X133681557Y-77957857D01*
X133681557Y-78100714D01*
X133729176Y-78195952D01*
X133776795Y-78243571D01*
X133872033Y-78291190D01*
X134252985Y-78291190D01*
X133300604Y-77862619D02*
X133252985Y-77815000D01*
X133157747Y-77767380D01*
X132919652Y-77767380D01*
X132824414Y-77815000D01*
X132776795Y-77862619D01*
X132729176Y-77957857D01*
X132729176Y-78053095D01*
X132776795Y-78195952D01*
X133348223Y-78767380D01*
X132729176Y-78767380D01*
X132395842Y-77767380D02*
X131776795Y-77767380D01*
X132110128Y-78148333D01*
X131967271Y-78148333D01*
X131872033Y-78195952D01*
X131824414Y-78243571D01*
X131776795Y-78338809D01*
X131776795Y-78576904D01*
X131824414Y-78672142D01*
X131872033Y-78719761D01*
X131967271Y-78767380D01*
X132252985Y-78767380D01*
X132348223Y-78719761D01*
X132395842Y-78672142D01*
%TO.C,R22*%
X127077557Y-90324380D02*
X127410890Y-89848190D01*
X127648985Y-90324380D02*
X127648985Y-89324380D01*
X127268033Y-89324380D01*
X127172795Y-89372000D01*
X127125176Y-89419619D01*
X127077557Y-89514857D01*
X127077557Y-89657714D01*
X127125176Y-89752952D01*
X127172795Y-89800571D01*
X127268033Y-89848190D01*
X127648985Y-89848190D01*
X126696604Y-89419619D02*
X126648985Y-89372000D01*
X126553747Y-89324380D01*
X126315652Y-89324380D01*
X126220414Y-89372000D01*
X126172795Y-89419619D01*
X126125176Y-89514857D01*
X126125176Y-89610095D01*
X126172795Y-89752952D01*
X126744223Y-90324380D01*
X126125176Y-90324380D01*
X125744223Y-89419619D02*
X125696604Y-89372000D01*
X125601366Y-89324380D01*
X125363271Y-89324380D01*
X125268033Y-89372000D01*
X125220414Y-89419619D01*
X125172795Y-89514857D01*
X125172795Y-89610095D01*
X125220414Y-89752952D01*
X125791842Y-90324380D01*
X125172795Y-90324380D01*
%TO.C,R21*%
X127077557Y-92864380D02*
X127410890Y-92388190D01*
X127648985Y-92864380D02*
X127648985Y-91864380D01*
X127268033Y-91864380D01*
X127172795Y-91912000D01*
X127125176Y-91959619D01*
X127077557Y-92054857D01*
X127077557Y-92197714D01*
X127125176Y-92292952D01*
X127172795Y-92340571D01*
X127268033Y-92388190D01*
X127648985Y-92388190D01*
X126696604Y-91959619D02*
X126648985Y-91912000D01*
X126553747Y-91864380D01*
X126315652Y-91864380D01*
X126220414Y-91912000D01*
X126172795Y-91959619D01*
X126125176Y-92054857D01*
X126125176Y-92150095D01*
X126172795Y-92292952D01*
X126744223Y-92864380D01*
X126125176Y-92864380D01*
X125172795Y-92864380D02*
X125744223Y-92864380D01*
X125458509Y-92864380D02*
X125458509Y-91864380D01*
X125553747Y-92007238D01*
X125648985Y-92102476D01*
X125744223Y-92150095D01*
%TO.C,R4*%
X124220080Y-116883333D02*
X123743890Y-116550000D01*
X124220080Y-116311904D02*
X123220080Y-116311904D01*
X123220080Y-116692857D01*
X123267700Y-116788095D01*
X123315319Y-116835714D01*
X123410557Y-116883333D01*
X123553414Y-116883333D01*
X123648652Y-116835714D01*
X123696271Y-116788095D01*
X123743890Y-116692857D01*
X123743890Y-116311904D01*
X123553414Y-117740476D02*
X124220080Y-117740476D01*
X123172461Y-117502380D02*
X123886747Y-117264285D01*
X123886747Y-117883333D01*
%TO.C,R3*%
X125871080Y-116883333D02*
X125394890Y-116550000D01*
X125871080Y-116311904D02*
X124871080Y-116311904D01*
X124871080Y-116692857D01*
X124918700Y-116788095D01*
X124966319Y-116835714D01*
X125061557Y-116883333D01*
X125204414Y-116883333D01*
X125299652Y-116835714D01*
X125347271Y-116788095D01*
X125394890Y-116692857D01*
X125394890Y-116311904D01*
X124871080Y-117216666D02*
X124871080Y-117835714D01*
X125252033Y-117502380D01*
X125252033Y-117645238D01*
X125299652Y-117740476D01*
X125347271Y-117788095D01*
X125442509Y-117835714D01*
X125680604Y-117835714D01*
X125775842Y-117788095D01*
X125823461Y-117740476D01*
X125871080Y-117645238D01*
X125871080Y-117359523D01*
X125823461Y-117264285D01*
X125775842Y-117216666D01*
%TO.C,R2*%
X128792080Y-116883333D02*
X128315890Y-116550000D01*
X128792080Y-116311904D02*
X127792080Y-116311904D01*
X127792080Y-116692857D01*
X127839700Y-116788095D01*
X127887319Y-116835714D01*
X127982557Y-116883333D01*
X128125414Y-116883333D01*
X128220652Y-116835714D01*
X128268271Y-116788095D01*
X128315890Y-116692857D01*
X128315890Y-116311904D01*
X127887319Y-117264285D02*
X127839700Y-117311904D01*
X127792080Y-117407142D01*
X127792080Y-117645238D01*
X127839700Y-117740476D01*
X127887319Y-117788095D01*
X127982557Y-117835714D01*
X128077795Y-117835714D01*
X128220652Y-117788095D01*
X128792080Y-117216666D01*
X128792080Y-117835714D01*
%TO.C,R1*%
X127268080Y-116883333D02*
X126791890Y-116550000D01*
X127268080Y-116311904D02*
X126268080Y-116311904D01*
X126268080Y-116692857D01*
X126315700Y-116788095D01*
X126363319Y-116835714D01*
X126458557Y-116883333D01*
X126601414Y-116883333D01*
X126696652Y-116835714D01*
X126744271Y-116788095D01*
X126791890Y-116692857D01*
X126791890Y-116311904D01*
X127268080Y-117835714D02*
X127268080Y-117264285D01*
X127268080Y-117550000D02*
X126268080Y-117550000D01*
X126410938Y-117454761D01*
X126506176Y-117359523D01*
X126553795Y-117264285D01*
%TO.C,C8*%
X132246666Y-99627142D02*
X132294285Y-99674761D01*
X132437142Y-99722380D01*
X132532380Y-99722380D01*
X132675238Y-99674761D01*
X132770476Y-99579523D01*
X132818095Y-99484285D01*
X132865714Y-99293809D01*
X132865714Y-99150952D01*
X132818095Y-98960476D01*
X132770476Y-98865238D01*
X132675238Y-98770000D01*
X132532380Y-98722380D01*
X132437142Y-98722380D01*
X132294285Y-98770000D01*
X132246666Y-98817619D01*
X131675238Y-99150952D02*
X131770476Y-99103333D01*
X131818095Y-99055714D01*
X131865714Y-98960476D01*
X131865714Y-98912857D01*
X131818095Y-98817619D01*
X131770476Y-98770000D01*
X131675238Y-98722380D01*
X131484761Y-98722380D01*
X131389523Y-98770000D01*
X131341904Y-98817619D01*
X131294285Y-98912857D01*
X131294285Y-98960476D01*
X131341904Y-99055714D01*
X131389523Y-99103333D01*
X131484761Y-99150952D01*
X131675238Y-99150952D01*
X131770476Y-99198571D01*
X131818095Y-99246190D01*
X131865714Y-99341428D01*
X131865714Y-99531904D01*
X131818095Y-99627142D01*
X131770476Y-99674761D01*
X131675238Y-99722380D01*
X131484761Y-99722380D01*
X131389523Y-99674761D01*
X131341904Y-99627142D01*
X131294285Y-99531904D01*
X131294285Y-99341428D01*
X131341904Y-99246190D01*
X131389523Y-99198571D01*
X131484761Y-99150952D01*
%TO.C,C4*%
X129903366Y-107628142D02*
X129950985Y-107675761D01*
X130093842Y-107723380D01*
X130189080Y-107723380D01*
X130331938Y-107675761D01*
X130427176Y-107580523D01*
X130474795Y-107485285D01*
X130522414Y-107294809D01*
X130522414Y-107151952D01*
X130474795Y-106961476D01*
X130427176Y-106866238D01*
X130331938Y-106771000D01*
X130189080Y-106723380D01*
X130093842Y-106723380D01*
X129950985Y-106771000D01*
X129903366Y-106818619D01*
X129046223Y-107056714D02*
X129046223Y-107723380D01*
X129284319Y-106675761D02*
X129522414Y-107390047D01*
X128903366Y-107390047D01*
%TO.C,C2*%
X126220366Y-96165142D02*
X126267985Y-96212761D01*
X126410842Y-96260380D01*
X126506080Y-96260380D01*
X126648938Y-96212761D01*
X126744176Y-96117523D01*
X126791795Y-96022285D01*
X126839414Y-95831809D01*
X126839414Y-95688952D01*
X126791795Y-95498476D01*
X126744176Y-95403238D01*
X126648938Y-95308000D01*
X126506080Y-95260380D01*
X126410842Y-95260380D01*
X126267985Y-95308000D01*
X126220366Y-95355619D01*
X125839414Y-95355619D02*
X125791795Y-95308000D01*
X125696557Y-95260380D01*
X125458461Y-95260380D01*
X125363223Y-95308000D01*
X125315604Y-95355619D01*
X125267985Y-95450857D01*
X125267985Y-95546095D01*
X125315604Y-95688952D01*
X125887033Y-96260380D01*
X125267985Y-96260380D01*
%TD*%
M02*
