M48
; DRILL file {KiCad 5.1.9-73d0e3b20d~88~ubuntu20.04.1} date Fri Mar  5 17:29:05 2021
; FORMAT={-:-/ absolute / inch / decimal}
; #@! TF.CreationDate,2021-03-05T17:29:05-06:00
; #@! TF.GenerationSoftware,Kicad,Pcbnew,5.1.9-73d0e3b20d~88~ubuntu20.04.1
; #@! TF.FileFunction,Plated,1,4,PTH
FMAT,2
INCH
T1C0.0100
T2C0.0197
T3C0.0394
%
G90
G05
T1
X4.7877Y-4.7933
X4.8377Y-4.7833
X4.8477Y-3.9933
X4.8577Y-3.4933
X4.8677Y-3.9733
X4.8677Y-4.0183
X4.8727Y-4.0433
X4.8727Y-4.1183
X4.8977Y-3.5933
X4.9027Y-4.1633
X4.9077Y-3.8283
X4.9077Y-4.6183
X4.9127Y-4.4433
X4.9177Y-4.3333
X4.9277Y-4.8633
X4.9377Y-4.1633
X4.9577Y-4.9733
X4.9627Y-4.6183
X4.9677Y-4.7833
X4.9977Y-3.7833
X5.0177Y-3.8283
X5.0252Y-4.6183
X5.0277Y-4.7833
X5.0436Y-4.1824
X5.0677Y-4.1983
X5.0827Y-4.6183
X5.0877Y-4.7833
X5.0927Y-3.9893
X5.0932Y-4.0135
X5.1177Y-4.3433
X5.1177Y-4.4733
X5.1277Y-3.3133
X5.1277Y-3.6533
X5.1277Y-4.1733
X5.1277Y-4.2133
X5.1677Y-3.3533
X5.1777Y-4.3733
X5.1777Y-4.4933
X5.1777Y-4.7033
X5.2327Y-3.9333
X5.2377Y-3.3633
X5.2377Y-4.2233
X5.2377Y-4.6033
X5.2477Y-4.3733
X5.2477Y-4.4933
T2
X4.9077Y-4.9233
X4.957Y-4.9233
X5.0062Y-4.9233
X5.0554Y-4.9233
X5.1046Y-4.9233
X5.1538Y-4.9233
X5.203Y-4.9233
T3
X4.75Y-3.04
X4.75Y-3.14
X4.75Y-3.24
X4.75Y-3.34
X4.75Y-3.44
X4.75Y-3.54
X4.75Y-3.64
X4.75Y-3.74
X4.75Y-3.84
X4.75Y-3.94
X4.75Y-4.04
X4.75Y-4.14
X4.75Y-4.24
X4.75Y-4.34
X4.75Y-4.44
X4.75Y-4.54
X4.75Y-4.64
X4.75Y-4.74
X4.75Y-4.84
X4.75Y-4.94
X5.35Y-3.04
X5.35Y-3.14
X5.35Y-3.24
X5.35Y-3.34
X5.35Y-3.44
X5.35Y-3.54
X5.35Y-3.64
X5.35Y-3.74
X5.35Y-3.84
X5.35Y-3.94
X5.35Y-4.04
X5.35Y-4.14
X5.35Y-4.24
X5.35Y-4.34
X5.35Y-4.44
X5.35Y-4.54
X5.35Y-4.64
X5.35Y-4.74
X5.35Y-4.84
X5.35Y-4.94
T0
M30
