%TF.GenerationSoftware,KiCad,Pcbnew,5.1.9-73d0e3b20d~88~ubuntu20.04.1*%
%TF.CreationDate,2021-03-05T17:28:59-06:00*%
%TF.ProjectId,portalgun-display,706f7274-616c-4677-956e-2d646973706c,rev?*%
%TF.SameCoordinates,Original*%
%TF.FileFunction,Other,Fab,Bot*%
%FSLAX46Y46*%
G04 Gerber Fmt 4.6, Leading zero omitted, Abs format (unit mm)*
G04 Created by KiCad (PCBNEW 5.1.9-73d0e3b20d~88~ubuntu20.04.1) date 2021-03-05 17:28:59*
%MOMM*%
%LPD*%
G01*
G04 APERTURE LIST*
%ADD10C,0.100000*%
%ADD11C,0.150000*%
%ADD12C,0.075000*%
%ADD13C,0.060000*%
%ADD14C,0.105000*%
G04 APERTURE END LIST*
D10*
%TO.C,Q4*%
X134304700Y-118509000D02*
X134304700Y-119909000D01*
X131264700Y-119909000D02*
X134304700Y-119909000D01*
X131834700Y-118509000D02*
X131264700Y-119059000D01*
X131264700Y-119059000D02*
X131264700Y-119909000D01*
X131834700Y-118509000D02*
X134284700Y-118509000D01*
%TO.C,Q3*%
X131830700Y-107275000D02*
X133230700Y-107275000D01*
X133230700Y-110315000D02*
X133230700Y-107275000D01*
X131830700Y-109745000D02*
X132380700Y-110315000D01*
X132380700Y-110315000D02*
X133230700Y-110315000D01*
X131830700Y-109745000D02*
X131830700Y-107295000D01*
%TO.C,Q2*%
X134050700Y-93109000D02*
X134050700Y-94509000D01*
X131010700Y-94509000D02*
X134050700Y-94509000D01*
X131580700Y-93109000D02*
X131010700Y-93659000D01*
X131010700Y-93659000D02*
X131010700Y-94509000D01*
X131580700Y-93109000D02*
X134030700Y-93109000D01*
%TO.C,Q1*%
X130756700Y-83841000D02*
X130756700Y-82441000D01*
X133796700Y-82441000D02*
X130756700Y-82441000D01*
X133226700Y-83841000D02*
X133796700Y-83291000D01*
X133796700Y-83291000D02*
X133796700Y-82441000D01*
X133226700Y-83841000D02*
X130776700Y-83841000D01*
%TO.C,R5*%
X130276200Y-120517000D02*
X130276200Y-118917000D01*
X129451200Y-120517000D02*
X130276200Y-120517000D01*
X129451200Y-118917000D02*
X129451200Y-120517000D01*
X130276200Y-118917000D02*
X129451200Y-118917000D01*
%TO.C,J1*%
X124656700Y-124608107D02*
X125156700Y-123901000D01*
X124156700Y-123901000D02*
X124656700Y-124608107D01*
X133656700Y-127101000D02*
X123156700Y-127101000D01*
X133656700Y-123901000D02*
X133656700Y-127101000D01*
X123156700Y-123901000D02*
X133656700Y-123901000D01*
X123156700Y-127101000D02*
X123156700Y-123901000D01*
%TO.C,Y1*%
X133680000Y-102001000D02*
X133680000Y-104501000D01*
X133680000Y-104501000D02*
X130480000Y-104501000D01*
X130480000Y-104501000D02*
X130480000Y-102001000D01*
X130480000Y-102001000D02*
X133680000Y-102001000D01*
X133680000Y-103501000D02*
X132680000Y-104501000D01*
%TO.C,U7*%
X127434700Y-99937000D02*
X124434700Y-99937000D01*
X124434700Y-99937000D02*
X124434700Y-103937000D01*
X124434700Y-103937000D02*
X128434700Y-103937000D01*
X128434700Y-103937000D02*
X128434700Y-100937000D01*
X128434700Y-100937000D02*
X127434700Y-99937000D01*
%TO.C,R28*%
X123990000Y-110648500D02*
X123990000Y-109823500D01*
X123990000Y-109823500D02*
X122390000Y-109823500D01*
X122390000Y-109823500D02*
X122390000Y-110648500D01*
X122390000Y-110648500D02*
X123990000Y-110648500D01*
%TO.C,R27*%
X123990000Y-113188500D02*
X123990000Y-112363500D01*
X123990000Y-112363500D02*
X122390000Y-112363500D01*
X122390000Y-112363500D02*
X122390000Y-113188500D01*
X122390000Y-113188500D02*
X123990000Y-113188500D01*
%TO.C,R26*%
X132550000Y-114903500D02*
X132550000Y-115728500D01*
X132550000Y-115728500D02*
X134150000Y-115728500D01*
X134150000Y-115728500D02*
X134150000Y-114903500D01*
X134150000Y-114903500D02*
X132550000Y-114903500D01*
%TO.C,R25*%
X131788000Y-88233500D02*
X131788000Y-89058500D01*
X131788000Y-89058500D02*
X133388000Y-89058500D01*
X133388000Y-89058500D02*
X133388000Y-88233500D01*
X133388000Y-88233500D02*
X131788000Y-88233500D01*
%TO.C,R24*%
X131788000Y-86709500D02*
X131788000Y-87534500D01*
X131788000Y-87534500D02*
X133388000Y-87534500D01*
X133388000Y-87534500D02*
X133388000Y-86709500D01*
X133388000Y-86709500D02*
X131788000Y-86709500D01*
%TO.C,R23*%
X132296000Y-79343500D02*
X132296000Y-80168500D01*
X132296000Y-80168500D02*
X133896000Y-80168500D01*
X133896000Y-80168500D02*
X133896000Y-79343500D01*
X133896000Y-79343500D02*
X132296000Y-79343500D01*
%TO.C,R22*%
X124244000Y-90328500D02*
X124244000Y-89503500D01*
X124244000Y-89503500D02*
X122644000Y-89503500D01*
X122644000Y-89503500D02*
X122644000Y-90328500D01*
X122644000Y-90328500D02*
X124244000Y-90328500D01*
%TO.C,R21*%
X124244000Y-92868500D02*
X124244000Y-92043500D01*
X124244000Y-92043500D02*
X122644000Y-92043500D01*
X122644000Y-92043500D02*
X122644000Y-92868500D01*
X122644000Y-92868500D02*
X124244000Y-92868500D01*
%TO.C,R4*%
X124180200Y-118917000D02*
X123355200Y-118917000D01*
X123355200Y-118917000D02*
X123355200Y-120517000D01*
X123355200Y-120517000D02*
X124180200Y-120517000D01*
X124180200Y-120517000D02*
X124180200Y-118917000D01*
%TO.C,R3*%
X125704200Y-118917000D02*
X124879200Y-118917000D01*
X124879200Y-118917000D02*
X124879200Y-120517000D01*
X124879200Y-120517000D02*
X125704200Y-120517000D01*
X125704200Y-120517000D02*
X125704200Y-118917000D01*
%TO.C,R2*%
X128752200Y-118917000D02*
X127927200Y-118917000D01*
X127927200Y-118917000D02*
X127927200Y-120517000D01*
X127927200Y-120517000D02*
X128752200Y-120517000D01*
X128752200Y-120517000D02*
X128752200Y-118917000D01*
%TO.C,R1*%
X127228200Y-118917000D02*
X126403200Y-118917000D01*
X126403200Y-118917000D02*
X126403200Y-120517000D01*
X126403200Y-120517000D02*
X127228200Y-120517000D01*
X127228200Y-120517000D02*
X127228200Y-118917000D01*
%TO.C,C8*%
X131280000Y-100311000D02*
X131280000Y-101111000D01*
X131280000Y-101111000D02*
X132880000Y-101111000D01*
X132880000Y-101111000D02*
X132880000Y-100311000D01*
X132880000Y-100311000D02*
X131280000Y-100311000D01*
%TO.C,C4*%
X133134000Y-106191000D02*
X133134000Y-105391000D01*
X133134000Y-105391000D02*
X131534000Y-105391000D01*
X131534000Y-105391000D02*
X131534000Y-106191000D01*
X131534000Y-106191000D02*
X133134000Y-106191000D01*
%TO.C,C2*%
X126853700Y-97638000D02*
X126853700Y-96838000D01*
X126853700Y-96838000D02*
X125253700Y-96838000D01*
X125253700Y-96838000D02*
X125253700Y-97638000D01*
X125253700Y-97638000D02*
X126853700Y-97638000D01*
%TD*%
%TO.C,Q4*%
D11*
X140698033Y-119137571D02*
X140555176Y-119185190D01*
X140507557Y-119232809D01*
X140459938Y-119328047D01*
X140459938Y-119470904D01*
X140507557Y-119566142D01*
X140555176Y-119613761D01*
X140650414Y-119661380D01*
X141031366Y-119661380D01*
X141031366Y-118661380D01*
X140698033Y-118661380D01*
X140602795Y-118709000D01*
X140555176Y-118756619D01*
X140507557Y-118851857D01*
X140507557Y-118947095D01*
X140555176Y-119042333D01*
X140602795Y-119089952D01*
X140698033Y-119137571D01*
X141031366Y-119137571D01*
X140078985Y-119613761D02*
X139936128Y-119661380D01*
X139698033Y-119661380D01*
X139602795Y-119613761D01*
X139555176Y-119566142D01*
X139507557Y-119470904D01*
X139507557Y-119375666D01*
X139555176Y-119280428D01*
X139602795Y-119232809D01*
X139698033Y-119185190D01*
X139888509Y-119137571D01*
X139983747Y-119089952D01*
X140031366Y-119042333D01*
X140078985Y-118947095D01*
X140078985Y-118851857D01*
X140031366Y-118756619D01*
X139983747Y-118709000D01*
X139888509Y-118661380D01*
X139650414Y-118661380D01*
X139507557Y-118709000D01*
X139126604Y-119613761D02*
X138983747Y-119661380D01*
X138745652Y-119661380D01*
X138650414Y-119613761D01*
X138602795Y-119566142D01*
X138555176Y-119470904D01*
X138555176Y-119375666D01*
X138602795Y-119280428D01*
X138650414Y-119232809D01*
X138745652Y-119185190D01*
X138936128Y-119137571D01*
X139031366Y-119089952D01*
X139078985Y-119042333D01*
X139126604Y-118947095D01*
X139126604Y-118851857D01*
X139078985Y-118756619D01*
X139031366Y-118709000D01*
X138936128Y-118661380D01*
X138698033Y-118661380D01*
X138555176Y-118709000D01*
X138221842Y-118661380D02*
X137602795Y-118661380D01*
X137936128Y-119042333D01*
X137793271Y-119042333D01*
X137698033Y-119089952D01*
X137650414Y-119137571D01*
X137602795Y-119232809D01*
X137602795Y-119470904D01*
X137650414Y-119566142D01*
X137698033Y-119613761D01*
X137793271Y-119661380D01*
X138078985Y-119661380D01*
X138174223Y-119613761D01*
X138221842Y-119566142D01*
X136650414Y-119661380D02*
X137221842Y-119661380D01*
X136936128Y-119661380D02*
X136936128Y-118661380D01*
X137031366Y-118804238D01*
X137126604Y-118899476D01*
X137221842Y-118947095D01*
X135793271Y-118661380D02*
X135983747Y-118661380D01*
X136078985Y-118709000D01*
X136126604Y-118756619D01*
X136221842Y-118899476D01*
X136269461Y-119089952D01*
X136269461Y-119470904D01*
X136221842Y-119566142D01*
X136174223Y-119613761D01*
X136078985Y-119661380D01*
X135888509Y-119661380D01*
X135793271Y-119613761D01*
X135745652Y-119566142D01*
X135698033Y-119470904D01*
X135698033Y-119232809D01*
X135745652Y-119137571D01*
X135793271Y-119089952D01*
X135888509Y-119042333D01*
X136078985Y-119042333D01*
X136174223Y-119089952D01*
X136221842Y-119137571D01*
X136269461Y-119232809D01*
X135269461Y-119661380D02*
X135269461Y-118661380D01*
X134698033Y-119661380D01*
X134698033Y-118661380D01*
D12*
X132832319Y-119482809D02*
X132879938Y-119459000D01*
X132927557Y-119411380D01*
X132998985Y-119339952D01*
X133046604Y-119316142D01*
X133094223Y-119316142D01*
X133070414Y-119435190D02*
X133118033Y-119411380D01*
X133165652Y-119363761D01*
X133189461Y-119268523D01*
X133189461Y-119101857D01*
X133165652Y-119006619D01*
X133118033Y-118959000D01*
X133070414Y-118935190D01*
X132975176Y-118935190D01*
X132927557Y-118959000D01*
X132879938Y-119006619D01*
X132856128Y-119101857D01*
X132856128Y-119268523D01*
X132879938Y-119363761D01*
X132927557Y-119411380D01*
X132975176Y-119435190D01*
X133070414Y-119435190D01*
X132427557Y-119101857D02*
X132427557Y-119435190D01*
X132546604Y-118911380D02*
X132665652Y-119268523D01*
X132356128Y-119268523D01*
%TO.C,Q3*%
D11*
X139682033Y-108723571D02*
X139539176Y-108771190D01*
X139491557Y-108818809D01*
X139443938Y-108914047D01*
X139443938Y-109056904D01*
X139491557Y-109152142D01*
X139539176Y-109199761D01*
X139634414Y-109247380D01*
X140015366Y-109247380D01*
X140015366Y-108247380D01*
X139682033Y-108247380D01*
X139586795Y-108295000D01*
X139539176Y-108342619D01*
X139491557Y-108437857D01*
X139491557Y-108533095D01*
X139539176Y-108628333D01*
X139586795Y-108675952D01*
X139682033Y-108723571D01*
X140015366Y-108723571D01*
X139062985Y-109199761D02*
X138920128Y-109247380D01*
X138682033Y-109247380D01*
X138586795Y-109199761D01*
X138539176Y-109152142D01*
X138491557Y-109056904D01*
X138491557Y-108961666D01*
X138539176Y-108866428D01*
X138586795Y-108818809D01*
X138682033Y-108771190D01*
X138872509Y-108723571D01*
X138967747Y-108675952D01*
X139015366Y-108628333D01*
X139062985Y-108533095D01*
X139062985Y-108437857D01*
X139015366Y-108342619D01*
X138967747Y-108295000D01*
X138872509Y-108247380D01*
X138634414Y-108247380D01*
X138491557Y-108295000D01*
X138110604Y-109199761D02*
X137967747Y-109247380D01*
X137729652Y-109247380D01*
X137634414Y-109199761D01*
X137586795Y-109152142D01*
X137539176Y-109056904D01*
X137539176Y-108961666D01*
X137586795Y-108866428D01*
X137634414Y-108818809D01*
X137729652Y-108771190D01*
X137920128Y-108723571D01*
X138015366Y-108675952D01*
X138062985Y-108628333D01*
X138110604Y-108533095D01*
X138110604Y-108437857D01*
X138062985Y-108342619D01*
X138015366Y-108295000D01*
X137920128Y-108247380D01*
X137682033Y-108247380D01*
X137539176Y-108295000D01*
X137205842Y-108247380D02*
X136586795Y-108247380D01*
X136920128Y-108628333D01*
X136777271Y-108628333D01*
X136682033Y-108675952D01*
X136634414Y-108723571D01*
X136586795Y-108818809D01*
X136586795Y-109056904D01*
X136634414Y-109152142D01*
X136682033Y-109199761D01*
X136777271Y-109247380D01*
X137062985Y-109247380D01*
X137158223Y-109199761D01*
X137205842Y-109152142D01*
X135634414Y-109247380D02*
X136205842Y-109247380D01*
X135920128Y-109247380D02*
X135920128Y-108247380D01*
X136015366Y-108390238D01*
X136110604Y-108485476D01*
X136205842Y-108533095D01*
X134777271Y-108247380D02*
X134967747Y-108247380D01*
X135062985Y-108295000D01*
X135110604Y-108342619D01*
X135205842Y-108485476D01*
X135253461Y-108675952D01*
X135253461Y-109056904D01*
X135205842Y-109152142D01*
X135158223Y-109199761D01*
X135062985Y-109247380D01*
X134872509Y-109247380D01*
X134777271Y-109199761D01*
X134729652Y-109152142D01*
X134682033Y-109056904D01*
X134682033Y-108818809D01*
X134729652Y-108723571D01*
X134777271Y-108675952D01*
X134872509Y-108628333D01*
X135062985Y-108628333D01*
X135158223Y-108675952D01*
X135205842Y-108723571D01*
X135253461Y-108818809D01*
X134253461Y-109247380D02*
X134253461Y-108247380D01*
X133682033Y-109247380D01*
X133682033Y-108247380D01*
D12*
X132804509Y-108747380D02*
X132780700Y-108699761D01*
X132733080Y-108652142D01*
X132661652Y-108580714D01*
X132637842Y-108533095D01*
X132637842Y-108485476D01*
X132756890Y-108509285D02*
X132733080Y-108461666D01*
X132685461Y-108414047D01*
X132590223Y-108390238D01*
X132423557Y-108390238D01*
X132328319Y-108414047D01*
X132280700Y-108461666D01*
X132256890Y-108509285D01*
X132256890Y-108604523D01*
X132280700Y-108652142D01*
X132328319Y-108699761D01*
X132423557Y-108723571D01*
X132590223Y-108723571D01*
X132685461Y-108699761D01*
X132733080Y-108652142D01*
X132756890Y-108604523D01*
X132756890Y-108509285D01*
X132256890Y-108890238D02*
X132256890Y-109199761D01*
X132447366Y-109033095D01*
X132447366Y-109104523D01*
X132471176Y-109152142D01*
X132494985Y-109175952D01*
X132542604Y-109199761D01*
X132661652Y-109199761D01*
X132709271Y-109175952D01*
X132733080Y-109152142D01*
X132756890Y-109104523D01*
X132756890Y-108961666D01*
X132733080Y-108914047D01*
X132709271Y-108890238D01*
%TO.C,Q2*%
D11*
X140444033Y-93737571D02*
X140301176Y-93785190D01*
X140253557Y-93832809D01*
X140205938Y-93928047D01*
X140205938Y-94070904D01*
X140253557Y-94166142D01*
X140301176Y-94213761D01*
X140396414Y-94261380D01*
X140777366Y-94261380D01*
X140777366Y-93261380D01*
X140444033Y-93261380D01*
X140348795Y-93309000D01*
X140301176Y-93356619D01*
X140253557Y-93451857D01*
X140253557Y-93547095D01*
X140301176Y-93642333D01*
X140348795Y-93689952D01*
X140444033Y-93737571D01*
X140777366Y-93737571D01*
X139824985Y-94213761D02*
X139682128Y-94261380D01*
X139444033Y-94261380D01*
X139348795Y-94213761D01*
X139301176Y-94166142D01*
X139253557Y-94070904D01*
X139253557Y-93975666D01*
X139301176Y-93880428D01*
X139348795Y-93832809D01*
X139444033Y-93785190D01*
X139634509Y-93737571D01*
X139729747Y-93689952D01*
X139777366Y-93642333D01*
X139824985Y-93547095D01*
X139824985Y-93451857D01*
X139777366Y-93356619D01*
X139729747Y-93309000D01*
X139634509Y-93261380D01*
X139396414Y-93261380D01*
X139253557Y-93309000D01*
X138872604Y-94213761D02*
X138729747Y-94261380D01*
X138491652Y-94261380D01*
X138396414Y-94213761D01*
X138348795Y-94166142D01*
X138301176Y-94070904D01*
X138301176Y-93975666D01*
X138348795Y-93880428D01*
X138396414Y-93832809D01*
X138491652Y-93785190D01*
X138682128Y-93737571D01*
X138777366Y-93689952D01*
X138824985Y-93642333D01*
X138872604Y-93547095D01*
X138872604Y-93451857D01*
X138824985Y-93356619D01*
X138777366Y-93309000D01*
X138682128Y-93261380D01*
X138444033Y-93261380D01*
X138301176Y-93309000D01*
X137967842Y-93261380D02*
X137348795Y-93261380D01*
X137682128Y-93642333D01*
X137539271Y-93642333D01*
X137444033Y-93689952D01*
X137396414Y-93737571D01*
X137348795Y-93832809D01*
X137348795Y-94070904D01*
X137396414Y-94166142D01*
X137444033Y-94213761D01*
X137539271Y-94261380D01*
X137824985Y-94261380D01*
X137920223Y-94213761D01*
X137967842Y-94166142D01*
X136396414Y-94261380D02*
X136967842Y-94261380D01*
X136682128Y-94261380D02*
X136682128Y-93261380D01*
X136777366Y-93404238D01*
X136872604Y-93499476D01*
X136967842Y-93547095D01*
X135539271Y-93261380D02*
X135729747Y-93261380D01*
X135824985Y-93309000D01*
X135872604Y-93356619D01*
X135967842Y-93499476D01*
X136015461Y-93689952D01*
X136015461Y-94070904D01*
X135967842Y-94166142D01*
X135920223Y-94213761D01*
X135824985Y-94261380D01*
X135634509Y-94261380D01*
X135539271Y-94213761D01*
X135491652Y-94166142D01*
X135444033Y-94070904D01*
X135444033Y-93832809D01*
X135491652Y-93737571D01*
X135539271Y-93689952D01*
X135634509Y-93642333D01*
X135824985Y-93642333D01*
X135920223Y-93689952D01*
X135967842Y-93737571D01*
X136015461Y-93832809D01*
X135015461Y-94261380D02*
X135015461Y-93261380D01*
X134444033Y-94261380D01*
X134444033Y-93261380D01*
D12*
X132578319Y-94082809D02*
X132625938Y-94059000D01*
X132673557Y-94011380D01*
X132744985Y-93939952D01*
X132792604Y-93916142D01*
X132840223Y-93916142D01*
X132816414Y-94035190D02*
X132864033Y-94011380D01*
X132911652Y-93963761D01*
X132935461Y-93868523D01*
X132935461Y-93701857D01*
X132911652Y-93606619D01*
X132864033Y-93559000D01*
X132816414Y-93535190D01*
X132721176Y-93535190D01*
X132673557Y-93559000D01*
X132625938Y-93606619D01*
X132602128Y-93701857D01*
X132602128Y-93868523D01*
X132625938Y-93963761D01*
X132673557Y-94011380D01*
X132721176Y-94035190D01*
X132816414Y-94035190D01*
X132411652Y-93582809D02*
X132387842Y-93559000D01*
X132340223Y-93535190D01*
X132221176Y-93535190D01*
X132173557Y-93559000D01*
X132149747Y-93582809D01*
X132125938Y-93630428D01*
X132125938Y-93678047D01*
X132149747Y-93749476D01*
X132435461Y-94035190D01*
X132125938Y-94035190D01*
%TO.C,Q1*%
D11*
X140190033Y-83069571D02*
X140047176Y-83117190D01*
X139999557Y-83164809D01*
X139951938Y-83260047D01*
X139951938Y-83402904D01*
X139999557Y-83498142D01*
X140047176Y-83545761D01*
X140142414Y-83593380D01*
X140523366Y-83593380D01*
X140523366Y-82593380D01*
X140190033Y-82593380D01*
X140094795Y-82641000D01*
X140047176Y-82688619D01*
X139999557Y-82783857D01*
X139999557Y-82879095D01*
X140047176Y-82974333D01*
X140094795Y-83021952D01*
X140190033Y-83069571D01*
X140523366Y-83069571D01*
X139570985Y-83545761D02*
X139428128Y-83593380D01*
X139190033Y-83593380D01*
X139094795Y-83545761D01*
X139047176Y-83498142D01*
X138999557Y-83402904D01*
X138999557Y-83307666D01*
X139047176Y-83212428D01*
X139094795Y-83164809D01*
X139190033Y-83117190D01*
X139380509Y-83069571D01*
X139475747Y-83021952D01*
X139523366Y-82974333D01*
X139570985Y-82879095D01*
X139570985Y-82783857D01*
X139523366Y-82688619D01*
X139475747Y-82641000D01*
X139380509Y-82593380D01*
X139142414Y-82593380D01*
X138999557Y-82641000D01*
X138618604Y-83545761D02*
X138475747Y-83593380D01*
X138237652Y-83593380D01*
X138142414Y-83545761D01*
X138094795Y-83498142D01*
X138047176Y-83402904D01*
X138047176Y-83307666D01*
X138094795Y-83212428D01*
X138142414Y-83164809D01*
X138237652Y-83117190D01*
X138428128Y-83069571D01*
X138523366Y-83021952D01*
X138570985Y-82974333D01*
X138618604Y-82879095D01*
X138618604Y-82783857D01*
X138570985Y-82688619D01*
X138523366Y-82641000D01*
X138428128Y-82593380D01*
X138190033Y-82593380D01*
X138047176Y-82641000D01*
X137713842Y-82593380D02*
X137094795Y-82593380D01*
X137428128Y-82974333D01*
X137285271Y-82974333D01*
X137190033Y-83021952D01*
X137142414Y-83069571D01*
X137094795Y-83164809D01*
X137094795Y-83402904D01*
X137142414Y-83498142D01*
X137190033Y-83545761D01*
X137285271Y-83593380D01*
X137570985Y-83593380D01*
X137666223Y-83545761D01*
X137713842Y-83498142D01*
X136142414Y-83593380D02*
X136713842Y-83593380D01*
X136428128Y-83593380D02*
X136428128Y-82593380D01*
X136523366Y-82736238D01*
X136618604Y-82831476D01*
X136713842Y-82879095D01*
X135285271Y-82593380D02*
X135475747Y-82593380D01*
X135570985Y-82641000D01*
X135618604Y-82688619D01*
X135713842Y-82831476D01*
X135761461Y-83021952D01*
X135761461Y-83402904D01*
X135713842Y-83498142D01*
X135666223Y-83545761D01*
X135570985Y-83593380D01*
X135380509Y-83593380D01*
X135285271Y-83545761D01*
X135237652Y-83498142D01*
X135190033Y-83402904D01*
X135190033Y-83164809D01*
X135237652Y-83069571D01*
X135285271Y-83021952D01*
X135380509Y-82974333D01*
X135570985Y-82974333D01*
X135666223Y-83021952D01*
X135713842Y-83069571D01*
X135761461Y-83164809D01*
X134761461Y-83593380D02*
X134761461Y-82593380D01*
X134190033Y-83593380D01*
X134190033Y-82593380D01*
D12*
X132324319Y-83414809D02*
X132371938Y-83391000D01*
X132419557Y-83343380D01*
X132490985Y-83271952D01*
X132538604Y-83248142D01*
X132586223Y-83248142D01*
X132562414Y-83367190D02*
X132610033Y-83343380D01*
X132657652Y-83295761D01*
X132681461Y-83200523D01*
X132681461Y-83033857D01*
X132657652Y-82938619D01*
X132610033Y-82891000D01*
X132562414Y-82867190D01*
X132467176Y-82867190D01*
X132419557Y-82891000D01*
X132371938Y-82938619D01*
X132348128Y-83033857D01*
X132348128Y-83200523D01*
X132371938Y-83295761D01*
X132419557Y-83343380D01*
X132467176Y-83367190D01*
X132562414Y-83367190D01*
X131871938Y-83367190D02*
X132157652Y-83367190D01*
X132014795Y-83367190D02*
X132014795Y-82867190D01*
X132062414Y-82938619D01*
X132110033Y-82986238D01*
X132157652Y-83010047D01*
%TO.C,R5*%
D11*
X130189080Y-116510333D02*
X130189080Y-115938904D01*
X130189080Y-116224619D02*
X129189080Y-116224619D01*
X129331938Y-116129380D01*
X129427176Y-116034142D01*
X129474795Y-115938904D01*
X129189080Y-117129380D02*
X129189080Y-117224619D01*
X129236700Y-117319857D01*
X129284319Y-117367476D01*
X129379557Y-117415095D01*
X129570033Y-117462714D01*
X129808128Y-117462714D01*
X129998604Y-117415095D01*
X130093842Y-117367476D01*
X130141461Y-117319857D01*
X130189080Y-117224619D01*
X130189080Y-117129380D01*
X130141461Y-117034142D01*
X130093842Y-116986523D01*
X129998604Y-116938904D01*
X129808128Y-116891285D01*
X129570033Y-116891285D01*
X129379557Y-116938904D01*
X129284319Y-116986523D01*
X129236700Y-117034142D01*
X129189080Y-117129380D01*
X129189080Y-118081761D02*
X129189080Y-118177000D01*
X129236700Y-118272238D01*
X129284319Y-118319857D01*
X129379557Y-118367476D01*
X129570033Y-118415095D01*
X129808128Y-118415095D01*
X129998604Y-118367476D01*
X130093842Y-118319857D01*
X130141461Y-118272238D01*
X130189080Y-118177000D01*
X130189080Y-118081761D01*
X130141461Y-117986523D01*
X130093842Y-117938904D01*
X129998604Y-117891285D01*
X129808128Y-117843666D01*
X129570033Y-117843666D01*
X129379557Y-117891285D01*
X129284319Y-117938904D01*
X129236700Y-117986523D01*
X129189080Y-118081761D01*
D13*
X130044652Y-119650333D02*
X129854176Y-119517000D01*
X130044652Y-119421761D02*
X129644652Y-119421761D01*
X129644652Y-119574142D01*
X129663700Y-119612238D01*
X129682747Y-119631285D01*
X129720842Y-119650333D01*
X129777985Y-119650333D01*
X129816080Y-119631285D01*
X129835128Y-119612238D01*
X129854176Y-119574142D01*
X129854176Y-119421761D01*
X129644652Y-120012238D02*
X129644652Y-119821761D01*
X129835128Y-119802714D01*
X129816080Y-119821761D01*
X129797033Y-119859857D01*
X129797033Y-119955095D01*
X129816080Y-119993190D01*
X129835128Y-120012238D01*
X129873223Y-120031285D01*
X129968461Y-120031285D01*
X130006557Y-120012238D01*
X130025604Y-119993190D01*
X130044652Y-119955095D01*
X130044652Y-119859857D01*
X130025604Y-119821761D01*
X130006557Y-119802714D01*
%TO.C,J1*%
D11*
X135192414Y-123058142D02*
X135240033Y-123105761D01*
X135382890Y-123153380D01*
X135478128Y-123153380D01*
X135620985Y-123105761D01*
X135716223Y-123010523D01*
X135763842Y-122915285D01*
X135811461Y-122724809D01*
X135811461Y-122581952D01*
X135763842Y-122391476D01*
X135716223Y-122296238D01*
X135620985Y-122201000D01*
X135478128Y-122153380D01*
X135382890Y-122153380D01*
X135240033Y-122201000D01*
X135192414Y-122248619D01*
X134620985Y-123153380D02*
X134716223Y-123105761D01*
X134763842Y-123058142D01*
X134811461Y-122962904D01*
X134811461Y-122677190D01*
X134763842Y-122581952D01*
X134716223Y-122534333D01*
X134620985Y-122486714D01*
X134478128Y-122486714D01*
X134382890Y-122534333D01*
X134335271Y-122581952D01*
X134287652Y-122677190D01*
X134287652Y-122962904D01*
X134335271Y-123058142D01*
X134382890Y-123105761D01*
X134478128Y-123153380D01*
X134620985Y-123153380D01*
X133859080Y-122486714D02*
X133859080Y-123153380D01*
X133859080Y-122581952D02*
X133811461Y-122534333D01*
X133716223Y-122486714D01*
X133573366Y-122486714D01*
X133478128Y-122534333D01*
X133430509Y-122629571D01*
X133430509Y-123153380D01*
X132954319Y-122486714D02*
X132954319Y-123153380D01*
X132954319Y-122581952D02*
X132906700Y-122534333D01*
X132811461Y-122486714D01*
X132668604Y-122486714D01*
X132573366Y-122534333D01*
X132525747Y-122629571D01*
X132525747Y-123153380D01*
X132287652Y-123248619D02*
X131525747Y-123248619D01*
X131097176Y-122153380D02*
X131001938Y-122153380D01*
X130906700Y-122201000D01*
X130859080Y-122248619D01*
X130811461Y-122343857D01*
X130763842Y-122534333D01*
X130763842Y-122772428D01*
X130811461Y-122962904D01*
X130859080Y-123058142D01*
X130906700Y-123105761D01*
X131001938Y-123153380D01*
X131097176Y-123153380D01*
X131192414Y-123105761D01*
X131240033Y-123058142D01*
X131287652Y-122962904D01*
X131335271Y-122772428D01*
X131335271Y-122534333D01*
X131287652Y-122343857D01*
X131240033Y-122248619D01*
X131192414Y-122201000D01*
X131097176Y-122153380D01*
X129811461Y-123153380D02*
X130382890Y-123153380D01*
X130097176Y-123153380D02*
X130097176Y-122153380D01*
X130192414Y-122296238D01*
X130287652Y-122391476D01*
X130382890Y-122439095D01*
X129478128Y-123153380D02*
X128954319Y-122486714D01*
X129478128Y-122486714D02*
X128954319Y-123153380D01*
X128382890Y-122153380D02*
X128287652Y-122153380D01*
X128192414Y-122201000D01*
X128144795Y-122248619D01*
X128097176Y-122343857D01*
X128049557Y-122534333D01*
X128049557Y-122772428D01*
X128097176Y-122962904D01*
X128144795Y-123058142D01*
X128192414Y-123105761D01*
X128287652Y-123153380D01*
X128382890Y-123153380D01*
X128478128Y-123105761D01*
X128525747Y-123058142D01*
X128573366Y-122962904D01*
X128620985Y-122772428D01*
X128620985Y-122534333D01*
X128573366Y-122343857D01*
X128525747Y-122248619D01*
X128478128Y-122201000D01*
X128382890Y-122153380D01*
X127716223Y-122153380D02*
X127049557Y-122153380D01*
X127478128Y-123153380D01*
X126906700Y-123248619D02*
X126144795Y-123248619D01*
X125573366Y-122629571D02*
X125906700Y-122629571D01*
X125906700Y-123153380D02*
X125906700Y-122153380D01*
X125430509Y-122153380D01*
X124668604Y-123105761D02*
X124763842Y-123153380D01*
X124954319Y-123153380D01*
X125049557Y-123105761D01*
X125097176Y-123010523D01*
X125097176Y-122629571D01*
X125049557Y-122534333D01*
X124954319Y-122486714D01*
X124763842Y-122486714D01*
X124668604Y-122534333D01*
X124620985Y-122629571D01*
X124620985Y-122724809D01*
X125097176Y-122820047D01*
X124192414Y-123153380D02*
X124192414Y-122486714D01*
X124192414Y-122581952D02*
X124144795Y-122534333D01*
X124049557Y-122486714D01*
X123906700Y-122486714D01*
X123811461Y-122534333D01*
X123763842Y-122629571D01*
X123763842Y-123153380D01*
X123763842Y-122629571D02*
X123716223Y-122534333D01*
X123620985Y-122486714D01*
X123478128Y-122486714D01*
X123382890Y-122534333D01*
X123335271Y-122629571D01*
X123335271Y-123153380D01*
X122430509Y-123153380D02*
X122430509Y-122629571D01*
X122478128Y-122534333D01*
X122573366Y-122486714D01*
X122763842Y-122486714D01*
X122859080Y-122534333D01*
X122430509Y-123105761D02*
X122525747Y-123153380D01*
X122763842Y-123153380D01*
X122859080Y-123105761D01*
X122906700Y-123010523D01*
X122906700Y-122915285D01*
X122859080Y-122820047D01*
X122763842Y-122772428D01*
X122525747Y-122772428D01*
X122430509Y-122724809D01*
X121811461Y-123153380D02*
X121906700Y-123105761D01*
X121954319Y-123010523D01*
X121954319Y-122153380D01*
X121049557Y-123105761D02*
X121144795Y-123153380D01*
X121335271Y-123153380D01*
X121430509Y-123105761D01*
X121478128Y-123010523D01*
X121478128Y-122629571D01*
X121430509Y-122534333D01*
X121335271Y-122486714D01*
X121144795Y-122486714D01*
X121049557Y-122534333D01*
X121001938Y-122629571D01*
X121001938Y-122724809D01*
X121478128Y-122820047D01*
X128740033Y-125853380D02*
X128740033Y-126567666D01*
X128787652Y-126710523D01*
X128882890Y-126805761D01*
X129025747Y-126853380D01*
X129120985Y-126853380D01*
X127740033Y-126853380D02*
X128311461Y-126853380D01*
X128025747Y-126853380D02*
X128025747Y-125853380D01*
X128120985Y-125996238D01*
X128216223Y-126091476D01*
X128311461Y-126139095D01*
%TO.C,Y1*%
X144539557Y-103310142D02*
X144587176Y-103357761D01*
X144730033Y-103405380D01*
X144825271Y-103405380D01*
X144968128Y-103357761D01*
X145063366Y-103262523D01*
X145110985Y-103167285D01*
X145158604Y-102976809D01*
X145158604Y-102833952D01*
X145110985Y-102643476D01*
X145063366Y-102548238D01*
X144968128Y-102453000D01*
X144825271Y-102405380D01*
X144730033Y-102405380D01*
X144587176Y-102453000D01*
X144539557Y-102500619D01*
X144110985Y-103405380D02*
X144110985Y-102738714D01*
X144110985Y-102929190D02*
X144063366Y-102833952D01*
X144015747Y-102786333D01*
X143920509Y-102738714D01*
X143825271Y-102738714D01*
X143587176Y-102738714D02*
X143349080Y-103405380D01*
X143110985Y-102738714D02*
X143349080Y-103405380D01*
X143444319Y-103643476D01*
X143491938Y-103691095D01*
X143587176Y-103738714D01*
X142777652Y-103357761D02*
X142682414Y-103405380D01*
X142491938Y-103405380D01*
X142396700Y-103357761D01*
X142349080Y-103262523D01*
X142349080Y-103214904D01*
X142396700Y-103119666D01*
X142491938Y-103072047D01*
X142634795Y-103072047D01*
X142730033Y-103024428D01*
X142777652Y-102929190D01*
X142777652Y-102881571D01*
X142730033Y-102786333D01*
X142634795Y-102738714D01*
X142491938Y-102738714D01*
X142396700Y-102786333D01*
X142063366Y-102738714D02*
X141682414Y-102738714D01*
X141920509Y-102405380D02*
X141920509Y-103262523D01*
X141872890Y-103357761D01*
X141777652Y-103405380D01*
X141682414Y-103405380D01*
X140920509Y-103405380D02*
X140920509Y-102881571D01*
X140968128Y-102786333D01*
X141063366Y-102738714D01*
X141253842Y-102738714D01*
X141349080Y-102786333D01*
X140920509Y-103357761D02*
X141015747Y-103405380D01*
X141253842Y-103405380D01*
X141349080Y-103357761D01*
X141396700Y-103262523D01*
X141396700Y-103167285D01*
X141349080Y-103072047D01*
X141253842Y-103024428D01*
X141015747Y-103024428D01*
X140920509Y-102976809D01*
X140301461Y-103405380D02*
X140396700Y-103357761D01*
X140444319Y-103262523D01*
X140444319Y-102405380D01*
X140158604Y-103500619D02*
X139396700Y-103500619D01*
X138634795Y-102453000D02*
X138730033Y-102405380D01*
X138872890Y-102405380D01*
X139015747Y-102453000D01*
X139110985Y-102548238D01*
X139158604Y-102643476D01*
X139206223Y-102833952D01*
X139206223Y-102976809D01*
X139158604Y-103167285D01*
X139110985Y-103262523D01*
X139015747Y-103357761D01*
X138872890Y-103405380D01*
X138777652Y-103405380D01*
X138634795Y-103357761D01*
X138587176Y-103310142D01*
X138587176Y-102976809D01*
X138777652Y-102976809D01*
X138158604Y-103405380D02*
X138158604Y-102405380D01*
X137587176Y-103405380D01*
X137587176Y-102405380D01*
X137110985Y-103405380D02*
X137110985Y-102405380D01*
X136872890Y-102405380D01*
X136730033Y-102453000D01*
X136634795Y-102548238D01*
X136587176Y-102643476D01*
X136539557Y-102833952D01*
X136539557Y-102976809D01*
X136587176Y-103167285D01*
X136634795Y-103262523D01*
X136730033Y-103357761D01*
X136872890Y-103405380D01*
X137110985Y-103405380D01*
X136158604Y-102500619D02*
X136110985Y-102453000D01*
X136015747Y-102405380D01*
X135777652Y-102405380D01*
X135682414Y-102453000D01*
X135634795Y-102500619D01*
X135587176Y-102595857D01*
X135587176Y-102691095D01*
X135634795Y-102833952D01*
X136206223Y-103405380D01*
X135587176Y-103405380D01*
X134730033Y-102738714D02*
X134730033Y-103405380D01*
X134968128Y-102357761D02*
X135206223Y-103072047D01*
X134587176Y-103072047D01*
D14*
X132413333Y-103234333D02*
X132413333Y-103567666D01*
X132646666Y-102867666D02*
X132413333Y-103234333D01*
X132180000Y-102867666D01*
X131580000Y-103567666D02*
X131980000Y-103567666D01*
X131780000Y-103567666D02*
X131780000Y-102867666D01*
X131846666Y-102967666D01*
X131913333Y-103034333D01*
X131980000Y-103067666D01*
%TO.C,U7*%
D11*
X123830223Y-102103666D02*
X123354033Y-102103666D01*
X123925461Y-102389380D02*
X123592128Y-101389380D01*
X123258795Y-102389380D01*
X123068319Y-101389380D02*
X122496890Y-101389380D01*
X122782604Y-102389380D02*
X122782604Y-101389380D01*
X122163557Y-102389380D02*
X122163557Y-101722714D01*
X122163557Y-101817952D02*
X122115938Y-101770333D01*
X122020700Y-101722714D01*
X121877842Y-101722714D01*
X121782604Y-101770333D01*
X121734985Y-101865571D01*
X121734985Y-102389380D01*
X121734985Y-101865571D02*
X121687366Y-101770333D01*
X121592128Y-101722714D01*
X121449271Y-101722714D01*
X121354033Y-101770333D01*
X121306414Y-101865571D01*
X121306414Y-102389380D01*
X120449271Y-102341761D02*
X120544509Y-102389380D01*
X120734985Y-102389380D01*
X120830223Y-102341761D01*
X120877842Y-102246523D01*
X120877842Y-101865571D01*
X120830223Y-101770333D01*
X120734985Y-101722714D01*
X120544509Y-101722714D01*
X120449271Y-101770333D01*
X120401652Y-101865571D01*
X120401652Y-101960809D01*
X120877842Y-102056047D01*
X119544509Y-101722714D02*
X119544509Y-102532238D01*
X119592128Y-102627476D01*
X119639747Y-102675095D01*
X119734985Y-102722714D01*
X119877842Y-102722714D01*
X119973080Y-102675095D01*
X119544509Y-102341761D02*
X119639747Y-102389380D01*
X119830223Y-102389380D01*
X119925461Y-102341761D01*
X119973080Y-102294142D01*
X120020700Y-102198904D01*
X120020700Y-101913190D01*
X119973080Y-101817952D01*
X119925461Y-101770333D01*
X119830223Y-101722714D01*
X119639747Y-101722714D01*
X119544509Y-101770333D01*
X118639747Y-102389380D02*
X118639747Y-101865571D01*
X118687366Y-101770333D01*
X118782604Y-101722714D01*
X118973080Y-101722714D01*
X119068319Y-101770333D01*
X118639747Y-102341761D02*
X118734985Y-102389380D01*
X118973080Y-102389380D01*
X119068319Y-102341761D01*
X119115938Y-102246523D01*
X119115938Y-102151285D01*
X119068319Y-102056047D01*
X118973080Y-102008428D01*
X118734985Y-102008428D01*
X118639747Y-101960809D01*
X117734985Y-101722714D02*
X117734985Y-102389380D01*
X117973080Y-101341761D02*
X118211176Y-102056047D01*
X117592128Y-102056047D01*
X117068319Y-101817952D02*
X117163557Y-101770333D01*
X117211176Y-101722714D01*
X117258795Y-101627476D01*
X117258795Y-101579857D01*
X117211176Y-101484619D01*
X117163557Y-101437000D01*
X117068319Y-101389380D01*
X116877842Y-101389380D01*
X116782604Y-101437000D01*
X116734985Y-101484619D01*
X116687366Y-101579857D01*
X116687366Y-101627476D01*
X116734985Y-101722714D01*
X116782604Y-101770333D01*
X116877842Y-101817952D01*
X117068319Y-101817952D01*
X117163557Y-101865571D01*
X117211176Y-101913190D01*
X117258795Y-102008428D01*
X117258795Y-102198904D01*
X117211176Y-102294142D01*
X117163557Y-102341761D01*
X117068319Y-102389380D01*
X116877842Y-102389380D01*
X116782604Y-102341761D01*
X116734985Y-102294142D01*
X116687366Y-102198904D01*
X116687366Y-102008428D01*
X116734985Y-101913190D01*
X116782604Y-101865571D01*
X116877842Y-101817952D01*
X116258795Y-102389380D02*
X116258795Y-101389380D01*
X115877842Y-101389380D01*
X115782604Y-101437000D01*
X115734985Y-101484619D01*
X115687366Y-101579857D01*
X115687366Y-101722714D01*
X115734985Y-101817952D01*
X115782604Y-101865571D01*
X115877842Y-101913190D01*
X116258795Y-101913190D01*
X115258795Y-102008428D02*
X114496890Y-102008428D01*
X114068319Y-101484619D02*
X114020700Y-101437000D01*
X113925461Y-101389380D01*
X113687366Y-101389380D01*
X113592128Y-101437000D01*
X113544509Y-101484619D01*
X113496890Y-101579857D01*
X113496890Y-101675095D01*
X113544509Y-101817952D01*
X114115938Y-102389380D01*
X113496890Y-102389380D01*
X112877842Y-101389380D02*
X112782604Y-101389380D01*
X112687366Y-101437000D01*
X112639747Y-101484619D01*
X112592128Y-101579857D01*
X112544509Y-101770333D01*
X112544509Y-102008428D01*
X112592128Y-102198904D01*
X112639747Y-102294142D01*
X112687366Y-102341761D01*
X112782604Y-102389380D01*
X112877842Y-102389380D01*
X112973080Y-102341761D01*
X113020700Y-102294142D01*
X113068319Y-102198904D01*
X113115938Y-102008428D01*
X113115938Y-101770333D01*
X113068319Y-101579857D01*
X113020700Y-101484619D01*
X112973080Y-101437000D01*
X112877842Y-101389380D01*
X112115938Y-102389380D02*
X112115938Y-101389380D01*
X111782604Y-102103666D01*
X111449271Y-101389380D01*
X111449271Y-102389380D01*
X110973080Y-102389380D02*
X110973080Y-101389380D01*
X110639747Y-102103666D01*
X110306414Y-101389380D01*
X110306414Y-102389380D01*
X109830223Y-102389380D02*
X109830223Y-101389380D01*
X109830223Y-101865571D02*
X109258795Y-101865571D01*
X109258795Y-102389380D02*
X109258795Y-101389380D01*
X108211176Y-102389380D02*
X108544509Y-101913190D01*
X108782604Y-102389380D02*
X108782604Y-101389380D01*
X108401652Y-101389380D01*
X108306414Y-101437000D01*
X108258795Y-101484619D01*
X108211176Y-101579857D01*
X108211176Y-101722714D01*
X108258795Y-101817952D01*
X108306414Y-101865571D01*
X108401652Y-101913190D01*
X108782604Y-101913190D01*
X127196604Y-101389380D02*
X127196604Y-102198904D01*
X127148985Y-102294142D01*
X127101366Y-102341761D01*
X127006128Y-102389380D01*
X126815652Y-102389380D01*
X126720414Y-102341761D01*
X126672795Y-102294142D01*
X126625176Y-102198904D01*
X126625176Y-101389380D01*
X126244223Y-101389380D02*
X125577557Y-101389380D01*
X126006128Y-102389380D01*
%TO.C,R28*%
X124428095Y-111213619D02*
X124380476Y-111166000D01*
X124285238Y-111118380D01*
X124047142Y-111118380D01*
X123951904Y-111166000D01*
X123904285Y-111213619D01*
X123856666Y-111308857D01*
X123856666Y-111404095D01*
X123904285Y-111546952D01*
X124475714Y-112118380D01*
X123856666Y-112118380D01*
X123475714Y-111213619D02*
X123428095Y-111166000D01*
X123332857Y-111118380D01*
X123094761Y-111118380D01*
X122999523Y-111166000D01*
X122951904Y-111213619D01*
X122904285Y-111308857D01*
X122904285Y-111404095D01*
X122951904Y-111546952D01*
X123523333Y-112118380D01*
X122904285Y-112118380D01*
X122285238Y-111118380D02*
X122190000Y-111118380D01*
X122094761Y-111166000D01*
X122047142Y-111213619D01*
X121999523Y-111308857D01*
X121951904Y-111499333D01*
X121951904Y-111737428D01*
X121999523Y-111927904D01*
X122047142Y-112023142D01*
X122094761Y-112070761D01*
X122190000Y-112118380D01*
X122285238Y-112118380D01*
X122380476Y-112070761D01*
X122428095Y-112023142D01*
X122475714Y-111927904D01*
X122523333Y-111737428D01*
X122523333Y-111499333D01*
X122475714Y-111308857D01*
X122428095Y-111213619D01*
X122380476Y-111166000D01*
X122285238Y-111118380D01*
D13*
X123447142Y-110416952D02*
X123580476Y-110226476D01*
X123675714Y-110416952D02*
X123675714Y-110016952D01*
X123523333Y-110016952D01*
X123485238Y-110036000D01*
X123466190Y-110055047D01*
X123447142Y-110093142D01*
X123447142Y-110150285D01*
X123466190Y-110188380D01*
X123485238Y-110207428D01*
X123523333Y-110226476D01*
X123675714Y-110226476D01*
X123294761Y-110055047D02*
X123275714Y-110036000D01*
X123237619Y-110016952D01*
X123142380Y-110016952D01*
X123104285Y-110036000D01*
X123085238Y-110055047D01*
X123066190Y-110093142D01*
X123066190Y-110131238D01*
X123085238Y-110188380D01*
X123313809Y-110416952D01*
X123066190Y-110416952D01*
X122837619Y-110188380D02*
X122875714Y-110169333D01*
X122894761Y-110150285D01*
X122913809Y-110112190D01*
X122913809Y-110093142D01*
X122894761Y-110055047D01*
X122875714Y-110036000D01*
X122837619Y-110016952D01*
X122761428Y-110016952D01*
X122723333Y-110036000D01*
X122704285Y-110055047D01*
X122685238Y-110093142D01*
X122685238Y-110112190D01*
X122704285Y-110150285D01*
X122723333Y-110169333D01*
X122761428Y-110188380D01*
X122837619Y-110188380D01*
X122875714Y-110207428D01*
X122894761Y-110226476D01*
X122913809Y-110264571D01*
X122913809Y-110340761D01*
X122894761Y-110378857D01*
X122875714Y-110397904D01*
X122837619Y-110416952D01*
X122761428Y-110416952D01*
X122723333Y-110397904D01*
X122704285Y-110378857D01*
X122685238Y-110340761D01*
X122685238Y-110264571D01*
X122704285Y-110226476D01*
X122723333Y-110207428D01*
X122761428Y-110188380D01*
%TO.C,R27*%
D11*
X124428095Y-113753619D02*
X124380476Y-113706000D01*
X124285238Y-113658380D01*
X124047142Y-113658380D01*
X123951904Y-113706000D01*
X123904285Y-113753619D01*
X123856666Y-113848857D01*
X123856666Y-113944095D01*
X123904285Y-114086952D01*
X124475714Y-114658380D01*
X123856666Y-114658380D01*
X123475714Y-113753619D02*
X123428095Y-113706000D01*
X123332857Y-113658380D01*
X123094761Y-113658380D01*
X122999523Y-113706000D01*
X122951904Y-113753619D01*
X122904285Y-113848857D01*
X122904285Y-113944095D01*
X122951904Y-114086952D01*
X123523333Y-114658380D01*
X122904285Y-114658380D01*
X122285238Y-113658380D02*
X122190000Y-113658380D01*
X122094761Y-113706000D01*
X122047142Y-113753619D01*
X121999523Y-113848857D01*
X121951904Y-114039333D01*
X121951904Y-114277428D01*
X121999523Y-114467904D01*
X122047142Y-114563142D01*
X122094761Y-114610761D01*
X122190000Y-114658380D01*
X122285238Y-114658380D01*
X122380476Y-114610761D01*
X122428095Y-114563142D01*
X122475714Y-114467904D01*
X122523333Y-114277428D01*
X122523333Y-114039333D01*
X122475714Y-113848857D01*
X122428095Y-113753619D01*
X122380476Y-113706000D01*
X122285238Y-113658380D01*
D13*
X123447142Y-112956952D02*
X123580476Y-112766476D01*
X123675714Y-112956952D02*
X123675714Y-112556952D01*
X123523333Y-112556952D01*
X123485238Y-112576000D01*
X123466190Y-112595047D01*
X123447142Y-112633142D01*
X123447142Y-112690285D01*
X123466190Y-112728380D01*
X123485238Y-112747428D01*
X123523333Y-112766476D01*
X123675714Y-112766476D01*
X123294761Y-112595047D02*
X123275714Y-112576000D01*
X123237619Y-112556952D01*
X123142380Y-112556952D01*
X123104285Y-112576000D01*
X123085238Y-112595047D01*
X123066190Y-112633142D01*
X123066190Y-112671238D01*
X123085238Y-112728380D01*
X123313809Y-112956952D01*
X123066190Y-112956952D01*
X122932857Y-112556952D02*
X122666190Y-112556952D01*
X122837619Y-112956952D01*
%TO.C,R26*%
D11*
X137070795Y-114692619D02*
X137023176Y-114645000D01*
X136927938Y-114597380D01*
X136689842Y-114597380D01*
X136594604Y-114645000D01*
X136546985Y-114692619D01*
X136499366Y-114787857D01*
X136499366Y-114883095D01*
X136546985Y-115025952D01*
X137118414Y-115597380D01*
X136499366Y-115597380D01*
X136118414Y-114692619D02*
X136070795Y-114645000D01*
X135975557Y-114597380D01*
X135737461Y-114597380D01*
X135642223Y-114645000D01*
X135594604Y-114692619D01*
X135546985Y-114787857D01*
X135546985Y-114883095D01*
X135594604Y-115025952D01*
X136166033Y-115597380D01*
X135546985Y-115597380D01*
X134927938Y-114597380D02*
X134832700Y-114597380D01*
X134737461Y-114645000D01*
X134689842Y-114692619D01*
X134642223Y-114787857D01*
X134594604Y-114978333D01*
X134594604Y-115216428D01*
X134642223Y-115406904D01*
X134689842Y-115502142D01*
X134737461Y-115549761D01*
X134832700Y-115597380D01*
X134927938Y-115597380D01*
X135023176Y-115549761D01*
X135070795Y-115502142D01*
X135118414Y-115406904D01*
X135166033Y-115216428D01*
X135166033Y-114978333D01*
X135118414Y-114787857D01*
X135070795Y-114692619D01*
X135023176Y-114645000D01*
X134927938Y-114597380D01*
D13*
X133607142Y-115496952D02*
X133740476Y-115306476D01*
X133835714Y-115496952D02*
X133835714Y-115096952D01*
X133683333Y-115096952D01*
X133645238Y-115116000D01*
X133626190Y-115135047D01*
X133607142Y-115173142D01*
X133607142Y-115230285D01*
X133626190Y-115268380D01*
X133645238Y-115287428D01*
X133683333Y-115306476D01*
X133835714Y-115306476D01*
X133454761Y-115135047D02*
X133435714Y-115116000D01*
X133397619Y-115096952D01*
X133302380Y-115096952D01*
X133264285Y-115116000D01*
X133245238Y-115135047D01*
X133226190Y-115173142D01*
X133226190Y-115211238D01*
X133245238Y-115268380D01*
X133473809Y-115496952D01*
X133226190Y-115496952D01*
X132883333Y-115096952D02*
X132959523Y-115096952D01*
X132997619Y-115116000D01*
X133016666Y-115135047D01*
X133054761Y-115192190D01*
X133073809Y-115268380D01*
X133073809Y-115420761D01*
X133054761Y-115458857D01*
X133035714Y-115477904D01*
X132997619Y-115496952D01*
X132921428Y-115496952D01*
X132883333Y-115477904D01*
X132864285Y-115458857D01*
X132845238Y-115420761D01*
X132845238Y-115325523D01*
X132864285Y-115287428D01*
X132883333Y-115268380D01*
X132921428Y-115249333D01*
X132997619Y-115249333D01*
X133035714Y-115268380D01*
X133054761Y-115287428D01*
X133073809Y-115325523D01*
%TO.C,R25*%
D11*
X130974795Y-88276619D02*
X130927176Y-88229000D01*
X130831938Y-88181380D01*
X130593842Y-88181380D01*
X130498604Y-88229000D01*
X130450985Y-88276619D01*
X130403366Y-88371857D01*
X130403366Y-88467095D01*
X130450985Y-88609952D01*
X131022414Y-89181380D01*
X130403366Y-89181380D01*
X130022414Y-88276619D02*
X129974795Y-88229000D01*
X129879557Y-88181380D01*
X129641461Y-88181380D01*
X129546223Y-88229000D01*
X129498604Y-88276619D01*
X129450985Y-88371857D01*
X129450985Y-88467095D01*
X129498604Y-88609952D01*
X130070033Y-89181380D01*
X129450985Y-89181380D01*
X128831938Y-88181380D02*
X128736700Y-88181380D01*
X128641461Y-88229000D01*
X128593842Y-88276619D01*
X128546223Y-88371857D01*
X128498604Y-88562333D01*
X128498604Y-88800428D01*
X128546223Y-88990904D01*
X128593842Y-89086142D01*
X128641461Y-89133761D01*
X128736700Y-89181380D01*
X128831938Y-89181380D01*
X128927176Y-89133761D01*
X128974795Y-89086142D01*
X129022414Y-88990904D01*
X129070033Y-88800428D01*
X129070033Y-88562333D01*
X129022414Y-88371857D01*
X128974795Y-88276619D01*
X128927176Y-88229000D01*
X128831938Y-88181380D01*
D13*
X132845142Y-88826952D02*
X132978476Y-88636476D01*
X133073714Y-88826952D02*
X133073714Y-88426952D01*
X132921333Y-88426952D01*
X132883238Y-88446000D01*
X132864190Y-88465047D01*
X132845142Y-88503142D01*
X132845142Y-88560285D01*
X132864190Y-88598380D01*
X132883238Y-88617428D01*
X132921333Y-88636476D01*
X133073714Y-88636476D01*
X132692761Y-88465047D02*
X132673714Y-88446000D01*
X132635619Y-88426952D01*
X132540380Y-88426952D01*
X132502285Y-88446000D01*
X132483238Y-88465047D01*
X132464190Y-88503142D01*
X132464190Y-88541238D01*
X132483238Y-88598380D01*
X132711809Y-88826952D01*
X132464190Y-88826952D01*
X132102285Y-88426952D02*
X132292761Y-88426952D01*
X132311809Y-88617428D01*
X132292761Y-88598380D01*
X132254666Y-88579333D01*
X132159428Y-88579333D01*
X132121333Y-88598380D01*
X132102285Y-88617428D01*
X132083238Y-88655523D01*
X132083238Y-88750761D01*
X132102285Y-88788857D01*
X132121333Y-88807904D01*
X132159428Y-88826952D01*
X132254666Y-88826952D01*
X132292761Y-88807904D01*
X132311809Y-88788857D01*
%TO.C,R24*%
D11*
X130974795Y-86752619D02*
X130927176Y-86705000D01*
X130831938Y-86657380D01*
X130593842Y-86657380D01*
X130498604Y-86705000D01*
X130450985Y-86752619D01*
X130403366Y-86847857D01*
X130403366Y-86943095D01*
X130450985Y-87085952D01*
X131022414Y-87657380D01*
X130403366Y-87657380D01*
X130022414Y-86752619D02*
X129974795Y-86705000D01*
X129879557Y-86657380D01*
X129641461Y-86657380D01*
X129546223Y-86705000D01*
X129498604Y-86752619D01*
X129450985Y-86847857D01*
X129450985Y-86943095D01*
X129498604Y-87085952D01*
X130070033Y-87657380D01*
X129450985Y-87657380D01*
X128831938Y-86657380D02*
X128736700Y-86657380D01*
X128641461Y-86705000D01*
X128593842Y-86752619D01*
X128546223Y-86847857D01*
X128498604Y-87038333D01*
X128498604Y-87276428D01*
X128546223Y-87466904D01*
X128593842Y-87562142D01*
X128641461Y-87609761D01*
X128736700Y-87657380D01*
X128831938Y-87657380D01*
X128927176Y-87609761D01*
X128974795Y-87562142D01*
X129022414Y-87466904D01*
X129070033Y-87276428D01*
X129070033Y-87038333D01*
X129022414Y-86847857D01*
X128974795Y-86752619D01*
X128927176Y-86705000D01*
X128831938Y-86657380D01*
D13*
X132845142Y-87302952D02*
X132978476Y-87112476D01*
X133073714Y-87302952D02*
X133073714Y-86902952D01*
X132921333Y-86902952D01*
X132883238Y-86922000D01*
X132864190Y-86941047D01*
X132845142Y-86979142D01*
X132845142Y-87036285D01*
X132864190Y-87074380D01*
X132883238Y-87093428D01*
X132921333Y-87112476D01*
X133073714Y-87112476D01*
X132692761Y-86941047D02*
X132673714Y-86922000D01*
X132635619Y-86902952D01*
X132540380Y-86902952D01*
X132502285Y-86922000D01*
X132483238Y-86941047D01*
X132464190Y-86979142D01*
X132464190Y-87017238D01*
X132483238Y-87074380D01*
X132711809Y-87302952D01*
X132464190Y-87302952D01*
X132121333Y-87036285D02*
X132121333Y-87302952D01*
X132216571Y-86883904D02*
X132311809Y-87169619D01*
X132064190Y-87169619D01*
%TO.C,R23*%
D11*
X134334095Y-77873619D02*
X134286476Y-77826000D01*
X134191238Y-77778380D01*
X133953142Y-77778380D01*
X133857904Y-77826000D01*
X133810285Y-77873619D01*
X133762666Y-77968857D01*
X133762666Y-78064095D01*
X133810285Y-78206952D01*
X134381714Y-78778380D01*
X133762666Y-78778380D01*
X133381714Y-77873619D02*
X133334095Y-77826000D01*
X133238857Y-77778380D01*
X133000761Y-77778380D01*
X132905523Y-77826000D01*
X132857904Y-77873619D01*
X132810285Y-77968857D01*
X132810285Y-78064095D01*
X132857904Y-78206952D01*
X133429333Y-78778380D01*
X132810285Y-78778380D01*
X132191238Y-77778380D02*
X132096000Y-77778380D01*
X132000761Y-77826000D01*
X131953142Y-77873619D01*
X131905523Y-77968857D01*
X131857904Y-78159333D01*
X131857904Y-78397428D01*
X131905523Y-78587904D01*
X131953142Y-78683142D01*
X132000761Y-78730761D01*
X132096000Y-78778380D01*
X132191238Y-78778380D01*
X132286476Y-78730761D01*
X132334095Y-78683142D01*
X132381714Y-78587904D01*
X132429333Y-78397428D01*
X132429333Y-78159333D01*
X132381714Y-77968857D01*
X132334095Y-77873619D01*
X132286476Y-77826000D01*
X132191238Y-77778380D01*
D13*
X133353142Y-79936952D02*
X133486476Y-79746476D01*
X133581714Y-79936952D02*
X133581714Y-79536952D01*
X133429333Y-79536952D01*
X133391238Y-79556000D01*
X133372190Y-79575047D01*
X133353142Y-79613142D01*
X133353142Y-79670285D01*
X133372190Y-79708380D01*
X133391238Y-79727428D01*
X133429333Y-79746476D01*
X133581714Y-79746476D01*
X133200761Y-79575047D02*
X133181714Y-79556000D01*
X133143619Y-79536952D01*
X133048380Y-79536952D01*
X133010285Y-79556000D01*
X132991238Y-79575047D01*
X132972190Y-79613142D01*
X132972190Y-79651238D01*
X132991238Y-79708380D01*
X133219809Y-79936952D01*
X132972190Y-79936952D01*
X132838857Y-79536952D02*
X132591238Y-79536952D01*
X132724571Y-79689333D01*
X132667428Y-79689333D01*
X132629333Y-79708380D01*
X132610285Y-79727428D01*
X132591238Y-79765523D01*
X132591238Y-79860761D01*
X132610285Y-79898857D01*
X132629333Y-79917904D01*
X132667428Y-79936952D01*
X132781714Y-79936952D01*
X132819809Y-79917904D01*
X132838857Y-79898857D01*
%TO.C,R22*%
D11*
X124682095Y-90893619D02*
X124634476Y-90846000D01*
X124539238Y-90798380D01*
X124301142Y-90798380D01*
X124205904Y-90846000D01*
X124158285Y-90893619D01*
X124110666Y-90988857D01*
X124110666Y-91084095D01*
X124158285Y-91226952D01*
X124729714Y-91798380D01*
X124110666Y-91798380D01*
X123729714Y-90893619D02*
X123682095Y-90846000D01*
X123586857Y-90798380D01*
X123348761Y-90798380D01*
X123253523Y-90846000D01*
X123205904Y-90893619D01*
X123158285Y-90988857D01*
X123158285Y-91084095D01*
X123205904Y-91226952D01*
X123777333Y-91798380D01*
X123158285Y-91798380D01*
X122539238Y-90798380D02*
X122444000Y-90798380D01*
X122348761Y-90846000D01*
X122301142Y-90893619D01*
X122253523Y-90988857D01*
X122205904Y-91179333D01*
X122205904Y-91417428D01*
X122253523Y-91607904D01*
X122301142Y-91703142D01*
X122348761Y-91750761D01*
X122444000Y-91798380D01*
X122539238Y-91798380D01*
X122634476Y-91750761D01*
X122682095Y-91703142D01*
X122729714Y-91607904D01*
X122777333Y-91417428D01*
X122777333Y-91179333D01*
X122729714Y-90988857D01*
X122682095Y-90893619D01*
X122634476Y-90846000D01*
X122539238Y-90798380D01*
D13*
X123701142Y-90096952D02*
X123834476Y-89906476D01*
X123929714Y-90096952D02*
X123929714Y-89696952D01*
X123777333Y-89696952D01*
X123739238Y-89716000D01*
X123720190Y-89735047D01*
X123701142Y-89773142D01*
X123701142Y-89830285D01*
X123720190Y-89868380D01*
X123739238Y-89887428D01*
X123777333Y-89906476D01*
X123929714Y-89906476D01*
X123548761Y-89735047D02*
X123529714Y-89716000D01*
X123491619Y-89696952D01*
X123396380Y-89696952D01*
X123358285Y-89716000D01*
X123339238Y-89735047D01*
X123320190Y-89773142D01*
X123320190Y-89811238D01*
X123339238Y-89868380D01*
X123567809Y-90096952D01*
X123320190Y-90096952D01*
X123167809Y-89735047D02*
X123148761Y-89716000D01*
X123110666Y-89696952D01*
X123015428Y-89696952D01*
X122977333Y-89716000D01*
X122958285Y-89735047D01*
X122939238Y-89773142D01*
X122939238Y-89811238D01*
X122958285Y-89868380D01*
X123186857Y-90096952D01*
X122939238Y-90096952D01*
%TO.C,R21*%
D11*
X124682095Y-93433619D02*
X124634476Y-93386000D01*
X124539238Y-93338380D01*
X124301142Y-93338380D01*
X124205904Y-93386000D01*
X124158285Y-93433619D01*
X124110666Y-93528857D01*
X124110666Y-93624095D01*
X124158285Y-93766952D01*
X124729714Y-94338380D01*
X124110666Y-94338380D01*
X123729714Y-93433619D02*
X123682095Y-93386000D01*
X123586857Y-93338380D01*
X123348761Y-93338380D01*
X123253523Y-93386000D01*
X123205904Y-93433619D01*
X123158285Y-93528857D01*
X123158285Y-93624095D01*
X123205904Y-93766952D01*
X123777333Y-94338380D01*
X123158285Y-94338380D01*
X122539238Y-93338380D02*
X122444000Y-93338380D01*
X122348761Y-93386000D01*
X122301142Y-93433619D01*
X122253523Y-93528857D01*
X122205904Y-93719333D01*
X122205904Y-93957428D01*
X122253523Y-94147904D01*
X122301142Y-94243142D01*
X122348761Y-94290761D01*
X122444000Y-94338380D01*
X122539238Y-94338380D01*
X122634476Y-94290761D01*
X122682095Y-94243142D01*
X122729714Y-94147904D01*
X122777333Y-93957428D01*
X122777333Y-93719333D01*
X122729714Y-93528857D01*
X122682095Y-93433619D01*
X122634476Y-93386000D01*
X122539238Y-93338380D01*
D13*
X123701142Y-92636952D02*
X123834476Y-92446476D01*
X123929714Y-92636952D02*
X123929714Y-92236952D01*
X123777333Y-92236952D01*
X123739238Y-92256000D01*
X123720190Y-92275047D01*
X123701142Y-92313142D01*
X123701142Y-92370285D01*
X123720190Y-92408380D01*
X123739238Y-92427428D01*
X123777333Y-92446476D01*
X123929714Y-92446476D01*
X123548761Y-92275047D02*
X123529714Y-92256000D01*
X123491619Y-92236952D01*
X123396380Y-92236952D01*
X123358285Y-92256000D01*
X123339238Y-92275047D01*
X123320190Y-92313142D01*
X123320190Y-92351238D01*
X123339238Y-92408380D01*
X123567809Y-92636952D01*
X123320190Y-92636952D01*
X122939238Y-92636952D02*
X123167809Y-92636952D01*
X123053523Y-92636952D02*
X123053523Y-92236952D01*
X123091619Y-92294095D01*
X123129714Y-92332190D01*
X123167809Y-92351238D01*
%TO.C,R4*%
D11*
X124093080Y-116510333D02*
X124093080Y-115938904D01*
X124093080Y-116224619D02*
X123093080Y-116224619D01*
X123235938Y-116129380D01*
X123331176Y-116034142D01*
X123378795Y-115938904D01*
X123093080Y-117129380D02*
X123093080Y-117224619D01*
X123140700Y-117319857D01*
X123188319Y-117367476D01*
X123283557Y-117415095D01*
X123474033Y-117462714D01*
X123712128Y-117462714D01*
X123902604Y-117415095D01*
X123997842Y-117367476D01*
X124045461Y-117319857D01*
X124093080Y-117224619D01*
X124093080Y-117129380D01*
X124045461Y-117034142D01*
X123997842Y-116986523D01*
X123902604Y-116938904D01*
X123712128Y-116891285D01*
X123474033Y-116891285D01*
X123283557Y-116938904D01*
X123188319Y-116986523D01*
X123140700Y-117034142D01*
X123093080Y-117129380D01*
X123093080Y-118081761D02*
X123093080Y-118177000D01*
X123140700Y-118272238D01*
X123188319Y-118319857D01*
X123283557Y-118367476D01*
X123474033Y-118415095D01*
X123712128Y-118415095D01*
X123902604Y-118367476D01*
X123997842Y-118319857D01*
X124045461Y-118272238D01*
X124093080Y-118177000D01*
X124093080Y-118081761D01*
X124045461Y-117986523D01*
X123997842Y-117938904D01*
X123902604Y-117891285D01*
X123712128Y-117843666D01*
X123474033Y-117843666D01*
X123283557Y-117891285D01*
X123188319Y-117938904D01*
X123140700Y-117986523D01*
X123093080Y-118081761D01*
D13*
X123948652Y-119650333D02*
X123758176Y-119517000D01*
X123948652Y-119421761D02*
X123548652Y-119421761D01*
X123548652Y-119574142D01*
X123567700Y-119612238D01*
X123586747Y-119631285D01*
X123624842Y-119650333D01*
X123681985Y-119650333D01*
X123720080Y-119631285D01*
X123739128Y-119612238D01*
X123758176Y-119574142D01*
X123758176Y-119421761D01*
X123681985Y-119993190D02*
X123948652Y-119993190D01*
X123529604Y-119897952D02*
X123815319Y-119802714D01*
X123815319Y-120050333D01*
%TO.C,R3*%
D11*
X125617080Y-116510333D02*
X125617080Y-115938904D01*
X125617080Y-116224619D02*
X124617080Y-116224619D01*
X124759938Y-116129380D01*
X124855176Y-116034142D01*
X124902795Y-115938904D01*
X124617080Y-117129380D02*
X124617080Y-117224619D01*
X124664700Y-117319857D01*
X124712319Y-117367476D01*
X124807557Y-117415095D01*
X124998033Y-117462714D01*
X125236128Y-117462714D01*
X125426604Y-117415095D01*
X125521842Y-117367476D01*
X125569461Y-117319857D01*
X125617080Y-117224619D01*
X125617080Y-117129380D01*
X125569461Y-117034142D01*
X125521842Y-116986523D01*
X125426604Y-116938904D01*
X125236128Y-116891285D01*
X124998033Y-116891285D01*
X124807557Y-116938904D01*
X124712319Y-116986523D01*
X124664700Y-117034142D01*
X124617080Y-117129380D01*
X124617080Y-118081761D02*
X124617080Y-118177000D01*
X124664700Y-118272238D01*
X124712319Y-118319857D01*
X124807557Y-118367476D01*
X124998033Y-118415095D01*
X125236128Y-118415095D01*
X125426604Y-118367476D01*
X125521842Y-118319857D01*
X125569461Y-118272238D01*
X125617080Y-118177000D01*
X125617080Y-118081761D01*
X125569461Y-117986523D01*
X125521842Y-117938904D01*
X125426604Y-117891285D01*
X125236128Y-117843666D01*
X124998033Y-117843666D01*
X124807557Y-117891285D01*
X124712319Y-117938904D01*
X124664700Y-117986523D01*
X124617080Y-118081761D01*
D13*
X125472652Y-119650333D02*
X125282176Y-119517000D01*
X125472652Y-119421761D02*
X125072652Y-119421761D01*
X125072652Y-119574142D01*
X125091700Y-119612238D01*
X125110747Y-119631285D01*
X125148842Y-119650333D01*
X125205985Y-119650333D01*
X125244080Y-119631285D01*
X125263128Y-119612238D01*
X125282176Y-119574142D01*
X125282176Y-119421761D01*
X125072652Y-119783666D02*
X125072652Y-120031285D01*
X125225033Y-119897952D01*
X125225033Y-119955095D01*
X125244080Y-119993190D01*
X125263128Y-120012238D01*
X125301223Y-120031285D01*
X125396461Y-120031285D01*
X125434557Y-120012238D01*
X125453604Y-119993190D01*
X125472652Y-119955095D01*
X125472652Y-119840809D01*
X125453604Y-119802714D01*
X125434557Y-119783666D01*
%TO.C,R2*%
D11*
X128665080Y-116510333D02*
X128665080Y-115938904D01*
X128665080Y-116224619D02*
X127665080Y-116224619D01*
X127807938Y-116129380D01*
X127903176Y-116034142D01*
X127950795Y-115938904D01*
X127665080Y-117129380D02*
X127665080Y-117224619D01*
X127712700Y-117319857D01*
X127760319Y-117367476D01*
X127855557Y-117415095D01*
X128046033Y-117462714D01*
X128284128Y-117462714D01*
X128474604Y-117415095D01*
X128569842Y-117367476D01*
X128617461Y-117319857D01*
X128665080Y-117224619D01*
X128665080Y-117129380D01*
X128617461Y-117034142D01*
X128569842Y-116986523D01*
X128474604Y-116938904D01*
X128284128Y-116891285D01*
X128046033Y-116891285D01*
X127855557Y-116938904D01*
X127760319Y-116986523D01*
X127712700Y-117034142D01*
X127665080Y-117129380D01*
X127665080Y-118081761D02*
X127665080Y-118177000D01*
X127712700Y-118272238D01*
X127760319Y-118319857D01*
X127855557Y-118367476D01*
X128046033Y-118415095D01*
X128284128Y-118415095D01*
X128474604Y-118367476D01*
X128569842Y-118319857D01*
X128617461Y-118272238D01*
X128665080Y-118177000D01*
X128665080Y-118081761D01*
X128617461Y-117986523D01*
X128569842Y-117938904D01*
X128474604Y-117891285D01*
X128284128Y-117843666D01*
X128046033Y-117843666D01*
X127855557Y-117891285D01*
X127760319Y-117938904D01*
X127712700Y-117986523D01*
X127665080Y-118081761D01*
D13*
X128520652Y-119650333D02*
X128330176Y-119517000D01*
X128520652Y-119421761D02*
X128120652Y-119421761D01*
X128120652Y-119574142D01*
X128139700Y-119612238D01*
X128158747Y-119631285D01*
X128196842Y-119650333D01*
X128253985Y-119650333D01*
X128292080Y-119631285D01*
X128311128Y-119612238D01*
X128330176Y-119574142D01*
X128330176Y-119421761D01*
X128158747Y-119802714D02*
X128139700Y-119821761D01*
X128120652Y-119859857D01*
X128120652Y-119955095D01*
X128139700Y-119993190D01*
X128158747Y-120012238D01*
X128196842Y-120031285D01*
X128234938Y-120031285D01*
X128292080Y-120012238D01*
X128520652Y-119783666D01*
X128520652Y-120031285D01*
%TO.C,R1*%
D11*
X127141080Y-116510333D02*
X127141080Y-115938904D01*
X127141080Y-116224619D02*
X126141080Y-116224619D01*
X126283938Y-116129380D01*
X126379176Y-116034142D01*
X126426795Y-115938904D01*
X126141080Y-117129380D02*
X126141080Y-117224619D01*
X126188700Y-117319857D01*
X126236319Y-117367476D01*
X126331557Y-117415095D01*
X126522033Y-117462714D01*
X126760128Y-117462714D01*
X126950604Y-117415095D01*
X127045842Y-117367476D01*
X127093461Y-117319857D01*
X127141080Y-117224619D01*
X127141080Y-117129380D01*
X127093461Y-117034142D01*
X127045842Y-116986523D01*
X126950604Y-116938904D01*
X126760128Y-116891285D01*
X126522033Y-116891285D01*
X126331557Y-116938904D01*
X126236319Y-116986523D01*
X126188700Y-117034142D01*
X126141080Y-117129380D01*
X126141080Y-118081761D02*
X126141080Y-118177000D01*
X126188700Y-118272238D01*
X126236319Y-118319857D01*
X126331557Y-118367476D01*
X126522033Y-118415095D01*
X126760128Y-118415095D01*
X126950604Y-118367476D01*
X127045842Y-118319857D01*
X127093461Y-118272238D01*
X127141080Y-118177000D01*
X127141080Y-118081761D01*
X127093461Y-117986523D01*
X127045842Y-117938904D01*
X126950604Y-117891285D01*
X126760128Y-117843666D01*
X126522033Y-117843666D01*
X126331557Y-117891285D01*
X126236319Y-117938904D01*
X126188700Y-117986523D01*
X126141080Y-118081761D01*
D13*
X126996652Y-119650333D02*
X126806176Y-119517000D01*
X126996652Y-119421761D02*
X126596652Y-119421761D01*
X126596652Y-119574142D01*
X126615700Y-119612238D01*
X126634747Y-119631285D01*
X126672842Y-119650333D01*
X126729985Y-119650333D01*
X126768080Y-119631285D01*
X126787128Y-119612238D01*
X126806176Y-119574142D01*
X126806176Y-119421761D01*
X126996652Y-120031285D02*
X126996652Y-119802714D01*
X126996652Y-119917000D02*
X126596652Y-119917000D01*
X126653795Y-119878904D01*
X126691890Y-119840809D01*
X126710938Y-119802714D01*
%TO.C,C8*%
D11*
X135888128Y-101373380D02*
X136459557Y-101373380D01*
X136173842Y-101373380D02*
X136173842Y-100373380D01*
X136269080Y-100516238D01*
X136364319Y-100611476D01*
X136459557Y-100659095D01*
X135030985Y-100373380D02*
X135221461Y-100373380D01*
X135316700Y-100421000D01*
X135364319Y-100468619D01*
X135459557Y-100611476D01*
X135507176Y-100801952D01*
X135507176Y-101182904D01*
X135459557Y-101278142D01*
X135411938Y-101325761D01*
X135316700Y-101373380D01*
X135126223Y-101373380D01*
X135030985Y-101325761D01*
X134983366Y-101278142D01*
X134935747Y-101182904D01*
X134935747Y-100944809D01*
X134983366Y-100849571D01*
X135030985Y-100801952D01*
X135126223Y-100754333D01*
X135316700Y-100754333D01*
X135411938Y-100801952D01*
X135459557Y-100849571D01*
X135507176Y-100944809D01*
X134507176Y-100706714D02*
X134507176Y-101706714D01*
X134507176Y-100754333D02*
X134411938Y-100706714D01*
X134221461Y-100706714D01*
X134126223Y-100754333D01*
X134078604Y-100801952D01*
X134030985Y-100897190D01*
X134030985Y-101182904D01*
X134078604Y-101278142D01*
X134126223Y-101325761D01*
X134221461Y-101373380D01*
X134411938Y-101373380D01*
X134507176Y-101325761D01*
X133269080Y-100849571D02*
X133602414Y-100849571D01*
X133602414Y-101373380D02*
X133602414Y-100373380D01*
X133126223Y-100373380D01*
D13*
X132146666Y-100853857D02*
X132165714Y-100872904D01*
X132222857Y-100891952D01*
X132260952Y-100891952D01*
X132318095Y-100872904D01*
X132356190Y-100834809D01*
X132375238Y-100796714D01*
X132394285Y-100720523D01*
X132394285Y-100663380D01*
X132375238Y-100587190D01*
X132356190Y-100549095D01*
X132318095Y-100511000D01*
X132260952Y-100491952D01*
X132222857Y-100491952D01*
X132165714Y-100511000D01*
X132146666Y-100530047D01*
X131918095Y-100663380D02*
X131956190Y-100644333D01*
X131975238Y-100625285D01*
X131994285Y-100587190D01*
X131994285Y-100568142D01*
X131975238Y-100530047D01*
X131956190Y-100511000D01*
X131918095Y-100491952D01*
X131841904Y-100491952D01*
X131803809Y-100511000D01*
X131784761Y-100530047D01*
X131765714Y-100568142D01*
X131765714Y-100587190D01*
X131784761Y-100625285D01*
X131803809Y-100644333D01*
X131841904Y-100663380D01*
X131918095Y-100663380D01*
X131956190Y-100682428D01*
X131975238Y-100701476D01*
X131994285Y-100739571D01*
X131994285Y-100815761D01*
X131975238Y-100853857D01*
X131956190Y-100872904D01*
X131918095Y-100891952D01*
X131841904Y-100891952D01*
X131803809Y-100872904D01*
X131784761Y-100853857D01*
X131765714Y-100815761D01*
X131765714Y-100739571D01*
X131784761Y-100701476D01*
X131803809Y-100682428D01*
X131841904Y-100663380D01*
%TO.C,C4*%
D11*
X136396128Y-106453380D02*
X136967557Y-106453380D01*
X136681842Y-106453380D02*
X136681842Y-105453380D01*
X136777080Y-105596238D01*
X136872319Y-105691476D01*
X136967557Y-105739095D01*
X135538985Y-105453380D02*
X135729461Y-105453380D01*
X135824700Y-105501000D01*
X135872319Y-105548619D01*
X135967557Y-105691476D01*
X136015176Y-105881952D01*
X136015176Y-106262904D01*
X135967557Y-106358142D01*
X135919938Y-106405761D01*
X135824700Y-106453380D01*
X135634223Y-106453380D01*
X135538985Y-106405761D01*
X135491366Y-106358142D01*
X135443747Y-106262904D01*
X135443747Y-106024809D01*
X135491366Y-105929571D01*
X135538985Y-105881952D01*
X135634223Y-105834333D01*
X135824700Y-105834333D01*
X135919938Y-105881952D01*
X135967557Y-105929571D01*
X136015176Y-106024809D01*
X135015176Y-105786714D02*
X135015176Y-106786714D01*
X135015176Y-105834333D02*
X134919938Y-105786714D01*
X134729461Y-105786714D01*
X134634223Y-105834333D01*
X134586604Y-105881952D01*
X134538985Y-105977190D01*
X134538985Y-106262904D01*
X134586604Y-106358142D01*
X134634223Y-106405761D01*
X134729461Y-106453380D01*
X134919938Y-106453380D01*
X135015176Y-106405761D01*
X133777080Y-105929571D02*
X134110414Y-105929571D01*
X134110414Y-106453380D02*
X134110414Y-105453380D01*
X133634223Y-105453380D01*
D13*
X132400666Y-105933857D02*
X132419714Y-105952904D01*
X132476857Y-105971952D01*
X132514952Y-105971952D01*
X132572095Y-105952904D01*
X132610190Y-105914809D01*
X132629238Y-105876714D01*
X132648285Y-105800523D01*
X132648285Y-105743380D01*
X132629238Y-105667190D01*
X132610190Y-105629095D01*
X132572095Y-105591000D01*
X132514952Y-105571952D01*
X132476857Y-105571952D01*
X132419714Y-105591000D01*
X132400666Y-105610047D01*
X132057809Y-105705285D02*
X132057809Y-105971952D01*
X132153047Y-105552904D02*
X132248285Y-105838619D01*
X132000666Y-105838619D01*
%TO.C,C2*%
D11*
X126648938Y-99120380D02*
X127220366Y-99120380D01*
X126934652Y-99120380D02*
X126934652Y-98120380D01*
X127029890Y-98263238D01*
X127125128Y-98358476D01*
X127220366Y-98406095D01*
X125791795Y-98453714D02*
X125791795Y-99120380D01*
X126220366Y-98453714D02*
X126220366Y-98977523D01*
X126172747Y-99072761D01*
X126077509Y-99120380D01*
X125934652Y-99120380D01*
X125839414Y-99072761D01*
X125791795Y-99025142D01*
X124982271Y-98596571D02*
X125315604Y-98596571D01*
X125315604Y-99120380D02*
X125315604Y-98120380D01*
X124839414Y-98120380D01*
D13*
X126120366Y-97380857D02*
X126139414Y-97399904D01*
X126196557Y-97418952D01*
X126234652Y-97418952D01*
X126291795Y-97399904D01*
X126329890Y-97361809D01*
X126348938Y-97323714D01*
X126367985Y-97247523D01*
X126367985Y-97190380D01*
X126348938Y-97114190D01*
X126329890Y-97076095D01*
X126291795Y-97038000D01*
X126234652Y-97018952D01*
X126196557Y-97018952D01*
X126139414Y-97038000D01*
X126120366Y-97057047D01*
X125967985Y-97057047D02*
X125948938Y-97038000D01*
X125910842Y-97018952D01*
X125815604Y-97018952D01*
X125777509Y-97038000D01*
X125758461Y-97057047D01*
X125739414Y-97095142D01*
X125739414Y-97133238D01*
X125758461Y-97190380D01*
X125987033Y-97418952D01*
X125739414Y-97418952D01*
%TD*%
M02*
