%TF.GenerationSoftware,KiCad,Pcbnew,5.1.9-73d0e3b20d~88~ubuntu20.04.1*%
%TF.CreationDate,2021-03-05T17:28:59-06:00*%
%TF.ProjectId,portalgun-display,706f7274-616c-4677-956e-2d646973706c,rev?*%
%TF.SameCoordinates,Original*%
%TF.FileFunction,Soldermask,Bot*%
%TF.FilePolarity,Negative*%
%FSLAX46Y46*%
G04 Gerber Fmt 4.6, Leading zero omitted, Abs format (unit mm)*
G04 Created by KiCad (PCBNEW 5.1.9-73d0e3b20d~88~ubuntu20.04.1) date 2021-03-05 17:28:59*
%MOMM*%
%LPD*%
G01*
G04 APERTURE LIST*
%ADD10C,2.700000*%
%ADD11C,1.700000*%
%ADD12R,1.700000X1.700000*%
%ADD13R,0.800000X0.900000*%
%ADD14R,0.900000X0.800000*%
%ADD15O,0.800000X1.300000*%
%ADD16R,1.400000X1.200000*%
%ADD17R,2.400000X2.400000*%
%ADD18C,0.100000*%
G04 APERTURE END LIST*
D10*
%TO.C,H2*%
X145198300Y-101429000D03*
%TD*%
%TO.C,H1*%
X111448700Y-101429000D03*
%TD*%
D11*
%TO.C,U6*%
X135890000Y-100076000D03*
X135890000Y-97536000D03*
X135890000Y-94996000D03*
X135890000Y-92456000D03*
X135890000Y-89916000D03*
X120650000Y-89916000D03*
X120650000Y-92456000D03*
X120650000Y-94996000D03*
X120650000Y-97536000D03*
D12*
X120650000Y-100076000D03*
%TD*%
D13*
%TO.C,Q4*%
X132784700Y-120209000D03*
X133734700Y-118209000D03*
X131834700Y-118209000D03*
%TD*%
D14*
%TO.C,Q3*%
X133530700Y-108795000D03*
X131530700Y-107845000D03*
X131530700Y-109745000D03*
%TD*%
D13*
%TO.C,Q2*%
X132530700Y-94809000D03*
X133480700Y-92809000D03*
X131580700Y-92809000D03*
%TD*%
%TO.C,Q1*%
X132276700Y-82141000D03*
X131326700Y-84141000D03*
X133226700Y-84141000D03*
%TD*%
D11*
%TO.C,U8*%
X135890000Y-112776000D03*
X135890000Y-110236000D03*
X135890000Y-107696000D03*
X135890000Y-105156000D03*
X135890000Y-102616000D03*
X120650000Y-102616000D03*
X120650000Y-105156000D03*
X120650000Y-107696000D03*
X120650000Y-110236000D03*
D12*
X120650000Y-112776000D03*
%TD*%
D11*
%TO.C,U9*%
X135890000Y-125476000D03*
X135890000Y-122936000D03*
X135890000Y-120396000D03*
X135890000Y-117856000D03*
X135890000Y-115316000D03*
X120650000Y-115316000D03*
X120650000Y-117856000D03*
X120650000Y-120396000D03*
X120650000Y-122936000D03*
D12*
X120650000Y-125476000D03*
%TD*%
D11*
%TO.C,U5*%
X135890000Y-87376000D03*
X135890000Y-84836000D03*
X135890000Y-82296000D03*
X135890000Y-79756000D03*
X135890000Y-77216000D03*
X120650000Y-77216000D03*
X120650000Y-79756000D03*
X120650000Y-82296000D03*
X120650000Y-84836000D03*
D12*
X120650000Y-87376000D03*
%TD*%
%TO.C,R5*%
G36*
G01*
X129626200Y-120142000D02*
X130101200Y-120142000D01*
G75*
G02*
X130338700Y-120379500I0J-237500D01*
G01*
X130338700Y-120879500D01*
G75*
G02*
X130101200Y-121117000I-237500J0D01*
G01*
X129626200Y-121117000D01*
G75*
G02*
X129388700Y-120879500I0J237500D01*
G01*
X129388700Y-120379500D01*
G75*
G02*
X129626200Y-120142000I237500J0D01*
G01*
G37*
G36*
G01*
X129626200Y-118317000D02*
X130101200Y-118317000D01*
G75*
G02*
X130338700Y-118554500I0J-237500D01*
G01*
X130338700Y-119054500D01*
G75*
G02*
X130101200Y-119292000I-237500J0D01*
G01*
X129626200Y-119292000D01*
G75*
G02*
X129388700Y-119054500I0J237500D01*
G01*
X129388700Y-118554500D01*
G75*
G02*
X129626200Y-118317000I237500J0D01*
G01*
G37*
%TD*%
D15*
%TO.C,J1*%
X132156700Y-125051000D03*
X130906700Y-125051000D03*
X129656700Y-125051000D03*
X128406700Y-125051000D03*
X127156700Y-125051000D03*
X125906700Y-125051000D03*
G36*
G01*
X124256700Y-125501000D02*
X124256700Y-124601000D01*
G75*
G02*
X124456700Y-124401000I200000J0D01*
G01*
X124856700Y-124401000D01*
G75*
G02*
X125056700Y-124601000I0J-200000D01*
G01*
X125056700Y-125501000D01*
G75*
G02*
X124856700Y-125701000I-200000J0D01*
G01*
X124456700Y-125701000D01*
G75*
G02*
X124256700Y-125501000I0J200000D01*
G01*
G37*
%TD*%
D16*
%TO.C,Y1*%
X133180000Y-102401000D03*
X130980000Y-102401000D03*
X130980000Y-104101000D03*
X133180000Y-104101000D03*
%TD*%
D17*
%TO.C,U7*%
X126434700Y-101937000D03*
D18*
G36*
X127710007Y-100385799D02*
G01*
X127698282Y-100382242D01*
X127687477Y-100376467D01*
X127678006Y-100368694D01*
X127670233Y-100359223D01*
X127664458Y-100348418D01*
X127660901Y-100336693D01*
X127659700Y-100324500D01*
X127659700Y-99649500D01*
X127660901Y-99637307D01*
X127664458Y-99625582D01*
X127670233Y-99614777D01*
X127678006Y-99605306D01*
X127687477Y-99597533D01*
X127698282Y-99591758D01*
X127710007Y-99588201D01*
X127722200Y-99587000D01*
X127847200Y-99587000D01*
X127859393Y-99588201D01*
X127871118Y-99591758D01*
X127881923Y-99597533D01*
X127891394Y-99605306D01*
X127899167Y-99614777D01*
X127904942Y-99625582D01*
X127908499Y-99637307D01*
X127909700Y-99649500D01*
X127909700Y-100261112D01*
X127908499Y-100273305D01*
X127904942Y-100285030D01*
X127899167Y-100295835D01*
X127891394Y-100305306D01*
X127828006Y-100368694D01*
X127818535Y-100376467D01*
X127807730Y-100382242D01*
X127796005Y-100385799D01*
X127783812Y-100387000D01*
X127722200Y-100387000D01*
X127710007Y-100385799D01*
G37*
G36*
G01*
X127459700Y-99649500D02*
X127459700Y-100324500D01*
G75*
G02*
X127397200Y-100387000I-62500J0D01*
G01*
X127272200Y-100387000D01*
G75*
G02*
X127209700Y-100324500I0J62500D01*
G01*
X127209700Y-99649500D01*
G75*
G02*
X127272200Y-99587000I62500J0D01*
G01*
X127397200Y-99587000D01*
G75*
G02*
X127459700Y-99649500I0J-62500D01*
G01*
G37*
G36*
G01*
X127009700Y-99649500D02*
X127009700Y-100324500D01*
G75*
G02*
X126947200Y-100387000I-62500J0D01*
G01*
X126822200Y-100387000D01*
G75*
G02*
X126759700Y-100324500I0J62500D01*
G01*
X126759700Y-99649500D01*
G75*
G02*
X126822200Y-99587000I62500J0D01*
G01*
X126947200Y-99587000D01*
G75*
G02*
X127009700Y-99649500I0J-62500D01*
G01*
G37*
G36*
G01*
X126559700Y-99649500D02*
X126559700Y-100324500D01*
G75*
G02*
X126497200Y-100387000I-62500J0D01*
G01*
X126372200Y-100387000D01*
G75*
G02*
X126309700Y-100324500I0J62500D01*
G01*
X126309700Y-99649500D01*
G75*
G02*
X126372200Y-99587000I62500J0D01*
G01*
X126497200Y-99587000D01*
G75*
G02*
X126559700Y-99649500I0J-62500D01*
G01*
G37*
G36*
G01*
X126109700Y-99649500D02*
X126109700Y-100324500D01*
G75*
G02*
X126047200Y-100387000I-62500J0D01*
G01*
X125922200Y-100387000D01*
G75*
G02*
X125859700Y-100324500I0J62500D01*
G01*
X125859700Y-99649500D01*
G75*
G02*
X125922200Y-99587000I62500J0D01*
G01*
X126047200Y-99587000D01*
G75*
G02*
X126109700Y-99649500I0J-62500D01*
G01*
G37*
G36*
G01*
X125659700Y-99649500D02*
X125659700Y-100324500D01*
G75*
G02*
X125597200Y-100387000I-62500J0D01*
G01*
X125472200Y-100387000D01*
G75*
G02*
X125409700Y-100324500I0J62500D01*
G01*
X125409700Y-99649500D01*
G75*
G02*
X125472200Y-99587000I62500J0D01*
G01*
X125597200Y-99587000D01*
G75*
G02*
X125659700Y-99649500I0J-62500D01*
G01*
G37*
G36*
X125073395Y-100385799D02*
G01*
X125061670Y-100382242D01*
X125050865Y-100376467D01*
X125041394Y-100368694D01*
X124978006Y-100305306D01*
X124970233Y-100295835D01*
X124964458Y-100285030D01*
X124960901Y-100273305D01*
X124959700Y-100261112D01*
X124959700Y-99649500D01*
X124960901Y-99637307D01*
X124964458Y-99625582D01*
X124970233Y-99614777D01*
X124978006Y-99605306D01*
X124987477Y-99597533D01*
X124998282Y-99591758D01*
X125010007Y-99588201D01*
X125022200Y-99587000D01*
X125147200Y-99587000D01*
X125159393Y-99588201D01*
X125171118Y-99591758D01*
X125181923Y-99597533D01*
X125191394Y-99605306D01*
X125199167Y-99614777D01*
X125204942Y-99625582D01*
X125208499Y-99637307D01*
X125209700Y-99649500D01*
X125209700Y-100324500D01*
X125208499Y-100336693D01*
X125204942Y-100348418D01*
X125199167Y-100359223D01*
X125191394Y-100368694D01*
X125181923Y-100376467D01*
X125171118Y-100382242D01*
X125159393Y-100385799D01*
X125147200Y-100387000D01*
X125085588Y-100387000D01*
X125073395Y-100385799D01*
G37*
G36*
X124135007Y-100710799D02*
G01*
X124123282Y-100707242D01*
X124112477Y-100701467D01*
X124103006Y-100693694D01*
X124095233Y-100684223D01*
X124089458Y-100673418D01*
X124085901Y-100661693D01*
X124084700Y-100649500D01*
X124084700Y-100524500D01*
X124085901Y-100512307D01*
X124089458Y-100500582D01*
X124095233Y-100489777D01*
X124103006Y-100480306D01*
X124112477Y-100472533D01*
X124123282Y-100466758D01*
X124135007Y-100463201D01*
X124147200Y-100462000D01*
X124758812Y-100462000D01*
X124771005Y-100463201D01*
X124782730Y-100466758D01*
X124793535Y-100472533D01*
X124803006Y-100480306D01*
X124866394Y-100543694D01*
X124874167Y-100553165D01*
X124879942Y-100563970D01*
X124883499Y-100575695D01*
X124884700Y-100587888D01*
X124884700Y-100649500D01*
X124883499Y-100661693D01*
X124879942Y-100673418D01*
X124874167Y-100684223D01*
X124866394Y-100693694D01*
X124856923Y-100701467D01*
X124846118Y-100707242D01*
X124834393Y-100710799D01*
X124822200Y-100712000D01*
X124147200Y-100712000D01*
X124135007Y-100710799D01*
G37*
G36*
G01*
X124884700Y-100974500D02*
X124884700Y-101099500D01*
G75*
G02*
X124822200Y-101162000I-62500J0D01*
G01*
X124147200Y-101162000D01*
G75*
G02*
X124084700Y-101099500I0J62500D01*
G01*
X124084700Y-100974500D01*
G75*
G02*
X124147200Y-100912000I62500J0D01*
G01*
X124822200Y-100912000D01*
G75*
G02*
X124884700Y-100974500I0J-62500D01*
G01*
G37*
G36*
G01*
X124884700Y-101424500D02*
X124884700Y-101549500D01*
G75*
G02*
X124822200Y-101612000I-62500J0D01*
G01*
X124147200Y-101612000D01*
G75*
G02*
X124084700Y-101549500I0J62500D01*
G01*
X124084700Y-101424500D01*
G75*
G02*
X124147200Y-101362000I62500J0D01*
G01*
X124822200Y-101362000D01*
G75*
G02*
X124884700Y-101424500I0J-62500D01*
G01*
G37*
G36*
G01*
X124884700Y-101874500D02*
X124884700Y-101999500D01*
G75*
G02*
X124822200Y-102062000I-62500J0D01*
G01*
X124147200Y-102062000D01*
G75*
G02*
X124084700Y-101999500I0J62500D01*
G01*
X124084700Y-101874500D01*
G75*
G02*
X124147200Y-101812000I62500J0D01*
G01*
X124822200Y-101812000D01*
G75*
G02*
X124884700Y-101874500I0J-62500D01*
G01*
G37*
G36*
G01*
X124884700Y-102324500D02*
X124884700Y-102449500D01*
G75*
G02*
X124822200Y-102512000I-62500J0D01*
G01*
X124147200Y-102512000D01*
G75*
G02*
X124084700Y-102449500I0J62500D01*
G01*
X124084700Y-102324500D01*
G75*
G02*
X124147200Y-102262000I62500J0D01*
G01*
X124822200Y-102262000D01*
G75*
G02*
X124884700Y-102324500I0J-62500D01*
G01*
G37*
G36*
G01*
X124884700Y-102774500D02*
X124884700Y-102899500D01*
G75*
G02*
X124822200Y-102962000I-62500J0D01*
G01*
X124147200Y-102962000D01*
G75*
G02*
X124084700Y-102899500I0J62500D01*
G01*
X124084700Y-102774500D01*
G75*
G02*
X124147200Y-102712000I62500J0D01*
G01*
X124822200Y-102712000D01*
G75*
G02*
X124884700Y-102774500I0J-62500D01*
G01*
G37*
G36*
X124135007Y-103410799D02*
G01*
X124123282Y-103407242D01*
X124112477Y-103401467D01*
X124103006Y-103393694D01*
X124095233Y-103384223D01*
X124089458Y-103373418D01*
X124085901Y-103361693D01*
X124084700Y-103349500D01*
X124084700Y-103224500D01*
X124085901Y-103212307D01*
X124089458Y-103200582D01*
X124095233Y-103189777D01*
X124103006Y-103180306D01*
X124112477Y-103172533D01*
X124123282Y-103166758D01*
X124135007Y-103163201D01*
X124147200Y-103162000D01*
X124822200Y-103162000D01*
X124834393Y-103163201D01*
X124846118Y-103166758D01*
X124856923Y-103172533D01*
X124866394Y-103180306D01*
X124874167Y-103189777D01*
X124879942Y-103200582D01*
X124883499Y-103212307D01*
X124884700Y-103224500D01*
X124884700Y-103286112D01*
X124883499Y-103298305D01*
X124879942Y-103310030D01*
X124874167Y-103320835D01*
X124866394Y-103330306D01*
X124803006Y-103393694D01*
X124793535Y-103401467D01*
X124782730Y-103407242D01*
X124771005Y-103410799D01*
X124758812Y-103412000D01*
X124147200Y-103412000D01*
X124135007Y-103410799D01*
G37*
G36*
X125010007Y-104285799D02*
G01*
X124998282Y-104282242D01*
X124987477Y-104276467D01*
X124978006Y-104268694D01*
X124970233Y-104259223D01*
X124964458Y-104248418D01*
X124960901Y-104236693D01*
X124959700Y-104224500D01*
X124959700Y-103612888D01*
X124960901Y-103600695D01*
X124964458Y-103588970D01*
X124970233Y-103578165D01*
X124978006Y-103568694D01*
X125041394Y-103505306D01*
X125050865Y-103497533D01*
X125061670Y-103491758D01*
X125073395Y-103488201D01*
X125085588Y-103487000D01*
X125147200Y-103487000D01*
X125159393Y-103488201D01*
X125171118Y-103491758D01*
X125181923Y-103497533D01*
X125191394Y-103505306D01*
X125199167Y-103514777D01*
X125204942Y-103525582D01*
X125208499Y-103537307D01*
X125209700Y-103549500D01*
X125209700Y-104224500D01*
X125208499Y-104236693D01*
X125204942Y-104248418D01*
X125199167Y-104259223D01*
X125191394Y-104268694D01*
X125181923Y-104276467D01*
X125171118Y-104282242D01*
X125159393Y-104285799D01*
X125147200Y-104287000D01*
X125022200Y-104287000D01*
X125010007Y-104285799D01*
G37*
G36*
G01*
X125659700Y-103549500D02*
X125659700Y-104224500D01*
G75*
G02*
X125597200Y-104287000I-62500J0D01*
G01*
X125472200Y-104287000D01*
G75*
G02*
X125409700Y-104224500I0J62500D01*
G01*
X125409700Y-103549500D01*
G75*
G02*
X125472200Y-103487000I62500J0D01*
G01*
X125597200Y-103487000D01*
G75*
G02*
X125659700Y-103549500I0J-62500D01*
G01*
G37*
G36*
G01*
X126109700Y-103549500D02*
X126109700Y-104224500D01*
G75*
G02*
X126047200Y-104287000I-62500J0D01*
G01*
X125922200Y-104287000D01*
G75*
G02*
X125859700Y-104224500I0J62500D01*
G01*
X125859700Y-103549500D01*
G75*
G02*
X125922200Y-103487000I62500J0D01*
G01*
X126047200Y-103487000D01*
G75*
G02*
X126109700Y-103549500I0J-62500D01*
G01*
G37*
G36*
G01*
X126559700Y-103549500D02*
X126559700Y-104224500D01*
G75*
G02*
X126497200Y-104287000I-62500J0D01*
G01*
X126372200Y-104287000D01*
G75*
G02*
X126309700Y-104224500I0J62500D01*
G01*
X126309700Y-103549500D01*
G75*
G02*
X126372200Y-103487000I62500J0D01*
G01*
X126497200Y-103487000D01*
G75*
G02*
X126559700Y-103549500I0J-62500D01*
G01*
G37*
G36*
G01*
X127009700Y-103549500D02*
X127009700Y-104224500D01*
G75*
G02*
X126947200Y-104287000I-62500J0D01*
G01*
X126822200Y-104287000D01*
G75*
G02*
X126759700Y-104224500I0J62500D01*
G01*
X126759700Y-103549500D01*
G75*
G02*
X126822200Y-103487000I62500J0D01*
G01*
X126947200Y-103487000D01*
G75*
G02*
X127009700Y-103549500I0J-62500D01*
G01*
G37*
G36*
G01*
X127459700Y-103549500D02*
X127459700Y-104224500D01*
G75*
G02*
X127397200Y-104287000I-62500J0D01*
G01*
X127272200Y-104287000D01*
G75*
G02*
X127209700Y-104224500I0J62500D01*
G01*
X127209700Y-103549500D01*
G75*
G02*
X127272200Y-103487000I62500J0D01*
G01*
X127397200Y-103487000D01*
G75*
G02*
X127459700Y-103549500I0J-62500D01*
G01*
G37*
G36*
X127710007Y-104285799D02*
G01*
X127698282Y-104282242D01*
X127687477Y-104276467D01*
X127678006Y-104268694D01*
X127670233Y-104259223D01*
X127664458Y-104248418D01*
X127660901Y-104236693D01*
X127659700Y-104224500D01*
X127659700Y-103549500D01*
X127660901Y-103537307D01*
X127664458Y-103525582D01*
X127670233Y-103514777D01*
X127678006Y-103505306D01*
X127687477Y-103497533D01*
X127698282Y-103491758D01*
X127710007Y-103488201D01*
X127722200Y-103487000D01*
X127783812Y-103487000D01*
X127796005Y-103488201D01*
X127807730Y-103491758D01*
X127818535Y-103497533D01*
X127828006Y-103505306D01*
X127891394Y-103568694D01*
X127899167Y-103578165D01*
X127904942Y-103588970D01*
X127908499Y-103600695D01*
X127909700Y-103612888D01*
X127909700Y-104224500D01*
X127908499Y-104236693D01*
X127904942Y-104248418D01*
X127899167Y-104259223D01*
X127891394Y-104268694D01*
X127881923Y-104276467D01*
X127871118Y-104282242D01*
X127859393Y-104285799D01*
X127847200Y-104287000D01*
X127722200Y-104287000D01*
X127710007Y-104285799D01*
G37*
G36*
X128098395Y-103410799D02*
G01*
X128086670Y-103407242D01*
X128075865Y-103401467D01*
X128066394Y-103393694D01*
X128003006Y-103330306D01*
X127995233Y-103320835D01*
X127989458Y-103310030D01*
X127985901Y-103298305D01*
X127984700Y-103286112D01*
X127984700Y-103224500D01*
X127985901Y-103212307D01*
X127989458Y-103200582D01*
X127995233Y-103189777D01*
X128003006Y-103180306D01*
X128012477Y-103172533D01*
X128023282Y-103166758D01*
X128035007Y-103163201D01*
X128047200Y-103162000D01*
X128722200Y-103162000D01*
X128734393Y-103163201D01*
X128746118Y-103166758D01*
X128756923Y-103172533D01*
X128766394Y-103180306D01*
X128774167Y-103189777D01*
X128779942Y-103200582D01*
X128783499Y-103212307D01*
X128784700Y-103224500D01*
X128784700Y-103349500D01*
X128783499Y-103361693D01*
X128779942Y-103373418D01*
X128774167Y-103384223D01*
X128766394Y-103393694D01*
X128756923Y-103401467D01*
X128746118Y-103407242D01*
X128734393Y-103410799D01*
X128722200Y-103412000D01*
X128110588Y-103412000D01*
X128098395Y-103410799D01*
G37*
G36*
G01*
X128784700Y-102774500D02*
X128784700Y-102899500D01*
G75*
G02*
X128722200Y-102962000I-62500J0D01*
G01*
X128047200Y-102962000D01*
G75*
G02*
X127984700Y-102899500I0J62500D01*
G01*
X127984700Y-102774500D01*
G75*
G02*
X128047200Y-102712000I62500J0D01*
G01*
X128722200Y-102712000D01*
G75*
G02*
X128784700Y-102774500I0J-62500D01*
G01*
G37*
G36*
G01*
X128784700Y-102324500D02*
X128784700Y-102449500D01*
G75*
G02*
X128722200Y-102512000I-62500J0D01*
G01*
X128047200Y-102512000D01*
G75*
G02*
X127984700Y-102449500I0J62500D01*
G01*
X127984700Y-102324500D01*
G75*
G02*
X128047200Y-102262000I62500J0D01*
G01*
X128722200Y-102262000D01*
G75*
G02*
X128784700Y-102324500I0J-62500D01*
G01*
G37*
G36*
G01*
X128784700Y-101874500D02*
X128784700Y-101999500D01*
G75*
G02*
X128722200Y-102062000I-62500J0D01*
G01*
X128047200Y-102062000D01*
G75*
G02*
X127984700Y-101999500I0J62500D01*
G01*
X127984700Y-101874500D01*
G75*
G02*
X128047200Y-101812000I62500J0D01*
G01*
X128722200Y-101812000D01*
G75*
G02*
X128784700Y-101874500I0J-62500D01*
G01*
G37*
G36*
G01*
X128784700Y-101424500D02*
X128784700Y-101549500D01*
G75*
G02*
X128722200Y-101612000I-62500J0D01*
G01*
X128047200Y-101612000D01*
G75*
G02*
X127984700Y-101549500I0J62500D01*
G01*
X127984700Y-101424500D01*
G75*
G02*
X128047200Y-101362000I62500J0D01*
G01*
X128722200Y-101362000D01*
G75*
G02*
X128784700Y-101424500I0J-62500D01*
G01*
G37*
G36*
G01*
X128784700Y-100974500D02*
X128784700Y-101099500D01*
G75*
G02*
X128722200Y-101162000I-62500J0D01*
G01*
X128047200Y-101162000D01*
G75*
G02*
X127984700Y-101099500I0J62500D01*
G01*
X127984700Y-100974500D01*
G75*
G02*
X128047200Y-100912000I62500J0D01*
G01*
X128722200Y-100912000D01*
G75*
G02*
X128784700Y-100974500I0J-62500D01*
G01*
G37*
G36*
X128035007Y-100710799D02*
G01*
X128023282Y-100707242D01*
X128012477Y-100701467D01*
X128003006Y-100693694D01*
X127995233Y-100684223D01*
X127989458Y-100673418D01*
X127985901Y-100661693D01*
X127984700Y-100649500D01*
X127984700Y-100587888D01*
X127985901Y-100575695D01*
X127989458Y-100563970D01*
X127995233Y-100553165D01*
X128003006Y-100543694D01*
X128066394Y-100480306D01*
X128075865Y-100472533D01*
X128086670Y-100466758D01*
X128098395Y-100463201D01*
X128110588Y-100462000D01*
X128722200Y-100462000D01*
X128734393Y-100463201D01*
X128746118Y-100466758D01*
X128756923Y-100472533D01*
X128766394Y-100480306D01*
X128774167Y-100489777D01*
X128779942Y-100500582D01*
X128783499Y-100512307D01*
X128784700Y-100524500D01*
X128784700Y-100649500D01*
X128783499Y-100661693D01*
X128779942Y-100673418D01*
X128774167Y-100684223D01*
X128766394Y-100693694D01*
X128756923Y-100701467D01*
X128746118Y-100707242D01*
X128734393Y-100710799D01*
X128722200Y-100712000D01*
X128047200Y-100712000D01*
X128035007Y-100710799D01*
G37*
%TD*%
%TO.C,R28*%
G36*
G01*
X122765000Y-109961000D02*
X122765000Y-110511000D01*
G75*
G02*
X122565000Y-110711000I-200000J0D01*
G01*
X122165000Y-110711000D01*
G75*
G02*
X121965000Y-110511000I0J200000D01*
G01*
X121965000Y-109961000D01*
G75*
G02*
X122165000Y-109761000I200000J0D01*
G01*
X122565000Y-109761000D01*
G75*
G02*
X122765000Y-109961000I0J-200000D01*
G01*
G37*
G36*
G01*
X124415000Y-109961000D02*
X124415000Y-110511000D01*
G75*
G02*
X124215000Y-110711000I-200000J0D01*
G01*
X123815000Y-110711000D01*
G75*
G02*
X123615000Y-110511000I0J200000D01*
G01*
X123615000Y-109961000D01*
G75*
G02*
X123815000Y-109761000I200000J0D01*
G01*
X124215000Y-109761000D01*
G75*
G02*
X124415000Y-109961000I0J-200000D01*
G01*
G37*
%TD*%
%TO.C,R27*%
G36*
G01*
X122765000Y-112501000D02*
X122765000Y-113051000D01*
G75*
G02*
X122565000Y-113251000I-200000J0D01*
G01*
X122165000Y-113251000D01*
G75*
G02*
X121965000Y-113051000I0J200000D01*
G01*
X121965000Y-112501000D01*
G75*
G02*
X122165000Y-112301000I200000J0D01*
G01*
X122565000Y-112301000D01*
G75*
G02*
X122765000Y-112501000I0J-200000D01*
G01*
G37*
G36*
G01*
X124415000Y-112501000D02*
X124415000Y-113051000D01*
G75*
G02*
X124215000Y-113251000I-200000J0D01*
G01*
X123815000Y-113251000D01*
G75*
G02*
X123615000Y-113051000I0J200000D01*
G01*
X123615000Y-112501000D01*
G75*
G02*
X123815000Y-112301000I200000J0D01*
G01*
X124215000Y-112301000D01*
G75*
G02*
X124415000Y-112501000I0J-200000D01*
G01*
G37*
%TD*%
%TO.C,R26*%
G36*
G01*
X133775000Y-115591000D02*
X133775000Y-115041000D01*
G75*
G02*
X133975000Y-114841000I200000J0D01*
G01*
X134375000Y-114841000D01*
G75*
G02*
X134575000Y-115041000I0J-200000D01*
G01*
X134575000Y-115591000D01*
G75*
G02*
X134375000Y-115791000I-200000J0D01*
G01*
X133975000Y-115791000D01*
G75*
G02*
X133775000Y-115591000I0J200000D01*
G01*
G37*
G36*
G01*
X132125000Y-115591000D02*
X132125000Y-115041000D01*
G75*
G02*
X132325000Y-114841000I200000J0D01*
G01*
X132725000Y-114841000D01*
G75*
G02*
X132925000Y-115041000I0J-200000D01*
G01*
X132925000Y-115591000D01*
G75*
G02*
X132725000Y-115791000I-200000J0D01*
G01*
X132325000Y-115791000D01*
G75*
G02*
X132125000Y-115591000I0J200000D01*
G01*
G37*
%TD*%
%TO.C,R25*%
G36*
G01*
X133013000Y-88921000D02*
X133013000Y-88371000D01*
G75*
G02*
X133213000Y-88171000I200000J0D01*
G01*
X133613000Y-88171000D01*
G75*
G02*
X133813000Y-88371000I0J-200000D01*
G01*
X133813000Y-88921000D01*
G75*
G02*
X133613000Y-89121000I-200000J0D01*
G01*
X133213000Y-89121000D01*
G75*
G02*
X133013000Y-88921000I0J200000D01*
G01*
G37*
G36*
G01*
X131363000Y-88921000D02*
X131363000Y-88371000D01*
G75*
G02*
X131563000Y-88171000I200000J0D01*
G01*
X131963000Y-88171000D01*
G75*
G02*
X132163000Y-88371000I0J-200000D01*
G01*
X132163000Y-88921000D01*
G75*
G02*
X131963000Y-89121000I-200000J0D01*
G01*
X131563000Y-89121000D01*
G75*
G02*
X131363000Y-88921000I0J200000D01*
G01*
G37*
%TD*%
%TO.C,R24*%
G36*
G01*
X133013000Y-87397000D02*
X133013000Y-86847000D01*
G75*
G02*
X133213000Y-86647000I200000J0D01*
G01*
X133613000Y-86647000D01*
G75*
G02*
X133813000Y-86847000I0J-200000D01*
G01*
X133813000Y-87397000D01*
G75*
G02*
X133613000Y-87597000I-200000J0D01*
G01*
X133213000Y-87597000D01*
G75*
G02*
X133013000Y-87397000I0J200000D01*
G01*
G37*
G36*
G01*
X131363000Y-87397000D02*
X131363000Y-86847000D01*
G75*
G02*
X131563000Y-86647000I200000J0D01*
G01*
X131963000Y-86647000D01*
G75*
G02*
X132163000Y-86847000I0J-200000D01*
G01*
X132163000Y-87397000D01*
G75*
G02*
X131963000Y-87597000I-200000J0D01*
G01*
X131563000Y-87597000D01*
G75*
G02*
X131363000Y-87397000I0J200000D01*
G01*
G37*
%TD*%
%TO.C,R23*%
G36*
G01*
X133521000Y-80031000D02*
X133521000Y-79481000D01*
G75*
G02*
X133721000Y-79281000I200000J0D01*
G01*
X134121000Y-79281000D01*
G75*
G02*
X134321000Y-79481000I0J-200000D01*
G01*
X134321000Y-80031000D01*
G75*
G02*
X134121000Y-80231000I-200000J0D01*
G01*
X133721000Y-80231000D01*
G75*
G02*
X133521000Y-80031000I0J200000D01*
G01*
G37*
G36*
G01*
X131871000Y-80031000D02*
X131871000Y-79481000D01*
G75*
G02*
X132071000Y-79281000I200000J0D01*
G01*
X132471000Y-79281000D01*
G75*
G02*
X132671000Y-79481000I0J-200000D01*
G01*
X132671000Y-80031000D01*
G75*
G02*
X132471000Y-80231000I-200000J0D01*
G01*
X132071000Y-80231000D01*
G75*
G02*
X131871000Y-80031000I0J200000D01*
G01*
G37*
%TD*%
%TO.C,R22*%
G36*
G01*
X123019000Y-89641000D02*
X123019000Y-90191000D01*
G75*
G02*
X122819000Y-90391000I-200000J0D01*
G01*
X122419000Y-90391000D01*
G75*
G02*
X122219000Y-90191000I0J200000D01*
G01*
X122219000Y-89641000D01*
G75*
G02*
X122419000Y-89441000I200000J0D01*
G01*
X122819000Y-89441000D01*
G75*
G02*
X123019000Y-89641000I0J-200000D01*
G01*
G37*
G36*
G01*
X124669000Y-89641000D02*
X124669000Y-90191000D01*
G75*
G02*
X124469000Y-90391000I-200000J0D01*
G01*
X124069000Y-90391000D01*
G75*
G02*
X123869000Y-90191000I0J200000D01*
G01*
X123869000Y-89641000D01*
G75*
G02*
X124069000Y-89441000I200000J0D01*
G01*
X124469000Y-89441000D01*
G75*
G02*
X124669000Y-89641000I0J-200000D01*
G01*
G37*
%TD*%
%TO.C,R21*%
G36*
G01*
X123019000Y-92181000D02*
X123019000Y-92731000D01*
G75*
G02*
X122819000Y-92931000I-200000J0D01*
G01*
X122419000Y-92931000D01*
G75*
G02*
X122219000Y-92731000I0J200000D01*
G01*
X122219000Y-92181000D01*
G75*
G02*
X122419000Y-91981000I200000J0D01*
G01*
X122819000Y-91981000D01*
G75*
G02*
X123019000Y-92181000I0J-200000D01*
G01*
G37*
G36*
G01*
X124669000Y-92181000D02*
X124669000Y-92731000D01*
G75*
G02*
X124469000Y-92931000I-200000J0D01*
G01*
X124069000Y-92931000D01*
G75*
G02*
X123869000Y-92731000I0J200000D01*
G01*
X123869000Y-92181000D01*
G75*
G02*
X124069000Y-91981000I200000J0D01*
G01*
X124469000Y-91981000D01*
G75*
G02*
X124669000Y-92181000I0J-200000D01*
G01*
G37*
%TD*%
%TO.C,R4*%
G36*
G01*
X123530200Y-120142000D02*
X124005200Y-120142000D01*
G75*
G02*
X124242700Y-120379500I0J-237500D01*
G01*
X124242700Y-120879500D01*
G75*
G02*
X124005200Y-121117000I-237500J0D01*
G01*
X123530200Y-121117000D01*
G75*
G02*
X123292700Y-120879500I0J237500D01*
G01*
X123292700Y-120379500D01*
G75*
G02*
X123530200Y-120142000I237500J0D01*
G01*
G37*
G36*
G01*
X123530200Y-118317000D02*
X124005200Y-118317000D01*
G75*
G02*
X124242700Y-118554500I0J-237500D01*
G01*
X124242700Y-119054500D01*
G75*
G02*
X124005200Y-119292000I-237500J0D01*
G01*
X123530200Y-119292000D01*
G75*
G02*
X123292700Y-119054500I0J237500D01*
G01*
X123292700Y-118554500D01*
G75*
G02*
X123530200Y-118317000I237500J0D01*
G01*
G37*
%TD*%
%TO.C,R3*%
G36*
G01*
X125054200Y-120142000D02*
X125529200Y-120142000D01*
G75*
G02*
X125766700Y-120379500I0J-237500D01*
G01*
X125766700Y-120879500D01*
G75*
G02*
X125529200Y-121117000I-237500J0D01*
G01*
X125054200Y-121117000D01*
G75*
G02*
X124816700Y-120879500I0J237500D01*
G01*
X124816700Y-120379500D01*
G75*
G02*
X125054200Y-120142000I237500J0D01*
G01*
G37*
G36*
G01*
X125054200Y-118317000D02*
X125529200Y-118317000D01*
G75*
G02*
X125766700Y-118554500I0J-237500D01*
G01*
X125766700Y-119054500D01*
G75*
G02*
X125529200Y-119292000I-237500J0D01*
G01*
X125054200Y-119292000D01*
G75*
G02*
X124816700Y-119054500I0J237500D01*
G01*
X124816700Y-118554500D01*
G75*
G02*
X125054200Y-118317000I237500J0D01*
G01*
G37*
%TD*%
%TO.C,R2*%
G36*
G01*
X128102200Y-120142000D02*
X128577200Y-120142000D01*
G75*
G02*
X128814700Y-120379500I0J-237500D01*
G01*
X128814700Y-120879500D01*
G75*
G02*
X128577200Y-121117000I-237500J0D01*
G01*
X128102200Y-121117000D01*
G75*
G02*
X127864700Y-120879500I0J237500D01*
G01*
X127864700Y-120379500D01*
G75*
G02*
X128102200Y-120142000I237500J0D01*
G01*
G37*
G36*
G01*
X128102200Y-118317000D02*
X128577200Y-118317000D01*
G75*
G02*
X128814700Y-118554500I0J-237500D01*
G01*
X128814700Y-119054500D01*
G75*
G02*
X128577200Y-119292000I-237500J0D01*
G01*
X128102200Y-119292000D01*
G75*
G02*
X127864700Y-119054500I0J237500D01*
G01*
X127864700Y-118554500D01*
G75*
G02*
X128102200Y-118317000I237500J0D01*
G01*
G37*
%TD*%
%TO.C,R1*%
G36*
G01*
X126578200Y-120142000D02*
X127053200Y-120142000D01*
G75*
G02*
X127290700Y-120379500I0J-237500D01*
G01*
X127290700Y-120879500D01*
G75*
G02*
X127053200Y-121117000I-237500J0D01*
G01*
X126578200Y-121117000D01*
G75*
G02*
X126340700Y-120879500I0J237500D01*
G01*
X126340700Y-120379500D01*
G75*
G02*
X126578200Y-120142000I237500J0D01*
G01*
G37*
G36*
G01*
X126578200Y-118317000D02*
X127053200Y-118317000D01*
G75*
G02*
X127290700Y-118554500I0J-237500D01*
G01*
X127290700Y-119054500D01*
G75*
G02*
X127053200Y-119292000I-237500J0D01*
G01*
X126578200Y-119292000D01*
G75*
G02*
X126340700Y-119054500I0J237500D01*
G01*
X126340700Y-118554500D01*
G75*
G02*
X126578200Y-118317000I237500J0D01*
G01*
G37*
%TD*%
%TO.C,C8*%
G36*
G01*
X132405000Y-100961000D02*
X132405000Y-100461000D01*
G75*
G02*
X132630000Y-100236000I225000J0D01*
G01*
X133080000Y-100236000D01*
G75*
G02*
X133305000Y-100461000I0J-225000D01*
G01*
X133305000Y-100961000D01*
G75*
G02*
X133080000Y-101186000I-225000J0D01*
G01*
X132630000Y-101186000D01*
G75*
G02*
X132405000Y-100961000I0J225000D01*
G01*
G37*
G36*
G01*
X130855000Y-100961000D02*
X130855000Y-100461000D01*
G75*
G02*
X131080000Y-100236000I225000J0D01*
G01*
X131530000Y-100236000D01*
G75*
G02*
X131755000Y-100461000I0J-225000D01*
G01*
X131755000Y-100961000D01*
G75*
G02*
X131530000Y-101186000I-225000J0D01*
G01*
X131080000Y-101186000D01*
G75*
G02*
X130855000Y-100961000I0J225000D01*
G01*
G37*
%TD*%
%TO.C,C4*%
G36*
G01*
X132009000Y-105541000D02*
X132009000Y-106041000D01*
G75*
G02*
X131784000Y-106266000I-225000J0D01*
G01*
X131334000Y-106266000D01*
G75*
G02*
X131109000Y-106041000I0J225000D01*
G01*
X131109000Y-105541000D01*
G75*
G02*
X131334000Y-105316000I225000J0D01*
G01*
X131784000Y-105316000D01*
G75*
G02*
X132009000Y-105541000I0J-225000D01*
G01*
G37*
G36*
G01*
X133559000Y-105541000D02*
X133559000Y-106041000D01*
G75*
G02*
X133334000Y-106266000I-225000J0D01*
G01*
X132884000Y-106266000D01*
G75*
G02*
X132659000Y-106041000I0J225000D01*
G01*
X132659000Y-105541000D01*
G75*
G02*
X132884000Y-105316000I225000J0D01*
G01*
X133334000Y-105316000D01*
G75*
G02*
X133559000Y-105541000I0J-225000D01*
G01*
G37*
%TD*%
%TO.C,C2*%
G36*
G01*
X125728700Y-96988000D02*
X125728700Y-97488000D01*
G75*
G02*
X125503700Y-97713000I-225000J0D01*
G01*
X125053700Y-97713000D01*
G75*
G02*
X124828700Y-97488000I0J225000D01*
G01*
X124828700Y-96988000D01*
G75*
G02*
X125053700Y-96763000I225000J0D01*
G01*
X125503700Y-96763000D01*
G75*
G02*
X125728700Y-96988000I0J-225000D01*
G01*
G37*
G36*
G01*
X127278700Y-96988000D02*
X127278700Y-97488000D01*
G75*
G02*
X127053700Y-97713000I-225000J0D01*
G01*
X126603700Y-97713000D01*
G75*
G02*
X126378700Y-97488000I0J225000D01*
G01*
X126378700Y-96988000D01*
G75*
G02*
X126603700Y-96763000I225000J0D01*
G01*
X127053700Y-96763000D01*
G75*
G02*
X127278700Y-96988000I0J-225000D01*
G01*
G37*
%TD*%
M02*
