%TF.GenerationSoftware,KiCad,Pcbnew,5.1.9-73d0e3b20d~88~ubuntu20.04.1*%
%TF.CreationDate,2021-03-05T17:28:59-06:00*%
%TF.ProjectId,portalgun-display,706f7274-616c-4677-956e-2d646973706c,rev?*%
%TF.SameCoordinates,Original*%
%TF.FileFunction,Soldermask,Top*%
%TF.FilePolarity,Negative*%
%FSLAX46Y46*%
G04 Gerber Fmt 4.6, Leading zero omitted, Abs format (unit mm)*
G04 Created by KiCad (PCBNEW 5.1.9-73d0e3b20d~88~ubuntu20.04.1) date 2021-03-05 17:28:59*
%MOMM*%
%LPD*%
G01*
G04 APERTURE LIST*
%ADD10C,2.700000*%
%ADD11C,1.700000*%
%ADD12R,1.700000X1.700000*%
%ADD13O,0.800000X1.300000*%
G04 APERTURE END LIST*
D10*
%TO.C,H2*%
X145198300Y-101429000D03*
%TD*%
%TO.C,H1*%
X111448700Y-101429000D03*
%TD*%
D11*
%TO.C,U6*%
X135890000Y-100076000D03*
X135890000Y-97536000D03*
X135890000Y-94996000D03*
X135890000Y-92456000D03*
X135890000Y-89916000D03*
X120650000Y-89916000D03*
X120650000Y-92456000D03*
X120650000Y-94996000D03*
X120650000Y-97536000D03*
D12*
X120650000Y-100076000D03*
%TD*%
D11*
%TO.C,U8*%
X135890000Y-112776000D03*
X135890000Y-110236000D03*
X135890000Y-107696000D03*
X135890000Y-105156000D03*
X135890000Y-102616000D03*
X120650000Y-102616000D03*
X120650000Y-105156000D03*
X120650000Y-107696000D03*
X120650000Y-110236000D03*
D12*
X120650000Y-112776000D03*
%TD*%
D11*
%TO.C,U9*%
X135890000Y-125476000D03*
X135890000Y-122936000D03*
X135890000Y-120396000D03*
X135890000Y-117856000D03*
X135890000Y-115316000D03*
X120650000Y-115316000D03*
X120650000Y-117856000D03*
X120650000Y-120396000D03*
X120650000Y-122936000D03*
D12*
X120650000Y-125476000D03*
%TD*%
D11*
%TO.C,U5*%
X135890000Y-87376000D03*
X135890000Y-84836000D03*
X135890000Y-82296000D03*
X135890000Y-79756000D03*
X135890000Y-77216000D03*
X120650000Y-77216000D03*
X120650000Y-79756000D03*
X120650000Y-82296000D03*
X120650000Y-84836000D03*
D12*
X120650000Y-87376000D03*
%TD*%
D13*
%TO.C,J1*%
X132156700Y-125051000D03*
X130906700Y-125051000D03*
X129656700Y-125051000D03*
X128406700Y-125051000D03*
X127156700Y-125051000D03*
X125906700Y-125051000D03*
G36*
G01*
X124256700Y-125501000D02*
X124256700Y-124601000D01*
G75*
G02*
X124456700Y-124401000I200000J0D01*
G01*
X124856700Y-124401000D01*
G75*
G02*
X125056700Y-124601000I0J-200000D01*
G01*
X125056700Y-125501000D01*
G75*
G02*
X124856700Y-125701000I-200000J0D01*
G01*
X124456700Y-125701000D01*
G75*
G02*
X124256700Y-125501000I0J200000D01*
G01*
G37*
%TD*%
M02*
