999
FreeCAD v0.19 
  0
SECTION
  2
HEADER
  9
$ACADVER
  1
AC1014
  9
$ACADMAINTVER
 70
     9
  9
$DWGCODEPAGE
  3
ANSI_1252
  9
$TEXTSTYLE
  7
STANDARD
  9
$DIMSTYLE
  2
STANDARD
  9
$DIMTXSTY
  7
STANDARD
  9
$CMLSTYLE
  2
STANDARD
  9
$PEXTMAX
 10
50
 20
50
 30
50
  9
$PEXTMIN
 10
0
 20
0
 30
0
  9
$HANDSEED
  5
FFFF
  0
ENDSEC
  0
SECTION
  2
CLASSES
  0
CLASS
  1
ACDBDICTIONARYWDFLT
  2
AcDbDictionaryWithDefault
  3
ObjectDBX Classes
 90
        0
280
     0
281
     0
  0
CLASS
  1
XRECORD
  2
AcDbXrecord
  3
ObjectDBX Classes
 90
        0
280
     0
281
     0
  0
CLASS
  1
LWPOLYLINE
  2
AcDbPolyline
  3
ObjectDBX Classes
 90
        0
280
     0
281
     1
  0
ENDSEC
  0
SECTION
  2
TABLES
  0
TABLE
  2
VPORT
  5
20
330
0
100
AcDbSymbolTable
 70
     1
  0
VPORT
  5
21
330
20
100
AcDbSymbolTableRecord
100
AcDbViewportTableRecord
  2
*ACTIVE
 70
     0
  0
ENDTAB
  0
TABLE
  2
LTYPE
  5
22
330
0
100
AcDbSymbolTable
 70
     1
  0
LTYPE
  5
23
330
21
100
AcDbSymbolTableRecord
100
AcDbLinetypeTableRecord
  2
BYBLOCK
 70
     0
  3

 72
    65
 73
     0
 40
0.0
  0
LTYPE
  5
24
330
21
100
AcDbSymbolTableRecord
100
AcDbLinetypeTableRecord
  2
BYLAYER
 70
     0
  3

 72
    65
 73
     0
 40
0.0
  0
LTYPE
  5
25
330
21
100
AcDbSymbolTableRecord
100
AcDbLinetypeTableRecord
  2
CONTINUOUS
 70
     0
  3
Solid line
 72
    65
 73
     0
 40
0.0
  0
ENDTAB
  0
TABLE
  2
LAYER
  5
A71
330
0
100
AcDbSymbolTable
 70
4
  0
LAYER
  5
A72
330
A71
100
AcDbSymbolTableRecord
100
AcDbLayerTableRecord
  2
0
 70
   0
 62
   7
  6
CONTINUOUS
  0
LAYER
  5
A73
330
A71
100
AcDbSymbolTableRecord
100
AcDbLayerTableRecord
  2
ProjItem
 70
    0
 62
    7
  6
CONTINUOUS
  0
LAYER
  5
A74
330
A71
100
AcDbSymbolTableRecord
100
AcDbLayerTableRecord
  2
ProjItem001
 70
    0
 62
    7
  6
CONTINUOUS
  0
LAYER
  5
A75
330
A71
100
AcDbSymbolTableRecord
100
AcDbLayerTableRecord
  2
ProjItem002
 70
    0
 62
    7
  6
CONTINUOUS
  0
ENDTAB
  0
TABLE
  2
STYLE
  5
70
330
0
100
AcDbSymbolTable
 70
     2
  0
STYLE
  5
71
330
70
100
AcDbSymbolTableRecord
100
AcDbTextStyleTableRecord
  2
STANDARD
 70
     0
 40
0.0
 41
1.0
 50
0.0
 71
     0
 42
2.5
  3
arial.ttf
  4

  0
STYLE
  5
72
330
70
100
AcDbSymbolTableRecord
100
AcDbTextStyleTableRecord
  2
ANNOTATIVE
 70
     0
 40
0.0
 41
1.0
 50
0.0
 71
     0
 42
2.5
  3
arial.ttf
  4

  0
ENDTAB
  0
TABLE
  2
VIEW
  5
73
330
0
100
AcDbSymbolTable
 70
     0
  0
ENDTAB
  0
TABLE
  2
UCS
  5
74
330
0
100
AcDbSymbolTable
 70
     0
  0
ENDTAB
  0
TABLE
  2
APPID
  5
75
330
0
100
AcDbSymbolTable
 70
     2
  0
APPID
  5
76
330
75
100
AcDbSymbolTableRecord
100
AcDbRegAppTableRecord
  2
ACAD
 70
     0
  0
APPID
  5
77
330
75
100
AcDbSymbolTableRecord
100
AcDbRegAppTableRecord
  2
ACADANNOTATIVE
 70
     0
  0
ENDTAB
  0
TABLE
  2
DIMSTYLE
  5
78
330
0
100
AcDbSymbolTable
 70
     2
  0
DIMSTYLE
105
79
330
78
100
AcDbSymbolTableRecord
100
AcDbDimStyleTableRecord
  2
STANDARD
 70
     0
  3

  4

  5

  6

  7

 40
0.0
 41
2.5
 42
0.625
 43
3.75
 44
1.25
 45
0.0
 46
0.0
 47
0.0
 48
0.0
140
2.5
141
2.5
142
0.0
143
0.03937007874016
144
1.0
145
0.0
146
1.0
147
0.625
 71
     0
 72
     0
 73
     0
 74
     0
 75
     0
 76
     0
 77
     1
 78
     8
170
     0
171
     3
172
     1
173
     0
174
     0
175
     0
176
     0
177
     0
178
     0
270
     2
271
     2
272
     2
273
     2
274
     3
340
71
275
     0
280
     0
281
     0
282
     0
283
     0
284
     8
285
     0
286
     0
287
     3
288
     0
  0
ENDTAB
  0
TABLE
  2
BLOCK_RECORD
  5
A01
330
0
100
AcDbSymbolTable
  70
5
  0
BLOCK_RECORD
  5
A02
330
A01
100
AcDbSymbolTableRecord
100
AcDbBlockTableRecord
  2
*MODEL_SPACE
  0
BLOCK_RECORD
  5
A03
330
A01
100
AcDbSymbolTableRecord
100
AcDbBlockTableRecord
  2
*PAPER_SPACE
  0
ENDTAB
  0
ENDSEC
  0
SECTION
  2
BLOCKS
  0
BLOCK
  5
A04
330
A02
100
AcDbEntity
  8
0
100
AcDbBlockBegin
  2
*MODEL_SPACE
 70
   0
 10
0
 20
0
 30
0
  3
*MODEL_SPACE
  1
 
  0
ENDBLK
  5
A05
330
A02
100
AcDbEntity
  8
0
100
AcDbBlockEnd
  0
BLOCK
  5
A06
330
A03
100
AcDbEntity
 67
1
  8
0
100
AcDbBlockBegin
  2
*PAPER_SPACE
 70
   0
 10
0
 20
0
 30
0
  3
*PAPER_SPACE
  1
 
  0
ENDBLK
  5
A07
330
A03
100
AcDbEntity
 67
    1
  8
0
100
AcDbBlockEnd
  0
ENDSEC
  0
SECTION
  2
ENTITIES
  0
LINE
  5
A08
330
A02
100
AcDbEntity
  8
ProjItem
100
AcDbLine
 10
112.857
 20
95.0314
 30
0
 11
86.6072
 21
95.0314
 31
0
  0
LINE
  5
A09
330
A02
100
AcDbEntity
  8
ProjItem
100
AcDbLine
 10
86.6072
 20
95.0314
 30
0
 11
86.6072
 21
120.031
 31
0
  0
LINE
  5
A0A
330
A02
100
AcDbEntity
  8
ProjItem
100
AcDbLine
 10
86.6072
 20
120.031
 30
0
 11
112.857
 21
120.031
 31
0
  0
LINE
  5
A0B
330
A02
100
AcDbEntity
  8
ProjItem
100
AcDbLine
 10
112.857
 20
97.7814
 30
0
 11
91.3072
 21
97.7814
 31
0
  0
LINE
  5
A0C
330
A02
100
AcDbEntity
  8
ProjItem
100
AcDbLine
 10
120.857
 20
97.7814
 30
0
 11
112.857
 21
97.7814
 31
0
  0
LINE
  5
A0D
330
A02
100
AcDbEntity
  8
ProjItem
100
AcDbLine
 10
142.407
 20
97.7814
 30
0
 11
120.857
 21
97.7814
 31
0
  0
LINE
  5
A0E
330
A02
100
AcDbEntity
  8
ProjItem
100
AcDbLine
 10
112.857
 20
90.6564
 30
0
 11
112.857
 21
95.0314
 31
0
  0
LINE
  5
A0F
330
A02
100
AcDbEntity
  8
ProjItem
100
AcDbLine
 10
91.3072
 20
97.7814
 30
0
 11
91.3072
 21
117.281
 31
0
  0
LINE
  5
A10
330
A02
100
AcDbEntity
  8
ProjItem
100
AcDbLine
 10
120.857
 20
117.281
 30
0
 11
142.407
 21
117.281
 31
0
  0
LINE
  5
A11
330
A02
100
AcDbEntity
  8
ProjItem
100
AcDbLine
 10
112.857
 20
117.281
 30
0
 11
120.857
 21
117.281
 31
0
  0
LINE
  5
A12
330
A02
100
AcDbEntity
  8
ProjItem
100
AcDbLine
 10
91.3072
 20
117.281
 30
0
 11
112.857
 21
117.281
 31
0
  0
LINE
  5
A13
330
A02
100
AcDbEntity
  8
ProjItem
100
AcDbLine
 10
112.857
 20
120.031
 30
0
 11
112.857
 21
124.406
 31
0
  0
LINE
  5
A14
330
A02
100
AcDbEntity
  8
ProjItem
100
AcDbLine
 10
120.857
 20
120.031
 30
0
 11
147.107
 21
120.031
 31
0
  0
LINE
  5
A15
330
A02
100
AcDbEntity
  8
ProjItem
100
AcDbLine
 10
147.107
 20
120.031
 30
0
 11
147.107
 21
95.0314
 31
0
  0
LINE
  5
A16
330
A02
100
AcDbEntity
  8
ProjItem
100
AcDbLine
 10
147.107
 20
95.0314
 30
0
 11
120.857
 21
95.0314
 31
0
  0
LINE
  5
A17
330
A02
100
AcDbEntity
  8
ProjItem
100
AcDbLine
 10
120.857
 20
95.0314
 30
0
 11
120.857
 21
90.6564
 31
0
  0
ARC
  5
A18
330
A02
100
AcDbEntity
  8
ProjItem
100
AcDbCircle
 10
116.857
 20
90.6564
 30
0
 40
4
100
AcDbArc
 50
180
 51
0
  0
CIRCLE
  5
A19
330
A02
100
AcDbEntity
  8
ProjItem
100
AcDbCircle
 10
116.857
 20
90.6564
 40
1.2
  0
LINE
  5
A1A
330
A02
100
AcDbEntity
  8
ProjItem
100
AcDbLine
 10
112.857
 20
97.2814
 30
0
 11
90.8072
 21
97.2814
 31
0
  0
LINE
  5
A1B
330
A02
100
AcDbEntity
  8
ProjItem
100
AcDbLine
 10
91.3072
 20
97.7814
 30
0
 11
90.8072
 21
97.2814
 31
0
  0
LINE
  5
A1C
330
A02
100
AcDbEntity
  8
ProjItem
100
AcDbLine
 10
120.857
 20
97.2814
 30
0
 11
112.857
 21
97.2814
 31
0
  0
LINE
  5
A1D
330
A02
100
AcDbEntity
  8
ProjItem
100
AcDbLine
 10
142.407
 20
97.7814
 30
0
 11
142.907
 21
97.2814
 31
0
  0
LINE
  5
A1E
330
A02
100
AcDbEntity
  8
ProjItem
100
AcDbLine
 10
142.907
 20
97.2814
 30
0
 11
120.857
 21
97.2814
 31
0
  0
LINE
  5
A1F
330
A02
100
AcDbEntity
  8
ProjItem
100
AcDbLine
 10
142.407
 20
117.281
 30
0
 11
142.407
 21
97.7814
 31
0
  0
LINE
  5
A20
330
A02
100
AcDbEntity
  8
ProjItem
100
AcDbLine
 10
88.3572
 20
98.7814
 30
0
 11
88.3572
 21
116.281
 31
0
  0
ARC
  5
A21
330
A02
100
AcDbEntity
  8
ProjItem
100
AcDbCircle
 10
90.3572
 20
116.281
 30
0
 40
2
100
AcDbArc
 50
90
 51
180
  0
LINE
  5
A22
330
A02
100
AcDbEntity
  8
ProjItem
100
AcDbLine
 10
90.3572
 20
118.281
 30
0
 11
112.857
 21
118.281
 31
0
  0
LINE
  5
A23
330
A02
100
AcDbEntity
  8
ProjItem
100
AcDbLine
 10
112.857
 20
118.281
 30
0
 11
112.857
 21
120.031
 31
0
  0
LINE
  5
A24
330
A02
100
AcDbEntity
  8
ProjItem
100
AcDbLine
 10
112.857
 20
95.0314
 30
0
 11
112.857
 21
96.7814
 31
0
  0
LINE
  5
A25
330
A02
100
AcDbEntity
  8
ProjItem
100
AcDbLine
 10
112.857
 20
96.7814
 30
0
 11
90.3572
 21
96.7814
 31
0
  0
ARC
  5
A26
330
A02
100
AcDbEntity
  8
ProjItem
100
AcDbCircle
 10
90.3572
 20
98.7814
 30
0
 40
2
100
AcDbArc
 50
180
 51
-90
  0
LINE
  5
A27
330
A02
100
AcDbEntity
  8
ProjItem
100
AcDbLine
 10
120.857
 20
95.0314
 30
0
 11
112.857
 21
95.0314
 31
0
  0
CIRCLE
  5
A28
330
A02
100
AcDbEntity
  8
ProjItem
100
AcDbCircle
 10
116.857
 20
90.6564
 40
2.75
  0
LINE
  5
A29
330
A02
100
AcDbEntity
  8
ProjItem
100
AcDbLine
 10
90.8072
 20
97.2814
 30
0
 11
90.8072
 21
117.781
 31
0
  0
LINE
  5
A2A
330
A02
100
AcDbEntity
  8
ProjItem
100
AcDbLine
 10
91.3072
 20
117.281
 30
0
 11
90.8072
 21
117.781
 31
0
  0
LINE
  5
A2B
330
A02
100
AcDbEntity
  8
ProjItem
100
AcDbLine
 10
120.857
 20
117.781
 30
0
 11
142.907
 21
117.781
 31
0
  0
LINE
  5
A2C
330
A02
100
AcDbEntity
  8
ProjItem
100
AcDbLine
 10
142.907
 20
117.781
 30
0
 11
142.407
 21
117.281
 31
0
  0
LINE
  5
A2D
330
A02
100
AcDbEntity
  8
ProjItem
100
AcDbLine
 10
112.857
 20
117.781
 30
0
 11
120.857
 21
117.781
 31
0
  0
LINE
  5
A2E
330
A02
100
AcDbEntity
  8
ProjItem
100
AcDbLine
 10
90.8072
 20
117.781
 30
0
 11
112.857
 21
117.781
 31
0
  0
ARC
  5
A2F
330
A02
100
AcDbEntity
  8
ProjItem
100
AcDbCircle
 10
116.857
 20
124.406
 30
0
 40
4
100
AcDbArc
 50
0
 51
180
  0
LINE
  5
A30
330
A02
100
AcDbEntity
  8
ProjItem
100
AcDbLine
 10
120.857
 20
124.406
 30
0
 11
120.857
 21
120.031
 31
0
  0
LINE
  5
A31
330
A02
100
AcDbEntity
  8
ProjItem
100
AcDbLine
 10
112.857
 20
120.031
 30
0
 11
120.857
 21
120.031
 31
0
  0
CIRCLE
  5
A32
330
A02
100
AcDbEntity
  8
ProjItem
100
AcDbCircle
 10
116.857
 20
124.406
 40
2.75
  0
CIRCLE
  5
A33
330
A02
100
AcDbEntity
  8
ProjItem
100
AcDbCircle
 10
116.857
 20
124.406
 40
1.2
  0
LINE
  5
A34
330
A02
100
AcDbEntity
  8
ProjItem
100
AcDbLine
 10
120.857
 20
96.7814
 30
0
 11
120.857
 21
95.0314
 31
0
  0
LINE
  5
A35
330
A02
100
AcDbEntity
  8
ProjItem
100
AcDbLine
 10
112.857
 20
96.7814
 30
0
 11
112.857
 21
97.2814
 31
0
  0
LINE
  5
A36
330
A02
100
AcDbEntity
  8
ProjItem
100
AcDbLine
 10
112.857
 20
117.781
 30
0
 11
112.857
 21
118.281
 31
0
  0
LINE
  5
A37
330
A02
100
AcDbEntity
  8
ProjItem
100
AcDbLine
 10
120.857
 20
97.2814
 30
0
 11
120.857
 21
96.7814
 31
0
  0
LINE
  5
A38
330
A02
100
AcDbEntity
  8
ProjItem
100
AcDbLine
 10
142.907
 20
117.781
 30
0
 11
142.907
 21
97.2814
 31
0
  0
LINE
  5
A39
330
A02
100
AcDbEntity
  8
ProjItem
100
AcDbLine
 10
120.857
 20
118.281
 30
0
 11
120.857
 21
117.781
 31
0
  0
LINE
  5
A3A
330
A02
100
AcDbEntity
  8
ProjItem
100
AcDbLine
 10
120.857
 20
118.281
 30
0
 11
143.357
 21
118.281
 31
0
  0
ARC
  5
A3B
330
A02
100
AcDbEntity
  8
ProjItem
100
AcDbCircle
 10
143.357
 20
116.281
 30
0
 40
2
100
AcDbArc
 50
0
 51
90
  0
LINE
  5
A3C
330
A02
100
AcDbEntity
  8
ProjItem
100
AcDbLine
 10
145.357
 20
116.281
 30
0
 11
145.357
 21
98.7814
 31
0
  0
ARC
  5
A3D
330
A02
100
AcDbEntity
  8
ProjItem
100
AcDbCircle
 10
143.357
 20
98.7814
 30
0
 40
2
100
AcDbArc
 50
-90
 51
0
  0
LINE
  5
A3E
330
A02
100
AcDbEntity
  8
ProjItem
100
AcDbLine
 10
143.357
 20
96.7814
 30
0
 11
120.857
 21
96.7814
 31
0
  0
LINE
  5
A3F
330
A02
100
AcDbEntity
  8
ProjItem
100
AcDbLine
 10
120.857
 20
120.031
 30
0
 11
120.857
 21
118.281
 31
0
  0
LINE
  5
A40
330
A02
100
AcDbEntity
  8
ProjItem
100
AcDbLine
 10
112.857
 20
97.7814
 30
0
 11
112.857
 21
97.2814
 31
0
  0
LINE
  5
A41
330
A02
100
AcDbEntity
  8
ProjItem
100
AcDbLine
 10
120.857
 20
97.7814
 30
0
 11
120.857
 21
97.2814
 31
0
  0
LINE
  5
A42
330
A02
100
AcDbEntity
  8
ProjItem
100
AcDbLine
 10
120.857
 20
117.281
 30
0
 11
120.857
 21
117.781
 31
0
  0
LINE
  5
A43
330
A02
100
AcDbEntity
  8
ProjItem
100
AcDbLine
 10
112.857
 20
117.281
 30
0
 11
112.857
 21
117.781
 31
0
  0
LINE
  5
A44
330
A02
100
AcDbEntity
  8
ProjItem001
100
AcDbLine
 10
112.857
 20
158.406
 30
0
 11
86.6072
 21
158.406
 31
0
  0
LINE
  5
A45
330
A02
100
AcDbEntity
  8
ProjItem001
100
AcDbLine
 10
86.6072
 20
158.406
 30
0
 11
86.6072
 21
162.406
 31
0
  0
LINE
  5
A46
330
A02
100
AcDbEntity
  8
ProjItem001
100
AcDbLine
 10
112.857
 20
162.406
 30
0
 11
86.6072
 21
162.406
 31
0
  0
LINE
  5
A47
330
A02
100
AcDbEntity
  8
ProjItem001
100
AcDbLine
 10
147.107
 20
158.406
 30
0
 11
120.857
 21
158.406
 31
0
  0
SPLINE
  5
A48
330
A02
100
AcDbEntity
  8
ProjItem001
100
AcDbSpline
210
0
220
0
230
1
 70
8
 71
1
 72
17
 73
15
 74
0
 40
3.14159
 40
3.14159
 40
3.36599
 40
3.59039
 40
3.81479
 40
4.03919
 40
4.26359
 40
4.48799
 40
4.71239
 40
4.93679
 40
5.16119
 40
5.38559
 40
5.60999
 40
5.83439
 40
6.05879
 40
6.28319
 40
6.28319
 10
112.857
 20
158.406
 30
0
 10
112.957
 20
158.406
 30
0
 10
113.253
 20
158.406
 30
0
 10
113.73
 20
158.406
 30
0
 10
114.363
 20
158.406
 30
0
 10
115.122
 20
158.406
 30
0
 10
115.967
 20
158.406
 30
0
 10
116.857
 20
158.406
 30
0
 10
117.747
 20
158.406
 30
0
 10
118.593
 20
158.406
 30
0
 10
119.351
 20
158.406
 30
0
 10
119.984
 20
158.406
 30
0
 10
120.461
 20
158.406
 30
0
 10
120.757
 20
158.406
 30
0
 10
120.857
 20
158.406
 30
0
  0
LINE
  5
A49
330
A02
100
AcDbEntity
  8
ProjItem001
100
AcDbLine
 10
112.857
 20
164.406
 30
0
 11
112.857
 21
158.406
 31
0
  0
LINE
  5
A4A
330
A02
100
AcDbEntity
  8
ProjItem001
100
AcDbLine
 10
147.107
 20
158.406
 30
0
 11
147.107
 21
162.406
 31
0
  0
LINE
  5
A4B
330
A02
100
AcDbEntity
  8
ProjItem001
100
AcDbLine
 10
147.107
 20
162.406
 30
0
 11
120.857
 21
162.406
 31
0
  0
LINE
  5
A4C
330
A02
100
AcDbEntity
  8
ProjItem001
100
AcDbLine
 10
120.857
 20
164.406
 30
0
 11
120.857
 21
158.406
 31
0
  0
SPLINE
  5
A4D
330
A02
100
AcDbEntity
  8
ProjItem001
100
AcDbSpline
210
0
220
0
230
1
 70
8
 71
1
 72
17
 73
15
 74
0
 40
3.14159
 40
3.14159
 40
3.36599
 40
3.59039
 40
3.81479
 40
4.03919
 40
4.26359
 40
4.48799
 40
4.71239
 40
4.93679
 40
5.16119
 40
5.38559
 40
5.60999
 40
5.83439
 40
6.05879
 40
6.28319
 40
6.28319
 10
112.857
 20
164.406
 30
0
 10
112.957
 20
164.406
 30
0
 10
113.253
 20
164.406
 30
0
 10
113.73
 20
164.406
 30
0
 10
114.363
 20
164.406
 30
0
 10
115.122
 20
164.406
 30
0
 10
115.967
 20
164.406
 30
0
 10
116.857
 20
164.406
 30
0
 10
117.747
 20
164.406
 30
0
 10
118.593
 20
164.406
 30
0
 10
119.351
 20
164.406
 30
0
 10
119.984
 20
164.406
 30
0
 10
120.461
 20
164.406
 30
0
 10
120.757
 20
164.406
 30
0
 10
120.857
 20
164.406
 30
0
  0
LINE
  5
A4E
330
A02
100
AcDbEntity
  8
ProjItem001
100
AcDbLine
 10
88.3572
 20
164.406
 30
0
 11
88.3572
 21
162.406
 31
0
  0
LINE
  5
A4F
330
A02
100
AcDbEntity
  8
ProjItem001
100
AcDbLine
 10
112.857
 20
164.406
 30
0
 11
90.3572
 21
164.406
 31
0
  0
SPLINE
  5
A50
330
A02
100
AcDbEntity
  8
ProjItem001
100
AcDbSpline
210
0
220
0
230
1
 70
8
 71
2
 72
30
 73
27
 74
0
 40
3.14159
 40
3.14159
 40
3.14159
 40
3.25379
 40
3.25379
 40
3.36599
 40
3.36599
 40
3.47819
 40
3.47819
 40
3.59039
 40
3.59039
 40
3.70259
 40
3.70259
 40
3.81479
 40
3.81479
 40
3.92699
 40
3.92699
 40
4.03919
 40
4.03919
 40
4.15139
 40
4.15139
 40
4.26359
 40
4.26359
 40
4.37579
 40
4.37579
 40
4.48799
 40
4.48799
 40
4.71239
 40
4.71239
 40
4.71239
 10
88.3572
 20
164.406
 30
0
 10
88.3634
 20
164.406
 30
0
 10
88.3697
 20
164.406
 30
0
 10
88.3885
 20
164.406
 30
0
 10
88.4073
 20
164.406
 30
0
 10
88.4383
 20
164.406
 30
0
 10
88.4694
 20
164.406
 30
0
 10
88.5123
 20
164.406
 30
0
 10
88.5552
 20
164.406
 30
0
 10
88.6095
 20
164.406
 30
0
 10
88.6637
 20
164.406
 30
0
 10
88.7286
 20
164.406
 30
0
 10
88.7935
 20
164.406
 30
0
 10
88.8682
 20
164.406
 30
0
 10
88.9429
 20
164.406
 30
0
 10
89.0266
 20
164.406
 30
0
 10
89.1102
 20
164.406
 30
0
 10
89.2016
 20
164.406
 30
0
 10
89.2931
 20
164.406
 30
0
 10
89.3912
 20
164.406
 30
0
 10
89.4894
 20
164.406
 30
0
 10
89.593
 20
164.406
 30
0
 10
89.6966
 20
164.406
 30
0
 10
89.8044
 20
164.406
 30
0
 10
89.9121
 20
164.406
 30
0
 10
90.1324
 20
164.406
 30
0
 10
90.3572
 20
164.406
 30
0
  0
SPLINE
  5
A51
330
A02
100
AcDbEntity
  8
ProjItem001
100
AcDbSpline
210
0
220
0
230
1
 70
8
 71
3
 72
41
 73
37
 74
0
 40
4.71239
 40
4.71239
 40
4.71239
 40
4.71239
 40
5.04899
 40
5.04899
 40
5.04899
 40
5.16119
 40
5.16119
 40
5.16119
 40
5.27339
 40
5.27339
 40
5.27339
 40
5.38559
 40
5.38559
 40
5.38559
 40
5.49779
 40
5.49779
 40
5.49779
 40
5.60999
 40
5.60999
 40
5.60999
 40
5.72219
 40
5.72219
 40
5.72219
 40
5.83439
 40
5.83439
 40
5.83439
 40
5.94659
 40
5.94659
 40
5.94659
 40
6.05879
 40
6.05879
 40
6.05879
 40
6.17099
 40
6.17099
 40
6.17099
 40
6.28319
 40
6.28319
 40
6.28319
 40
6.28319
 10
143.357
 20
164.406
 30
0
 10
143.582
 20
164.406
 30
0
 10
143.804
 20
164.406
 30
0
 10
144.018
 20
164.406
 30
0
 10
144.087
 20
164.406
 30
0
 10
144.156
 20
164.406
 30
0
 10
144.225
 20
164.406
 30
0
 10
144.29
 20
164.406
 30
0
 10
144.356
 20
164.406
 30
0
 10
144.421
 20
164.406
 30
0
 10
144.482
 20
164.406
 30
0
 10
144.543
 20
164.406
 30
0
 10
144.604
 20
164.406
 30
0
 10
144.66
 20
164.406
 30
0
 10
144.716
 20
164.406
 30
0
 10
144.771
 20
164.406
 30
0
 10
144.821
 20
164.406
 30
0
 10
144.871
 20
164.406
 30
0
 10
144.921
 20
164.406
 30
0
 10
144.964
 20
164.406
 30
0
 10
145.007
 20
164.406
 30
0
 10
145.051
 20
164.406
 30
0
 10
145.087
 20
164.406
 30
0
 10
145.123
 20
164.406
 30
0
 10
145.159
 20
164.406
 30
0
 10
145.188
 20
164.406
 30
0
 10
145.216
 20
164.406
 30
0
 10
145.245
 20
164.406
 30
0
 10
145.266
 20
164.406
 30
0
 10
145.286
 20
164.406
 30
0
 10
145.307
 20
164.406
 30
0
 10
145.32
 20
164.406
 30
0
 10
145.332
 20
164.406
 30
0
 10
145.345
 20
164.406
 30
0
 10
145.349
 20
164.406
 30
0
 10
145.353
 20
164.406
 30
0
 10
145.357
 20
164.406
 30
0
  0
LINE
  5
A52
330
A02
100
AcDbEntity
  8
ProjItem001
100
AcDbLine
 10
143.357
 20
164.406
 30
0
 11
120.857
 21
164.406
 31
0
  0
LINE
  5
A53
330
A02
100
AcDbEntity
  8
ProjItem001
100
AcDbLine
 10
145.357
 20
164.406
 30
0
 11
145.357
 21
162.406
 31
0
  0
LINE
  5
A54
330
A02
100
AcDbEntity
  8
ProjItem001
100
AcDbLine
 10
90.3572
 20
164.406
 30
0
 11
90.3572
 21
162.406
 31
0
  0
LINE
  5
A55
330
A02
100
AcDbEntity
  8
ProjItem001
100
AcDbLine
 10
143.357
 20
164.406
 30
0
 11
143.357
 21
162.406
 31
0
  0
LINE
  5
A56
330
A02
100
AcDbEntity
  8
ProjItem002
100
AcDbLine
 10
177.107
 20
95.0314
 30
0
 11
177.107
 21
120.031
 31
0
  0
LINE
  5
A57
330
A02
100
AcDbEntity
  8
ProjItem002
100
AcDbLine
 10
177.107
 20
95.0314
 30
0
 11
181.107
 21
95.0314
 31
0
  0
LINE
  5
A58
330
A02
100
AcDbEntity
  8
ProjItem002
100
AcDbLine
 10
177.107
 20
120.031
 30
0
 11
181.107
 21
120.031
 31
0
  0
LINE
  5
A59
330
A02
100
AcDbEntity
  8
ProjItem002
100
AcDbLine
 10
181.107
 20
95.0314
 30
0
 11
181.107
 21
120.031
 31
0
  0
LINE
  5
A5A
330
A02
100
AcDbEntity
  8
ProjItem002
100
AcDbLine
 10
177.107
 20
90.6564
 30
0
 11
177.107
 21
95.0314
 31
0
  0
SPLINE
  5
A5B
330
A02
100
AcDbEntity
  8
ProjItem002
100
AcDbSpline
210
0
220
0
230
1
 70
8
 71
1
 72
17
 73
15
 74
0
 40
3.14159
 40
3.14159
 40
3.25379
 40
3.36599
 40
3.47819
 40
3.59039
 40
3.70259
 40
3.81479
 40
3.92699
 40
4.03919
 40
4.15139
 40
4.26359
 40
4.37579
 40
4.48799
 40
4.60019
 40
4.71239
 40
4.71239
 10
177.107
 20
90.6564
 30
0
 10
177.107
 20
90.2086
 30
0
 10
177.107
 20
89.7663
 30
0
 10
177.107
 20
89.3353
 30
0
 10
177.107
 20
88.9209
 30
0
 10
177.107
 20
88.5283
 30
0
 10
177.107
 20
88.1625
 30
0
 10
177.107
 20
87.828
 30
0
 10
177.107
 20
87.5291
 30
0
 10
177.107
 20
87.2695
 30
0
 10
177.107
 20
87.0526
 30
0
 10
177.107
 20
86.8809
 30
0
 10
177.107
 20
86.7567
 30
0
 10
177.107
 20
86.6816
 30
0
 10
177.107
 20
86.6564
 30
0
  0
LINE
  5
A5C
330
A02
100
AcDbEntity
  8
ProjItem002
100
AcDbLine
 10
183.107
 20
90.6564
 30
0
 11
183.107
 21
95.0314
 31
0
  0
LINE
  5
A5D
330
A02
100
AcDbEntity
  8
ProjItem002
100
AcDbLine
 10
181.107
 20
95.0314
 30
0
 11
183.107
 21
95.0314
 31
0
  0
LINE
  5
A5E
330
A02
100
AcDbEntity
  8
ProjItem002
100
AcDbLine
 10
183.107
 20
120.031
 30
0
 11
183.107
 21
124.406
 31
0
  0
LINE
  5
A5F
330
A02
100
AcDbEntity
  8
ProjItem002
100
AcDbLine
 10
177.107
 20
120.031
 30
0
 11
177.107
 21
124.406
 31
0
  0
LINE
  5
A60
330
A02
100
AcDbEntity
  8
ProjItem002
100
AcDbLine
 10
183.107
 20
120.031
 30
0
 11
181.107
 21
120.031
 31
0
  0
SPLINE
  5
A61
330
A02
100
AcDbEntity
  8
ProjItem002
100
AcDbSpline
210
0
220
0
230
1
 70
8
 71
2
 72
30
 73
27
 74
0
 40
1.5708
 40
1.5708
 40
1.5708
 40
1.683
 40
1.683
 40
1.7952
 40
1.7952
 40
1.9074
 40
1.9074
 40
2.0196
 40
2.0196
 40
2.1318
 40
2.1318
 40
2.24399
 40
2.24399
 40
2.35619
 40
2.35619
 40
2.46839
 40
2.46839
 40
2.58059
 40
2.58059
 40
2.69279
 40
2.69279
 40
2.80499
 40
2.80499
 40
2.91719
 40
2.91719
 40
3.14159
 40
3.14159
 40
3.14159
 10
177.107
 20
128.406
 30
0
 10
177.107
 20
128.394
 30
0
 10
177.107
 20
128.381
 30
0
 10
177.107
 20
128.344
 30
0
 10
177.107
 20
128.306
 30
0
 10
177.107
 20
128.244
 30
0
 10
177.107
 20
128.182
 30
0
 10
177.107
 20
128.096
 30
0
 10
177.107
 20
128.01
 30
0
 10
177.107
 20
127.902
 30
0
 10
177.107
 20
127.793
 30
0
 10
177.107
 20
127.664
 30
0
 10
177.107
 20
127.534
 30
0
 10
177.107
 20
127.384
 30
0
 10
177.107
 20
127.235
 30
0
 10
177.107
 20
127.068
 30
0
 10
177.107
 20
126.9
 30
0
 10
177.107
 20
126.717
 30
0
 10
177.107
 20
126.535
 30
0
 10
177.107
 20
126.338
 30
0
 10
177.107
 20
126.142
 30
0
 10
177.107
 20
125.935
 30
0
 10
177.107
 20
125.728
 30
0
 10
177.107
 20
125.512
 30
0
 10
177.107
 20
125.297
 30
0
 10
177.107
 20
124.856
 30
0
 10
177.107
 20
124.406
 30
0
  0
SPLINE
  5
A62
330
A02
100
AcDbEntity
  8
ProjItem002
100
AcDbSpline
210
0
220
0
230
1
 70
8
 71
1
 72
17
 73
15
 74
0
 40
3.14159
 40
3.14159
 40
3.25379
 40
3.36599
 40
3.47819
 40
3.59039
 40
3.70259
 40
3.81479
 40
3.92699
 40
4.03919
 40
4.15139
 40
4.26359
 40
4.37579
 40
4.48799
 40
4.60019
 40
4.71239
 40
4.71239
 10
183.107
 20
90.6564
 30
0
 10
183.107
 20
90.2086
 30
0
 10
183.107
 20
89.7663
 30
0
 10
183.107
 20
89.3353
 30
0
 10
183.107
 20
88.9209
 30
0
 10
183.107
 20
88.5283
 30
0
 10
183.107
 20
88.1625
 30
0
 10
183.107
 20
87.828
 30
0
 10
183.107
 20
87.5291
 30
0
 10
183.107
 20
87.2695
 30
0
 10
183.107
 20
87.0526
 30
0
 10
183.107
 20
86.8809
 30
0
 10
183.107
 20
86.7567
 30
0
 10
183.107
 20
86.6816
 30
0
 10
183.107
 20
86.6564
 30
0
  0
LINE
  5
A63
330
A02
100
AcDbEntity
  8
ProjItem002
100
AcDbLine
 10
183.107
 20
98.7814
 30
0
 11
183.107
 21
116.281
 31
0
  0
LINE
  5
A64
330
A02
100
AcDbEntity
  8
ProjItem002
100
AcDbLine
 10
183.107
 20
118.281
 30
0
 11
181.107
 21
118.281
 31
0
  0
SPLINE
  5
A65
330
A02
100
AcDbEntity
  8
ProjItem002
100
AcDbSpline
210
0
220
0
230
1
 70
8
 71
2
 72
30
 73
27
 74
0
 40
1.5708
 40
1.5708
 40
1.5708
 40
1.683
 40
1.683
 40
1.7952
 40
1.7952
 40
1.9074
 40
1.9074
 40
2.0196
 40
2.0196
 40
2.1318
 40
2.1318
 40
2.24399
 40
2.24399
 40
2.35619
 40
2.35619
 40
2.46839
 40
2.46839
 40
2.58059
 40
2.58059
 40
2.69279
 40
2.69279
 40
2.80499
 40
2.80499
 40
2.91719
 40
2.91719
 40
3.14159
 40
3.14159
 40
3.14159
 10
183.107
 20
118.281
 30
0
 10
183.107
 20
118.275
 30
0
 10
183.107
 20
118.269
 30
0
 10
183.107
 20
118.25
 30
0
 10
183.107
 20
118.231
 30
0
 10
183.107
 20
118.2
 30
0
 10
183.107
 20
118.169
 30
0
 10
183.107
 20
118.126
 30
0
 10
183.107
 20
118.083
 30
0
 10
183.107
 20
118.029
 30
0
 10
183.107
 20
117.975
 30
0
 10
183.107
 20
117.91
 30
0
 10
183.107
 20
117.845
 30
0
 10
183.107
 20
117.77
 30
0
 10
183.107
 20
117.696
 30
0
 10
183.107
 20
117.612
 30
0
 10
183.107
 20
117.528
 30
0
 10
183.107
 20
117.437
 30
0
 10
183.107
 20
117.345
 30
0
 10
183.107
 20
117.247
 30
0
 10
183.107
 20
117.149
 30
0
 10
183.107
 20
117.046
 30
0
 10
183.107
 20
116.942
 30
0
 10
183.107
 20
116.834
 30
0
 10
183.107
 20
116.726
 30
0
 10
183.107
 20
116.506
 30
0
 10
183.107
 20
116.281
 30
0
  0
LINE
  5
A66
330
A02
100
AcDbEntity
  8
ProjItem002
100
AcDbLine
 10
183.107
 20
118.281
 30
0
 11
183.107
 21
120.031
 31
0
  0
LINE
  5
A67
330
A02
100
AcDbEntity
  8
ProjItem002
100
AcDbLine
 10
183.107
 20
95.0314
 30
0
 11
183.107
 21
96.7814
 31
0
  0
LINE
  5
A68
330
A02
100
AcDbEntity
  8
ProjItem002
100
AcDbLine
 10
183.107
 20
96.7814
 30
0
 11
181.107
 21
96.7814
 31
0
  0
SPLINE
  5
A69
330
A02
100
AcDbEntity
  8
ProjItem002
100
AcDbSpline
210
0
220
0
230
1
 70
8
 71
3
 72
41
 73
37
 74
0
 40
3.14159
 40
3.14159
 40
3.14159
 40
3.14159
 40
3.47819
 40
3.47819
 40
3.47819
 40
3.59039
 40
3.59039
 40
3.59039
 40
3.70259
 40
3.70259
 40
3.70259
 40
3.81479
 40
3.81479
 40
3.81479
 40
3.92699
 40
3.92699
 40
3.92699
 40
4.03919
 40
4.03919
 40
4.03919
 40
4.15139
 40
4.15139
 40
4.15139
 40
4.26359
 40
4.26359
 40
4.26359
 40
4.37579
 40
4.37579
 40
4.37579
 40
4.48799
 40
4.48799
 40
4.48799
 40
4.60019
 40
4.60019
 40
4.60019
 40
4.71239
 40
4.71239
 40
4.71239
 40
4.71239
 10
183.107
 20
98.7814
 30
0
 10
183.107
 20
98.5567
 30
0
 10
183.107
 20
98.3341
 30
0
 10
183.107
 20
98.1209
 30
0
 10
183.107
 20
98.0518
 30
0
 10
183.107
 20
97.9827
 30
0
 10
183.107
 20
97.9137
 30
0
 10
183.107
 20
97.8482
 30
0
 10
183.107
 20
97.7828
 30
0
 10
183.107
 20
97.7174
 30
0
 10
183.107
 20
97.6564
 30
0
 10
183.107
 20
97.5954
 30
0
 10
183.107
 20
97.5344
 30
0
 10
183.107
 20
97.4787
 30
0
 10
183.107
 20
97.423
 30
0
 10
183.107
 20
97.3672
 30
0
 10
183.107
 20
97.3174
 30
0
 10
183.107
 20
97.2676
 30
0
 10
183.107
 20
97.2178
 30
0
 10
183.107
 20
97.1745
 30
0
 10
183.107
 20
97.1312
 30
0
 10
183.107
 20
97.088
 30
0
 10
183.107
 20
97.0518
 30
0
 10
183.107
 20
97.0157
 30
0
 10
183.107
 20
96.9795
 30
0
 10
183.107
 20
96.9509
 30
0
 10
183.107
 20
96.9223
 30
0
 10
183.107
 20
96.8937
 30
0
 10
183.107
 20
96.873
 30
0
 10
183.107
 20
96.8523
 30
0
 10
183.107
 20
96.8316
 30
0
 10
183.107
 20
96.819
 30
0
 10
183.107
 20
96.8065
 30
0
 10
183.107
 20
96.794
 30
0
 10
183.107
 20
96.7898
 30
0
 10
183.107
 20
96.7856
 30
0
 10
183.107
 20
96.7814
 30
0
  0
SPLINE
  5
A6A
330
A02
100
AcDbEntity
  8
ProjItem002
100
AcDbSpline
210
0
220
0
230
1
 70
8
 71
2
 72
30
 73
27
 74
0
 40
1.5708
 40
1.5708
 40
1.5708
 40
1.683
 40
1.683
 40
1.7952
 40
1.7952
 40
1.9074
 40
1.9074
 40
2.0196
 40
2.0196
 40
2.1318
 40
2.1318
 40
2.24399
 40
2.24399
 40
2.35619
 40
2.35619
 40
2.46839
 40
2.46839
 40
2.58059
 40
2.58059
 40
2.69279
 40
2.69279
 40
2.80499
 40
2.80499
 40
2.91719
 40
2.91719
 40
3.14159
 40
3.14159
 40
3.14159
 10
183.107
 20
128.406
 30
0
 10
183.107
 20
128.394
 30
0
 10
183.107
 20
128.381
 30
0
 10
183.107
 20
128.344
 30
0
 10
183.107
 20
128.306
 30
0
 10
183.107
 20
128.244
 30
0
 10
183.107
 20
128.182
 30
0
 10
183.107
 20
128.096
 30
0
 10
183.107
 20
128.01
 30
0
 10
183.107
 20
127.902
 30
0
 10
183.107
 20
127.793
 30
0
 10
183.107
 20
127.664
 30
0
 10
183.107
 20
127.534
 30
0
 10
183.107
 20
127.384
 30
0
 10
183.107
 20
127.235
 30
0
 10
183.107
 20
127.068
 30
0
 10
183.107
 20
126.9
 30
0
 10
183.107
 20
126.717
 30
0
 10
183.107
 20
126.535
 30
0
 10
183.107
 20
126.338
 30
0
 10
183.107
 20
126.142
 30
0
 10
183.107
 20
125.935
 30
0
 10
183.107
 20
125.728
 30
0
 10
183.107
 20
125.512
 30
0
 10
183.107
 20
125.297
 30
0
 10
183.107
 20
124.856
 30
0
 10
183.107
 20
124.406
 30
0
  0
LINE
  5
A6B
330
A02
100
AcDbEntity
  8
ProjItem002
100
AcDbLine
 10
177.107
 20
86.6564
 30
0
 11
183.107
 21
86.6564
 31
0
  0
LINE
  5
A6C
330
A02
100
AcDbEntity
  8
ProjItem002
100
AcDbLine
 10
177.107
 20
128.406
 30
0
 11
183.107
 21
128.406
 31
0
  0
LINE
  5
A6D
330
A02
100
AcDbEntity
  8
ProjItem002
100
AcDbLine
 10
183.107
 20
90.6564
 30
0
 11
177.107
 21
90.6564
 31
0
  0
LINE
  5
A6E
330
A02
100
AcDbEntity
  8
ProjItem002
100
AcDbLine
 10
183.107
 20
124.406
 30
0
 11
177.107
 21
124.406
 31
0
  0
LINE
  5
A6F
330
A02
100
AcDbEntity
  8
ProjItem002
100
AcDbLine
 10
183.107
 20
98.7814
 30
0
 11
181.107
 21
98.7814
 31
0
  0
LINE
  5
A70
330
A02
100
AcDbEntity
  8
ProjItem002
100
AcDbLine
 10
183.107
 20
116.281
 30
0
 11
181.107
 21
116.281
 31
0
  0
ENDSEC
  0
SECTION
  2
OBJECTS
  0
DICTIONARY
  5
F000
330
0
100
AcDbDictionary
  3
ACAD_GROUP
350
F001
  0
DICTIONARY
  5
F001
330
F000
100
AcDbDictionary
  0
ENDSEC
  0
EOF