999
FreeCAD v0.19 
  0
SECTION
  2
HEADER
  9
$ACADVER
  1
AC1014
  9
$ACADMAINTVER
 70
     9
  9
$DWGCODEPAGE
  3
ANSI_1252
  9
$TEXTSTYLE
  7
STANDARD
  9
$DIMSTYLE
  2
STANDARD
  9
$DIMTXSTY
  7
STANDARD
  9
$CMLSTYLE
  2
STANDARD
  9
$PEXTMAX
 10
50
 20
50
 30
50
  9
$PEXTMIN
 10
0
 20
0
 30
0
  9
$HANDSEED
  5
FFFF
  0
ENDSEC
  0
SECTION
  2
CLASSES
  0
CLASS
  1
ACDBDICTIONARYWDFLT
  2
AcDbDictionaryWithDefault
  3
ObjectDBX Classes
 90
        0
280
     0
281
     0
  0
CLASS
  1
XRECORD
  2
AcDbXrecord
  3
ObjectDBX Classes
 90
        0
280
     0
281
     0
  0
CLASS
  1
LWPOLYLINE
  2
AcDbPolyline
  3
ObjectDBX Classes
 90
        0
280
     0
281
     1
  0
ENDSEC
  0
SECTION
  2
TABLES
  0
TABLE
  2
VPORT
  5
20
330
0
100
AcDbSymbolTable
 70
     1
  0
VPORT
  5
21
330
20
100
AcDbSymbolTableRecord
100
AcDbViewportTableRecord
  2
*ACTIVE
 70
     0
  0
ENDTAB
  0
TABLE
  2
LTYPE
  5
22
330
0
100
AcDbSymbolTable
 70
     1
  0
LTYPE
  5
23
330
21
100
AcDbSymbolTableRecord
100
AcDbLinetypeTableRecord
  2
BYBLOCK
 70
     0
  3

 72
    65
 73
     0
 40
0.0
  0
LTYPE
  5
24
330
21
100
AcDbSymbolTableRecord
100
AcDbLinetypeTableRecord
  2
BYLAYER
 70
     0
  3

 72
    65
 73
     0
 40
0.0
  0
LTYPE
  5
25
330
21
100
AcDbSymbolTableRecord
100
AcDbLinetypeTableRecord
  2
CONTINUOUS
 70
     0
  3
Solid line
 72
    65
 73
     0
 40
0.0
  0
ENDTAB
  0
TABLE
  2
LAYER
  5
A9B
330
0
100
AcDbSymbolTable
 70
11
  0
LAYER
  5
A9C
330
A9B
100
AcDbSymbolTableRecord
100
AcDbLayerTableRecord
  2
0
 70
   0
 62
   7
  6
CONTINUOUS
  0
LAYER
  5
A9D
330
A9B
100
AcDbSymbolTableRecord
100
AcDbLayerTableRecord
  2
ProjItem
 70
    0
 62
    7
  6
CONTINUOUS
  0
LAYER
  5
A9E
330
A9B
100
AcDbSymbolTableRecord
100
AcDbLayerTableRecord
  2
ProjItem002
 70
    0
 62
    7
  6
CONTINUOUS
  0
LAYER
  5
A9F
330
A9B
100
AcDbSymbolTableRecord
100
AcDbLayerTableRecord
  2
ProjItem003
 70
    0
 62
    7
  6
CONTINUOUS
  0
LAYER
  5
AA0
330
A9B
100
AcDbSymbolTableRecord
100
AcDbLayerTableRecord
  2
ProjItem004
 70
    0
 62
    7
  6
CONTINUOUS
  0
LAYER
  5
AA1
330
A9B
100
AcDbSymbolTableRecord
100
AcDbLayerTableRecord
  2
Dimension
 70
    0
 62
    7
  6
CONTINUOUS
  0
LAYER
  5
AA2
330
A9B
100
AcDbSymbolTableRecord
100
AcDbLayerTableRecord
  2
Dimension001
 70
    0
 62
    7
  6
CONTINUOUS
  0
LAYER
  5
AA3
330
A9B
100
AcDbSymbolTableRecord
100
AcDbLayerTableRecord
  2
Dimension002
 70
    0
 62
    7
  6
CONTINUOUS
  0
LAYER
  5
AA4
330
A9B
100
AcDbSymbolTableRecord
100
AcDbLayerTableRecord
  2
Dimension003
 70
    0
 62
    7
  6
CONTINUOUS
  0
LAYER
  5
AA5
330
A9B
100
AcDbSymbolTableRecord
100
AcDbLayerTableRecord
  2
Dimension004
 70
    0
 62
    7
  6
CONTINUOUS
  0
LAYER
  5
AA6
330
A9B
100
AcDbSymbolTableRecord
100
AcDbLayerTableRecord
  2
Dimension005
 70
    0
 62
    7
  6
CONTINUOUS
  0
ENDTAB
  0
TABLE
  2
STYLE
  5
70
330
0
100
AcDbSymbolTable
 70
     2
  0
STYLE
  5
71
330
70
100
AcDbSymbolTableRecord
100
AcDbTextStyleTableRecord
  2
STANDARD
 70
     0
 40
0.0
 41
1.0
 50
0.0
 71
     0
 42
2.5
  3
arial.ttf
  4

  0
STYLE
  5
72
330
70
100
AcDbSymbolTableRecord
100
AcDbTextStyleTableRecord
  2
ANNOTATIVE
 70
     0
 40
0.0
 41
1.0
 50
0.0
 71
     0
 42
2.5
  3
arial.ttf
  4

  0
ENDTAB
  0
TABLE
  2
VIEW
  5
73
330
0
100
AcDbSymbolTable
 70
     0
  0
ENDTAB
  0
TABLE
  2
UCS
  5
74
330
0
100
AcDbSymbolTable
 70
     0
  0
ENDTAB
  0
TABLE
  2
APPID
  5
75
330
0
100
AcDbSymbolTable
 70
     2
  0
APPID
  5
76
330
75
100
AcDbSymbolTableRecord
100
AcDbRegAppTableRecord
  2
ACAD
 70
     0
  0
APPID
  5
77
330
75
100
AcDbSymbolTableRecord
100
AcDbRegAppTableRecord
  2
ACADANNOTATIVE
 70
     0
  0
ENDTAB
  0
TABLE
  2
DIMSTYLE
  5
78
330
0
100
AcDbSymbolTable
 70
     2
  0
DIMSTYLE
105
79
330
78
100
AcDbSymbolTableRecord
100
AcDbDimStyleTableRecord
  2
STANDARD
 70
     0
  3

  4

  5

  6

  7

 40
0.0
 41
2.5
 42
0.625
 43
3.75
 44
1.25
 45
0.0
 46
0.0
 47
0.0
 48
0.0
140
2.5
141
2.5
142
0.0
143
0.03937007874016
144
1.0
145
0.0
146
1.0
147
0.625
 71
     0
 72
     0
 73
     0
 74
     0
 75
     0
 76
     0
 77
     1
 78
     8
170
     0
171
     3
172
     1
173
     0
174
     0
175
     0
176
     0
177
     0
178
     0
270
     2
271
     2
272
     2
273
     2
274
     3
340
71
275
     0
280
     0
281
     0
282
     0
283
     0
284
     8
285
     0
286
     0
287
     3
288
     0
  0
ENDTAB
  0
TABLE
  2
BLOCK_RECORD
  5
A01
330
0
100
AcDbSymbolTable
  70
5
  0
BLOCK_RECORD
  5
A02
330
A01
100
AcDbSymbolTableRecord
100
AcDbBlockTableRecord
  2
*MODEL_SPACE
  0
BLOCK_RECORD
  5
A03
330
A01
100
AcDbSymbolTableRecord
100
AcDbBlockTableRecord
  2
*PAPER_SPACE
  0
BLOCK_RECORD
  5
A60
330
A01
100
AcDbSymbolTableRecord
100
AcDbBlockTableRecord
  2
*Dimension
  0
BLOCK_RECORD
  5
A6A
330
A01
100
AcDbSymbolTableRecord
100
AcDbBlockTableRecord
  2
*Dimension001
  0
BLOCK_RECORD
  5
A74
330
A01
100
AcDbSymbolTableRecord
100
AcDbBlockTableRecord
  2
*Dimension002
  0
BLOCK_RECORD
  5
A7E
330
A01
100
AcDbSymbolTableRecord
100
AcDbBlockTableRecord
  2
*Dimension003
  0
BLOCK_RECORD
  5
A88
330
A01
100
AcDbSymbolTableRecord
100
AcDbBlockTableRecord
  2
*Dimension004
  0
BLOCK_RECORD
  5
A92
330
A01
100
AcDbSymbolTableRecord
100
AcDbBlockTableRecord
  2
*Dimension005
  0
ENDTAB
  0
ENDSEC
  0
SECTION
  2
BLOCKS
  0
BLOCK
  5
A04
330
A02
100
AcDbEntity
  8
0
100
AcDbBlockBegin
  2
*MODEL_SPACE
 70
   0
 10
0
 20
0
 30
0
  3
*MODEL_SPACE
  1
 
  0
ENDBLK
  5
A05
330
A02
100
AcDbEntity
  8
0
100
AcDbBlockEnd
  0
BLOCK
  5
A06
330
A03
100
AcDbEntity
 67
1
  8
0
100
AcDbBlockBegin
  2
*PAPER_SPACE
 70
   0
 10
0
 20
0
 30
0
  3
*PAPER_SPACE
  1
 
  0
ENDBLK
  5
A07
330
A03
100
AcDbEntity
 67
    1
  8
0
100
AcDbBlockEnd
  0
BLOCK
  5
A61
330
A60
100
AcDbEntity
  8
Dimension
100
AcDbBlockBegin
  2
*Dimension
 70
   1
 10
0
 20
0
 30
0
  3
*Dimension
  1
 
  0
LINE
  5
A62
330
A60
100
AcDbEntity
  8
Dimension
100
AcDbLine
 10
29.421
 20
189.506
 30
0
 11
12.0001
 21
189.506
 31
0
  0
LINE
  5
A63
330
A60
100
AcDbEntity
  8
Dimension
100
AcDbLine
 10
29.421
 20
113.506
 30
0
 11
12.0001
 21
113.506
 31
0
  0
LINE
  5
A64
330
A60
100
AcDbEntity
  8
Dimension
100
AcDbLine
 10
12.0001
 20
113.506
 30
0
 11
12.0001
 21
189.506
 31
0
  0
TEXT
  5
A65
330
A60
100
AcDbEntity
  8
Dimension
100
AcDbText
 10
17.0001
 20
152.662
 30
0
 40
3.5
  1
 mm
  7
STANDARD
 72
1
 11
12.0001
 21
152.662
 31
0
100
AcDbText
  0
SOLID
  5
A66
330
A60
100
AcDbEntity
  8
0
 62
     0
100
AcDbTrace
 10
12.4168
 20
118.506
 30
0
 11
11.5835
 21
118.506
 31
0
 12
12.0001
 22
113.506
 32
0
 13
12.0001
 23
113.506
 33
0
  0
SOLID
  5
A67
330
A60
100
AcDbEntity
  8
0
 62
     0
100
AcDbTrace
 10
12.4168
 20
184.506
 30
0
 11
11.5835
 21
184.506
 31
0
 12
12.0001
 22
189.506
 32
0
 13
12.0001
 23
189.506
 33
0
  0
ENDBLK
  5
A68
330
A60
100
AcDbEntity
  8
Dimension
100
AcDbBlockEnd
  0
BLOCK
  5
A6B
330
A6A
100
AcDbEntity
  8
Dimension001
100
AcDbBlockBegin
  2
*Dimension001
 70
   1
 10
0
 20
0
 30
0
  3
*Dimension001
  1
 
  0
LINE
  5
A6C
330
A6A
100
AcDbEntity
  8
Dimension001
100
AcDbLine
 10
79.821
 20
189.506
 30
0
 11
79.821
 21
193.172
 31
0
  0
LINE
  5
A6D
330
A6A
100
AcDbEntity
  8
Dimension001
100
AcDbLine
 10
29.421
 20
189.506
 30
0
 11
29.421
 21
193.172
 31
0
  0
LINE
  5
A6E
330
A6A
100
AcDbEntity
  8
Dimension001
100
AcDbLine
 10
29.421
 20
193.172
 30
0
 11
79.821
 21
193.172
 31
0
  0
TEXT
  5
A6F
330
A6A
100
AcDbEntity
  8
Dimension001
100
AcDbText
 10
55.4876
 20
198.172
 30
0
 40
3.5
  1
 mm
  7
STANDARD
 72
1
 11
55.4876
 21
193.172
 31
0
100
AcDbText
  0
SOLID
  5
A70
330
A6A
100
AcDbEntity
  8
0
 62
     0
100
AcDbTrace
 10
34.421
 20
192.755
 30
0
 11
34.421
 21
193.589
 31
0
 12
29.421
 22
193.172
 32
0
 13
29.421
 23
193.172
 33
0
  0
SOLID
  5
A71
330
A6A
100
AcDbEntity
  8
0
 62
     0
100
AcDbTrace
 10
74.821
 20
192.755
 30
0
 11
74.821
 21
193.589
 31
0
 12
79.821
 22
193.172
 32
0
 13
79.821
 23
193.172
 33
0
  0
ENDBLK
  5
A72
330
A6A
100
AcDbEntity
  8
Dimension001
100
AcDbBlockEnd
  0
BLOCK
  5
A75
330
A74
100
AcDbEntity
  8
Dimension002
100
AcDbBlockBegin
  2
*Dimension002
 70
   1
 10
0
 20
0
 30
0
  3
*Dimension002
  1
 
  0
LINE
  5
A76
330
A74
100
AcDbEntity
  8
Dimension002
100
AcDbLine
 10
65.781
 20
72.9862
 30
0
 11
83.8897
 21
72.9862
 31
0
  0
LINE
  5
A77
330
A74
100
AcDbEntity
  8
Dimension002
100
AcDbLine
 10
65.781
 20
50.5062
 30
0
 11
83.8897
 21
50.5062
 31
0
  0
LINE
  5
A78
330
A74
100
AcDbEntity
  8
Dimension002
100
AcDbLine
 10
83.8897
 20
50.5062
 30
0
 11
83.8897
 21
72.9862
 31
0
  0
TEXT
  5
A79
330
A74
100
AcDbEntity
  8
Dimension002
100
AcDbText
 10
88.8897
 20
62.035
 30
0
 40
3.5
  1
 mm
  7
STANDARD
 72
1
 11
83.8897
 21
62.035
 31
0
100
AcDbText
  0
SOLID
  5
A7A
330
A74
100
AcDbEntity
  8
0
 62
     0
100
AcDbTrace
 10
83.473
 20
55.5062
 30
0
 11
84.3064
 21
55.5062
 31
0
 12
83.8897
 22
50.5062
 32
0
 13
83.8897
 23
50.5062
 33
0
  0
SOLID
  5
A7B
330
A74
100
AcDbEntity
  8
0
 62
     0
100
AcDbTrace
 10
83.473
 20
67.9862
 30
0
 11
84.3064
 21
67.9862
 31
0
 12
83.8897
 22
72.9862
 32
0
 13
83.8897
 23
72.9862
 33
0
  0
ENDBLK
  5
A7C
330
A74
100
AcDbEntity
  8
Dimension002
100
AcDbBlockEnd
  0
BLOCK
  5
A7F
330
A7E
100
AcDbEntity
  8
Dimension003
100
AcDbBlockBegin
  2
*Dimension003
 70
   1
 10
0
 20
0
 30
0
  3
*Dimension003
  1
 
  0
LINE
  5
A80
330
A7E
100
AcDbEntity
  8
Dimension003
100
AcDbLine
 10
145.341
 20
113.506
 30
0
 11
145.341
 21
99.8404
 31
0
  0
LINE
  5
A81
330
A7E
100
AcDbEntity
  8
Dimension003
100
AcDbLine
 10
117.341
 20
113.506
 30
0
 11
117.341
 21
99.8404
 31
0
  0
LINE
  5
A82
330
A7E
100
AcDbEntity
  8
Dimension003
100
AcDbLine
 10
117.341
 20
99.8404
 30
0
 11
145.341
 21
99.8404
 31
0
  0
TEXT
  5
A83
330
A7E
100
AcDbEntity
  8
Dimension003
100
AcDbText
 10
130.474
 20
104.84
 30
0
 40
3.5
  1
 mm
  7
STANDARD
 72
1
 11
130.474
 21
99.8404
 31
0
100
AcDbText
  0
SOLID
  5
A84
330
A7E
100
AcDbEntity
  8
0
 62
     0
100
AcDbTrace
 10
122.341
 20
100.257
 30
0
 11
122.341
 21
99.4238
 31
0
 12
117.341
 22
99.8404
 32
0
 13
117.341
 23
99.8404
 33
0
  0
SOLID
  5
A85
330
A7E
100
AcDbEntity
  8
0
 62
     0
100
AcDbTrace
 10
140.341
 20
100.257
 30
0
 11
140.341
 21
99.4238
 31
0
 12
145.341
 22
99.8404
 32
0
 13
145.341
 23
99.8404
 33
0
  0
ENDBLK
  5
A86
330
A7E
100
AcDbEntity
  8
Dimension003
100
AcDbBlockEnd
  0
BLOCK
  5
A89
330
A88
100
AcDbEntity
  8
Dimension004
100
AcDbBlockBegin
  2
*Dimension004
 70
   1
 10
0
 20
0
 30
0
  3
*Dimension004
  1
 
  0
LINE
  5
A8A
330
A88
100
AcDbEntity
  8
Dimension004
100
AcDbLine
 10
113.341
 20
113.506
 30
0
 11
113.341
 21
100.308
 31
0
  0
LINE
  5
A8B
330
A88
100
AcDbEntity
  8
Dimension004
100
AcDbLine
 10
145.341
 20
113.506
 30
0
 11
145.341
 21
100.308
 31
0
  0
LINE
  5
A8C
330
A88
100
AcDbEntity
  8
Dimension004
100
AcDbLine
 10
145.341
 20
100.308
 30
0
 11
113.341
 21
100.308
 31
0
  0
TEXT
  5
A8D
330
A88
100
AcDbEntity
  8
Dimension004
100
AcDbText
 10
131.363
 20
95.3081
 30
0
 40
3.5
  1
 mm
  7
STANDARD
 72
1
 11
131.363
 21
100.308
 31
0
100
AcDbText
  0
SOLID
  5
A8E
330
A88
100
AcDbEntity
  8
0
 62
     0
100
AcDbTrace
 10
140.341
 20
100.725
 30
0
 11
140.341
 21
99.8914
 31
0
 12
145.341
 22
100.308
 32
0
 13
145.341
 23
100.308
 33
0
  0
SOLID
  5
A8F
330
A88
100
AcDbEntity
  8
0
 62
     0
100
AcDbTrace
 10
118.341
 20
100.725
 30
0
 11
118.341
 21
99.8914
 31
0
 12
113.341
 22
100.308
 32
0
 13
113.341
 23
100.308
 33
0
  0
ENDBLK
  5
A90
330
A88
100
AcDbEntity
  8
Dimension004
100
AcDbBlockEnd
  0
BLOCK
  5
A93
330
A92
100
AcDbEntity
  8
Dimension005
100
AcDbBlockBegin
  2
*Dimension005
 70
   1
 10
0
 20
0
 30
0
  3
*Dimension005
  1
 
  0
LINE
  5
A94
330
A92
100
AcDbEntity
  8
Dimension005
100
AcDbLine
 10
65.781
 20
72.9862
 30
0
 11
77.166
 21
92.4291
 31
0
  0
LINE
  5
A95
330
A92
100
AcDbEntity
  8
Dimension005
100
AcDbLine
 10
75.941
 20
72.9862
 30
0
 11
87.326
 21
92.4291
 31
0
  0
LINE
  5
A96
330
A92
100
AcDbEntity
  8
Dimension005
100
AcDbLine
 10
87.326
 20
92.4291
 30
0
 11
77.166
 21
92.4291
 31
0
  0
TEXT
  5
A97
330
A92
100
AcDbEntity
  8
Dimension005
100
AcDbText
 10
87.326
 20
87.4291
 30
0
 40
3.5
  1
 mm
  7
STANDARD
 72
1
 11
87.326
 21
92.4291
 31
0
100
AcDbText
  0
SOLID
  5
A98
330
A92
100
AcDbEntity
  8
0
 62
     0
100
AcDbTrace
 10
82.1154
 20
92.0695
 30
0
 11
82.5365
 21
92.7887
 31
0
 12
87.326
 22
92.4291
 32
0
 13
87.326
 23
92.4291
 33
0
  0
SOLID
  5
A99
330
A92
100
AcDbEntity
  8
0
 62
     0
100
AcDbTrace
 10
81.9554
 20
92.0695
 30
0
 11
82.3765
 21
92.7887
 31
0
 12
77.166
 22
92.4291
 32
0
 13
77.166
 23
92.4291
 33
0
  0
ENDBLK
  5
A9A
330
A92
100
AcDbEntity
  8
Dimension005
100
AcDbBlockEnd
  0
ENDSEC
  0
SECTION
  2
ENTITIES
  0
LINE
  5
A08
330
A02
100
AcDbEntity
  8
ProjItem
100
AcDbLine
 10
29.421
 20
189.506
 30
0
 11
79.821
 21
189.506
 31
0
  0
LINE
  5
A09
330
A02
100
AcDbEntity
  8
ProjItem
100
AcDbLine
 10
29.421
 20
113.506
 30
0
 11
29.421
 21
189.506
 31
0
  0
LINE
  5
A0A
330
A02
100
AcDbEntity
  8
ProjItem
100
AcDbLine
 10
79.821
 20
189.506
 30
0
 11
79.821
 21
113.506
 31
0
  0
LINE
  5
A0B
330
A02
100
AcDbEntity
  8
ProjItem
100
AcDbLine
 10
79.821
 20
113.506
 30
0
 11
29.421
 21
113.506
 31
0
  0
LINE
  5
A0C
330
A02
100
AcDbEntity
  8
ProjItem002
100
AcDbLine
 10
117.341
 20
189.506
 30
0
 11
145.341
 21
189.506
 31
0
  0
LINE
  5
A0D
330
A02
100
AcDbEntity
  8
ProjItem002
100
AcDbLine
 10
117.341
 20
113.506
 30
0
 11
145.341
 21
113.506
 31
0
  0
LINE
  5
A0E
330
A02
100
AcDbEntity
  8
ProjItem002
100
AcDbLine
 10
117.341
 20
113.506
 30
0
 11
117.341
 21
123.506
 31
0
  0
LINE
  5
A0F
330
A02
100
AcDbEntity
  8
ProjItem002
100
AcDbLine
 10
117.341
 20
123.506
 30
0
 11
117.341
 21
179.506
 31
0
  0
LINE
  5
A10
330
A02
100
AcDbEntity
  8
ProjItem002
100
AcDbLine
 10
117.341
 20
179.506
 30
0
 11
117.341
 21
189.506
 31
0
  0
LINE
  5
A11
330
A02
100
AcDbEntity
  8
ProjItem002
100
AcDbLine
 10
145.341
 20
113.506
 30
0
 11
145.341
 21
189.506
 31
0
  0
LINE
  5
A12
330
A02
100
AcDbEntity
  8
ProjItem002
100
AcDbLine
 10
117.341
 20
189.506
 30
0
 11
113.341
 21
189.506
 31
0
  0
LINE
  5
A13
330
A02
100
AcDbEntity
  8
ProjItem002
100
AcDbLine
 10
117.341
 20
123.506
 30
0
 11
113.341
 21
123.506
 31
0
  0
LINE
  5
A14
330
A02
100
AcDbEntity
  8
ProjItem002
100
AcDbLine
 10
117.341
 20
113.506
 30
0
 11
113.341
 21
113.506
 31
0
  0
LINE
  5
A15
330
A02
100
AcDbEntity
  8
ProjItem002
100
AcDbLine
 10
113.341
 20
123.506
 30
0
 11
113.341
 21
113.506
 31
0
  0
LINE
  5
A16
330
A02
100
AcDbEntity
  8
ProjItem002
100
AcDbLine
 10
117.341
 20
179.506
 30
0
 11
113.341
 21
179.506
 31
0
  0
LINE
  5
A17
330
A02
100
AcDbEntity
  8
ProjItem002
100
AcDbLine
 10
113.341
 20
189.506
 30
0
 11
113.341
 21
179.506
 31
0
  0
SPLINE
  5
A18
330
A02
100
AcDbEntity
  8
ProjItem002
100
AcDbSpline
210
0
220
0
230
1
 70
8
 71
1
 72
17
 73
15
 74
0
 40
1.5708
 40
1.5708
 40
1.7952
 40
2.0196
 40
2.24399
 40
2.46839
 40
2.69279
 40
2.91719
 40
3.14159
 40
3.36599
 40
3.59039
 40
3.81479
 40
4.03919
 40
4.26359
 40
4.48799
 40
4.71239
 40
4.71239
 10
94.861
 20
122.026
 30
0
 10
94.861
 20
122.001
 30
0
 10
94.861
 20
121.927
 30
0
 10
94.861
 20
121.808
 30
0
 10
94.861
 20
121.65
 30
0
 10
94.861
 20
121.46
 30
0
 10
94.861
 20
121.249
 30
0
 10
94.861
 20
121.026
 30
0
 10
94.861
 20
120.804
 30
0
 10
94.861
 20
120.592
 30
0
 10
94.861
 20
120.403
 30
0
 10
94.861
 20
120.244
 30
0
 10
94.861
 20
120.125
 30
0
 10
94.861
 20
120.051
 30
0
 10
94.861
 20
120.026
 30
0
  0
SPLINE
  5
A19
330
A02
100
AcDbEntity
  8
ProjItem002
100
AcDbSpline
210
0
220
0
230
1
 70
8
 71
1
 72
17
 73
15
 74
0
 40
1.5708
 40
1.5708
 40
1.7952
 40
2.0196
 40
2.24399
 40
2.46839
 40
2.69279
 40
2.91719
 40
3.14159
 40
3.36599
 40
3.59039
 40
3.81479
 40
4.03919
 40
4.26359
 40
4.48799
 40
4.71239
 40
4.71239
 10
94.861
 20
182.986
 30
0
 10
94.861
 20
182.961
 30
0
 10
94.861
 20
182.887
 30
0
 10
94.861
 20
182.768
 30
0
 10
94.861
 20
182.61
 30
0
 10
94.861
 20
182.42
 30
0
 10
94.861
 20
182.209
 30
0
 10
94.861
 20
181.986
 30
0
 10
94.861
 20
181.764
 30
0
 10
94.861
 20
181.552
 30
0
 10
94.861
 20
181.363
 30
0
 10
94.861
 20
181.204
 30
0
 10
94.861
 20
181.085
 30
0
 10
94.861
 20
181.011
 30
0
 10
94.861
 20
180.986
 30
0
  0
LINE
  5
A1A
330
A02
100
AcDbEntity
  8
ProjItem002
100
AcDbLine
 10
94.861
 20
120.026
 30
0
 11
113.341
 21
120.026
 31
0
  0
LINE
  5
A1B
330
A02
100
AcDbEntity
  8
ProjItem002
100
AcDbLine
 10
94.861
 20
122.026
 30
0
 11
113.341
 21
122.026
 31
0
  0
LINE
  5
A1C
330
A02
100
AcDbEntity
  8
ProjItem002
100
AcDbLine
 10
94.861
 20
180.986
 30
0
 11
113.341
 21
180.986
 31
0
  0
LINE
  5
A1D
330
A02
100
AcDbEntity
  8
ProjItem002
100
AcDbLine
 10
94.861
 20
182.986
 30
0
 11
113.341
 21
182.986
 31
0
  0
LINE
  5
A1E
330
A02
100
AcDbEntity
  8
ProjItem003
100
AcDbLine
 10
202.781
 20
189.506
 30
0
 11
168.381
 21
189.506
 31
0
  0
LINE
  5
A1F
330
A02
100
AcDbEntity
  8
ProjItem003
100
AcDbLine
 10
210.781
 20
123.506
 30
0
 11
210.781
 21
179.506
 31
0
  0
LINE
  5
A20
330
A02
100
AcDbEntity
  8
ProjItem003
100
AcDbLine
 10
160.381
 20
179.506
 30
0
 11
160.381
 21
123.506
 31
0
  0
LINE
  5
A21
330
A02
100
AcDbEntity
  8
ProjItem003
100
AcDbLine
 10
210.781
 20
189.506
 30
0
 11
202.781
 21
189.506
 31
0
  0
LINE
  5
A22
330
A02
100
AcDbEntity
  8
ProjItem003
100
AcDbLine
 10
168.381
 20
113.506
 30
0
 11
202.781
 21
113.506
 31
0
  0
LINE
  5
A23
330
A02
100
AcDbEntity
  8
ProjItem003
100
AcDbLine
 10
168.381
 20
189.506
 30
0
 11
160.381
 21
189.506
 31
0
  0
LINE
  5
A24
330
A02
100
AcDbEntity
  8
ProjItem003
100
AcDbLine
 10
210.781
 20
123.506
 30
0
 11
210.781
 21
113.506
 31
0
  0
LINE
  5
A25
330
A02
100
AcDbEntity
  8
ProjItem003
100
AcDbLine
 10
210.781
 20
189.506
 30
0
 11
210.781
 21
179.506
 31
0
  0
LINE
  5
A26
330
A02
100
AcDbEntity
  8
ProjItem003
100
AcDbLine
 10
160.381
 20
189.506
 30
0
 11
160.381
 21
179.506
 31
0
  0
LINE
  5
A27
330
A02
100
AcDbEntity
  8
ProjItem003
100
AcDbLine
 10
160.381
 20
113.506
 30
0
 11
160.381
 21
123.506
 31
0
  0
LINE
  5
A28
330
A02
100
AcDbEntity
  8
ProjItem003
100
AcDbLine
 10
202.781
 20
189.506
 30
0
 11
202.781
 21
187.506
 31
0
  0
LINE
  5
A29
330
A02
100
AcDbEntity
  8
ProjItem003
100
AcDbLine
 10
202.781
 20
187.506
 30
0
 11
208.781
 21
187.506
 31
0
  0
LINE
  5
A2A
330
A02
100
AcDbEntity
  8
ProjItem003
100
AcDbLine
 10
208.781
 20
187.506
 30
0
 11
208.781
 21
179.506
 31
0
  0
LINE
  5
A2B
330
A02
100
AcDbEntity
  8
ProjItem003
100
AcDbLine
 10
208.781
 20
179.506
 30
0
 11
210.781
 21
179.506
 31
0
  0
LINE
  5
A2C
330
A02
100
AcDbEntity
  8
ProjItem003
100
AcDbLine
 10
208.781
 20
123.506
 30
0
 11
210.781
 21
123.506
 31
0
  0
LINE
  5
A2D
330
A02
100
AcDbEntity
  8
ProjItem003
100
AcDbLine
 10
208.781
 20
115.506
 30
0
 11
208.781
 21
123.506
 31
0
  0
LINE
  5
A2E
330
A02
100
AcDbEntity
  8
ProjItem003
100
AcDbLine
 10
202.781
 20
115.506
 30
0
 11
208.781
 21
115.506
 31
0
  0
LINE
  5
A2F
330
A02
100
AcDbEntity
  8
ProjItem003
100
AcDbLine
 10
202.781
 20
113.506
 30
0
 11
202.781
 21
115.506
 31
0
  0
LINE
  5
A30
330
A02
100
AcDbEntity
  8
ProjItem003
100
AcDbLine
 10
168.381
 20
115.506
 30
0
 11
168.381
 21
113.506
 31
0
  0
LINE
  5
A31
330
A02
100
AcDbEntity
  8
ProjItem003
100
AcDbLine
 10
162.381
 20
115.506
 30
0
 11
168.381
 21
115.506
 31
0
  0
LINE
  5
A32
330
A02
100
AcDbEntity
  8
ProjItem003
100
AcDbLine
 10
162.381
 20
123.506
 30
0
 11
162.381
 21
115.506
 31
0
  0
LINE
  5
A33
330
A02
100
AcDbEntity
  8
ProjItem003
100
AcDbLine
 10
160.381
 20
123.506
 30
0
 11
162.381
 21
123.506
 31
0
  0
LINE
  5
A34
330
A02
100
AcDbEntity
  8
ProjItem003
100
AcDbLine
 10
160.381
 20
179.506
 30
0
 11
162.381
 21
179.506
 31
0
  0
LINE
  5
A35
330
A02
100
AcDbEntity
  8
ProjItem003
100
AcDbLine
 10
162.381
 20
179.506
 30
0
 11
162.381
 21
187.506
 31
0
  0
LINE
  5
A36
330
A02
100
AcDbEntity
  8
ProjItem003
100
AcDbLine
 10
162.381
 20
187.506
 30
0
 11
168.381
 21
187.506
 31
0
  0
LINE
  5
A37
330
A02
100
AcDbEntity
  8
ProjItem003
100
AcDbLine
 10
168.381
 20
187.506
 30
0
 11
168.381
 21
189.506
 31
0
  0
CIRCLE
  5
A38
330
A02
100
AcDbEntity
  8
ProjItem003
100
AcDbCircle
 10
195.741
 20
121.026
 40
1
  0
CIRCLE
  5
A39
330
A02
100
AcDbEntity
  8
ProjItem003
100
AcDbCircle
 10
205.901
 20
121.026
 40
1
  0
CIRCLE
  5
A3A
330
A02
100
AcDbEntity
  8
ProjItem003
100
AcDbCircle
 10
205.901
 20
181.986
 40
1
  0
CIRCLE
  5
A3B
330
A02
100
AcDbEntity
  8
ProjItem003
100
AcDbCircle
 10
195.741
 20
181.986
 40
1
  0
CIRCLE
  5
A3C
330
A02
100
AcDbEntity
  8
ProjItem003
100
AcDbCircle
 10
185.581
 20
181.986
 40
1
  0
CIRCLE
  5
A3D
330
A02
100
AcDbEntity
  8
ProjItem003
100
AcDbCircle
 10
185.581
 20
121.026
 40
1
  0
CIRCLE
  5
A3E
330
A02
100
AcDbEntity
  8
ProjItem003
100
AcDbCircle
 10
165.261
 20
121.026
 40
1
  0
CIRCLE
  5
A3F
330
A02
100
AcDbEntity
  8
ProjItem003
100
AcDbCircle
 10
175.421
 20
121.026
 40
1
  0
CIRCLE
  5
A40
330
A02
100
AcDbEntity
  8
ProjItem003
100
AcDbCircle
 10
175.421
 20
181.986
 40
1
  0
CIRCLE
  5
A41
330
A02
100
AcDbEntity
  8
ProjItem003
100
AcDbCircle
 10
165.261
 20
181.986
 40
1
  0
LINE
  5
A42
330
A02
100
AcDbEntity
  8
ProjItem003
100
AcDbLine
 10
168.381
 20
113.506
 30
0
 11
160.381
 21
113.506
 31
0
  0
LINE
  5
A43
330
A02
100
AcDbEntity
  8
ProjItem003
100
AcDbLine
 10
210.781
 20
113.506
 30
0
 11
202.781
 21
113.506
 31
0
  0
LINE
  5
A44
330
A02
100
AcDbEntity
  8
ProjItem004
100
AcDbLine
 10
29.421
 20
50.5062
 30
0
 11
29.421
 21
22.5062
 31
0
  0
LINE
  5
A45
330
A02
100
AcDbEntity
  8
ProjItem004
100
AcDbLine
 10
79.821
 20
50.5062
 30
0
 11
79.821
 21
22.5062
 31
0
  0
LINE
  5
A46
330
A02
100
AcDbEntity
  8
ProjItem004
100
AcDbLine
 10
29.421
 20
50.5062
 30
0
 11
37.421
 21
50.5062
 31
0
  0
LINE
  5
A47
330
A02
100
AcDbEntity
  8
ProjItem004
100
AcDbLine
 10
37.421
 20
50.5062
 30
0
 11
71.821
 21
50.5062
 31
0
  0
LINE
  5
A48
330
A02
100
AcDbEntity
  8
ProjItem004
100
AcDbLine
 10
71.821
 20
50.5062
 30
0
 11
79.821
 21
50.5062
 31
0
  0
LINE
  5
A49
330
A02
100
AcDbEntity
  8
ProjItem004
100
AcDbLine
 10
29.421
 20
22.5062
 30
0
 11
79.821
 21
22.5062
 31
0
  0
LINE
  5
A4A
330
A02
100
AcDbEntity
  8
ProjItem004
100
AcDbLine
 10
29.421
 20
50.5062
 30
0
 11
29.421
 21
54.5062
 31
0
  0
LINE
  5
A4B
330
A02
100
AcDbEntity
  8
ProjItem004
100
AcDbLine
 10
37.421
 20
50.5062
 30
0
 11
37.421
 21
54.5062
 31
0
  0
LINE
  5
A4C
330
A02
100
AcDbEntity
  8
ProjItem004
100
AcDbLine
 10
29.421
 20
54.5062
 30
0
 11
37.421
 21
54.5062
 31
0
  0
LINE
  5
A4D
330
A02
100
AcDbEntity
  8
ProjItem004
100
AcDbLine
 10
71.821
 20
50.5062
 30
0
 11
71.821
 21
54.5062
 31
0
  0
LINE
  5
A4E
330
A02
100
AcDbEntity
  8
ProjItem004
100
AcDbLine
 10
79.821
 20
50.5062
 30
0
 11
79.821
 21
54.5062
 31
0
  0
LINE
  5
A4F
330
A02
100
AcDbEntity
  8
ProjItem004
100
AcDbLine
 10
71.821
 20
54.5062
 30
0
 11
79.821
 21
54.5062
 31
0
  0
LINE
  5
A50
330
A02
100
AcDbEntity
  8
ProjItem004
100
AcDbLine
 10
35.301
 20
54.5062
 30
0
 11
35.301
 21
72.9862
 31
0
  0
SPLINE
  5
A51
330
A02
100
AcDbEntity
  8
ProjItem004
100
AcDbSpline
210
0
220
0
230
1
 70
8
 71
1
 72
17
 73
15
 74
0
 40
0
 40
0
 40
0.224399
 40
0.448799
 40
0.673198
 40
0.897598
 40
1.122
 40
1.3464
 40
1.5708
 40
1.7952
 40
2.0196
 40
2.24399
 40
2.46839
 40
2.69279
 40
2.91719
 40
3.14159
 40
3.14159
 10
35.301
 20
72.9862
 30
0
 10
35.276
 20
72.9862
 30
0
 10
35.202
 20
72.9862
 30
0
 10
35.0829
 20
72.9862
 30
0
 10
34.9245
 20
72.9862
 30
0
 10
34.7349
 20
72.9862
 30
0
 10
34.5236
 20
72.9862
 30
0
 10
34.301
 20
72.9862
 30
0
 10
34.0785
 20
72.9862
 30
0
 10
33.8672
 20
72.9862
 30
0
 10
33.6776
 20
72.9862
 30
0
 10
33.5192
 20
72.9862
 30
0
 10
33.4001
 20
72.9862
 30
0
 10
33.3261
 20
72.9862
 30
0
 10
33.301
 20
72.9862
 30
0
  0
LINE
  5
A52
330
A02
100
AcDbEntity
  8
ProjItem004
100
AcDbLine
 10
45.461
 20
50.5062
 30
0
 11
45.461
 21
72.9862
 31
0
  0
SPLINE
  5
A53
330
A02
100
AcDbEntity
  8
ProjItem004
100
AcDbSpline
210
0
220
0
230
1
 70
8
 71
1
 72
17
 73
15
 74
0
 40
0
 40
0
 40
0.224399
 40
0.448799
 40
0.673198
 40
0.897598
 40
1.122
 40
1.3464
 40
1.5708
 40
1.7952
 40
2.0196
 40
2.24399
 40
2.46839
 40
2.69279
 40
2.91719
 40
3.14159
 40
3.14159
 10
45.461
 20
72.9862
 30
0
 10
45.436
 20
72.9862
 30
0
 10
45.362
 20
72.9862
 30
0
 10
45.2429
 20
72.9862
 30
0
 10
45.0845
 20
72.9862
 30
0
 10
44.8949
 20
72.9862
 30
0
 10
44.6836
 20
72.9862
 30
0
 10
44.461
 20
72.9862
 30
0
 10
44.2385
 20
72.9862
 30
0
 10
44.0272
 20
72.9862
 30
0
 10
43.8376
 20
72.9862
 30
0
 10
43.6792
 20
72.9862
 30
0
 10
43.5601
 20
72.9862
 30
0
 10
43.4861
 20
72.9862
 30
0
 10
43.461
 20
72.9862
 30
0
  0
LINE
  5
A54
330
A02
100
AcDbEntity
  8
ProjItem004
100
AcDbLine
 10
55.621
 20
50.5062
 30
0
 11
55.621
 21
72.9862
 31
0
  0
SPLINE
  5
A55
330
A02
100
AcDbEntity
  8
ProjItem004
100
AcDbSpline
210
0
220
0
230
1
 70
8
 71
1
 72
17
 73
15
 74
0
 40
0
 40
0
 40
0.224399
 40
0.448799
 40
0.673198
 40
0.897598
 40
1.122
 40
1.3464
 40
1.5708
 40
1.7952
 40
2.0196
 40
2.24399
 40
2.46839
 40
2.69279
 40
2.91719
 40
3.14159
 40
3.14159
 10
55.621
 20
72.9862
 30
0
 10
55.596
 20
72.9862
 30
0
 10
55.522
 20
72.9862
 30
0
 10
55.4029
 20
72.9862
 30
0
 10
55.2445
 20
72.9862
 30
0
 10
55.0549
 20
72.9862
 30
0
 10
54.8436
 20
72.9862
 30
0
 10
54.621
 20
72.9862
 30
0
 10
54.3985
 20
72.9862
 30
0
 10
54.1872
 20
72.9862
 30
0
 10
53.9976
 20
72.9862
 30
0
 10
53.8392
 20
72.9862
 30
0
 10
53.7201
 20
72.9862
 30
0
 10
53.6461
 20
72.9862
 30
0
 10
53.621
 20
72.9862
 30
0
  0
LINE
  5
A56
330
A02
100
AcDbEntity
  8
ProjItem004
100
AcDbLine
 10
65.781
 20
50.5062
 30
0
 11
65.781
 21
72.9862
 31
0
  0
SPLINE
  5
A57
330
A02
100
AcDbEntity
  8
ProjItem004
100
AcDbSpline
210
0
220
0
230
1
 70
8
 71
1
 72
17
 73
15
 74
0
 40
0
 40
0
 40
0.224399
 40
0.448799
 40
0.673198
 40
0.897598
 40
1.122
 40
1.3464
 40
1.5708
 40
1.7952
 40
2.0196
 40
2.24399
 40
2.46839
 40
2.69279
 40
2.91719
 40
3.14159
 40
3.14159
 10
65.781
 20
72.9862
 30
0
 10
65.756
 20
72.9862
 30
0
 10
65.682
 20
72.9862
 30
0
 10
65.5629
 20
72.9862
 30
0
 10
65.4045
 20
72.9862
 30
0
 10
65.2149
 20
72.9862
 30
0
 10
65.0036
 20
72.9862
 30
0
 10
64.781
 20
72.9862
 30
0
 10
64.5585
 20
72.9862
 30
0
 10
64.3472
 20
72.9862
 30
0
 10
64.1576
 20
72.9862
 30
0
 10
63.9992
 20
72.9862
 30
0
 10
63.8801
 20
72.9862
 30
0
 10
63.8061
 20
72.9862
 30
0
 10
63.781
 20
72.9862
 30
0
  0
LINE
  5
A58
330
A02
100
AcDbEntity
  8
ProjItem004
100
AcDbLine
 10
75.941
 20
54.5062
 30
0
 11
75.941
 21
72.9862
 31
0
  0
SPLINE
  5
A59
330
A02
100
AcDbEntity
  8
ProjItem004
100
AcDbSpline
210
0
220
0
230
1
 70
8
 71
1
 72
17
 73
15
 74
0
 40
0
 40
0
 40
0.224399
 40
0.448799
 40
0.673198
 40
0.897598
 40
1.122
 40
1.3464
 40
1.5708
 40
1.7952
 40
2.0196
 40
2.24399
 40
2.46839
 40
2.69279
 40
2.91719
 40
3.14159
 40
3.14159
 10
75.941
 20
72.9862
 30
0
 10
75.916
 20
72.9862
 30
0
 10
75.842
 20
72.9862
 30
0
 10
75.7229
 20
72.9862
 30
0
 10
75.5645
 20
72.9862
 30
0
 10
75.3749
 20
72.9862
 30
0
 10
75.1636
 20
72.9862
 30
0
 10
74.941
 20
72.9862
 30
0
 10
74.7185
 20
72.9862
 30
0
 10
74.5072
 20
72.9862
 30
0
 10
74.3176
 20
72.9862
 30
0
 10
74.1592
 20
72.9862
 30
0
 10
74.0401
 20
72.9862
 30
0
 10
73.9661
 20
72.9862
 30
0
 10
73.941
 20
72.9862
 30
0
  0
LINE
  5
A5A
330
A02
100
AcDbEntity
  8
ProjItem004
100
AcDbLine
 10
33.301
 20
72.9862
 30
0
 11
33.301
 21
54.5062
 31
0
  0
LINE
  5
A5B
330
A02
100
AcDbEntity
  8
ProjItem004
100
AcDbLine
 10
43.461
 20
72.9862
 30
0
 11
43.461
 21
50.5062
 31
0
  0
LINE
  5
A5C
330
A02
100
AcDbEntity
  8
ProjItem004
100
AcDbLine
 10
53.621
 20
72.9862
 30
0
 11
53.621
 21
50.5062
 31
0
  0
LINE
  5
A5D
330
A02
100
AcDbEntity
  8
ProjItem004
100
AcDbLine
 10
63.781
 20
72.9862
 30
0
 11
63.781
 21
50.5062
 31
0
  0
LINE
  5
A5E
330
A02
100
AcDbEntity
  8
ProjItem004
100
AcDbLine
 10
73.941
 20
72.9862
 30
0
 11
73.941
 21
54.5062
 31
0
  0
DIMENSION
  5
A5F
330
A02
100
AcDbEntity
  8
Dimension
100
AcDbDimension
  2
*Dimension
 10
12.0001
 20
152.662
 30
0
 11
17.0001
 21
152.662
 31
0
 70
1
  1
 mm
  3
STANDARD
100
AcDbAlignedDimension
 13
29.421
 23
113.506
 33
0
 14
29.421
 24
189.506
 34
0
  0
DIMENSION
  5
A69
330
A02
100
AcDbEntity
  8
Dimension001
100
AcDbDimension
  2
*Dimension001
 10
55.4876
 20
193.172
 30
0
 11
55.4876
 21
198.172
 31
0
 70
1
  1
 mm
  3
STANDARD
100
AcDbAlignedDimension
 13
29.421
 23
189.506
 33
0
 14
79.821
 24
189.506
 34
0
  0
DIMENSION
  5
A73
330
A02
100
AcDbEntity
  8
Dimension002
100
AcDbDimension
  2
*Dimension002
 10
83.8897
 20
62.035
 30
0
 11
88.8897
 21
62.035
 31
0
 70
1
  1
 mm
  3
STANDARD
100
AcDbAlignedDimension
 13
65.781
 23
50.5062
 33
0
 14
65.781
 24
72.9862
 34
0
  0
DIMENSION
  5
A7D
330
A02
100
AcDbEntity
  8
Dimension003
100
AcDbDimension
  2
*Dimension003
 10
130.474
 20
99.8404
 30
0
 11
130.474
 21
104.84
 31
0
 70
1
  1
 mm
  3
STANDARD
100
AcDbAlignedDimension
 13
117.341
 23
113.506
 33
0
 14
145.341
 24
113.506
 34
0
  0
DIMENSION
  5
A87
330
A02
100
AcDbEntity
  8
Dimension004
100
AcDbDimension
  2
*Dimension004
 10
131.363
 20
100.308
 30
0
 11
131.363
 21
95.3081
 31
0
 70
1
  1
 mm
  3
STANDARD
100
AcDbAlignedDimension
 13
145.341
 23
113.506
 33
0
 14
113.341
 24
113.506
 34
0
  0
DIMENSION
  5
A91
330
A02
100
AcDbEntity
  8
Dimension005
100
AcDbDimension
  2
*Dimension005
 10
87.326
 20
92.4291
 30
0
 11
87.326
 21
87.4291
 31
0
 70
1
  1
 mm
  3
STANDARD
100
AcDbAlignedDimension
 13
75.941
 23
72.9862
 33
0
 14
65.781
 24
72.9862
 34
0
  0
ENDSEC
  0
SECTION
  2
OBJECTS
  0
DICTIONARY
  5
F000
330
0
100
AcDbDictionary
  3
ACAD_GROUP
350
F001
  0
DICTIONARY
  5
F001
330
F000
100
AcDbDictionary
  0
ENDSEC
  0
EOF