%TF.GenerationSoftware,KiCad,Pcbnew,5.1.9-73d0e3b20d~88~ubuntu20.04.1*%
%TF.CreationDate,2021-03-05T17:06:57-06:00*%
%TF.ProjectId,avricsp-breakout,61767269-6373-4702-9d62-7265616b6f75,rev?*%
%TF.SameCoordinates,Original*%
%TF.FileFunction,Soldermask,Top*%
%TF.FilePolarity,Negative*%
%FSLAX46Y46*%
G04 Gerber Fmt 4.6, Leading zero omitted, Abs format (unit mm)*
G04 Created by KiCad (PCBNEW 5.1.9-73d0e3b20d~88~ubuntu20.04.1) date 2021-03-05 17:06:57*
%MOMM*%
%LPD*%
G01*
G04 APERTURE LIST*
%ADD10O,1.350000X1.350000*%
%ADD11R,1.350000X1.350000*%
%ADD12R,1.500000X1.000000*%
%ADD13O,1.700000X1.700000*%
%ADD14R,1.700000X1.700000*%
%ADD15C,0.800000*%
G04 APERTURE END LIST*
D10*
%TO.C,J2*%
X137922000Y-108364000D03*
X137922000Y-110364000D03*
X137922000Y-112364000D03*
X137922000Y-114364000D03*
X137922000Y-116364000D03*
D11*
X137922000Y-118364000D03*
%TD*%
%TO.C,R4*%
G36*
G01*
X124314000Y-109785999D02*
X124314000Y-110686001D01*
G75*
G02*
X124064001Y-110936000I-249999J0D01*
G01*
X123538999Y-110936000D01*
G75*
G02*
X123289000Y-110686001I0J249999D01*
G01*
X123289000Y-109785999D01*
G75*
G02*
X123538999Y-109536000I249999J0D01*
G01*
X124064001Y-109536000D01*
G75*
G02*
X124314000Y-109785999I0J-249999D01*
G01*
G37*
G36*
G01*
X126139000Y-109785999D02*
X126139000Y-110686001D01*
G75*
G02*
X125889001Y-110936000I-249999J0D01*
G01*
X125363999Y-110936000D01*
G75*
G02*
X125114000Y-110686001I0J249999D01*
G01*
X125114000Y-109785999D01*
G75*
G02*
X125363999Y-109536000I249999J0D01*
G01*
X125889001Y-109536000D01*
G75*
G02*
X126139000Y-109785999I0J-249999D01*
G01*
G37*
%TD*%
%TO.C,R3*%
G36*
G01*
X124314000Y-111817999D02*
X124314000Y-112718001D01*
G75*
G02*
X124064001Y-112968000I-249999J0D01*
G01*
X123538999Y-112968000D01*
G75*
G02*
X123289000Y-112718001I0J249999D01*
G01*
X123289000Y-111817999D01*
G75*
G02*
X123538999Y-111568000I249999J0D01*
G01*
X124064001Y-111568000D01*
G75*
G02*
X124314000Y-111817999I0J-249999D01*
G01*
G37*
G36*
G01*
X126139000Y-111817999D02*
X126139000Y-112718001D01*
G75*
G02*
X125889001Y-112968000I-249999J0D01*
G01*
X125363999Y-112968000D01*
G75*
G02*
X125114000Y-112718001I0J249999D01*
G01*
X125114000Y-111817999D01*
G75*
G02*
X125363999Y-111568000I249999J0D01*
G01*
X125889001Y-111568000D01*
G75*
G02*
X126139000Y-111817999I0J-249999D01*
G01*
G37*
%TD*%
%TO.C,R2*%
G36*
G01*
X124314000Y-113849999D02*
X124314000Y-114750001D01*
G75*
G02*
X124064001Y-115000000I-249999J0D01*
G01*
X123538999Y-115000000D01*
G75*
G02*
X123289000Y-114750001I0J249999D01*
G01*
X123289000Y-113849999D01*
G75*
G02*
X123538999Y-113600000I249999J0D01*
G01*
X124064001Y-113600000D01*
G75*
G02*
X124314000Y-113849999I0J-249999D01*
G01*
G37*
G36*
G01*
X126139000Y-113849999D02*
X126139000Y-114750001D01*
G75*
G02*
X125889001Y-115000000I-249999J0D01*
G01*
X125363999Y-115000000D01*
G75*
G02*
X125114000Y-114750001I0J249999D01*
G01*
X125114000Y-113849999D01*
G75*
G02*
X125363999Y-113600000I249999J0D01*
G01*
X125889001Y-113600000D01*
G75*
G02*
X126139000Y-113849999I0J-249999D01*
G01*
G37*
%TD*%
%TO.C,R1*%
G36*
G01*
X124314000Y-115881999D02*
X124314000Y-116782001D01*
G75*
G02*
X124064001Y-117032000I-249999J0D01*
G01*
X123538999Y-117032000D01*
G75*
G02*
X123289000Y-116782001I0J249999D01*
G01*
X123289000Y-115881999D01*
G75*
G02*
X123538999Y-115632000I249999J0D01*
G01*
X124064001Y-115632000D01*
G75*
G02*
X124314000Y-115881999I0J-249999D01*
G01*
G37*
G36*
G01*
X126139000Y-115881999D02*
X126139000Y-116782001D01*
G75*
G02*
X125889001Y-117032000I-249999J0D01*
G01*
X125363999Y-117032000D01*
G75*
G02*
X125114000Y-116782001I0J249999D01*
G01*
X125114000Y-115881999D01*
G75*
G02*
X125363999Y-115632000I249999J0D01*
G01*
X125889001Y-115632000D01*
G75*
G02*
X126139000Y-115881999I0J-249999D01*
G01*
G37*
%TD*%
D12*
%TO.C,JP1*%
X131064000Y-116078000D03*
X131064000Y-117378000D03*
%TD*%
D13*
%TO.C,ICSP*%
X118364000Y-110744000D03*
X120904000Y-110744000D03*
X118364000Y-113284000D03*
X120904000Y-113284000D03*
X118364000Y-115824000D03*
D14*
X120904000Y-115824000D03*
%TD*%
D13*
%TO.C,PWR*%
X128524000Y-120396000D03*
D14*
X131064000Y-120396000D03*
%TD*%
%TO.C,C1*%
G36*
G01*
X135349000Y-116898000D02*
X134399000Y-116898000D01*
G75*
G02*
X134149000Y-116648000I0J250000D01*
G01*
X134149000Y-116148000D01*
G75*
G02*
X134399000Y-115898000I250000J0D01*
G01*
X135349000Y-115898000D01*
G75*
G02*
X135599000Y-116148000I0J-250000D01*
G01*
X135599000Y-116648000D01*
G75*
G02*
X135349000Y-116898000I-250000J0D01*
G01*
G37*
G36*
G01*
X135349000Y-118798000D02*
X134399000Y-118798000D01*
G75*
G02*
X134149000Y-118548000I0J250000D01*
G01*
X134149000Y-118048000D01*
G75*
G02*
X134399000Y-117798000I250000J0D01*
G01*
X135349000Y-117798000D01*
G75*
G02*
X135599000Y-118048000I0J-250000D01*
G01*
X135599000Y-118548000D01*
G75*
G02*
X135349000Y-118798000I-250000J0D01*
G01*
G37*
%TD*%
D15*
X137922000Y-120396000D03*
X133350000Y-120396000D03*
X136144000Y-113284000D03*
X136144000Y-111252000D03*
X136144000Y-109474000D03*
X136144000Y-106934000D03*
X130048000Y-109474000D03*
X130048000Y-111252000D03*
X130048000Y-113284000D03*
X130048000Y-106934000D03*
X133350000Y-115316000D03*
X136398000Y-116332000D03*
X129540000Y-118618000D03*
X126492000Y-120396000D03*
X122428000Y-117348000D03*
X117602000Y-105410000D03*
X138430000Y-105410000D03*
X117602000Y-108458000D03*
X117602000Y-118618000D03*
X117602000Y-121158000D03*
X123190000Y-121158000D03*
M02*
