%TF.GenerationSoftware,KiCad,Pcbnew,5.1.9-73d0e3b20d~88~ubuntu20.04.1*%
%TF.CreationDate,2021-03-05T17:06:57-06:00*%
%TF.ProjectId,avricsp-breakout,61767269-6373-4702-9d62-7265616b6f75,rev?*%
%TF.SameCoordinates,Original*%
%TF.FileFunction,Copper,L2,Bot*%
%TF.FilePolarity,Positive*%
%FSLAX46Y46*%
G04 Gerber Fmt 4.6, Leading zero omitted, Abs format (unit mm)*
G04 Created by KiCad (PCBNEW 5.1.9-73d0e3b20d~88~ubuntu20.04.1) date 2021-03-05 17:06:57*
%MOMM*%
%LPD*%
G01*
G04 APERTURE LIST*
%TA.AperFunction,ComponentPad*%
%ADD10O,1.350000X1.350000*%
%TD*%
%TA.AperFunction,ComponentPad*%
%ADD11R,1.350000X1.350000*%
%TD*%
%TA.AperFunction,SMDPad,CuDef*%
%ADD12R,0.900000X0.800000*%
%TD*%
%TA.AperFunction,ComponentPad*%
%ADD13O,1.700000X1.700000*%
%TD*%
%TA.AperFunction,ComponentPad*%
%ADD14R,1.700000X1.700000*%
%TD*%
%TA.AperFunction,ViaPad*%
%ADD15C,0.800000*%
%TD*%
%TA.AperFunction,Conductor*%
%ADD16C,0.508000*%
%TD*%
%TA.AperFunction,Conductor*%
%ADD17C,0.203200*%
%TD*%
%TA.AperFunction,Conductor*%
%ADD18C,0.100000*%
%TD*%
G04 APERTURE END LIST*
D10*
%TO.P,J2,6*%
%TO.N,/~RST*%
X137922000Y-108364000D03*
%TO.P,J2,5*%
%TO.N,/SCK*%
X137922000Y-110364000D03*
%TO.P,J2,4*%
%TO.N,/MOSI*%
X137922000Y-112364000D03*
%TO.P,J2,3*%
%TO.N,/MISO*%
X137922000Y-114364000D03*
%TO.P,J2,2*%
%TO.N,GND*%
X137922000Y-116364000D03*
D11*
%TO.P,J2,1*%
%TO.N,VCC*%
X137922000Y-118364000D03*
%TD*%
D12*
%TO.P,Q1,3*%
%TO.N,/Vraw+*%
X133112000Y-116840000D03*
%TO.P,Q1,2*%
%TO.N,VCC*%
X135112000Y-117790000D03*
%TO.P,Q1,1*%
%TO.N,GND*%
X135112000Y-115890000D03*
%TD*%
D13*
%TO.P,ICSP,6*%
%TO.N,GND*%
X118364000Y-110744000D03*
%TO.P,ICSP,5*%
%TO.N,Net-(J3-Pad5)*%
X120904000Y-110744000D03*
%TO.P,ICSP,4*%
%TO.N,Net-(J3-Pad4)*%
X118364000Y-113284000D03*
%TO.P,ICSP,3*%
%TO.N,Net-(J3-Pad3)*%
X120904000Y-113284000D03*
%TO.P,ICSP,2*%
%TO.N,VCC*%
X118364000Y-115824000D03*
D14*
%TO.P,ICSP,1*%
%TO.N,Net-(J3-Pad1)*%
X120904000Y-115824000D03*
%TD*%
D13*
%TO.P,PWR,2*%
%TO.N,GND*%
X128524000Y-120396000D03*
D14*
%TO.P,PWR,1*%
%TO.N,/Vraw+*%
X131064000Y-120396000D03*
%TD*%
D15*
%TO.N,GND*%
X137922000Y-120396000D03*
X133350000Y-120396000D03*
X136144000Y-113284000D03*
X136144000Y-111252000D03*
X136144000Y-109474000D03*
X136144000Y-106934000D03*
X130048000Y-109474000D03*
X130048000Y-111252000D03*
X130048000Y-113284000D03*
X130048000Y-106934000D03*
X133350000Y-115316000D03*
X136398000Y-116332000D03*
X129540000Y-118618000D03*
X126492000Y-120396000D03*
X122428000Y-117348000D03*
X117602000Y-105410000D03*
X138430000Y-105410000D03*
X117602000Y-108458000D03*
X117602000Y-118618000D03*
X117602000Y-121158000D03*
X123190000Y-121158000D03*
%TD*%
D16*
%TO.N,VCC*%
X137922000Y-118364000D02*
X136652000Y-118364000D01*
X136078000Y-117790000D02*
X135112000Y-117790000D01*
X136652000Y-118364000D02*
X136078000Y-117790000D01*
%TO.N,/Vraw+*%
X131064000Y-120396000D02*
X131572000Y-120396000D01*
X133112000Y-116840000D02*
X131572000Y-116840000D01*
X131064000Y-117348000D02*
X131064000Y-120396000D01*
X131572000Y-116840000D02*
X131064000Y-117348000D01*
%TD*%
D17*
%TO.N,GND*%
X138528275Y-104913670D02*
X138622807Y-104942211D01*
X138709999Y-104988571D01*
X138786520Y-105050981D01*
X138849466Y-105127070D01*
X138896430Y-105213926D01*
X138925632Y-105308264D01*
X138938401Y-105429754D01*
X138938401Y-107801526D01*
X138821167Y-107626073D01*
X138659927Y-107464833D01*
X138470329Y-107338148D01*
X138259659Y-107250886D01*
X138036014Y-107206400D01*
X137807986Y-107206400D01*
X137584341Y-107250886D01*
X137373671Y-107338148D01*
X137184073Y-107464833D01*
X137022833Y-107626073D01*
X136896148Y-107815671D01*
X136808886Y-108026341D01*
X136764400Y-108249986D01*
X136764400Y-108478014D01*
X136808886Y-108701659D01*
X136896148Y-108912329D01*
X137022833Y-109101927D01*
X137184073Y-109263167D01*
X137334981Y-109364000D01*
X137184073Y-109464833D01*
X137022833Y-109626073D01*
X136896148Y-109815671D01*
X136808886Y-110026341D01*
X136764400Y-110249986D01*
X136764400Y-110478014D01*
X136808886Y-110701659D01*
X136896148Y-110912329D01*
X137022833Y-111101927D01*
X137184073Y-111263167D01*
X137334981Y-111364000D01*
X137184073Y-111464833D01*
X137022833Y-111626073D01*
X136896148Y-111815671D01*
X136808886Y-112026341D01*
X136764400Y-112249986D01*
X136764400Y-112478014D01*
X136808886Y-112701659D01*
X136896148Y-112912329D01*
X137022833Y-113101927D01*
X137184073Y-113263167D01*
X137334981Y-113364000D01*
X137184073Y-113464833D01*
X137022833Y-113626073D01*
X136896148Y-113815671D01*
X136808886Y-114026341D01*
X136764400Y-114249986D01*
X136764400Y-114478014D01*
X136808886Y-114701659D01*
X136896148Y-114912329D01*
X137022833Y-115101927D01*
X137184073Y-115263167D01*
X137226339Y-115291408D01*
X137125593Y-115356057D01*
X136944256Y-115530796D01*
X136800493Y-115737554D01*
X136699829Y-115968386D01*
X136686016Y-116013940D01*
X136800104Y-116211600D01*
X137769600Y-116211600D01*
X137769600Y-116191600D01*
X138074400Y-116191600D01*
X138074400Y-116211600D01*
X138094400Y-116211600D01*
X138094400Y-116516400D01*
X138074400Y-116516400D01*
X138074400Y-116536400D01*
X137769600Y-116536400D01*
X137769600Y-116516400D01*
X136800104Y-116516400D01*
X136686016Y-116714060D01*
X136699829Y-116759614D01*
X136800493Y-116990446D01*
X136944256Y-117197204D01*
X137015279Y-117265643D01*
X136977585Y-117285791D01*
X136904099Y-117346099D01*
X136843791Y-117419585D01*
X136810875Y-117481166D01*
X136624445Y-117294736D01*
X136601375Y-117266625D01*
X136489213Y-117174576D01*
X136361249Y-117106178D01*
X136222399Y-117064058D01*
X136114186Y-117053400D01*
X136114183Y-117053400D01*
X136078000Y-117049836D01*
X136041817Y-117053400D01*
X135910072Y-117053400D01*
X135904901Y-117047099D01*
X135831415Y-116986791D01*
X135747577Y-116941978D01*
X135656606Y-116914383D01*
X135562000Y-116905065D01*
X134662000Y-116905065D01*
X134567394Y-116914383D01*
X134476423Y-116941978D01*
X134392585Y-116986791D01*
X134319099Y-117047099D01*
X134258791Y-117120585D01*
X134213978Y-117204423D01*
X134186383Y-117295394D01*
X134177065Y-117390000D01*
X134177065Y-118190000D01*
X134186383Y-118284606D01*
X134213978Y-118375577D01*
X134258791Y-118459415D01*
X134319099Y-118532901D01*
X134392585Y-118593209D01*
X134476423Y-118638022D01*
X134567394Y-118665617D01*
X134662000Y-118674935D01*
X135562000Y-118674935D01*
X135656606Y-118665617D01*
X135747577Y-118638022D01*
X135831415Y-118593209D01*
X135835855Y-118589565D01*
X136105559Y-118859269D01*
X136128625Y-118887375D01*
X136240787Y-118979424D01*
X136368751Y-119047822D01*
X136507601Y-119089942D01*
X136652000Y-119104164D01*
X136688186Y-119100600D01*
X136768132Y-119100600D01*
X136771383Y-119133606D01*
X136798978Y-119224577D01*
X136843791Y-119308415D01*
X136904099Y-119381901D01*
X136977585Y-119442209D01*
X137061423Y-119487022D01*
X137152394Y-119514617D01*
X137247000Y-119523935D01*
X138597000Y-119523935D01*
X138691606Y-119514617D01*
X138782577Y-119487022D01*
X138866415Y-119442209D01*
X138938400Y-119383133D01*
X138938400Y-121133177D01*
X138926330Y-121256274D01*
X138897788Y-121350810D01*
X138851429Y-121437998D01*
X138789019Y-121514520D01*
X138712932Y-121577465D01*
X138626073Y-121624430D01*
X138531737Y-121653632D01*
X138410255Y-121666400D01*
X132151253Y-121666400D01*
X132183415Y-121649209D01*
X132256901Y-121588901D01*
X132317209Y-121515415D01*
X132362022Y-121431577D01*
X132389617Y-121340606D01*
X132398935Y-121246000D01*
X132398935Y-119546000D01*
X132389617Y-119451394D01*
X132362022Y-119360423D01*
X132317209Y-119276585D01*
X132256901Y-119203099D01*
X132183415Y-119142791D01*
X132099577Y-119097978D01*
X132008606Y-119070383D01*
X131914000Y-119061065D01*
X131800600Y-119061065D01*
X131800600Y-117653109D01*
X131877109Y-117576600D01*
X132313928Y-117576600D01*
X132319099Y-117582901D01*
X132392585Y-117643209D01*
X132476423Y-117688022D01*
X132567394Y-117715617D01*
X132662000Y-117724935D01*
X133562000Y-117724935D01*
X133656606Y-117715617D01*
X133747577Y-117688022D01*
X133831415Y-117643209D01*
X133904901Y-117582901D01*
X133965209Y-117509415D01*
X134010022Y-117425577D01*
X134037617Y-117334606D01*
X134046935Y-117240000D01*
X134046935Y-116440000D01*
X134037617Y-116345394D01*
X134020814Y-116290000D01*
X134049450Y-116290000D01*
X134061220Y-116409503D01*
X134096078Y-116524413D01*
X134152683Y-116630315D01*
X134228862Y-116723138D01*
X134321685Y-116799317D01*
X134427587Y-116855922D01*
X134542497Y-116890780D01*
X134662000Y-116902550D01*
X134807200Y-116899600D01*
X134959600Y-116747200D01*
X134959600Y-116042400D01*
X135264400Y-116042400D01*
X135264400Y-116747200D01*
X135416800Y-116899600D01*
X135562000Y-116902550D01*
X135681503Y-116890780D01*
X135796413Y-116855922D01*
X135902315Y-116799317D01*
X135995138Y-116723138D01*
X136071317Y-116630315D01*
X136127922Y-116524413D01*
X136162780Y-116409503D01*
X136174550Y-116290000D01*
X136171600Y-116194800D01*
X136019200Y-116042400D01*
X135264400Y-116042400D01*
X134959600Y-116042400D01*
X134204800Y-116042400D01*
X134052400Y-116194800D01*
X134049450Y-116290000D01*
X134020814Y-116290000D01*
X134010022Y-116254423D01*
X133965209Y-116170585D01*
X133904901Y-116097099D01*
X133831415Y-116036791D01*
X133747577Y-115991978D01*
X133656606Y-115964383D01*
X133562000Y-115955065D01*
X132662000Y-115955065D01*
X132567394Y-115964383D01*
X132476423Y-115991978D01*
X132392585Y-116036791D01*
X132319099Y-116097099D01*
X132313928Y-116103400D01*
X131608175Y-116103400D01*
X131571999Y-116099837D01*
X131535823Y-116103400D01*
X131535814Y-116103400D01*
X131427601Y-116114058D01*
X131288751Y-116156178D01*
X131160787Y-116224576D01*
X131048625Y-116316625D01*
X131025554Y-116344737D01*
X130568732Y-116801559D01*
X130540625Y-116824626D01*
X130517559Y-116852732D01*
X130517558Y-116852733D01*
X130511941Y-116859577D01*
X130448576Y-116936788D01*
X130380178Y-117064752D01*
X130338058Y-117203602D01*
X130327400Y-117311814D01*
X130323836Y-117348000D01*
X130327400Y-117384183D01*
X130327401Y-119061065D01*
X130214000Y-119061065D01*
X130119394Y-119070383D01*
X130028423Y-119097978D01*
X129944585Y-119142791D01*
X129871099Y-119203099D01*
X129810791Y-119276585D01*
X129765978Y-119360423D01*
X129738383Y-119451394D01*
X129729065Y-119546000D01*
X129729065Y-119583151D01*
X129682087Y-119507585D01*
X129486514Y-119298724D01*
X129253952Y-119132031D01*
X128993338Y-119013911D01*
X128901607Y-118986090D01*
X128676400Y-119097714D01*
X128676400Y-120243600D01*
X128696400Y-120243600D01*
X128696400Y-120548400D01*
X128676400Y-120548400D01*
X128676400Y-120568400D01*
X128371600Y-120568400D01*
X128371600Y-120548400D01*
X127224772Y-120548400D01*
X127114085Y-120773608D01*
X127214844Y-121041413D01*
X127365913Y-121284415D01*
X127561486Y-121493276D01*
X127794048Y-121659969D01*
X127808237Y-121666400D01*
X117626823Y-121666400D01*
X117503726Y-121654330D01*
X117409190Y-121625788D01*
X117322002Y-121579429D01*
X117245480Y-121517019D01*
X117182535Y-121440932D01*
X117135570Y-121354073D01*
X117106368Y-121259737D01*
X117093600Y-121138255D01*
X117093600Y-120018392D01*
X127114085Y-120018392D01*
X127224772Y-120243600D01*
X128371600Y-120243600D01*
X128371600Y-119097714D01*
X128146393Y-118986090D01*
X128054662Y-119013911D01*
X127794048Y-119132031D01*
X127561486Y-119298724D01*
X127365913Y-119507585D01*
X127214844Y-119750587D01*
X127114085Y-120018392D01*
X117093600Y-120018392D01*
X117093600Y-116239235D01*
X117183065Y-116455223D01*
X117328902Y-116673483D01*
X117514517Y-116859098D01*
X117732777Y-117004935D01*
X117975295Y-117105389D01*
X118232750Y-117156600D01*
X118495250Y-117156600D01*
X118752705Y-117105389D01*
X118995223Y-117004935D01*
X119213483Y-116859098D01*
X119399098Y-116673483D01*
X119544935Y-116455223D01*
X119569065Y-116396968D01*
X119569065Y-116674000D01*
X119578383Y-116768606D01*
X119605978Y-116859577D01*
X119650791Y-116943415D01*
X119711099Y-117016901D01*
X119784585Y-117077209D01*
X119868423Y-117122022D01*
X119959394Y-117149617D01*
X120054000Y-117158935D01*
X121754000Y-117158935D01*
X121848606Y-117149617D01*
X121939577Y-117122022D01*
X122023415Y-117077209D01*
X122096901Y-117016901D01*
X122157209Y-116943415D01*
X122202022Y-116859577D01*
X122229617Y-116768606D01*
X122238935Y-116674000D01*
X122238935Y-115490000D01*
X134049450Y-115490000D01*
X134052400Y-115585200D01*
X134204800Y-115737600D01*
X134959600Y-115737600D01*
X134959600Y-115032800D01*
X135264400Y-115032800D01*
X135264400Y-115737600D01*
X136019200Y-115737600D01*
X136171600Y-115585200D01*
X136174550Y-115490000D01*
X136162780Y-115370497D01*
X136127922Y-115255587D01*
X136071317Y-115149685D01*
X135995138Y-115056862D01*
X135902315Y-114980683D01*
X135796413Y-114924078D01*
X135681503Y-114889220D01*
X135562000Y-114877450D01*
X135416800Y-114880400D01*
X135264400Y-115032800D01*
X134959600Y-115032800D01*
X134807200Y-114880400D01*
X134662000Y-114877450D01*
X134542497Y-114889220D01*
X134427587Y-114924078D01*
X134321685Y-114980683D01*
X134228862Y-115056862D01*
X134152683Y-115149685D01*
X134096078Y-115255587D01*
X134061220Y-115370497D01*
X134049450Y-115490000D01*
X122238935Y-115490000D01*
X122238935Y-114974000D01*
X122229617Y-114879394D01*
X122202022Y-114788423D01*
X122157209Y-114704585D01*
X122096901Y-114631099D01*
X122023415Y-114570791D01*
X121939577Y-114525978D01*
X121848606Y-114498383D01*
X121754000Y-114489065D01*
X121476968Y-114489065D01*
X121535223Y-114464935D01*
X121753483Y-114319098D01*
X121939098Y-114133483D01*
X122084935Y-113915223D01*
X122185389Y-113672705D01*
X122236600Y-113415250D01*
X122236600Y-113152750D01*
X122185389Y-112895295D01*
X122084935Y-112652777D01*
X121939098Y-112434517D01*
X121753483Y-112248902D01*
X121535223Y-112103065D01*
X121320201Y-112014000D01*
X121535223Y-111924935D01*
X121753483Y-111779098D01*
X121939098Y-111593483D01*
X122084935Y-111375223D01*
X122185389Y-111132705D01*
X122236600Y-110875250D01*
X122236600Y-110612750D01*
X122185389Y-110355295D01*
X122084935Y-110112777D01*
X121939098Y-109894517D01*
X121753483Y-109708902D01*
X121535223Y-109563065D01*
X121292705Y-109462611D01*
X121035250Y-109411400D01*
X120772750Y-109411400D01*
X120515295Y-109462611D01*
X120272777Y-109563065D01*
X120054517Y-109708902D01*
X119868902Y-109894517D01*
X119723065Y-110112777D01*
X119699023Y-110170819D01*
X119627969Y-110014048D01*
X119461276Y-109781486D01*
X119252415Y-109585913D01*
X119009413Y-109434844D01*
X118741608Y-109334085D01*
X118516400Y-109444772D01*
X118516400Y-110591600D01*
X118536400Y-110591600D01*
X118536400Y-110896400D01*
X118516400Y-110896400D01*
X118516400Y-110916400D01*
X118211600Y-110916400D01*
X118211600Y-110896400D01*
X118191600Y-110896400D01*
X118191600Y-110591600D01*
X118211600Y-110591600D01*
X118211600Y-109444772D01*
X117986392Y-109334085D01*
X117718587Y-109434844D01*
X117475585Y-109585913D01*
X117266724Y-109781486D01*
X117100031Y-110014048D01*
X117093600Y-110028237D01*
X117093600Y-105434823D01*
X117105670Y-105311725D01*
X117134211Y-105217193D01*
X117180571Y-105130001D01*
X117242981Y-105053480D01*
X117319070Y-104990534D01*
X117405926Y-104943570D01*
X117500264Y-104914368D01*
X117621745Y-104901600D01*
X138405177Y-104901600D01*
X138528275Y-104913670D01*
%TA.AperFunction,Conductor*%
D18*
G36*
X138528275Y-104913670D02*
G01*
X138622807Y-104942211D01*
X138709999Y-104988571D01*
X138786520Y-105050981D01*
X138849466Y-105127070D01*
X138896430Y-105213926D01*
X138925632Y-105308264D01*
X138938401Y-105429754D01*
X138938401Y-107801526D01*
X138821167Y-107626073D01*
X138659927Y-107464833D01*
X138470329Y-107338148D01*
X138259659Y-107250886D01*
X138036014Y-107206400D01*
X137807986Y-107206400D01*
X137584341Y-107250886D01*
X137373671Y-107338148D01*
X137184073Y-107464833D01*
X137022833Y-107626073D01*
X136896148Y-107815671D01*
X136808886Y-108026341D01*
X136764400Y-108249986D01*
X136764400Y-108478014D01*
X136808886Y-108701659D01*
X136896148Y-108912329D01*
X137022833Y-109101927D01*
X137184073Y-109263167D01*
X137334981Y-109364000D01*
X137184073Y-109464833D01*
X137022833Y-109626073D01*
X136896148Y-109815671D01*
X136808886Y-110026341D01*
X136764400Y-110249986D01*
X136764400Y-110478014D01*
X136808886Y-110701659D01*
X136896148Y-110912329D01*
X137022833Y-111101927D01*
X137184073Y-111263167D01*
X137334981Y-111364000D01*
X137184073Y-111464833D01*
X137022833Y-111626073D01*
X136896148Y-111815671D01*
X136808886Y-112026341D01*
X136764400Y-112249986D01*
X136764400Y-112478014D01*
X136808886Y-112701659D01*
X136896148Y-112912329D01*
X137022833Y-113101927D01*
X137184073Y-113263167D01*
X137334981Y-113364000D01*
X137184073Y-113464833D01*
X137022833Y-113626073D01*
X136896148Y-113815671D01*
X136808886Y-114026341D01*
X136764400Y-114249986D01*
X136764400Y-114478014D01*
X136808886Y-114701659D01*
X136896148Y-114912329D01*
X137022833Y-115101927D01*
X137184073Y-115263167D01*
X137226339Y-115291408D01*
X137125593Y-115356057D01*
X136944256Y-115530796D01*
X136800493Y-115737554D01*
X136699829Y-115968386D01*
X136686016Y-116013940D01*
X136800104Y-116211600D01*
X137769600Y-116211600D01*
X137769600Y-116191600D01*
X138074400Y-116191600D01*
X138074400Y-116211600D01*
X138094400Y-116211600D01*
X138094400Y-116516400D01*
X138074400Y-116516400D01*
X138074400Y-116536400D01*
X137769600Y-116536400D01*
X137769600Y-116516400D01*
X136800104Y-116516400D01*
X136686016Y-116714060D01*
X136699829Y-116759614D01*
X136800493Y-116990446D01*
X136944256Y-117197204D01*
X137015279Y-117265643D01*
X136977585Y-117285791D01*
X136904099Y-117346099D01*
X136843791Y-117419585D01*
X136810875Y-117481166D01*
X136624445Y-117294736D01*
X136601375Y-117266625D01*
X136489213Y-117174576D01*
X136361249Y-117106178D01*
X136222399Y-117064058D01*
X136114186Y-117053400D01*
X136114183Y-117053400D01*
X136078000Y-117049836D01*
X136041817Y-117053400D01*
X135910072Y-117053400D01*
X135904901Y-117047099D01*
X135831415Y-116986791D01*
X135747577Y-116941978D01*
X135656606Y-116914383D01*
X135562000Y-116905065D01*
X134662000Y-116905065D01*
X134567394Y-116914383D01*
X134476423Y-116941978D01*
X134392585Y-116986791D01*
X134319099Y-117047099D01*
X134258791Y-117120585D01*
X134213978Y-117204423D01*
X134186383Y-117295394D01*
X134177065Y-117390000D01*
X134177065Y-118190000D01*
X134186383Y-118284606D01*
X134213978Y-118375577D01*
X134258791Y-118459415D01*
X134319099Y-118532901D01*
X134392585Y-118593209D01*
X134476423Y-118638022D01*
X134567394Y-118665617D01*
X134662000Y-118674935D01*
X135562000Y-118674935D01*
X135656606Y-118665617D01*
X135747577Y-118638022D01*
X135831415Y-118593209D01*
X135835855Y-118589565D01*
X136105559Y-118859269D01*
X136128625Y-118887375D01*
X136240787Y-118979424D01*
X136368751Y-119047822D01*
X136507601Y-119089942D01*
X136652000Y-119104164D01*
X136688186Y-119100600D01*
X136768132Y-119100600D01*
X136771383Y-119133606D01*
X136798978Y-119224577D01*
X136843791Y-119308415D01*
X136904099Y-119381901D01*
X136977585Y-119442209D01*
X137061423Y-119487022D01*
X137152394Y-119514617D01*
X137247000Y-119523935D01*
X138597000Y-119523935D01*
X138691606Y-119514617D01*
X138782577Y-119487022D01*
X138866415Y-119442209D01*
X138938400Y-119383133D01*
X138938400Y-121133177D01*
X138926330Y-121256274D01*
X138897788Y-121350810D01*
X138851429Y-121437998D01*
X138789019Y-121514520D01*
X138712932Y-121577465D01*
X138626073Y-121624430D01*
X138531737Y-121653632D01*
X138410255Y-121666400D01*
X132151253Y-121666400D01*
X132183415Y-121649209D01*
X132256901Y-121588901D01*
X132317209Y-121515415D01*
X132362022Y-121431577D01*
X132389617Y-121340606D01*
X132398935Y-121246000D01*
X132398935Y-119546000D01*
X132389617Y-119451394D01*
X132362022Y-119360423D01*
X132317209Y-119276585D01*
X132256901Y-119203099D01*
X132183415Y-119142791D01*
X132099577Y-119097978D01*
X132008606Y-119070383D01*
X131914000Y-119061065D01*
X131800600Y-119061065D01*
X131800600Y-117653109D01*
X131877109Y-117576600D01*
X132313928Y-117576600D01*
X132319099Y-117582901D01*
X132392585Y-117643209D01*
X132476423Y-117688022D01*
X132567394Y-117715617D01*
X132662000Y-117724935D01*
X133562000Y-117724935D01*
X133656606Y-117715617D01*
X133747577Y-117688022D01*
X133831415Y-117643209D01*
X133904901Y-117582901D01*
X133965209Y-117509415D01*
X134010022Y-117425577D01*
X134037617Y-117334606D01*
X134046935Y-117240000D01*
X134046935Y-116440000D01*
X134037617Y-116345394D01*
X134020814Y-116290000D01*
X134049450Y-116290000D01*
X134061220Y-116409503D01*
X134096078Y-116524413D01*
X134152683Y-116630315D01*
X134228862Y-116723138D01*
X134321685Y-116799317D01*
X134427587Y-116855922D01*
X134542497Y-116890780D01*
X134662000Y-116902550D01*
X134807200Y-116899600D01*
X134959600Y-116747200D01*
X134959600Y-116042400D01*
X135264400Y-116042400D01*
X135264400Y-116747200D01*
X135416800Y-116899600D01*
X135562000Y-116902550D01*
X135681503Y-116890780D01*
X135796413Y-116855922D01*
X135902315Y-116799317D01*
X135995138Y-116723138D01*
X136071317Y-116630315D01*
X136127922Y-116524413D01*
X136162780Y-116409503D01*
X136174550Y-116290000D01*
X136171600Y-116194800D01*
X136019200Y-116042400D01*
X135264400Y-116042400D01*
X134959600Y-116042400D01*
X134204800Y-116042400D01*
X134052400Y-116194800D01*
X134049450Y-116290000D01*
X134020814Y-116290000D01*
X134010022Y-116254423D01*
X133965209Y-116170585D01*
X133904901Y-116097099D01*
X133831415Y-116036791D01*
X133747577Y-115991978D01*
X133656606Y-115964383D01*
X133562000Y-115955065D01*
X132662000Y-115955065D01*
X132567394Y-115964383D01*
X132476423Y-115991978D01*
X132392585Y-116036791D01*
X132319099Y-116097099D01*
X132313928Y-116103400D01*
X131608175Y-116103400D01*
X131571999Y-116099837D01*
X131535823Y-116103400D01*
X131535814Y-116103400D01*
X131427601Y-116114058D01*
X131288751Y-116156178D01*
X131160787Y-116224576D01*
X131048625Y-116316625D01*
X131025554Y-116344737D01*
X130568732Y-116801559D01*
X130540625Y-116824626D01*
X130517559Y-116852732D01*
X130517558Y-116852733D01*
X130511941Y-116859577D01*
X130448576Y-116936788D01*
X130380178Y-117064752D01*
X130338058Y-117203602D01*
X130327400Y-117311814D01*
X130323836Y-117348000D01*
X130327400Y-117384183D01*
X130327401Y-119061065D01*
X130214000Y-119061065D01*
X130119394Y-119070383D01*
X130028423Y-119097978D01*
X129944585Y-119142791D01*
X129871099Y-119203099D01*
X129810791Y-119276585D01*
X129765978Y-119360423D01*
X129738383Y-119451394D01*
X129729065Y-119546000D01*
X129729065Y-119583151D01*
X129682087Y-119507585D01*
X129486514Y-119298724D01*
X129253952Y-119132031D01*
X128993338Y-119013911D01*
X128901607Y-118986090D01*
X128676400Y-119097714D01*
X128676400Y-120243600D01*
X128696400Y-120243600D01*
X128696400Y-120548400D01*
X128676400Y-120548400D01*
X128676400Y-120568400D01*
X128371600Y-120568400D01*
X128371600Y-120548400D01*
X127224772Y-120548400D01*
X127114085Y-120773608D01*
X127214844Y-121041413D01*
X127365913Y-121284415D01*
X127561486Y-121493276D01*
X127794048Y-121659969D01*
X127808237Y-121666400D01*
X117626823Y-121666400D01*
X117503726Y-121654330D01*
X117409190Y-121625788D01*
X117322002Y-121579429D01*
X117245480Y-121517019D01*
X117182535Y-121440932D01*
X117135570Y-121354073D01*
X117106368Y-121259737D01*
X117093600Y-121138255D01*
X117093600Y-120018392D01*
X127114085Y-120018392D01*
X127224772Y-120243600D01*
X128371600Y-120243600D01*
X128371600Y-119097714D01*
X128146393Y-118986090D01*
X128054662Y-119013911D01*
X127794048Y-119132031D01*
X127561486Y-119298724D01*
X127365913Y-119507585D01*
X127214844Y-119750587D01*
X127114085Y-120018392D01*
X117093600Y-120018392D01*
X117093600Y-116239235D01*
X117183065Y-116455223D01*
X117328902Y-116673483D01*
X117514517Y-116859098D01*
X117732777Y-117004935D01*
X117975295Y-117105389D01*
X118232750Y-117156600D01*
X118495250Y-117156600D01*
X118752705Y-117105389D01*
X118995223Y-117004935D01*
X119213483Y-116859098D01*
X119399098Y-116673483D01*
X119544935Y-116455223D01*
X119569065Y-116396968D01*
X119569065Y-116674000D01*
X119578383Y-116768606D01*
X119605978Y-116859577D01*
X119650791Y-116943415D01*
X119711099Y-117016901D01*
X119784585Y-117077209D01*
X119868423Y-117122022D01*
X119959394Y-117149617D01*
X120054000Y-117158935D01*
X121754000Y-117158935D01*
X121848606Y-117149617D01*
X121939577Y-117122022D01*
X122023415Y-117077209D01*
X122096901Y-117016901D01*
X122157209Y-116943415D01*
X122202022Y-116859577D01*
X122229617Y-116768606D01*
X122238935Y-116674000D01*
X122238935Y-115490000D01*
X134049450Y-115490000D01*
X134052400Y-115585200D01*
X134204800Y-115737600D01*
X134959600Y-115737600D01*
X134959600Y-115032800D01*
X135264400Y-115032800D01*
X135264400Y-115737600D01*
X136019200Y-115737600D01*
X136171600Y-115585200D01*
X136174550Y-115490000D01*
X136162780Y-115370497D01*
X136127922Y-115255587D01*
X136071317Y-115149685D01*
X135995138Y-115056862D01*
X135902315Y-114980683D01*
X135796413Y-114924078D01*
X135681503Y-114889220D01*
X135562000Y-114877450D01*
X135416800Y-114880400D01*
X135264400Y-115032800D01*
X134959600Y-115032800D01*
X134807200Y-114880400D01*
X134662000Y-114877450D01*
X134542497Y-114889220D01*
X134427587Y-114924078D01*
X134321685Y-114980683D01*
X134228862Y-115056862D01*
X134152683Y-115149685D01*
X134096078Y-115255587D01*
X134061220Y-115370497D01*
X134049450Y-115490000D01*
X122238935Y-115490000D01*
X122238935Y-114974000D01*
X122229617Y-114879394D01*
X122202022Y-114788423D01*
X122157209Y-114704585D01*
X122096901Y-114631099D01*
X122023415Y-114570791D01*
X121939577Y-114525978D01*
X121848606Y-114498383D01*
X121754000Y-114489065D01*
X121476968Y-114489065D01*
X121535223Y-114464935D01*
X121753483Y-114319098D01*
X121939098Y-114133483D01*
X122084935Y-113915223D01*
X122185389Y-113672705D01*
X122236600Y-113415250D01*
X122236600Y-113152750D01*
X122185389Y-112895295D01*
X122084935Y-112652777D01*
X121939098Y-112434517D01*
X121753483Y-112248902D01*
X121535223Y-112103065D01*
X121320201Y-112014000D01*
X121535223Y-111924935D01*
X121753483Y-111779098D01*
X121939098Y-111593483D01*
X122084935Y-111375223D01*
X122185389Y-111132705D01*
X122236600Y-110875250D01*
X122236600Y-110612750D01*
X122185389Y-110355295D01*
X122084935Y-110112777D01*
X121939098Y-109894517D01*
X121753483Y-109708902D01*
X121535223Y-109563065D01*
X121292705Y-109462611D01*
X121035250Y-109411400D01*
X120772750Y-109411400D01*
X120515295Y-109462611D01*
X120272777Y-109563065D01*
X120054517Y-109708902D01*
X119868902Y-109894517D01*
X119723065Y-110112777D01*
X119699023Y-110170819D01*
X119627969Y-110014048D01*
X119461276Y-109781486D01*
X119252415Y-109585913D01*
X119009413Y-109434844D01*
X118741608Y-109334085D01*
X118516400Y-109444772D01*
X118516400Y-110591600D01*
X118536400Y-110591600D01*
X118536400Y-110896400D01*
X118516400Y-110896400D01*
X118516400Y-110916400D01*
X118211600Y-110916400D01*
X118211600Y-110896400D01*
X118191600Y-110896400D01*
X118191600Y-110591600D01*
X118211600Y-110591600D01*
X118211600Y-109444772D01*
X117986392Y-109334085D01*
X117718587Y-109434844D01*
X117475585Y-109585913D01*
X117266724Y-109781486D01*
X117100031Y-110014048D01*
X117093600Y-110028237D01*
X117093600Y-105434823D01*
X117105670Y-105311725D01*
X117134211Y-105217193D01*
X117180571Y-105130001D01*
X117242981Y-105053480D01*
X117319070Y-104990534D01*
X117405926Y-104943570D01*
X117500264Y-104914368D01*
X117621745Y-104901600D01*
X138405177Y-104901600D01*
X138528275Y-104913670D01*
G37*
%TD.AperFunction*%
%TD*%
M02*
