M48
; DRILL file {KiCad 5.1.9-73d0e3b20d~88~ubuntu20.04.1} date Fri Mar  5 17:07:02 2021
; FORMAT={-:-/ absolute / inch / decimal}
; #@! TF.CreationDate,2021-03-05T17:07:02-06:00
; #@! TF.GenerationSoftware,Kicad,Pcbnew,5.1.9-73d0e3b20d~88~ubuntu20.04.1
; #@! TF.FileFunction,Plated,1,2,PTH
FMAT,2
INCH
T1C0.0157
T2C0.0315
T3C0.0394
%
G90
G05
T1
X4.63Y-4.15
X4.63Y-4.27
X4.63Y-4.67
X4.63Y-4.77
X4.82Y-4.62
X4.85Y-4.77
X4.98Y-4.74
X5.1Y-4.67
X5.12Y-4.21
X5.12Y-4.31
X5.12Y-4.38
X5.12Y-4.46
X5.25Y-4.54
X5.25Y-4.74
X5.36Y-4.21
X5.36Y-4.31
X5.36Y-4.38
X5.36Y-4.46
X5.37Y-4.58
X5.43Y-4.74
X5.45Y-4.15
T2
X5.43Y-4.2663
X5.43Y-4.345
X5.43Y-4.4238
X5.43Y-4.5025
X5.43Y-4.5813
X5.43Y-4.66
T3
X4.66Y-4.36
X4.66Y-4.46
X4.66Y-4.56
X4.76Y-4.36
X4.76Y-4.46
X4.76Y-4.56
X5.06Y-4.74
X5.16Y-4.74
T0
M30
