%TF.GenerationSoftware,KiCad,Pcbnew,5.1.10-88a1d61d58~88~ubuntu20.04.1*%
%TF.CreationDate,2021-06-26T15:26:23-05:00*%
%TF.ProjectId,portalgun,706f7274-616c-4677-956e-2e6b69636164,B*%
%TF.SameCoordinates,Original*%
%TF.FileFunction,Other,User*%
%FSLAX46Y46*%
G04 Gerber Fmt 4.6, Leading zero omitted, Abs format (unit mm)*
G04 Created by KiCad (PCBNEW 5.1.10-88a1d61d58~88~ubuntu20.04.1) date 2021-06-26 15:26:23*
%MOMM*%
%LPD*%
G01*
G04 APERTURE LIST*
%ADD10C,0.100000*%
%ADD11C,0.150000*%
%ADD12C,0.300000*%
%ADD13C,0.400000*%
%ADD14C,0.050000*%
G04 APERTURE END LIST*
D10*
D11*
X177002200Y-166007200D02*
X177002200Y-198007200D01*
X285002200Y-198007200D01*
X285002200Y-166007200D01*
X177002200Y-166007200D01*
D10*
D11*
X10000000Y-10000000D02*
X10000000Y-200007200D01*
X287002200Y-200007200D01*
X287002200Y-10000000D01*
X10000000Y-10000000D01*
D10*
D11*
X12000000Y-12000000D02*
X12000000Y-198007200D01*
X285002200Y-198007200D01*
X285002200Y-12000000D01*
X12000000Y-12000000D01*
D10*
D11*
X60000000Y-12000000D02*
X60000000Y-10000000D01*
D10*
D11*
X110000000Y-12000000D02*
X110000000Y-10000000D01*
D10*
D11*
X160000000Y-12000000D02*
X160000000Y-10000000D01*
D10*
D11*
X210000000Y-12000000D02*
X210000000Y-10000000D01*
D10*
D11*
X260000000Y-12000000D02*
X260000000Y-10000000D01*
D10*
D11*
X36065476Y-11588095D02*
X35322619Y-11588095D01*
X35694047Y-11588095D02*
X35694047Y-10288095D01*
X35570238Y-10473809D01*
X35446428Y-10597619D01*
X35322619Y-10659523D01*
D10*
D11*
X85322619Y-10411904D02*
X85384523Y-10350000D01*
X85508333Y-10288095D01*
X85817857Y-10288095D01*
X85941666Y-10350000D01*
X86003571Y-10411904D01*
X86065476Y-10535714D01*
X86065476Y-10659523D01*
X86003571Y-10845238D01*
X85260714Y-11588095D01*
X86065476Y-11588095D01*
D10*
D11*
X135260714Y-10288095D02*
X136065476Y-10288095D01*
X135632142Y-10783333D01*
X135817857Y-10783333D01*
X135941666Y-10845238D01*
X136003571Y-10907142D01*
X136065476Y-11030952D01*
X136065476Y-11340476D01*
X136003571Y-11464285D01*
X135941666Y-11526190D01*
X135817857Y-11588095D01*
X135446428Y-11588095D01*
X135322619Y-11526190D01*
X135260714Y-11464285D01*
D10*
D11*
X185941666Y-10721428D02*
X185941666Y-11588095D01*
X185632142Y-10226190D02*
X185322619Y-11154761D01*
X186127380Y-11154761D01*
D10*
D11*
X236003571Y-10288095D02*
X235384523Y-10288095D01*
X235322619Y-10907142D01*
X235384523Y-10845238D01*
X235508333Y-10783333D01*
X235817857Y-10783333D01*
X235941666Y-10845238D01*
X236003571Y-10907142D01*
X236065476Y-11030952D01*
X236065476Y-11340476D01*
X236003571Y-11464285D01*
X235941666Y-11526190D01*
X235817857Y-11588095D01*
X235508333Y-11588095D01*
X235384523Y-11526190D01*
X235322619Y-11464285D01*
D10*
D11*
X285941666Y-10288095D02*
X285694047Y-10288095D01*
X285570238Y-10350000D01*
X285508333Y-10411904D01*
X285384523Y-10597619D01*
X285322619Y-10845238D01*
X285322619Y-11340476D01*
X285384523Y-11464285D01*
X285446428Y-11526190D01*
X285570238Y-11588095D01*
X285817857Y-11588095D01*
X285941666Y-11526190D01*
X286003571Y-11464285D01*
X286065476Y-11340476D01*
X286065476Y-11030952D01*
X286003571Y-10907142D01*
X285941666Y-10845238D01*
X285817857Y-10783333D01*
X285570238Y-10783333D01*
X285446428Y-10845238D01*
X285384523Y-10907142D01*
X285322619Y-11030952D01*
D10*
D11*
X60000000Y-198007200D02*
X60000000Y-200007200D01*
D10*
D11*
X110000000Y-198007200D02*
X110000000Y-200007200D01*
D10*
D11*
X160000000Y-198007200D02*
X160000000Y-200007200D01*
D10*
D11*
X210000000Y-198007200D02*
X210000000Y-200007200D01*
D10*
D11*
X260000000Y-198007200D02*
X260000000Y-200007200D01*
D10*
D11*
X36065476Y-199595295D02*
X35322619Y-199595295D01*
X35694047Y-199595295D02*
X35694047Y-198295295D01*
X35570238Y-198481009D01*
X35446428Y-198604819D01*
X35322619Y-198666723D01*
D10*
D11*
X85322619Y-198419104D02*
X85384523Y-198357200D01*
X85508333Y-198295295D01*
X85817857Y-198295295D01*
X85941666Y-198357200D01*
X86003571Y-198419104D01*
X86065476Y-198542914D01*
X86065476Y-198666723D01*
X86003571Y-198852438D01*
X85260714Y-199595295D01*
X86065476Y-199595295D01*
D10*
D11*
X135260714Y-198295295D02*
X136065476Y-198295295D01*
X135632142Y-198790533D01*
X135817857Y-198790533D01*
X135941666Y-198852438D01*
X136003571Y-198914342D01*
X136065476Y-199038152D01*
X136065476Y-199347676D01*
X136003571Y-199471485D01*
X135941666Y-199533390D01*
X135817857Y-199595295D01*
X135446428Y-199595295D01*
X135322619Y-199533390D01*
X135260714Y-199471485D01*
D10*
D11*
X185941666Y-198728628D02*
X185941666Y-199595295D01*
X185632142Y-198233390D02*
X185322619Y-199161961D01*
X186127380Y-199161961D01*
D10*
D11*
X236003571Y-198295295D02*
X235384523Y-198295295D01*
X235322619Y-198914342D01*
X235384523Y-198852438D01*
X235508333Y-198790533D01*
X235817857Y-198790533D01*
X235941666Y-198852438D01*
X236003571Y-198914342D01*
X236065476Y-199038152D01*
X236065476Y-199347676D01*
X236003571Y-199471485D01*
X235941666Y-199533390D01*
X235817857Y-199595295D01*
X235508333Y-199595295D01*
X235384523Y-199533390D01*
X235322619Y-199471485D01*
D10*
D11*
X285941666Y-198295295D02*
X285694047Y-198295295D01*
X285570238Y-198357200D01*
X285508333Y-198419104D01*
X285384523Y-198604819D01*
X285322619Y-198852438D01*
X285322619Y-199347676D01*
X285384523Y-199471485D01*
X285446428Y-199533390D01*
X285570238Y-199595295D01*
X285817857Y-199595295D01*
X285941666Y-199533390D01*
X286003571Y-199471485D01*
X286065476Y-199347676D01*
X286065476Y-199038152D01*
X286003571Y-198914342D01*
X285941666Y-198852438D01*
X285817857Y-198790533D01*
X285570238Y-198790533D01*
X285446428Y-198852438D01*
X285384523Y-198914342D01*
X285322619Y-199038152D01*
D10*
D11*
X10000000Y-60000000D02*
X12000000Y-60000000D01*
D10*
D11*
X10000000Y-110000000D02*
X12000000Y-110000000D01*
D10*
D11*
X10000000Y-160000000D02*
X12000000Y-160000000D01*
D10*
D11*
X10690476Y-35216666D02*
X11309523Y-35216666D01*
X10566666Y-35588095D02*
X11000000Y-34288095D01*
X11433333Y-35588095D01*
D10*
D11*
X11092857Y-84907142D02*
X11278571Y-84969047D01*
X11340476Y-85030952D01*
X11402380Y-85154761D01*
X11402380Y-85340476D01*
X11340476Y-85464285D01*
X11278571Y-85526190D01*
X11154761Y-85588095D01*
X10659523Y-85588095D01*
X10659523Y-84288095D01*
X11092857Y-84288095D01*
X11216666Y-84350000D01*
X11278571Y-84411904D01*
X11340476Y-84535714D01*
X11340476Y-84659523D01*
X11278571Y-84783333D01*
X11216666Y-84845238D01*
X11092857Y-84907142D01*
X10659523Y-84907142D01*
D10*
D11*
X11402380Y-135464285D02*
X11340476Y-135526190D01*
X11154761Y-135588095D01*
X11030952Y-135588095D01*
X10845238Y-135526190D01*
X10721428Y-135402380D01*
X10659523Y-135278571D01*
X10597619Y-135030952D01*
X10597619Y-134845238D01*
X10659523Y-134597619D01*
X10721428Y-134473809D01*
X10845238Y-134350000D01*
X11030952Y-134288095D01*
X11154761Y-134288095D01*
X11340476Y-134350000D01*
X11402380Y-134411904D01*
D10*
D11*
X10659523Y-185588095D02*
X10659523Y-184288095D01*
X10969047Y-184288095D01*
X11154761Y-184350000D01*
X11278571Y-184473809D01*
X11340476Y-184597619D01*
X11402380Y-184845238D01*
X11402380Y-185030952D01*
X11340476Y-185278571D01*
X11278571Y-185402380D01*
X11154761Y-185526190D01*
X10969047Y-185588095D01*
X10659523Y-185588095D01*
D10*
D11*
X287002200Y-60000000D02*
X285002200Y-60000000D01*
D10*
D11*
X287002200Y-110000000D02*
X285002200Y-110000000D01*
D10*
D11*
X287002200Y-160000000D02*
X285002200Y-160000000D01*
D10*
D11*
X285692676Y-35216666D02*
X286311723Y-35216666D01*
X285568866Y-35588095D02*
X286002200Y-34288095D01*
X286435533Y-35588095D01*
D10*
D11*
X286095057Y-84907142D02*
X286280771Y-84969047D01*
X286342676Y-85030952D01*
X286404580Y-85154761D01*
X286404580Y-85340476D01*
X286342676Y-85464285D01*
X286280771Y-85526190D01*
X286156961Y-85588095D01*
X285661723Y-85588095D01*
X285661723Y-84288095D01*
X286095057Y-84288095D01*
X286218866Y-84350000D01*
X286280771Y-84411904D01*
X286342676Y-84535714D01*
X286342676Y-84659523D01*
X286280771Y-84783333D01*
X286218866Y-84845238D01*
X286095057Y-84907142D01*
X285661723Y-84907142D01*
D10*
D11*
X286404580Y-135464285D02*
X286342676Y-135526190D01*
X286156961Y-135588095D01*
X286033152Y-135588095D01*
X285847438Y-135526190D01*
X285723628Y-135402380D01*
X285661723Y-135278571D01*
X285599819Y-135030952D01*
X285599819Y-134845238D01*
X285661723Y-134597619D01*
X285723628Y-134473809D01*
X285847438Y-134350000D01*
X286033152Y-134288095D01*
X286156961Y-134288095D01*
X286342676Y-134350000D01*
X286404580Y-134411904D01*
D10*
D11*
X285661723Y-185588095D02*
X285661723Y-184288095D01*
X285971247Y-184288095D01*
X286156961Y-184350000D01*
X286280771Y-184473809D01*
X286342676Y-184597619D01*
X286404580Y-184845238D01*
X286404580Y-185030952D01*
X286342676Y-185278571D01*
X286280771Y-185402380D01*
X286156961Y-185526190D01*
X285971247Y-185588095D01*
X285661723Y-185588095D01*
D10*
D11*
X200434342Y-193785771D02*
X200434342Y-192285771D01*
X200791485Y-192285771D01*
X201005771Y-192357200D01*
X201148628Y-192500057D01*
X201220057Y-192642914D01*
X201291485Y-192928628D01*
X201291485Y-193142914D01*
X201220057Y-193428628D01*
X201148628Y-193571485D01*
X201005771Y-193714342D01*
X200791485Y-193785771D01*
X200434342Y-193785771D01*
X202577200Y-193785771D02*
X202577200Y-193000057D01*
X202505771Y-192857200D01*
X202362914Y-192785771D01*
X202077200Y-192785771D01*
X201934342Y-192857200D01*
X202577200Y-193714342D02*
X202434342Y-193785771D01*
X202077200Y-193785771D01*
X201934342Y-193714342D01*
X201862914Y-193571485D01*
X201862914Y-193428628D01*
X201934342Y-193285771D01*
X202077200Y-193214342D01*
X202434342Y-193214342D01*
X202577200Y-193142914D01*
X203077200Y-192785771D02*
X203648628Y-192785771D01*
X203291485Y-192285771D02*
X203291485Y-193571485D01*
X203362914Y-193714342D01*
X203505771Y-193785771D01*
X203648628Y-193785771D01*
X204720057Y-193714342D02*
X204577200Y-193785771D01*
X204291485Y-193785771D01*
X204148628Y-193714342D01*
X204077200Y-193571485D01*
X204077200Y-193000057D01*
X204148628Y-192857200D01*
X204291485Y-192785771D01*
X204577200Y-192785771D01*
X204720057Y-192857200D01*
X204791485Y-193000057D01*
X204791485Y-193142914D01*
X204077200Y-193285771D01*
X205434342Y-193642914D02*
X205505771Y-193714342D01*
X205434342Y-193785771D01*
X205362914Y-193714342D01*
X205434342Y-193642914D01*
X205434342Y-193785771D01*
X205434342Y-192857200D02*
X205505771Y-192928628D01*
X205434342Y-193000057D01*
X205362914Y-192928628D01*
X205434342Y-192857200D01*
X205434342Y-193000057D01*
X207220057Y-192428628D02*
X207291485Y-192357200D01*
X207434342Y-192285771D01*
X207791485Y-192285771D01*
X207934342Y-192357200D01*
X208005771Y-192428628D01*
X208077200Y-192571485D01*
X208077200Y-192714342D01*
X208005771Y-192928628D01*
X207148628Y-193785771D01*
X208077200Y-193785771D01*
X209005771Y-192285771D02*
X209148628Y-192285771D01*
X209291485Y-192357200D01*
X209362914Y-192428628D01*
X209434342Y-192571485D01*
X209505771Y-192857200D01*
X209505771Y-193214342D01*
X209434342Y-193500057D01*
X209362914Y-193642914D01*
X209291485Y-193714342D01*
X209148628Y-193785771D01*
X209005771Y-193785771D01*
X208862914Y-193714342D01*
X208791485Y-193642914D01*
X208720057Y-193500057D01*
X208648628Y-193214342D01*
X208648628Y-192857200D01*
X208720057Y-192571485D01*
X208791485Y-192428628D01*
X208862914Y-192357200D01*
X209005771Y-192285771D01*
X210077200Y-192428628D02*
X210148628Y-192357200D01*
X210291485Y-192285771D01*
X210648628Y-192285771D01*
X210791485Y-192357200D01*
X210862914Y-192428628D01*
X210934342Y-192571485D01*
X210934342Y-192714342D01*
X210862914Y-192928628D01*
X210005771Y-193785771D01*
X210934342Y-193785771D01*
X212362914Y-193785771D02*
X211505771Y-193785771D01*
X211934342Y-193785771D02*
X211934342Y-192285771D01*
X211791485Y-192500057D01*
X211648628Y-192642914D01*
X211505771Y-192714342D01*
X213005771Y-193214342D02*
X214148628Y-193214342D01*
X215148628Y-192285771D02*
X215291485Y-192285771D01*
X215434342Y-192357200D01*
X215505771Y-192428628D01*
X215577200Y-192571485D01*
X215648628Y-192857200D01*
X215648628Y-193214342D01*
X215577200Y-193500057D01*
X215505771Y-193642914D01*
X215434342Y-193714342D01*
X215291485Y-193785771D01*
X215148628Y-193785771D01*
X215005771Y-193714342D01*
X214934342Y-193642914D01*
X214862914Y-193500057D01*
X214791485Y-193214342D01*
X214791485Y-192857200D01*
X214862914Y-192571485D01*
X214934342Y-192428628D01*
X215005771Y-192357200D01*
X215148628Y-192285771D01*
X216934342Y-192285771D02*
X216648628Y-192285771D01*
X216505771Y-192357200D01*
X216434342Y-192428628D01*
X216291485Y-192642914D01*
X216220057Y-192928628D01*
X216220057Y-193500057D01*
X216291485Y-193642914D01*
X216362914Y-193714342D01*
X216505771Y-193785771D01*
X216791485Y-193785771D01*
X216934342Y-193714342D01*
X217005771Y-193642914D01*
X217077200Y-193500057D01*
X217077200Y-193142914D01*
X217005771Y-193000057D01*
X216934342Y-192928628D01*
X216791485Y-192857200D01*
X216505771Y-192857200D01*
X216362914Y-192928628D01*
X216291485Y-193000057D01*
X216220057Y-193142914D01*
X217720057Y-193214342D02*
X218862914Y-193214342D01*
X219505771Y-192428628D02*
X219577200Y-192357200D01*
X219720057Y-192285771D01*
X220077200Y-192285771D01*
X220220057Y-192357200D01*
X220291485Y-192428628D01*
X220362914Y-192571485D01*
X220362914Y-192714342D01*
X220291485Y-192928628D01*
X219434342Y-193785771D01*
X220362914Y-193785771D01*
X221648628Y-192285771D02*
X221362914Y-192285771D01*
X221220057Y-192357200D01*
X221148628Y-192428628D01*
X221005771Y-192642914D01*
X220934342Y-192928628D01*
X220934342Y-193500057D01*
X221005771Y-193642914D01*
X221077200Y-193714342D01*
X221220057Y-193785771D01*
X221505771Y-193785771D01*
X221648628Y-193714342D01*
X221720057Y-193642914D01*
X221791485Y-193500057D01*
X221791485Y-193142914D01*
X221720057Y-193000057D01*
X221648628Y-192928628D01*
X221505771Y-192857200D01*
X221220057Y-192857200D01*
X221077200Y-192928628D01*
X221005771Y-193000057D01*
X220934342Y-193142914D01*
D10*
D11*
X177002200Y-194507200D02*
X285002200Y-194507200D01*
D10*
D11*
X178434342Y-196585771D02*
X178434342Y-195085771D01*
X179291485Y-196585771D02*
X178648628Y-195728628D01*
X179291485Y-195085771D02*
X178434342Y-195942914D01*
X179934342Y-196585771D02*
X179934342Y-195585771D01*
X179934342Y-195085771D02*
X179862914Y-195157200D01*
X179934342Y-195228628D01*
X180005771Y-195157200D01*
X179934342Y-195085771D01*
X179934342Y-195228628D01*
X181505771Y-196442914D02*
X181434342Y-196514342D01*
X181220057Y-196585771D01*
X181077200Y-196585771D01*
X180862914Y-196514342D01*
X180720057Y-196371485D01*
X180648628Y-196228628D01*
X180577200Y-195942914D01*
X180577200Y-195728628D01*
X180648628Y-195442914D01*
X180720057Y-195300057D01*
X180862914Y-195157200D01*
X181077200Y-195085771D01*
X181220057Y-195085771D01*
X181434342Y-195157200D01*
X181505771Y-195228628D01*
X182791485Y-196585771D02*
X182791485Y-195800057D01*
X182720057Y-195657200D01*
X182577200Y-195585771D01*
X182291485Y-195585771D01*
X182148628Y-195657200D01*
X182791485Y-196514342D02*
X182648628Y-196585771D01*
X182291485Y-196585771D01*
X182148628Y-196514342D01*
X182077200Y-196371485D01*
X182077200Y-196228628D01*
X182148628Y-196085771D01*
X182291485Y-196014342D01*
X182648628Y-196014342D01*
X182791485Y-195942914D01*
X184148628Y-196585771D02*
X184148628Y-195085771D01*
X184148628Y-196514342D02*
X184005771Y-196585771D01*
X183720057Y-196585771D01*
X183577200Y-196514342D01*
X183505771Y-196442914D01*
X183434342Y-196300057D01*
X183434342Y-195871485D01*
X183505771Y-195728628D01*
X183577200Y-195657200D01*
X183720057Y-195585771D01*
X184005771Y-195585771D01*
X184148628Y-195657200D01*
X186005771Y-195800057D02*
X186505771Y-195800057D01*
X186720057Y-196585771D02*
X186005771Y-196585771D01*
X186005771Y-195085771D01*
X186720057Y-195085771D01*
X187362914Y-196442914D02*
X187434342Y-196514342D01*
X187362914Y-196585771D01*
X187291485Y-196514342D01*
X187362914Y-196442914D01*
X187362914Y-196585771D01*
X188077200Y-196585771D02*
X188077200Y-195085771D01*
X188434342Y-195085771D01*
X188648628Y-195157200D01*
X188791485Y-195300057D01*
X188862914Y-195442914D01*
X188934342Y-195728628D01*
X188934342Y-195942914D01*
X188862914Y-196228628D01*
X188791485Y-196371485D01*
X188648628Y-196514342D01*
X188434342Y-196585771D01*
X188077200Y-196585771D01*
X189577200Y-196442914D02*
X189648628Y-196514342D01*
X189577200Y-196585771D01*
X189505771Y-196514342D01*
X189577200Y-196442914D01*
X189577200Y-196585771D01*
X190220057Y-196157200D02*
X190934342Y-196157200D01*
X190077200Y-196585771D02*
X190577200Y-195085771D01*
X191077200Y-196585771D01*
X191577200Y-196442914D02*
X191648628Y-196514342D01*
X191577200Y-196585771D01*
X191505771Y-196514342D01*
X191577200Y-196442914D01*
X191577200Y-196585771D01*
X194577200Y-196585771D02*
X194577200Y-195085771D01*
X194720057Y-196014342D02*
X195148628Y-196585771D01*
X195148628Y-195585771D02*
X194577200Y-196157200D01*
X195791485Y-196585771D02*
X195791485Y-195585771D01*
X195791485Y-195085771D02*
X195720057Y-195157200D01*
X195791485Y-195228628D01*
X195862914Y-195157200D01*
X195791485Y-195085771D01*
X195791485Y-195228628D01*
X197148628Y-196514342D02*
X197005771Y-196585771D01*
X196720057Y-196585771D01*
X196577200Y-196514342D01*
X196505771Y-196442914D01*
X196434342Y-196300057D01*
X196434342Y-195871485D01*
X196505771Y-195728628D01*
X196577200Y-195657200D01*
X196720057Y-195585771D01*
X197005771Y-195585771D01*
X197148628Y-195657200D01*
X198434342Y-196585771D02*
X198434342Y-195800057D01*
X198362914Y-195657200D01*
X198220057Y-195585771D01*
X197934342Y-195585771D01*
X197791485Y-195657200D01*
X198434342Y-196514342D02*
X198291485Y-196585771D01*
X197934342Y-196585771D01*
X197791485Y-196514342D01*
X197720057Y-196371485D01*
X197720057Y-196228628D01*
X197791485Y-196085771D01*
X197934342Y-196014342D01*
X198291485Y-196014342D01*
X198434342Y-195942914D01*
X199791485Y-196585771D02*
X199791485Y-195085771D01*
X199791485Y-196514342D02*
X199648628Y-196585771D01*
X199362914Y-196585771D01*
X199220057Y-196514342D01*
X199148628Y-196442914D01*
X199077200Y-196300057D01*
X199077200Y-195871485D01*
X199148628Y-195728628D01*
X199220057Y-195657200D01*
X199362914Y-195585771D01*
X199648628Y-195585771D01*
X199791485Y-195657200D01*
X202362914Y-195085771D02*
X201648628Y-195085771D01*
X201577200Y-195800057D01*
X201648628Y-195728628D01*
X201791485Y-195657200D01*
X202148628Y-195657200D01*
X202291485Y-195728628D01*
X202362914Y-195800057D01*
X202434342Y-195942914D01*
X202434342Y-196300057D01*
X202362914Y-196442914D01*
X202291485Y-196514342D01*
X202148628Y-196585771D01*
X201791485Y-196585771D01*
X201648628Y-196514342D01*
X201577200Y-196442914D01*
X203077200Y-196442914D02*
X203148628Y-196514342D01*
X203077200Y-196585771D01*
X203005771Y-196514342D01*
X203077200Y-196442914D01*
X203077200Y-196585771D01*
X204577200Y-196585771D02*
X203720057Y-196585771D01*
X204148628Y-196585771D02*
X204148628Y-195085771D01*
X204005771Y-195300057D01*
X203862914Y-195442914D01*
X203720057Y-195514342D01*
X205220057Y-196442914D02*
X205291485Y-196514342D01*
X205220057Y-196585771D01*
X205148628Y-196514342D01*
X205220057Y-196442914D01*
X205220057Y-196585771D01*
X206720057Y-196585771D02*
X205862914Y-196585771D01*
X206291485Y-196585771D02*
X206291485Y-195085771D01*
X206148628Y-195300057D01*
X206005771Y-195442914D01*
X205862914Y-195514342D01*
X207648628Y-195085771D02*
X207791485Y-195085771D01*
X207934342Y-195157200D01*
X208005771Y-195228628D01*
X208077200Y-195371485D01*
X208148628Y-195657200D01*
X208148628Y-196014342D01*
X208077200Y-196300057D01*
X208005771Y-196442914D01*
X207934342Y-196514342D01*
X207791485Y-196585771D01*
X207648628Y-196585771D01*
X207505771Y-196514342D01*
X207434342Y-196442914D01*
X207362914Y-196300057D01*
X207291485Y-196014342D01*
X207291485Y-195657200D01*
X207362914Y-195371485D01*
X207434342Y-195228628D01*
X207505771Y-195157200D01*
X207648628Y-195085771D01*
X208791485Y-196014342D02*
X209934342Y-196014342D01*
X210862914Y-195728628D02*
X210720057Y-195657200D01*
X210648628Y-195585771D01*
X210577200Y-195442914D01*
X210577200Y-195371485D01*
X210648628Y-195228628D01*
X210720057Y-195157200D01*
X210862914Y-195085771D01*
X211148628Y-195085771D01*
X211291485Y-195157200D01*
X211362914Y-195228628D01*
X211434342Y-195371485D01*
X211434342Y-195442914D01*
X211362914Y-195585771D01*
X211291485Y-195657200D01*
X211148628Y-195728628D01*
X210862914Y-195728628D01*
X210720057Y-195800057D01*
X210648628Y-195871485D01*
X210577200Y-196014342D01*
X210577200Y-196300057D01*
X210648628Y-196442914D01*
X210720057Y-196514342D01*
X210862914Y-196585771D01*
X211148628Y-196585771D01*
X211291485Y-196514342D01*
X211362914Y-196442914D01*
X211434342Y-196300057D01*
X211434342Y-196014342D01*
X211362914Y-195871485D01*
X211291485Y-195800057D01*
X211148628Y-195728628D01*
X212291485Y-195728628D02*
X212148628Y-195657200D01*
X212077200Y-195585771D01*
X212005771Y-195442914D01*
X212005771Y-195371485D01*
X212077200Y-195228628D01*
X212148628Y-195157200D01*
X212291485Y-195085771D01*
X212577200Y-195085771D01*
X212720057Y-195157200D01*
X212791485Y-195228628D01*
X212862914Y-195371485D01*
X212862914Y-195442914D01*
X212791485Y-195585771D01*
X212720057Y-195657200D01*
X212577200Y-195728628D01*
X212291485Y-195728628D01*
X212148628Y-195800057D01*
X212077200Y-195871485D01*
X212005771Y-196014342D01*
X212005771Y-196300057D01*
X212077200Y-196442914D01*
X212148628Y-196514342D01*
X212291485Y-196585771D01*
X212577200Y-196585771D01*
X212720057Y-196514342D01*
X212791485Y-196442914D01*
X212862914Y-196300057D01*
X212862914Y-196014342D01*
X212791485Y-195871485D01*
X212720057Y-195800057D01*
X212577200Y-195728628D01*
X214148628Y-196585771D02*
X214148628Y-195800057D01*
X214077200Y-195657200D01*
X213934342Y-195585771D01*
X213648628Y-195585771D01*
X213505771Y-195657200D01*
X214148628Y-196514342D02*
X214005771Y-196585771D01*
X213648628Y-196585771D01*
X213505771Y-196514342D01*
X213434342Y-196371485D01*
X213434342Y-196228628D01*
X213505771Y-196085771D01*
X213648628Y-196014342D01*
X214005771Y-196014342D01*
X214148628Y-195942914D01*
X215648628Y-196585771D02*
X214791485Y-196585771D01*
X215220057Y-196585771D02*
X215220057Y-195085771D01*
X215077200Y-195300057D01*
X214934342Y-195442914D01*
X214791485Y-195514342D01*
X216934342Y-196585771D02*
X216934342Y-195085771D01*
X216934342Y-196514342D02*
X216791485Y-196585771D01*
X216505771Y-196585771D01*
X216362914Y-196514342D01*
X216291485Y-196442914D01*
X216220057Y-196300057D01*
X216220057Y-195871485D01*
X216291485Y-195728628D01*
X216362914Y-195657200D01*
X216505771Y-195585771D01*
X216791485Y-195585771D01*
X216934342Y-195657200D01*
X218291485Y-195085771D02*
X218005771Y-195085771D01*
X217862914Y-195157200D01*
X217791485Y-195228628D01*
X217648628Y-195442914D01*
X217577200Y-195728628D01*
X217577200Y-196300057D01*
X217648628Y-196442914D01*
X217720057Y-196514342D01*
X217862914Y-196585771D01*
X218148628Y-196585771D01*
X218291485Y-196514342D01*
X218362914Y-196442914D01*
X218434342Y-196300057D01*
X218434342Y-195942914D01*
X218362914Y-195800057D01*
X218291485Y-195728628D01*
X218148628Y-195657200D01*
X217862914Y-195657200D01*
X217720057Y-195728628D01*
X217648628Y-195800057D01*
X217577200Y-195942914D01*
X219862914Y-196585771D02*
X219005771Y-196585771D01*
X219434342Y-196585771D02*
X219434342Y-195085771D01*
X219291485Y-195300057D01*
X219148628Y-195442914D01*
X219005771Y-195514342D01*
X221148628Y-196585771D02*
X221148628Y-195085771D01*
X221148628Y-196514342D02*
X221005771Y-196585771D01*
X220720057Y-196585771D01*
X220577200Y-196514342D01*
X220505771Y-196442914D01*
X220434342Y-196300057D01*
X220434342Y-195871485D01*
X220505771Y-195728628D01*
X220577200Y-195657200D01*
X220720057Y-195585771D01*
X221005771Y-195585771D01*
X221148628Y-195657200D01*
X222577200Y-195085771D02*
X221862914Y-195085771D01*
X221791485Y-195800057D01*
X221862914Y-195728628D01*
X222005771Y-195657200D01*
X222362914Y-195657200D01*
X222505771Y-195728628D01*
X222577200Y-195800057D01*
X222648628Y-195942914D01*
X222648628Y-196300057D01*
X222577200Y-196442914D01*
X222505771Y-196514342D01*
X222362914Y-196585771D01*
X222005771Y-196585771D01*
X221862914Y-196514342D01*
X221791485Y-196442914D01*
X223505771Y-195728628D02*
X223362914Y-195657200D01*
X223291485Y-195585771D01*
X223220057Y-195442914D01*
X223220057Y-195371485D01*
X223291485Y-195228628D01*
X223362914Y-195157200D01*
X223505771Y-195085771D01*
X223791485Y-195085771D01*
X223934342Y-195157200D01*
X224005771Y-195228628D01*
X224077200Y-195371485D01*
X224077200Y-195442914D01*
X224005771Y-195585771D01*
X223934342Y-195657200D01*
X223791485Y-195728628D01*
X223505771Y-195728628D01*
X223362914Y-195800057D01*
X223291485Y-195871485D01*
X223220057Y-196014342D01*
X223220057Y-196300057D01*
X223291485Y-196442914D01*
X223362914Y-196514342D01*
X223505771Y-196585771D01*
X223791485Y-196585771D01*
X223934342Y-196514342D01*
X224005771Y-196442914D01*
X224077200Y-196300057D01*
X224077200Y-196014342D01*
X224005771Y-195871485D01*
X223934342Y-195800057D01*
X223791485Y-195728628D01*
X224362914Y-194677200D02*
X225791485Y-194677200D01*
X224934342Y-195728628D02*
X224791485Y-195657200D01*
X224720057Y-195585771D01*
X224648628Y-195442914D01*
X224648628Y-195371485D01*
X224720057Y-195228628D01*
X224791485Y-195157200D01*
X224934342Y-195085771D01*
X225220057Y-195085771D01*
X225362914Y-195157200D01*
X225434342Y-195228628D01*
X225505771Y-195371485D01*
X225505771Y-195442914D01*
X225434342Y-195585771D01*
X225362914Y-195657200D01*
X225220057Y-195728628D01*
X224934342Y-195728628D01*
X224791485Y-195800057D01*
X224720057Y-195871485D01*
X224648628Y-196014342D01*
X224648628Y-196300057D01*
X224720057Y-196442914D01*
X224791485Y-196514342D01*
X224934342Y-196585771D01*
X225220057Y-196585771D01*
X225362914Y-196514342D01*
X225434342Y-196442914D01*
X225505771Y-196300057D01*
X225505771Y-196014342D01*
X225434342Y-195871485D01*
X225362914Y-195800057D01*
X225220057Y-195728628D01*
X225791485Y-194677200D02*
X227220057Y-194677200D01*
X226362914Y-195728628D02*
X226220057Y-195657200D01*
X226148628Y-195585771D01*
X226077199Y-195442914D01*
X226077199Y-195371485D01*
X226148628Y-195228628D01*
X226220057Y-195157200D01*
X226362914Y-195085771D01*
X226648628Y-195085771D01*
X226791485Y-195157200D01*
X226862914Y-195228628D01*
X226934342Y-195371485D01*
X226934342Y-195442914D01*
X226862914Y-195585771D01*
X226791485Y-195657200D01*
X226648628Y-195728628D01*
X226362914Y-195728628D01*
X226220057Y-195800057D01*
X226148628Y-195871485D01*
X226077199Y-196014342D01*
X226077199Y-196300057D01*
X226148628Y-196442914D01*
X226220057Y-196514342D01*
X226362914Y-196585771D01*
X226648628Y-196585771D01*
X226791485Y-196514342D01*
X226862914Y-196442914D01*
X226934342Y-196300057D01*
X226934342Y-196014342D01*
X226862914Y-195871485D01*
X226791485Y-195800057D01*
X226648628Y-195728628D01*
X228220057Y-195585771D02*
X228220057Y-196585771D01*
X227577199Y-195585771D02*
X227577199Y-196371485D01*
X227648628Y-196514342D01*
X227791485Y-196585771D01*
X228005771Y-196585771D01*
X228148628Y-196514342D01*
X228220057Y-196442914D01*
X228934342Y-196585771D02*
X228934342Y-195085771D01*
X228934342Y-195657200D02*
X229077199Y-195585771D01*
X229362914Y-195585771D01*
X229505771Y-195657200D01*
X229577199Y-195728628D01*
X229648628Y-195871485D01*
X229648628Y-196300057D01*
X229577199Y-196442914D01*
X229505771Y-196514342D01*
X229362914Y-196585771D01*
X229077199Y-196585771D01*
X228934342Y-196514342D01*
X230934342Y-195585771D02*
X230934342Y-196585771D01*
X230291485Y-195585771D02*
X230291485Y-196371485D01*
X230362914Y-196514342D01*
X230505771Y-196585771D01*
X230720057Y-196585771D01*
X230862914Y-196514342D01*
X230934342Y-196442914D01*
X231648628Y-195585771D02*
X231648628Y-196585771D01*
X231648628Y-195728628D02*
X231720057Y-195657200D01*
X231862914Y-195585771D01*
X232077199Y-195585771D01*
X232220057Y-195657200D01*
X232291485Y-195800057D01*
X232291485Y-196585771D01*
X232791485Y-195585771D02*
X233362914Y-195585771D01*
X233005771Y-195085771D02*
X233005771Y-196371485D01*
X233077199Y-196514342D01*
X233220057Y-196585771D01*
X233362914Y-196585771D01*
X234505771Y-195585771D02*
X234505771Y-196585771D01*
X233862914Y-195585771D02*
X233862914Y-196371485D01*
X233934342Y-196514342D01*
X234077200Y-196585771D01*
X234291485Y-196585771D01*
X234434342Y-196514342D01*
X234505771Y-196442914D01*
X235148628Y-195228628D02*
X235220057Y-195157200D01*
X235362914Y-195085771D01*
X235720057Y-195085771D01*
X235862914Y-195157200D01*
X235934342Y-195228628D01*
X236005771Y-195371485D01*
X236005771Y-195514342D01*
X235934342Y-195728628D01*
X235077200Y-196585771D01*
X236005771Y-196585771D01*
X236934342Y-195085771D02*
X237077199Y-195085771D01*
X237220057Y-195157200D01*
X237291485Y-195228628D01*
X237362914Y-195371485D01*
X237434342Y-195657200D01*
X237434342Y-196014342D01*
X237362914Y-196300057D01*
X237291485Y-196442914D01*
X237220057Y-196514342D01*
X237077199Y-196585771D01*
X236934342Y-196585771D01*
X236791485Y-196514342D01*
X236720057Y-196442914D01*
X236648628Y-196300057D01*
X236577199Y-196014342D01*
X236577199Y-195657200D01*
X236648628Y-195371485D01*
X236720057Y-195228628D01*
X236791485Y-195157200D01*
X236934342Y-195085771D01*
X238077199Y-196442914D02*
X238148628Y-196514342D01*
X238077199Y-196585771D01*
X238005771Y-196514342D01*
X238077199Y-196442914D01*
X238077199Y-196585771D01*
X239077199Y-195085771D02*
X239220057Y-195085771D01*
X239362914Y-195157200D01*
X239434342Y-195228628D01*
X239505771Y-195371485D01*
X239577199Y-195657200D01*
X239577199Y-196014342D01*
X239505771Y-196300057D01*
X239434342Y-196442914D01*
X239362914Y-196514342D01*
X239220057Y-196585771D01*
X239077199Y-196585771D01*
X238934342Y-196514342D01*
X238862914Y-196442914D01*
X238791485Y-196300057D01*
X238720057Y-196014342D01*
X238720057Y-195657200D01*
X238791485Y-195371485D01*
X238862914Y-195228628D01*
X238934342Y-195157200D01*
X239077199Y-195085771D01*
X240862914Y-195585771D02*
X240862914Y-196585771D01*
X240505771Y-195014342D02*
X240148628Y-196085771D01*
X241077199Y-196085771D01*
X241648628Y-196442914D02*
X241720057Y-196514342D01*
X241648628Y-196585771D01*
X241577199Y-196514342D01*
X241648628Y-196442914D01*
X241648628Y-196585771D01*
X243148628Y-196585771D02*
X242291485Y-196585771D01*
X242720057Y-196585771D02*
X242720057Y-195085771D01*
X242577199Y-195300057D01*
X242434342Y-195442914D01*
X242291485Y-195514342D01*
D10*
D11*
X177002200Y-191507200D02*
X285002200Y-191507200D01*
D10*
D12*
X264411485Y-193785771D02*
X263911485Y-193071485D01*
X263554342Y-193785771D02*
X263554342Y-192285771D01*
X264125771Y-192285771D01*
X264268628Y-192357200D01*
X264340057Y-192428628D01*
X264411485Y-192571485D01*
X264411485Y-192785771D01*
X264340057Y-192928628D01*
X264268628Y-193000057D01*
X264125771Y-193071485D01*
X263554342Y-193071485D01*
X265625771Y-193714342D02*
X265482914Y-193785771D01*
X265197200Y-193785771D01*
X265054342Y-193714342D01*
X264982914Y-193571485D01*
X264982914Y-193000057D01*
X265054342Y-192857200D01*
X265197200Y-192785771D01*
X265482914Y-192785771D01*
X265625771Y-192857200D01*
X265697200Y-193000057D01*
X265697200Y-193142914D01*
X264982914Y-193285771D01*
X266197200Y-192785771D02*
X266554342Y-193785771D01*
X266911485Y-192785771D01*
X267482914Y-193642914D02*
X267554342Y-193714342D01*
X267482914Y-193785771D01*
X267411485Y-193714342D01*
X267482914Y-193642914D01*
X267482914Y-193785771D01*
X267482914Y-192857200D02*
X267554342Y-192928628D01*
X267482914Y-193000057D01*
X267411485Y-192928628D01*
X267482914Y-192857200D01*
X267482914Y-193000057D01*
X269840057Y-193000057D02*
X270054342Y-193071485D01*
X270125771Y-193142914D01*
X270197200Y-193285771D01*
X270197200Y-193500057D01*
X270125771Y-193642914D01*
X270054342Y-193714342D01*
X269911485Y-193785771D01*
X269340057Y-193785771D01*
X269340057Y-192285771D01*
X269840057Y-192285771D01*
X269982914Y-192357200D01*
X270054342Y-192428628D01*
X270125771Y-192571485D01*
X270125771Y-192714342D01*
X270054342Y-192857200D01*
X269982914Y-192928628D01*
X269840057Y-193000057D01*
X269340057Y-193000057D01*
D10*
D11*
X178362914Y-193714342D02*
X178577200Y-193785771D01*
X178934342Y-193785771D01*
X179077200Y-193714342D01*
X179148628Y-193642914D01*
X179220057Y-193500057D01*
X179220057Y-193357200D01*
X179148628Y-193214342D01*
X179077200Y-193142914D01*
X178934342Y-193071485D01*
X178648628Y-193000057D01*
X178505771Y-192928628D01*
X178434342Y-192857200D01*
X178362914Y-192714342D01*
X178362914Y-192571485D01*
X178434342Y-192428628D01*
X178505771Y-192357200D01*
X178648628Y-192285771D01*
X179005771Y-192285771D01*
X179220057Y-192357200D01*
X179862914Y-193785771D02*
X179862914Y-192785771D01*
X179862914Y-192285771D02*
X179791485Y-192357200D01*
X179862914Y-192428628D01*
X179934342Y-192357200D01*
X179862914Y-192285771D01*
X179862914Y-192428628D01*
X180434342Y-192785771D02*
X181220057Y-192785771D01*
X180434342Y-193785771D01*
X181220057Y-193785771D01*
X182362914Y-193714342D02*
X182220057Y-193785771D01*
X181934342Y-193785771D01*
X181791485Y-193714342D01*
X181720057Y-193571485D01*
X181720057Y-193000057D01*
X181791485Y-192857200D01*
X181934342Y-192785771D01*
X182220057Y-192785771D01*
X182362914Y-192857200D01*
X182434342Y-193000057D01*
X182434342Y-193142914D01*
X181720057Y-193285771D01*
X183077200Y-193642914D02*
X183148628Y-193714342D01*
X183077200Y-193785771D01*
X183005771Y-193714342D01*
X183077200Y-193642914D01*
X183077200Y-193785771D01*
X183077200Y-192857200D02*
X183148628Y-192928628D01*
X183077200Y-193000057D01*
X183005771Y-192928628D01*
X183077200Y-192857200D01*
X183077200Y-193000057D01*
X184862914Y-193357200D02*
X185577200Y-193357200D01*
X184720057Y-193785771D02*
X185220057Y-192285771D01*
X185720057Y-193785771D01*
X186862914Y-192785771D02*
X186862914Y-193785771D01*
X186505771Y-192214342D02*
X186148628Y-193285771D01*
X187077200Y-193285771D01*
D10*
D11*
X263434342Y-196585771D02*
X263434342Y-195085771D01*
X264791485Y-196585771D02*
X264791485Y-195085771D01*
X264791485Y-196514342D02*
X264648628Y-196585771D01*
X264362914Y-196585771D01*
X264220057Y-196514342D01*
X264148628Y-196442914D01*
X264077200Y-196300057D01*
X264077200Y-195871485D01*
X264148628Y-195728628D01*
X264220057Y-195657200D01*
X264362914Y-195585771D01*
X264648628Y-195585771D01*
X264791485Y-195657200D01*
X265505771Y-196442914D02*
X265577200Y-196514342D01*
X265505771Y-196585771D01*
X265434342Y-196514342D01*
X265505771Y-196442914D01*
X265505771Y-196585771D01*
X265505771Y-195657200D02*
X265577200Y-195728628D01*
X265505771Y-195800057D01*
X265434342Y-195728628D01*
X265505771Y-195657200D01*
X265505771Y-195800057D01*
X268148628Y-196585771D02*
X267291485Y-196585771D01*
X267720057Y-196585771D02*
X267720057Y-195085771D01*
X267577200Y-195300057D01*
X267434342Y-195442914D01*
X267291485Y-195514342D01*
X269862914Y-195014342D02*
X268577200Y-196942914D01*
X271148628Y-196585771D02*
X270291485Y-196585771D01*
X270720057Y-196585771D02*
X270720057Y-195085771D01*
X270577200Y-195300057D01*
X270434342Y-195442914D01*
X270291485Y-195514342D01*
D10*
D11*
X177002200Y-187507200D02*
X285002200Y-187507200D01*
D10*
D13*
X178714580Y-188211961D02*
X179857438Y-188211961D01*
X179036009Y-190211961D02*
X179286009Y-188211961D01*
X180274104Y-190211961D02*
X180440771Y-188878628D01*
X180524104Y-188211961D02*
X180416961Y-188307200D01*
X180500295Y-188402438D01*
X180607438Y-188307200D01*
X180524104Y-188211961D01*
X180500295Y-188402438D01*
X181107438Y-188878628D02*
X181869342Y-188878628D01*
X181476485Y-188211961D02*
X181262200Y-189926247D01*
X181333628Y-190116723D01*
X181512200Y-190211961D01*
X181702676Y-190211961D01*
X182655057Y-190211961D02*
X182476485Y-190116723D01*
X182405057Y-189926247D01*
X182619342Y-188211961D01*
X184190771Y-190116723D02*
X183988390Y-190211961D01*
X183607438Y-190211961D01*
X183428866Y-190116723D01*
X183357438Y-189926247D01*
X183452676Y-189164342D01*
X183571723Y-188973866D01*
X183774104Y-188878628D01*
X184155057Y-188878628D01*
X184333628Y-188973866D01*
X184405057Y-189164342D01*
X184381247Y-189354819D01*
X183405057Y-189545295D01*
X185155057Y-190021485D02*
X185238390Y-190116723D01*
X185131247Y-190211961D01*
X185047914Y-190116723D01*
X185155057Y-190021485D01*
X185131247Y-190211961D01*
X185286009Y-188973866D02*
X185369342Y-189069104D01*
X185262200Y-189164342D01*
X185178866Y-189069104D01*
X185286009Y-188973866D01*
X185262200Y-189164342D01*
X187607438Y-190211961D02*
X187857438Y-188211961D01*
X188619342Y-188211961D01*
X188797914Y-188307200D01*
X188881247Y-188402438D01*
X188952676Y-188592914D01*
X188916961Y-188878628D01*
X188797914Y-189069104D01*
X188690771Y-189164342D01*
X188488390Y-189259580D01*
X187726485Y-189259580D01*
X189893152Y-190211961D02*
X189714580Y-190116723D01*
X189631247Y-190021485D01*
X189559819Y-189831009D01*
X189631247Y-189259580D01*
X189750295Y-189069104D01*
X189857438Y-188973866D01*
X190059819Y-188878628D01*
X190345533Y-188878628D01*
X190524104Y-188973866D01*
X190607438Y-189069104D01*
X190678866Y-189259580D01*
X190607438Y-189831009D01*
X190488390Y-190021485D01*
X190381247Y-190116723D01*
X190178866Y-190211961D01*
X189893152Y-190211961D01*
X191416961Y-190211961D02*
X191583628Y-188878628D01*
X191536009Y-189259580D02*
X191655057Y-189069104D01*
X191762200Y-188973866D01*
X191964580Y-188878628D01*
X192155057Y-188878628D01*
X192536009Y-188878628D02*
X193297914Y-188878628D01*
X192905057Y-188211961D02*
X192690771Y-189926247D01*
X192762200Y-190116723D01*
X192940771Y-190211961D01*
X193131247Y-190211961D01*
X194655057Y-190211961D02*
X194786009Y-189164342D01*
X194714580Y-188973866D01*
X194536009Y-188878628D01*
X194155057Y-188878628D01*
X193952676Y-188973866D01*
X194666961Y-190116723D02*
X194464580Y-190211961D01*
X193988390Y-190211961D01*
X193809819Y-190116723D01*
X193738390Y-189926247D01*
X193762200Y-189735771D01*
X193881247Y-189545295D01*
X194083628Y-189450057D01*
X194559819Y-189450057D01*
X194762200Y-189354819D01*
X195893152Y-190211961D02*
X195714580Y-190116723D01*
X195643152Y-189926247D01*
X195857438Y-188211961D01*
X199464580Y-188307200D02*
X199286009Y-188211961D01*
X199000295Y-188211961D01*
X198702676Y-188307200D01*
X198488390Y-188497676D01*
X198369342Y-188688152D01*
X198226485Y-189069104D01*
X198190771Y-189354819D01*
X198238390Y-189735771D01*
X198309819Y-189926247D01*
X198476485Y-190116723D01*
X198750295Y-190211961D01*
X198940771Y-190211961D01*
X199238390Y-190116723D01*
X199345533Y-190021485D01*
X199428866Y-189354819D01*
X199047914Y-189354819D01*
X201202676Y-188878628D02*
X201036009Y-190211961D01*
X200345533Y-188878628D02*
X200214580Y-189926247D01*
X200286009Y-190116723D01*
X200464580Y-190211961D01*
X200750295Y-190211961D01*
X200952676Y-190116723D01*
X201059819Y-190021485D01*
X202155057Y-188878628D02*
X201988390Y-190211961D01*
X202131247Y-189069104D02*
X202238390Y-188973866D01*
X202440771Y-188878628D01*
X202726485Y-188878628D01*
X202905057Y-188973866D01*
X202976485Y-189164342D01*
X202845533Y-190211961D01*
X205321723Y-190211961D02*
X205571723Y-188211961D01*
X206059819Y-189640533D01*
X206905057Y-188211961D01*
X206655057Y-190211961D01*
X208464580Y-190211961D02*
X208595533Y-189164342D01*
X208524104Y-188973866D01*
X208345533Y-188878628D01*
X207964580Y-188878628D01*
X207762200Y-188973866D01*
X208476485Y-190116723D02*
X208274104Y-190211961D01*
X207797914Y-190211961D01*
X207619342Y-190116723D01*
X207547914Y-189926247D01*
X207571723Y-189735771D01*
X207690771Y-189545295D01*
X207893152Y-189450057D01*
X208369342Y-189450057D01*
X208571723Y-189354819D01*
X209416961Y-190211961D02*
X209583628Y-188878628D01*
X209666961Y-188211961D02*
X209559819Y-188307200D01*
X209643152Y-188402438D01*
X209750295Y-188307200D01*
X209666961Y-188211961D01*
X209643152Y-188402438D01*
X210536009Y-188878628D02*
X210369342Y-190211961D01*
X210512200Y-189069104D02*
X210619342Y-188973866D01*
X210821723Y-188878628D01*
X211107438Y-188878628D01*
X211286009Y-188973866D01*
X211357438Y-189164342D01*
X211226485Y-190211961D01*
X214500295Y-189164342D02*
X214774104Y-189259580D01*
X214857438Y-189354819D01*
X214928866Y-189545295D01*
X214893152Y-189831009D01*
X214774104Y-190021485D01*
X214666961Y-190116723D01*
X214464580Y-190211961D01*
X213702676Y-190211961D01*
X213952676Y-188211961D01*
X214619342Y-188211961D01*
X214797914Y-188307200D01*
X214881247Y-188402438D01*
X214952676Y-188592914D01*
X214928866Y-188783390D01*
X214809819Y-188973866D01*
X214702676Y-189069104D01*
X214500295Y-189164342D01*
X213833628Y-189164342D01*
X215988390Y-190211961D02*
X215809819Y-190116723D01*
X215726485Y-190021485D01*
X215655057Y-189831009D01*
X215726485Y-189259580D01*
X215845533Y-189069104D01*
X215952676Y-188973866D01*
X216155057Y-188878628D01*
X216440771Y-188878628D01*
X216619342Y-188973866D01*
X216702676Y-189069104D01*
X216774104Y-189259580D01*
X216702676Y-189831009D01*
X216583628Y-190021485D01*
X216476485Y-190116723D01*
X216274104Y-190211961D01*
X215988390Y-190211961D01*
X218369342Y-190211961D02*
X218500295Y-189164342D01*
X218428866Y-188973866D01*
X218250295Y-188878628D01*
X217869342Y-188878628D01*
X217666961Y-188973866D01*
X218381247Y-190116723D02*
X218178866Y-190211961D01*
X217702676Y-190211961D01*
X217524104Y-190116723D01*
X217452676Y-189926247D01*
X217476485Y-189735771D01*
X217595533Y-189545295D01*
X217797914Y-189450057D01*
X218274104Y-189450057D01*
X218476485Y-189354819D01*
X219321723Y-190211961D02*
X219488390Y-188878628D01*
X219440771Y-189259580D02*
X219559819Y-189069104D01*
X219666961Y-188973866D01*
X219869342Y-188878628D01*
X220059819Y-188878628D01*
X221416961Y-190211961D02*
X221666961Y-188211961D01*
X221428866Y-190116723D02*
X221226485Y-190211961D01*
X220845533Y-190211961D01*
X220666961Y-190116723D01*
X220583628Y-190021485D01*
X220512200Y-189831009D01*
X220583628Y-189259580D01*
X220702676Y-189069104D01*
X220809819Y-188973866D01*
X221012200Y-188878628D01*
X221393152Y-188878628D01*
X221571723Y-188973866D01*
D10*
D11*
X178934342Y-185600057D02*
X178434342Y-185600057D01*
X178434342Y-186385771D02*
X178434342Y-184885771D01*
X179148628Y-184885771D01*
X179720057Y-186385771D02*
X179720057Y-185385771D01*
X179720057Y-184885771D02*
X179648628Y-184957200D01*
X179720057Y-185028628D01*
X179791485Y-184957200D01*
X179720057Y-184885771D01*
X179720057Y-185028628D01*
X180648628Y-186385771D02*
X180505771Y-186314342D01*
X180434342Y-186171485D01*
X180434342Y-184885771D01*
X181791485Y-186314342D02*
X181648628Y-186385771D01*
X181362914Y-186385771D01*
X181220057Y-186314342D01*
X181148628Y-186171485D01*
X181148628Y-185600057D01*
X181220057Y-185457200D01*
X181362914Y-185385771D01*
X181648628Y-185385771D01*
X181791485Y-185457200D01*
X181862914Y-185600057D01*
X181862914Y-185742914D01*
X181148628Y-185885771D01*
X182505771Y-186242914D02*
X182577200Y-186314342D01*
X182505771Y-186385771D01*
X182434342Y-186314342D01*
X182505771Y-186242914D01*
X182505771Y-186385771D01*
X182505771Y-185457200D02*
X182577200Y-185528628D01*
X182505771Y-185600057D01*
X182434342Y-185528628D01*
X182505771Y-185457200D01*
X182505771Y-185600057D01*
X184362914Y-185385771D02*
X184362914Y-186885771D01*
X184362914Y-185457200D02*
X184505771Y-185385771D01*
X184791485Y-185385771D01*
X184934342Y-185457200D01*
X185005771Y-185528628D01*
X185077200Y-185671485D01*
X185077200Y-186100057D01*
X185005771Y-186242914D01*
X184934342Y-186314342D01*
X184791485Y-186385771D01*
X184505771Y-186385771D01*
X184362914Y-186314342D01*
X185934342Y-186385771D02*
X185791485Y-186314342D01*
X185720057Y-186242914D01*
X185648628Y-186100057D01*
X185648628Y-185671485D01*
X185720057Y-185528628D01*
X185791485Y-185457200D01*
X185934342Y-185385771D01*
X186148628Y-185385771D01*
X186291485Y-185457200D01*
X186362914Y-185528628D01*
X186434342Y-185671485D01*
X186434342Y-186100057D01*
X186362914Y-186242914D01*
X186291485Y-186314342D01*
X186148628Y-186385771D01*
X185934342Y-186385771D01*
X187077200Y-186385771D02*
X187077200Y-185385771D01*
X187077200Y-185671485D02*
X187148628Y-185528628D01*
X187220057Y-185457200D01*
X187362914Y-185385771D01*
X187505771Y-185385771D01*
X187791485Y-185385771D02*
X188362914Y-185385771D01*
X188005771Y-184885771D02*
X188005771Y-186171485D01*
X188077200Y-186314342D01*
X188220057Y-186385771D01*
X188362914Y-186385771D01*
X189505771Y-186385771D02*
X189505771Y-185600057D01*
X189434342Y-185457200D01*
X189291485Y-185385771D01*
X189005771Y-185385771D01*
X188862914Y-185457200D01*
X189505771Y-186314342D02*
X189362914Y-186385771D01*
X189005771Y-186385771D01*
X188862914Y-186314342D01*
X188791485Y-186171485D01*
X188791485Y-186028628D01*
X188862914Y-185885771D01*
X189005771Y-185814342D01*
X189362914Y-185814342D01*
X189505771Y-185742914D01*
X190434342Y-186385771D02*
X190291485Y-186314342D01*
X190220057Y-186171485D01*
X190220057Y-184885771D01*
X191648628Y-185385771D02*
X191648628Y-186600057D01*
X191577200Y-186742914D01*
X191505771Y-186814342D01*
X191362914Y-186885771D01*
X191148628Y-186885771D01*
X191005771Y-186814342D01*
X191648628Y-186314342D02*
X191505771Y-186385771D01*
X191220057Y-186385771D01*
X191077200Y-186314342D01*
X191005771Y-186242914D01*
X190934342Y-186100057D01*
X190934342Y-185671485D01*
X191005771Y-185528628D01*
X191077200Y-185457200D01*
X191220057Y-185385771D01*
X191505771Y-185385771D01*
X191648628Y-185457200D01*
X193005771Y-185385771D02*
X193005771Y-186385771D01*
X192362914Y-185385771D02*
X192362914Y-186171485D01*
X192434342Y-186314342D01*
X192577200Y-186385771D01*
X192791485Y-186385771D01*
X192934342Y-186314342D01*
X193005771Y-186242914D01*
X193720057Y-185385771D02*
X193720057Y-186385771D01*
X193720057Y-185528628D02*
X193791485Y-185457200D01*
X193934342Y-185385771D01*
X194148628Y-185385771D01*
X194291485Y-185457200D01*
X194362914Y-185600057D01*
X194362914Y-186385771D01*
X195077200Y-186242914D02*
X195148628Y-186314342D01*
X195077200Y-186385771D01*
X195005771Y-186314342D01*
X195077200Y-186242914D01*
X195077200Y-186385771D01*
X195791485Y-186385771D02*
X195791485Y-184885771D01*
X195934342Y-185814342D02*
X196362914Y-186385771D01*
X196362914Y-185385771D02*
X195791485Y-185957200D01*
X197005771Y-186385771D02*
X197005771Y-185385771D01*
X197005771Y-184885771D02*
X196934342Y-184957200D01*
X197005771Y-185028628D01*
X197077200Y-184957200D01*
X197005771Y-184885771D01*
X197005771Y-185028628D01*
X198362914Y-186314342D02*
X198220057Y-186385771D01*
X197934342Y-186385771D01*
X197791485Y-186314342D01*
X197720057Y-186242914D01*
X197648628Y-186100057D01*
X197648628Y-185671485D01*
X197720057Y-185528628D01*
X197791485Y-185457200D01*
X197934342Y-185385771D01*
X198220057Y-185385771D01*
X198362914Y-185457200D01*
X199648628Y-186385771D02*
X199648628Y-185600057D01*
X199577200Y-185457200D01*
X199434342Y-185385771D01*
X199148628Y-185385771D01*
X199005771Y-185457200D01*
X199648628Y-186314342D02*
X199505771Y-186385771D01*
X199148628Y-186385771D01*
X199005771Y-186314342D01*
X198934342Y-186171485D01*
X198934342Y-186028628D01*
X199005771Y-185885771D01*
X199148628Y-185814342D01*
X199505771Y-185814342D01*
X199648628Y-185742914D01*
X201005771Y-186385771D02*
X201005771Y-184885771D01*
X201005771Y-186314342D02*
X200862914Y-186385771D01*
X200577200Y-186385771D01*
X200434342Y-186314342D01*
X200362914Y-186242914D01*
X200291485Y-186100057D01*
X200291485Y-185671485D01*
X200362914Y-185528628D01*
X200434342Y-185457200D01*
X200577200Y-185385771D01*
X200862914Y-185385771D01*
X201005771Y-185457200D01*
X201362914Y-186528628D02*
X202505771Y-186528628D01*
X202862914Y-185385771D02*
X202862914Y-186885771D01*
X202862914Y-185457200D02*
X203005771Y-185385771D01*
X203291485Y-185385771D01*
X203434342Y-185457200D01*
X203505771Y-185528628D01*
X203577200Y-185671485D01*
X203577200Y-186100057D01*
X203505771Y-186242914D01*
X203434342Y-186314342D01*
X203291485Y-186385771D01*
X203005771Y-186385771D01*
X202862914Y-186314342D01*
X204862914Y-186314342D02*
X204720057Y-186385771D01*
X204434342Y-186385771D01*
X204291485Y-186314342D01*
X204220057Y-186242914D01*
X204148628Y-186100057D01*
X204148628Y-185671485D01*
X204220057Y-185528628D01*
X204291485Y-185457200D01*
X204434342Y-185385771D01*
X204720057Y-185385771D01*
X204862914Y-185457200D01*
X205505771Y-186385771D02*
X205505771Y-184885771D01*
X205505771Y-185457200D02*
X205648628Y-185385771D01*
X205934342Y-185385771D01*
X206077200Y-185457200D01*
X206148628Y-185528628D01*
X206220057Y-185671485D01*
X206220057Y-186100057D01*
X206148628Y-186242914D01*
X206077200Y-186314342D01*
X205934342Y-186385771D01*
X205648628Y-186385771D01*
X205505771Y-186314342D01*
D10*
D11*
X177002200Y-181507200D02*
X285002200Y-181507200D01*
D10*
D11*
X178362914Y-183614342D02*
X178577200Y-183685771D01*
X178934342Y-183685771D01*
X179077200Y-183614342D01*
X179148628Y-183542914D01*
X179220057Y-183400057D01*
X179220057Y-183257200D01*
X179148628Y-183114342D01*
X179077200Y-183042914D01*
X178934342Y-182971485D01*
X178648628Y-182900057D01*
X178505771Y-182828628D01*
X178434342Y-182757200D01*
X178362914Y-182614342D01*
X178362914Y-182471485D01*
X178434342Y-182328628D01*
X178505771Y-182257200D01*
X178648628Y-182185771D01*
X179005771Y-182185771D01*
X179220057Y-182257200D01*
X179862914Y-183685771D02*
X179862914Y-182185771D01*
X180505771Y-183685771D02*
X180505771Y-182900057D01*
X180434342Y-182757200D01*
X180291485Y-182685771D01*
X180077200Y-182685771D01*
X179934342Y-182757200D01*
X179862914Y-182828628D01*
X181791485Y-183614342D02*
X181648628Y-183685771D01*
X181362914Y-183685771D01*
X181220057Y-183614342D01*
X181148628Y-183471485D01*
X181148628Y-182900057D01*
X181220057Y-182757200D01*
X181362914Y-182685771D01*
X181648628Y-182685771D01*
X181791485Y-182757200D01*
X181862914Y-182900057D01*
X181862914Y-183042914D01*
X181148628Y-183185771D01*
X183077200Y-183614342D02*
X182934342Y-183685771D01*
X182648628Y-183685771D01*
X182505771Y-183614342D01*
X182434342Y-183471485D01*
X182434342Y-182900057D01*
X182505771Y-182757200D01*
X182648628Y-182685771D01*
X182934342Y-182685771D01*
X183077200Y-182757200D01*
X183148628Y-182900057D01*
X183148628Y-183042914D01*
X182434342Y-183185771D01*
X183577200Y-182685771D02*
X184148628Y-182685771D01*
X183791485Y-182185771D02*
X183791485Y-183471485D01*
X183862914Y-183614342D01*
X184005771Y-183685771D01*
X184148628Y-183685771D01*
X184648628Y-183542914D02*
X184720057Y-183614342D01*
X184648628Y-183685771D01*
X184577200Y-183614342D01*
X184648628Y-183542914D01*
X184648628Y-183685771D01*
X184648628Y-182757200D02*
X184720057Y-182828628D01*
X184648628Y-182900057D01*
X184577200Y-182828628D01*
X184648628Y-182757200D01*
X184648628Y-182900057D01*
D10*
D12*
X178982914Y-179185771D02*
X178982914Y-180257200D01*
X178911485Y-180471485D01*
X178768628Y-180614342D01*
X178554342Y-180685771D01*
X178411485Y-180685771D01*
X180340057Y-180685771D02*
X180340057Y-179900057D01*
X180268628Y-179757200D01*
X180125771Y-179685771D01*
X179840057Y-179685771D01*
X179697200Y-179757200D01*
X180340057Y-180614342D02*
X180197200Y-180685771D01*
X179840057Y-180685771D01*
X179697200Y-180614342D01*
X179625771Y-180471485D01*
X179625771Y-180328628D01*
X179697200Y-180185771D01*
X179840057Y-180114342D01*
X180197200Y-180114342D01*
X180340057Y-180042914D01*
X181697200Y-180614342D02*
X181554342Y-180685771D01*
X181268628Y-180685771D01*
X181125771Y-180614342D01*
X181054342Y-180542914D01*
X180982914Y-180400057D01*
X180982914Y-179971485D01*
X181054342Y-179828628D01*
X181125771Y-179757200D01*
X181268628Y-179685771D01*
X181554342Y-179685771D01*
X181697200Y-179757200D01*
X182554342Y-180685771D02*
X182411485Y-180614342D01*
X182340057Y-180542914D01*
X182268628Y-180400057D01*
X182268628Y-179971485D01*
X182340057Y-179828628D01*
X182411485Y-179757200D01*
X182554342Y-179685771D01*
X182768628Y-179685771D01*
X182911485Y-179757200D01*
X182982914Y-179828628D01*
X183054342Y-179971485D01*
X183054342Y-180400057D01*
X182982914Y-180542914D01*
X182911485Y-180614342D01*
X182768628Y-180685771D01*
X182554342Y-180685771D01*
X183697200Y-180685771D02*
X183697200Y-179185771D01*
X183697200Y-179757200D02*
X183840057Y-179685771D01*
X184125771Y-179685771D01*
X184268628Y-179757200D01*
X184340057Y-179828628D01*
X184411485Y-179971485D01*
X184411485Y-180400057D01*
X184340057Y-180542914D01*
X184268628Y-180614342D01*
X184125771Y-180685771D01*
X183840057Y-180685771D01*
X183697200Y-180614342D01*
X186197200Y-180685771D02*
X186197200Y-179185771D01*
X187054342Y-180685771D02*
X186411485Y-179828628D01*
X187054342Y-179185771D02*
X186197200Y-180042914D01*
X187697200Y-180685771D02*
X187697200Y-179685771D01*
X187697200Y-179185771D02*
X187625771Y-179257200D01*
X187697200Y-179328628D01*
X187768628Y-179257200D01*
X187697200Y-179185771D01*
X187697200Y-179328628D01*
X188625771Y-180685771D02*
X188482914Y-180614342D01*
X188411485Y-180471485D01*
X188411485Y-179185771D01*
X189411485Y-180685771D02*
X189268628Y-180614342D01*
X189197200Y-180471485D01*
X189197200Y-179185771D01*
X190554342Y-180614342D02*
X190411485Y-180685771D01*
X190125771Y-180685771D01*
X189982914Y-180614342D01*
X189911485Y-180471485D01*
X189911485Y-179900057D01*
X189982914Y-179757200D01*
X190125771Y-179685771D01*
X190411485Y-179685771D01*
X190554342Y-179757200D01*
X190625771Y-179900057D01*
X190625771Y-180042914D01*
X189911485Y-180185771D01*
X191482914Y-180685771D02*
X191340057Y-180614342D01*
X191268628Y-180471485D01*
X191268628Y-179185771D01*
X192625771Y-180614342D02*
X192482914Y-180685771D01*
X192197200Y-180685771D01*
X192054342Y-180614342D01*
X191982914Y-180471485D01*
X191982914Y-179900057D01*
X192054342Y-179757200D01*
X192197200Y-179685771D01*
X192482914Y-179685771D01*
X192625771Y-179757200D01*
X192697200Y-179900057D01*
X192697200Y-180042914D01*
X191982914Y-180185771D01*
X193982914Y-180685771D02*
X193982914Y-179900057D01*
X193911485Y-179757200D01*
X193768628Y-179685771D01*
X193482914Y-179685771D01*
X193340057Y-179757200D01*
X193982914Y-180614342D02*
X193840057Y-180685771D01*
X193482914Y-180685771D01*
X193340057Y-180614342D01*
X193268628Y-180471485D01*
X193268628Y-180328628D01*
X193340057Y-180185771D01*
X193482914Y-180114342D01*
X193840057Y-180114342D01*
X193982914Y-180042914D01*
D10*
D11*
X197002200Y-191507200D02*
X197002200Y-194507200D01*
D10*
D11*
X261002200Y-191507200D02*
X261002200Y-198007200D01*
D14*
%TO.C,R13*%
X206851500Y-104096000D02*
X206851500Y-101136000D01*
X208311500Y-104096000D02*
X206851500Y-104096000D01*
X208311500Y-101136000D02*
X208311500Y-104096000D01*
X206851500Y-101136000D02*
X208311500Y-101136000D01*
%TO.C,U4*%
X203835000Y-103807848D02*
X206804848Y-100838000D01*
X206804848Y-100838000D02*
X203835000Y-97868152D01*
X203835000Y-97868152D02*
X200865152Y-100838000D01*
X200865152Y-100838000D02*
X203835000Y-103807848D01*
%TO.C,J5*%
X194840000Y-117878000D02*
X194840000Y-114278000D01*
X188690000Y-117878000D02*
X194840000Y-117878000D01*
X188690000Y-114278000D02*
X188690000Y-117878000D01*
X194840000Y-114278000D02*
X188690000Y-114278000D01*
%TO.C,J10*%
X188236000Y-117878000D02*
X188236000Y-114278000D01*
X182086000Y-117878000D02*
X188236000Y-117878000D01*
X182086000Y-114278000D02*
X182086000Y-117878000D01*
X188236000Y-114278000D02*
X182086000Y-114278000D01*
%TO.C,J4*%
X200384000Y-92180000D02*
X200384000Y-95780000D01*
X206534000Y-92180000D02*
X200384000Y-92180000D01*
X206534000Y-95780000D02*
X206534000Y-92180000D01*
X200384000Y-95780000D02*
X206534000Y-95780000D01*
%TO.C,J3*%
X201444000Y-117878000D02*
X201444000Y-114278000D01*
X195294000Y-117878000D02*
X201444000Y-117878000D01*
X195294000Y-114278000D02*
X195294000Y-117878000D01*
X201444000Y-114278000D02*
X195294000Y-114278000D01*
%TO.C,J1*%
X187982000Y-96034000D02*
X187982000Y-92434000D01*
X181832000Y-96034000D02*
X187982000Y-96034000D01*
X181832000Y-92434000D02*
X181832000Y-96034000D01*
X187982000Y-92434000D02*
X181832000Y-92434000D01*
%TO.C,U2*%
X243873000Y-99803000D02*
X243873000Y-125103000D01*
X225773000Y-99803000D02*
X243873000Y-99803000D01*
X225773000Y-125103000D02*
X225773000Y-99803000D01*
X243873000Y-125103000D02*
X225773000Y-125103000D01*
%TO.C,TP6*%
X206736000Y-104648000D02*
G75*
G03*
X206736000Y-104648000I-1250000J0D01*
G01*
%TO.C,TP5*%
X204069000Y-104902000D02*
G75*
G03*
X204069000Y-104902000I-1250000J0D01*
G01*
%TO.C,TP4*%
X201910000Y-103251000D02*
G75*
G03*
X201910000Y-103251000I-1250000J0D01*
G01*
%TO.C,C12*%
X188480000Y-96556000D02*
X191880000Y-96556000D01*
X188480000Y-98516000D02*
X188480000Y-96556000D01*
X191880000Y-98516000D02*
X188480000Y-98516000D01*
X191880000Y-96556000D02*
X191880000Y-98516000D01*
%TO.C,Q4*%
X184101000Y-100175000D02*
X184101000Y-96675000D01*
X187501000Y-100175000D02*
X184101000Y-100175000D01*
X187501000Y-96675000D02*
X187501000Y-100175000D01*
X184101000Y-96675000D02*
X187501000Y-96675000D01*
%TO.C,C9*%
X219632000Y-99151000D02*
X216232000Y-99151000D01*
X219632000Y-97191000D02*
X219632000Y-99151000D01*
X216232000Y-97191000D02*
X219632000Y-97191000D01*
X216232000Y-99151000D02*
X216232000Y-97191000D01*
%TO.C,C8*%
X197407000Y-105628000D02*
X194007000Y-105628000D01*
X197407000Y-103668000D02*
X197407000Y-105628000D01*
X194007000Y-103668000D02*
X197407000Y-103668000D01*
X194007000Y-105628000D02*
X194007000Y-103668000D01*
%TO.C,C3*%
X206720366Y-100537295D02*
X204316203Y-98133132D01*
X208106295Y-99151366D02*
X206720366Y-100537295D01*
X205702132Y-96747203D02*
X208106295Y-99151366D01*
X204316203Y-98133132D02*
X205702132Y-96747203D01*
%TO.C,C11*%
X240656000Y-94820000D02*
X240656000Y-98220000D01*
X238896000Y-94820000D02*
X240656000Y-94820000D01*
X238896000Y-98220000D02*
X238896000Y-94820000D01*
X240656000Y-98220000D02*
X238896000Y-98220000D01*
%TO.C,SW1*%
X208958000Y-117178000D02*
X208958000Y-108478000D01*
X208958000Y-117178000D02*
X215658000Y-117178000D01*
X215658000Y-117178000D02*
X215658000Y-108478000D01*
X215658000Y-108478000D02*
X208958000Y-108478000D01*
%TO.C,R6*%
X218904000Y-116808000D02*
X215944000Y-116808000D01*
X218904000Y-115348000D02*
X218904000Y-116808000D01*
X215944000Y-115348000D02*
X218904000Y-115348000D01*
X215944000Y-116808000D02*
X215944000Y-115348000D01*
%TO.C,Q3*%
X198854000Y-110822000D02*
X198854000Y-114222000D01*
X198854000Y-114222000D02*
X195354000Y-114222000D01*
X195354000Y-114222000D02*
X195354000Y-110822000D01*
X195354000Y-110822000D02*
X198854000Y-110822000D01*
%TO.C,Q2*%
X192250000Y-110822000D02*
X192250000Y-114222000D01*
X192250000Y-114222000D02*
X188750000Y-114222000D01*
X188750000Y-114222000D02*
X188750000Y-110822000D01*
X188750000Y-110822000D02*
X192250000Y-110822000D01*
%TO.C,Q1*%
X186154000Y-110822000D02*
X186154000Y-114222000D01*
X186154000Y-114222000D02*
X182654000Y-114222000D01*
X182654000Y-114222000D02*
X182654000Y-110822000D01*
X182654000Y-110822000D02*
X186154000Y-110822000D01*
%TO.C,SW2*%
X208958000Y-107272000D02*
X208958000Y-98572000D01*
X208958000Y-107272000D02*
X215658000Y-107272000D01*
X215658000Y-107272000D02*
X215658000Y-98572000D01*
X215658000Y-98572000D02*
X208958000Y-98572000D01*
%TO.C,J2*%
X215170000Y-92446000D02*
X215170000Y-96646000D01*
X215170000Y-96646000D02*
X226670000Y-96646000D01*
X226670000Y-96646000D02*
X226670000Y-92446000D01*
X226670000Y-92446000D02*
X215170000Y-92446000D01*
%TO.C,U3*%
X197507000Y-109596000D02*
X193907000Y-109596000D01*
X197507000Y-105796000D02*
X197507000Y-109596000D01*
X193907000Y-105796000D02*
X197507000Y-105796000D01*
X193907000Y-109596000D02*
X193907000Y-105796000D01*
%TO.C,C2*%
X242788000Y-94820000D02*
X242788000Y-98220000D01*
X240828000Y-94820000D02*
X242788000Y-94820000D01*
X240828000Y-98220000D02*
X240828000Y-94820000D01*
X242788000Y-98220000D02*
X240828000Y-98220000D01*
%TO.C,J9*%
X214792000Y-92446000D02*
X207042000Y-92446000D01*
X214792000Y-96646000D02*
X214792000Y-92446000D01*
X207042000Y-96646000D02*
X214792000Y-96646000D01*
X207042000Y-92446000D02*
X207042000Y-96646000D01*
%TO.C,H2*%
X224000000Y-109741900D02*
G75*
G03*
X224000000Y-109741900I-2750000J0D01*
G01*
%TO.C,R11*%
X187674000Y-111042000D02*
X187674000Y-114002000D01*
X186214000Y-111042000D02*
X187674000Y-111042000D01*
X186214000Y-114002000D02*
X186214000Y-111042000D01*
X187674000Y-114002000D02*
X186214000Y-114002000D01*
%TO.C,R10*%
X193770000Y-111042000D02*
X193770000Y-114002000D01*
X192310000Y-111042000D02*
X193770000Y-111042000D01*
X192310000Y-114002000D02*
X192310000Y-111042000D01*
X193770000Y-114002000D02*
X192310000Y-114002000D01*
%TO.C,R8*%
X200374000Y-111042000D02*
X200374000Y-114002000D01*
X198914000Y-111042000D02*
X200374000Y-111042000D01*
X198914000Y-114002000D02*
X198914000Y-111042000D01*
X200374000Y-114002000D02*
X198914000Y-114002000D01*
%TO.C,H1*%
X200250000Y-100458200D02*
G75*
G03*
X200250000Y-100458200I-2750000J0D01*
G01*
%TO.C,U1*%
X187984000Y-101236000D02*
X187984000Y-107596000D01*
X191484000Y-101236000D02*
X187984000Y-101236000D01*
X191484000Y-107596000D02*
X191484000Y-101236000D01*
X187984000Y-107596000D02*
X191484000Y-107596000D01*
%TO.C,R4*%
X186004000Y-108316000D02*
X186004000Y-105016000D01*
X187464000Y-108316000D02*
X186004000Y-108316000D01*
X187464000Y-105016000D02*
X187464000Y-108316000D01*
X186004000Y-105016000D02*
X187464000Y-105016000D01*
%TO.C,R2*%
X186004000Y-104816000D02*
X186004000Y-101516000D01*
X187464000Y-104816000D02*
X186004000Y-104816000D01*
X187464000Y-101516000D02*
X187464000Y-104816000D01*
X186004000Y-101516000D02*
X187464000Y-101516000D01*
%TO.C,R1*%
X191754000Y-104566000D02*
X191754000Y-101266000D01*
X193214000Y-104566000D02*
X191754000Y-104566000D01*
X193214000Y-101266000D02*
X193214000Y-104566000D01*
X191754000Y-101266000D02*
X193214000Y-101266000D01*
%TO.C,L1*%
X188658000Y-98622000D02*
X193358000Y-98622000D01*
X188658000Y-101022000D02*
X188658000Y-98622000D01*
X193358000Y-101022000D02*
X188658000Y-101022000D01*
X193358000Y-98622000D02*
X193358000Y-101022000D01*
%TO.C,C7*%
X185802000Y-108770000D02*
X189102000Y-108770000D01*
X185802000Y-110230000D02*
X185802000Y-108770000D01*
X189102000Y-110230000D02*
X185802000Y-110230000D01*
X189102000Y-108770000D02*
X189102000Y-110230000D01*
%TO.C,C5*%
X183778000Y-105078000D02*
X183778000Y-101678000D01*
X185538000Y-105078000D02*
X183778000Y-105078000D01*
X185538000Y-101678000D02*
X185538000Y-105078000D01*
X183778000Y-101678000D02*
X185538000Y-101678000D01*
%TO.C,C1*%
X190110000Y-92788000D02*
X190110000Y-96188000D01*
X188350000Y-92788000D02*
X190110000Y-92788000D01*
X188350000Y-96188000D02*
X188350000Y-92788000D01*
X190110000Y-96188000D02*
X188350000Y-96188000D01*
%TO.C,R3*%
X191754000Y-104766000D02*
X193214000Y-104766000D01*
X193214000Y-104766000D02*
X193214000Y-108066000D01*
X193214000Y-108066000D02*
X191754000Y-108066000D01*
X191754000Y-108066000D02*
X191754000Y-104766000D01*
%TO.C,C6*%
X189866000Y-110204000D02*
X189866000Y-108744000D01*
X189866000Y-108744000D02*
X193166000Y-108744000D01*
X193166000Y-108744000D02*
X193166000Y-110204000D01*
X193166000Y-110204000D02*
X189866000Y-110204000D01*
%TD*%
M02*
