%TF.GenerationSoftware,KiCad,Pcbnew,5.1.9-73d0e3b20d~88~ubuntu20.04.1*%
%TF.CreationDate,2021-01-31T09:20:22-06:00*%
%TF.ProjectId,portalgun,706f7274-616c-4677-956e-2e6b69636164,rev?*%
%TF.SameCoordinates,Original*%
%TF.FileFunction,Paste,Top*%
%TF.FilePolarity,Positive*%
%FSLAX46Y46*%
G04 Gerber Fmt 4.6, Leading zero omitted, Abs format (unit mm)*
G04 Created by KiCad (PCBNEW 5.1.9-73d0e3b20d~88~ubuntu20.04.1) date 2021-01-31 09:20:22*
%MOMM*%
%LPD*%
G01*
G04 APERTURE LIST*
%ADD10R,1.060000X0.650000*%
%ADD11C,0.100000*%
%ADD12R,0.800000X0.900000*%
%ADD13R,1.450000X0.800000*%
G04 APERTURE END LIST*
%TO.C,R6*%
G36*
G01*
X206425000Y-102737500D02*
X206425000Y-102262500D01*
G75*
G02*
X206662500Y-102025000I237500J0D01*
G01*
X207162500Y-102025000D01*
G75*
G02*
X207400000Y-102262500I0J-237500D01*
G01*
X207400000Y-102737500D01*
G75*
G02*
X207162500Y-102975000I-237500J0D01*
G01*
X206662500Y-102975000D01*
G75*
G02*
X206425000Y-102737500I0J237500D01*
G01*
G37*
G36*
G01*
X204600000Y-102737500D02*
X204600000Y-102262500D01*
G75*
G02*
X204837500Y-102025000I237500J0D01*
G01*
X205337500Y-102025000D01*
G75*
G02*
X205575000Y-102262500I0J-237500D01*
G01*
X205575000Y-102737500D01*
G75*
G02*
X205337500Y-102975000I-237500J0D01*
G01*
X204837500Y-102975000D01*
G75*
G02*
X204600000Y-102737500I0J237500D01*
G01*
G37*
%TD*%
%TO.C,C14*%
G36*
G01*
X216750000Y-105825000D02*
X217250000Y-105825000D01*
G75*
G02*
X217475000Y-106050000I0J-225000D01*
G01*
X217475000Y-106500000D01*
G75*
G02*
X217250000Y-106725000I-225000J0D01*
G01*
X216750000Y-106725000D01*
G75*
G02*
X216525000Y-106500000I0J225000D01*
G01*
X216525000Y-106050000D01*
G75*
G02*
X216750000Y-105825000I225000J0D01*
G01*
G37*
G36*
G01*
X216750000Y-104275000D02*
X217250000Y-104275000D01*
G75*
G02*
X217475000Y-104500000I0J-225000D01*
G01*
X217475000Y-104950000D01*
G75*
G02*
X217250000Y-105175000I-225000J0D01*
G01*
X216750000Y-105175000D01*
G75*
G02*
X216525000Y-104950000I0J225000D01*
G01*
X216525000Y-104500000D01*
G75*
G02*
X216750000Y-104275000I225000J0D01*
G01*
G37*
%TD*%
%TO.C,C12*%
G36*
G01*
X209250000Y-105825000D02*
X209750000Y-105825000D01*
G75*
G02*
X209975000Y-106050000I0J-225000D01*
G01*
X209975000Y-106500000D01*
G75*
G02*
X209750000Y-106725000I-225000J0D01*
G01*
X209250000Y-106725000D01*
G75*
G02*
X209025000Y-106500000I0J225000D01*
G01*
X209025000Y-106050000D01*
G75*
G02*
X209250000Y-105825000I225000J0D01*
G01*
G37*
G36*
G01*
X209250000Y-104275000D02*
X209750000Y-104275000D01*
G75*
G02*
X209975000Y-104500000I0J-225000D01*
G01*
X209975000Y-104950000D01*
G75*
G02*
X209750000Y-105175000I-225000J0D01*
G01*
X209250000Y-105175000D01*
G75*
G02*
X209025000Y-104950000I0J225000D01*
G01*
X209025000Y-104500000D01*
G75*
G02*
X209250000Y-104275000I225000J0D01*
G01*
G37*
%TD*%
D10*
%TO.C,U3*%
X228400000Y-106450000D03*
X228400000Y-104550000D03*
X230600000Y-104550000D03*
X230600000Y-105500000D03*
X230600000Y-106450000D03*
%TD*%
%TO.C,U1*%
G36*
G01*
X234625000Y-101700000D02*
X234425000Y-101700000D01*
G75*
G02*
X234325000Y-101600000I0J100000D01*
G01*
X234325000Y-100175000D01*
G75*
G02*
X234425000Y-100075000I100000J0D01*
G01*
X234625000Y-100075000D01*
G75*
G02*
X234725000Y-100175000I0J-100000D01*
G01*
X234725000Y-101600000D01*
G75*
G02*
X234625000Y-101700000I-100000J0D01*
G01*
G37*
G36*
G01*
X235275000Y-101700000D02*
X235075000Y-101700000D01*
G75*
G02*
X234975000Y-101600000I0J100000D01*
G01*
X234975000Y-100175000D01*
G75*
G02*
X235075000Y-100075000I100000J0D01*
G01*
X235275000Y-100075000D01*
G75*
G02*
X235375000Y-100175000I0J-100000D01*
G01*
X235375000Y-101600000D01*
G75*
G02*
X235275000Y-101700000I-100000J0D01*
G01*
G37*
G36*
G01*
X235925000Y-101700000D02*
X235725000Y-101700000D01*
G75*
G02*
X235625000Y-101600000I0J100000D01*
G01*
X235625000Y-100175000D01*
G75*
G02*
X235725000Y-100075000I100000J0D01*
G01*
X235925000Y-100075000D01*
G75*
G02*
X236025000Y-100175000I0J-100000D01*
G01*
X236025000Y-101600000D01*
G75*
G02*
X235925000Y-101700000I-100000J0D01*
G01*
G37*
G36*
G01*
X236575000Y-101700000D02*
X236375000Y-101700000D01*
G75*
G02*
X236275000Y-101600000I0J100000D01*
G01*
X236275000Y-100175000D01*
G75*
G02*
X236375000Y-100075000I100000J0D01*
G01*
X236575000Y-100075000D01*
G75*
G02*
X236675000Y-100175000I0J-100000D01*
G01*
X236675000Y-101600000D01*
G75*
G02*
X236575000Y-101700000I-100000J0D01*
G01*
G37*
G36*
G01*
X236575000Y-105925000D02*
X236375000Y-105925000D01*
G75*
G02*
X236275000Y-105825000I0J100000D01*
G01*
X236275000Y-104400000D01*
G75*
G02*
X236375000Y-104300000I100000J0D01*
G01*
X236575000Y-104300000D01*
G75*
G02*
X236675000Y-104400000I0J-100000D01*
G01*
X236675000Y-105825000D01*
G75*
G02*
X236575000Y-105925000I-100000J0D01*
G01*
G37*
G36*
G01*
X235925000Y-105925000D02*
X235725000Y-105925000D01*
G75*
G02*
X235625000Y-105825000I0J100000D01*
G01*
X235625000Y-104400000D01*
G75*
G02*
X235725000Y-104300000I100000J0D01*
G01*
X235925000Y-104300000D01*
G75*
G02*
X236025000Y-104400000I0J-100000D01*
G01*
X236025000Y-105825000D01*
G75*
G02*
X235925000Y-105925000I-100000J0D01*
G01*
G37*
G36*
G01*
X235275000Y-105925000D02*
X235075000Y-105925000D01*
G75*
G02*
X234975000Y-105825000I0J100000D01*
G01*
X234975000Y-104400000D01*
G75*
G02*
X235075000Y-104300000I100000J0D01*
G01*
X235275000Y-104300000D01*
G75*
G02*
X235375000Y-104400000I0J-100000D01*
G01*
X235375000Y-105825000D01*
G75*
G02*
X235275000Y-105925000I-100000J0D01*
G01*
G37*
G36*
G01*
X234625000Y-105925000D02*
X234425000Y-105925000D01*
G75*
G02*
X234325000Y-105825000I0J100000D01*
G01*
X234325000Y-104400000D01*
G75*
G02*
X234425000Y-104300000I100000J0D01*
G01*
X234625000Y-104300000D01*
G75*
G02*
X234725000Y-104400000I0J-100000D01*
G01*
X234725000Y-105825000D01*
G75*
G02*
X234625000Y-105925000I-100000J0D01*
G01*
G37*
%TD*%
%TO.C,R12*%
G36*
G01*
X217762500Y-98175000D02*
X218237500Y-98175000D01*
G75*
G02*
X218475000Y-98412500I0J-237500D01*
G01*
X218475000Y-98912500D01*
G75*
G02*
X218237500Y-99150000I-237500J0D01*
G01*
X217762500Y-99150000D01*
G75*
G02*
X217525000Y-98912500I0J237500D01*
G01*
X217525000Y-98412500D01*
G75*
G02*
X217762500Y-98175000I237500J0D01*
G01*
G37*
G36*
G01*
X217762500Y-96350000D02*
X218237500Y-96350000D01*
G75*
G02*
X218475000Y-96587500I0J-237500D01*
G01*
X218475000Y-97087500D01*
G75*
G02*
X218237500Y-97325000I-237500J0D01*
G01*
X217762500Y-97325000D01*
G75*
G02*
X217525000Y-97087500I0J237500D01*
G01*
X217525000Y-96587500D01*
G75*
G02*
X217762500Y-96350000I237500J0D01*
G01*
G37*
%TD*%
%TO.C,R10*%
G36*
G01*
X212512500Y-98175000D02*
X212987500Y-98175000D01*
G75*
G02*
X213225000Y-98412500I0J-237500D01*
G01*
X213225000Y-98912500D01*
G75*
G02*
X212987500Y-99150000I-237500J0D01*
G01*
X212512500Y-99150000D01*
G75*
G02*
X212275000Y-98912500I0J237500D01*
G01*
X212275000Y-98412500D01*
G75*
G02*
X212512500Y-98175000I237500J0D01*
G01*
G37*
G36*
G01*
X212512500Y-96350000D02*
X212987500Y-96350000D01*
G75*
G02*
X213225000Y-96587500I0J-237500D01*
G01*
X213225000Y-97087500D01*
G75*
G02*
X212987500Y-97325000I-237500J0D01*
G01*
X212512500Y-97325000D01*
G75*
G02*
X212275000Y-97087500I0J237500D01*
G01*
X212275000Y-96587500D01*
G75*
G02*
X212512500Y-96350000I237500J0D01*
G01*
G37*
%TD*%
%TO.C,R4*%
G36*
G01*
X232262500Y-105675000D02*
X232737500Y-105675000D01*
G75*
G02*
X232975000Y-105912500I0J-237500D01*
G01*
X232975000Y-106412500D01*
G75*
G02*
X232737500Y-106650000I-237500J0D01*
G01*
X232262500Y-106650000D01*
G75*
G02*
X232025000Y-106412500I0J237500D01*
G01*
X232025000Y-105912500D01*
G75*
G02*
X232262500Y-105675000I237500J0D01*
G01*
G37*
G36*
G01*
X232262500Y-103850000D02*
X232737500Y-103850000D01*
G75*
G02*
X232975000Y-104087500I0J-237500D01*
G01*
X232975000Y-104587500D01*
G75*
G02*
X232737500Y-104825000I-237500J0D01*
G01*
X232262500Y-104825000D01*
G75*
G02*
X232025000Y-104587500I0J237500D01*
G01*
X232025000Y-104087500D01*
G75*
G02*
X232262500Y-103850000I237500J0D01*
G01*
G37*
%TD*%
%TO.C,R2*%
G36*
G01*
X232262500Y-102175000D02*
X232737500Y-102175000D01*
G75*
G02*
X232975000Y-102412500I0J-237500D01*
G01*
X232975000Y-102912500D01*
G75*
G02*
X232737500Y-103150000I-237500J0D01*
G01*
X232262500Y-103150000D01*
G75*
G02*
X232025000Y-102912500I0J237500D01*
G01*
X232025000Y-102412500D01*
G75*
G02*
X232262500Y-102175000I237500J0D01*
G01*
G37*
G36*
G01*
X232262500Y-100350000D02*
X232737500Y-100350000D01*
G75*
G02*
X232975000Y-100587500I0J-237500D01*
G01*
X232975000Y-101087500D01*
G75*
G02*
X232737500Y-101325000I-237500J0D01*
G01*
X232262500Y-101325000D01*
G75*
G02*
X232025000Y-101087500I0J237500D01*
G01*
X232025000Y-100587500D01*
G75*
G02*
X232262500Y-100350000I237500J0D01*
G01*
G37*
%TD*%
%TO.C,R1*%
G36*
G01*
X238012500Y-101925000D02*
X238487500Y-101925000D01*
G75*
G02*
X238725000Y-102162500I0J-237500D01*
G01*
X238725000Y-102662500D01*
G75*
G02*
X238487500Y-102900000I-237500J0D01*
G01*
X238012500Y-102900000D01*
G75*
G02*
X237775000Y-102662500I0J237500D01*
G01*
X237775000Y-102162500D01*
G75*
G02*
X238012500Y-101925000I237500J0D01*
G01*
G37*
G36*
G01*
X238012500Y-100100000D02*
X238487500Y-100100000D01*
G75*
G02*
X238725000Y-100337500I0J-237500D01*
G01*
X238725000Y-100837500D01*
G75*
G02*
X238487500Y-101075000I-237500J0D01*
G01*
X238012500Y-101075000D01*
G75*
G02*
X237775000Y-100837500I0J237500D01*
G01*
X237775000Y-100337500D01*
G75*
G02*
X238012500Y-100100000I237500J0D01*
G01*
G37*
%TD*%
%TO.C,L1*%
G36*
G01*
X234450000Y-97799999D02*
X234450000Y-99200001D01*
G75*
G02*
X234200001Y-99450000I-249999J0D01*
G01*
X233649999Y-99450000D01*
G75*
G02*
X233400000Y-99200001I0J249999D01*
G01*
X233400000Y-97799999D01*
G75*
G02*
X233649999Y-97550000I249999J0D01*
G01*
X234200001Y-97550000D01*
G75*
G02*
X234450000Y-97799999I0J-249999D01*
G01*
G37*
G36*
G01*
X237600000Y-97799999D02*
X237600000Y-99200001D01*
G75*
G02*
X237350001Y-99450000I-249999J0D01*
G01*
X236799999Y-99450000D01*
G75*
G02*
X236550000Y-99200001I0J249999D01*
G01*
X236550000Y-97799999D01*
G75*
G02*
X236799999Y-97550000I249999J0D01*
G01*
X237350001Y-97550000D01*
G75*
G02*
X237600000Y-97799999I0J-249999D01*
G01*
G37*
%TD*%
%TO.C,C7*%
G36*
G01*
X234262500Y-108575000D02*
X234737500Y-108575000D01*
G75*
G02*
X234975000Y-108812500I0J-237500D01*
G01*
X234975000Y-109412500D01*
G75*
G02*
X234737500Y-109650000I-237500J0D01*
G01*
X234262500Y-109650000D01*
G75*
G02*
X234025000Y-109412500I0J237500D01*
G01*
X234025000Y-108812500D01*
G75*
G02*
X234262500Y-108575000I237500J0D01*
G01*
G37*
G36*
G01*
X234262500Y-106850000D02*
X234737500Y-106850000D01*
G75*
G02*
X234975000Y-107087500I0J-237500D01*
G01*
X234975000Y-107687500D01*
G75*
G02*
X234737500Y-107925000I-237500J0D01*
G01*
X234262500Y-107925000D01*
G75*
G02*
X234025000Y-107687500I0J237500D01*
G01*
X234025000Y-107087500D01*
G75*
G02*
X234262500Y-106850000I237500J0D01*
G01*
G37*
%TD*%
%TO.C,C5*%
G36*
G01*
X230474999Y-102075000D02*
X231025001Y-102075000D01*
G75*
G02*
X231275000Y-102324999I0J-249999D01*
G01*
X231275000Y-102950001D01*
G75*
G02*
X231025001Y-103200000I-249999J0D01*
G01*
X230474999Y-103200000D01*
G75*
G02*
X230225000Y-102950001I0J249999D01*
G01*
X230225000Y-102324999D01*
G75*
G02*
X230474999Y-102075000I249999J0D01*
G01*
G37*
G36*
G01*
X230474999Y-100300000D02*
X231025001Y-100300000D01*
G75*
G02*
X231275000Y-100549999I0J-249999D01*
G01*
X231275000Y-101175001D01*
G75*
G02*
X231025001Y-101425000I-249999J0D01*
G01*
X230474999Y-101425000D01*
G75*
G02*
X230225000Y-101175001I0J249999D01*
G01*
X230225000Y-100549999D01*
G75*
G02*
X230474999Y-100300000I249999J0D01*
G01*
G37*
%TD*%
%TO.C,C1*%
G36*
G01*
X240325000Y-97275001D02*
X240325000Y-96724999D01*
G75*
G02*
X240574999Y-96475000I249999J0D01*
G01*
X241200001Y-96475000D01*
G75*
G02*
X241450000Y-96724999I0J-249999D01*
G01*
X241450000Y-97275001D01*
G75*
G02*
X241200001Y-97525000I-249999J0D01*
G01*
X240574999Y-97525000D01*
G75*
G02*
X240325000Y-97275001I0J249999D01*
G01*
G37*
G36*
G01*
X238550000Y-97275001D02*
X238550000Y-96724999D01*
G75*
G02*
X238799999Y-96475000I249999J0D01*
G01*
X239425001Y-96475000D01*
G75*
G02*
X239675000Y-96724999I0J-249999D01*
G01*
X239675000Y-97275001D01*
G75*
G02*
X239425001Y-97525000I-249999J0D01*
G01*
X238799999Y-97525000D01*
G75*
G02*
X238550000Y-97275001I0J249999D01*
G01*
G37*
%TD*%
D11*
%TO.C,U4*%
G36*
X211838779Y-102125865D02*
G01*
X211847221Y-102128425D01*
X211855001Y-102132584D01*
X211861820Y-102138180D01*
X211867416Y-102144999D01*
X211871575Y-102152779D01*
X211874135Y-102161221D01*
X211875000Y-102170000D01*
X211875000Y-102835000D01*
X211874135Y-102843779D01*
X211871575Y-102852221D01*
X211867416Y-102860001D01*
X211861820Y-102866820D01*
X211855001Y-102872416D01*
X211847221Y-102876575D01*
X211838779Y-102879135D01*
X211830000Y-102880000D01*
X211803640Y-102880000D01*
X211794861Y-102879135D01*
X211786419Y-102876575D01*
X211778639Y-102872416D01*
X211771820Y-102866820D01*
X211638180Y-102733180D01*
X211632584Y-102726361D01*
X211628425Y-102718581D01*
X211625865Y-102710139D01*
X211625000Y-102701360D01*
X211625000Y-102170000D01*
X211625865Y-102161221D01*
X211628425Y-102152779D01*
X211632584Y-102144999D01*
X211638180Y-102138180D01*
X211644999Y-102132584D01*
X211652779Y-102128425D01*
X211661221Y-102125865D01*
X211670000Y-102125000D01*
X211830000Y-102125000D01*
X211838779Y-102125865D01*
G37*
G36*
G01*
X212125000Y-102937500D02*
X212125000Y-102187500D01*
G75*
G02*
X212187500Y-102125000I62500J0D01*
G01*
X212312500Y-102125000D01*
G75*
G02*
X212375000Y-102187500I0J-62500D01*
G01*
X212375000Y-102937500D01*
G75*
G02*
X212312500Y-103000000I-62500J0D01*
G01*
X212187500Y-103000000D01*
G75*
G02*
X212125000Y-102937500I0J62500D01*
G01*
G37*
G36*
G01*
X212625000Y-102937500D02*
X212625000Y-102187500D01*
G75*
G02*
X212687500Y-102125000I62500J0D01*
G01*
X212812500Y-102125000D01*
G75*
G02*
X212875000Y-102187500I0J-62500D01*
G01*
X212875000Y-102937500D01*
G75*
G02*
X212812500Y-103000000I-62500J0D01*
G01*
X212687500Y-103000000D01*
G75*
G02*
X212625000Y-102937500I0J62500D01*
G01*
G37*
G36*
G01*
X213125000Y-102937500D02*
X213125000Y-102187500D01*
G75*
G02*
X213187500Y-102125000I62500J0D01*
G01*
X213312500Y-102125000D01*
G75*
G02*
X213375000Y-102187500I0J-62500D01*
G01*
X213375000Y-102937500D01*
G75*
G02*
X213312500Y-103000000I-62500J0D01*
G01*
X213187500Y-103000000D01*
G75*
G02*
X213125000Y-102937500I0J62500D01*
G01*
G37*
G36*
G01*
X213625000Y-102937500D02*
X213625000Y-102187500D01*
G75*
G02*
X213687500Y-102125000I62500J0D01*
G01*
X213812500Y-102125000D01*
G75*
G02*
X213875000Y-102187500I0J-62500D01*
G01*
X213875000Y-102937500D01*
G75*
G02*
X213812500Y-103000000I-62500J0D01*
G01*
X213687500Y-103000000D01*
G75*
G02*
X213625000Y-102937500I0J62500D01*
G01*
G37*
G36*
G01*
X214125000Y-102937500D02*
X214125000Y-102187500D01*
G75*
G02*
X214187500Y-102125000I62500J0D01*
G01*
X214312500Y-102125000D01*
G75*
G02*
X214375000Y-102187500I0J-62500D01*
G01*
X214375000Y-102937500D01*
G75*
G02*
X214312500Y-103000000I-62500J0D01*
G01*
X214187500Y-103000000D01*
G75*
G02*
X214125000Y-102937500I0J62500D01*
G01*
G37*
G36*
X214838779Y-102125865D02*
G01*
X214847221Y-102128425D01*
X214855001Y-102132584D01*
X214861820Y-102138180D01*
X214867416Y-102144999D01*
X214871575Y-102152779D01*
X214874135Y-102161221D01*
X214875000Y-102170000D01*
X214875000Y-102701360D01*
X214874135Y-102710139D01*
X214871575Y-102718581D01*
X214867416Y-102726361D01*
X214861820Y-102733180D01*
X214728180Y-102866820D01*
X214721361Y-102872416D01*
X214713581Y-102876575D01*
X214705139Y-102879135D01*
X214696360Y-102880000D01*
X214670000Y-102880000D01*
X214661221Y-102879135D01*
X214652779Y-102876575D01*
X214644999Y-102872416D01*
X214638180Y-102866820D01*
X214632584Y-102860001D01*
X214628425Y-102852221D01*
X214625865Y-102843779D01*
X214625000Y-102835000D01*
X214625000Y-102170000D01*
X214625865Y-102161221D01*
X214628425Y-102152779D01*
X214632584Y-102144999D01*
X214638180Y-102138180D01*
X214644999Y-102132584D01*
X214652779Y-102128425D01*
X214661221Y-102125865D01*
X214670000Y-102125000D01*
X214830000Y-102125000D01*
X214838779Y-102125865D01*
G37*
G36*
X215588779Y-102875865D02*
G01*
X215597221Y-102878425D01*
X215605001Y-102882584D01*
X215611820Y-102888180D01*
X215617416Y-102894999D01*
X215621575Y-102902779D01*
X215624135Y-102911221D01*
X215625000Y-102920000D01*
X215625000Y-103080000D01*
X215624135Y-103088779D01*
X215621575Y-103097221D01*
X215617416Y-103105001D01*
X215611820Y-103111820D01*
X215605001Y-103117416D01*
X215597221Y-103121575D01*
X215588779Y-103124135D01*
X215580000Y-103125000D01*
X214915000Y-103125000D01*
X214906221Y-103124135D01*
X214897779Y-103121575D01*
X214889999Y-103117416D01*
X214883180Y-103111820D01*
X214877584Y-103105001D01*
X214873425Y-103097221D01*
X214870865Y-103088779D01*
X214870000Y-103080000D01*
X214870000Y-103053640D01*
X214870865Y-103044861D01*
X214873425Y-103036419D01*
X214877584Y-103028639D01*
X214883180Y-103021820D01*
X215016820Y-102888180D01*
X215023639Y-102882584D01*
X215031419Y-102878425D01*
X215039861Y-102875865D01*
X215048640Y-102875000D01*
X215580000Y-102875000D01*
X215588779Y-102875865D01*
G37*
G36*
G01*
X214750000Y-103562500D02*
X214750000Y-103437500D01*
G75*
G02*
X214812500Y-103375000I62500J0D01*
G01*
X215562500Y-103375000D01*
G75*
G02*
X215625000Y-103437500I0J-62500D01*
G01*
X215625000Y-103562500D01*
G75*
G02*
X215562500Y-103625000I-62500J0D01*
G01*
X214812500Y-103625000D01*
G75*
G02*
X214750000Y-103562500I0J62500D01*
G01*
G37*
G36*
G01*
X214750000Y-104062500D02*
X214750000Y-103937500D01*
G75*
G02*
X214812500Y-103875000I62500J0D01*
G01*
X215562500Y-103875000D01*
G75*
G02*
X215625000Y-103937500I0J-62500D01*
G01*
X215625000Y-104062500D01*
G75*
G02*
X215562500Y-104125000I-62500J0D01*
G01*
X214812500Y-104125000D01*
G75*
G02*
X214750000Y-104062500I0J62500D01*
G01*
G37*
G36*
G01*
X214750000Y-104562500D02*
X214750000Y-104437500D01*
G75*
G02*
X214812500Y-104375000I62500J0D01*
G01*
X215562500Y-104375000D01*
G75*
G02*
X215625000Y-104437500I0J-62500D01*
G01*
X215625000Y-104562500D01*
G75*
G02*
X215562500Y-104625000I-62500J0D01*
G01*
X214812500Y-104625000D01*
G75*
G02*
X214750000Y-104562500I0J62500D01*
G01*
G37*
G36*
G01*
X214750000Y-105062500D02*
X214750000Y-104937500D01*
G75*
G02*
X214812500Y-104875000I62500J0D01*
G01*
X215562500Y-104875000D01*
G75*
G02*
X215625000Y-104937500I0J-62500D01*
G01*
X215625000Y-105062500D01*
G75*
G02*
X215562500Y-105125000I-62500J0D01*
G01*
X214812500Y-105125000D01*
G75*
G02*
X214750000Y-105062500I0J62500D01*
G01*
G37*
G36*
G01*
X214750000Y-105562500D02*
X214750000Y-105437500D01*
G75*
G02*
X214812500Y-105375000I62500J0D01*
G01*
X215562500Y-105375000D01*
G75*
G02*
X215625000Y-105437500I0J-62500D01*
G01*
X215625000Y-105562500D01*
G75*
G02*
X215562500Y-105625000I-62500J0D01*
G01*
X214812500Y-105625000D01*
G75*
G02*
X214750000Y-105562500I0J62500D01*
G01*
G37*
G36*
X215588779Y-105875865D02*
G01*
X215597221Y-105878425D01*
X215605001Y-105882584D01*
X215611820Y-105888180D01*
X215617416Y-105894999D01*
X215621575Y-105902779D01*
X215624135Y-105911221D01*
X215625000Y-105920000D01*
X215625000Y-106080000D01*
X215624135Y-106088779D01*
X215621575Y-106097221D01*
X215617416Y-106105001D01*
X215611820Y-106111820D01*
X215605001Y-106117416D01*
X215597221Y-106121575D01*
X215588779Y-106124135D01*
X215580000Y-106125000D01*
X215048640Y-106125000D01*
X215039861Y-106124135D01*
X215031419Y-106121575D01*
X215023639Y-106117416D01*
X215016820Y-106111820D01*
X214883180Y-105978180D01*
X214877584Y-105971361D01*
X214873425Y-105963581D01*
X214870865Y-105955139D01*
X214870000Y-105946360D01*
X214870000Y-105920000D01*
X214870865Y-105911221D01*
X214873425Y-105902779D01*
X214877584Y-105894999D01*
X214883180Y-105888180D01*
X214889999Y-105882584D01*
X214897779Y-105878425D01*
X214906221Y-105875865D01*
X214915000Y-105875000D01*
X215580000Y-105875000D01*
X215588779Y-105875865D01*
G37*
G36*
X214705139Y-106120865D02*
G01*
X214713581Y-106123425D01*
X214721361Y-106127584D01*
X214728180Y-106133180D01*
X214861820Y-106266820D01*
X214867416Y-106273639D01*
X214871575Y-106281419D01*
X214874135Y-106289861D01*
X214875000Y-106298640D01*
X214875000Y-106830000D01*
X214874135Y-106838779D01*
X214871575Y-106847221D01*
X214867416Y-106855001D01*
X214861820Y-106861820D01*
X214855001Y-106867416D01*
X214847221Y-106871575D01*
X214838779Y-106874135D01*
X214830000Y-106875000D01*
X214670000Y-106875000D01*
X214661221Y-106874135D01*
X214652779Y-106871575D01*
X214644999Y-106867416D01*
X214638180Y-106861820D01*
X214632584Y-106855001D01*
X214628425Y-106847221D01*
X214625865Y-106838779D01*
X214625000Y-106830000D01*
X214625000Y-106165000D01*
X214625865Y-106156221D01*
X214628425Y-106147779D01*
X214632584Y-106139999D01*
X214638180Y-106133180D01*
X214644999Y-106127584D01*
X214652779Y-106123425D01*
X214661221Y-106120865D01*
X214670000Y-106120000D01*
X214696360Y-106120000D01*
X214705139Y-106120865D01*
G37*
G36*
G01*
X214125000Y-106812500D02*
X214125000Y-106062500D01*
G75*
G02*
X214187500Y-106000000I62500J0D01*
G01*
X214312500Y-106000000D01*
G75*
G02*
X214375000Y-106062500I0J-62500D01*
G01*
X214375000Y-106812500D01*
G75*
G02*
X214312500Y-106875000I-62500J0D01*
G01*
X214187500Y-106875000D01*
G75*
G02*
X214125000Y-106812500I0J62500D01*
G01*
G37*
G36*
G01*
X213625000Y-106812500D02*
X213625000Y-106062500D01*
G75*
G02*
X213687500Y-106000000I62500J0D01*
G01*
X213812500Y-106000000D01*
G75*
G02*
X213875000Y-106062500I0J-62500D01*
G01*
X213875000Y-106812500D01*
G75*
G02*
X213812500Y-106875000I-62500J0D01*
G01*
X213687500Y-106875000D01*
G75*
G02*
X213625000Y-106812500I0J62500D01*
G01*
G37*
G36*
G01*
X213125000Y-106812500D02*
X213125000Y-106062500D01*
G75*
G02*
X213187500Y-106000000I62500J0D01*
G01*
X213312500Y-106000000D01*
G75*
G02*
X213375000Y-106062500I0J-62500D01*
G01*
X213375000Y-106812500D01*
G75*
G02*
X213312500Y-106875000I-62500J0D01*
G01*
X213187500Y-106875000D01*
G75*
G02*
X213125000Y-106812500I0J62500D01*
G01*
G37*
G36*
G01*
X212625000Y-106812500D02*
X212625000Y-106062500D01*
G75*
G02*
X212687500Y-106000000I62500J0D01*
G01*
X212812500Y-106000000D01*
G75*
G02*
X212875000Y-106062500I0J-62500D01*
G01*
X212875000Y-106812500D01*
G75*
G02*
X212812500Y-106875000I-62500J0D01*
G01*
X212687500Y-106875000D01*
G75*
G02*
X212625000Y-106812500I0J62500D01*
G01*
G37*
G36*
G01*
X212125000Y-106812500D02*
X212125000Y-106062500D01*
G75*
G02*
X212187500Y-106000000I62500J0D01*
G01*
X212312500Y-106000000D01*
G75*
G02*
X212375000Y-106062500I0J-62500D01*
G01*
X212375000Y-106812500D01*
G75*
G02*
X212312500Y-106875000I-62500J0D01*
G01*
X212187500Y-106875000D01*
G75*
G02*
X212125000Y-106812500I0J62500D01*
G01*
G37*
G36*
X211838779Y-106120865D02*
G01*
X211847221Y-106123425D01*
X211855001Y-106127584D01*
X211861820Y-106133180D01*
X211867416Y-106139999D01*
X211871575Y-106147779D01*
X211874135Y-106156221D01*
X211875000Y-106165000D01*
X211875000Y-106830000D01*
X211874135Y-106838779D01*
X211871575Y-106847221D01*
X211867416Y-106855001D01*
X211861820Y-106861820D01*
X211855001Y-106867416D01*
X211847221Y-106871575D01*
X211838779Y-106874135D01*
X211830000Y-106875000D01*
X211670000Y-106875000D01*
X211661221Y-106874135D01*
X211652779Y-106871575D01*
X211644999Y-106867416D01*
X211638180Y-106861820D01*
X211632584Y-106855001D01*
X211628425Y-106847221D01*
X211625865Y-106838779D01*
X211625000Y-106830000D01*
X211625000Y-106298640D01*
X211625865Y-106289861D01*
X211628425Y-106281419D01*
X211632584Y-106273639D01*
X211638180Y-106266820D01*
X211771820Y-106133180D01*
X211778639Y-106127584D01*
X211786419Y-106123425D01*
X211794861Y-106120865D01*
X211803640Y-106120000D01*
X211830000Y-106120000D01*
X211838779Y-106120865D01*
G37*
G36*
X211593779Y-105875865D02*
G01*
X211602221Y-105878425D01*
X211610001Y-105882584D01*
X211616820Y-105888180D01*
X211622416Y-105894999D01*
X211626575Y-105902779D01*
X211629135Y-105911221D01*
X211630000Y-105920000D01*
X211630000Y-105946360D01*
X211629135Y-105955139D01*
X211626575Y-105963581D01*
X211622416Y-105971361D01*
X211616820Y-105978180D01*
X211483180Y-106111820D01*
X211476361Y-106117416D01*
X211468581Y-106121575D01*
X211460139Y-106124135D01*
X211451360Y-106125000D01*
X210920000Y-106125000D01*
X210911221Y-106124135D01*
X210902779Y-106121575D01*
X210894999Y-106117416D01*
X210888180Y-106111820D01*
X210882584Y-106105001D01*
X210878425Y-106097221D01*
X210875865Y-106088779D01*
X210875000Y-106080000D01*
X210875000Y-105920000D01*
X210875865Y-105911221D01*
X210878425Y-105902779D01*
X210882584Y-105894999D01*
X210888180Y-105888180D01*
X210894999Y-105882584D01*
X210902779Y-105878425D01*
X210911221Y-105875865D01*
X210920000Y-105875000D01*
X211585000Y-105875000D01*
X211593779Y-105875865D01*
G37*
G36*
G01*
X210875000Y-105562500D02*
X210875000Y-105437500D01*
G75*
G02*
X210937500Y-105375000I62500J0D01*
G01*
X211687500Y-105375000D01*
G75*
G02*
X211750000Y-105437500I0J-62500D01*
G01*
X211750000Y-105562500D01*
G75*
G02*
X211687500Y-105625000I-62500J0D01*
G01*
X210937500Y-105625000D01*
G75*
G02*
X210875000Y-105562500I0J62500D01*
G01*
G37*
G36*
G01*
X210875000Y-105062500D02*
X210875000Y-104937500D01*
G75*
G02*
X210937500Y-104875000I62500J0D01*
G01*
X211687500Y-104875000D01*
G75*
G02*
X211750000Y-104937500I0J-62500D01*
G01*
X211750000Y-105062500D01*
G75*
G02*
X211687500Y-105125000I-62500J0D01*
G01*
X210937500Y-105125000D01*
G75*
G02*
X210875000Y-105062500I0J62500D01*
G01*
G37*
G36*
G01*
X210875000Y-104562500D02*
X210875000Y-104437500D01*
G75*
G02*
X210937500Y-104375000I62500J0D01*
G01*
X211687500Y-104375000D01*
G75*
G02*
X211750000Y-104437500I0J-62500D01*
G01*
X211750000Y-104562500D01*
G75*
G02*
X211687500Y-104625000I-62500J0D01*
G01*
X210937500Y-104625000D01*
G75*
G02*
X210875000Y-104562500I0J62500D01*
G01*
G37*
G36*
G01*
X210875000Y-104062500D02*
X210875000Y-103937500D01*
G75*
G02*
X210937500Y-103875000I62500J0D01*
G01*
X211687500Y-103875000D01*
G75*
G02*
X211750000Y-103937500I0J-62500D01*
G01*
X211750000Y-104062500D01*
G75*
G02*
X211687500Y-104125000I-62500J0D01*
G01*
X210937500Y-104125000D01*
G75*
G02*
X210875000Y-104062500I0J62500D01*
G01*
G37*
G36*
G01*
X210875000Y-103562500D02*
X210875000Y-103437500D01*
G75*
G02*
X210937500Y-103375000I62500J0D01*
G01*
X211687500Y-103375000D01*
G75*
G02*
X211750000Y-103437500I0J-62500D01*
G01*
X211750000Y-103562500D01*
G75*
G02*
X211687500Y-103625000I-62500J0D01*
G01*
X210937500Y-103625000D01*
G75*
G02*
X210875000Y-103562500I0J62500D01*
G01*
G37*
G36*
X211460139Y-102875865D02*
G01*
X211468581Y-102878425D01*
X211476361Y-102882584D01*
X211483180Y-102888180D01*
X211616820Y-103021820D01*
X211622416Y-103028639D01*
X211626575Y-103036419D01*
X211629135Y-103044861D01*
X211630000Y-103053640D01*
X211630000Y-103080000D01*
X211629135Y-103088779D01*
X211626575Y-103097221D01*
X211622416Y-103105001D01*
X211616820Y-103111820D01*
X211610001Y-103117416D01*
X211602221Y-103121575D01*
X211593779Y-103124135D01*
X211585000Y-103125000D01*
X210920000Y-103125000D01*
X210911221Y-103124135D01*
X210902779Y-103121575D01*
X210894999Y-103117416D01*
X210888180Y-103111820D01*
X210882584Y-103105001D01*
X210878425Y-103097221D01*
X210875865Y-103088779D01*
X210875000Y-103080000D01*
X210875000Y-102920000D01*
X210875865Y-102911221D01*
X210878425Y-102902779D01*
X210882584Y-102894999D01*
X210888180Y-102888180D01*
X210894999Y-102882584D01*
X210902779Y-102878425D01*
X210911221Y-102875865D01*
X210920000Y-102875000D01*
X211451360Y-102875000D01*
X211460139Y-102875865D01*
G37*
%TD*%
%TO.C,R11*%
G36*
G01*
X215487500Y-97325000D02*
X215012500Y-97325000D01*
G75*
G02*
X214775000Y-97087500I0J237500D01*
G01*
X214775000Y-96587500D01*
G75*
G02*
X215012500Y-96350000I237500J0D01*
G01*
X215487500Y-96350000D01*
G75*
G02*
X215725000Y-96587500I0J-237500D01*
G01*
X215725000Y-97087500D01*
G75*
G02*
X215487500Y-97325000I-237500J0D01*
G01*
G37*
G36*
G01*
X215487500Y-99150000D02*
X215012500Y-99150000D01*
G75*
G02*
X214775000Y-98912500I0J237500D01*
G01*
X214775000Y-98412500D01*
G75*
G02*
X215012500Y-98175000I237500J0D01*
G01*
X215487500Y-98175000D01*
G75*
G02*
X215725000Y-98412500I0J-237500D01*
G01*
X215725000Y-98912500D01*
G75*
G02*
X215487500Y-99150000I-237500J0D01*
G01*
G37*
%TD*%
%TO.C,R9*%
G36*
G01*
X210487500Y-97325000D02*
X210012500Y-97325000D01*
G75*
G02*
X209775000Y-97087500I0J237500D01*
G01*
X209775000Y-96587500D01*
G75*
G02*
X210012500Y-96350000I237500J0D01*
G01*
X210487500Y-96350000D01*
G75*
G02*
X210725000Y-96587500I0J-237500D01*
G01*
X210725000Y-97087500D01*
G75*
G02*
X210487500Y-97325000I-237500J0D01*
G01*
G37*
G36*
G01*
X210487500Y-99150000D02*
X210012500Y-99150000D01*
G75*
G02*
X209775000Y-98912500I0J237500D01*
G01*
X209775000Y-98412500D01*
G75*
G02*
X210012500Y-98175000I237500J0D01*
G01*
X210487500Y-98175000D01*
G75*
G02*
X210725000Y-98412500I0J-237500D01*
G01*
X210725000Y-98912500D01*
G75*
G02*
X210487500Y-99150000I-237500J0D01*
G01*
G37*
%TD*%
%TO.C,R8*%
G36*
G01*
X209262500Y-112925000D02*
X209737500Y-112925000D01*
G75*
G02*
X209975000Y-113162500I0J-237500D01*
G01*
X209975000Y-113662500D01*
G75*
G02*
X209737500Y-113900000I-237500J0D01*
G01*
X209262500Y-113900000D01*
G75*
G02*
X209025000Y-113662500I0J237500D01*
G01*
X209025000Y-113162500D01*
G75*
G02*
X209262500Y-112925000I237500J0D01*
G01*
G37*
G36*
G01*
X209262500Y-111100000D02*
X209737500Y-111100000D01*
G75*
G02*
X209975000Y-111337500I0J-237500D01*
G01*
X209975000Y-111837500D01*
G75*
G02*
X209737500Y-112075000I-237500J0D01*
G01*
X209262500Y-112075000D01*
G75*
G02*
X209025000Y-111837500I0J237500D01*
G01*
X209025000Y-111337500D01*
G75*
G02*
X209262500Y-111100000I237500J0D01*
G01*
G37*
%TD*%
%TO.C,R7*%
G36*
G01*
X206425000Y-101237500D02*
X206425000Y-100762500D01*
G75*
G02*
X206662500Y-100525000I237500J0D01*
G01*
X207162500Y-100525000D01*
G75*
G02*
X207400000Y-100762500I0J-237500D01*
G01*
X207400000Y-101237500D01*
G75*
G02*
X207162500Y-101475000I-237500J0D01*
G01*
X206662500Y-101475000D01*
G75*
G02*
X206425000Y-101237500I0J237500D01*
G01*
G37*
G36*
G01*
X204600000Y-101237500D02*
X204600000Y-100762500D01*
G75*
G02*
X204837500Y-100525000I237500J0D01*
G01*
X205337500Y-100525000D01*
G75*
G02*
X205575000Y-100762500I0J-237500D01*
G01*
X205575000Y-101237500D01*
G75*
G02*
X205337500Y-101475000I-237500J0D01*
G01*
X204837500Y-101475000D01*
G75*
G02*
X204600000Y-101237500I0J237500D01*
G01*
G37*
%TD*%
%TO.C,R5*%
G36*
G01*
X206425000Y-104237500D02*
X206425000Y-103762500D01*
G75*
G02*
X206662500Y-103525000I237500J0D01*
G01*
X207162500Y-103525000D01*
G75*
G02*
X207400000Y-103762500I0J-237500D01*
G01*
X207400000Y-104237500D01*
G75*
G02*
X207162500Y-104475000I-237500J0D01*
G01*
X206662500Y-104475000D01*
G75*
G02*
X206425000Y-104237500I0J237500D01*
G01*
G37*
G36*
G01*
X204600000Y-104237500D02*
X204600000Y-103762500D01*
G75*
G02*
X204837500Y-103525000I237500J0D01*
G01*
X205337500Y-103525000D01*
G75*
G02*
X205575000Y-103762500I0J-237500D01*
G01*
X205575000Y-104237500D01*
G75*
G02*
X205337500Y-104475000I-237500J0D01*
G01*
X204837500Y-104475000D01*
G75*
G02*
X204600000Y-104237500I0J237500D01*
G01*
G37*
%TD*%
%TO.C,R3*%
G36*
G01*
X238012500Y-105425000D02*
X238487500Y-105425000D01*
G75*
G02*
X238725000Y-105662500I0J-237500D01*
G01*
X238725000Y-106162500D01*
G75*
G02*
X238487500Y-106400000I-237500J0D01*
G01*
X238012500Y-106400000D01*
G75*
G02*
X237775000Y-106162500I0J237500D01*
G01*
X237775000Y-105662500D01*
G75*
G02*
X238012500Y-105425000I237500J0D01*
G01*
G37*
G36*
G01*
X238012500Y-103600000D02*
X238487500Y-103600000D01*
G75*
G02*
X238725000Y-103837500I0J-237500D01*
G01*
X238725000Y-104337500D01*
G75*
G02*
X238487500Y-104575000I-237500J0D01*
G01*
X238012500Y-104575000D01*
G75*
G02*
X237775000Y-104337500I0J237500D01*
G01*
X237775000Y-103837500D01*
G75*
G02*
X238012500Y-103600000I237500J0D01*
G01*
G37*
%TD*%
D12*
%TO.C,Q1*%
X212000000Y-113500000D03*
X211050000Y-111500000D03*
X212950000Y-111500000D03*
%TD*%
%TO.C,C8*%
G36*
G01*
X217825000Y-115775001D02*
X217825000Y-115224999D01*
G75*
G02*
X218074999Y-114975000I249999J0D01*
G01*
X218700001Y-114975000D01*
G75*
G02*
X218950000Y-115224999I0J-249999D01*
G01*
X218950000Y-115775001D01*
G75*
G02*
X218700001Y-116025000I-249999J0D01*
G01*
X218074999Y-116025000D01*
G75*
G02*
X217825000Y-115775001I0J249999D01*
G01*
G37*
G36*
G01*
X216050000Y-115775001D02*
X216050000Y-115224999D01*
G75*
G02*
X216299999Y-114975000I249999J0D01*
G01*
X216925001Y-114975000D01*
G75*
G02*
X217175000Y-115224999I0J-249999D01*
G01*
X217175000Y-115775001D01*
G75*
G02*
X216925001Y-116025000I-249999J0D01*
G01*
X216299999Y-116025000D01*
G75*
G02*
X216050000Y-115775001I0J249999D01*
G01*
G37*
%TD*%
%TO.C,C6*%
G36*
G01*
X236262500Y-108575000D02*
X236737500Y-108575000D01*
G75*
G02*
X236975000Y-108812500I0J-237500D01*
G01*
X236975000Y-109412500D01*
G75*
G02*
X236737500Y-109650000I-237500J0D01*
G01*
X236262500Y-109650000D01*
G75*
G02*
X236025000Y-109412500I0J237500D01*
G01*
X236025000Y-108812500D01*
G75*
G02*
X236262500Y-108575000I237500J0D01*
G01*
G37*
G36*
G01*
X236262500Y-106850000D02*
X236737500Y-106850000D01*
G75*
G02*
X236975000Y-107087500I0J-237500D01*
G01*
X236975000Y-107687500D01*
G75*
G02*
X236737500Y-107925000I-237500J0D01*
G01*
X236262500Y-107925000D01*
G75*
G02*
X236025000Y-107687500I0J237500D01*
G01*
X236025000Y-107087500D01*
G75*
G02*
X236262500Y-106850000I237500J0D01*
G01*
G37*
%TD*%
D13*
%TO.C,U2*%
X54094000Y-91603000D03*
X54094000Y-92873000D03*
X54094000Y-94143000D03*
X54094000Y-95413000D03*
X59344000Y-91603000D03*
X59344000Y-92873000D03*
X59344000Y-94143000D03*
X59344000Y-95413000D03*
%TD*%
%TO.C,R18*%
G36*
G01*
X67534000Y-99183000D02*
X67534000Y-98633000D01*
G75*
G02*
X67734000Y-98433000I200000J0D01*
G01*
X68134000Y-98433000D01*
G75*
G02*
X68334000Y-98633000I0J-200000D01*
G01*
X68334000Y-99183000D01*
G75*
G02*
X68134000Y-99383000I-200000J0D01*
G01*
X67734000Y-99383000D01*
G75*
G02*
X67534000Y-99183000I0J200000D01*
G01*
G37*
G36*
G01*
X65884000Y-99183000D02*
X65884000Y-98633000D01*
G75*
G02*
X66084000Y-98433000I200000J0D01*
G01*
X66484000Y-98433000D01*
G75*
G02*
X66684000Y-98633000I0J-200000D01*
G01*
X66684000Y-99183000D01*
G75*
G02*
X66484000Y-99383000I-200000J0D01*
G01*
X66084000Y-99383000D01*
G75*
G02*
X65884000Y-99183000I0J200000D01*
G01*
G37*
%TD*%
%TO.C,R17*%
G36*
G01*
X67764000Y-96673000D02*
X67764000Y-96123000D01*
G75*
G02*
X67964000Y-95923000I200000J0D01*
G01*
X68364000Y-95923000D01*
G75*
G02*
X68564000Y-96123000I0J-200000D01*
G01*
X68564000Y-96673000D01*
G75*
G02*
X68364000Y-96873000I-200000J0D01*
G01*
X67964000Y-96873000D01*
G75*
G02*
X67764000Y-96673000I0J200000D01*
G01*
G37*
G36*
G01*
X66114000Y-96673000D02*
X66114000Y-96123000D01*
G75*
G02*
X66314000Y-95923000I200000J0D01*
G01*
X66714000Y-95923000D01*
G75*
G02*
X66914000Y-96123000I0J-200000D01*
G01*
X66914000Y-96673000D01*
G75*
G02*
X66714000Y-96873000I-200000J0D01*
G01*
X66314000Y-96873000D01*
G75*
G02*
X66114000Y-96673000I0J200000D01*
G01*
G37*
%TD*%
%TO.C,R16*%
G36*
G01*
X63524000Y-99113000D02*
X63524000Y-98563000D01*
G75*
G02*
X63724000Y-98363000I200000J0D01*
G01*
X64124000Y-98363000D01*
G75*
G02*
X64324000Y-98563000I0J-200000D01*
G01*
X64324000Y-99113000D01*
G75*
G02*
X64124000Y-99313000I-200000J0D01*
G01*
X63724000Y-99313000D01*
G75*
G02*
X63524000Y-99113000I0J200000D01*
G01*
G37*
G36*
G01*
X61874000Y-99113000D02*
X61874000Y-98563000D01*
G75*
G02*
X62074000Y-98363000I200000J0D01*
G01*
X62474000Y-98363000D01*
G75*
G02*
X62674000Y-98563000I0J-200000D01*
G01*
X62674000Y-99113000D01*
G75*
G02*
X62474000Y-99313000I-200000J0D01*
G01*
X62074000Y-99313000D01*
G75*
G02*
X61874000Y-99113000I0J200000D01*
G01*
G37*
%TD*%
%TO.C,R15*%
G36*
G01*
X67764000Y-94163000D02*
X67764000Y-93613000D01*
G75*
G02*
X67964000Y-93413000I200000J0D01*
G01*
X68364000Y-93413000D01*
G75*
G02*
X68564000Y-93613000I0J-200000D01*
G01*
X68564000Y-94163000D01*
G75*
G02*
X68364000Y-94363000I-200000J0D01*
G01*
X67964000Y-94363000D01*
G75*
G02*
X67764000Y-94163000I0J200000D01*
G01*
G37*
G36*
G01*
X66114000Y-94163000D02*
X66114000Y-93613000D01*
G75*
G02*
X66314000Y-93413000I200000J0D01*
G01*
X66714000Y-93413000D01*
G75*
G02*
X66914000Y-93613000I0J-200000D01*
G01*
X66914000Y-94163000D01*
G75*
G02*
X66714000Y-94363000I-200000J0D01*
G01*
X66314000Y-94363000D01*
G75*
G02*
X66114000Y-94163000I0J200000D01*
G01*
G37*
%TD*%
%TO.C,R14*%
G36*
G01*
X59514000Y-99113000D02*
X59514000Y-98563000D01*
G75*
G02*
X59714000Y-98363000I200000J0D01*
G01*
X60114000Y-98363000D01*
G75*
G02*
X60314000Y-98563000I0J-200000D01*
G01*
X60314000Y-99113000D01*
G75*
G02*
X60114000Y-99313000I-200000J0D01*
G01*
X59714000Y-99313000D01*
G75*
G02*
X59514000Y-99113000I0J200000D01*
G01*
G37*
G36*
G01*
X57864000Y-99113000D02*
X57864000Y-98563000D01*
G75*
G02*
X58064000Y-98363000I200000J0D01*
G01*
X58464000Y-98363000D01*
G75*
G02*
X58664000Y-98563000I0J-200000D01*
G01*
X58664000Y-99113000D01*
G75*
G02*
X58464000Y-99313000I-200000J0D01*
G01*
X58064000Y-99313000D01*
G75*
G02*
X57864000Y-99113000I0J200000D01*
G01*
G37*
%TD*%
%TO.C,R13*%
G36*
G01*
X67424000Y-91653000D02*
X67424000Y-91103000D01*
G75*
G02*
X67624000Y-90903000I200000J0D01*
G01*
X68024000Y-90903000D01*
G75*
G02*
X68224000Y-91103000I0J-200000D01*
G01*
X68224000Y-91653000D01*
G75*
G02*
X68024000Y-91853000I-200000J0D01*
G01*
X67624000Y-91853000D01*
G75*
G02*
X67424000Y-91653000I0J200000D01*
G01*
G37*
G36*
G01*
X65774000Y-91653000D02*
X65774000Y-91103000D01*
G75*
G02*
X65974000Y-90903000I200000J0D01*
G01*
X66374000Y-90903000D01*
G75*
G02*
X66574000Y-91103000I0J-200000D01*
G01*
X66574000Y-91653000D01*
G75*
G02*
X66374000Y-91853000I-200000J0D01*
G01*
X65974000Y-91853000D01*
G75*
G02*
X65774000Y-91653000I0J200000D01*
G01*
G37*
%TD*%
%TO.C,C11*%
G36*
G01*
X63439000Y-96453001D02*
X63439000Y-95902999D01*
G75*
G02*
X63688999Y-95653000I249999J0D01*
G01*
X64314001Y-95653000D01*
G75*
G02*
X64564000Y-95902999I0J-249999D01*
G01*
X64564000Y-96453001D01*
G75*
G02*
X64314001Y-96703000I-249999J0D01*
G01*
X63688999Y-96703000D01*
G75*
G02*
X63439000Y-96453001I0J249999D01*
G01*
G37*
G36*
G01*
X61664000Y-96453001D02*
X61664000Y-95902999D01*
G75*
G02*
X61913999Y-95653000I249999J0D01*
G01*
X62539001Y-95653000D01*
G75*
G02*
X62789000Y-95902999I0J-249999D01*
G01*
X62789000Y-96453001D01*
G75*
G02*
X62539001Y-96703000I-249999J0D01*
G01*
X61913999Y-96703000D01*
G75*
G02*
X61664000Y-96453001I0J249999D01*
G01*
G37*
%TD*%
%TO.C,C10*%
G36*
G01*
X55189000Y-98573001D02*
X55189000Y-98022999D01*
G75*
G02*
X55438999Y-97773000I249999J0D01*
G01*
X56064001Y-97773000D01*
G75*
G02*
X56314000Y-98022999I0J-249999D01*
G01*
X56314000Y-98573001D01*
G75*
G02*
X56064001Y-98823000I-249999J0D01*
G01*
X55438999Y-98823000D01*
G75*
G02*
X55189000Y-98573001I0J249999D01*
G01*
G37*
G36*
G01*
X53414000Y-98573001D02*
X53414000Y-98022999D01*
G75*
G02*
X53663999Y-97773000I249999J0D01*
G01*
X54289001Y-97773000D01*
G75*
G02*
X54539000Y-98022999I0J-249999D01*
G01*
X54539000Y-98573001D01*
G75*
G02*
X54289001Y-98823000I-249999J0D01*
G01*
X53663999Y-98823000D01*
G75*
G02*
X53414000Y-98573001I0J249999D01*
G01*
G37*
%TD*%
M02*
