%TF.GenerationSoftware,KiCad,Pcbnew,5.1.9-73d0e3b20d~88~ubuntu20.04.1*%
%TF.CreationDate,2021-01-31T09:20:22-06:00*%
%TF.ProjectId,portalgun,706f7274-616c-4677-956e-2e6b69636164,rev?*%
%TF.SameCoordinates,Original*%
%TF.FileFunction,Paste,Bot*%
%TF.FilePolarity,Positive*%
%FSLAX46Y46*%
G04 Gerber Fmt 4.6, Leading zero omitted, Abs format (unit mm)*
G04 Created by KiCad (PCBNEW 5.1.9-73d0e3b20d~88~ubuntu20.04.1) date 2021-01-31 09:20:22*
%MOMM*%
%LPD*%
G01*
G04 APERTURE LIST*
%ADD10R,0.800000X0.900000*%
%ADD11C,0.100000*%
G04 APERTURE END LIST*
%TO.C,C2*%
G36*
G01*
X131068000Y-101925000D02*
X131568000Y-101925000D01*
G75*
G02*
X131793000Y-102150000I0J-225000D01*
G01*
X131793000Y-102600000D01*
G75*
G02*
X131568000Y-102825000I-225000J0D01*
G01*
X131068000Y-102825000D01*
G75*
G02*
X130843000Y-102600000I0J225000D01*
G01*
X130843000Y-102150000D01*
G75*
G02*
X131068000Y-101925000I225000J0D01*
G01*
G37*
G36*
G01*
X131068000Y-100375000D02*
X131568000Y-100375000D01*
G75*
G02*
X131793000Y-100600000I0J-225000D01*
G01*
X131793000Y-101050000D01*
G75*
G02*
X131568000Y-101275000I-225000J0D01*
G01*
X131068000Y-101275000D01*
G75*
G02*
X130843000Y-101050000I0J225000D01*
G01*
X130843000Y-100600000D01*
G75*
G02*
X131068000Y-100375000I225000J0D01*
G01*
G37*
%TD*%
D10*
%TO.C,Q5*%
X132969000Y-120380000D03*
X133919000Y-118380000D03*
X132019000Y-118380000D03*
%TD*%
%TO.C,Q4*%
X132969000Y-107712000D03*
X132019000Y-109712000D03*
X133919000Y-109712000D03*
%TD*%
%TO.C,Q3*%
X132969000Y-94726000D03*
X133919000Y-92726000D03*
X132019000Y-92726000D03*
%TD*%
%TO.C,Q2*%
X132461000Y-82312000D03*
X131511000Y-84312000D03*
X133411000Y-84312000D03*
%TD*%
%TO.C,R34*%
G36*
G01*
X129683500Y-118281000D02*
X130158500Y-118281000D01*
G75*
G02*
X130396000Y-118518500I0J-237500D01*
G01*
X130396000Y-119018500D01*
G75*
G02*
X130158500Y-119256000I-237500J0D01*
G01*
X129683500Y-119256000D01*
G75*
G02*
X129446000Y-119018500I0J237500D01*
G01*
X129446000Y-118518500D01*
G75*
G02*
X129683500Y-118281000I237500J0D01*
G01*
G37*
G36*
G01*
X129683500Y-116456000D02*
X130158500Y-116456000D01*
G75*
G02*
X130396000Y-116693500I0J-237500D01*
G01*
X130396000Y-117193500D01*
G75*
G02*
X130158500Y-117431000I-237500J0D01*
G01*
X129683500Y-117431000D01*
G75*
G02*
X129446000Y-117193500I0J237500D01*
G01*
X129446000Y-116693500D01*
G75*
G02*
X129683500Y-116456000I237500J0D01*
G01*
G37*
%TD*%
%TO.C,R33*%
G36*
G01*
X128159500Y-118281000D02*
X128634500Y-118281000D01*
G75*
G02*
X128872000Y-118518500I0J-237500D01*
G01*
X128872000Y-119018500D01*
G75*
G02*
X128634500Y-119256000I-237500J0D01*
G01*
X128159500Y-119256000D01*
G75*
G02*
X127922000Y-119018500I0J237500D01*
G01*
X127922000Y-118518500D01*
G75*
G02*
X128159500Y-118281000I237500J0D01*
G01*
G37*
G36*
G01*
X128159500Y-116456000D02*
X128634500Y-116456000D01*
G75*
G02*
X128872000Y-116693500I0J-237500D01*
G01*
X128872000Y-117193500D01*
G75*
G02*
X128634500Y-117431000I-237500J0D01*
G01*
X128159500Y-117431000D01*
G75*
G02*
X127922000Y-117193500I0J237500D01*
G01*
X127922000Y-116693500D01*
G75*
G02*
X128159500Y-116456000I237500J0D01*
G01*
G37*
%TD*%
%TO.C,R32*%
G36*
G01*
X126635500Y-118281000D02*
X127110500Y-118281000D01*
G75*
G02*
X127348000Y-118518500I0J-237500D01*
G01*
X127348000Y-119018500D01*
G75*
G02*
X127110500Y-119256000I-237500J0D01*
G01*
X126635500Y-119256000D01*
G75*
G02*
X126398000Y-119018500I0J237500D01*
G01*
X126398000Y-118518500D01*
G75*
G02*
X126635500Y-118281000I237500J0D01*
G01*
G37*
G36*
G01*
X126635500Y-116456000D02*
X127110500Y-116456000D01*
G75*
G02*
X127348000Y-116693500I0J-237500D01*
G01*
X127348000Y-117193500D01*
G75*
G02*
X127110500Y-117431000I-237500J0D01*
G01*
X126635500Y-117431000D01*
G75*
G02*
X126398000Y-117193500I0J237500D01*
G01*
X126398000Y-116693500D01*
G75*
G02*
X126635500Y-116456000I237500J0D01*
G01*
G37*
%TD*%
%TO.C,R31*%
G36*
G01*
X125111500Y-118281000D02*
X125586500Y-118281000D01*
G75*
G02*
X125824000Y-118518500I0J-237500D01*
G01*
X125824000Y-119018500D01*
G75*
G02*
X125586500Y-119256000I-237500J0D01*
G01*
X125111500Y-119256000D01*
G75*
G02*
X124874000Y-119018500I0J237500D01*
G01*
X124874000Y-118518500D01*
G75*
G02*
X125111500Y-118281000I237500J0D01*
G01*
G37*
G36*
G01*
X125111500Y-116456000D02*
X125586500Y-116456000D01*
G75*
G02*
X125824000Y-116693500I0J-237500D01*
G01*
X125824000Y-117193500D01*
G75*
G02*
X125586500Y-117431000I-237500J0D01*
G01*
X125111500Y-117431000D01*
G75*
G02*
X124874000Y-117193500I0J237500D01*
G01*
X124874000Y-116693500D01*
G75*
G02*
X125111500Y-116456000I237500J0D01*
G01*
G37*
%TD*%
%TO.C,U7*%
G36*
G01*
X127012000Y-101703500D02*
X127012000Y-102188500D01*
G75*
G02*
X126769500Y-102431000I-242500J0D01*
G01*
X126284500Y-102431000D01*
G75*
G02*
X126042000Y-102188500I0J242500D01*
G01*
X126042000Y-101703500D01*
G75*
G02*
X126284500Y-101461000I242500J0D01*
G01*
X126769500Y-101461000D01*
G75*
G02*
X127012000Y-101703500I0J-242500D01*
G01*
G37*
G36*
G01*
X127012000Y-100503500D02*
X127012000Y-100988500D01*
G75*
G02*
X126769500Y-101231000I-242500J0D01*
G01*
X126284500Y-101231000D01*
G75*
G02*
X126042000Y-100988500I0J242500D01*
G01*
X126042000Y-100503500D01*
G75*
G02*
X126284500Y-100261000I242500J0D01*
G01*
X126769500Y-100261000D01*
G75*
G02*
X127012000Y-100503500I0J-242500D01*
G01*
G37*
G36*
G01*
X128212000Y-101703500D02*
X128212000Y-102188500D01*
G75*
G02*
X127969500Y-102431000I-242500J0D01*
G01*
X127484500Y-102431000D01*
G75*
G02*
X127242000Y-102188500I0J242500D01*
G01*
X127242000Y-101703500D01*
G75*
G02*
X127484500Y-101461000I242500J0D01*
G01*
X127969500Y-101461000D01*
G75*
G02*
X128212000Y-101703500I0J-242500D01*
G01*
G37*
G36*
G01*
X128212000Y-100503500D02*
X128212000Y-100988500D01*
G75*
G02*
X127969500Y-101231000I-242500J0D01*
G01*
X127484500Y-101231000D01*
G75*
G02*
X127242000Y-100988500I0J242500D01*
G01*
X127242000Y-100503500D01*
G75*
G02*
X127484500Y-100261000I242500J0D01*
G01*
X127969500Y-100261000D01*
G75*
G02*
X128212000Y-100503500I0J-242500D01*
G01*
G37*
D11*
G36*
X128402307Y-99794799D02*
G01*
X128390582Y-99791242D01*
X128379777Y-99785467D01*
X128370306Y-99777694D01*
X128362533Y-99768223D01*
X128356758Y-99757418D01*
X128353201Y-99745693D01*
X128352000Y-99733500D01*
X128352000Y-99058500D01*
X128353201Y-99046307D01*
X128356758Y-99034582D01*
X128362533Y-99023777D01*
X128370306Y-99014306D01*
X128379777Y-99006533D01*
X128390582Y-99000758D01*
X128402307Y-98997201D01*
X128414500Y-98996000D01*
X128539500Y-98996000D01*
X128551693Y-98997201D01*
X128563418Y-99000758D01*
X128574223Y-99006533D01*
X128583694Y-99014306D01*
X128591467Y-99023777D01*
X128597242Y-99034582D01*
X128600799Y-99046307D01*
X128602000Y-99058500D01*
X128602000Y-99670112D01*
X128600799Y-99682305D01*
X128597242Y-99694030D01*
X128591467Y-99704835D01*
X128583694Y-99714306D01*
X128520306Y-99777694D01*
X128510835Y-99785467D01*
X128500030Y-99791242D01*
X128488305Y-99794799D01*
X128476112Y-99796000D01*
X128414500Y-99796000D01*
X128402307Y-99794799D01*
G37*
G36*
G01*
X128152000Y-99058500D02*
X128152000Y-99733500D01*
G75*
G02*
X128089500Y-99796000I-62500J0D01*
G01*
X127964500Y-99796000D01*
G75*
G02*
X127902000Y-99733500I0J62500D01*
G01*
X127902000Y-99058500D01*
G75*
G02*
X127964500Y-98996000I62500J0D01*
G01*
X128089500Y-98996000D01*
G75*
G02*
X128152000Y-99058500I0J-62500D01*
G01*
G37*
G36*
G01*
X127702000Y-99058500D02*
X127702000Y-99733500D01*
G75*
G02*
X127639500Y-99796000I-62500J0D01*
G01*
X127514500Y-99796000D01*
G75*
G02*
X127452000Y-99733500I0J62500D01*
G01*
X127452000Y-99058500D01*
G75*
G02*
X127514500Y-98996000I62500J0D01*
G01*
X127639500Y-98996000D01*
G75*
G02*
X127702000Y-99058500I0J-62500D01*
G01*
G37*
G36*
G01*
X127252000Y-99058500D02*
X127252000Y-99733500D01*
G75*
G02*
X127189500Y-99796000I-62500J0D01*
G01*
X127064500Y-99796000D01*
G75*
G02*
X127002000Y-99733500I0J62500D01*
G01*
X127002000Y-99058500D01*
G75*
G02*
X127064500Y-98996000I62500J0D01*
G01*
X127189500Y-98996000D01*
G75*
G02*
X127252000Y-99058500I0J-62500D01*
G01*
G37*
G36*
G01*
X126802000Y-99058500D02*
X126802000Y-99733500D01*
G75*
G02*
X126739500Y-99796000I-62500J0D01*
G01*
X126614500Y-99796000D01*
G75*
G02*
X126552000Y-99733500I0J62500D01*
G01*
X126552000Y-99058500D01*
G75*
G02*
X126614500Y-98996000I62500J0D01*
G01*
X126739500Y-98996000D01*
G75*
G02*
X126802000Y-99058500I0J-62500D01*
G01*
G37*
G36*
G01*
X126352000Y-99058500D02*
X126352000Y-99733500D01*
G75*
G02*
X126289500Y-99796000I-62500J0D01*
G01*
X126164500Y-99796000D01*
G75*
G02*
X126102000Y-99733500I0J62500D01*
G01*
X126102000Y-99058500D01*
G75*
G02*
X126164500Y-98996000I62500J0D01*
G01*
X126289500Y-98996000D01*
G75*
G02*
X126352000Y-99058500I0J-62500D01*
G01*
G37*
G36*
X125765695Y-99794799D02*
G01*
X125753970Y-99791242D01*
X125743165Y-99785467D01*
X125733694Y-99777694D01*
X125670306Y-99714306D01*
X125662533Y-99704835D01*
X125656758Y-99694030D01*
X125653201Y-99682305D01*
X125652000Y-99670112D01*
X125652000Y-99058500D01*
X125653201Y-99046307D01*
X125656758Y-99034582D01*
X125662533Y-99023777D01*
X125670306Y-99014306D01*
X125679777Y-99006533D01*
X125690582Y-99000758D01*
X125702307Y-98997201D01*
X125714500Y-98996000D01*
X125839500Y-98996000D01*
X125851693Y-98997201D01*
X125863418Y-99000758D01*
X125874223Y-99006533D01*
X125883694Y-99014306D01*
X125891467Y-99023777D01*
X125897242Y-99034582D01*
X125900799Y-99046307D01*
X125902000Y-99058500D01*
X125902000Y-99733500D01*
X125900799Y-99745693D01*
X125897242Y-99757418D01*
X125891467Y-99768223D01*
X125883694Y-99777694D01*
X125874223Y-99785467D01*
X125863418Y-99791242D01*
X125851693Y-99794799D01*
X125839500Y-99796000D01*
X125777888Y-99796000D01*
X125765695Y-99794799D01*
G37*
G36*
X124827307Y-100119799D02*
G01*
X124815582Y-100116242D01*
X124804777Y-100110467D01*
X124795306Y-100102694D01*
X124787533Y-100093223D01*
X124781758Y-100082418D01*
X124778201Y-100070693D01*
X124777000Y-100058500D01*
X124777000Y-99933500D01*
X124778201Y-99921307D01*
X124781758Y-99909582D01*
X124787533Y-99898777D01*
X124795306Y-99889306D01*
X124804777Y-99881533D01*
X124815582Y-99875758D01*
X124827307Y-99872201D01*
X124839500Y-99871000D01*
X125451112Y-99871000D01*
X125463305Y-99872201D01*
X125475030Y-99875758D01*
X125485835Y-99881533D01*
X125495306Y-99889306D01*
X125558694Y-99952694D01*
X125566467Y-99962165D01*
X125572242Y-99972970D01*
X125575799Y-99984695D01*
X125577000Y-99996888D01*
X125577000Y-100058500D01*
X125575799Y-100070693D01*
X125572242Y-100082418D01*
X125566467Y-100093223D01*
X125558694Y-100102694D01*
X125549223Y-100110467D01*
X125538418Y-100116242D01*
X125526693Y-100119799D01*
X125514500Y-100121000D01*
X124839500Y-100121000D01*
X124827307Y-100119799D01*
G37*
G36*
G01*
X125577000Y-100383500D02*
X125577000Y-100508500D01*
G75*
G02*
X125514500Y-100571000I-62500J0D01*
G01*
X124839500Y-100571000D01*
G75*
G02*
X124777000Y-100508500I0J62500D01*
G01*
X124777000Y-100383500D01*
G75*
G02*
X124839500Y-100321000I62500J0D01*
G01*
X125514500Y-100321000D01*
G75*
G02*
X125577000Y-100383500I0J-62500D01*
G01*
G37*
G36*
G01*
X125577000Y-100833500D02*
X125577000Y-100958500D01*
G75*
G02*
X125514500Y-101021000I-62500J0D01*
G01*
X124839500Y-101021000D01*
G75*
G02*
X124777000Y-100958500I0J62500D01*
G01*
X124777000Y-100833500D01*
G75*
G02*
X124839500Y-100771000I62500J0D01*
G01*
X125514500Y-100771000D01*
G75*
G02*
X125577000Y-100833500I0J-62500D01*
G01*
G37*
G36*
G01*
X125577000Y-101283500D02*
X125577000Y-101408500D01*
G75*
G02*
X125514500Y-101471000I-62500J0D01*
G01*
X124839500Y-101471000D01*
G75*
G02*
X124777000Y-101408500I0J62500D01*
G01*
X124777000Y-101283500D01*
G75*
G02*
X124839500Y-101221000I62500J0D01*
G01*
X125514500Y-101221000D01*
G75*
G02*
X125577000Y-101283500I0J-62500D01*
G01*
G37*
G36*
G01*
X125577000Y-101733500D02*
X125577000Y-101858500D01*
G75*
G02*
X125514500Y-101921000I-62500J0D01*
G01*
X124839500Y-101921000D01*
G75*
G02*
X124777000Y-101858500I0J62500D01*
G01*
X124777000Y-101733500D01*
G75*
G02*
X124839500Y-101671000I62500J0D01*
G01*
X125514500Y-101671000D01*
G75*
G02*
X125577000Y-101733500I0J-62500D01*
G01*
G37*
G36*
G01*
X125577000Y-102183500D02*
X125577000Y-102308500D01*
G75*
G02*
X125514500Y-102371000I-62500J0D01*
G01*
X124839500Y-102371000D01*
G75*
G02*
X124777000Y-102308500I0J62500D01*
G01*
X124777000Y-102183500D01*
G75*
G02*
X124839500Y-102121000I62500J0D01*
G01*
X125514500Y-102121000D01*
G75*
G02*
X125577000Y-102183500I0J-62500D01*
G01*
G37*
G36*
X124827307Y-102819799D02*
G01*
X124815582Y-102816242D01*
X124804777Y-102810467D01*
X124795306Y-102802694D01*
X124787533Y-102793223D01*
X124781758Y-102782418D01*
X124778201Y-102770693D01*
X124777000Y-102758500D01*
X124777000Y-102633500D01*
X124778201Y-102621307D01*
X124781758Y-102609582D01*
X124787533Y-102598777D01*
X124795306Y-102589306D01*
X124804777Y-102581533D01*
X124815582Y-102575758D01*
X124827307Y-102572201D01*
X124839500Y-102571000D01*
X125514500Y-102571000D01*
X125526693Y-102572201D01*
X125538418Y-102575758D01*
X125549223Y-102581533D01*
X125558694Y-102589306D01*
X125566467Y-102598777D01*
X125572242Y-102609582D01*
X125575799Y-102621307D01*
X125577000Y-102633500D01*
X125577000Y-102695112D01*
X125575799Y-102707305D01*
X125572242Y-102719030D01*
X125566467Y-102729835D01*
X125558694Y-102739306D01*
X125495306Y-102802694D01*
X125485835Y-102810467D01*
X125475030Y-102816242D01*
X125463305Y-102819799D01*
X125451112Y-102821000D01*
X124839500Y-102821000D01*
X124827307Y-102819799D01*
G37*
G36*
X125702307Y-103694799D02*
G01*
X125690582Y-103691242D01*
X125679777Y-103685467D01*
X125670306Y-103677694D01*
X125662533Y-103668223D01*
X125656758Y-103657418D01*
X125653201Y-103645693D01*
X125652000Y-103633500D01*
X125652000Y-103021888D01*
X125653201Y-103009695D01*
X125656758Y-102997970D01*
X125662533Y-102987165D01*
X125670306Y-102977694D01*
X125733694Y-102914306D01*
X125743165Y-102906533D01*
X125753970Y-102900758D01*
X125765695Y-102897201D01*
X125777888Y-102896000D01*
X125839500Y-102896000D01*
X125851693Y-102897201D01*
X125863418Y-102900758D01*
X125874223Y-102906533D01*
X125883694Y-102914306D01*
X125891467Y-102923777D01*
X125897242Y-102934582D01*
X125900799Y-102946307D01*
X125902000Y-102958500D01*
X125902000Y-103633500D01*
X125900799Y-103645693D01*
X125897242Y-103657418D01*
X125891467Y-103668223D01*
X125883694Y-103677694D01*
X125874223Y-103685467D01*
X125863418Y-103691242D01*
X125851693Y-103694799D01*
X125839500Y-103696000D01*
X125714500Y-103696000D01*
X125702307Y-103694799D01*
G37*
G36*
G01*
X126352000Y-102958500D02*
X126352000Y-103633500D01*
G75*
G02*
X126289500Y-103696000I-62500J0D01*
G01*
X126164500Y-103696000D01*
G75*
G02*
X126102000Y-103633500I0J62500D01*
G01*
X126102000Y-102958500D01*
G75*
G02*
X126164500Y-102896000I62500J0D01*
G01*
X126289500Y-102896000D01*
G75*
G02*
X126352000Y-102958500I0J-62500D01*
G01*
G37*
G36*
G01*
X126802000Y-102958500D02*
X126802000Y-103633500D01*
G75*
G02*
X126739500Y-103696000I-62500J0D01*
G01*
X126614500Y-103696000D01*
G75*
G02*
X126552000Y-103633500I0J62500D01*
G01*
X126552000Y-102958500D01*
G75*
G02*
X126614500Y-102896000I62500J0D01*
G01*
X126739500Y-102896000D01*
G75*
G02*
X126802000Y-102958500I0J-62500D01*
G01*
G37*
G36*
G01*
X127252000Y-102958500D02*
X127252000Y-103633500D01*
G75*
G02*
X127189500Y-103696000I-62500J0D01*
G01*
X127064500Y-103696000D01*
G75*
G02*
X127002000Y-103633500I0J62500D01*
G01*
X127002000Y-102958500D01*
G75*
G02*
X127064500Y-102896000I62500J0D01*
G01*
X127189500Y-102896000D01*
G75*
G02*
X127252000Y-102958500I0J-62500D01*
G01*
G37*
G36*
G01*
X127702000Y-102958500D02*
X127702000Y-103633500D01*
G75*
G02*
X127639500Y-103696000I-62500J0D01*
G01*
X127514500Y-103696000D01*
G75*
G02*
X127452000Y-103633500I0J62500D01*
G01*
X127452000Y-102958500D01*
G75*
G02*
X127514500Y-102896000I62500J0D01*
G01*
X127639500Y-102896000D01*
G75*
G02*
X127702000Y-102958500I0J-62500D01*
G01*
G37*
G36*
G01*
X128152000Y-102958500D02*
X128152000Y-103633500D01*
G75*
G02*
X128089500Y-103696000I-62500J0D01*
G01*
X127964500Y-103696000D01*
G75*
G02*
X127902000Y-103633500I0J62500D01*
G01*
X127902000Y-102958500D01*
G75*
G02*
X127964500Y-102896000I62500J0D01*
G01*
X128089500Y-102896000D01*
G75*
G02*
X128152000Y-102958500I0J-62500D01*
G01*
G37*
G36*
X128402307Y-103694799D02*
G01*
X128390582Y-103691242D01*
X128379777Y-103685467D01*
X128370306Y-103677694D01*
X128362533Y-103668223D01*
X128356758Y-103657418D01*
X128353201Y-103645693D01*
X128352000Y-103633500D01*
X128352000Y-102958500D01*
X128353201Y-102946307D01*
X128356758Y-102934582D01*
X128362533Y-102923777D01*
X128370306Y-102914306D01*
X128379777Y-102906533D01*
X128390582Y-102900758D01*
X128402307Y-102897201D01*
X128414500Y-102896000D01*
X128476112Y-102896000D01*
X128488305Y-102897201D01*
X128500030Y-102900758D01*
X128510835Y-102906533D01*
X128520306Y-102914306D01*
X128583694Y-102977694D01*
X128591467Y-102987165D01*
X128597242Y-102997970D01*
X128600799Y-103009695D01*
X128602000Y-103021888D01*
X128602000Y-103633500D01*
X128600799Y-103645693D01*
X128597242Y-103657418D01*
X128591467Y-103668223D01*
X128583694Y-103677694D01*
X128574223Y-103685467D01*
X128563418Y-103691242D01*
X128551693Y-103694799D01*
X128539500Y-103696000D01*
X128414500Y-103696000D01*
X128402307Y-103694799D01*
G37*
G36*
X128790695Y-102819799D02*
G01*
X128778970Y-102816242D01*
X128768165Y-102810467D01*
X128758694Y-102802694D01*
X128695306Y-102739306D01*
X128687533Y-102729835D01*
X128681758Y-102719030D01*
X128678201Y-102707305D01*
X128677000Y-102695112D01*
X128677000Y-102633500D01*
X128678201Y-102621307D01*
X128681758Y-102609582D01*
X128687533Y-102598777D01*
X128695306Y-102589306D01*
X128704777Y-102581533D01*
X128715582Y-102575758D01*
X128727307Y-102572201D01*
X128739500Y-102571000D01*
X129414500Y-102571000D01*
X129426693Y-102572201D01*
X129438418Y-102575758D01*
X129449223Y-102581533D01*
X129458694Y-102589306D01*
X129466467Y-102598777D01*
X129472242Y-102609582D01*
X129475799Y-102621307D01*
X129477000Y-102633500D01*
X129477000Y-102758500D01*
X129475799Y-102770693D01*
X129472242Y-102782418D01*
X129466467Y-102793223D01*
X129458694Y-102802694D01*
X129449223Y-102810467D01*
X129438418Y-102816242D01*
X129426693Y-102819799D01*
X129414500Y-102821000D01*
X128802888Y-102821000D01*
X128790695Y-102819799D01*
G37*
G36*
G01*
X129477000Y-102183500D02*
X129477000Y-102308500D01*
G75*
G02*
X129414500Y-102371000I-62500J0D01*
G01*
X128739500Y-102371000D01*
G75*
G02*
X128677000Y-102308500I0J62500D01*
G01*
X128677000Y-102183500D01*
G75*
G02*
X128739500Y-102121000I62500J0D01*
G01*
X129414500Y-102121000D01*
G75*
G02*
X129477000Y-102183500I0J-62500D01*
G01*
G37*
G36*
G01*
X129477000Y-101733500D02*
X129477000Y-101858500D01*
G75*
G02*
X129414500Y-101921000I-62500J0D01*
G01*
X128739500Y-101921000D01*
G75*
G02*
X128677000Y-101858500I0J62500D01*
G01*
X128677000Y-101733500D01*
G75*
G02*
X128739500Y-101671000I62500J0D01*
G01*
X129414500Y-101671000D01*
G75*
G02*
X129477000Y-101733500I0J-62500D01*
G01*
G37*
G36*
G01*
X129477000Y-101283500D02*
X129477000Y-101408500D01*
G75*
G02*
X129414500Y-101471000I-62500J0D01*
G01*
X128739500Y-101471000D01*
G75*
G02*
X128677000Y-101408500I0J62500D01*
G01*
X128677000Y-101283500D01*
G75*
G02*
X128739500Y-101221000I62500J0D01*
G01*
X129414500Y-101221000D01*
G75*
G02*
X129477000Y-101283500I0J-62500D01*
G01*
G37*
G36*
G01*
X129477000Y-100833500D02*
X129477000Y-100958500D01*
G75*
G02*
X129414500Y-101021000I-62500J0D01*
G01*
X128739500Y-101021000D01*
G75*
G02*
X128677000Y-100958500I0J62500D01*
G01*
X128677000Y-100833500D01*
G75*
G02*
X128739500Y-100771000I62500J0D01*
G01*
X129414500Y-100771000D01*
G75*
G02*
X129477000Y-100833500I0J-62500D01*
G01*
G37*
G36*
G01*
X129477000Y-100383500D02*
X129477000Y-100508500D01*
G75*
G02*
X129414500Y-100571000I-62500J0D01*
G01*
X128739500Y-100571000D01*
G75*
G02*
X128677000Y-100508500I0J62500D01*
G01*
X128677000Y-100383500D01*
G75*
G02*
X128739500Y-100321000I62500J0D01*
G01*
X129414500Y-100321000D01*
G75*
G02*
X129477000Y-100383500I0J-62500D01*
G01*
G37*
G36*
X128727307Y-100119799D02*
G01*
X128715582Y-100116242D01*
X128704777Y-100110467D01*
X128695306Y-100102694D01*
X128687533Y-100093223D01*
X128681758Y-100082418D01*
X128678201Y-100070693D01*
X128677000Y-100058500D01*
X128677000Y-99996888D01*
X128678201Y-99984695D01*
X128681758Y-99972970D01*
X128687533Y-99962165D01*
X128695306Y-99952694D01*
X128758694Y-99889306D01*
X128768165Y-99881533D01*
X128778970Y-99875758D01*
X128790695Y-99872201D01*
X128802888Y-99871000D01*
X129414500Y-99871000D01*
X129426693Y-99872201D01*
X129438418Y-99875758D01*
X129449223Y-99881533D01*
X129458694Y-99889306D01*
X129466467Y-99898777D01*
X129472242Y-99909582D01*
X129475799Y-99921307D01*
X129477000Y-99933500D01*
X129477000Y-100058500D01*
X129475799Y-100070693D01*
X129472242Y-100082418D01*
X129466467Y-100093223D01*
X129458694Y-100102694D01*
X129449223Y-100110467D01*
X129438418Y-100116242D01*
X129426693Y-100119799D01*
X129414500Y-100121000D01*
X128739500Y-100121000D01*
X128727307Y-100119799D01*
G37*
%TD*%
%TO.C,R30*%
G36*
G01*
X132228000Y-115653000D02*
X131678000Y-115653000D01*
G75*
G02*
X131478000Y-115453000I0J200000D01*
G01*
X131478000Y-115053000D01*
G75*
G02*
X131678000Y-114853000I200000J0D01*
G01*
X132228000Y-114853000D01*
G75*
G02*
X132428000Y-115053000I0J-200000D01*
G01*
X132428000Y-115453000D01*
G75*
G02*
X132228000Y-115653000I-200000J0D01*
G01*
G37*
G36*
G01*
X132228000Y-117303000D02*
X131678000Y-117303000D01*
G75*
G02*
X131478000Y-117103000I0J200000D01*
G01*
X131478000Y-116703000D01*
G75*
G02*
X131678000Y-116503000I200000J0D01*
G01*
X132228000Y-116503000D01*
G75*
G02*
X132428000Y-116703000I0J-200000D01*
G01*
X132428000Y-117103000D01*
G75*
G02*
X132228000Y-117303000I-200000J0D01*
G01*
G37*
%TD*%
%TO.C,R29*%
G36*
G01*
X132290000Y-110977000D02*
X132290000Y-111527000D01*
G75*
G02*
X132090000Y-111727000I-200000J0D01*
G01*
X131690000Y-111727000D01*
G75*
G02*
X131490000Y-111527000I0J200000D01*
G01*
X131490000Y-110977000D01*
G75*
G02*
X131690000Y-110777000I200000J0D01*
G01*
X132090000Y-110777000D01*
G75*
G02*
X132290000Y-110977000I0J-200000D01*
G01*
G37*
G36*
G01*
X133940000Y-110977000D02*
X133940000Y-111527000D01*
G75*
G02*
X133740000Y-111727000I-200000J0D01*
G01*
X133340000Y-111727000D01*
G75*
G02*
X133140000Y-111527000I0J200000D01*
G01*
X133140000Y-110977000D01*
G75*
G02*
X133340000Y-110777000I200000J0D01*
G01*
X133740000Y-110777000D01*
G75*
G02*
X133940000Y-110977000I0J-200000D01*
G01*
G37*
%TD*%
%TO.C,R28*%
G36*
G01*
X128376000Y-106851000D02*
X128926000Y-106851000D01*
G75*
G02*
X129126000Y-107051000I0J-200000D01*
G01*
X129126000Y-107451000D01*
G75*
G02*
X128926000Y-107651000I-200000J0D01*
G01*
X128376000Y-107651000D01*
G75*
G02*
X128176000Y-107451000I0J200000D01*
G01*
X128176000Y-107051000D01*
G75*
G02*
X128376000Y-106851000I200000J0D01*
G01*
G37*
G36*
G01*
X128376000Y-105201000D02*
X128926000Y-105201000D01*
G75*
G02*
X129126000Y-105401000I0J-200000D01*
G01*
X129126000Y-105801000D01*
G75*
G02*
X128926000Y-106001000I-200000J0D01*
G01*
X128376000Y-106001000D01*
G75*
G02*
X128176000Y-105801000I0J200000D01*
G01*
X128176000Y-105401000D01*
G75*
G02*
X128376000Y-105201000I200000J0D01*
G01*
G37*
%TD*%
%TO.C,R27*%
G36*
G01*
X129900000Y-106851000D02*
X130450000Y-106851000D01*
G75*
G02*
X130650000Y-107051000I0J-200000D01*
G01*
X130650000Y-107451000D01*
G75*
G02*
X130450000Y-107651000I-200000J0D01*
G01*
X129900000Y-107651000D01*
G75*
G02*
X129700000Y-107451000I0J200000D01*
G01*
X129700000Y-107051000D01*
G75*
G02*
X129900000Y-106851000I200000J0D01*
G01*
G37*
G36*
G01*
X129900000Y-105201000D02*
X130450000Y-105201000D01*
G75*
G02*
X130650000Y-105401000I0J-200000D01*
G01*
X130650000Y-105801000D01*
G75*
G02*
X130450000Y-106001000I-200000J0D01*
G01*
X129900000Y-106001000D01*
G75*
G02*
X129700000Y-105801000I0J200000D01*
G01*
X129700000Y-105401000D01*
G75*
G02*
X129900000Y-105201000I200000J0D01*
G01*
G37*
%TD*%
%TO.C,R26*%
G36*
G01*
X133879000Y-103461000D02*
X133329000Y-103461000D01*
G75*
G02*
X133129000Y-103261000I0J200000D01*
G01*
X133129000Y-102861000D01*
G75*
G02*
X133329000Y-102661000I200000J0D01*
G01*
X133879000Y-102661000D01*
G75*
G02*
X134079000Y-102861000I0J-200000D01*
G01*
X134079000Y-103261000D01*
G75*
G02*
X133879000Y-103461000I-200000J0D01*
G01*
G37*
G36*
G01*
X133879000Y-105111000D02*
X133329000Y-105111000D01*
G75*
G02*
X133129000Y-104911000I0J200000D01*
G01*
X133129000Y-104511000D01*
G75*
G02*
X133329000Y-104311000I200000J0D01*
G01*
X133879000Y-104311000D01*
G75*
G02*
X134079000Y-104511000I0J-200000D01*
G01*
X134079000Y-104911000D01*
G75*
G02*
X133879000Y-105111000I-200000J0D01*
G01*
G37*
%TD*%
%TO.C,R25*%
G36*
G01*
X133521000Y-99843000D02*
X133521000Y-99293000D01*
G75*
G02*
X133721000Y-99093000I200000J0D01*
G01*
X134121000Y-99093000D01*
G75*
G02*
X134321000Y-99293000I0J-200000D01*
G01*
X134321000Y-99843000D01*
G75*
G02*
X134121000Y-100043000I-200000J0D01*
G01*
X133721000Y-100043000D01*
G75*
G02*
X133521000Y-99843000I0J200000D01*
G01*
G37*
G36*
G01*
X131871000Y-99843000D02*
X131871000Y-99293000D01*
G75*
G02*
X132071000Y-99093000I200000J0D01*
G01*
X132471000Y-99093000D01*
G75*
G02*
X132671000Y-99293000I0J-200000D01*
G01*
X132671000Y-99843000D01*
G75*
G02*
X132471000Y-100043000I-200000J0D01*
G01*
X132071000Y-100043000D01*
G75*
G02*
X131871000Y-99843000I0J200000D01*
G01*
G37*
%TD*%
%TO.C,R24*%
G36*
G01*
X133521000Y-97811000D02*
X133521000Y-97261000D01*
G75*
G02*
X133721000Y-97061000I200000J0D01*
G01*
X134121000Y-97061000D01*
G75*
G02*
X134321000Y-97261000I0J-200000D01*
G01*
X134321000Y-97811000D01*
G75*
G02*
X134121000Y-98011000I-200000J0D01*
G01*
X133721000Y-98011000D01*
G75*
G02*
X133521000Y-97811000I0J200000D01*
G01*
G37*
G36*
G01*
X131871000Y-97811000D02*
X131871000Y-97261000D01*
G75*
G02*
X132071000Y-97061000I200000J0D01*
G01*
X132471000Y-97061000D01*
G75*
G02*
X132671000Y-97261000I0J-200000D01*
G01*
X132671000Y-97811000D01*
G75*
G02*
X132471000Y-98011000I-200000J0D01*
G01*
X132071000Y-98011000D01*
G75*
G02*
X131871000Y-97811000I0J200000D01*
G01*
G37*
%TD*%
%TO.C,R23*%
G36*
G01*
X129942000Y-94571000D02*
X129392000Y-94571000D01*
G75*
G02*
X129192000Y-94371000I0J200000D01*
G01*
X129192000Y-93971000D01*
G75*
G02*
X129392000Y-93771000I200000J0D01*
G01*
X129942000Y-93771000D01*
G75*
G02*
X130142000Y-93971000I0J-200000D01*
G01*
X130142000Y-94371000D01*
G75*
G02*
X129942000Y-94571000I-200000J0D01*
G01*
G37*
G36*
G01*
X129942000Y-96221000D02*
X129392000Y-96221000D01*
G75*
G02*
X129192000Y-96021000I0J200000D01*
G01*
X129192000Y-95621000D01*
G75*
G02*
X129392000Y-95421000I200000J0D01*
G01*
X129942000Y-95421000D01*
G75*
G02*
X130142000Y-95621000I0J-200000D01*
G01*
X130142000Y-96021000D01*
G75*
G02*
X129942000Y-96221000I-200000J0D01*
G01*
G37*
%TD*%
%TO.C,R22*%
G36*
G01*
X128418000Y-94571000D02*
X127868000Y-94571000D01*
G75*
G02*
X127668000Y-94371000I0J200000D01*
G01*
X127668000Y-93971000D01*
G75*
G02*
X127868000Y-93771000I200000J0D01*
G01*
X128418000Y-93771000D01*
G75*
G02*
X128618000Y-93971000I0J-200000D01*
G01*
X128618000Y-94371000D01*
G75*
G02*
X128418000Y-94571000I-200000J0D01*
G01*
G37*
G36*
G01*
X128418000Y-96221000D02*
X127868000Y-96221000D01*
G75*
G02*
X127668000Y-96021000I0J200000D01*
G01*
X127668000Y-95621000D01*
G75*
G02*
X127868000Y-95421000I200000J0D01*
G01*
X128418000Y-95421000D01*
G75*
G02*
X128618000Y-95621000I0J-200000D01*
G01*
X128618000Y-96021000D01*
G75*
G02*
X128418000Y-96221000I-200000J0D01*
G01*
G37*
%TD*%
%TO.C,R21*%
G36*
G01*
X126894000Y-94571000D02*
X126344000Y-94571000D01*
G75*
G02*
X126144000Y-94371000I0J200000D01*
G01*
X126144000Y-93971000D01*
G75*
G02*
X126344000Y-93771000I200000J0D01*
G01*
X126894000Y-93771000D01*
G75*
G02*
X127094000Y-93971000I0J-200000D01*
G01*
X127094000Y-94371000D01*
G75*
G02*
X126894000Y-94571000I-200000J0D01*
G01*
G37*
G36*
G01*
X126894000Y-96221000D02*
X126344000Y-96221000D01*
G75*
G02*
X126144000Y-96021000I0J200000D01*
G01*
X126144000Y-95621000D01*
G75*
G02*
X126344000Y-95421000I200000J0D01*
G01*
X126894000Y-95421000D01*
G75*
G02*
X127094000Y-95621000I0J-200000D01*
G01*
X127094000Y-96021000D01*
G75*
G02*
X126894000Y-96221000I-200000J0D01*
G01*
G37*
%TD*%
%TO.C,R20*%
G36*
G01*
X130639000Y-90911000D02*
X130639000Y-91461000D01*
G75*
G02*
X130439000Y-91661000I-200000J0D01*
G01*
X130039000Y-91661000D01*
G75*
G02*
X129839000Y-91461000I0J200000D01*
G01*
X129839000Y-90911000D01*
G75*
G02*
X130039000Y-90711000I200000J0D01*
G01*
X130439000Y-90711000D01*
G75*
G02*
X130639000Y-90911000I0J-200000D01*
G01*
G37*
G36*
G01*
X132289000Y-90911000D02*
X132289000Y-91461000D01*
G75*
G02*
X132089000Y-91661000I-200000J0D01*
G01*
X131689000Y-91661000D01*
G75*
G02*
X131489000Y-91461000I0J200000D01*
G01*
X131489000Y-90911000D01*
G75*
G02*
X131689000Y-90711000I200000J0D01*
G01*
X132089000Y-90711000D01*
G75*
G02*
X132289000Y-90911000I0J-200000D01*
G01*
G37*
%TD*%
%TO.C,R19*%
G36*
G01*
X132036000Y-85577000D02*
X132036000Y-86127000D01*
G75*
G02*
X131836000Y-86327000I-200000J0D01*
G01*
X131436000Y-86327000D01*
G75*
G02*
X131236000Y-86127000I0J200000D01*
G01*
X131236000Y-85577000D01*
G75*
G02*
X131436000Y-85377000I200000J0D01*
G01*
X131836000Y-85377000D01*
G75*
G02*
X132036000Y-85577000I0J-200000D01*
G01*
G37*
G36*
G01*
X133686000Y-85577000D02*
X133686000Y-86127000D01*
G75*
G02*
X133486000Y-86327000I-200000J0D01*
G01*
X133086000Y-86327000D01*
G75*
G02*
X132886000Y-86127000I0J200000D01*
G01*
X132886000Y-85577000D01*
G75*
G02*
X133086000Y-85377000I200000J0D01*
G01*
X133486000Y-85377000D01*
G75*
G02*
X133686000Y-85577000I0J-200000D01*
G01*
G37*
%TD*%
M02*
