M48
; DRILL file {KiCad 5.1.9-73d0e3b20d~88~ubuntu20.04.1} date Sun Jan 31 09:20:35 2021
; FORMAT={-:-/ absolute / inch / decimal}
; #@! TF.CreationDate,2021-01-31T09:20:35-06:00
; #@! TF.GenerationSoftware,Kicad,Pcbnew,5.1.9-73d0e3b20d~88~ubuntu20.04.1
; #@! TF.FileFunction,Plated,1,4,PTH
FMAT,2
INCH
T1C0.0150
T2C0.0315
T3C0.0394
%
G90
G05
T1
X4.7539Y-4.0748
X4.7736Y-4.3406
X4.8019Y-4.3873
X4.813Y-4.1043
X4.8583Y-4.6181
X4.86Y-3.98
X4.86Y-4.04
X4.8622Y-4.2913
X4.8819Y-4.8307
X4.89Y-4.57
X4.9114Y-4.3012
X4.9134Y-4.7677
X4.9409Y-4.1929
X4.96Y-3.86
X4.9606Y-4.311
X4.98Y-3.66
X4.98Y-3.96
X4.98Y-4.02
X4.9803Y-4.2421
X4.9844Y-4.1437
X5.03Y-3.96
X5.03Y-4.02
X5.04Y-3.66
X5.0708Y-4.2592
X5.1Y-4.08
X5.12Y-4.55
X5.12Y-4.76
X5.13Y-4.27
X5.22Y-4.02
X5.23Y-3.97
X5.26Y-4.18
X5.27Y-4.61
X8.2087Y-4.1339
X8.2087Y-4.1732
X8.4843Y-4.2323
X8.5827Y-4.1339
X8.5827Y-4.1732
X8.9567Y-4.1929
X8.9961Y-4.2323
X9.0354Y-4.1535
X9.0945Y-3.9173
X9.1535Y-3.9173
X9.2323Y-4.0354
T2
X2.5079Y-3.5709
X2.5079Y-3.6496
X4.8819Y-4.4724
X4.9606Y-4.4724
X5.0394Y-4.4724
X5.1181Y-4.4724
X7.9724Y-3.9787
X7.9724Y-4.0575
X7.9724Y-4.1362
X7.9724Y-4.215
X7.9724Y-4.2937
X8.2874Y-4.2913
X8.3504Y-4.5551
X8.3661Y-4.2913
X8.4291Y-4.5551
X8.4449Y-4.2913
X8.5236Y-4.2913
X9.4094Y-3.7008
X9.4882Y-3.7008
T3
X4.755Y-3.04
X4.755Y-3.14
X4.755Y-3.24
X4.755Y-3.34
X4.755Y-3.44
X4.755Y-3.54
X4.755Y-3.64
X4.755Y-3.74
X4.755Y-3.84
X4.755Y-3.94
X4.755Y-4.44
X4.755Y-4.54
X4.755Y-4.54
X4.755Y-4.64
X4.755Y-4.64
X4.755Y-4.74
X4.755Y-4.74
X4.755Y-4.84
X4.755Y-4.84
X4.755Y-4.94
X4.945Y-4.83
X4.945Y-4.93
X5.045Y-4.83
X5.045Y-4.93
X5.145Y-4.83
X5.145Y-4.93
X5.355Y-3.04
X5.355Y-3.14
X5.355Y-3.24
X5.355Y-3.34
X5.355Y-3.44
X5.355Y-3.54
X5.355Y-3.64
X5.355Y-3.74
X5.355Y-3.84
X5.355Y-3.94
X5.355Y-4.44
X5.355Y-4.54
X5.355Y-4.54
X5.355Y-4.64
X5.355Y-4.64
X5.355Y-4.74
X5.355Y-4.74
X5.355Y-4.84
X5.355Y-4.84
X5.355Y-4.94
X8.1791Y-3.7008
X8.2791Y-3.7008
X8.3791Y-3.7008
X8.4791Y-3.7008
X8.5791Y-3.7008
X8.6791Y-3.7008
T0
M30
