%TF.GenerationSoftware,KiCad,Pcbnew,5.1.9-73d0e3b20d~88~ubuntu20.04.1*%
%TF.CreationDate,2021-03-15T23:00:21-05:00*%
%TF.ProjectId,portalgun,706f7274-616c-4677-956e-2e6b69636164,Draft A*%
%TF.SameCoordinates,Original*%
%TF.FileFunction,Soldermask,Bot*%
%TF.FilePolarity,Negative*%
%FSLAX46Y46*%
G04 Gerber Fmt 4.6, Leading zero omitted, Abs format (unit mm)*
G04 Created by KiCad (PCBNEW 5.1.9-73d0e3b20d~88~ubuntu20.04.1) date 2021-03-15 23:00:21*
%MOMM*%
%LPD*%
G01*
G04 APERTURE LIST*
%ADD10C,1.700000*%
%ADD11O,0.800000X1.300000*%
%ADD12C,2.500000*%
%ADD13O,1.350000X1.350000*%
%ADD14R,1.350000X1.350000*%
G04 APERTURE END LIST*
D10*
%TO.C,SW1*%
X210058000Y-116078000D03*
X210058000Y-109578000D03*
X214558000Y-116078000D03*
X214558000Y-109578000D03*
%TD*%
%TO.C,SW2*%
X210058000Y-106172000D03*
X210058000Y-99672000D03*
X214558000Y-106172000D03*
X214558000Y-99672000D03*
%TD*%
D11*
%TO.C,J2*%
X224670000Y-94996000D03*
X223420000Y-94996000D03*
X222170000Y-94996000D03*
X220920000Y-94996000D03*
X219670000Y-94996000D03*
X218420000Y-94996000D03*
G36*
G01*
X216770000Y-95446000D02*
X216770000Y-94546000D01*
G75*
G02*
X216970000Y-94346000I200000J0D01*
G01*
X217370000Y-94346000D01*
G75*
G02*
X217570000Y-94546000I0J-200000D01*
G01*
X217570000Y-95446000D01*
G75*
G02*
X217370000Y-95646000I-200000J0D01*
G01*
X216970000Y-95646000D01*
G75*
G02*
X216770000Y-95446000I0J200000D01*
G01*
G37*
%TD*%
%TO.C,J9*%
X212792000Y-94996000D03*
X211542000Y-94996000D03*
X210292000Y-94996000D03*
G36*
G01*
X208642000Y-95446000D02*
X208642000Y-94546000D01*
G75*
G02*
X208842000Y-94346000I200000J0D01*
G01*
X209242000Y-94346000D01*
G75*
G02*
X209442000Y-94546000I0J-200000D01*
G01*
X209442000Y-95446000D01*
G75*
G02*
X209242000Y-95646000I-200000J0D01*
G01*
X208842000Y-95646000D01*
G75*
G02*
X208642000Y-95446000I0J200000D01*
G01*
G37*
%TD*%
D12*
%TO.C,H2*%
X221250000Y-109741900D03*
%TD*%
D13*
%TO.C,J10*%
X184500000Y-116000000D03*
D14*
X186500000Y-116000000D03*
%TD*%
D13*
%TO.C,J5*%
X191872000Y-116070000D03*
D14*
X193872000Y-116070000D03*
%TD*%
D12*
%TO.C,H1*%
X197500000Y-100458200D03*
%TD*%
D13*
%TO.C,J4*%
X202470000Y-94234000D03*
D14*
X204470000Y-94234000D03*
%TD*%
D13*
%TO.C,J3*%
X198264000Y-116070000D03*
D14*
X200264000Y-116070000D03*
%TD*%
D13*
%TO.C,J1*%
X184182000Y-94234000D03*
D14*
X186182000Y-94234000D03*
%TD*%
M02*
