%TF.GenerationSoftware,KiCad,Pcbnew,5.1.10-88a1d61d58~88~ubuntu20.04.1*%
%TF.CreationDate,2021-06-26T15:26:23-05:00*%
%TF.ProjectId,portalgun,706f7274-616c-4677-956e-2e6b69636164,B*%
%TF.SameCoordinates,Original*%
%TF.FileFunction,Other,Fab,Bot*%
%FSLAX46Y46*%
G04 Gerber Fmt 4.6, Leading zero omitted, Abs format (unit mm)*
G04 Created by KiCad (PCBNEW 5.1.10-88a1d61d58~88~ubuntu20.04.1) date 2021-06-26 15:26:23*
%MOMM*%
%LPD*%
G01*
G04 APERTURE LIST*
%ADD10C,0.100000*%
%ADD11C,0.150000*%
%ADD12C,0.300000*%
%ADD13C,0.400000*%
%ADD14C,0.127000*%
G04 APERTURE END LIST*
D10*
D11*
X177002200Y-166007200D02*
X177002200Y-198007200D01*
X285002200Y-198007200D01*
X285002200Y-166007200D01*
X177002200Y-166007200D01*
D10*
D11*
X10000000Y-10000000D02*
X10000000Y-200007200D01*
X287002200Y-200007200D01*
X287002200Y-10000000D01*
X10000000Y-10000000D01*
D10*
D11*
X12000000Y-12000000D02*
X12000000Y-198007200D01*
X285002200Y-198007200D01*
X285002200Y-12000000D01*
X12000000Y-12000000D01*
D10*
D11*
X60000000Y-12000000D02*
X60000000Y-10000000D01*
D10*
D11*
X110000000Y-12000000D02*
X110000000Y-10000000D01*
D10*
D11*
X160000000Y-12000000D02*
X160000000Y-10000000D01*
D10*
D11*
X210000000Y-12000000D02*
X210000000Y-10000000D01*
D10*
D11*
X260000000Y-12000000D02*
X260000000Y-10000000D01*
D10*
D11*
X36065476Y-11588095D02*
X35322619Y-11588095D01*
X35694047Y-11588095D02*
X35694047Y-10288095D01*
X35570238Y-10473809D01*
X35446428Y-10597619D01*
X35322619Y-10659523D01*
D10*
D11*
X85322619Y-10411904D02*
X85384523Y-10350000D01*
X85508333Y-10288095D01*
X85817857Y-10288095D01*
X85941666Y-10350000D01*
X86003571Y-10411904D01*
X86065476Y-10535714D01*
X86065476Y-10659523D01*
X86003571Y-10845238D01*
X85260714Y-11588095D01*
X86065476Y-11588095D01*
D10*
D11*
X135260714Y-10288095D02*
X136065476Y-10288095D01*
X135632142Y-10783333D01*
X135817857Y-10783333D01*
X135941666Y-10845238D01*
X136003571Y-10907142D01*
X136065476Y-11030952D01*
X136065476Y-11340476D01*
X136003571Y-11464285D01*
X135941666Y-11526190D01*
X135817857Y-11588095D01*
X135446428Y-11588095D01*
X135322619Y-11526190D01*
X135260714Y-11464285D01*
D10*
D11*
X185941666Y-10721428D02*
X185941666Y-11588095D01*
X185632142Y-10226190D02*
X185322619Y-11154761D01*
X186127380Y-11154761D01*
D10*
D11*
X236003571Y-10288095D02*
X235384523Y-10288095D01*
X235322619Y-10907142D01*
X235384523Y-10845238D01*
X235508333Y-10783333D01*
X235817857Y-10783333D01*
X235941666Y-10845238D01*
X236003571Y-10907142D01*
X236065476Y-11030952D01*
X236065476Y-11340476D01*
X236003571Y-11464285D01*
X235941666Y-11526190D01*
X235817857Y-11588095D01*
X235508333Y-11588095D01*
X235384523Y-11526190D01*
X235322619Y-11464285D01*
D10*
D11*
X285941666Y-10288095D02*
X285694047Y-10288095D01*
X285570238Y-10350000D01*
X285508333Y-10411904D01*
X285384523Y-10597619D01*
X285322619Y-10845238D01*
X285322619Y-11340476D01*
X285384523Y-11464285D01*
X285446428Y-11526190D01*
X285570238Y-11588095D01*
X285817857Y-11588095D01*
X285941666Y-11526190D01*
X286003571Y-11464285D01*
X286065476Y-11340476D01*
X286065476Y-11030952D01*
X286003571Y-10907142D01*
X285941666Y-10845238D01*
X285817857Y-10783333D01*
X285570238Y-10783333D01*
X285446428Y-10845238D01*
X285384523Y-10907142D01*
X285322619Y-11030952D01*
D10*
D11*
X60000000Y-198007200D02*
X60000000Y-200007200D01*
D10*
D11*
X110000000Y-198007200D02*
X110000000Y-200007200D01*
D10*
D11*
X160000000Y-198007200D02*
X160000000Y-200007200D01*
D10*
D11*
X210000000Y-198007200D02*
X210000000Y-200007200D01*
D10*
D11*
X260000000Y-198007200D02*
X260000000Y-200007200D01*
D10*
D11*
X36065476Y-199595295D02*
X35322619Y-199595295D01*
X35694047Y-199595295D02*
X35694047Y-198295295D01*
X35570238Y-198481009D01*
X35446428Y-198604819D01*
X35322619Y-198666723D01*
D10*
D11*
X85322619Y-198419104D02*
X85384523Y-198357200D01*
X85508333Y-198295295D01*
X85817857Y-198295295D01*
X85941666Y-198357200D01*
X86003571Y-198419104D01*
X86065476Y-198542914D01*
X86065476Y-198666723D01*
X86003571Y-198852438D01*
X85260714Y-199595295D01*
X86065476Y-199595295D01*
D10*
D11*
X135260714Y-198295295D02*
X136065476Y-198295295D01*
X135632142Y-198790533D01*
X135817857Y-198790533D01*
X135941666Y-198852438D01*
X136003571Y-198914342D01*
X136065476Y-199038152D01*
X136065476Y-199347676D01*
X136003571Y-199471485D01*
X135941666Y-199533390D01*
X135817857Y-199595295D01*
X135446428Y-199595295D01*
X135322619Y-199533390D01*
X135260714Y-199471485D01*
D10*
D11*
X185941666Y-198728628D02*
X185941666Y-199595295D01*
X185632142Y-198233390D02*
X185322619Y-199161961D01*
X186127380Y-199161961D01*
D10*
D11*
X236003571Y-198295295D02*
X235384523Y-198295295D01*
X235322619Y-198914342D01*
X235384523Y-198852438D01*
X235508333Y-198790533D01*
X235817857Y-198790533D01*
X235941666Y-198852438D01*
X236003571Y-198914342D01*
X236065476Y-199038152D01*
X236065476Y-199347676D01*
X236003571Y-199471485D01*
X235941666Y-199533390D01*
X235817857Y-199595295D01*
X235508333Y-199595295D01*
X235384523Y-199533390D01*
X235322619Y-199471485D01*
D10*
D11*
X285941666Y-198295295D02*
X285694047Y-198295295D01*
X285570238Y-198357200D01*
X285508333Y-198419104D01*
X285384523Y-198604819D01*
X285322619Y-198852438D01*
X285322619Y-199347676D01*
X285384523Y-199471485D01*
X285446428Y-199533390D01*
X285570238Y-199595295D01*
X285817857Y-199595295D01*
X285941666Y-199533390D01*
X286003571Y-199471485D01*
X286065476Y-199347676D01*
X286065476Y-199038152D01*
X286003571Y-198914342D01*
X285941666Y-198852438D01*
X285817857Y-198790533D01*
X285570238Y-198790533D01*
X285446428Y-198852438D01*
X285384523Y-198914342D01*
X285322619Y-199038152D01*
D10*
D11*
X10000000Y-60000000D02*
X12000000Y-60000000D01*
D10*
D11*
X10000000Y-110000000D02*
X12000000Y-110000000D01*
D10*
D11*
X10000000Y-160000000D02*
X12000000Y-160000000D01*
D10*
D11*
X10690476Y-35216666D02*
X11309523Y-35216666D01*
X10566666Y-35588095D02*
X11000000Y-34288095D01*
X11433333Y-35588095D01*
D10*
D11*
X11092857Y-84907142D02*
X11278571Y-84969047D01*
X11340476Y-85030952D01*
X11402380Y-85154761D01*
X11402380Y-85340476D01*
X11340476Y-85464285D01*
X11278571Y-85526190D01*
X11154761Y-85588095D01*
X10659523Y-85588095D01*
X10659523Y-84288095D01*
X11092857Y-84288095D01*
X11216666Y-84350000D01*
X11278571Y-84411904D01*
X11340476Y-84535714D01*
X11340476Y-84659523D01*
X11278571Y-84783333D01*
X11216666Y-84845238D01*
X11092857Y-84907142D01*
X10659523Y-84907142D01*
D10*
D11*
X11402380Y-135464285D02*
X11340476Y-135526190D01*
X11154761Y-135588095D01*
X11030952Y-135588095D01*
X10845238Y-135526190D01*
X10721428Y-135402380D01*
X10659523Y-135278571D01*
X10597619Y-135030952D01*
X10597619Y-134845238D01*
X10659523Y-134597619D01*
X10721428Y-134473809D01*
X10845238Y-134350000D01*
X11030952Y-134288095D01*
X11154761Y-134288095D01*
X11340476Y-134350000D01*
X11402380Y-134411904D01*
D10*
D11*
X10659523Y-185588095D02*
X10659523Y-184288095D01*
X10969047Y-184288095D01*
X11154761Y-184350000D01*
X11278571Y-184473809D01*
X11340476Y-184597619D01*
X11402380Y-184845238D01*
X11402380Y-185030952D01*
X11340476Y-185278571D01*
X11278571Y-185402380D01*
X11154761Y-185526190D01*
X10969047Y-185588095D01*
X10659523Y-185588095D01*
D10*
D11*
X287002200Y-60000000D02*
X285002200Y-60000000D01*
D10*
D11*
X287002200Y-110000000D02*
X285002200Y-110000000D01*
D10*
D11*
X287002200Y-160000000D02*
X285002200Y-160000000D01*
D10*
D11*
X285692676Y-35216666D02*
X286311723Y-35216666D01*
X285568866Y-35588095D02*
X286002200Y-34288095D01*
X286435533Y-35588095D01*
D10*
D11*
X286095057Y-84907142D02*
X286280771Y-84969047D01*
X286342676Y-85030952D01*
X286404580Y-85154761D01*
X286404580Y-85340476D01*
X286342676Y-85464285D01*
X286280771Y-85526190D01*
X286156961Y-85588095D01*
X285661723Y-85588095D01*
X285661723Y-84288095D01*
X286095057Y-84288095D01*
X286218866Y-84350000D01*
X286280771Y-84411904D01*
X286342676Y-84535714D01*
X286342676Y-84659523D01*
X286280771Y-84783333D01*
X286218866Y-84845238D01*
X286095057Y-84907142D01*
X285661723Y-84907142D01*
D10*
D11*
X286404580Y-135464285D02*
X286342676Y-135526190D01*
X286156961Y-135588095D01*
X286033152Y-135588095D01*
X285847438Y-135526190D01*
X285723628Y-135402380D01*
X285661723Y-135278571D01*
X285599819Y-135030952D01*
X285599819Y-134845238D01*
X285661723Y-134597619D01*
X285723628Y-134473809D01*
X285847438Y-134350000D01*
X286033152Y-134288095D01*
X286156961Y-134288095D01*
X286342676Y-134350000D01*
X286404580Y-134411904D01*
D10*
D11*
X285661723Y-185588095D02*
X285661723Y-184288095D01*
X285971247Y-184288095D01*
X286156961Y-184350000D01*
X286280771Y-184473809D01*
X286342676Y-184597619D01*
X286404580Y-184845238D01*
X286404580Y-185030952D01*
X286342676Y-185278571D01*
X286280771Y-185402380D01*
X286156961Y-185526190D01*
X285971247Y-185588095D01*
X285661723Y-185588095D01*
D10*
D11*
X200434342Y-193785771D02*
X200434342Y-192285771D01*
X200791485Y-192285771D01*
X201005771Y-192357200D01*
X201148628Y-192500057D01*
X201220057Y-192642914D01*
X201291485Y-192928628D01*
X201291485Y-193142914D01*
X201220057Y-193428628D01*
X201148628Y-193571485D01*
X201005771Y-193714342D01*
X200791485Y-193785771D01*
X200434342Y-193785771D01*
X202577200Y-193785771D02*
X202577200Y-193000057D01*
X202505771Y-192857200D01*
X202362914Y-192785771D01*
X202077200Y-192785771D01*
X201934342Y-192857200D01*
X202577200Y-193714342D02*
X202434342Y-193785771D01*
X202077200Y-193785771D01*
X201934342Y-193714342D01*
X201862914Y-193571485D01*
X201862914Y-193428628D01*
X201934342Y-193285771D01*
X202077200Y-193214342D01*
X202434342Y-193214342D01*
X202577200Y-193142914D01*
X203077200Y-192785771D02*
X203648628Y-192785771D01*
X203291485Y-192285771D02*
X203291485Y-193571485D01*
X203362914Y-193714342D01*
X203505771Y-193785771D01*
X203648628Y-193785771D01*
X204720057Y-193714342D02*
X204577200Y-193785771D01*
X204291485Y-193785771D01*
X204148628Y-193714342D01*
X204077200Y-193571485D01*
X204077200Y-193000057D01*
X204148628Y-192857200D01*
X204291485Y-192785771D01*
X204577200Y-192785771D01*
X204720057Y-192857200D01*
X204791485Y-193000057D01*
X204791485Y-193142914D01*
X204077200Y-193285771D01*
X205434342Y-193642914D02*
X205505771Y-193714342D01*
X205434342Y-193785771D01*
X205362914Y-193714342D01*
X205434342Y-193642914D01*
X205434342Y-193785771D01*
X205434342Y-192857200D02*
X205505771Y-192928628D01*
X205434342Y-193000057D01*
X205362914Y-192928628D01*
X205434342Y-192857200D01*
X205434342Y-193000057D01*
X207220057Y-192428628D02*
X207291485Y-192357200D01*
X207434342Y-192285771D01*
X207791485Y-192285771D01*
X207934342Y-192357200D01*
X208005771Y-192428628D01*
X208077200Y-192571485D01*
X208077200Y-192714342D01*
X208005771Y-192928628D01*
X207148628Y-193785771D01*
X208077200Y-193785771D01*
X209005771Y-192285771D02*
X209148628Y-192285771D01*
X209291485Y-192357200D01*
X209362914Y-192428628D01*
X209434342Y-192571485D01*
X209505771Y-192857200D01*
X209505771Y-193214342D01*
X209434342Y-193500057D01*
X209362914Y-193642914D01*
X209291485Y-193714342D01*
X209148628Y-193785771D01*
X209005771Y-193785771D01*
X208862914Y-193714342D01*
X208791485Y-193642914D01*
X208720057Y-193500057D01*
X208648628Y-193214342D01*
X208648628Y-192857200D01*
X208720057Y-192571485D01*
X208791485Y-192428628D01*
X208862914Y-192357200D01*
X209005771Y-192285771D01*
X210077200Y-192428628D02*
X210148628Y-192357200D01*
X210291485Y-192285771D01*
X210648628Y-192285771D01*
X210791485Y-192357200D01*
X210862914Y-192428628D01*
X210934342Y-192571485D01*
X210934342Y-192714342D01*
X210862914Y-192928628D01*
X210005771Y-193785771D01*
X210934342Y-193785771D01*
X212362914Y-193785771D02*
X211505771Y-193785771D01*
X211934342Y-193785771D02*
X211934342Y-192285771D01*
X211791485Y-192500057D01*
X211648628Y-192642914D01*
X211505771Y-192714342D01*
X213005771Y-193214342D02*
X214148628Y-193214342D01*
X215148628Y-192285771D02*
X215291485Y-192285771D01*
X215434342Y-192357200D01*
X215505771Y-192428628D01*
X215577200Y-192571485D01*
X215648628Y-192857200D01*
X215648628Y-193214342D01*
X215577200Y-193500057D01*
X215505771Y-193642914D01*
X215434342Y-193714342D01*
X215291485Y-193785771D01*
X215148628Y-193785771D01*
X215005771Y-193714342D01*
X214934342Y-193642914D01*
X214862914Y-193500057D01*
X214791485Y-193214342D01*
X214791485Y-192857200D01*
X214862914Y-192571485D01*
X214934342Y-192428628D01*
X215005771Y-192357200D01*
X215148628Y-192285771D01*
X216934342Y-192285771D02*
X216648628Y-192285771D01*
X216505771Y-192357200D01*
X216434342Y-192428628D01*
X216291485Y-192642914D01*
X216220057Y-192928628D01*
X216220057Y-193500057D01*
X216291485Y-193642914D01*
X216362914Y-193714342D01*
X216505771Y-193785771D01*
X216791485Y-193785771D01*
X216934342Y-193714342D01*
X217005771Y-193642914D01*
X217077200Y-193500057D01*
X217077200Y-193142914D01*
X217005771Y-193000057D01*
X216934342Y-192928628D01*
X216791485Y-192857200D01*
X216505771Y-192857200D01*
X216362914Y-192928628D01*
X216291485Y-193000057D01*
X216220057Y-193142914D01*
X217720057Y-193214342D02*
X218862914Y-193214342D01*
X219505771Y-192428628D02*
X219577200Y-192357200D01*
X219720057Y-192285771D01*
X220077200Y-192285771D01*
X220220057Y-192357200D01*
X220291485Y-192428628D01*
X220362914Y-192571485D01*
X220362914Y-192714342D01*
X220291485Y-192928628D01*
X219434342Y-193785771D01*
X220362914Y-193785771D01*
X221648628Y-192285771D02*
X221362914Y-192285771D01*
X221220057Y-192357200D01*
X221148628Y-192428628D01*
X221005771Y-192642914D01*
X220934342Y-192928628D01*
X220934342Y-193500057D01*
X221005771Y-193642914D01*
X221077200Y-193714342D01*
X221220057Y-193785771D01*
X221505771Y-193785771D01*
X221648628Y-193714342D01*
X221720057Y-193642914D01*
X221791485Y-193500057D01*
X221791485Y-193142914D01*
X221720057Y-193000057D01*
X221648628Y-192928628D01*
X221505771Y-192857200D01*
X221220057Y-192857200D01*
X221077200Y-192928628D01*
X221005771Y-193000057D01*
X220934342Y-193142914D01*
D10*
D11*
X177002200Y-194507200D02*
X285002200Y-194507200D01*
D10*
D11*
X178434342Y-196585771D02*
X178434342Y-195085771D01*
X179291485Y-196585771D02*
X178648628Y-195728628D01*
X179291485Y-195085771D02*
X178434342Y-195942914D01*
X179934342Y-196585771D02*
X179934342Y-195585771D01*
X179934342Y-195085771D02*
X179862914Y-195157200D01*
X179934342Y-195228628D01*
X180005771Y-195157200D01*
X179934342Y-195085771D01*
X179934342Y-195228628D01*
X181505771Y-196442914D02*
X181434342Y-196514342D01*
X181220057Y-196585771D01*
X181077200Y-196585771D01*
X180862914Y-196514342D01*
X180720057Y-196371485D01*
X180648628Y-196228628D01*
X180577200Y-195942914D01*
X180577200Y-195728628D01*
X180648628Y-195442914D01*
X180720057Y-195300057D01*
X180862914Y-195157200D01*
X181077200Y-195085771D01*
X181220057Y-195085771D01*
X181434342Y-195157200D01*
X181505771Y-195228628D01*
X182791485Y-196585771D02*
X182791485Y-195800057D01*
X182720057Y-195657200D01*
X182577200Y-195585771D01*
X182291485Y-195585771D01*
X182148628Y-195657200D01*
X182791485Y-196514342D02*
X182648628Y-196585771D01*
X182291485Y-196585771D01*
X182148628Y-196514342D01*
X182077200Y-196371485D01*
X182077200Y-196228628D01*
X182148628Y-196085771D01*
X182291485Y-196014342D01*
X182648628Y-196014342D01*
X182791485Y-195942914D01*
X184148628Y-196585771D02*
X184148628Y-195085771D01*
X184148628Y-196514342D02*
X184005771Y-196585771D01*
X183720057Y-196585771D01*
X183577200Y-196514342D01*
X183505771Y-196442914D01*
X183434342Y-196300057D01*
X183434342Y-195871485D01*
X183505771Y-195728628D01*
X183577200Y-195657200D01*
X183720057Y-195585771D01*
X184005771Y-195585771D01*
X184148628Y-195657200D01*
X186005771Y-195800057D02*
X186505771Y-195800057D01*
X186720057Y-196585771D02*
X186005771Y-196585771D01*
X186005771Y-195085771D01*
X186720057Y-195085771D01*
X187362914Y-196442914D02*
X187434342Y-196514342D01*
X187362914Y-196585771D01*
X187291485Y-196514342D01*
X187362914Y-196442914D01*
X187362914Y-196585771D01*
X188077200Y-196585771D02*
X188077200Y-195085771D01*
X188434342Y-195085771D01*
X188648628Y-195157200D01*
X188791485Y-195300057D01*
X188862914Y-195442914D01*
X188934342Y-195728628D01*
X188934342Y-195942914D01*
X188862914Y-196228628D01*
X188791485Y-196371485D01*
X188648628Y-196514342D01*
X188434342Y-196585771D01*
X188077200Y-196585771D01*
X189577200Y-196442914D02*
X189648628Y-196514342D01*
X189577200Y-196585771D01*
X189505771Y-196514342D01*
X189577200Y-196442914D01*
X189577200Y-196585771D01*
X190220057Y-196157200D02*
X190934342Y-196157200D01*
X190077200Y-196585771D02*
X190577200Y-195085771D01*
X191077200Y-196585771D01*
X191577200Y-196442914D02*
X191648628Y-196514342D01*
X191577200Y-196585771D01*
X191505771Y-196514342D01*
X191577200Y-196442914D01*
X191577200Y-196585771D01*
X194577200Y-196585771D02*
X194577200Y-195085771D01*
X194720057Y-196014342D02*
X195148628Y-196585771D01*
X195148628Y-195585771D02*
X194577200Y-196157200D01*
X195791485Y-196585771D02*
X195791485Y-195585771D01*
X195791485Y-195085771D02*
X195720057Y-195157200D01*
X195791485Y-195228628D01*
X195862914Y-195157200D01*
X195791485Y-195085771D01*
X195791485Y-195228628D01*
X197148628Y-196514342D02*
X197005771Y-196585771D01*
X196720057Y-196585771D01*
X196577200Y-196514342D01*
X196505771Y-196442914D01*
X196434342Y-196300057D01*
X196434342Y-195871485D01*
X196505771Y-195728628D01*
X196577200Y-195657200D01*
X196720057Y-195585771D01*
X197005771Y-195585771D01*
X197148628Y-195657200D01*
X198434342Y-196585771D02*
X198434342Y-195800057D01*
X198362914Y-195657200D01*
X198220057Y-195585771D01*
X197934342Y-195585771D01*
X197791485Y-195657200D01*
X198434342Y-196514342D02*
X198291485Y-196585771D01*
X197934342Y-196585771D01*
X197791485Y-196514342D01*
X197720057Y-196371485D01*
X197720057Y-196228628D01*
X197791485Y-196085771D01*
X197934342Y-196014342D01*
X198291485Y-196014342D01*
X198434342Y-195942914D01*
X199791485Y-196585771D02*
X199791485Y-195085771D01*
X199791485Y-196514342D02*
X199648628Y-196585771D01*
X199362914Y-196585771D01*
X199220057Y-196514342D01*
X199148628Y-196442914D01*
X199077200Y-196300057D01*
X199077200Y-195871485D01*
X199148628Y-195728628D01*
X199220057Y-195657200D01*
X199362914Y-195585771D01*
X199648628Y-195585771D01*
X199791485Y-195657200D01*
X202362914Y-195085771D02*
X201648628Y-195085771D01*
X201577200Y-195800057D01*
X201648628Y-195728628D01*
X201791485Y-195657200D01*
X202148628Y-195657200D01*
X202291485Y-195728628D01*
X202362914Y-195800057D01*
X202434342Y-195942914D01*
X202434342Y-196300057D01*
X202362914Y-196442914D01*
X202291485Y-196514342D01*
X202148628Y-196585771D01*
X201791485Y-196585771D01*
X201648628Y-196514342D01*
X201577200Y-196442914D01*
X203077200Y-196442914D02*
X203148628Y-196514342D01*
X203077200Y-196585771D01*
X203005771Y-196514342D01*
X203077200Y-196442914D01*
X203077200Y-196585771D01*
X204577200Y-196585771D02*
X203720057Y-196585771D01*
X204148628Y-196585771D02*
X204148628Y-195085771D01*
X204005771Y-195300057D01*
X203862914Y-195442914D01*
X203720057Y-195514342D01*
X205220057Y-196442914D02*
X205291485Y-196514342D01*
X205220057Y-196585771D01*
X205148628Y-196514342D01*
X205220057Y-196442914D01*
X205220057Y-196585771D01*
X206720057Y-196585771D02*
X205862914Y-196585771D01*
X206291485Y-196585771D02*
X206291485Y-195085771D01*
X206148628Y-195300057D01*
X206005771Y-195442914D01*
X205862914Y-195514342D01*
X207648628Y-195085771D02*
X207791485Y-195085771D01*
X207934342Y-195157200D01*
X208005771Y-195228628D01*
X208077200Y-195371485D01*
X208148628Y-195657200D01*
X208148628Y-196014342D01*
X208077200Y-196300057D01*
X208005771Y-196442914D01*
X207934342Y-196514342D01*
X207791485Y-196585771D01*
X207648628Y-196585771D01*
X207505771Y-196514342D01*
X207434342Y-196442914D01*
X207362914Y-196300057D01*
X207291485Y-196014342D01*
X207291485Y-195657200D01*
X207362914Y-195371485D01*
X207434342Y-195228628D01*
X207505771Y-195157200D01*
X207648628Y-195085771D01*
X208791485Y-196014342D02*
X209934342Y-196014342D01*
X210862914Y-195728628D02*
X210720057Y-195657200D01*
X210648628Y-195585771D01*
X210577200Y-195442914D01*
X210577200Y-195371485D01*
X210648628Y-195228628D01*
X210720057Y-195157200D01*
X210862914Y-195085771D01*
X211148628Y-195085771D01*
X211291485Y-195157200D01*
X211362914Y-195228628D01*
X211434342Y-195371485D01*
X211434342Y-195442914D01*
X211362914Y-195585771D01*
X211291485Y-195657200D01*
X211148628Y-195728628D01*
X210862914Y-195728628D01*
X210720057Y-195800057D01*
X210648628Y-195871485D01*
X210577200Y-196014342D01*
X210577200Y-196300057D01*
X210648628Y-196442914D01*
X210720057Y-196514342D01*
X210862914Y-196585771D01*
X211148628Y-196585771D01*
X211291485Y-196514342D01*
X211362914Y-196442914D01*
X211434342Y-196300057D01*
X211434342Y-196014342D01*
X211362914Y-195871485D01*
X211291485Y-195800057D01*
X211148628Y-195728628D01*
X212291485Y-195728628D02*
X212148628Y-195657200D01*
X212077200Y-195585771D01*
X212005771Y-195442914D01*
X212005771Y-195371485D01*
X212077200Y-195228628D01*
X212148628Y-195157200D01*
X212291485Y-195085771D01*
X212577200Y-195085771D01*
X212720057Y-195157200D01*
X212791485Y-195228628D01*
X212862914Y-195371485D01*
X212862914Y-195442914D01*
X212791485Y-195585771D01*
X212720057Y-195657200D01*
X212577200Y-195728628D01*
X212291485Y-195728628D01*
X212148628Y-195800057D01*
X212077200Y-195871485D01*
X212005771Y-196014342D01*
X212005771Y-196300057D01*
X212077200Y-196442914D01*
X212148628Y-196514342D01*
X212291485Y-196585771D01*
X212577200Y-196585771D01*
X212720057Y-196514342D01*
X212791485Y-196442914D01*
X212862914Y-196300057D01*
X212862914Y-196014342D01*
X212791485Y-195871485D01*
X212720057Y-195800057D01*
X212577200Y-195728628D01*
X214148628Y-196585771D02*
X214148628Y-195800057D01*
X214077200Y-195657200D01*
X213934342Y-195585771D01*
X213648628Y-195585771D01*
X213505771Y-195657200D01*
X214148628Y-196514342D02*
X214005771Y-196585771D01*
X213648628Y-196585771D01*
X213505771Y-196514342D01*
X213434342Y-196371485D01*
X213434342Y-196228628D01*
X213505771Y-196085771D01*
X213648628Y-196014342D01*
X214005771Y-196014342D01*
X214148628Y-195942914D01*
X215648628Y-196585771D02*
X214791485Y-196585771D01*
X215220057Y-196585771D02*
X215220057Y-195085771D01*
X215077200Y-195300057D01*
X214934342Y-195442914D01*
X214791485Y-195514342D01*
X216934342Y-196585771D02*
X216934342Y-195085771D01*
X216934342Y-196514342D02*
X216791485Y-196585771D01*
X216505771Y-196585771D01*
X216362914Y-196514342D01*
X216291485Y-196442914D01*
X216220057Y-196300057D01*
X216220057Y-195871485D01*
X216291485Y-195728628D01*
X216362914Y-195657200D01*
X216505771Y-195585771D01*
X216791485Y-195585771D01*
X216934342Y-195657200D01*
X218291485Y-195085771D02*
X218005771Y-195085771D01*
X217862914Y-195157200D01*
X217791485Y-195228628D01*
X217648628Y-195442914D01*
X217577200Y-195728628D01*
X217577200Y-196300057D01*
X217648628Y-196442914D01*
X217720057Y-196514342D01*
X217862914Y-196585771D01*
X218148628Y-196585771D01*
X218291485Y-196514342D01*
X218362914Y-196442914D01*
X218434342Y-196300057D01*
X218434342Y-195942914D01*
X218362914Y-195800057D01*
X218291485Y-195728628D01*
X218148628Y-195657200D01*
X217862914Y-195657200D01*
X217720057Y-195728628D01*
X217648628Y-195800057D01*
X217577200Y-195942914D01*
X219862914Y-196585771D02*
X219005771Y-196585771D01*
X219434342Y-196585771D02*
X219434342Y-195085771D01*
X219291485Y-195300057D01*
X219148628Y-195442914D01*
X219005771Y-195514342D01*
X221148628Y-196585771D02*
X221148628Y-195085771D01*
X221148628Y-196514342D02*
X221005771Y-196585771D01*
X220720057Y-196585771D01*
X220577200Y-196514342D01*
X220505771Y-196442914D01*
X220434342Y-196300057D01*
X220434342Y-195871485D01*
X220505771Y-195728628D01*
X220577200Y-195657200D01*
X220720057Y-195585771D01*
X221005771Y-195585771D01*
X221148628Y-195657200D01*
X222577200Y-195085771D02*
X221862914Y-195085771D01*
X221791485Y-195800057D01*
X221862914Y-195728628D01*
X222005771Y-195657200D01*
X222362914Y-195657200D01*
X222505771Y-195728628D01*
X222577200Y-195800057D01*
X222648628Y-195942914D01*
X222648628Y-196300057D01*
X222577200Y-196442914D01*
X222505771Y-196514342D01*
X222362914Y-196585771D01*
X222005771Y-196585771D01*
X221862914Y-196514342D01*
X221791485Y-196442914D01*
X223505771Y-195728628D02*
X223362914Y-195657200D01*
X223291485Y-195585771D01*
X223220057Y-195442914D01*
X223220057Y-195371485D01*
X223291485Y-195228628D01*
X223362914Y-195157200D01*
X223505771Y-195085771D01*
X223791485Y-195085771D01*
X223934342Y-195157200D01*
X224005771Y-195228628D01*
X224077200Y-195371485D01*
X224077200Y-195442914D01*
X224005771Y-195585771D01*
X223934342Y-195657200D01*
X223791485Y-195728628D01*
X223505771Y-195728628D01*
X223362914Y-195800057D01*
X223291485Y-195871485D01*
X223220057Y-196014342D01*
X223220057Y-196300057D01*
X223291485Y-196442914D01*
X223362914Y-196514342D01*
X223505771Y-196585771D01*
X223791485Y-196585771D01*
X223934342Y-196514342D01*
X224005771Y-196442914D01*
X224077200Y-196300057D01*
X224077200Y-196014342D01*
X224005771Y-195871485D01*
X223934342Y-195800057D01*
X223791485Y-195728628D01*
X224362914Y-194677200D02*
X225791485Y-194677200D01*
X224934342Y-195728628D02*
X224791485Y-195657200D01*
X224720057Y-195585771D01*
X224648628Y-195442914D01*
X224648628Y-195371485D01*
X224720057Y-195228628D01*
X224791485Y-195157200D01*
X224934342Y-195085771D01*
X225220057Y-195085771D01*
X225362914Y-195157200D01*
X225434342Y-195228628D01*
X225505771Y-195371485D01*
X225505771Y-195442914D01*
X225434342Y-195585771D01*
X225362914Y-195657200D01*
X225220057Y-195728628D01*
X224934342Y-195728628D01*
X224791485Y-195800057D01*
X224720057Y-195871485D01*
X224648628Y-196014342D01*
X224648628Y-196300057D01*
X224720057Y-196442914D01*
X224791485Y-196514342D01*
X224934342Y-196585771D01*
X225220057Y-196585771D01*
X225362914Y-196514342D01*
X225434342Y-196442914D01*
X225505771Y-196300057D01*
X225505771Y-196014342D01*
X225434342Y-195871485D01*
X225362914Y-195800057D01*
X225220057Y-195728628D01*
X225791485Y-194677200D02*
X227220057Y-194677200D01*
X226362914Y-195728628D02*
X226220057Y-195657200D01*
X226148628Y-195585771D01*
X226077199Y-195442914D01*
X226077199Y-195371485D01*
X226148628Y-195228628D01*
X226220057Y-195157200D01*
X226362914Y-195085771D01*
X226648628Y-195085771D01*
X226791485Y-195157200D01*
X226862914Y-195228628D01*
X226934342Y-195371485D01*
X226934342Y-195442914D01*
X226862914Y-195585771D01*
X226791485Y-195657200D01*
X226648628Y-195728628D01*
X226362914Y-195728628D01*
X226220057Y-195800057D01*
X226148628Y-195871485D01*
X226077199Y-196014342D01*
X226077199Y-196300057D01*
X226148628Y-196442914D01*
X226220057Y-196514342D01*
X226362914Y-196585771D01*
X226648628Y-196585771D01*
X226791485Y-196514342D01*
X226862914Y-196442914D01*
X226934342Y-196300057D01*
X226934342Y-196014342D01*
X226862914Y-195871485D01*
X226791485Y-195800057D01*
X226648628Y-195728628D01*
X228220057Y-195585771D02*
X228220057Y-196585771D01*
X227577199Y-195585771D02*
X227577199Y-196371485D01*
X227648628Y-196514342D01*
X227791485Y-196585771D01*
X228005771Y-196585771D01*
X228148628Y-196514342D01*
X228220057Y-196442914D01*
X228934342Y-196585771D02*
X228934342Y-195085771D01*
X228934342Y-195657200D02*
X229077199Y-195585771D01*
X229362914Y-195585771D01*
X229505771Y-195657200D01*
X229577199Y-195728628D01*
X229648628Y-195871485D01*
X229648628Y-196300057D01*
X229577199Y-196442914D01*
X229505771Y-196514342D01*
X229362914Y-196585771D01*
X229077199Y-196585771D01*
X228934342Y-196514342D01*
X230934342Y-195585771D02*
X230934342Y-196585771D01*
X230291485Y-195585771D02*
X230291485Y-196371485D01*
X230362914Y-196514342D01*
X230505771Y-196585771D01*
X230720057Y-196585771D01*
X230862914Y-196514342D01*
X230934342Y-196442914D01*
X231648628Y-195585771D02*
X231648628Y-196585771D01*
X231648628Y-195728628D02*
X231720057Y-195657200D01*
X231862914Y-195585771D01*
X232077199Y-195585771D01*
X232220057Y-195657200D01*
X232291485Y-195800057D01*
X232291485Y-196585771D01*
X232791485Y-195585771D02*
X233362914Y-195585771D01*
X233005771Y-195085771D02*
X233005771Y-196371485D01*
X233077199Y-196514342D01*
X233220057Y-196585771D01*
X233362914Y-196585771D01*
X234505771Y-195585771D02*
X234505771Y-196585771D01*
X233862914Y-195585771D02*
X233862914Y-196371485D01*
X233934342Y-196514342D01*
X234077200Y-196585771D01*
X234291485Y-196585771D01*
X234434342Y-196514342D01*
X234505771Y-196442914D01*
X235148628Y-195228628D02*
X235220057Y-195157200D01*
X235362914Y-195085771D01*
X235720057Y-195085771D01*
X235862914Y-195157200D01*
X235934342Y-195228628D01*
X236005771Y-195371485D01*
X236005771Y-195514342D01*
X235934342Y-195728628D01*
X235077200Y-196585771D01*
X236005771Y-196585771D01*
X236934342Y-195085771D02*
X237077199Y-195085771D01*
X237220057Y-195157200D01*
X237291485Y-195228628D01*
X237362914Y-195371485D01*
X237434342Y-195657200D01*
X237434342Y-196014342D01*
X237362914Y-196300057D01*
X237291485Y-196442914D01*
X237220057Y-196514342D01*
X237077199Y-196585771D01*
X236934342Y-196585771D01*
X236791485Y-196514342D01*
X236720057Y-196442914D01*
X236648628Y-196300057D01*
X236577199Y-196014342D01*
X236577199Y-195657200D01*
X236648628Y-195371485D01*
X236720057Y-195228628D01*
X236791485Y-195157200D01*
X236934342Y-195085771D01*
X238077199Y-196442914D02*
X238148628Y-196514342D01*
X238077199Y-196585771D01*
X238005771Y-196514342D01*
X238077199Y-196442914D01*
X238077199Y-196585771D01*
X239077199Y-195085771D02*
X239220057Y-195085771D01*
X239362914Y-195157200D01*
X239434342Y-195228628D01*
X239505771Y-195371485D01*
X239577199Y-195657200D01*
X239577199Y-196014342D01*
X239505771Y-196300057D01*
X239434342Y-196442914D01*
X239362914Y-196514342D01*
X239220057Y-196585771D01*
X239077199Y-196585771D01*
X238934342Y-196514342D01*
X238862914Y-196442914D01*
X238791485Y-196300057D01*
X238720057Y-196014342D01*
X238720057Y-195657200D01*
X238791485Y-195371485D01*
X238862914Y-195228628D01*
X238934342Y-195157200D01*
X239077199Y-195085771D01*
X240862914Y-195585771D02*
X240862914Y-196585771D01*
X240505771Y-195014342D02*
X240148628Y-196085771D01*
X241077199Y-196085771D01*
X241648628Y-196442914D02*
X241720057Y-196514342D01*
X241648628Y-196585771D01*
X241577199Y-196514342D01*
X241648628Y-196442914D01*
X241648628Y-196585771D01*
X243148628Y-196585771D02*
X242291485Y-196585771D01*
X242720057Y-196585771D02*
X242720057Y-195085771D01*
X242577199Y-195300057D01*
X242434342Y-195442914D01*
X242291485Y-195514342D01*
D10*
D11*
X177002200Y-191507200D02*
X285002200Y-191507200D01*
D10*
D12*
X264411485Y-193785771D02*
X263911485Y-193071485D01*
X263554342Y-193785771D02*
X263554342Y-192285771D01*
X264125771Y-192285771D01*
X264268628Y-192357200D01*
X264340057Y-192428628D01*
X264411485Y-192571485D01*
X264411485Y-192785771D01*
X264340057Y-192928628D01*
X264268628Y-193000057D01*
X264125771Y-193071485D01*
X263554342Y-193071485D01*
X265625771Y-193714342D02*
X265482914Y-193785771D01*
X265197200Y-193785771D01*
X265054342Y-193714342D01*
X264982914Y-193571485D01*
X264982914Y-193000057D01*
X265054342Y-192857200D01*
X265197200Y-192785771D01*
X265482914Y-192785771D01*
X265625771Y-192857200D01*
X265697200Y-193000057D01*
X265697200Y-193142914D01*
X264982914Y-193285771D01*
X266197200Y-192785771D02*
X266554342Y-193785771D01*
X266911485Y-192785771D01*
X267482914Y-193642914D02*
X267554342Y-193714342D01*
X267482914Y-193785771D01*
X267411485Y-193714342D01*
X267482914Y-193642914D01*
X267482914Y-193785771D01*
X267482914Y-192857200D02*
X267554342Y-192928628D01*
X267482914Y-193000057D01*
X267411485Y-192928628D01*
X267482914Y-192857200D01*
X267482914Y-193000057D01*
X269840057Y-193000057D02*
X270054342Y-193071485D01*
X270125771Y-193142914D01*
X270197200Y-193285771D01*
X270197200Y-193500057D01*
X270125771Y-193642914D01*
X270054342Y-193714342D01*
X269911485Y-193785771D01*
X269340057Y-193785771D01*
X269340057Y-192285771D01*
X269840057Y-192285771D01*
X269982914Y-192357200D01*
X270054342Y-192428628D01*
X270125771Y-192571485D01*
X270125771Y-192714342D01*
X270054342Y-192857200D01*
X269982914Y-192928628D01*
X269840057Y-193000057D01*
X269340057Y-193000057D01*
D10*
D11*
X178362914Y-193714342D02*
X178577200Y-193785771D01*
X178934342Y-193785771D01*
X179077200Y-193714342D01*
X179148628Y-193642914D01*
X179220057Y-193500057D01*
X179220057Y-193357200D01*
X179148628Y-193214342D01*
X179077200Y-193142914D01*
X178934342Y-193071485D01*
X178648628Y-193000057D01*
X178505771Y-192928628D01*
X178434342Y-192857200D01*
X178362914Y-192714342D01*
X178362914Y-192571485D01*
X178434342Y-192428628D01*
X178505771Y-192357200D01*
X178648628Y-192285771D01*
X179005771Y-192285771D01*
X179220057Y-192357200D01*
X179862914Y-193785771D02*
X179862914Y-192785771D01*
X179862914Y-192285771D02*
X179791485Y-192357200D01*
X179862914Y-192428628D01*
X179934342Y-192357200D01*
X179862914Y-192285771D01*
X179862914Y-192428628D01*
X180434342Y-192785771D02*
X181220057Y-192785771D01*
X180434342Y-193785771D01*
X181220057Y-193785771D01*
X182362914Y-193714342D02*
X182220057Y-193785771D01*
X181934342Y-193785771D01*
X181791485Y-193714342D01*
X181720057Y-193571485D01*
X181720057Y-193000057D01*
X181791485Y-192857200D01*
X181934342Y-192785771D01*
X182220057Y-192785771D01*
X182362914Y-192857200D01*
X182434342Y-193000057D01*
X182434342Y-193142914D01*
X181720057Y-193285771D01*
X183077200Y-193642914D02*
X183148628Y-193714342D01*
X183077200Y-193785771D01*
X183005771Y-193714342D01*
X183077200Y-193642914D01*
X183077200Y-193785771D01*
X183077200Y-192857200D02*
X183148628Y-192928628D01*
X183077200Y-193000057D01*
X183005771Y-192928628D01*
X183077200Y-192857200D01*
X183077200Y-193000057D01*
X184862914Y-193357200D02*
X185577200Y-193357200D01*
X184720057Y-193785771D02*
X185220057Y-192285771D01*
X185720057Y-193785771D01*
X186862914Y-192785771D02*
X186862914Y-193785771D01*
X186505771Y-192214342D02*
X186148628Y-193285771D01*
X187077200Y-193285771D01*
D10*
D11*
X263434342Y-196585771D02*
X263434342Y-195085771D01*
X264791485Y-196585771D02*
X264791485Y-195085771D01*
X264791485Y-196514342D02*
X264648628Y-196585771D01*
X264362914Y-196585771D01*
X264220057Y-196514342D01*
X264148628Y-196442914D01*
X264077200Y-196300057D01*
X264077200Y-195871485D01*
X264148628Y-195728628D01*
X264220057Y-195657200D01*
X264362914Y-195585771D01*
X264648628Y-195585771D01*
X264791485Y-195657200D01*
X265505771Y-196442914D02*
X265577200Y-196514342D01*
X265505771Y-196585771D01*
X265434342Y-196514342D01*
X265505771Y-196442914D01*
X265505771Y-196585771D01*
X265505771Y-195657200D02*
X265577200Y-195728628D01*
X265505771Y-195800057D01*
X265434342Y-195728628D01*
X265505771Y-195657200D01*
X265505771Y-195800057D01*
X268148628Y-196585771D02*
X267291485Y-196585771D01*
X267720057Y-196585771D02*
X267720057Y-195085771D01*
X267577200Y-195300057D01*
X267434342Y-195442914D01*
X267291485Y-195514342D01*
X269862914Y-195014342D02*
X268577200Y-196942914D01*
X271148628Y-196585771D02*
X270291485Y-196585771D01*
X270720057Y-196585771D02*
X270720057Y-195085771D01*
X270577200Y-195300057D01*
X270434342Y-195442914D01*
X270291485Y-195514342D01*
D10*
D11*
X177002200Y-187507200D02*
X285002200Y-187507200D01*
D10*
D13*
X178714580Y-188211961D02*
X179857438Y-188211961D01*
X179036009Y-190211961D02*
X179286009Y-188211961D01*
X180274104Y-190211961D02*
X180440771Y-188878628D01*
X180524104Y-188211961D02*
X180416961Y-188307200D01*
X180500295Y-188402438D01*
X180607438Y-188307200D01*
X180524104Y-188211961D01*
X180500295Y-188402438D01*
X181107438Y-188878628D02*
X181869342Y-188878628D01*
X181476485Y-188211961D02*
X181262200Y-189926247D01*
X181333628Y-190116723D01*
X181512200Y-190211961D01*
X181702676Y-190211961D01*
X182655057Y-190211961D02*
X182476485Y-190116723D01*
X182405057Y-189926247D01*
X182619342Y-188211961D01*
X184190771Y-190116723D02*
X183988390Y-190211961D01*
X183607438Y-190211961D01*
X183428866Y-190116723D01*
X183357438Y-189926247D01*
X183452676Y-189164342D01*
X183571723Y-188973866D01*
X183774104Y-188878628D01*
X184155057Y-188878628D01*
X184333628Y-188973866D01*
X184405057Y-189164342D01*
X184381247Y-189354819D01*
X183405057Y-189545295D01*
X185155057Y-190021485D02*
X185238390Y-190116723D01*
X185131247Y-190211961D01*
X185047914Y-190116723D01*
X185155057Y-190021485D01*
X185131247Y-190211961D01*
X185286009Y-188973866D02*
X185369342Y-189069104D01*
X185262200Y-189164342D01*
X185178866Y-189069104D01*
X185286009Y-188973866D01*
X185262200Y-189164342D01*
X187607438Y-190211961D02*
X187857438Y-188211961D01*
X188619342Y-188211961D01*
X188797914Y-188307200D01*
X188881247Y-188402438D01*
X188952676Y-188592914D01*
X188916961Y-188878628D01*
X188797914Y-189069104D01*
X188690771Y-189164342D01*
X188488390Y-189259580D01*
X187726485Y-189259580D01*
X189893152Y-190211961D02*
X189714580Y-190116723D01*
X189631247Y-190021485D01*
X189559819Y-189831009D01*
X189631247Y-189259580D01*
X189750295Y-189069104D01*
X189857438Y-188973866D01*
X190059819Y-188878628D01*
X190345533Y-188878628D01*
X190524104Y-188973866D01*
X190607438Y-189069104D01*
X190678866Y-189259580D01*
X190607438Y-189831009D01*
X190488390Y-190021485D01*
X190381247Y-190116723D01*
X190178866Y-190211961D01*
X189893152Y-190211961D01*
X191416961Y-190211961D02*
X191583628Y-188878628D01*
X191536009Y-189259580D02*
X191655057Y-189069104D01*
X191762200Y-188973866D01*
X191964580Y-188878628D01*
X192155057Y-188878628D01*
X192536009Y-188878628D02*
X193297914Y-188878628D01*
X192905057Y-188211961D02*
X192690771Y-189926247D01*
X192762200Y-190116723D01*
X192940771Y-190211961D01*
X193131247Y-190211961D01*
X194655057Y-190211961D02*
X194786009Y-189164342D01*
X194714580Y-188973866D01*
X194536009Y-188878628D01*
X194155057Y-188878628D01*
X193952676Y-188973866D01*
X194666961Y-190116723D02*
X194464580Y-190211961D01*
X193988390Y-190211961D01*
X193809819Y-190116723D01*
X193738390Y-189926247D01*
X193762200Y-189735771D01*
X193881247Y-189545295D01*
X194083628Y-189450057D01*
X194559819Y-189450057D01*
X194762200Y-189354819D01*
X195893152Y-190211961D02*
X195714580Y-190116723D01*
X195643152Y-189926247D01*
X195857438Y-188211961D01*
X199464580Y-188307200D02*
X199286009Y-188211961D01*
X199000295Y-188211961D01*
X198702676Y-188307200D01*
X198488390Y-188497676D01*
X198369342Y-188688152D01*
X198226485Y-189069104D01*
X198190771Y-189354819D01*
X198238390Y-189735771D01*
X198309819Y-189926247D01*
X198476485Y-190116723D01*
X198750295Y-190211961D01*
X198940771Y-190211961D01*
X199238390Y-190116723D01*
X199345533Y-190021485D01*
X199428866Y-189354819D01*
X199047914Y-189354819D01*
X201202676Y-188878628D02*
X201036009Y-190211961D01*
X200345533Y-188878628D02*
X200214580Y-189926247D01*
X200286009Y-190116723D01*
X200464580Y-190211961D01*
X200750295Y-190211961D01*
X200952676Y-190116723D01*
X201059819Y-190021485D01*
X202155057Y-188878628D02*
X201988390Y-190211961D01*
X202131247Y-189069104D02*
X202238390Y-188973866D01*
X202440771Y-188878628D01*
X202726485Y-188878628D01*
X202905057Y-188973866D01*
X202976485Y-189164342D01*
X202845533Y-190211961D01*
X205321723Y-190211961D02*
X205571723Y-188211961D01*
X206059819Y-189640533D01*
X206905057Y-188211961D01*
X206655057Y-190211961D01*
X208464580Y-190211961D02*
X208595533Y-189164342D01*
X208524104Y-188973866D01*
X208345533Y-188878628D01*
X207964580Y-188878628D01*
X207762200Y-188973866D01*
X208476485Y-190116723D02*
X208274104Y-190211961D01*
X207797914Y-190211961D01*
X207619342Y-190116723D01*
X207547914Y-189926247D01*
X207571723Y-189735771D01*
X207690771Y-189545295D01*
X207893152Y-189450057D01*
X208369342Y-189450057D01*
X208571723Y-189354819D01*
X209416961Y-190211961D02*
X209583628Y-188878628D01*
X209666961Y-188211961D02*
X209559819Y-188307200D01*
X209643152Y-188402438D01*
X209750295Y-188307200D01*
X209666961Y-188211961D01*
X209643152Y-188402438D01*
X210536009Y-188878628D02*
X210369342Y-190211961D01*
X210512200Y-189069104D02*
X210619342Y-188973866D01*
X210821723Y-188878628D01*
X211107438Y-188878628D01*
X211286009Y-188973866D01*
X211357438Y-189164342D01*
X211226485Y-190211961D01*
X214500295Y-189164342D02*
X214774104Y-189259580D01*
X214857438Y-189354819D01*
X214928866Y-189545295D01*
X214893152Y-189831009D01*
X214774104Y-190021485D01*
X214666961Y-190116723D01*
X214464580Y-190211961D01*
X213702676Y-190211961D01*
X213952676Y-188211961D01*
X214619342Y-188211961D01*
X214797914Y-188307200D01*
X214881247Y-188402438D01*
X214952676Y-188592914D01*
X214928866Y-188783390D01*
X214809819Y-188973866D01*
X214702676Y-189069104D01*
X214500295Y-189164342D01*
X213833628Y-189164342D01*
X215988390Y-190211961D02*
X215809819Y-190116723D01*
X215726485Y-190021485D01*
X215655057Y-189831009D01*
X215726485Y-189259580D01*
X215845533Y-189069104D01*
X215952676Y-188973866D01*
X216155057Y-188878628D01*
X216440771Y-188878628D01*
X216619342Y-188973866D01*
X216702676Y-189069104D01*
X216774104Y-189259580D01*
X216702676Y-189831009D01*
X216583628Y-190021485D01*
X216476485Y-190116723D01*
X216274104Y-190211961D01*
X215988390Y-190211961D01*
X218369342Y-190211961D02*
X218500295Y-189164342D01*
X218428866Y-188973866D01*
X218250295Y-188878628D01*
X217869342Y-188878628D01*
X217666961Y-188973866D01*
X218381247Y-190116723D02*
X218178866Y-190211961D01*
X217702676Y-190211961D01*
X217524104Y-190116723D01*
X217452676Y-189926247D01*
X217476485Y-189735771D01*
X217595533Y-189545295D01*
X217797914Y-189450057D01*
X218274104Y-189450057D01*
X218476485Y-189354819D01*
X219321723Y-190211961D02*
X219488390Y-188878628D01*
X219440771Y-189259580D02*
X219559819Y-189069104D01*
X219666961Y-188973866D01*
X219869342Y-188878628D01*
X220059819Y-188878628D01*
X221416961Y-190211961D02*
X221666961Y-188211961D01*
X221428866Y-190116723D02*
X221226485Y-190211961D01*
X220845533Y-190211961D01*
X220666961Y-190116723D01*
X220583628Y-190021485D01*
X220512200Y-189831009D01*
X220583628Y-189259580D01*
X220702676Y-189069104D01*
X220809819Y-188973866D01*
X221012200Y-188878628D01*
X221393152Y-188878628D01*
X221571723Y-188973866D01*
D10*
D11*
X178934342Y-185600057D02*
X178434342Y-185600057D01*
X178434342Y-186385771D02*
X178434342Y-184885771D01*
X179148628Y-184885771D01*
X179720057Y-186385771D02*
X179720057Y-185385771D01*
X179720057Y-184885771D02*
X179648628Y-184957200D01*
X179720057Y-185028628D01*
X179791485Y-184957200D01*
X179720057Y-184885771D01*
X179720057Y-185028628D01*
X180648628Y-186385771D02*
X180505771Y-186314342D01*
X180434342Y-186171485D01*
X180434342Y-184885771D01*
X181791485Y-186314342D02*
X181648628Y-186385771D01*
X181362914Y-186385771D01*
X181220057Y-186314342D01*
X181148628Y-186171485D01*
X181148628Y-185600057D01*
X181220057Y-185457200D01*
X181362914Y-185385771D01*
X181648628Y-185385771D01*
X181791485Y-185457200D01*
X181862914Y-185600057D01*
X181862914Y-185742914D01*
X181148628Y-185885771D01*
X182505771Y-186242914D02*
X182577200Y-186314342D01*
X182505771Y-186385771D01*
X182434342Y-186314342D01*
X182505771Y-186242914D01*
X182505771Y-186385771D01*
X182505771Y-185457200D02*
X182577200Y-185528628D01*
X182505771Y-185600057D01*
X182434342Y-185528628D01*
X182505771Y-185457200D01*
X182505771Y-185600057D01*
X184362914Y-185385771D02*
X184362914Y-186885771D01*
X184362914Y-185457200D02*
X184505771Y-185385771D01*
X184791485Y-185385771D01*
X184934342Y-185457200D01*
X185005771Y-185528628D01*
X185077200Y-185671485D01*
X185077200Y-186100057D01*
X185005771Y-186242914D01*
X184934342Y-186314342D01*
X184791485Y-186385771D01*
X184505771Y-186385771D01*
X184362914Y-186314342D01*
X185934342Y-186385771D02*
X185791485Y-186314342D01*
X185720057Y-186242914D01*
X185648628Y-186100057D01*
X185648628Y-185671485D01*
X185720057Y-185528628D01*
X185791485Y-185457200D01*
X185934342Y-185385771D01*
X186148628Y-185385771D01*
X186291485Y-185457200D01*
X186362914Y-185528628D01*
X186434342Y-185671485D01*
X186434342Y-186100057D01*
X186362914Y-186242914D01*
X186291485Y-186314342D01*
X186148628Y-186385771D01*
X185934342Y-186385771D01*
X187077200Y-186385771D02*
X187077200Y-185385771D01*
X187077200Y-185671485D02*
X187148628Y-185528628D01*
X187220057Y-185457200D01*
X187362914Y-185385771D01*
X187505771Y-185385771D01*
X187791485Y-185385771D02*
X188362914Y-185385771D01*
X188005771Y-184885771D02*
X188005771Y-186171485D01*
X188077200Y-186314342D01*
X188220057Y-186385771D01*
X188362914Y-186385771D01*
X189505771Y-186385771D02*
X189505771Y-185600057D01*
X189434342Y-185457200D01*
X189291485Y-185385771D01*
X189005771Y-185385771D01*
X188862914Y-185457200D01*
X189505771Y-186314342D02*
X189362914Y-186385771D01*
X189005771Y-186385771D01*
X188862914Y-186314342D01*
X188791485Y-186171485D01*
X188791485Y-186028628D01*
X188862914Y-185885771D01*
X189005771Y-185814342D01*
X189362914Y-185814342D01*
X189505771Y-185742914D01*
X190434342Y-186385771D02*
X190291485Y-186314342D01*
X190220057Y-186171485D01*
X190220057Y-184885771D01*
X191648628Y-185385771D02*
X191648628Y-186600057D01*
X191577200Y-186742914D01*
X191505771Y-186814342D01*
X191362914Y-186885771D01*
X191148628Y-186885771D01*
X191005771Y-186814342D01*
X191648628Y-186314342D02*
X191505771Y-186385771D01*
X191220057Y-186385771D01*
X191077200Y-186314342D01*
X191005771Y-186242914D01*
X190934342Y-186100057D01*
X190934342Y-185671485D01*
X191005771Y-185528628D01*
X191077200Y-185457200D01*
X191220057Y-185385771D01*
X191505771Y-185385771D01*
X191648628Y-185457200D01*
X193005771Y-185385771D02*
X193005771Y-186385771D01*
X192362914Y-185385771D02*
X192362914Y-186171485D01*
X192434342Y-186314342D01*
X192577200Y-186385771D01*
X192791485Y-186385771D01*
X192934342Y-186314342D01*
X193005771Y-186242914D01*
X193720057Y-185385771D02*
X193720057Y-186385771D01*
X193720057Y-185528628D02*
X193791485Y-185457200D01*
X193934342Y-185385771D01*
X194148628Y-185385771D01*
X194291485Y-185457200D01*
X194362914Y-185600057D01*
X194362914Y-186385771D01*
X195077200Y-186242914D02*
X195148628Y-186314342D01*
X195077200Y-186385771D01*
X195005771Y-186314342D01*
X195077200Y-186242914D01*
X195077200Y-186385771D01*
X195791485Y-186385771D02*
X195791485Y-184885771D01*
X195934342Y-185814342D02*
X196362914Y-186385771D01*
X196362914Y-185385771D02*
X195791485Y-185957200D01*
X197005771Y-186385771D02*
X197005771Y-185385771D01*
X197005771Y-184885771D02*
X196934342Y-184957200D01*
X197005771Y-185028628D01*
X197077200Y-184957200D01*
X197005771Y-184885771D01*
X197005771Y-185028628D01*
X198362914Y-186314342D02*
X198220057Y-186385771D01*
X197934342Y-186385771D01*
X197791485Y-186314342D01*
X197720057Y-186242914D01*
X197648628Y-186100057D01*
X197648628Y-185671485D01*
X197720057Y-185528628D01*
X197791485Y-185457200D01*
X197934342Y-185385771D01*
X198220057Y-185385771D01*
X198362914Y-185457200D01*
X199648628Y-186385771D02*
X199648628Y-185600057D01*
X199577200Y-185457200D01*
X199434342Y-185385771D01*
X199148628Y-185385771D01*
X199005771Y-185457200D01*
X199648628Y-186314342D02*
X199505771Y-186385771D01*
X199148628Y-186385771D01*
X199005771Y-186314342D01*
X198934342Y-186171485D01*
X198934342Y-186028628D01*
X199005771Y-185885771D01*
X199148628Y-185814342D01*
X199505771Y-185814342D01*
X199648628Y-185742914D01*
X201005771Y-186385771D02*
X201005771Y-184885771D01*
X201005771Y-186314342D02*
X200862914Y-186385771D01*
X200577200Y-186385771D01*
X200434342Y-186314342D01*
X200362914Y-186242914D01*
X200291485Y-186100057D01*
X200291485Y-185671485D01*
X200362914Y-185528628D01*
X200434342Y-185457200D01*
X200577200Y-185385771D01*
X200862914Y-185385771D01*
X201005771Y-185457200D01*
X201362914Y-186528628D02*
X202505771Y-186528628D01*
X202862914Y-185385771D02*
X202862914Y-186885771D01*
X202862914Y-185457200D02*
X203005771Y-185385771D01*
X203291485Y-185385771D01*
X203434342Y-185457200D01*
X203505771Y-185528628D01*
X203577200Y-185671485D01*
X203577200Y-186100057D01*
X203505771Y-186242914D01*
X203434342Y-186314342D01*
X203291485Y-186385771D01*
X203005771Y-186385771D01*
X202862914Y-186314342D01*
X204862914Y-186314342D02*
X204720057Y-186385771D01*
X204434342Y-186385771D01*
X204291485Y-186314342D01*
X204220057Y-186242914D01*
X204148628Y-186100057D01*
X204148628Y-185671485D01*
X204220057Y-185528628D01*
X204291485Y-185457200D01*
X204434342Y-185385771D01*
X204720057Y-185385771D01*
X204862914Y-185457200D01*
X205505771Y-186385771D02*
X205505771Y-184885771D01*
X205505771Y-185457200D02*
X205648628Y-185385771D01*
X205934342Y-185385771D01*
X206077200Y-185457200D01*
X206148628Y-185528628D01*
X206220057Y-185671485D01*
X206220057Y-186100057D01*
X206148628Y-186242914D01*
X206077200Y-186314342D01*
X205934342Y-186385771D01*
X205648628Y-186385771D01*
X205505771Y-186314342D01*
D10*
D11*
X177002200Y-181507200D02*
X285002200Y-181507200D01*
D10*
D11*
X178362914Y-183614342D02*
X178577200Y-183685771D01*
X178934342Y-183685771D01*
X179077200Y-183614342D01*
X179148628Y-183542914D01*
X179220057Y-183400057D01*
X179220057Y-183257200D01*
X179148628Y-183114342D01*
X179077200Y-183042914D01*
X178934342Y-182971485D01*
X178648628Y-182900057D01*
X178505771Y-182828628D01*
X178434342Y-182757200D01*
X178362914Y-182614342D01*
X178362914Y-182471485D01*
X178434342Y-182328628D01*
X178505771Y-182257200D01*
X178648628Y-182185771D01*
X179005771Y-182185771D01*
X179220057Y-182257200D01*
X179862914Y-183685771D02*
X179862914Y-182185771D01*
X180505771Y-183685771D02*
X180505771Y-182900057D01*
X180434342Y-182757200D01*
X180291485Y-182685771D01*
X180077200Y-182685771D01*
X179934342Y-182757200D01*
X179862914Y-182828628D01*
X181791485Y-183614342D02*
X181648628Y-183685771D01*
X181362914Y-183685771D01*
X181220057Y-183614342D01*
X181148628Y-183471485D01*
X181148628Y-182900057D01*
X181220057Y-182757200D01*
X181362914Y-182685771D01*
X181648628Y-182685771D01*
X181791485Y-182757200D01*
X181862914Y-182900057D01*
X181862914Y-183042914D01*
X181148628Y-183185771D01*
X183077200Y-183614342D02*
X182934342Y-183685771D01*
X182648628Y-183685771D01*
X182505771Y-183614342D01*
X182434342Y-183471485D01*
X182434342Y-182900057D01*
X182505771Y-182757200D01*
X182648628Y-182685771D01*
X182934342Y-182685771D01*
X183077200Y-182757200D01*
X183148628Y-182900057D01*
X183148628Y-183042914D01*
X182434342Y-183185771D01*
X183577200Y-182685771D02*
X184148628Y-182685771D01*
X183791485Y-182185771D02*
X183791485Y-183471485D01*
X183862914Y-183614342D01*
X184005771Y-183685771D01*
X184148628Y-183685771D01*
X184648628Y-183542914D02*
X184720057Y-183614342D01*
X184648628Y-183685771D01*
X184577200Y-183614342D01*
X184648628Y-183542914D01*
X184648628Y-183685771D01*
X184648628Y-182757200D02*
X184720057Y-182828628D01*
X184648628Y-182900057D01*
X184577200Y-182828628D01*
X184648628Y-182757200D01*
X184648628Y-182900057D01*
D10*
D12*
X178982914Y-179185771D02*
X178982914Y-180257200D01*
X178911485Y-180471485D01*
X178768628Y-180614342D01*
X178554342Y-180685771D01*
X178411485Y-180685771D01*
X180340057Y-180685771D02*
X180340057Y-179900057D01*
X180268628Y-179757200D01*
X180125771Y-179685771D01*
X179840057Y-179685771D01*
X179697200Y-179757200D01*
X180340057Y-180614342D02*
X180197200Y-180685771D01*
X179840057Y-180685771D01*
X179697200Y-180614342D01*
X179625771Y-180471485D01*
X179625771Y-180328628D01*
X179697200Y-180185771D01*
X179840057Y-180114342D01*
X180197200Y-180114342D01*
X180340057Y-180042914D01*
X181697200Y-180614342D02*
X181554342Y-180685771D01*
X181268628Y-180685771D01*
X181125771Y-180614342D01*
X181054342Y-180542914D01*
X180982914Y-180400057D01*
X180982914Y-179971485D01*
X181054342Y-179828628D01*
X181125771Y-179757200D01*
X181268628Y-179685771D01*
X181554342Y-179685771D01*
X181697200Y-179757200D01*
X182554342Y-180685771D02*
X182411485Y-180614342D01*
X182340057Y-180542914D01*
X182268628Y-180400057D01*
X182268628Y-179971485D01*
X182340057Y-179828628D01*
X182411485Y-179757200D01*
X182554342Y-179685771D01*
X182768628Y-179685771D01*
X182911485Y-179757200D01*
X182982914Y-179828628D01*
X183054342Y-179971485D01*
X183054342Y-180400057D01*
X182982914Y-180542914D01*
X182911485Y-180614342D01*
X182768628Y-180685771D01*
X182554342Y-180685771D01*
X183697200Y-180685771D02*
X183697200Y-179185771D01*
X183697200Y-179757200D02*
X183840057Y-179685771D01*
X184125771Y-179685771D01*
X184268628Y-179757200D01*
X184340057Y-179828628D01*
X184411485Y-179971485D01*
X184411485Y-180400057D01*
X184340057Y-180542914D01*
X184268628Y-180614342D01*
X184125771Y-180685771D01*
X183840057Y-180685771D01*
X183697200Y-180614342D01*
X186197200Y-180685771D02*
X186197200Y-179185771D01*
X187054342Y-180685771D02*
X186411485Y-179828628D01*
X187054342Y-179185771D02*
X186197200Y-180042914D01*
X187697200Y-180685771D02*
X187697200Y-179685771D01*
X187697200Y-179185771D02*
X187625771Y-179257200D01*
X187697200Y-179328628D01*
X187768628Y-179257200D01*
X187697200Y-179185771D01*
X187697200Y-179328628D01*
X188625771Y-180685771D02*
X188482914Y-180614342D01*
X188411485Y-180471485D01*
X188411485Y-179185771D01*
X189411485Y-180685771D02*
X189268628Y-180614342D01*
X189197200Y-180471485D01*
X189197200Y-179185771D01*
X190554342Y-180614342D02*
X190411485Y-180685771D01*
X190125771Y-180685771D01*
X189982914Y-180614342D01*
X189911485Y-180471485D01*
X189911485Y-179900057D01*
X189982914Y-179757200D01*
X190125771Y-179685771D01*
X190411485Y-179685771D01*
X190554342Y-179757200D01*
X190625771Y-179900057D01*
X190625771Y-180042914D01*
X189911485Y-180185771D01*
X191482914Y-180685771D02*
X191340057Y-180614342D01*
X191268628Y-180471485D01*
X191268628Y-179185771D01*
X192625771Y-180614342D02*
X192482914Y-180685771D01*
X192197200Y-180685771D01*
X192054342Y-180614342D01*
X191982914Y-180471485D01*
X191982914Y-179900057D01*
X192054342Y-179757200D01*
X192197200Y-179685771D01*
X192482914Y-179685771D01*
X192625771Y-179757200D01*
X192697200Y-179900057D01*
X192697200Y-180042914D01*
X191982914Y-180185771D01*
X193982914Y-180685771D02*
X193982914Y-179900057D01*
X193911485Y-179757200D01*
X193768628Y-179685771D01*
X193482914Y-179685771D01*
X193340057Y-179757200D01*
X193982914Y-180614342D02*
X193840057Y-180685771D01*
X193482914Y-180685771D01*
X193340057Y-180614342D01*
X193268628Y-180471485D01*
X193268628Y-180328628D01*
X193340057Y-180185771D01*
X193482914Y-180114342D01*
X193840057Y-180114342D01*
X193982914Y-180042914D01*
D10*
D11*
X197002200Y-191507200D02*
X197002200Y-194507200D01*
D10*
D11*
X261002200Y-191507200D02*
X261002200Y-198007200D01*
%TO.C,U9*%
X235907000Y-112759000D02*
X236907000Y-111759000D01*
X230707000Y-112759000D02*
X235907000Y-112759000D01*
X230707000Y-107459000D02*
X230707000Y-112759000D01*
X236907000Y-107459000D02*
X230707000Y-107459000D01*
X236907000Y-111759000D02*
X236907000Y-107459000D01*
D10*
%TO.C,C14*%
X238363000Y-104277000D02*
X236363000Y-104277000D01*
X238363000Y-105527000D02*
X238363000Y-104277000D01*
X236363000Y-105527000D02*
X238363000Y-105527000D01*
X236363000Y-104277000D02*
X236363000Y-105527000D01*
%TO.C,C13*%
X238262000Y-109744000D02*
X238262000Y-111744000D01*
X239512000Y-109744000D02*
X238262000Y-109744000D01*
X239512000Y-111744000D02*
X239512000Y-109744000D01*
X238262000Y-111744000D02*
X239512000Y-111744000D01*
%TO.C,R12*%
X225260000Y-97948500D02*
X226860000Y-97948500D01*
X225260000Y-97123500D02*
X225260000Y-97948500D01*
X226860000Y-97123500D02*
X225260000Y-97123500D01*
X226860000Y-97948500D02*
X226860000Y-97123500D01*
%TO.C,R7*%
X224440500Y-104178000D02*
X224440500Y-102578000D01*
X223615500Y-104178000D02*
X224440500Y-104178000D01*
X223615500Y-102578000D02*
X223615500Y-104178000D01*
X224440500Y-102578000D02*
X223615500Y-102578000D01*
%TO.C,R9*%
X239877000Y-115919500D02*
X238277000Y-115919500D01*
X239877000Y-116744500D02*
X239877000Y-115919500D01*
X238277000Y-116744500D02*
X239877000Y-116744500D01*
X238277000Y-115919500D02*
X238277000Y-116744500D01*
%TO.C,R5*%
X222212000Y-97123500D02*
X222212000Y-97948500D01*
X222212000Y-97948500D02*
X223812000Y-97948500D01*
X223812000Y-97948500D02*
X223812000Y-97123500D01*
X223812000Y-97123500D02*
X222212000Y-97123500D01*
%TO.C,U8*%
X222674000Y-100751000D02*
X222674000Y-99901000D01*
X223174000Y-99401000D02*
X224874000Y-99401000D01*
X222674000Y-100751000D02*
X224874000Y-100751000D01*
X224874000Y-100751000D02*
X224874000Y-99401000D01*
X222674000Y-99901000D02*
X223174000Y-99401000D01*
%TO.C,U7*%
X221826000Y-100417000D02*
X221826000Y-101267000D01*
X221326000Y-101767000D02*
X219626000Y-101767000D01*
X221826000Y-100417000D02*
X219626000Y-100417000D01*
X219626000Y-100417000D02*
X219626000Y-101767000D01*
X221826000Y-101267000D02*
X221326000Y-101767000D01*
%TO.C,U6*%
X218778000Y-100417000D02*
X218778000Y-101267000D01*
X218278000Y-101767000D02*
X216578000Y-101767000D01*
X218778000Y-100417000D02*
X216578000Y-100417000D01*
X216578000Y-100417000D02*
X216578000Y-101767000D01*
X218778000Y-101267000D02*
X218278000Y-101767000D01*
%TO.C,R16*%
X224504500Y-108801000D02*
X224504500Y-110401000D01*
X225329500Y-108801000D02*
X224504500Y-108801000D01*
X225329500Y-110401000D02*
X225329500Y-108801000D01*
X224504500Y-110401000D02*
X225329500Y-110401000D01*
%TO.C,R15*%
X227114000Y-112109500D02*
X225514000Y-112109500D01*
X227114000Y-112934500D02*
X227114000Y-112109500D01*
X225514000Y-112934500D02*
X227114000Y-112934500D01*
X225514000Y-112109500D02*
X225514000Y-112934500D01*
%TD*%
%TO.C,U9*%
D14*
X229951714Y-107750428D02*
X229189714Y-107750428D01*
X229189714Y-108040714D01*
X229226000Y-108113285D01*
X229262285Y-108149571D01*
X229334857Y-108185857D01*
X229443714Y-108185857D01*
X229516285Y-108149571D01*
X229552571Y-108113285D01*
X229588857Y-108040714D01*
X229588857Y-107750428D01*
X229879142Y-108947857D02*
X229915428Y-108911571D01*
X229951714Y-108802714D01*
X229951714Y-108730142D01*
X229915428Y-108621285D01*
X229842857Y-108548714D01*
X229770285Y-108512428D01*
X229625142Y-108476142D01*
X229516285Y-108476142D01*
X229371142Y-108512428D01*
X229298571Y-108548714D01*
X229226000Y-108621285D01*
X229189714Y-108730142D01*
X229189714Y-108802714D01*
X229226000Y-108911571D01*
X229262285Y-108947857D01*
X229734000Y-109238142D02*
X229734000Y-109601000D01*
X229951714Y-109165571D02*
X229189714Y-109419571D01*
X229951714Y-109673571D01*
X229951714Y-109963857D02*
X229951714Y-110109000D01*
X229915428Y-110181571D01*
X229879142Y-110217857D01*
X229770285Y-110290428D01*
X229625142Y-110326714D01*
X229334857Y-110326714D01*
X229262285Y-110290428D01*
X229226000Y-110254142D01*
X229189714Y-110181571D01*
X229189714Y-110036428D01*
X229226000Y-109963857D01*
X229262285Y-109927571D01*
X229334857Y-109891285D01*
X229516285Y-109891285D01*
X229588857Y-109927571D01*
X229625142Y-109963857D01*
X229661428Y-110036428D01*
X229661428Y-110181571D01*
X229625142Y-110254142D01*
X229588857Y-110290428D01*
X229516285Y-110326714D01*
X229189714Y-111016142D02*
X229189714Y-110653285D01*
X229552571Y-110617000D01*
X229516285Y-110653285D01*
X229480000Y-110725857D01*
X229480000Y-110907285D01*
X229516285Y-110979857D01*
X229552571Y-111016142D01*
X229625142Y-111052428D01*
X229806571Y-111052428D01*
X229879142Y-111016142D01*
X229915428Y-110979857D01*
X229951714Y-110907285D01*
X229951714Y-110725857D01*
X229915428Y-110653285D01*
X229879142Y-110617000D01*
X229189714Y-111306428D02*
X229189714Y-111778142D01*
X229480000Y-111524142D01*
X229480000Y-111633000D01*
X229516285Y-111705571D01*
X229552571Y-111741857D01*
X229625142Y-111778142D01*
X229806571Y-111778142D01*
X229879142Y-111741857D01*
X229915428Y-111705571D01*
X229951714Y-111633000D01*
X229951714Y-111415285D01*
X229915428Y-111342714D01*
X229879142Y-111306428D01*
X229443714Y-112431285D02*
X229951714Y-112431285D01*
X229153428Y-112249857D02*
X229697714Y-112068428D01*
X229697714Y-112540142D01*
X233389714Y-109528428D02*
X234006571Y-109528428D01*
X234079142Y-109564714D01*
X234115428Y-109601000D01*
X234151714Y-109673571D01*
X234151714Y-109818714D01*
X234115428Y-109891285D01*
X234079142Y-109927571D01*
X234006571Y-109963857D01*
X233389714Y-109963857D01*
X234151714Y-110363000D02*
X234151714Y-110508142D01*
X234115428Y-110580714D01*
X234079142Y-110617000D01*
X233970285Y-110689571D01*
X233825142Y-110725857D01*
X233534857Y-110725857D01*
X233462285Y-110689571D01*
X233426000Y-110653285D01*
X233389714Y-110580714D01*
X233389714Y-110435571D01*
X233426000Y-110363000D01*
X233462285Y-110326714D01*
X233534857Y-110290428D01*
X233716285Y-110290428D01*
X233788857Y-110326714D01*
X233825142Y-110363000D01*
X233861428Y-110435571D01*
X233861428Y-110580714D01*
X233825142Y-110653285D01*
X233788857Y-110689571D01*
X233716285Y-110725857D01*
%TO.C,C14*%
X237816571Y-103566714D02*
X238252000Y-103566714D01*
X238034285Y-103566714D02*
X238034285Y-102804714D01*
X238106857Y-102913571D01*
X238179428Y-102986142D01*
X238252000Y-103022428D01*
X237163428Y-103058714D02*
X237163428Y-103566714D01*
X237490000Y-103058714D02*
X237490000Y-103457857D01*
X237453714Y-103530428D01*
X237381142Y-103566714D01*
X237272285Y-103566714D01*
X237199714Y-103530428D01*
X237163428Y-103494142D01*
X236546571Y-103167571D02*
X236800571Y-103167571D01*
X236800571Y-103566714D02*
X236800571Y-102804714D01*
X236437714Y-102804714D01*
X237852857Y-105174142D02*
X237889142Y-105210428D01*
X237998000Y-105246714D01*
X238070571Y-105246714D01*
X238179428Y-105210428D01*
X238252000Y-105137857D01*
X238288285Y-105065285D01*
X238324571Y-104920142D01*
X238324571Y-104811285D01*
X238288285Y-104666142D01*
X238252000Y-104593571D01*
X238179428Y-104521000D01*
X238070571Y-104484714D01*
X237998000Y-104484714D01*
X237889142Y-104521000D01*
X237852857Y-104557285D01*
X237127142Y-105246714D02*
X237562571Y-105246714D01*
X237344857Y-105246714D02*
X237344857Y-104484714D01*
X237417428Y-104593571D01*
X237490000Y-104666142D01*
X237562571Y-104702428D01*
X236474000Y-104738714D02*
X236474000Y-105246714D01*
X236655428Y-104448428D02*
X236836857Y-104992714D01*
X236365142Y-104992714D01*
%TO.C,C13*%
X237551714Y-110290428D02*
X237551714Y-109855000D01*
X237551714Y-110072714D02*
X236789714Y-110072714D01*
X236898571Y-110000142D01*
X236971142Y-109927571D01*
X237007428Y-109855000D01*
X237043714Y-110943571D02*
X237551714Y-110943571D01*
X237043714Y-110617000D02*
X237442857Y-110617000D01*
X237515428Y-110653285D01*
X237551714Y-110725857D01*
X237551714Y-110834714D01*
X237515428Y-110907285D01*
X237479142Y-110943571D01*
X237152571Y-111560428D02*
X237152571Y-111306428D01*
X237551714Y-111306428D02*
X236789714Y-111306428D01*
X236789714Y-111669285D01*
X239159142Y-110254142D02*
X239195428Y-110217857D01*
X239231714Y-110109000D01*
X239231714Y-110036428D01*
X239195428Y-109927571D01*
X239122857Y-109855000D01*
X239050285Y-109818714D01*
X238905142Y-109782428D01*
X238796285Y-109782428D01*
X238651142Y-109818714D01*
X238578571Y-109855000D01*
X238506000Y-109927571D01*
X238469714Y-110036428D01*
X238469714Y-110109000D01*
X238506000Y-110217857D01*
X238542285Y-110254142D01*
X239231714Y-110979857D02*
X239231714Y-110544428D01*
X239231714Y-110762142D02*
X238469714Y-110762142D01*
X238578571Y-110689571D01*
X238651142Y-110617000D01*
X238687428Y-110544428D01*
X238469714Y-111233857D02*
X238469714Y-111705571D01*
X238760000Y-111451571D01*
X238760000Y-111560428D01*
X238796285Y-111633000D01*
X238832571Y-111669285D01*
X238905142Y-111705571D01*
X239086571Y-111705571D01*
X239159142Y-111669285D01*
X239195428Y-111633000D01*
X239231714Y-111560428D01*
X239231714Y-111342714D01*
X239195428Y-111270142D01*
X239159142Y-111233857D01*
%TO.C,R12*%
X228799571Y-97880714D02*
X229235000Y-97880714D01*
X229017285Y-97880714D02*
X229017285Y-97118714D01*
X229089857Y-97227571D01*
X229162428Y-97300142D01*
X229235000Y-97336428D01*
X228327857Y-97118714D02*
X228255285Y-97118714D01*
X228182714Y-97155000D01*
X228146428Y-97191285D01*
X228110142Y-97263857D01*
X228073857Y-97409000D01*
X228073857Y-97590428D01*
X228110142Y-97735571D01*
X228146428Y-97808142D01*
X228182714Y-97844428D01*
X228255285Y-97880714D01*
X228327857Y-97880714D01*
X228400428Y-97844428D01*
X228436714Y-97808142D01*
X228473000Y-97735571D01*
X228509285Y-97590428D01*
X228509285Y-97409000D01*
X228473000Y-97263857D01*
X228436714Y-97191285D01*
X228400428Y-97155000D01*
X228327857Y-97118714D01*
X227747285Y-97880714D02*
X227747285Y-97118714D01*
X227674714Y-97590428D02*
X227457000Y-97880714D01*
X227457000Y-97372714D02*
X227747285Y-97663000D01*
X226549857Y-98896714D02*
X226803857Y-98533857D01*
X226985285Y-98896714D02*
X226985285Y-98134714D01*
X226695000Y-98134714D01*
X226622428Y-98171000D01*
X226586142Y-98207285D01*
X226549857Y-98279857D01*
X226549857Y-98388714D01*
X226586142Y-98461285D01*
X226622428Y-98497571D01*
X226695000Y-98533857D01*
X226985285Y-98533857D01*
X225824142Y-98896714D02*
X226259571Y-98896714D01*
X226041857Y-98896714D02*
X226041857Y-98134714D01*
X226114428Y-98243571D01*
X226187000Y-98316142D01*
X226259571Y-98352428D01*
X225533857Y-98207285D02*
X225497571Y-98171000D01*
X225425000Y-98134714D01*
X225243571Y-98134714D01*
X225171000Y-98171000D01*
X225134714Y-98207285D01*
X225098428Y-98279857D01*
X225098428Y-98352428D01*
X225134714Y-98461285D01*
X225570142Y-98896714D01*
X225098428Y-98896714D01*
%TO.C,R7*%
X225802714Y-102924428D02*
X225802714Y-102489000D01*
X225802714Y-102706714D02*
X225040714Y-102706714D01*
X225149571Y-102634142D01*
X225222142Y-102561571D01*
X225258428Y-102489000D01*
X225040714Y-103396142D02*
X225040714Y-103468714D01*
X225077000Y-103541285D01*
X225113285Y-103577571D01*
X225185857Y-103613857D01*
X225331000Y-103650142D01*
X225512428Y-103650142D01*
X225657571Y-103613857D01*
X225730142Y-103577571D01*
X225766428Y-103541285D01*
X225802714Y-103468714D01*
X225802714Y-103396142D01*
X225766428Y-103323571D01*
X225730142Y-103287285D01*
X225657571Y-103251000D01*
X225512428Y-103214714D01*
X225331000Y-103214714D01*
X225185857Y-103251000D01*
X225113285Y-103287285D01*
X225077000Y-103323571D01*
X225040714Y-103396142D01*
X225802714Y-103976714D02*
X225040714Y-103976714D01*
X225512428Y-104049285D02*
X225802714Y-104267000D01*
X225294714Y-104267000D02*
X225585000Y-103976714D01*
X223483714Y-103251000D02*
X223120857Y-102997000D01*
X223483714Y-102815571D02*
X222721714Y-102815571D01*
X222721714Y-103105857D01*
X222758000Y-103178428D01*
X222794285Y-103214714D01*
X222866857Y-103251000D01*
X222975714Y-103251000D01*
X223048285Y-103214714D01*
X223084571Y-103178428D01*
X223120857Y-103105857D01*
X223120857Y-102815571D01*
X222721714Y-103505000D02*
X222721714Y-104013000D01*
X223483714Y-103686428D01*
%TO.C,R9*%
X238069571Y-115660714D02*
X238505000Y-115660714D01*
X238287285Y-115660714D02*
X238287285Y-114898714D01*
X238359857Y-115007571D01*
X238432428Y-115080142D01*
X238505000Y-115116428D01*
X237597857Y-114898714D02*
X237525285Y-114898714D01*
X237452714Y-114935000D01*
X237416428Y-114971285D01*
X237380142Y-115043857D01*
X237343857Y-115189000D01*
X237343857Y-115370428D01*
X237380142Y-115515571D01*
X237416428Y-115588142D01*
X237452714Y-115624428D01*
X237525285Y-115660714D01*
X237597857Y-115660714D01*
X237670428Y-115624428D01*
X237706714Y-115588142D01*
X237743000Y-115515571D01*
X237779285Y-115370428D01*
X237779285Y-115189000D01*
X237743000Y-115043857D01*
X237706714Y-114971285D01*
X237670428Y-114935000D01*
X237597857Y-114898714D01*
X237017285Y-115660714D02*
X237017285Y-114898714D01*
X236944714Y-115370428D02*
X236727000Y-115660714D01*
X236727000Y-115152714D02*
X237017285Y-115443000D01*
X237489000Y-116676714D02*
X237743000Y-116313857D01*
X237924428Y-116676714D02*
X237924428Y-115914714D01*
X237634142Y-115914714D01*
X237561571Y-115951000D01*
X237525285Y-115987285D01*
X237489000Y-116059857D01*
X237489000Y-116168714D01*
X237525285Y-116241285D01*
X237561571Y-116277571D01*
X237634142Y-116313857D01*
X237924428Y-116313857D01*
X237126142Y-116676714D02*
X236981000Y-116676714D01*
X236908428Y-116640428D01*
X236872142Y-116604142D01*
X236799571Y-116495285D01*
X236763285Y-116350142D01*
X236763285Y-116059857D01*
X236799571Y-115987285D01*
X236835857Y-115951000D01*
X236908428Y-115914714D01*
X237053571Y-115914714D01*
X237126142Y-115951000D01*
X237162428Y-115987285D01*
X237198714Y-116059857D01*
X237198714Y-116241285D01*
X237162428Y-116313857D01*
X237126142Y-116350142D01*
X237053571Y-116386428D01*
X236908428Y-116386428D01*
X236835857Y-116350142D01*
X236799571Y-116313857D01*
X236763285Y-116241285D01*
%TO.C,R5*%
X221451714Y-97880714D02*
X221887142Y-97880714D01*
X221669428Y-97880714D02*
X221669428Y-97118714D01*
X221742000Y-97227571D01*
X221814571Y-97300142D01*
X221887142Y-97336428D01*
X221125142Y-97880714D02*
X221125142Y-97118714D01*
X221052571Y-97590428D02*
X220834857Y-97880714D01*
X220834857Y-97372714D02*
X221125142Y-97663000D01*
X223139000Y-98896714D02*
X223393000Y-98533857D01*
X223574428Y-98896714D02*
X223574428Y-98134714D01*
X223284142Y-98134714D01*
X223211571Y-98171000D01*
X223175285Y-98207285D01*
X223139000Y-98279857D01*
X223139000Y-98388714D01*
X223175285Y-98461285D01*
X223211571Y-98497571D01*
X223284142Y-98533857D01*
X223574428Y-98533857D01*
X222449571Y-98134714D02*
X222812428Y-98134714D01*
X222848714Y-98497571D01*
X222812428Y-98461285D01*
X222739857Y-98425000D01*
X222558428Y-98425000D01*
X222485857Y-98461285D01*
X222449571Y-98497571D01*
X222413285Y-98570142D01*
X222413285Y-98751571D01*
X222449571Y-98824142D01*
X222485857Y-98860428D01*
X222558428Y-98896714D01*
X222739857Y-98896714D01*
X222812428Y-98860428D01*
X222848714Y-98824142D01*
%TO.C,U8*%
X232156000Y-99658714D02*
X231648000Y-99658714D01*
X231974571Y-100420714D01*
X231031142Y-99912714D02*
X231031142Y-100420714D01*
X231212571Y-99622428D02*
X231394000Y-100166714D01*
X230922285Y-100166714D01*
X230668285Y-100203000D02*
X230305428Y-100203000D01*
X230740857Y-100420714D02*
X230486857Y-99658714D01*
X230232857Y-100420714D01*
X229978857Y-100420714D02*
X229978857Y-99658714D01*
X229978857Y-100021571D02*
X229543428Y-100021571D01*
X229543428Y-100420714D02*
X229543428Y-99658714D01*
X228745142Y-100348142D02*
X228781428Y-100384428D01*
X228890285Y-100420714D01*
X228962857Y-100420714D01*
X229071714Y-100384428D01*
X229144285Y-100311857D01*
X229180571Y-100239285D01*
X229216857Y-100094142D01*
X229216857Y-99985285D01*
X229180571Y-99840142D01*
X229144285Y-99767571D01*
X229071714Y-99695000D01*
X228962857Y-99658714D01*
X228890285Y-99658714D01*
X228781428Y-99695000D01*
X228745142Y-99731285D01*
X228019428Y-100420714D02*
X228454857Y-100420714D01*
X228237142Y-100420714D02*
X228237142Y-99658714D01*
X228309714Y-99767571D01*
X228382285Y-99840142D01*
X228454857Y-99876428D01*
X227293714Y-99695000D02*
X227366285Y-99658714D01*
X227475142Y-99658714D01*
X227584000Y-99695000D01*
X227656571Y-99767571D01*
X227692857Y-99840142D01*
X227729142Y-99985285D01*
X227729142Y-100094142D01*
X227692857Y-100239285D01*
X227656571Y-100311857D01*
X227584000Y-100384428D01*
X227475142Y-100420714D01*
X227402571Y-100420714D01*
X227293714Y-100384428D01*
X227257428Y-100348142D01*
X227257428Y-100094142D01*
X227402571Y-100094142D01*
X226531714Y-100420714D02*
X226967142Y-100420714D01*
X226749428Y-100420714D02*
X226749428Y-99658714D01*
X226822000Y-99767571D01*
X226894571Y-99840142D01*
X226967142Y-99876428D01*
X226241428Y-99731285D02*
X226205142Y-99695000D01*
X226132571Y-99658714D01*
X225951142Y-99658714D01*
X225878571Y-99695000D01*
X225842285Y-99731285D01*
X225806000Y-99803857D01*
X225806000Y-99876428D01*
X225842285Y-99985285D01*
X226277714Y-100420714D01*
X225806000Y-100420714D01*
X225116571Y-99658714D02*
X225479428Y-99658714D01*
X225515714Y-100021571D01*
X225479428Y-99985285D01*
X225406857Y-99949000D01*
X225225428Y-99949000D01*
X225152857Y-99985285D01*
X225116571Y-100021571D01*
X225080285Y-100094142D01*
X225080285Y-100275571D01*
X225116571Y-100348142D01*
X225152857Y-100384428D01*
X225225428Y-100420714D01*
X225406857Y-100420714D01*
X225479428Y-100384428D01*
X225515714Y-100348142D01*
X224354571Y-99658714D02*
X224354571Y-100275571D01*
X224318285Y-100348142D01*
X224282000Y-100384428D01*
X224209428Y-100420714D01*
X224064285Y-100420714D01*
X223991714Y-100384428D01*
X223955428Y-100348142D01*
X223919142Y-100275571D01*
X223919142Y-99658714D01*
X223447428Y-99985285D02*
X223520000Y-99949000D01*
X223556285Y-99912714D01*
X223592571Y-99840142D01*
X223592571Y-99803857D01*
X223556285Y-99731285D01*
X223520000Y-99695000D01*
X223447428Y-99658714D01*
X223302285Y-99658714D01*
X223229714Y-99695000D01*
X223193428Y-99731285D01*
X223157142Y-99803857D01*
X223157142Y-99840142D01*
X223193428Y-99912714D01*
X223229714Y-99949000D01*
X223302285Y-99985285D01*
X223447428Y-99985285D01*
X223520000Y-100021571D01*
X223556285Y-100057857D01*
X223592571Y-100130428D01*
X223592571Y-100275571D01*
X223556285Y-100348142D01*
X223520000Y-100384428D01*
X223447428Y-100420714D01*
X223302285Y-100420714D01*
X223229714Y-100384428D01*
X223193428Y-100348142D01*
X223157142Y-100275571D01*
X223157142Y-100130428D01*
X223193428Y-100057857D01*
X223229714Y-100021571D01*
X223302285Y-99985285D01*
%TO.C,U7*%
X221996000Y-99277714D02*
X221488000Y-99277714D01*
X221814571Y-100039714D01*
X220871142Y-99531714D02*
X220871142Y-100039714D01*
X221052571Y-99241428D02*
X221234000Y-99785714D01*
X220762285Y-99785714D01*
X220508285Y-99822000D02*
X220145428Y-99822000D01*
X220580857Y-100039714D02*
X220326857Y-99277714D01*
X220072857Y-100039714D01*
X219818857Y-100039714D02*
X219818857Y-99277714D01*
X219818857Y-99640571D02*
X219383428Y-99640571D01*
X219383428Y-100039714D02*
X219383428Y-99277714D01*
X218585142Y-99967142D02*
X218621428Y-100003428D01*
X218730285Y-100039714D01*
X218802857Y-100039714D01*
X218911714Y-100003428D01*
X218984285Y-99930857D01*
X219020571Y-99858285D01*
X219056857Y-99713142D01*
X219056857Y-99604285D01*
X219020571Y-99459142D01*
X218984285Y-99386571D01*
X218911714Y-99314000D01*
X218802857Y-99277714D01*
X218730285Y-99277714D01*
X218621428Y-99314000D01*
X218585142Y-99350285D01*
X217859428Y-100039714D02*
X218294857Y-100039714D01*
X218077142Y-100039714D02*
X218077142Y-99277714D01*
X218149714Y-99386571D01*
X218222285Y-99459142D01*
X218294857Y-99495428D01*
X217133714Y-99314000D02*
X217206285Y-99277714D01*
X217315142Y-99277714D01*
X217424000Y-99314000D01*
X217496571Y-99386571D01*
X217532857Y-99459142D01*
X217569142Y-99604285D01*
X217569142Y-99713142D01*
X217532857Y-99858285D01*
X217496571Y-99930857D01*
X217424000Y-100003428D01*
X217315142Y-100039714D01*
X217242571Y-100039714D01*
X217133714Y-100003428D01*
X217097428Y-99967142D01*
X217097428Y-99713142D01*
X217242571Y-99713142D01*
X216371714Y-100039714D02*
X216807142Y-100039714D01*
X216589428Y-100039714D02*
X216589428Y-99277714D01*
X216662000Y-99386571D01*
X216734571Y-99459142D01*
X216807142Y-99495428D01*
X216081428Y-99350285D02*
X216045142Y-99314000D01*
X215972571Y-99277714D01*
X215791142Y-99277714D01*
X215718571Y-99314000D01*
X215682285Y-99350285D01*
X215646000Y-99422857D01*
X215646000Y-99495428D01*
X215682285Y-99604285D01*
X216117714Y-100039714D01*
X215646000Y-100039714D01*
X214956571Y-99277714D02*
X215319428Y-99277714D01*
X215355714Y-99640571D01*
X215319428Y-99604285D01*
X215246857Y-99568000D01*
X215065428Y-99568000D01*
X214992857Y-99604285D01*
X214956571Y-99640571D01*
X214920285Y-99713142D01*
X214920285Y-99894571D01*
X214956571Y-99967142D01*
X214992857Y-100003428D01*
X215065428Y-100039714D01*
X215246857Y-100039714D01*
X215319428Y-100003428D01*
X215355714Y-99967142D01*
X221306571Y-100674714D02*
X221306571Y-101291571D01*
X221270285Y-101364142D01*
X221234000Y-101400428D01*
X221161428Y-101436714D01*
X221016285Y-101436714D01*
X220943714Y-101400428D01*
X220907428Y-101364142D01*
X220871142Y-101291571D01*
X220871142Y-100674714D01*
X220580857Y-100674714D02*
X220072857Y-100674714D01*
X220399428Y-101436714D01*
%TO.C,U6*%
X216408000Y-100674714D02*
X215900000Y-100674714D01*
X216226571Y-101436714D01*
X215283142Y-100928714D02*
X215283142Y-101436714D01*
X215464571Y-100638428D02*
X215646000Y-101182714D01*
X215174285Y-101182714D01*
X214920285Y-101219000D02*
X214557428Y-101219000D01*
X214992857Y-101436714D02*
X214738857Y-100674714D01*
X214484857Y-101436714D01*
X214230857Y-101436714D02*
X214230857Y-100674714D01*
X214230857Y-101037571D02*
X213795428Y-101037571D01*
X213795428Y-101436714D02*
X213795428Y-100674714D01*
X212997142Y-101364142D02*
X213033428Y-101400428D01*
X213142285Y-101436714D01*
X213214857Y-101436714D01*
X213323714Y-101400428D01*
X213396285Y-101327857D01*
X213432571Y-101255285D01*
X213468857Y-101110142D01*
X213468857Y-101001285D01*
X213432571Y-100856142D01*
X213396285Y-100783571D01*
X213323714Y-100711000D01*
X213214857Y-100674714D01*
X213142285Y-100674714D01*
X213033428Y-100711000D01*
X212997142Y-100747285D01*
X212271428Y-101436714D02*
X212706857Y-101436714D01*
X212489142Y-101436714D02*
X212489142Y-100674714D01*
X212561714Y-100783571D01*
X212634285Y-100856142D01*
X212706857Y-100892428D01*
X211545714Y-100711000D02*
X211618285Y-100674714D01*
X211727142Y-100674714D01*
X211836000Y-100711000D01*
X211908571Y-100783571D01*
X211944857Y-100856142D01*
X211981142Y-101001285D01*
X211981142Y-101110142D01*
X211944857Y-101255285D01*
X211908571Y-101327857D01*
X211836000Y-101400428D01*
X211727142Y-101436714D01*
X211654571Y-101436714D01*
X211545714Y-101400428D01*
X211509428Y-101364142D01*
X211509428Y-101110142D01*
X211654571Y-101110142D01*
X210783714Y-101436714D02*
X211219142Y-101436714D01*
X211001428Y-101436714D02*
X211001428Y-100674714D01*
X211074000Y-100783571D01*
X211146571Y-100856142D01*
X211219142Y-100892428D01*
X210493428Y-100747285D02*
X210457142Y-100711000D01*
X210384571Y-100674714D01*
X210203142Y-100674714D01*
X210130571Y-100711000D01*
X210094285Y-100747285D01*
X210058000Y-100819857D01*
X210058000Y-100892428D01*
X210094285Y-101001285D01*
X210529714Y-101436714D01*
X210058000Y-101436714D01*
X209368571Y-100674714D02*
X209731428Y-100674714D01*
X209767714Y-101037571D01*
X209731428Y-101001285D01*
X209658857Y-100965000D01*
X209477428Y-100965000D01*
X209404857Y-101001285D01*
X209368571Y-101037571D01*
X209332285Y-101110142D01*
X209332285Y-101291571D01*
X209368571Y-101364142D01*
X209404857Y-101400428D01*
X209477428Y-101436714D01*
X209658857Y-101436714D01*
X209731428Y-101400428D01*
X209767714Y-101364142D01*
X218258571Y-100674714D02*
X218258571Y-101291571D01*
X218222285Y-101364142D01*
X218186000Y-101400428D01*
X218113428Y-101436714D01*
X217968285Y-101436714D01*
X217895714Y-101400428D01*
X217859428Y-101364142D01*
X217823142Y-101291571D01*
X217823142Y-100674714D01*
X217133714Y-100674714D02*
X217278857Y-100674714D01*
X217351428Y-100711000D01*
X217387714Y-100747285D01*
X217460285Y-100856142D01*
X217496571Y-101001285D01*
X217496571Y-101291571D01*
X217460285Y-101364142D01*
X217424000Y-101400428D01*
X217351428Y-101436714D01*
X217206285Y-101436714D01*
X217133714Y-101400428D01*
X217097428Y-101364142D01*
X217061142Y-101291571D01*
X217061142Y-101110142D01*
X217097428Y-101037571D01*
X217133714Y-101001285D01*
X217206285Y-100965000D01*
X217351428Y-100965000D01*
X217424000Y-101001285D01*
X217460285Y-101037571D01*
X217496571Y-101110142D01*
%TO.C,R16*%
X225261714Y-106861428D02*
X225261714Y-106426000D01*
X225261714Y-106643714D02*
X224499714Y-106643714D01*
X224608571Y-106571142D01*
X224681142Y-106498571D01*
X224717428Y-106426000D01*
X224499714Y-107333142D02*
X224499714Y-107405714D01*
X224536000Y-107478285D01*
X224572285Y-107514571D01*
X224644857Y-107550857D01*
X224790000Y-107587142D01*
X224971428Y-107587142D01*
X225116571Y-107550857D01*
X225189142Y-107514571D01*
X225225428Y-107478285D01*
X225261714Y-107405714D01*
X225261714Y-107333142D01*
X225225428Y-107260571D01*
X225189142Y-107224285D01*
X225116571Y-107188000D01*
X224971428Y-107151714D01*
X224790000Y-107151714D01*
X224644857Y-107188000D01*
X224572285Y-107224285D01*
X224536000Y-107260571D01*
X224499714Y-107333142D01*
X225261714Y-107913714D02*
X224499714Y-107913714D01*
X224971428Y-107986285D02*
X225261714Y-108204000D01*
X224753714Y-108204000D02*
X225044000Y-107913714D01*
X224245714Y-106825142D02*
X223882857Y-106571142D01*
X224245714Y-106389714D02*
X223483714Y-106389714D01*
X223483714Y-106680000D01*
X223520000Y-106752571D01*
X223556285Y-106788857D01*
X223628857Y-106825142D01*
X223737714Y-106825142D01*
X223810285Y-106788857D01*
X223846571Y-106752571D01*
X223882857Y-106680000D01*
X223882857Y-106389714D01*
X224245714Y-107550857D02*
X224245714Y-107115428D01*
X224245714Y-107333142D02*
X223483714Y-107333142D01*
X223592571Y-107260571D01*
X223665142Y-107188000D01*
X223701428Y-107115428D01*
X223483714Y-108204000D02*
X223483714Y-108058857D01*
X223520000Y-107986285D01*
X223556285Y-107950000D01*
X223665142Y-107877428D01*
X223810285Y-107841142D01*
X224100571Y-107841142D01*
X224173142Y-107877428D01*
X224209428Y-107913714D01*
X224245714Y-107986285D01*
X224245714Y-108131428D01*
X224209428Y-108204000D01*
X224173142Y-108240285D01*
X224100571Y-108276571D01*
X223919142Y-108276571D01*
X223846571Y-108240285D01*
X223810285Y-108204000D01*
X223774000Y-108131428D01*
X223774000Y-107986285D01*
X223810285Y-107913714D01*
X223846571Y-107877428D01*
X223919142Y-107841142D01*
%TO.C,R15*%
X224481571Y-113882714D02*
X224917000Y-113882714D01*
X224699285Y-113882714D02*
X224699285Y-113120714D01*
X224771857Y-113229571D01*
X224844428Y-113302142D01*
X224917000Y-113338428D01*
X224009857Y-113120714D02*
X223937285Y-113120714D01*
X223864714Y-113157000D01*
X223828428Y-113193285D01*
X223792142Y-113265857D01*
X223755857Y-113411000D01*
X223755857Y-113592428D01*
X223792142Y-113737571D01*
X223828428Y-113810142D01*
X223864714Y-113846428D01*
X223937285Y-113882714D01*
X224009857Y-113882714D01*
X224082428Y-113846428D01*
X224118714Y-113810142D01*
X224155000Y-113737571D01*
X224191285Y-113592428D01*
X224191285Y-113411000D01*
X224155000Y-113265857D01*
X224118714Y-113193285D01*
X224082428Y-113157000D01*
X224009857Y-113120714D01*
X223429285Y-113882714D02*
X223429285Y-113120714D01*
X223356714Y-113592428D02*
X223139000Y-113882714D01*
X223139000Y-113374714D02*
X223429285Y-113665000D01*
X224517857Y-112866714D02*
X224771857Y-112503857D01*
X224953285Y-112866714D02*
X224953285Y-112104714D01*
X224663000Y-112104714D01*
X224590428Y-112141000D01*
X224554142Y-112177285D01*
X224517857Y-112249857D01*
X224517857Y-112358714D01*
X224554142Y-112431285D01*
X224590428Y-112467571D01*
X224663000Y-112503857D01*
X224953285Y-112503857D01*
X223792142Y-112866714D02*
X224227571Y-112866714D01*
X224009857Y-112866714D02*
X224009857Y-112104714D01*
X224082428Y-112213571D01*
X224155000Y-112286142D01*
X224227571Y-112322428D01*
X223102714Y-112104714D02*
X223465571Y-112104714D01*
X223501857Y-112467571D01*
X223465571Y-112431285D01*
X223393000Y-112395000D01*
X223211571Y-112395000D01*
X223139000Y-112431285D01*
X223102714Y-112467571D01*
X223066428Y-112540142D01*
X223066428Y-112721571D01*
X223102714Y-112794142D01*
X223139000Y-112830428D01*
X223211571Y-112866714D01*
X223393000Y-112866714D01*
X223465571Y-112830428D01*
X223501857Y-112794142D01*
%TD*%
M02*
