%TF.GenerationSoftware,KiCad,Pcbnew,5.1.9-73d0e3b20d~88~ubuntu20.04.1*%
%TF.CreationDate,2021-03-15T23:00:21-05:00*%
%TF.ProjectId,portalgun,706f7274-616c-4677-956e-2e6b69636164,Draft A*%
%TF.SameCoordinates,Original*%
%TF.FileFunction,Legend,Top*%
%TF.FilePolarity,Positive*%
%FSLAX46Y46*%
G04 Gerber Fmt 4.6, Leading zero omitted, Abs format (unit mm)*
G04 Created by KiCad (PCBNEW 5.1.9-73d0e3b20d~88~ubuntu20.04.1) date 2021-03-15 23:00:21*
%MOMM*%
%LPD*%
G01*
G04 APERTURE LIST*
%ADD10C,0.150000*%
%ADD11C,0.120000*%
%ADD12C,0.100000*%
G04 APERTURE END LIST*
D10*
X212606000Y-97020095D02*
X212558380Y-97115333D01*
X212558380Y-97258190D01*
X212606000Y-97401047D01*
X212701238Y-97496285D01*
X212796476Y-97543904D01*
X212986952Y-97591523D01*
X213129809Y-97591523D01*
X213320285Y-97543904D01*
X213415523Y-97496285D01*
X213510761Y-97401047D01*
X213558380Y-97258190D01*
X213558380Y-97162952D01*
X213510761Y-97020095D01*
X213463142Y-96972476D01*
X213129809Y-96972476D01*
X213129809Y-97162952D01*
X208367380Y-98043904D02*
X208367380Y-97424857D01*
X208748333Y-97758190D01*
X208748333Y-97615333D01*
X208795952Y-97520095D01*
X208843571Y-97472476D01*
X208938809Y-97424857D01*
X209176904Y-97424857D01*
X209272142Y-97472476D01*
X209319761Y-97520095D01*
X209367380Y-97615333D01*
X209367380Y-97901047D01*
X209319761Y-97996285D01*
X209272142Y-98043904D01*
X208367380Y-97139142D02*
X209367380Y-96805809D01*
X208367380Y-96472476D01*
X228447000Y-99528142D02*
X228447000Y-98528142D01*
X229814380Y-98718619D02*
X229338190Y-99051952D01*
X229814380Y-99290047D02*
X228814380Y-99290047D01*
X228814380Y-98909095D01*
X228862000Y-98813857D01*
X228909619Y-98766238D01*
X229004857Y-98718619D01*
X229147714Y-98718619D01*
X229242952Y-98766238D01*
X229290571Y-98813857D01*
X229338190Y-98909095D01*
X229338190Y-99290047D01*
X228447000Y-98528142D02*
X228447000Y-97575761D01*
X229766761Y-98337666D02*
X229814380Y-98194809D01*
X229814380Y-97956714D01*
X229766761Y-97861476D01*
X229719142Y-97813857D01*
X229623904Y-97766238D01*
X229528666Y-97766238D01*
X229433428Y-97813857D01*
X229385809Y-97861476D01*
X229338190Y-97956714D01*
X229290571Y-98147190D01*
X229242952Y-98242428D01*
X229195333Y-98290047D01*
X229100095Y-98337666D01*
X229004857Y-98337666D01*
X228909619Y-98290047D01*
X228862000Y-98242428D01*
X228814380Y-98147190D01*
X228814380Y-97909095D01*
X228862000Y-97766238D01*
X228447000Y-97575761D02*
X228447000Y-96813857D01*
X228814380Y-97480523D02*
X228814380Y-96909095D01*
X229814380Y-97194809D02*
X228814380Y-97194809D01*
X226796000Y-99504380D02*
X226796000Y-98552000D01*
X228115761Y-99313904D02*
X228163380Y-99171047D01*
X228163380Y-98932952D01*
X228115761Y-98837714D01*
X228068142Y-98790095D01*
X227972904Y-98742476D01*
X227877666Y-98742476D01*
X227782428Y-98790095D01*
X227734809Y-98837714D01*
X227687190Y-98932952D01*
X227639571Y-99123428D01*
X227591952Y-99218666D01*
X227544333Y-99266285D01*
X227449095Y-99313904D01*
X227353857Y-99313904D01*
X227258619Y-99266285D01*
X227211000Y-99218666D01*
X227163380Y-99123428D01*
X227163380Y-98885333D01*
X227211000Y-98742476D01*
X226796000Y-98552000D02*
X226796000Y-97599619D01*
X228115761Y-98361523D02*
X228163380Y-98218666D01*
X228163380Y-97980571D01*
X228115761Y-97885333D01*
X228068142Y-97837714D01*
X227972904Y-97790095D01*
X227877666Y-97790095D01*
X227782428Y-97837714D01*
X227734809Y-97885333D01*
X227687190Y-97980571D01*
X227639571Y-98171047D01*
X227591952Y-98266285D01*
X227544333Y-98313904D01*
X227449095Y-98361523D01*
X227353857Y-98361523D01*
X227258619Y-98313904D01*
X227211000Y-98266285D01*
X227163380Y-98171047D01*
X227163380Y-97932952D01*
X227211000Y-97790095D01*
X226385380Y-99742428D02*
X225385380Y-99742428D01*
X226099666Y-99409095D01*
X225385380Y-99075761D01*
X226385380Y-99075761D01*
X226385380Y-98599571D02*
X225385380Y-98599571D01*
X226337761Y-98171000D02*
X226385380Y-98028142D01*
X226385380Y-97790047D01*
X226337761Y-97694809D01*
X226290142Y-97647190D01*
X226194904Y-97599571D01*
X226099666Y-97599571D01*
X226004428Y-97647190D01*
X225956809Y-97694809D01*
X225909190Y-97790047D01*
X225861571Y-97980523D01*
X225813952Y-98075761D01*
X225766333Y-98123380D01*
X225671095Y-98171000D01*
X225575857Y-98171000D01*
X225480619Y-98123380D01*
X225433000Y-98075761D01*
X225385380Y-97980523D01*
X225385380Y-97742428D01*
X225433000Y-97599571D01*
X225385380Y-96980523D02*
X225385380Y-96790047D01*
X225433000Y-96694809D01*
X225528238Y-96599571D01*
X225718714Y-96551952D01*
X226052047Y-96551952D01*
X226242523Y-96599571D01*
X226337761Y-96694809D01*
X226385380Y-96790047D01*
X226385380Y-96980523D01*
X226337761Y-97075761D01*
X226242523Y-97171000D01*
X226052047Y-97218619D01*
X225718714Y-97218619D01*
X225528238Y-97171000D01*
X225433000Y-97075761D01*
X225385380Y-96980523D01*
X221432380Y-99615428D02*
X220432380Y-99615428D01*
X221146666Y-99282095D01*
X220432380Y-98948761D01*
X221432380Y-98948761D01*
X220432380Y-98282095D02*
X220432380Y-98091619D01*
X220480000Y-97996380D01*
X220575238Y-97901142D01*
X220765714Y-97853523D01*
X221099047Y-97853523D01*
X221289523Y-97901142D01*
X221384761Y-97996380D01*
X221432380Y-98091619D01*
X221432380Y-98282095D01*
X221384761Y-98377333D01*
X221289523Y-98472571D01*
X221099047Y-98520190D01*
X220765714Y-98520190D01*
X220575238Y-98472571D01*
X220480000Y-98377333D01*
X220432380Y-98282095D01*
X221384761Y-97472571D02*
X221432380Y-97329714D01*
X221432380Y-97091619D01*
X221384761Y-96996380D01*
X221337142Y-96948761D01*
X221241904Y-96901142D01*
X221146666Y-96901142D01*
X221051428Y-96948761D01*
X221003809Y-96996380D01*
X220956190Y-97091619D01*
X220908571Y-97282095D01*
X220860952Y-97377333D01*
X220813333Y-97424952D01*
X220718095Y-97472571D01*
X220622857Y-97472571D01*
X220527619Y-97424952D01*
X220480000Y-97377333D01*
X220432380Y-97282095D01*
X220432380Y-97044000D01*
X220480000Y-96901142D01*
X221432380Y-96472571D02*
X220432380Y-96472571D01*
X217940000Y-98551904D02*
X217892380Y-98647142D01*
X217892380Y-98790000D01*
X217940000Y-98932857D01*
X218035238Y-99028095D01*
X218130476Y-99075714D01*
X218320952Y-99123333D01*
X218463809Y-99123333D01*
X218654285Y-99075714D01*
X218749523Y-99028095D01*
X218844761Y-98932857D01*
X218892380Y-98790000D01*
X218892380Y-98694761D01*
X218844761Y-98551904D01*
X218797142Y-98504285D01*
X218463809Y-98504285D01*
X218463809Y-98694761D01*
X218892380Y-98075714D02*
X217892380Y-98075714D01*
X218892380Y-97504285D01*
X217892380Y-97504285D01*
X218892380Y-97028095D02*
X217892380Y-97028095D01*
X217892380Y-96790000D01*
X217940000Y-96647142D01*
X218035238Y-96551904D01*
X218130476Y-96504285D01*
X218320952Y-96456666D01*
X218463809Y-96456666D01*
X218654285Y-96504285D01*
X218749523Y-96551904D01*
X218844761Y-96647142D01*
X218892380Y-96790000D01*
X218892380Y-97028095D01*
X220114761Y-99075714D02*
X220162380Y-98932857D01*
X220162380Y-98694761D01*
X220114761Y-98599523D01*
X220067142Y-98551904D01*
X219971904Y-98504285D01*
X219876666Y-98504285D01*
X219781428Y-98551904D01*
X219733809Y-98599523D01*
X219686190Y-98694761D01*
X219638571Y-98885238D01*
X219590952Y-98980476D01*
X219543333Y-99028095D01*
X219448095Y-99075714D01*
X219352857Y-99075714D01*
X219257619Y-99028095D01*
X219210000Y-98980476D01*
X219162380Y-98885238D01*
X219162380Y-98647142D01*
X219210000Y-98504285D01*
X220067142Y-97504285D02*
X220114761Y-97551904D01*
X220162380Y-97694761D01*
X220162380Y-97790000D01*
X220114761Y-97932857D01*
X220019523Y-98028095D01*
X219924285Y-98075714D01*
X219733809Y-98123333D01*
X219590952Y-98123333D01*
X219400476Y-98075714D01*
X219305238Y-98028095D01*
X219210000Y-97932857D01*
X219162380Y-97790000D01*
X219162380Y-97694761D01*
X219210000Y-97551904D01*
X219257619Y-97504285D01*
X220162380Y-97075714D02*
X219162380Y-97075714D01*
X220162380Y-96504285D02*
X219590952Y-96932857D01*
X219162380Y-96504285D02*
X219733809Y-97075714D01*
X211161380Y-98043904D02*
X211161380Y-97472476D01*
X212161380Y-97758190D02*
X211161380Y-97758190D01*
X211161380Y-97234380D02*
X212161380Y-96567714D01*
X211161380Y-96567714D02*
X212161380Y-97234380D01*
X210637380Y-97448666D02*
X210161190Y-97782000D01*
X210637380Y-98020095D02*
X209637380Y-98020095D01*
X209637380Y-97639142D01*
X209685000Y-97543904D01*
X209732619Y-97496285D01*
X209827857Y-97448666D01*
X209970714Y-97448666D01*
X210065952Y-97496285D01*
X210113571Y-97543904D01*
X210161190Y-97639142D01*
X210161190Y-98020095D01*
X209637380Y-97115333D02*
X210637380Y-96448666D01*
X209637380Y-96448666D02*
X210637380Y-97115333D01*
D11*
%TO.C,C11*%
X240561000Y-98230000D02*
X240561000Y-95520000D01*
X238991000Y-98230000D02*
X240561000Y-98230000D01*
X238991000Y-95520000D02*
X238991000Y-98230000D01*
%TO.C,SW1*%
X210968000Y-109708000D02*
X213648000Y-109708000D01*
X213648000Y-115948000D02*
X210968000Y-115948000D01*
X209188000Y-115798000D02*
X209188000Y-109858000D01*
X215428000Y-115798000D02*
X215428000Y-109858000D01*
X213722214Y-112828000D02*
G75*
G03*
X213722214Y-112828000I-1414214J0D01*
G01*
%TO.C,R6*%
X217438500Y-115553258D02*
X217438500Y-115078742D01*
X216393500Y-115553258D02*
X216393500Y-115078742D01*
%TO.C,R9*%
X217184500Y-107234258D02*
X217184500Y-106759742D01*
X216139500Y-107234258D02*
X216139500Y-106759742D01*
%TO.C,Q3*%
X198176000Y-113274000D02*
X199106000Y-113274000D01*
X201336000Y-113274000D02*
X200406000Y-113274000D01*
X201336000Y-113274000D02*
X201336000Y-111114000D01*
X198176000Y-113274000D02*
X198176000Y-111814000D01*
%TO.C,Q2*%
X189682000Y-113282000D02*
X190612000Y-113282000D01*
X192842000Y-113282000D02*
X191912000Y-113282000D01*
X192842000Y-113282000D02*
X192842000Y-111122000D01*
X189682000Y-113282000D02*
X189682000Y-111822000D01*
%TO.C,Q1*%
X183078000Y-113282000D02*
X184008000Y-113282000D01*
X186238000Y-113282000D02*
X185308000Y-113282000D01*
X186238000Y-113282000D02*
X186238000Y-111122000D01*
X183078000Y-113282000D02*
X183078000Y-111822000D01*
%TO.C,SW2*%
X210968000Y-99802000D02*
X213648000Y-99802000D01*
X213648000Y-106042000D02*
X210968000Y-106042000D01*
X209188000Y-105892000D02*
X209188000Y-99952000D01*
X215428000Y-105892000D02*
X215428000Y-99952000D01*
X213722214Y-102922000D02*
G75*
G03*
X213722214Y-102922000I-1414214J0D01*
G01*
%TO.C,J2*%
X215560000Y-92836000D02*
X215560000Y-96256000D01*
X215560000Y-96256000D02*
X226280000Y-96256000D01*
X226280000Y-96256000D02*
X226280000Y-92836000D01*
X226280000Y-92836000D02*
X215560000Y-92836000D01*
X220920000Y-95746000D02*
X216070000Y-95746000D01*
X216070000Y-95746000D02*
X216070000Y-94996000D01*
X216070000Y-94996000D02*
X215870000Y-94996000D01*
X215870000Y-94996000D02*
X215870000Y-94196000D01*
X215870000Y-94196000D02*
X216070000Y-94196000D01*
X216070000Y-94196000D02*
X216070000Y-93346000D01*
X216070000Y-93346000D02*
X220920000Y-93346000D01*
X220920000Y-95746000D02*
X225770000Y-95746000D01*
X225770000Y-95746000D02*
X225770000Y-94996000D01*
X225770000Y-94996000D02*
X225970000Y-94996000D01*
X225970000Y-94996000D02*
X225970000Y-94196000D01*
X225970000Y-94196000D02*
X225770000Y-94196000D01*
X225770000Y-94196000D02*
X225770000Y-93346000D01*
X225770000Y-93346000D02*
X220920000Y-93346000D01*
X215270000Y-96546000D02*
X215270000Y-95546000D01*
X215270000Y-96546000D02*
X216270000Y-96546000D01*
%TO.C,C9*%
X216294580Y-98046000D02*
X216013420Y-98046000D01*
X216294580Y-97026000D02*
X216013420Y-97026000D01*
%TO.C,R5*%
X222774742Y-97013500D02*
X223249258Y-97013500D01*
X222774742Y-98058500D02*
X223249258Y-98058500D01*
%TO.C,U8*%
X224934000Y-101792000D02*
X224934000Y-99892000D01*
X222614000Y-100392000D02*
X222614000Y-101792000D01*
%TO.C,U7*%
X219566000Y-100392000D02*
X219566000Y-102292000D01*
X221886000Y-101792000D02*
X221886000Y-100392000D01*
%TO.C,U6*%
X216518000Y-100392000D02*
X216518000Y-102292000D01*
X218838000Y-101792000D02*
X218838000Y-100392000D01*
%TO.C,C8*%
X196455420Y-106428000D02*
X196736580Y-106428000D01*
X196455420Y-105408000D02*
X196736580Y-105408000D01*
%TO.C,U3*%
X194986000Y-107812000D02*
X194986000Y-110262000D01*
X198206000Y-109612000D02*
X198206000Y-107812000D01*
%TO.C,U5*%
X202068000Y-105324000D02*
X199618000Y-105324000D01*
X200268000Y-108544000D02*
X202068000Y-108544000D01*
%TO.C,C10*%
X203452000Y-106539420D02*
X203452000Y-106820580D01*
X204472000Y-106539420D02*
X204472000Y-106820580D01*
%TO.C,R16*%
X207249500Y-103648742D02*
X207249500Y-104123258D01*
X208294500Y-103648742D02*
X208294500Y-104123258D01*
%TO.C,R15*%
X207249500Y-100600742D02*
X207249500Y-101075258D01*
X208294500Y-100600742D02*
X208294500Y-101075258D01*
%TO.C,C4*%
X202186000Y-98184580D02*
X202186000Y-97903420D01*
X201166000Y-98184580D02*
X201166000Y-97903420D01*
%TO.C,C2*%
X242543000Y-96781252D02*
X242543000Y-96258748D01*
X241073000Y-96781252D02*
X241073000Y-96258748D01*
%TO.C,U2*%
X242943000Y-117403000D02*
X243553000Y-117403000D01*
X242943000Y-117403000D02*
X242943000Y-125023000D01*
X242943000Y-100783000D02*
X242943000Y-101403000D01*
X240823000Y-100783000D02*
X242943000Y-100783000D01*
X226703000Y-100783000D02*
X228823000Y-100783000D01*
X226703000Y-101403000D02*
X226703000Y-100783000D01*
X226703000Y-125023000D02*
X226703000Y-117403000D01*
X242943000Y-125023000D02*
X226703000Y-125023000D01*
%TO.C,J9*%
X207142000Y-96546000D02*
X208142000Y-96546000D01*
X207142000Y-96546000D02*
X207142000Y-95546000D01*
X213892000Y-93346000D02*
X210917000Y-93346000D01*
X213892000Y-94196000D02*
X213892000Y-93346000D01*
X214092000Y-94196000D02*
X213892000Y-94196000D01*
X214092000Y-94996000D02*
X214092000Y-94196000D01*
X213892000Y-94996000D02*
X214092000Y-94996000D01*
X213892000Y-95746000D02*
X213892000Y-94996000D01*
X210917000Y-95746000D02*
X213892000Y-95746000D01*
X207942000Y-93346000D02*
X210917000Y-93346000D01*
X207942000Y-94196000D02*
X207942000Y-93346000D01*
X207742000Y-94196000D02*
X207942000Y-94196000D01*
X207742000Y-94996000D02*
X207742000Y-94196000D01*
X207942000Y-94996000D02*
X207742000Y-94996000D01*
X207942000Y-95746000D02*
X207942000Y-94996000D01*
X210917000Y-95746000D02*
X207942000Y-95746000D01*
X214402000Y-92836000D02*
X207432000Y-92836000D01*
X214402000Y-96256000D02*
X214402000Y-92836000D01*
X207432000Y-96256000D02*
X214402000Y-96256000D01*
X207432000Y-92836000D02*
X207432000Y-96256000D01*
%TO.C,R11*%
X187974500Y-113005258D02*
X187974500Y-112530742D01*
X186929500Y-113005258D02*
X186929500Y-112530742D01*
%TO.C,R10*%
X194578500Y-113013258D02*
X194578500Y-112538742D01*
X193533500Y-113013258D02*
X193533500Y-112538742D01*
%TO.C,R8*%
X203072500Y-112751258D02*
X203072500Y-112276742D01*
X202027500Y-112751258D02*
X202027500Y-112276742D01*
%TO.C,J10*%
X187560000Y-114940000D02*
X187560000Y-116000000D01*
X186500000Y-114940000D02*
X187560000Y-114940000D01*
X185500000Y-114940000D02*
X185500000Y-117060000D01*
X185500000Y-117060000D02*
X183440000Y-117060000D01*
X185500000Y-114940000D02*
X183440000Y-114940000D01*
X183440000Y-114940000D02*
X183440000Y-117060000D01*
%TO.C,U4*%
X206080000Y-103776000D02*
X206080000Y-104226000D01*
X206080000Y-104226000D02*
X205630000Y-104226000D01*
X202860000Y-101456000D02*
X202860000Y-101006000D01*
X202860000Y-101006000D02*
X203310000Y-101006000D01*
X202860000Y-103776000D02*
X202860000Y-104226000D01*
X202860000Y-104226000D02*
X203310000Y-104226000D01*
X206080000Y-101456000D02*
X206080000Y-101006000D01*
%TO.C,J5*%
X190812000Y-115010000D02*
X190812000Y-117130000D01*
X192872000Y-115010000D02*
X190812000Y-115010000D01*
X192872000Y-117130000D02*
X190812000Y-117130000D01*
X192872000Y-115010000D02*
X192872000Y-117130000D01*
X193872000Y-115010000D02*
X194932000Y-115010000D01*
X194932000Y-115010000D02*
X194932000Y-116070000D01*
%TO.C,C3*%
X203710000Y-98184580D02*
X203710000Y-97903420D01*
X202690000Y-98184580D02*
X202690000Y-97903420D01*
%TO.C,J4*%
X205530000Y-93174000D02*
X205530000Y-94234000D01*
X204470000Y-93174000D02*
X205530000Y-93174000D01*
X203470000Y-93174000D02*
X203470000Y-95294000D01*
X203470000Y-95294000D02*
X201410000Y-95294000D01*
X203470000Y-93174000D02*
X201410000Y-93174000D01*
X201410000Y-93174000D02*
X201410000Y-95294000D01*
%TO.C,J3*%
X201324000Y-115010000D02*
X201324000Y-116070000D01*
X200264000Y-115010000D02*
X201324000Y-115010000D01*
X199264000Y-115010000D02*
X199264000Y-117130000D01*
X199264000Y-117130000D02*
X197204000Y-117130000D01*
X199264000Y-115010000D02*
X197204000Y-115010000D01*
X197204000Y-115010000D02*
X197204000Y-117130000D01*
%TO.C,J1*%
X187242000Y-93174000D02*
X187242000Y-94234000D01*
X186182000Y-93174000D02*
X187242000Y-93174000D01*
X185182000Y-93174000D02*
X185182000Y-95294000D01*
X185182000Y-95294000D02*
X183122000Y-95294000D01*
X185182000Y-93174000D02*
X183122000Y-93174000D01*
X183122000Y-93174000D02*
X183122000Y-95294000D01*
%TO.C,U1*%
X188124000Y-104416000D02*
X188124000Y-107341000D01*
X188124000Y-104416000D02*
X188124000Y-102916000D01*
X191344000Y-104416000D02*
X191344000Y-105916000D01*
X191344000Y-104416000D02*
X191344000Y-102916000D01*
%TO.C,R4*%
X186211500Y-106411276D02*
X186211500Y-106920724D01*
X187256500Y-106411276D02*
X187256500Y-106920724D01*
%TO.C,R2*%
X186211500Y-102911276D02*
X186211500Y-103420724D01*
X187256500Y-102911276D02*
X187256500Y-103420724D01*
%TO.C,R1*%
X191961500Y-102661276D02*
X191961500Y-103170724D01*
X193006500Y-102661276D02*
X193006500Y-103170724D01*
%TO.C,L1*%
X188320000Y-97716758D02*
X188320000Y-99387242D01*
X190140000Y-97716758D02*
X190140000Y-99387242D01*
%TO.C,C7*%
X187598267Y-108990000D02*
X187305733Y-108990000D01*
X187598267Y-110010000D02*
X187305733Y-110010000D01*
%TO.C,C5*%
X183873000Y-101668000D02*
X183873000Y-104378000D01*
X185443000Y-101668000D02*
X183873000Y-101668000D01*
X185443000Y-104378000D02*
X185443000Y-101668000D01*
%TO.C,C1*%
X186876000Y-96243000D02*
X184166000Y-96243000D01*
X186876000Y-97813000D02*
X186876000Y-96243000D01*
X184166000Y-97813000D02*
X186876000Y-97813000D01*
%TO.C,R3*%
X193006500Y-106161276D02*
X193006500Y-106670724D01*
X191961500Y-106161276D02*
X191961500Y-106670724D01*
%TO.C,C6*%
X191369733Y-108964000D02*
X191662267Y-108964000D01*
X191369733Y-109984000D02*
X191662267Y-109984000D01*
%TO.C,C11*%
D12*
X238463857Y-97002142D02*
X238499571Y-97037857D01*
X238535285Y-97145000D01*
X238535285Y-97216428D01*
X238499571Y-97323571D01*
X238428142Y-97395000D01*
X238356714Y-97430714D01*
X238213857Y-97466428D01*
X238106714Y-97466428D01*
X237963857Y-97430714D01*
X237892428Y-97395000D01*
X237821000Y-97323571D01*
X237785285Y-97216428D01*
X237785285Y-97145000D01*
X237821000Y-97037857D01*
X237856714Y-97002142D01*
X238535285Y-96287857D02*
X238535285Y-96716428D01*
X238535285Y-96502142D02*
X237785285Y-96502142D01*
X237892428Y-96573571D01*
X237963857Y-96645000D01*
X237999571Y-96716428D01*
X238535285Y-95573571D02*
X238535285Y-96002142D01*
X238535285Y-95787857D02*
X237785285Y-95787857D01*
X237892428Y-95859285D01*
X237963857Y-95930714D01*
X237999571Y-96002142D01*
%TO.C,SW1*%
X208311571Y-113828000D02*
X208347285Y-113720857D01*
X208347285Y-113542285D01*
X208311571Y-113470857D01*
X208275857Y-113435142D01*
X208204428Y-113399428D01*
X208133000Y-113399428D01*
X208061571Y-113435142D01*
X208025857Y-113470857D01*
X207990142Y-113542285D01*
X207954428Y-113685142D01*
X207918714Y-113756571D01*
X207883000Y-113792285D01*
X207811571Y-113828000D01*
X207740142Y-113828000D01*
X207668714Y-113792285D01*
X207633000Y-113756571D01*
X207597285Y-113685142D01*
X207597285Y-113506571D01*
X207633000Y-113399428D01*
X207597285Y-113149428D02*
X208347285Y-112970857D01*
X207811571Y-112828000D01*
X208347285Y-112685142D01*
X207597285Y-112506571D01*
X208347285Y-111828000D02*
X208347285Y-112256571D01*
X208347285Y-112042285D02*
X207597285Y-112042285D01*
X207704428Y-112113714D01*
X207775857Y-112185142D01*
X207811571Y-112256571D01*
%TO.C,R6*%
X218525285Y-115441000D02*
X218168142Y-115691000D01*
X218525285Y-115869571D02*
X217775285Y-115869571D01*
X217775285Y-115583857D01*
X217811000Y-115512428D01*
X217846714Y-115476714D01*
X217918142Y-115441000D01*
X218025285Y-115441000D01*
X218096714Y-115476714D01*
X218132428Y-115512428D01*
X218168142Y-115583857D01*
X218168142Y-115869571D01*
X217775285Y-114798142D02*
X217775285Y-114941000D01*
X217811000Y-115012428D01*
X217846714Y-115048142D01*
X217953857Y-115119571D01*
X218096714Y-115155285D01*
X218382428Y-115155285D01*
X218453857Y-115119571D01*
X218489571Y-115083857D01*
X218525285Y-115012428D01*
X218525285Y-114869571D01*
X218489571Y-114798142D01*
X218453857Y-114762428D01*
X218382428Y-114726714D01*
X218203857Y-114726714D01*
X218132428Y-114762428D01*
X218096714Y-114798142D01*
X218061000Y-114869571D01*
X218061000Y-115012428D01*
X218096714Y-115083857D01*
X218132428Y-115119571D01*
X218203857Y-115155285D01*
%TO.C,R9*%
X218144285Y-107122000D02*
X217787142Y-107372000D01*
X218144285Y-107550571D02*
X217394285Y-107550571D01*
X217394285Y-107264857D01*
X217430000Y-107193428D01*
X217465714Y-107157714D01*
X217537142Y-107122000D01*
X217644285Y-107122000D01*
X217715714Y-107157714D01*
X217751428Y-107193428D01*
X217787142Y-107264857D01*
X217787142Y-107550571D01*
X218144285Y-106764857D02*
X218144285Y-106622000D01*
X218108571Y-106550571D01*
X218072857Y-106514857D01*
X217965714Y-106443428D01*
X217822857Y-106407714D01*
X217537142Y-106407714D01*
X217465714Y-106443428D01*
X217430000Y-106479142D01*
X217394285Y-106550571D01*
X217394285Y-106693428D01*
X217430000Y-106764857D01*
X217465714Y-106800571D01*
X217537142Y-106836285D01*
X217715714Y-106836285D01*
X217787142Y-106800571D01*
X217822857Y-106764857D01*
X217858571Y-106693428D01*
X217858571Y-106550571D01*
X217822857Y-106479142D01*
X217787142Y-106443428D01*
X217715714Y-106407714D01*
%TO.C,Q3*%
X199038714Y-114244428D02*
X199003000Y-114315857D01*
X198931571Y-114387285D01*
X198824428Y-114494428D01*
X198788714Y-114565857D01*
X198788714Y-114637285D01*
X198967285Y-114601571D02*
X198931571Y-114673000D01*
X198860142Y-114744428D01*
X198717285Y-114780142D01*
X198467285Y-114780142D01*
X198324428Y-114744428D01*
X198253000Y-114673000D01*
X198217285Y-114601571D01*
X198217285Y-114458714D01*
X198253000Y-114387285D01*
X198324428Y-114315857D01*
X198467285Y-114280142D01*
X198717285Y-114280142D01*
X198860142Y-114315857D01*
X198931571Y-114387285D01*
X198967285Y-114458714D01*
X198967285Y-114601571D01*
X198217285Y-114030142D02*
X198217285Y-113565857D01*
X198503000Y-113815857D01*
X198503000Y-113708714D01*
X198538714Y-113637285D01*
X198574428Y-113601571D01*
X198645857Y-113565857D01*
X198824428Y-113565857D01*
X198895857Y-113601571D01*
X198931571Y-113637285D01*
X198967285Y-113708714D01*
X198967285Y-113923000D01*
X198931571Y-113994428D01*
X198895857Y-114030142D01*
%TO.C,Q2*%
X190402714Y-114244428D02*
X190367000Y-114315857D01*
X190295571Y-114387285D01*
X190188428Y-114494428D01*
X190152714Y-114565857D01*
X190152714Y-114637285D01*
X190331285Y-114601571D02*
X190295571Y-114673000D01*
X190224142Y-114744428D01*
X190081285Y-114780142D01*
X189831285Y-114780142D01*
X189688428Y-114744428D01*
X189617000Y-114673000D01*
X189581285Y-114601571D01*
X189581285Y-114458714D01*
X189617000Y-114387285D01*
X189688428Y-114315857D01*
X189831285Y-114280142D01*
X190081285Y-114280142D01*
X190224142Y-114315857D01*
X190295571Y-114387285D01*
X190331285Y-114458714D01*
X190331285Y-114601571D01*
X189652714Y-113994428D02*
X189617000Y-113958714D01*
X189581285Y-113887285D01*
X189581285Y-113708714D01*
X189617000Y-113637285D01*
X189652714Y-113601571D01*
X189724142Y-113565857D01*
X189795571Y-113565857D01*
X189902714Y-113601571D01*
X190331285Y-114030142D01*
X190331285Y-113565857D01*
%TO.C,Q1*%
X184586571Y-110392714D02*
X184515142Y-110357000D01*
X184443714Y-110285571D01*
X184336571Y-110178428D01*
X184265142Y-110142714D01*
X184193714Y-110142714D01*
X184229428Y-110321285D02*
X184158000Y-110285571D01*
X184086571Y-110214142D01*
X184050857Y-110071285D01*
X184050857Y-109821285D01*
X184086571Y-109678428D01*
X184158000Y-109607000D01*
X184229428Y-109571285D01*
X184372285Y-109571285D01*
X184443714Y-109607000D01*
X184515142Y-109678428D01*
X184550857Y-109821285D01*
X184550857Y-110071285D01*
X184515142Y-110214142D01*
X184443714Y-110285571D01*
X184372285Y-110321285D01*
X184229428Y-110321285D01*
X185265142Y-110321285D02*
X184836571Y-110321285D01*
X185050857Y-110321285D02*
X185050857Y-109571285D01*
X184979428Y-109678428D01*
X184908000Y-109749857D01*
X184836571Y-109785571D01*
%TO.C,SW2*%
X211344000Y-99363571D02*
X211451142Y-99399285D01*
X211629714Y-99399285D01*
X211701142Y-99363571D01*
X211736857Y-99327857D01*
X211772571Y-99256428D01*
X211772571Y-99185000D01*
X211736857Y-99113571D01*
X211701142Y-99077857D01*
X211629714Y-99042142D01*
X211486857Y-99006428D01*
X211415428Y-98970714D01*
X211379714Y-98935000D01*
X211344000Y-98863571D01*
X211344000Y-98792142D01*
X211379714Y-98720714D01*
X211415428Y-98685000D01*
X211486857Y-98649285D01*
X211665428Y-98649285D01*
X211772571Y-98685000D01*
X212022571Y-98649285D02*
X212201142Y-99399285D01*
X212344000Y-98863571D01*
X212486857Y-99399285D01*
X212665428Y-98649285D01*
X212915428Y-98720714D02*
X212951142Y-98685000D01*
X213022571Y-98649285D01*
X213201142Y-98649285D01*
X213272571Y-98685000D01*
X213308285Y-98720714D01*
X213344000Y-98792142D01*
X213344000Y-98863571D01*
X213308285Y-98970714D01*
X212879714Y-99399285D01*
X213344000Y-99399285D01*
%TO.C,J2*%
X214600285Y-94992000D02*
X215136000Y-94992000D01*
X215243142Y-95027714D01*
X215314571Y-95099142D01*
X215350285Y-95206285D01*
X215350285Y-95277714D01*
X214671714Y-94670571D02*
X214636000Y-94634857D01*
X214600285Y-94563428D01*
X214600285Y-94384857D01*
X214636000Y-94313428D01*
X214671714Y-94277714D01*
X214743142Y-94242000D01*
X214814571Y-94242000D01*
X214921714Y-94277714D01*
X215350285Y-94706285D01*
X215350285Y-94242000D01*
%TO.C,C9*%
X216029000Y-98946857D02*
X215993285Y-98982571D01*
X215886142Y-99018285D01*
X215814714Y-99018285D01*
X215707571Y-98982571D01*
X215636142Y-98911142D01*
X215600428Y-98839714D01*
X215564714Y-98696857D01*
X215564714Y-98589714D01*
X215600428Y-98446857D01*
X215636142Y-98375428D01*
X215707571Y-98304000D01*
X215814714Y-98268285D01*
X215886142Y-98268285D01*
X215993285Y-98304000D01*
X216029000Y-98339714D01*
X216386142Y-99018285D02*
X216529000Y-99018285D01*
X216600428Y-98982571D01*
X216636142Y-98946857D01*
X216707571Y-98839714D01*
X216743285Y-98696857D01*
X216743285Y-98411142D01*
X216707571Y-98339714D01*
X216671857Y-98304000D01*
X216600428Y-98268285D01*
X216457571Y-98268285D01*
X216386142Y-98304000D01*
X216350428Y-98339714D01*
X216314714Y-98411142D01*
X216314714Y-98589714D01*
X216350428Y-98661142D01*
X216386142Y-98696857D01*
X216457571Y-98732571D01*
X216600428Y-98732571D01*
X216671857Y-98696857D01*
X216707571Y-98661142D01*
X216743285Y-98589714D01*
%TO.C,R5*%
X223903000Y-99018285D02*
X223653000Y-98661142D01*
X223474428Y-99018285D02*
X223474428Y-98268285D01*
X223760142Y-98268285D01*
X223831571Y-98304000D01*
X223867285Y-98339714D01*
X223903000Y-98411142D01*
X223903000Y-98518285D01*
X223867285Y-98589714D01*
X223831571Y-98625428D01*
X223760142Y-98661142D01*
X223474428Y-98661142D01*
X224581571Y-98268285D02*
X224224428Y-98268285D01*
X224188714Y-98625428D01*
X224224428Y-98589714D01*
X224295857Y-98554000D01*
X224474428Y-98554000D01*
X224545857Y-98589714D01*
X224581571Y-98625428D01*
X224617285Y-98696857D01*
X224617285Y-98875428D01*
X224581571Y-98946857D01*
X224545857Y-98982571D01*
X224474428Y-99018285D01*
X224295857Y-99018285D01*
X224224428Y-98982571D01*
X224188714Y-98946857D01*
%TO.C,U8*%
X223202571Y-102713285D02*
X223202571Y-103320428D01*
X223238285Y-103391857D01*
X223274000Y-103427571D01*
X223345428Y-103463285D01*
X223488285Y-103463285D01*
X223559714Y-103427571D01*
X223595428Y-103391857D01*
X223631142Y-103320428D01*
X223631142Y-102713285D01*
X224095428Y-103034714D02*
X224024000Y-102999000D01*
X223988285Y-102963285D01*
X223952571Y-102891857D01*
X223952571Y-102856142D01*
X223988285Y-102784714D01*
X224024000Y-102749000D01*
X224095428Y-102713285D01*
X224238285Y-102713285D01*
X224309714Y-102749000D01*
X224345428Y-102784714D01*
X224381142Y-102856142D01*
X224381142Y-102891857D01*
X224345428Y-102963285D01*
X224309714Y-102999000D01*
X224238285Y-103034714D01*
X224095428Y-103034714D01*
X224024000Y-103070428D01*
X223988285Y-103106142D01*
X223952571Y-103177571D01*
X223952571Y-103320428D01*
X223988285Y-103391857D01*
X224024000Y-103427571D01*
X224095428Y-103463285D01*
X224238285Y-103463285D01*
X224309714Y-103427571D01*
X224345428Y-103391857D01*
X224381142Y-103320428D01*
X224381142Y-103177571D01*
X224345428Y-103106142D01*
X224309714Y-103070428D01*
X224238285Y-103034714D01*
%TO.C,U7*%
X220154571Y-102967285D02*
X220154571Y-103574428D01*
X220190285Y-103645857D01*
X220226000Y-103681571D01*
X220297428Y-103717285D01*
X220440285Y-103717285D01*
X220511714Y-103681571D01*
X220547428Y-103645857D01*
X220583142Y-103574428D01*
X220583142Y-102967285D01*
X220868857Y-102967285D02*
X221368857Y-102967285D01*
X221047428Y-103717285D01*
%TO.C,U6*%
X216725571Y-102586285D02*
X216725571Y-103193428D01*
X216761285Y-103264857D01*
X216797000Y-103300571D01*
X216868428Y-103336285D01*
X217011285Y-103336285D01*
X217082714Y-103300571D01*
X217118428Y-103264857D01*
X217154142Y-103193428D01*
X217154142Y-102586285D01*
X217832714Y-102586285D02*
X217689857Y-102586285D01*
X217618428Y-102622000D01*
X217582714Y-102657714D01*
X217511285Y-102764857D01*
X217475571Y-102907714D01*
X217475571Y-103193428D01*
X217511285Y-103264857D01*
X217547000Y-103300571D01*
X217618428Y-103336285D01*
X217761285Y-103336285D01*
X217832714Y-103300571D01*
X217868428Y-103264857D01*
X217904142Y-103193428D01*
X217904142Y-103014857D01*
X217868428Y-102943428D01*
X217832714Y-102907714D01*
X217761285Y-102872000D01*
X217618428Y-102872000D01*
X217547000Y-102907714D01*
X217511285Y-102943428D01*
X217475571Y-103014857D01*
%TO.C,C8*%
X196471000Y-104755857D02*
X196435285Y-104791571D01*
X196328142Y-104827285D01*
X196256714Y-104827285D01*
X196149571Y-104791571D01*
X196078142Y-104720142D01*
X196042428Y-104648714D01*
X196006714Y-104505857D01*
X196006714Y-104398714D01*
X196042428Y-104255857D01*
X196078142Y-104184428D01*
X196149571Y-104113000D01*
X196256714Y-104077285D01*
X196328142Y-104077285D01*
X196435285Y-104113000D01*
X196471000Y-104148714D01*
X196899571Y-104398714D02*
X196828142Y-104363000D01*
X196792428Y-104327285D01*
X196756714Y-104255857D01*
X196756714Y-104220142D01*
X196792428Y-104148714D01*
X196828142Y-104113000D01*
X196899571Y-104077285D01*
X197042428Y-104077285D01*
X197113857Y-104113000D01*
X197149571Y-104148714D01*
X197185285Y-104220142D01*
X197185285Y-104255857D01*
X197149571Y-104327285D01*
X197113857Y-104363000D01*
X197042428Y-104398714D01*
X196899571Y-104398714D01*
X196828142Y-104434428D01*
X196792428Y-104470142D01*
X196756714Y-104541571D01*
X196756714Y-104684428D01*
X196792428Y-104755857D01*
X196828142Y-104791571D01*
X196899571Y-104827285D01*
X197042428Y-104827285D01*
X197113857Y-104791571D01*
X197149571Y-104755857D01*
X197185285Y-104684428D01*
X197185285Y-104541571D01*
X197149571Y-104470142D01*
X197113857Y-104434428D01*
X197042428Y-104398714D01*
%TO.C,U3*%
X194026285Y-110299428D02*
X194633428Y-110299428D01*
X194704857Y-110263714D01*
X194740571Y-110228000D01*
X194776285Y-110156571D01*
X194776285Y-110013714D01*
X194740571Y-109942285D01*
X194704857Y-109906571D01*
X194633428Y-109870857D01*
X194026285Y-109870857D01*
X194026285Y-109585142D02*
X194026285Y-109120857D01*
X194312000Y-109370857D01*
X194312000Y-109263714D01*
X194347714Y-109192285D01*
X194383428Y-109156571D01*
X194454857Y-109120857D01*
X194633428Y-109120857D01*
X194704857Y-109156571D01*
X194740571Y-109192285D01*
X194776285Y-109263714D01*
X194776285Y-109478000D01*
X194740571Y-109549428D01*
X194704857Y-109585142D01*
%TO.C,U5*%
X199580571Y-104237285D02*
X199580571Y-104844428D01*
X199616285Y-104915857D01*
X199652000Y-104951571D01*
X199723428Y-104987285D01*
X199866285Y-104987285D01*
X199937714Y-104951571D01*
X199973428Y-104915857D01*
X200009142Y-104844428D01*
X200009142Y-104237285D01*
X200723428Y-104237285D02*
X200366285Y-104237285D01*
X200330571Y-104594428D01*
X200366285Y-104558714D01*
X200437714Y-104523000D01*
X200616285Y-104523000D01*
X200687714Y-104558714D01*
X200723428Y-104594428D01*
X200759142Y-104665857D01*
X200759142Y-104844428D01*
X200723428Y-104915857D01*
X200687714Y-104951571D01*
X200616285Y-104987285D01*
X200437714Y-104987285D01*
X200366285Y-104951571D01*
X200330571Y-104915857D01*
%TO.C,C10*%
X205659857Y-107162142D02*
X205695571Y-107197857D01*
X205731285Y-107305000D01*
X205731285Y-107376428D01*
X205695571Y-107483571D01*
X205624142Y-107555000D01*
X205552714Y-107590714D01*
X205409857Y-107626428D01*
X205302714Y-107626428D01*
X205159857Y-107590714D01*
X205088428Y-107555000D01*
X205017000Y-107483571D01*
X204981285Y-107376428D01*
X204981285Y-107305000D01*
X205017000Y-107197857D01*
X205052714Y-107162142D01*
X205731285Y-106447857D02*
X205731285Y-106876428D01*
X205731285Y-106662142D02*
X204981285Y-106662142D01*
X205088428Y-106733571D01*
X205159857Y-106805000D01*
X205195571Y-106876428D01*
X204981285Y-105983571D02*
X204981285Y-105912142D01*
X205017000Y-105840714D01*
X205052714Y-105805000D01*
X205124142Y-105769285D01*
X205267000Y-105733571D01*
X205445571Y-105733571D01*
X205588428Y-105769285D01*
X205659857Y-105805000D01*
X205695571Y-105840714D01*
X205731285Y-105912142D01*
X205731285Y-105983571D01*
X205695571Y-106055000D01*
X205659857Y-106090714D01*
X205588428Y-106126428D01*
X205445571Y-106162142D01*
X205267000Y-106162142D01*
X205124142Y-106126428D01*
X205052714Y-106090714D01*
X205017000Y-106055000D01*
X204981285Y-105983571D01*
%TO.C,R16*%
X208111285Y-107416142D02*
X207754142Y-107666142D01*
X208111285Y-107844714D02*
X207361285Y-107844714D01*
X207361285Y-107559000D01*
X207397000Y-107487571D01*
X207432714Y-107451857D01*
X207504142Y-107416142D01*
X207611285Y-107416142D01*
X207682714Y-107451857D01*
X207718428Y-107487571D01*
X207754142Y-107559000D01*
X207754142Y-107844714D01*
X208111285Y-106701857D02*
X208111285Y-107130428D01*
X208111285Y-106916142D02*
X207361285Y-106916142D01*
X207468428Y-106987571D01*
X207539857Y-107059000D01*
X207575571Y-107130428D01*
X207361285Y-106059000D02*
X207361285Y-106201857D01*
X207397000Y-106273285D01*
X207432714Y-106309000D01*
X207539857Y-106380428D01*
X207682714Y-106416142D01*
X207968428Y-106416142D01*
X208039857Y-106380428D01*
X208075571Y-106344714D01*
X208111285Y-106273285D01*
X208111285Y-106130428D01*
X208075571Y-106059000D01*
X208039857Y-106023285D01*
X207968428Y-105987571D01*
X207789857Y-105987571D01*
X207718428Y-106023285D01*
X207682714Y-106059000D01*
X207647000Y-106130428D01*
X207647000Y-106273285D01*
X207682714Y-106344714D01*
X207718428Y-106380428D01*
X207789857Y-106416142D01*
%TO.C,R15*%
X207095285Y-98907142D02*
X206738142Y-99157142D01*
X207095285Y-99335714D02*
X206345285Y-99335714D01*
X206345285Y-99050000D01*
X206381000Y-98978571D01*
X206416714Y-98942857D01*
X206488142Y-98907142D01*
X206595285Y-98907142D01*
X206666714Y-98942857D01*
X206702428Y-98978571D01*
X206738142Y-99050000D01*
X206738142Y-99335714D01*
X207095285Y-98192857D02*
X207095285Y-98621428D01*
X207095285Y-98407142D02*
X206345285Y-98407142D01*
X206452428Y-98478571D01*
X206523857Y-98550000D01*
X206559571Y-98621428D01*
X206345285Y-97514285D02*
X206345285Y-97871428D01*
X206702428Y-97907142D01*
X206666714Y-97871428D01*
X206631000Y-97800000D01*
X206631000Y-97621428D01*
X206666714Y-97550000D01*
X206702428Y-97514285D01*
X206773857Y-97478571D01*
X206952428Y-97478571D01*
X207023857Y-97514285D01*
X207059571Y-97550000D01*
X207095285Y-97621428D01*
X207095285Y-97800000D01*
X207059571Y-97871428D01*
X207023857Y-97907142D01*
%TO.C,C4*%
X200927857Y-98677000D02*
X200963571Y-98712714D01*
X200999285Y-98819857D01*
X200999285Y-98891285D01*
X200963571Y-98998428D01*
X200892142Y-99069857D01*
X200820714Y-99105571D01*
X200677857Y-99141285D01*
X200570714Y-99141285D01*
X200427857Y-99105571D01*
X200356428Y-99069857D01*
X200285000Y-98998428D01*
X200249285Y-98891285D01*
X200249285Y-98819857D01*
X200285000Y-98712714D01*
X200320714Y-98677000D01*
X200499285Y-98034142D02*
X200999285Y-98034142D01*
X200213571Y-98212714D02*
X200749285Y-98391285D01*
X200749285Y-97927000D01*
%TO.C,C2*%
X241683000Y-93739857D02*
X241647285Y-93775571D01*
X241540142Y-93811285D01*
X241468714Y-93811285D01*
X241361571Y-93775571D01*
X241290142Y-93704142D01*
X241254428Y-93632714D01*
X241218714Y-93489857D01*
X241218714Y-93382714D01*
X241254428Y-93239857D01*
X241290142Y-93168428D01*
X241361571Y-93097000D01*
X241468714Y-93061285D01*
X241540142Y-93061285D01*
X241647285Y-93097000D01*
X241683000Y-93132714D01*
X241968714Y-93132714D02*
X242004428Y-93097000D01*
X242075857Y-93061285D01*
X242254428Y-93061285D01*
X242325857Y-93097000D01*
X242361571Y-93132714D01*
X242397285Y-93204142D01*
X242397285Y-93275571D01*
X242361571Y-93382714D01*
X241933000Y-93811285D01*
X242397285Y-93811285D01*
%TO.C,U2*%
X244811571Y-117752285D02*
X244811571Y-118359428D01*
X244847285Y-118430857D01*
X244883000Y-118466571D01*
X244954428Y-118502285D01*
X245097285Y-118502285D01*
X245168714Y-118466571D01*
X245204428Y-118430857D01*
X245240142Y-118359428D01*
X245240142Y-117752285D01*
X245561571Y-117823714D02*
X245597285Y-117788000D01*
X245668714Y-117752285D01*
X245847285Y-117752285D01*
X245918714Y-117788000D01*
X245954428Y-117823714D01*
X245990142Y-117895142D01*
X245990142Y-117966571D01*
X245954428Y-118073714D01*
X245525857Y-118502285D01*
X245990142Y-118502285D01*
%TO.C,J9*%
X206472285Y-94992000D02*
X207008000Y-94992000D01*
X207115142Y-95027714D01*
X207186571Y-95099142D01*
X207222285Y-95206285D01*
X207222285Y-95277714D01*
X207222285Y-94599142D02*
X207222285Y-94456285D01*
X207186571Y-94384857D01*
X207150857Y-94349142D01*
X207043714Y-94277714D01*
X206900857Y-94242000D01*
X206615142Y-94242000D01*
X206543714Y-94277714D01*
X206508000Y-94313428D01*
X206472285Y-94384857D01*
X206472285Y-94527714D01*
X206508000Y-94599142D01*
X206543714Y-94634857D01*
X206615142Y-94670571D01*
X206793714Y-94670571D01*
X206865142Y-94634857D01*
X206900857Y-94599142D01*
X206936571Y-94527714D01*
X206936571Y-94384857D01*
X206900857Y-94313428D01*
X206865142Y-94277714D01*
X206793714Y-94242000D01*
%TO.C,H2*%
X220662571Y-110067285D02*
X220662571Y-109317285D01*
X220662571Y-109674428D02*
X221091142Y-109674428D01*
X221091142Y-110067285D02*
X221091142Y-109317285D01*
X221412571Y-109388714D02*
X221448285Y-109353000D01*
X221519714Y-109317285D01*
X221698285Y-109317285D01*
X221769714Y-109353000D01*
X221805428Y-109388714D01*
X221841142Y-109460142D01*
X221841142Y-109531571D01*
X221805428Y-109638714D01*
X221376857Y-110067285D01*
X221841142Y-110067285D01*
%TO.C,R11*%
X189061285Y-113258142D02*
X188704142Y-113508142D01*
X189061285Y-113686714D02*
X188311285Y-113686714D01*
X188311285Y-113401000D01*
X188347000Y-113329571D01*
X188382714Y-113293857D01*
X188454142Y-113258142D01*
X188561285Y-113258142D01*
X188632714Y-113293857D01*
X188668428Y-113329571D01*
X188704142Y-113401000D01*
X188704142Y-113686714D01*
X189061285Y-112543857D02*
X189061285Y-112972428D01*
X189061285Y-112758142D02*
X188311285Y-112758142D01*
X188418428Y-112829571D01*
X188489857Y-112901000D01*
X188525571Y-112972428D01*
X189061285Y-111829571D02*
X189061285Y-112258142D01*
X189061285Y-112043857D02*
X188311285Y-112043857D01*
X188418428Y-112115285D01*
X188489857Y-112186714D01*
X188525571Y-112258142D01*
%TO.C,R10*%
X195538285Y-113258142D02*
X195181142Y-113508142D01*
X195538285Y-113686714D02*
X194788285Y-113686714D01*
X194788285Y-113401000D01*
X194824000Y-113329571D01*
X194859714Y-113293857D01*
X194931142Y-113258142D01*
X195038285Y-113258142D01*
X195109714Y-113293857D01*
X195145428Y-113329571D01*
X195181142Y-113401000D01*
X195181142Y-113686714D01*
X195538285Y-112543857D02*
X195538285Y-112972428D01*
X195538285Y-112758142D02*
X194788285Y-112758142D01*
X194895428Y-112829571D01*
X194966857Y-112901000D01*
X195002571Y-112972428D01*
X194788285Y-112079571D02*
X194788285Y-112008142D01*
X194824000Y-111936714D01*
X194859714Y-111901000D01*
X194931142Y-111865285D01*
X195074000Y-111829571D01*
X195252571Y-111829571D01*
X195395428Y-111865285D01*
X195466857Y-111901000D01*
X195502571Y-111936714D01*
X195538285Y-112008142D01*
X195538285Y-112079571D01*
X195502571Y-112151000D01*
X195466857Y-112186714D01*
X195395428Y-112222428D01*
X195252571Y-112258142D01*
X195074000Y-112258142D01*
X194931142Y-112222428D01*
X194859714Y-112186714D01*
X194824000Y-112151000D01*
X194788285Y-112079571D01*
%TO.C,R8*%
X204159285Y-112639000D02*
X203802142Y-112889000D01*
X204159285Y-113067571D02*
X203409285Y-113067571D01*
X203409285Y-112781857D01*
X203445000Y-112710428D01*
X203480714Y-112674714D01*
X203552142Y-112639000D01*
X203659285Y-112639000D01*
X203730714Y-112674714D01*
X203766428Y-112710428D01*
X203802142Y-112781857D01*
X203802142Y-113067571D01*
X203730714Y-112210428D02*
X203695000Y-112281857D01*
X203659285Y-112317571D01*
X203587857Y-112353285D01*
X203552142Y-112353285D01*
X203480714Y-112317571D01*
X203445000Y-112281857D01*
X203409285Y-112210428D01*
X203409285Y-112067571D01*
X203445000Y-111996142D01*
X203480714Y-111960428D01*
X203552142Y-111924714D01*
X203587857Y-111924714D01*
X203659285Y-111960428D01*
X203695000Y-111996142D01*
X203730714Y-112067571D01*
X203730714Y-112210428D01*
X203766428Y-112281857D01*
X203802142Y-112317571D01*
X203873571Y-112353285D01*
X204016428Y-112353285D01*
X204087857Y-112317571D01*
X204123571Y-112281857D01*
X204159285Y-112210428D01*
X204159285Y-112067571D01*
X204123571Y-111996142D01*
X204087857Y-111960428D01*
X204016428Y-111924714D01*
X203873571Y-111924714D01*
X203802142Y-111960428D01*
X203766428Y-111996142D01*
X203730714Y-112067571D01*
%TO.C,J10*%
X187803285Y-116685142D02*
X188339000Y-116685142D01*
X188446142Y-116720857D01*
X188517571Y-116792285D01*
X188553285Y-116899428D01*
X188553285Y-116970857D01*
X188553285Y-115935142D02*
X188553285Y-116363714D01*
X188553285Y-116149428D02*
X187803285Y-116149428D01*
X187910428Y-116220857D01*
X187981857Y-116292285D01*
X188017571Y-116363714D01*
X187803285Y-115470857D02*
X187803285Y-115399428D01*
X187839000Y-115328000D01*
X187874714Y-115292285D01*
X187946142Y-115256571D01*
X188089000Y-115220857D01*
X188267571Y-115220857D01*
X188410428Y-115256571D01*
X188481857Y-115292285D01*
X188517571Y-115328000D01*
X188553285Y-115399428D01*
X188553285Y-115470857D01*
X188517571Y-115542285D01*
X188481857Y-115578000D01*
X188410428Y-115613714D01*
X188267571Y-115649428D01*
X188089000Y-115649428D01*
X187946142Y-115613714D01*
X187874714Y-115578000D01*
X187839000Y-115542285D01*
X187803285Y-115470857D01*
%TO.C,U4*%
X204914571Y-99665285D02*
X204914571Y-100272428D01*
X204950285Y-100343857D01*
X204986000Y-100379571D01*
X205057428Y-100415285D01*
X205200285Y-100415285D01*
X205271714Y-100379571D01*
X205307428Y-100343857D01*
X205343142Y-100272428D01*
X205343142Y-99665285D01*
X206021714Y-99915285D02*
X206021714Y-100415285D01*
X205843142Y-99629571D02*
X205664571Y-100165285D01*
X206128857Y-100165285D01*
%TO.C,J5*%
X195169285Y-116328000D02*
X195705000Y-116328000D01*
X195812142Y-116363714D01*
X195883571Y-116435142D01*
X195919285Y-116542285D01*
X195919285Y-116613714D01*
X195169285Y-115613714D02*
X195169285Y-115970857D01*
X195526428Y-116006571D01*
X195490714Y-115970857D01*
X195455000Y-115899428D01*
X195455000Y-115720857D01*
X195490714Y-115649428D01*
X195526428Y-115613714D01*
X195597857Y-115578000D01*
X195776428Y-115578000D01*
X195847857Y-115613714D01*
X195883571Y-115649428D01*
X195919285Y-115720857D01*
X195919285Y-115899428D01*
X195883571Y-115970857D01*
X195847857Y-116006571D01*
%TO.C,C3*%
X204610857Y-97788000D02*
X204646571Y-97823714D01*
X204682285Y-97930857D01*
X204682285Y-98002285D01*
X204646571Y-98109428D01*
X204575142Y-98180857D01*
X204503714Y-98216571D01*
X204360857Y-98252285D01*
X204253714Y-98252285D01*
X204110857Y-98216571D01*
X204039428Y-98180857D01*
X203968000Y-98109428D01*
X203932285Y-98002285D01*
X203932285Y-97930857D01*
X203968000Y-97823714D01*
X204003714Y-97788000D01*
X203932285Y-97538000D02*
X203932285Y-97073714D01*
X204218000Y-97323714D01*
X204218000Y-97216571D01*
X204253714Y-97145142D01*
X204289428Y-97109428D01*
X204360857Y-97073714D01*
X204539428Y-97073714D01*
X204610857Y-97109428D01*
X204646571Y-97145142D01*
X204682285Y-97216571D01*
X204682285Y-97430857D01*
X204646571Y-97502285D01*
X204610857Y-97538000D01*
%TO.C,H1*%
X196913571Y-100796285D02*
X196913571Y-100046285D01*
X196913571Y-100403428D02*
X197342142Y-100403428D01*
X197342142Y-100796285D02*
X197342142Y-100046285D01*
X198092142Y-100796285D02*
X197663571Y-100796285D01*
X197877857Y-100796285D02*
X197877857Y-100046285D01*
X197806428Y-100153428D01*
X197735000Y-100224857D01*
X197663571Y-100260571D01*
%TO.C,J4*%
X204220000Y-95601285D02*
X204220000Y-96137000D01*
X204184285Y-96244142D01*
X204112857Y-96315571D01*
X204005714Y-96351285D01*
X203934285Y-96351285D01*
X204898571Y-95851285D02*
X204898571Y-96351285D01*
X204720000Y-95565571D02*
X204541428Y-96101285D01*
X205005714Y-96101285D01*
%TO.C,J3*%
X201646285Y-116328000D02*
X202182000Y-116328000D01*
X202289142Y-116363714D01*
X202360571Y-116435142D01*
X202396285Y-116542285D01*
X202396285Y-116613714D01*
X201646285Y-116042285D02*
X201646285Y-115578000D01*
X201932000Y-115828000D01*
X201932000Y-115720857D01*
X201967714Y-115649428D01*
X202003428Y-115613714D01*
X202074857Y-115578000D01*
X202253428Y-115578000D01*
X202324857Y-115613714D01*
X202360571Y-115649428D01*
X202396285Y-115720857D01*
X202396285Y-115935142D01*
X202360571Y-116006571D01*
X202324857Y-116042285D01*
%TO.C,J1*%
X187831285Y-94484000D02*
X188367000Y-94484000D01*
X188474142Y-94519714D01*
X188545571Y-94591142D01*
X188581285Y-94698285D01*
X188581285Y-94769714D01*
X188581285Y-93734000D02*
X188581285Y-94162571D01*
X188581285Y-93948285D02*
X187831285Y-93948285D01*
X187938428Y-94019714D01*
X188009857Y-94091142D01*
X188045571Y-94162571D01*
%TO.C,U1*%
X189166571Y-107666285D02*
X189166571Y-108273428D01*
X189202285Y-108344857D01*
X189238000Y-108380571D01*
X189309428Y-108416285D01*
X189452285Y-108416285D01*
X189523714Y-108380571D01*
X189559428Y-108344857D01*
X189595142Y-108273428D01*
X189595142Y-107666285D01*
X190345142Y-108416285D02*
X189916571Y-108416285D01*
X190130857Y-108416285D02*
X190130857Y-107666285D01*
X190059428Y-107773428D01*
X189988000Y-107844857D01*
X189916571Y-107880571D01*
%TO.C,R4*%
X185759285Y-106791000D02*
X185402142Y-107041000D01*
X185759285Y-107219571D02*
X185009285Y-107219571D01*
X185009285Y-106933857D01*
X185045000Y-106862428D01*
X185080714Y-106826714D01*
X185152142Y-106791000D01*
X185259285Y-106791000D01*
X185330714Y-106826714D01*
X185366428Y-106862428D01*
X185402142Y-106933857D01*
X185402142Y-107219571D01*
X185259285Y-106148142D02*
X185759285Y-106148142D01*
X184973571Y-106326714D02*
X185509285Y-106505285D01*
X185509285Y-106041000D01*
%TO.C,R2*%
X187029285Y-100836000D02*
X186672142Y-101086000D01*
X187029285Y-101264571D02*
X186279285Y-101264571D01*
X186279285Y-100978857D01*
X186315000Y-100907428D01*
X186350714Y-100871714D01*
X186422142Y-100836000D01*
X186529285Y-100836000D01*
X186600714Y-100871714D01*
X186636428Y-100907428D01*
X186672142Y-100978857D01*
X186672142Y-101264571D01*
X186350714Y-100550285D02*
X186315000Y-100514571D01*
X186279285Y-100443142D01*
X186279285Y-100264571D01*
X186315000Y-100193142D01*
X186350714Y-100157428D01*
X186422142Y-100121714D01*
X186493571Y-100121714D01*
X186600714Y-100157428D01*
X187029285Y-100586000D01*
X187029285Y-100121714D01*
%TO.C,R1*%
X194014285Y-102995000D02*
X193657142Y-103245000D01*
X194014285Y-103423571D02*
X193264285Y-103423571D01*
X193264285Y-103137857D01*
X193300000Y-103066428D01*
X193335714Y-103030714D01*
X193407142Y-102995000D01*
X193514285Y-102995000D01*
X193585714Y-103030714D01*
X193621428Y-103066428D01*
X193657142Y-103137857D01*
X193657142Y-103423571D01*
X194014285Y-102280714D02*
X194014285Y-102709285D01*
X194014285Y-102495000D02*
X193264285Y-102495000D01*
X193371428Y-102566428D01*
X193442857Y-102637857D01*
X193478571Y-102709285D01*
%TO.C,L1*%
X191469285Y-98677000D02*
X191469285Y-99034142D01*
X190719285Y-99034142D01*
X191469285Y-98034142D02*
X191469285Y-98462714D01*
X191469285Y-98248428D02*
X190719285Y-98248428D01*
X190826428Y-98319857D01*
X190897857Y-98391285D01*
X190933571Y-98462714D01*
%TO.C,C7*%
X188597000Y-110757857D02*
X188561285Y-110793571D01*
X188454142Y-110829285D01*
X188382714Y-110829285D01*
X188275571Y-110793571D01*
X188204142Y-110722142D01*
X188168428Y-110650714D01*
X188132714Y-110507857D01*
X188132714Y-110400714D01*
X188168428Y-110257857D01*
X188204142Y-110186428D01*
X188275571Y-110115000D01*
X188382714Y-110079285D01*
X188454142Y-110079285D01*
X188561285Y-110115000D01*
X188597000Y-110150714D01*
X188847000Y-110079285D02*
X189347000Y-110079285D01*
X189025571Y-110829285D01*
%TO.C,C5*%
X183655857Y-103503000D02*
X183691571Y-103538714D01*
X183727285Y-103645857D01*
X183727285Y-103717285D01*
X183691571Y-103824428D01*
X183620142Y-103895857D01*
X183548714Y-103931571D01*
X183405857Y-103967285D01*
X183298714Y-103967285D01*
X183155857Y-103931571D01*
X183084428Y-103895857D01*
X183013000Y-103824428D01*
X182977285Y-103717285D01*
X182977285Y-103645857D01*
X183013000Y-103538714D01*
X183048714Y-103503000D01*
X182977285Y-102824428D02*
X182977285Y-103181571D01*
X183334428Y-103217285D01*
X183298714Y-103181571D01*
X183263000Y-103110142D01*
X183263000Y-102931571D01*
X183298714Y-102860142D01*
X183334428Y-102824428D01*
X183405857Y-102788714D01*
X183584428Y-102788714D01*
X183655857Y-102824428D01*
X183691571Y-102860142D01*
X183727285Y-102931571D01*
X183727285Y-103110142D01*
X183691571Y-103181571D01*
X183655857Y-103217285D01*
%TO.C,C1*%
X185041000Y-98875857D02*
X185005285Y-98911571D01*
X184898142Y-98947285D01*
X184826714Y-98947285D01*
X184719571Y-98911571D01*
X184648142Y-98840142D01*
X184612428Y-98768714D01*
X184576714Y-98625857D01*
X184576714Y-98518714D01*
X184612428Y-98375857D01*
X184648142Y-98304428D01*
X184719571Y-98233000D01*
X184826714Y-98197285D01*
X184898142Y-98197285D01*
X185005285Y-98233000D01*
X185041000Y-98268714D01*
X185755285Y-98947285D02*
X185326714Y-98947285D01*
X185541000Y-98947285D02*
X185541000Y-98197285D01*
X185469571Y-98304428D01*
X185398142Y-98375857D01*
X185326714Y-98411571D01*
%TO.C,R3*%
X194141285Y-106551000D02*
X193784142Y-106801000D01*
X194141285Y-106979571D02*
X193391285Y-106979571D01*
X193391285Y-106693857D01*
X193427000Y-106622428D01*
X193462714Y-106586714D01*
X193534142Y-106551000D01*
X193641285Y-106551000D01*
X193712714Y-106586714D01*
X193748428Y-106622428D01*
X193784142Y-106693857D01*
X193784142Y-106979571D01*
X193391285Y-106301000D02*
X193391285Y-105836714D01*
X193677000Y-106086714D01*
X193677000Y-105979571D01*
X193712714Y-105908142D01*
X193748428Y-105872428D01*
X193819857Y-105836714D01*
X193998428Y-105836714D01*
X194069857Y-105872428D01*
X194105571Y-105908142D01*
X194141285Y-105979571D01*
X194141285Y-106193857D01*
X194105571Y-106265285D01*
X194069857Y-106301000D01*
%TO.C,C6*%
X191391000Y-110757857D02*
X191355285Y-110793571D01*
X191248142Y-110829285D01*
X191176714Y-110829285D01*
X191069571Y-110793571D01*
X190998142Y-110722142D01*
X190962428Y-110650714D01*
X190926714Y-110507857D01*
X190926714Y-110400714D01*
X190962428Y-110257857D01*
X190998142Y-110186428D01*
X191069571Y-110115000D01*
X191176714Y-110079285D01*
X191248142Y-110079285D01*
X191355285Y-110115000D01*
X191391000Y-110150714D01*
X192033857Y-110079285D02*
X191891000Y-110079285D01*
X191819571Y-110115000D01*
X191783857Y-110150714D01*
X191712428Y-110257857D01*
X191676714Y-110400714D01*
X191676714Y-110686428D01*
X191712428Y-110757857D01*
X191748142Y-110793571D01*
X191819571Y-110829285D01*
X191962428Y-110829285D01*
X192033857Y-110793571D01*
X192069571Y-110757857D01*
X192105285Y-110686428D01*
X192105285Y-110507857D01*
X192069571Y-110436428D01*
X192033857Y-110400714D01*
X191962428Y-110365000D01*
X191819571Y-110365000D01*
X191748142Y-110400714D01*
X191712428Y-110436428D01*
X191676714Y-110507857D01*
%TD*%
M02*
