%TF.GenerationSoftware,KiCad,Pcbnew,5.1.9-73d0e3b20d~88~ubuntu20.04.1*%
%TF.CreationDate,2021-03-15T23:00:21-05:00*%
%TF.ProjectId,portalgun,706f7274-616c-4677-956e-2e6b69636164,Draft A*%
%TF.SameCoordinates,Original*%
%TF.FileFunction,Paste,Top*%
%TF.FilePolarity,Positive*%
%FSLAX46Y46*%
G04 Gerber Fmt 4.6, Leading zero omitted, Abs format (unit mm)*
G04 Created by KiCad (PCBNEW 5.1.9-73d0e3b20d~88~ubuntu20.04.1) date 2021-03-15 23:00:21*
%MOMM*%
%LPD*%
G01*
G04 APERTURE LIST*
%ADD10R,0.800000X0.900000*%
%ADD11R,0.400000X0.650000*%
%ADD12R,0.650000X1.060000*%
%ADD13R,1.060000X0.650000*%
%ADD14R,2.500000X1.000000*%
%ADD15R,1.000000X1.800000*%
G04 APERTURE END LIST*
%TO.C,C11*%
G36*
G01*
X240051001Y-96195000D02*
X239500999Y-96195000D01*
G75*
G02*
X239251000Y-95945001I0J249999D01*
G01*
X239251000Y-95319999D01*
G75*
G02*
X239500999Y-95070000I249999J0D01*
G01*
X240051001Y-95070000D01*
G75*
G02*
X240301000Y-95319999I0J-249999D01*
G01*
X240301000Y-95945001D01*
G75*
G02*
X240051001Y-96195000I-249999J0D01*
G01*
G37*
G36*
G01*
X240051001Y-97970000D02*
X239500999Y-97970000D01*
G75*
G02*
X239251000Y-97720001I0J249999D01*
G01*
X239251000Y-97094999D01*
G75*
G02*
X239500999Y-96845000I249999J0D01*
G01*
X240051001Y-96845000D01*
G75*
G02*
X240301000Y-97094999I0J-249999D01*
G01*
X240301000Y-97720001D01*
G75*
G02*
X240051001Y-97970000I-249999J0D01*
G01*
G37*
%TD*%
%TO.C,R6*%
G36*
G01*
X217191000Y-114891000D02*
X216641000Y-114891000D01*
G75*
G02*
X216441000Y-114691000I0J200000D01*
G01*
X216441000Y-114291000D01*
G75*
G02*
X216641000Y-114091000I200000J0D01*
G01*
X217191000Y-114091000D01*
G75*
G02*
X217391000Y-114291000I0J-200000D01*
G01*
X217391000Y-114691000D01*
G75*
G02*
X217191000Y-114891000I-200000J0D01*
G01*
G37*
G36*
G01*
X217191000Y-116541000D02*
X216641000Y-116541000D01*
G75*
G02*
X216441000Y-116341000I0J200000D01*
G01*
X216441000Y-115941000D01*
G75*
G02*
X216641000Y-115741000I200000J0D01*
G01*
X217191000Y-115741000D01*
G75*
G02*
X217391000Y-115941000I0J-200000D01*
G01*
X217391000Y-116341000D01*
G75*
G02*
X217191000Y-116541000I-200000J0D01*
G01*
G37*
%TD*%
%TO.C,R9*%
G36*
G01*
X216937000Y-106572000D02*
X216387000Y-106572000D01*
G75*
G02*
X216187000Y-106372000I0J200000D01*
G01*
X216187000Y-105972000D01*
G75*
G02*
X216387000Y-105772000I200000J0D01*
G01*
X216937000Y-105772000D01*
G75*
G02*
X217137000Y-105972000I0J-200000D01*
G01*
X217137000Y-106372000D01*
G75*
G02*
X216937000Y-106572000I-200000J0D01*
G01*
G37*
G36*
G01*
X216937000Y-108222000D02*
X216387000Y-108222000D01*
G75*
G02*
X216187000Y-108022000I0J200000D01*
G01*
X216187000Y-107622000D01*
G75*
G02*
X216387000Y-107422000I200000J0D01*
G01*
X216937000Y-107422000D01*
G75*
G02*
X217137000Y-107622000I0J-200000D01*
G01*
X217137000Y-108022000D01*
G75*
G02*
X216937000Y-108222000I-200000J0D01*
G01*
G37*
%TD*%
D10*
%TO.C,Q3*%
X199756000Y-113514000D03*
X198806000Y-111514000D03*
X200706000Y-111514000D03*
%TD*%
%TO.C,Q2*%
X191262000Y-113522000D03*
X190312000Y-111522000D03*
X192212000Y-111522000D03*
%TD*%
%TO.C,Q1*%
X184658000Y-113522000D03*
X183708000Y-111522000D03*
X185608000Y-111522000D03*
%TD*%
%TO.C,C9*%
G36*
G01*
X215829000Y-97286000D02*
X215829000Y-97786000D01*
G75*
G02*
X215604000Y-98011000I-225000J0D01*
G01*
X215154000Y-98011000D01*
G75*
G02*
X214929000Y-97786000I0J225000D01*
G01*
X214929000Y-97286000D01*
G75*
G02*
X215154000Y-97061000I225000J0D01*
G01*
X215604000Y-97061000D01*
G75*
G02*
X215829000Y-97286000I0J-225000D01*
G01*
G37*
G36*
G01*
X217379000Y-97286000D02*
X217379000Y-97786000D01*
G75*
G02*
X217154000Y-98011000I-225000J0D01*
G01*
X216704000Y-98011000D01*
G75*
G02*
X216479000Y-97786000I0J225000D01*
G01*
X216479000Y-97286000D01*
G75*
G02*
X216704000Y-97061000I225000J0D01*
G01*
X217154000Y-97061000D01*
G75*
G02*
X217379000Y-97286000I0J-225000D01*
G01*
G37*
%TD*%
%TO.C,R5*%
G36*
G01*
X223437000Y-97811000D02*
X223437000Y-97261000D01*
G75*
G02*
X223637000Y-97061000I200000J0D01*
G01*
X224037000Y-97061000D01*
G75*
G02*
X224237000Y-97261000I0J-200000D01*
G01*
X224237000Y-97811000D01*
G75*
G02*
X224037000Y-98011000I-200000J0D01*
G01*
X223637000Y-98011000D01*
G75*
G02*
X223437000Y-97811000I0J200000D01*
G01*
G37*
G36*
G01*
X221787000Y-97811000D02*
X221787000Y-97261000D01*
G75*
G02*
X221987000Y-97061000I200000J0D01*
G01*
X222387000Y-97061000D01*
G75*
G02*
X222587000Y-97261000I0J-200000D01*
G01*
X222587000Y-97811000D01*
G75*
G02*
X222387000Y-98011000I-200000J0D01*
G01*
X221987000Y-98011000D01*
G75*
G02*
X221787000Y-97811000I0J200000D01*
G01*
G37*
%TD*%
D11*
%TO.C,U8*%
X224424000Y-102042000D03*
X223124000Y-102042000D03*
X223774000Y-100142000D03*
X223124000Y-100142000D03*
X224424000Y-100142000D03*
%TD*%
%TO.C,U7*%
X220076000Y-100142000D03*
X221376000Y-100142000D03*
X220726000Y-102042000D03*
X221376000Y-102042000D03*
X220076000Y-102042000D03*
%TD*%
%TO.C,U6*%
X217028000Y-100142000D03*
X218328000Y-100142000D03*
X217678000Y-102042000D03*
X218328000Y-102042000D03*
X217028000Y-102042000D03*
%TD*%
%TO.C,C8*%
G36*
G01*
X196921000Y-106168000D02*
X196921000Y-105668000D01*
G75*
G02*
X197146000Y-105443000I225000J0D01*
G01*
X197596000Y-105443000D01*
G75*
G02*
X197821000Y-105668000I0J-225000D01*
G01*
X197821000Y-106168000D01*
G75*
G02*
X197596000Y-106393000I-225000J0D01*
G01*
X197146000Y-106393000D01*
G75*
G02*
X196921000Y-106168000I0J225000D01*
G01*
G37*
G36*
G01*
X195371000Y-106168000D02*
X195371000Y-105668000D01*
G75*
G02*
X195596000Y-105443000I225000J0D01*
G01*
X196046000Y-105443000D01*
G75*
G02*
X196271000Y-105668000I0J-225000D01*
G01*
X196271000Y-106168000D01*
G75*
G02*
X196046000Y-106393000I-225000J0D01*
G01*
X195596000Y-106393000D01*
G75*
G02*
X195371000Y-106168000I0J225000D01*
G01*
G37*
%TD*%
D12*
%TO.C,U3*%
X195646000Y-107612000D03*
X197546000Y-107612000D03*
X197546000Y-109812000D03*
X196596000Y-109812000D03*
X195646000Y-109812000D03*
%TD*%
D13*
%TO.C,U5*%
X202268000Y-105984000D03*
X202268000Y-107884000D03*
X200068000Y-107884000D03*
X200068000Y-106934000D03*
X200068000Y-105984000D03*
%TD*%
%TO.C,C10*%
G36*
G01*
X203712000Y-107005000D02*
X204212000Y-107005000D01*
G75*
G02*
X204437000Y-107230000I0J-225000D01*
G01*
X204437000Y-107680000D01*
G75*
G02*
X204212000Y-107905000I-225000J0D01*
G01*
X203712000Y-107905000D01*
G75*
G02*
X203487000Y-107680000I0J225000D01*
G01*
X203487000Y-107230000D01*
G75*
G02*
X203712000Y-107005000I225000J0D01*
G01*
G37*
G36*
G01*
X203712000Y-105455000D02*
X204212000Y-105455000D01*
G75*
G02*
X204437000Y-105680000I0J-225000D01*
G01*
X204437000Y-106130000D01*
G75*
G02*
X204212000Y-106355000I-225000J0D01*
G01*
X203712000Y-106355000D01*
G75*
G02*
X203487000Y-106130000I0J225000D01*
G01*
X203487000Y-105680000D01*
G75*
G02*
X203712000Y-105455000I225000J0D01*
G01*
G37*
%TD*%
%TO.C,R16*%
G36*
G01*
X207497000Y-104311000D02*
X208047000Y-104311000D01*
G75*
G02*
X208247000Y-104511000I0J-200000D01*
G01*
X208247000Y-104911000D01*
G75*
G02*
X208047000Y-105111000I-200000J0D01*
G01*
X207497000Y-105111000D01*
G75*
G02*
X207297000Y-104911000I0J200000D01*
G01*
X207297000Y-104511000D01*
G75*
G02*
X207497000Y-104311000I200000J0D01*
G01*
G37*
G36*
G01*
X207497000Y-102661000D02*
X208047000Y-102661000D01*
G75*
G02*
X208247000Y-102861000I0J-200000D01*
G01*
X208247000Y-103261000D01*
G75*
G02*
X208047000Y-103461000I-200000J0D01*
G01*
X207497000Y-103461000D01*
G75*
G02*
X207297000Y-103261000I0J200000D01*
G01*
X207297000Y-102861000D01*
G75*
G02*
X207497000Y-102661000I200000J0D01*
G01*
G37*
%TD*%
%TO.C,R15*%
G36*
G01*
X207497000Y-101263000D02*
X208047000Y-101263000D01*
G75*
G02*
X208247000Y-101463000I0J-200000D01*
G01*
X208247000Y-101863000D01*
G75*
G02*
X208047000Y-102063000I-200000J0D01*
G01*
X207497000Y-102063000D01*
G75*
G02*
X207297000Y-101863000I0J200000D01*
G01*
X207297000Y-101463000D01*
G75*
G02*
X207497000Y-101263000I200000J0D01*
G01*
G37*
G36*
G01*
X207497000Y-99613000D02*
X208047000Y-99613000D01*
G75*
G02*
X208247000Y-99813000I0J-200000D01*
G01*
X208247000Y-100213000D01*
G75*
G02*
X208047000Y-100413000I-200000J0D01*
G01*
X207497000Y-100413000D01*
G75*
G02*
X207297000Y-100213000I0J200000D01*
G01*
X207297000Y-99813000D01*
G75*
G02*
X207497000Y-99613000I200000J0D01*
G01*
G37*
%TD*%
%TO.C,C4*%
G36*
G01*
X201926000Y-97719000D02*
X201426000Y-97719000D01*
G75*
G02*
X201201000Y-97494000I0J225000D01*
G01*
X201201000Y-97044000D01*
G75*
G02*
X201426000Y-96819000I225000J0D01*
G01*
X201926000Y-96819000D01*
G75*
G02*
X202151000Y-97044000I0J-225000D01*
G01*
X202151000Y-97494000D01*
G75*
G02*
X201926000Y-97719000I-225000J0D01*
G01*
G37*
G36*
G01*
X201926000Y-99269000D02*
X201426000Y-99269000D01*
G75*
G02*
X201201000Y-99044000I0J225000D01*
G01*
X201201000Y-98594000D01*
G75*
G02*
X201426000Y-98369000I225000J0D01*
G01*
X201926000Y-98369000D01*
G75*
G02*
X202151000Y-98594000I0J-225000D01*
G01*
X202151000Y-99044000D01*
G75*
G02*
X201926000Y-99269000I-225000J0D01*
G01*
G37*
%TD*%
%TO.C,C2*%
G36*
G01*
X242283000Y-96070000D02*
X241333000Y-96070000D01*
G75*
G02*
X241083000Y-95820000I0J250000D01*
G01*
X241083000Y-95320000D01*
G75*
G02*
X241333000Y-95070000I250000J0D01*
G01*
X242283000Y-95070000D01*
G75*
G02*
X242533000Y-95320000I0J-250000D01*
G01*
X242533000Y-95820000D01*
G75*
G02*
X242283000Y-96070000I-250000J0D01*
G01*
G37*
G36*
G01*
X242283000Y-97970000D02*
X241333000Y-97970000D01*
G75*
G02*
X241083000Y-97720000I0J250000D01*
G01*
X241083000Y-97220000D01*
G75*
G02*
X241333000Y-96970000I250000J0D01*
G01*
X242283000Y-96970000D01*
G75*
G02*
X242533000Y-97220000I0J-250000D01*
G01*
X242533000Y-97720000D01*
G75*
G02*
X242283000Y-97970000I-250000J0D01*
G01*
G37*
%TD*%
D14*
%TO.C,U2*%
X227223000Y-116403000D03*
X227223000Y-114403000D03*
X227223000Y-112403000D03*
X227223000Y-110403000D03*
X227223000Y-108403000D03*
X227223000Y-106403000D03*
X227223000Y-104403000D03*
X227223000Y-102403000D03*
D15*
X229823000Y-100903000D03*
X231823000Y-100903000D03*
X233823000Y-100903000D03*
X235823000Y-100903000D03*
X237823000Y-100903000D03*
X239823000Y-100903000D03*
D14*
X242423000Y-102403000D03*
X242423000Y-104403000D03*
X242423000Y-106403000D03*
X242423000Y-108403000D03*
X242423000Y-110403000D03*
X242423000Y-112403000D03*
X242423000Y-114403000D03*
X242423000Y-116403000D03*
%TD*%
%TO.C,R11*%
G36*
G01*
X187727000Y-112343000D02*
X187177000Y-112343000D01*
G75*
G02*
X186977000Y-112143000I0J200000D01*
G01*
X186977000Y-111743000D01*
G75*
G02*
X187177000Y-111543000I200000J0D01*
G01*
X187727000Y-111543000D01*
G75*
G02*
X187927000Y-111743000I0J-200000D01*
G01*
X187927000Y-112143000D01*
G75*
G02*
X187727000Y-112343000I-200000J0D01*
G01*
G37*
G36*
G01*
X187727000Y-113993000D02*
X187177000Y-113993000D01*
G75*
G02*
X186977000Y-113793000I0J200000D01*
G01*
X186977000Y-113393000D01*
G75*
G02*
X187177000Y-113193000I200000J0D01*
G01*
X187727000Y-113193000D01*
G75*
G02*
X187927000Y-113393000I0J-200000D01*
G01*
X187927000Y-113793000D01*
G75*
G02*
X187727000Y-113993000I-200000J0D01*
G01*
G37*
%TD*%
%TO.C,R10*%
G36*
G01*
X194331000Y-112351000D02*
X193781000Y-112351000D01*
G75*
G02*
X193581000Y-112151000I0J200000D01*
G01*
X193581000Y-111751000D01*
G75*
G02*
X193781000Y-111551000I200000J0D01*
G01*
X194331000Y-111551000D01*
G75*
G02*
X194531000Y-111751000I0J-200000D01*
G01*
X194531000Y-112151000D01*
G75*
G02*
X194331000Y-112351000I-200000J0D01*
G01*
G37*
G36*
G01*
X194331000Y-114001000D02*
X193781000Y-114001000D01*
G75*
G02*
X193581000Y-113801000I0J200000D01*
G01*
X193581000Y-113401000D01*
G75*
G02*
X193781000Y-113201000I200000J0D01*
G01*
X194331000Y-113201000D01*
G75*
G02*
X194531000Y-113401000I0J-200000D01*
G01*
X194531000Y-113801000D01*
G75*
G02*
X194331000Y-114001000I-200000J0D01*
G01*
G37*
%TD*%
%TO.C,R8*%
G36*
G01*
X202825000Y-112089000D02*
X202275000Y-112089000D01*
G75*
G02*
X202075000Y-111889000I0J200000D01*
G01*
X202075000Y-111489000D01*
G75*
G02*
X202275000Y-111289000I200000J0D01*
G01*
X202825000Y-111289000D01*
G75*
G02*
X203025000Y-111489000I0J-200000D01*
G01*
X203025000Y-111889000D01*
G75*
G02*
X202825000Y-112089000I-200000J0D01*
G01*
G37*
G36*
G01*
X202825000Y-113739000D02*
X202275000Y-113739000D01*
G75*
G02*
X202075000Y-113539000I0J200000D01*
G01*
X202075000Y-113139000D01*
G75*
G02*
X202275000Y-112939000I200000J0D01*
G01*
X202825000Y-112939000D01*
G75*
G02*
X203025000Y-113139000I0J-200000D01*
G01*
X203025000Y-113539000D01*
G75*
G02*
X202825000Y-113739000I-200000J0D01*
G01*
G37*
%TD*%
%TO.C,U4*%
G36*
G01*
X203892500Y-102691000D02*
X204227500Y-102691000D01*
G75*
G02*
X204395000Y-102858500I0J-167500D01*
G01*
X204395000Y-103193500D01*
G75*
G02*
X204227500Y-103361000I-167500J0D01*
G01*
X203892500Y-103361000D01*
G75*
G02*
X203725000Y-103193500I0J167500D01*
G01*
X203725000Y-102858500D01*
G75*
G02*
X203892500Y-102691000I167500J0D01*
G01*
G37*
G36*
G01*
X204712500Y-102691000D02*
X205047500Y-102691000D01*
G75*
G02*
X205215000Y-102858500I0J-167500D01*
G01*
X205215000Y-103193500D01*
G75*
G02*
X205047500Y-103361000I-167500J0D01*
G01*
X204712500Y-103361000D01*
G75*
G02*
X204545000Y-103193500I0J167500D01*
G01*
X204545000Y-102858500D01*
G75*
G02*
X204712500Y-102691000I167500J0D01*
G01*
G37*
G36*
G01*
X203892500Y-101871000D02*
X204227500Y-101871000D01*
G75*
G02*
X204395000Y-102038500I0J-167500D01*
G01*
X204395000Y-102373500D01*
G75*
G02*
X204227500Y-102541000I-167500J0D01*
G01*
X203892500Y-102541000D01*
G75*
G02*
X203725000Y-102373500I0J167500D01*
G01*
X203725000Y-102038500D01*
G75*
G02*
X203892500Y-101871000I167500J0D01*
G01*
G37*
G36*
G01*
X204712500Y-101871000D02*
X205047500Y-101871000D01*
G75*
G02*
X205215000Y-102038500I0J-167500D01*
G01*
X205215000Y-102373500D01*
G75*
G02*
X205047500Y-102541000I-167500J0D01*
G01*
X204712500Y-102541000D01*
G75*
G02*
X204545000Y-102373500I0J167500D01*
G01*
X204545000Y-102038500D01*
G75*
G02*
X204712500Y-101871000I167500J0D01*
G01*
G37*
G36*
G01*
X205545000Y-101716000D02*
X206295000Y-101716000D01*
G75*
G02*
X206345000Y-101766000I0J-50000D01*
G01*
X206345000Y-101866000D01*
G75*
G02*
X206295000Y-101916000I-50000J0D01*
G01*
X205545000Y-101916000D01*
G75*
G02*
X205495000Y-101866000I0J50000D01*
G01*
X205495000Y-101766000D01*
G75*
G02*
X205545000Y-101716000I50000J0D01*
G01*
G37*
G36*
G01*
X205545000Y-102116000D02*
X206295000Y-102116000D01*
G75*
G02*
X206345000Y-102166000I0J-50000D01*
G01*
X206345000Y-102266000D01*
G75*
G02*
X206295000Y-102316000I-50000J0D01*
G01*
X205545000Y-102316000D01*
G75*
G02*
X205495000Y-102266000I0J50000D01*
G01*
X205495000Y-102166000D01*
G75*
G02*
X205545000Y-102116000I50000J0D01*
G01*
G37*
G36*
G01*
X205545000Y-102516000D02*
X206295000Y-102516000D01*
G75*
G02*
X206345000Y-102566000I0J-50000D01*
G01*
X206345000Y-102666000D01*
G75*
G02*
X206295000Y-102716000I-50000J0D01*
G01*
X205545000Y-102716000D01*
G75*
G02*
X205495000Y-102666000I0J50000D01*
G01*
X205495000Y-102566000D01*
G75*
G02*
X205545000Y-102516000I50000J0D01*
G01*
G37*
G36*
G01*
X205545000Y-102916000D02*
X206295000Y-102916000D01*
G75*
G02*
X206345000Y-102966000I0J-50000D01*
G01*
X206345000Y-103066000D01*
G75*
G02*
X206295000Y-103116000I-50000J0D01*
G01*
X205545000Y-103116000D01*
G75*
G02*
X205495000Y-103066000I0J50000D01*
G01*
X205495000Y-102966000D01*
G75*
G02*
X205545000Y-102916000I50000J0D01*
G01*
G37*
G36*
G01*
X205545000Y-103316000D02*
X206295000Y-103316000D01*
G75*
G02*
X206345000Y-103366000I0J-50000D01*
G01*
X206345000Y-103466000D01*
G75*
G02*
X206295000Y-103516000I-50000J0D01*
G01*
X205545000Y-103516000D01*
G75*
G02*
X205495000Y-103466000I0J50000D01*
G01*
X205495000Y-103366000D01*
G75*
G02*
X205545000Y-103316000I50000J0D01*
G01*
G37*
G36*
G01*
X205220000Y-103641000D02*
X205320000Y-103641000D01*
G75*
G02*
X205370000Y-103691000I0J-50000D01*
G01*
X205370000Y-104441000D01*
G75*
G02*
X205320000Y-104491000I-50000J0D01*
G01*
X205220000Y-104491000D01*
G75*
G02*
X205170000Y-104441000I0J50000D01*
G01*
X205170000Y-103691000D01*
G75*
G02*
X205220000Y-103641000I50000J0D01*
G01*
G37*
G36*
G01*
X204820000Y-103641000D02*
X204920000Y-103641000D01*
G75*
G02*
X204970000Y-103691000I0J-50000D01*
G01*
X204970000Y-104441000D01*
G75*
G02*
X204920000Y-104491000I-50000J0D01*
G01*
X204820000Y-104491000D01*
G75*
G02*
X204770000Y-104441000I0J50000D01*
G01*
X204770000Y-103691000D01*
G75*
G02*
X204820000Y-103641000I50000J0D01*
G01*
G37*
G36*
G01*
X204420000Y-103641000D02*
X204520000Y-103641000D01*
G75*
G02*
X204570000Y-103691000I0J-50000D01*
G01*
X204570000Y-104441000D01*
G75*
G02*
X204520000Y-104491000I-50000J0D01*
G01*
X204420000Y-104491000D01*
G75*
G02*
X204370000Y-104441000I0J50000D01*
G01*
X204370000Y-103691000D01*
G75*
G02*
X204420000Y-103641000I50000J0D01*
G01*
G37*
G36*
G01*
X204020000Y-103641000D02*
X204120000Y-103641000D01*
G75*
G02*
X204170000Y-103691000I0J-50000D01*
G01*
X204170000Y-104441000D01*
G75*
G02*
X204120000Y-104491000I-50000J0D01*
G01*
X204020000Y-104491000D01*
G75*
G02*
X203970000Y-104441000I0J50000D01*
G01*
X203970000Y-103691000D01*
G75*
G02*
X204020000Y-103641000I50000J0D01*
G01*
G37*
G36*
G01*
X203620000Y-103641000D02*
X203720000Y-103641000D01*
G75*
G02*
X203770000Y-103691000I0J-50000D01*
G01*
X203770000Y-104441000D01*
G75*
G02*
X203720000Y-104491000I-50000J0D01*
G01*
X203620000Y-104491000D01*
G75*
G02*
X203570000Y-104441000I0J50000D01*
G01*
X203570000Y-103691000D01*
G75*
G02*
X203620000Y-103641000I50000J0D01*
G01*
G37*
G36*
G01*
X202645000Y-103316000D02*
X203395000Y-103316000D01*
G75*
G02*
X203445000Y-103366000I0J-50000D01*
G01*
X203445000Y-103466000D01*
G75*
G02*
X203395000Y-103516000I-50000J0D01*
G01*
X202645000Y-103516000D01*
G75*
G02*
X202595000Y-103466000I0J50000D01*
G01*
X202595000Y-103366000D01*
G75*
G02*
X202645000Y-103316000I50000J0D01*
G01*
G37*
G36*
G01*
X202645000Y-102916000D02*
X203395000Y-102916000D01*
G75*
G02*
X203445000Y-102966000I0J-50000D01*
G01*
X203445000Y-103066000D01*
G75*
G02*
X203395000Y-103116000I-50000J0D01*
G01*
X202645000Y-103116000D01*
G75*
G02*
X202595000Y-103066000I0J50000D01*
G01*
X202595000Y-102966000D01*
G75*
G02*
X202645000Y-102916000I50000J0D01*
G01*
G37*
G36*
G01*
X202645000Y-102516000D02*
X203395000Y-102516000D01*
G75*
G02*
X203445000Y-102566000I0J-50000D01*
G01*
X203445000Y-102666000D01*
G75*
G02*
X203395000Y-102716000I-50000J0D01*
G01*
X202645000Y-102716000D01*
G75*
G02*
X202595000Y-102666000I0J50000D01*
G01*
X202595000Y-102566000D01*
G75*
G02*
X202645000Y-102516000I50000J0D01*
G01*
G37*
G36*
G01*
X202645000Y-102116000D02*
X203395000Y-102116000D01*
G75*
G02*
X203445000Y-102166000I0J-50000D01*
G01*
X203445000Y-102266000D01*
G75*
G02*
X203395000Y-102316000I-50000J0D01*
G01*
X202645000Y-102316000D01*
G75*
G02*
X202595000Y-102266000I0J50000D01*
G01*
X202595000Y-102166000D01*
G75*
G02*
X202645000Y-102116000I50000J0D01*
G01*
G37*
G36*
G01*
X202645000Y-101716000D02*
X203395000Y-101716000D01*
G75*
G02*
X203445000Y-101766000I0J-50000D01*
G01*
X203445000Y-101866000D01*
G75*
G02*
X203395000Y-101916000I-50000J0D01*
G01*
X202645000Y-101916000D01*
G75*
G02*
X202595000Y-101866000I0J50000D01*
G01*
X202595000Y-101766000D01*
G75*
G02*
X202645000Y-101716000I50000J0D01*
G01*
G37*
G36*
G01*
X203620000Y-100741000D02*
X203720000Y-100741000D01*
G75*
G02*
X203770000Y-100791000I0J-50000D01*
G01*
X203770000Y-101541000D01*
G75*
G02*
X203720000Y-101591000I-50000J0D01*
G01*
X203620000Y-101591000D01*
G75*
G02*
X203570000Y-101541000I0J50000D01*
G01*
X203570000Y-100791000D01*
G75*
G02*
X203620000Y-100741000I50000J0D01*
G01*
G37*
G36*
G01*
X204020000Y-100741000D02*
X204120000Y-100741000D01*
G75*
G02*
X204170000Y-100791000I0J-50000D01*
G01*
X204170000Y-101541000D01*
G75*
G02*
X204120000Y-101591000I-50000J0D01*
G01*
X204020000Y-101591000D01*
G75*
G02*
X203970000Y-101541000I0J50000D01*
G01*
X203970000Y-100791000D01*
G75*
G02*
X204020000Y-100741000I50000J0D01*
G01*
G37*
G36*
G01*
X204420000Y-100741000D02*
X204520000Y-100741000D01*
G75*
G02*
X204570000Y-100791000I0J-50000D01*
G01*
X204570000Y-101541000D01*
G75*
G02*
X204520000Y-101591000I-50000J0D01*
G01*
X204420000Y-101591000D01*
G75*
G02*
X204370000Y-101541000I0J50000D01*
G01*
X204370000Y-100791000D01*
G75*
G02*
X204420000Y-100741000I50000J0D01*
G01*
G37*
G36*
G01*
X204820000Y-100741000D02*
X204920000Y-100741000D01*
G75*
G02*
X204970000Y-100791000I0J-50000D01*
G01*
X204970000Y-101541000D01*
G75*
G02*
X204920000Y-101591000I-50000J0D01*
G01*
X204820000Y-101591000D01*
G75*
G02*
X204770000Y-101541000I0J50000D01*
G01*
X204770000Y-100791000D01*
G75*
G02*
X204820000Y-100741000I50000J0D01*
G01*
G37*
G36*
G01*
X205220000Y-100741000D02*
X205320000Y-100741000D01*
G75*
G02*
X205370000Y-100791000I0J-50000D01*
G01*
X205370000Y-101541000D01*
G75*
G02*
X205320000Y-101591000I-50000J0D01*
G01*
X205220000Y-101591000D01*
G75*
G02*
X205170000Y-101541000I0J50000D01*
G01*
X205170000Y-100791000D01*
G75*
G02*
X205220000Y-100741000I50000J0D01*
G01*
G37*
%TD*%
%TO.C,C3*%
G36*
G01*
X203450000Y-97719000D02*
X202950000Y-97719000D01*
G75*
G02*
X202725000Y-97494000I0J225000D01*
G01*
X202725000Y-97044000D01*
G75*
G02*
X202950000Y-96819000I225000J0D01*
G01*
X203450000Y-96819000D01*
G75*
G02*
X203675000Y-97044000I0J-225000D01*
G01*
X203675000Y-97494000D01*
G75*
G02*
X203450000Y-97719000I-225000J0D01*
G01*
G37*
G36*
G01*
X203450000Y-99269000D02*
X202950000Y-99269000D01*
G75*
G02*
X202725000Y-99044000I0J225000D01*
G01*
X202725000Y-98594000D01*
G75*
G02*
X202950000Y-98369000I225000J0D01*
G01*
X203450000Y-98369000D01*
G75*
G02*
X203675000Y-98594000I0J-225000D01*
G01*
X203675000Y-99044000D01*
G75*
G02*
X203450000Y-99269000I-225000J0D01*
G01*
G37*
%TD*%
%TO.C,U1*%
G36*
G01*
X188859000Y-103116000D02*
X188659000Y-103116000D01*
G75*
G02*
X188559000Y-103016000I0J100000D01*
G01*
X188559000Y-101591000D01*
G75*
G02*
X188659000Y-101491000I100000J0D01*
G01*
X188859000Y-101491000D01*
G75*
G02*
X188959000Y-101591000I0J-100000D01*
G01*
X188959000Y-103016000D01*
G75*
G02*
X188859000Y-103116000I-100000J0D01*
G01*
G37*
G36*
G01*
X189509000Y-103116000D02*
X189309000Y-103116000D01*
G75*
G02*
X189209000Y-103016000I0J100000D01*
G01*
X189209000Y-101591000D01*
G75*
G02*
X189309000Y-101491000I100000J0D01*
G01*
X189509000Y-101491000D01*
G75*
G02*
X189609000Y-101591000I0J-100000D01*
G01*
X189609000Y-103016000D01*
G75*
G02*
X189509000Y-103116000I-100000J0D01*
G01*
G37*
G36*
G01*
X190159000Y-103116000D02*
X189959000Y-103116000D01*
G75*
G02*
X189859000Y-103016000I0J100000D01*
G01*
X189859000Y-101591000D01*
G75*
G02*
X189959000Y-101491000I100000J0D01*
G01*
X190159000Y-101491000D01*
G75*
G02*
X190259000Y-101591000I0J-100000D01*
G01*
X190259000Y-103016000D01*
G75*
G02*
X190159000Y-103116000I-100000J0D01*
G01*
G37*
G36*
G01*
X190809000Y-103116000D02*
X190609000Y-103116000D01*
G75*
G02*
X190509000Y-103016000I0J100000D01*
G01*
X190509000Y-101591000D01*
G75*
G02*
X190609000Y-101491000I100000J0D01*
G01*
X190809000Y-101491000D01*
G75*
G02*
X190909000Y-101591000I0J-100000D01*
G01*
X190909000Y-103016000D01*
G75*
G02*
X190809000Y-103116000I-100000J0D01*
G01*
G37*
G36*
G01*
X190809000Y-107341000D02*
X190609000Y-107341000D01*
G75*
G02*
X190509000Y-107241000I0J100000D01*
G01*
X190509000Y-105816000D01*
G75*
G02*
X190609000Y-105716000I100000J0D01*
G01*
X190809000Y-105716000D01*
G75*
G02*
X190909000Y-105816000I0J-100000D01*
G01*
X190909000Y-107241000D01*
G75*
G02*
X190809000Y-107341000I-100000J0D01*
G01*
G37*
G36*
G01*
X190159000Y-107341000D02*
X189959000Y-107341000D01*
G75*
G02*
X189859000Y-107241000I0J100000D01*
G01*
X189859000Y-105816000D01*
G75*
G02*
X189959000Y-105716000I100000J0D01*
G01*
X190159000Y-105716000D01*
G75*
G02*
X190259000Y-105816000I0J-100000D01*
G01*
X190259000Y-107241000D01*
G75*
G02*
X190159000Y-107341000I-100000J0D01*
G01*
G37*
G36*
G01*
X189509000Y-107341000D02*
X189309000Y-107341000D01*
G75*
G02*
X189209000Y-107241000I0J100000D01*
G01*
X189209000Y-105816000D01*
G75*
G02*
X189309000Y-105716000I100000J0D01*
G01*
X189509000Y-105716000D01*
G75*
G02*
X189609000Y-105816000I0J-100000D01*
G01*
X189609000Y-107241000D01*
G75*
G02*
X189509000Y-107341000I-100000J0D01*
G01*
G37*
G36*
G01*
X188859000Y-107341000D02*
X188659000Y-107341000D01*
G75*
G02*
X188559000Y-107241000I0J100000D01*
G01*
X188559000Y-105816000D01*
G75*
G02*
X188659000Y-105716000I100000J0D01*
G01*
X188859000Y-105716000D01*
G75*
G02*
X188959000Y-105816000I0J-100000D01*
G01*
X188959000Y-107241000D01*
G75*
G02*
X188859000Y-107341000I-100000J0D01*
G01*
G37*
%TD*%
%TO.C,R4*%
G36*
G01*
X186496500Y-107091000D02*
X186971500Y-107091000D01*
G75*
G02*
X187209000Y-107328500I0J-237500D01*
G01*
X187209000Y-107828500D01*
G75*
G02*
X186971500Y-108066000I-237500J0D01*
G01*
X186496500Y-108066000D01*
G75*
G02*
X186259000Y-107828500I0J237500D01*
G01*
X186259000Y-107328500D01*
G75*
G02*
X186496500Y-107091000I237500J0D01*
G01*
G37*
G36*
G01*
X186496500Y-105266000D02*
X186971500Y-105266000D01*
G75*
G02*
X187209000Y-105503500I0J-237500D01*
G01*
X187209000Y-106003500D01*
G75*
G02*
X186971500Y-106241000I-237500J0D01*
G01*
X186496500Y-106241000D01*
G75*
G02*
X186259000Y-106003500I0J237500D01*
G01*
X186259000Y-105503500D01*
G75*
G02*
X186496500Y-105266000I237500J0D01*
G01*
G37*
%TD*%
%TO.C,R2*%
G36*
G01*
X186496500Y-103591000D02*
X186971500Y-103591000D01*
G75*
G02*
X187209000Y-103828500I0J-237500D01*
G01*
X187209000Y-104328500D01*
G75*
G02*
X186971500Y-104566000I-237500J0D01*
G01*
X186496500Y-104566000D01*
G75*
G02*
X186259000Y-104328500I0J237500D01*
G01*
X186259000Y-103828500D01*
G75*
G02*
X186496500Y-103591000I237500J0D01*
G01*
G37*
G36*
G01*
X186496500Y-101766000D02*
X186971500Y-101766000D01*
G75*
G02*
X187209000Y-102003500I0J-237500D01*
G01*
X187209000Y-102503500D01*
G75*
G02*
X186971500Y-102741000I-237500J0D01*
G01*
X186496500Y-102741000D01*
G75*
G02*
X186259000Y-102503500I0J237500D01*
G01*
X186259000Y-102003500D01*
G75*
G02*
X186496500Y-101766000I237500J0D01*
G01*
G37*
%TD*%
%TO.C,R1*%
G36*
G01*
X192246500Y-103341000D02*
X192721500Y-103341000D01*
G75*
G02*
X192959000Y-103578500I0J-237500D01*
G01*
X192959000Y-104078500D01*
G75*
G02*
X192721500Y-104316000I-237500J0D01*
G01*
X192246500Y-104316000D01*
G75*
G02*
X192009000Y-104078500I0J237500D01*
G01*
X192009000Y-103578500D01*
G75*
G02*
X192246500Y-103341000I237500J0D01*
G01*
G37*
G36*
G01*
X192246500Y-101516000D02*
X192721500Y-101516000D01*
G75*
G02*
X192959000Y-101753500I0J-237500D01*
G01*
X192959000Y-102253500D01*
G75*
G02*
X192721500Y-102491000I-237500J0D01*
G01*
X192246500Y-102491000D01*
G75*
G02*
X192009000Y-102253500I0J237500D01*
G01*
X192009000Y-101753500D01*
G75*
G02*
X192246500Y-101516000I237500J0D01*
G01*
G37*
%TD*%
%TO.C,L1*%
G36*
G01*
X188529999Y-99602000D02*
X189930001Y-99602000D01*
G75*
G02*
X190180000Y-99851999I0J-249999D01*
G01*
X190180000Y-100402001D01*
G75*
G02*
X189930001Y-100652000I-249999J0D01*
G01*
X188529999Y-100652000D01*
G75*
G02*
X188280000Y-100402001I0J249999D01*
G01*
X188280000Y-99851999D01*
G75*
G02*
X188529999Y-99602000I249999J0D01*
G01*
G37*
G36*
G01*
X188529999Y-96452000D02*
X189930001Y-96452000D01*
G75*
G02*
X190180000Y-96701999I0J-249999D01*
G01*
X190180000Y-97252001D01*
G75*
G02*
X189930001Y-97502000I-249999J0D01*
G01*
X188529999Y-97502000D01*
G75*
G02*
X188280000Y-97252001I0J249999D01*
G01*
X188280000Y-96701999D01*
G75*
G02*
X188529999Y-96452000I249999J0D01*
G01*
G37*
%TD*%
%TO.C,C7*%
G36*
G01*
X187127000Y-109262500D02*
X187127000Y-109737500D01*
G75*
G02*
X186889500Y-109975000I-237500J0D01*
G01*
X186289500Y-109975000D01*
G75*
G02*
X186052000Y-109737500I0J237500D01*
G01*
X186052000Y-109262500D01*
G75*
G02*
X186289500Y-109025000I237500J0D01*
G01*
X186889500Y-109025000D01*
G75*
G02*
X187127000Y-109262500I0J-237500D01*
G01*
G37*
G36*
G01*
X188852000Y-109262500D02*
X188852000Y-109737500D01*
G75*
G02*
X188614500Y-109975000I-237500J0D01*
G01*
X188014500Y-109975000D01*
G75*
G02*
X187777000Y-109737500I0J237500D01*
G01*
X187777000Y-109262500D01*
G75*
G02*
X188014500Y-109025000I237500J0D01*
G01*
X188614500Y-109025000D01*
G75*
G02*
X188852000Y-109262500I0J-237500D01*
G01*
G37*
%TD*%
%TO.C,C5*%
G36*
G01*
X184382999Y-103703000D02*
X184933001Y-103703000D01*
G75*
G02*
X185183000Y-103952999I0J-249999D01*
G01*
X185183000Y-104578001D01*
G75*
G02*
X184933001Y-104828000I-249999J0D01*
G01*
X184382999Y-104828000D01*
G75*
G02*
X184133000Y-104578001I0J249999D01*
G01*
X184133000Y-103952999D01*
G75*
G02*
X184382999Y-103703000I249999J0D01*
G01*
G37*
G36*
G01*
X184382999Y-101928000D02*
X184933001Y-101928000D01*
G75*
G02*
X185183000Y-102177999I0J-249999D01*
G01*
X185183000Y-102803001D01*
G75*
G02*
X184933001Y-103053000I-249999J0D01*
G01*
X184382999Y-103053000D01*
G75*
G02*
X184133000Y-102803001I0J249999D01*
G01*
X184133000Y-102177999D01*
G75*
G02*
X184382999Y-101928000I249999J0D01*
G01*
G37*
%TD*%
%TO.C,C1*%
G36*
G01*
X184841000Y-96752999D02*
X184841000Y-97303001D01*
G75*
G02*
X184591001Y-97553000I-249999J0D01*
G01*
X183965999Y-97553000D01*
G75*
G02*
X183716000Y-97303001I0J249999D01*
G01*
X183716000Y-96752999D01*
G75*
G02*
X183965999Y-96503000I249999J0D01*
G01*
X184591001Y-96503000D01*
G75*
G02*
X184841000Y-96752999I0J-249999D01*
G01*
G37*
G36*
G01*
X186616000Y-96752999D02*
X186616000Y-97303001D01*
G75*
G02*
X186366001Y-97553000I-249999J0D01*
G01*
X185740999Y-97553000D01*
G75*
G02*
X185491000Y-97303001I0J249999D01*
G01*
X185491000Y-96752999D01*
G75*
G02*
X185740999Y-96503000I249999J0D01*
G01*
X186366001Y-96503000D01*
G75*
G02*
X186616000Y-96752999I0J-249999D01*
G01*
G37*
%TD*%
%TO.C,R3*%
G36*
G01*
X192246500Y-106841000D02*
X192721500Y-106841000D01*
G75*
G02*
X192959000Y-107078500I0J-237500D01*
G01*
X192959000Y-107578500D01*
G75*
G02*
X192721500Y-107816000I-237500J0D01*
G01*
X192246500Y-107816000D01*
G75*
G02*
X192009000Y-107578500I0J237500D01*
G01*
X192009000Y-107078500D01*
G75*
G02*
X192246500Y-106841000I237500J0D01*
G01*
G37*
G36*
G01*
X192246500Y-105016000D02*
X192721500Y-105016000D01*
G75*
G02*
X192959000Y-105253500I0J-237500D01*
G01*
X192959000Y-105753500D01*
G75*
G02*
X192721500Y-105991000I-237500J0D01*
G01*
X192246500Y-105991000D01*
G75*
G02*
X192009000Y-105753500I0J237500D01*
G01*
X192009000Y-105253500D01*
G75*
G02*
X192246500Y-105016000I237500J0D01*
G01*
G37*
%TD*%
%TO.C,C6*%
G36*
G01*
X191841000Y-109711500D02*
X191841000Y-109236500D01*
G75*
G02*
X192078500Y-108999000I237500J0D01*
G01*
X192678500Y-108999000D01*
G75*
G02*
X192916000Y-109236500I0J-237500D01*
G01*
X192916000Y-109711500D01*
G75*
G02*
X192678500Y-109949000I-237500J0D01*
G01*
X192078500Y-109949000D01*
G75*
G02*
X191841000Y-109711500I0J237500D01*
G01*
G37*
G36*
G01*
X190116000Y-109711500D02*
X190116000Y-109236500D01*
G75*
G02*
X190353500Y-108999000I237500J0D01*
G01*
X190953500Y-108999000D01*
G75*
G02*
X191191000Y-109236500I0J-237500D01*
G01*
X191191000Y-109711500D01*
G75*
G02*
X190953500Y-109949000I-237500J0D01*
G01*
X190353500Y-109949000D01*
G75*
G02*
X190116000Y-109711500I0J237500D01*
G01*
G37*
%TD*%
M02*
