M48
; DRILL file {KiCad 5.1.10-88a1d61d58~88~ubuntu20.04.1} date Sat Jun 26 15:26:31 2021
; FORMAT={-:-/ absolute / inch / decimal}
; #@! TF.CreationDate,2021-06-26T15:26:31-05:00
; #@! TF.GenerationSoftware,Kicad,Pcbnew,5.1.10-88a1d61d58~88~ubuntu20.04.1
; #@! TF.FileFunction,Plated,1,4,PTH
FMAT,2
INCH
T1C0.0118
T2C0.0150
T3C0.0157
T4C0.0197
T5C0.0394
%
G90
G05
T1
X7.3Y-4.44
X7.4497Y-4.2808
X7.4802Y-4.2592
X7.54Y-4.43
X7.5441Y-4.0159
X7.5781Y-3.9819
X7.8Y-4.43
X7.99Y-4.355
X8.015Y-4.355
X8.04Y-4.33
X8.04Y-4.355
X8.0853Y-4.0539
X8.1075Y-4.03
X8.17Y-4.105
X8.21Y-3.88
X8.21Y-4.2508
X8.3092Y-4.23
X8.54Y-4.04
X8.57Y-4.04
X8.595Y-3.98
X8.62Y-4.57
X8.66Y-4.04
X8.69Y-4.04
X8.715Y-3.97
X8.835Y-4.0
X8.85Y-4.43
X8.855Y-3.905
X8.855Y-4.26
X8.87Y-4.19
X8.885Y-4.345
X8.89Y-4.11
X8.9458Y-4.2678
X8.96Y-3.84
X9.01Y-4.345
X9.01Y-4.425
X9.115Y-4.165
X9.115Y-4.43
X9.125Y-4.0874
X9.27Y-4.505
X9.355Y-4.58
X9.45Y-4.07
X9.48Y-4.345
X9.48Y-4.58
T2
X7.24Y-3.835
X7.2426Y-3.9124
X7.245Y-3.865
X7.275Y-3.865
X7.275Y-3.94
X7.305Y-3.915
X7.415Y-3.685
T3
X7.22Y-4.42
X7.23Y-4.105
X7.27Y-4.0
X7.27Y-4.14
X7.31Y-4.03
X7.321Y-4.311
X7.35Y-4.265
X7.39Y-4.4
X7.3943Y-4.0257
X7.415Y-3.84
X7.43Y-4.08
X7.46Y-4.42
X7.4847Y-4.0774
X7.5Y-3.76
X7.5248Y-3.7848
X7.5781Y-4.2619
X7.58Y-3.875
X7.58Y-3.908
X7.58Y-3.95
X7.63Y-4.4
X7.665Y-4.08
X7.665Y-4.32
X7.6676Y-4.1624
X7.67Y-3.85
X7.705Y-4.25
X7.705Y-4.32
X7.72Y-4.42
X7.74Y-4.075
X7.745Y-4.32
X7.77Y-3.82
X7.825Y-3.765
X7.84Y-3.685
X7.89Y-4.4
X7.9375Y-3.915
X7.9575Y-4.06
X8.025Y-3.97
X8.07Y-3.835
X8.165Y-3.93
X8.53Y-4.52
X8.61Y-4.26
X8.86Y-4.59
X8.885Y-4.0302
X9.3Y-3.8
X9.31Y-4.09
X9.405Y-3.835
X9.405Y-4.425
X9.405Y-4.29
X9.415Y-4.13
X9.44Y-4.5
X9.4884Y-4.0316
X9.52Y-3.715
X9.52Y-3.89
T4
X8.23Y-3.74
X8.2792Y-3.74
X8.3284Y-3.74
X8.3776Y-3.74
X8.55Y-3.74
X8.5992Y-3.74
X8.6484Y-3.74
X8.6976Y-3.74
X8.7469Y-3.74
X8.7961Y-3.74
X8.8453Y-3.74
T5
X7.23Y-3.71
X7.24Y-4.57
X7.33Y-3.71
X7.34Y-4.57
X7.5Y-4.57
X7.6Y-4.57
X7.76Y-4.57
X7.86Y-4.57
X7.96Y-3.7
X8.06Y-3.7
X8.27Y-3.9241
X8.27Y-4.18
X8.27Y-4.3141
X8.27Y-4.57
X8.4472Y-3.9241
X8.4472Y-4.18
X8.4472Y-4.3141
X8.4472Y-4.57
T0
M30
