%TF.GenerationSoftware,KiCad,Pcbnew,5.1.9-73d0e3b20d~88~ubuntu20.04.1*%
%TF.CreationDate,2021-01-31T09:20:22-06:00*%
%TF.ProjectId,portalgun,706f7274-616c-4677-956e-2e6b69636164,rev?*%
%TF.SameCoordinates,Original*%
%TF.FileFunction,Copper,L3,Inr*%
%TF.FilePolarity,Positive*%
%FSLAX46Y46*%
G04 Gerber Fmt 4.6, Leading zero omitted, Abs format (unit mm)*
G04 Created by KiCad (PCBNEW 5.1.9-73d0e3b20d~88~ubuntu20.04.1) date 2021-01-31 09:20:22*
%MOMM*%
%LPD*%
G01*
G04 APERTURE LIST*
%TA.AperFunction,ComponentPad*%
%ADD10O,1.350000X1.350000*%
%TD*%
%TA.AperFunction,ComponentPad*%
%ADD11R,1.350000X1.350000*%
%TD*%
%TA.AperFunction,ComponentPad*%
%ADD12O,1.700000X1.700000*%
%TD*%
%TA.AperFunction,ComponentPad*%
%ADD13R,1.700000X1.700000*%
%TD*%
%TA.AperFunction,ComponentPad*%
%ADD14C,1.700000*%
%TD*%
%TA.AperFunction,ViaPad*%
%ADD15C,0.787400*%
%TD*%
%TA.AperFunction,Conductor*%
%ADD16C,0.254000*%
%TD*%
%TA.AperFunction,Conductor*%
%ADD17C,0.100000*%
%TD*%
G04 APERTURE END LIST*
D10*
%TO.N,SPI1_NSS*%
%TO.C,J8*%
X216500000Y-109000000D03*
%TO.N,SPI1_MISO*%
X214500000Y-109000000D03*
%TO.N,SPI1_MOSI*%
X212500000Y-109000000D03*
D11*
%TO.N,SPI1_SCK*%
X210500000Y-109000000D03*
%TD*%
D10*
%TO.N,/7 Segment Display/SPI1_NSS*%
%TO.C,J7*%
X124000000Y-113600000D03*
%TO.N,AVR_ICSP_MISO*%
X126000000Y-113600000D03*
%TO.N,AVR_ICSP_MOSI*%
X128000000Y-113600000D03*
D11*
%TO.N,AVR_ICSP_SCK*%
X130000000Y-113600000D03*
%TD*%
D10*
%TO.N,GND*%
%TO.C,J4*%
X63700000Y-92700000D03*
D11*
%TO.N,Net-(C11-Pad2)*%
X63700000Y-90700000D03*
%TD*%
D10*
%TO.N,Net-(J3-Pad2)*%
%TO.C,J3*%
X212100000Y-115700000D03*
D11*
%TO.N,VBAT*%
X214100000Y-115700000D03*
%TD*%
D10*
%TO.N,GND*%
%TO.C,J1*%
X241000000Y-94000000D03*
D11*
%TO.N,VBAT*%
X239000000Y-94000000D03*
%TD*%
D12*
%TO.N,GND*%
%TO.C,J6*%
X130683000Y-122682000D03*
%TO.N,Net-(J6-Pad5)*%
X130683000Y-125222000D03*
%TO.N,Net-(J6-Pad4)*%
X128143000Y-122682000D03*
%TO.N,Net-(J6-Pad3)*%
X128143000Y-125222000D03*
%TO.N,VBAT*%
X125603000Y-122682000D03*
D13*
%TO.N,Net-(J6-Pad1)*%
X125603000Y-125222000D03*
%TD*%
D12*
%TO.N,GND*%
%TO.C,J5*%
X220450000Y-94000000D03*
%TO.N,Net-(J5-Pad5)*%
X217910000Y-94000000D03*
%TO.N,Net-(J5-Pad4)*%
X215370000Y-94000000D03*
%TO.N,Net-(J5-Pad3)*%
X212830000Y-94000000D03*
%TO.N,Net-(J5-Pad2)*%
X210290000Y-94000000D03*
D13*
%TO.N,+3V3*%
X207750000Y-94000000D03*
%TD*%
D10*
%TO.N,ENCODER_A*%
%TO.C,J2*%
X202498000Y-109060000D03*
%TO.N,+3V3*%
X202498000Y-107060000D03*
%TO.N,ENCODER_B*%
X202498000Y-105060000D03*
%TO.N,+3V3*%
X202498000Y-103060000D03*
D11*
%TO.N,SWITCH*%
X202498000Y-101060000D03*
%TD*%
D14*
%TO.N,/7 Segment Display/segment_e*%
%TO.C,U6*%
X136017000Y-100076000D03*
%TO.N,/7 Segment Display/segment_d*%
X136017000Y-97536000D03*
%TO.N,Net-(Q3-Pad3)*%
X136017000Y-94996000D03*
%TO.N,/7 Segment Display/segment_c*%
X136017000Y-92456000D03*
%TO.N,/7 Segment Display/decimal_point*%
X136017000Y-89916000D03*
%TO.N,/7 Segment Display/segment_b*%
X120777000Y-89916000D03*
%TO.N,/7 Segment Display/segment_a*%
X120777000Y-92456000D03*
%TO.N,Net-(U6-Pad3)*%
X120777000Y-94996000D03*
%TO.N,/7 Segment Display/segment_f*%
X120777000Y-97536000D03*
D13*
%TO.N,/7 Segment Display/segment_g*%
X120777000Y-100076000D03*
%TD*%
D14*
%TO.N,/7 Segment Display/segment_e*%
%TO.C,U8*%
X136017000Y-112776000D03*
%TO.N,/7 Segment Display/segment_d*%
X136017000Y-115316000D03*
%TO.N,Net-(Q4-Pad3)*%
X136017000Y-117856000D03*
%TO.N,/7 Segment Display/segment_c*%
X136017000Y-120396000D03*
%TO.N,/7 Segment Display/decimal_point*%
X136017000Y-122936000D03*
%TO.N,/7 Segment Display/segment_b*%
X120777000Y-122936000D03*
%TO.N,/7 Segment Display/segment_a*%
X120777000Y-120396000D03*
%TO.N,Net-(U8-Pad3)*%
X120777000Y-117856000D03*
%TO.N,/7 Segment Display/segment_f*%
X120777000Y-115316000D03*
D13*
%TO.N,/7 Segment Display/segment_g*%
X120777000Y-112776000D03*
%TD*%
D14*
%TO.N,/7 Segment Display/segment_e*%
%TO.C,U9*%
X136017000Y-125476000D03*
%TO.N,/7 Segment Display/segment_d*%
X136017000Y-122936000D03*
%TO.N,Net-(Q5-Pad3)*%
X136017000Y-120396000D03*
%TO.N,/7 Segment Display/segment_c*%
X136017000Y-117856000D03*
%TO.N,/7 Segment Display/decimal_point*%
X136017000Y-115316000D03*
%TO.N,/7 Segment Display/segment_b*%
X120777000Y-115316000D03*
%TO.N,/7 Segment Display/segment_a*%
X120777000Y-117856000D03*
%TO.N,Net-(U9-Pad3)*%
X120777000Y-120396000D03*
%TO.N,/7 Segment Display/segment_f*%
X120777000Y-122936000D03*
D13*
%TO.N,/7 Segment Display/segment_g*%
X120777000Y-125476000D03*
%TD*%
D14*
%TO.N,/7 Segment Display/segment_e*%
%TO.C,U5*%
X136017000Y-87376000D03*
%TO.N,/7 Segment Display/segment_d*%
X136017000Y-84836000D03*
%TO.N,Net-(Q2-Pad3)*%
X136017000Y-82296000D03*
%TO.N,/7 Segment Display/segment_c*%
X136017000Y-79756000D03*
%TO.N,/7 Segment Display/decimal_point*%
X136017000Y-77216000D03*
%TO.N,/7 Segment Display/segment_b*%
X120777000Y-77216000D03*
%TO.N,/7 Segment Display/segment_a*%
X120777000Y-79756000D03*
%TO.N,Net-(U5-Pad3)*%
X120777000Y-82296000D03*
%TO.N,/7 Segment Display/segment_f*%
X120777000Y-84836000D03*
D13*
%TO.N,/7 Segment Display/segment_g*%
X120777000Y-87376000D03*
%TD*%
D15*
%TO.N,GND*%
X127762000Y-102108000D03*
X127762000Y-100584000D03*
X126492000Y-102108000D03*
X126492000Y-100584000D03*
X123444000Y-101092000D03*
X132588000Y-102108000D03*
X133858000Y-117094000D03*
X130048000Y-120904000D03*
X123400000Y-117300000D03*
X124206000Y-116078000D03*
X129540000Y-103632000D03*
X133604000Y-106172000D03*
X229500000Y-105500000D03*
X208500000Y-106000000D03*
X218000014Y-105999986D03*
%TO.N,VBAT*%
X123444000Y-102616000D03*
X132842000Y-100838000D03*
X124800000Y-121100000D03*
X124000000Y-122700000D03*
%TO.N,+5V*%
X234500000Y-102500000D03*
X232500000Y-99500000D03*
X231000000Y-99500000D03*
%TO.N,+3V3*%
X227500000Y-106500000D03*
X228500000Y-107500000D03*
X218000000Y-105000000D03*
X208500000Y-105000000D03*
%TO.N,/7 Segment Display/segment_a*%
X126492000Y-92964000D03*
X122250000Y-104250000D03*
%TO.N,/7 Segment Display/segment_b*%
X128016000Y-92964000D03*
X121968518Y-111436452D03*
X120750000Y-103500000D03*
%TO.N,/7 Segment Display/segment_f*%
X128797297Y-108184703D03*
X121250000Y-110250000D03*
%TO.N,/7 Segment Display/segment_g*%
X130302000Y-108457974D03*
%TO.N,AVR_ICSP_MISO*%
X125500000Y-106500014D03*
X124749986Y-109250000D03*
%TO.N,AVR_ICSP_MOSI*%
X126000000Y-109500000D03*
X126500000Y-107750000D03*
%TO.N,AVR_ICSP_nRST*%
X125984000Y-98044000D03*
X130047990Y-115570000D03*
%TO.N,/7 Segment Display/SPI1_NSS*%
X123500000Y-109000000D03*
X126604921Y-105250000D03*
%TO.N,SPI1_MOSI*%
X215500000Y-107500000D03*
%TD*%
D16*
%TO.N,GND*%
X139167001Y-126594000D02*
X136534667Y-126594000D01*
X136600097Y-126566898D01*
X136801717Y-126432180D01*
X136973180Y-126260717D01*
X137107898Y-126059097D01*
X137200693Y-125835069D01*
X137248000Y-125597243D01*
X137248000Y-125354757D01*
X137200693Y-125116931D01*
X137107898Y-124892903D01*
X136973180Y-124691283D01*
X136801717Y-124519820D01*
X136600097Y-124385102D01*
X136376069Y-124292307D01*
X136138243Y-124245000D01*
X135895757Y-124245000D01*
X135657931Y-124292307D01*
X135433903Y-124385102D01*
X135232283Y-124519820D01*
X135060820Y-124691283D01*
X134926102Y-124892903D01*
X134833307Y-125116931D01*
X134786000Y-125354757D01*
X134786000Y-125597243D01*
X134833307Y-125835069D01*
X134926102Y-126059097D01*
X135060820Y-126260717D01*
X135232283Y-126432180D01*
X135433903Y-126566898D01*
X135499333Y-126594000D01*
X121899936Y-126594000D01*
X121945322Y-126538696D01*
X121980701Y-126472508D01*
X122002487Y-126400689D01*
X122009843Y-126326000D01*
X122009843Y-124626000D01*
X122002487Y-124551311D01*
X121980701Y-124479492D01*
X121945322Y-124413304D01*
X121911426Y-124372000D01*
X124370157Y-124372000D01*
X124370157Y-126072000D01*
X124377513Y-126146689D01*
X124399299Y-126218508D01*
X124434678Y-126284696D01*
X124482289Y-126342711D01*
X124540304Y-126390322D01*
X124606492Y-126425701D01*
X124678311Y-126447487D01*
X124753000Y-126454843D01*
X126453000Y-126454843D01*
X126527689Y-126447487D01*
X126599508Y-126425701D01*
X126665696Y-126390322D01*
X126723711Y-126342711D01*
X126771322Y-126284696D01*
X126806701Y-126218508D01*
X126828487Y-126146689D01*
X126835843Y-126072000D01*
X126835843Y-125100757D01*
X126912000Y-125100757D01*
X126912000Y-125343243D01*
X126959307Y-125581069D01*
X127052102Y-125805097D01*
X127186820Y-126006717D01*
X127358283Y-126178180D01*
X127559903Y-126312898D01*
X127783931Y-126405693D01*
X128021757Y-126453000D01*
X128264243Y-126453000D01*
X128502069Y-126405693D01*
X128726097Y-126312898D01*
X128927717Y-126178180D01*
X129099180Y-126006717D01*
X129233898Y-125805097D01*
X129326693Y-125581069D01*
X129374000Y-125343243D01*
X129374000Y-125100757D01*
X129326693Y-124862931D01*
X129233898Y-124638903D01*
X129099180Y-124437283D01*
X128927717Y-124265820D01*
X128726097Y-124131102D01*
X128502069Y-124038307D01*
X128264243Y-123991000D01*
X128021757Y-123991000D01*
X127783931Y-124038307D01*
X127559903Y-124131102D01*
X127358283Y-124265820D01*
X127186820Y-124437283D01*
X127052102Y-124638903D01*
X126959307Y-124862931D01*
X126912000Y-125100757D01*
X126835843Y-125100757D01*
X126835843Y-124372000D01*
X126828487Y-124297311D01*
X126806701Y-124225492D01*
X126771322Y-124159304D01*
X126723711Y-124101289D01*
X126665696Y-124053678D01*
X126599508Y-124018299D01*
X126527689Y-123996513D01*
X126453000Y-123989157D01*
X124753000Y-123989157D01*
X124678311Y-123996513D01*
X124606492Y-124018299D01*
X124540304Y-124053678D01*
X124482289Y-124101289D01*
X124434678Y-124159304D01*
X124399299Y-124225492D01*
X124377513Y-124297311D01*
X124370157Y-124372000D01*
X121911426Y-124372000D01*
X121897711Y-124355289D01*
X121839696Y-124307678D01*
X121773508Y-124272299D01*
X121701689Y-124250513D01*
X121627000Y-124243157D01*
X119927000Y-124243157D01*
X119852311Y-124250513D01*
X119780492Y-124272299D01*
X119714304Y-124307678D01*
X119656289Y-124355289D01*
X119608678Y-124413304D01*
X119573299Y-124479492D01*
X119551513Y-124551311D01*
X119544157Y-124626000D01*
X119544157Y-126326000D01*
X119551513Y-126400689D01*
X119573299Y-126472508D01*
X119608678Y-126538696D01*
X119654064Y-126594000D01*
X117373000Y-126594000D01*
X117373000Y-122814757D01*
X119546000Y-122814757D01*
X119546000Y-123057243D01*
X119593307Y-123295069D01*
X119686102Y-123519097D01*
X119820820Y-123720717D01*
X119992283Y-123892180D01*
X120193903Y-124026898D01*
X120417931Y-124119693D01*
X120655757Y-124167000D01*
X120898243Y-124167000D01*
X121136069Y-124119693D01*
X121360097Y-124026898D01*
X121561717Y-123892180D01*
X121733180Y-123720717D01*
X121867898Y-123519097D01*
X121960693Y-123295069D01*
X122008000Y-123057243D01*
X122008000Y-122814757D01*
X121969996Y-122623699D01*
X123225300Y-122623699D01*
X123225300Y-122776301D01*
X123255072Y-122925972D01*
X123313470Y-123066958D01*
X123398252Y-123193842D01*
X123506158Y-123301748D01*
X123633042Y-123386530D01*
X123774028Y-123444928D01*
X123923699Y-123474700D01*
X124076301Y-123474700D01*
X124225972Y-123444928D01*
X124366958Y-123386530D01*
X124493842Y-123301748D01*
X124519468Y-123276122D01*
X124646820Y-123466717D01*
X124818283Y-123638180D01*
X125019903Y-123772898D01*
X125243931Y-123865693D01*
X125481757Y-123913000D01*
X125724243Y-123913000D01*
X125962069Y-123865693D01*
X126186097Y-123772898D01*
X126387717Y-123638180D01*
X126559180Y-123466717D01*
X126693898Y-123265097D01*
X126786693Y-123041069D01*
X126834000Y-122803243D01*
X126834000Y-122560757D01*
X126912000Y-122560757D01*
X126912000Y-122803243D01*
X126959307Y-123041069D01*
X127052102Y-123265097D01*
X127186820Y-123466717D01*
X127358283Y-123638180D01*
X127559903Y-123772898D01*
X127783931Y-123865693D01*
X128021757Y-123913000D01*
X128264243Y-123913000D01*
X128502069Y-123865693D01*
X128726097Y-123772898D01*
X128927717Y-123638180D01*
X129099180Y-123466717D01*
X129233898Y-123265097D01*
X129281228Y-123150832D01*
X129338843Y-123313252D01*
X129487822Y-123563355D01*
X129682731Y-123779588D01*
X129916080Y-123953641D01*
X130178901Y-124078825D01*
X130206154Y-124087091D01*
X130099903Y-124131102D01*
X129898283Y-124265820D01*
X129726820Y-124437283D01*
X129592102Y-124638903D01*
X129499307Y-124862931D01*
X129452000Y-125100757D01*
X129452000Y-125343243D01*
X129499307Y-125581069D01*
X129592102Y-125805097D01*
X129726820Y-126006717D01*
X129898283Y-126178180D01*
X130099903Y-126312898D01*
X130323931Y-126405693D01*
X130561757Y-126453000D01*
X130804243Y-126453000D01*
X131042069Y-126405693D01*
X131266097Y-126312898D01*
X131467717Y-126178180D01*
X131639180Y-126006717D01*
X131773898Y-125805097D01*
X131866693Y-125581069D01*
X131914000Y-125343243D01*
X131914000Y-125100757D01*
X131866693Y-124862931D01*
X131773898Y-124638903D01*
X131639180Y-124437283D01*
X131467717Y-124265820D01*
X131266097Y-124131102D01*
X131159846Y-124087091D01*
X131187099Y-124078825D01*
X131449920Y-123953641D01*
X131683269Y-123779588D01*
X131878178Y-123563355D01*
X132027157Y-123313252D01*
X132124481Y-123038891D01*
X132006836Y-122814757D01*
X134786000Y-122814757D01*
X134786000Y-123057243D01*
X134833307Y-123295069D01*
X134926102Y-123519097D01*
X135060820Y-123720717D01*
X135232283Y-123892180D01*
X135433903Y-124026898D01*
X135657931Y-124119693D01*
X135895757Y-124167000D01*
X136138243Y-124167000D01*
X136376069Y-124119693D01*
X136600097Y-124026898D01*
X136801717Y-123892180D01*
X136973180Y-123720717D01*
X137107898Y-123519097D01*
X137200693Y-123295069D01*
X137248000Y-123057243D01*
X137248000Y-122814757D01*
X137200693Y-122576931D01*
X137107898Y-122352903D01*
X136973180Y-122151283D01*
X136801717Y-121979820D01*
X136600097Y-121845102D01*
X136376069Y-121752307D01*
X136138243Y-121705000D01*
X135895757Y-121705000D01*
X135657931Y-121752307D01*
X135433903Y-121845102D01*
X135232283Y-121979820D01*
X135060820Y-122151283D01*
X134926102Y-122352903D01*
X134833307Y-122576931D01*
X134786000Y-122814757D01*
X132006836Y-122814757D01*
X132003814Y-122809000D01*
X130810000Y-122809000D01*
X130810000Y-122829000D01*
X130556000Y-122829000D01*
X130556000Y-122809000D01*
X130536000Y-122809000D01*
X130536000Y-122555000D01*
X130556000Y-122555000D01*
X130556000Y-121361845D01*
X130810000Y-121361845D01*
X130810000Y-122555000D01*
X132003814Y-122555000D01*
X132124481Y-122325109D01*
X132027157Y-122050748D01*
X131878178Y-121800645D01*
X131683269Y-121584412D01*
X131449920Y-121410359D01*
X131187099Y-121285175D01*
X131039890Y-121240524D01*
X130810000Y-121361845D01*
X130556000Y-121361845D01*
X130326110Y-121240524D01*
X130178901Y-121285175D01*
X129916080Y-121410359D01*
X129682731Y-121584412D01*
X129487822Y-121800645D01*
X129338843Y-122050748D01*
X129281228Y-122213168D01*
X129233898Y-122098903D01*
X129099180Y-121897283D01*
X128927717Y-121725820D01*
X128726097Y-121591102D01*
X128502069Y-121498307D01*
X128264243Y-121451000D01*
X128021757Y-121451000D01*
X127783931Y-121498307D01*
X127559903Y-121591102D01*
X127358283Y-121725820D01*
X127186820Y-121897283D01*
X127052102Y-122098903D01*
X126959307Y-122322931D01*
X126912000Y-122560757D01*
X126834000Y-122560757D01*
X126786693Y-122322931D01*
X126693898Y-122098903D01*
X126559180Y-121897283D01*
X126387717Y-121725820D01*
X126186097Y-121591102D01*
X125962069Y-121498307D01*
X125724243Y-121451000D01*
X125493140Y-121451000D01*
X125544928Y-121325972D01*
X125574700Y-121176301D01*
X125574700Y-121023699D01*
X125544928Y-120874028D01*
X125486530Y-120733042D01*
X125401748Y-120606158D01*
X125293842Y-120498252D01*
X125166958Y-120413470D01*
X125025972Y-120355072D01*
X124876301Y-120325300D01*
X124723699Y-120325300D01*
X124574028Y-120355072D01*
X124433042Y-120413470D01*
X124306158Y-120498252D01*
X124198252Y-120606158D01*
X124113470Y-120733042D01*
X124055072Y-120874028D01*
X124025300Y-121023699D01*
X124025300Y-121176301D01*
X124055072Y-121325972D01*
X124113470Y-121466958D01*
X124198252Y-121593842D01*
X124306158Y-121701748D01*
X124433042Y-121786530D01*
X124574028Y-121844928D01*
X124678411Y-121865692D01*
X124646820Y-121897283D01*
X124512102Y-122098903D01*
X124506944Y-122111354D01*
X124493842Y-122098252D01*
X124366958Y-122013470D01*
X124225972Y-121955072D01*
X124076301Y-121925300D01*
X123923699Y-121925300D01*
X123774028Y-121955072D01*
X123633042Y-122013470D01*
X123506158Y-122098252D01*
X123398252Y-122206158D01*
X123313470Y-122333042D01*
X123255072Y-122474028D01*
X123225300Y-122623699D01*
X121969996Y-122623699D01*
X121960693Y-122576931D01*
X121867898Y-122352903D01*
X121733180Y-122151283D01*
X121561717Y-121979820D01*
X121360097Y-121845102D01*
X121136069Y-121752307D01*
X120898243Y-121705000D01*
X120655757Y-121705000D01*
X120417931Y-121752307D01*
X120193903Y-121845102D01*
X119992283Y-121979820D01*
X119820820Y-122151283D01*
X119686102Y-122352903D01*
X119593307Y-122576931D01*
X119546000Y-122814757D01*
X117373000Y-122814757D01*
X117373000Y-120274757D01*
X119546000Y-120274757D01*
X119546000Y-120517243D01*
X119593307Y-120755069D01*
X119686102Y-120979097D01*
X119820820Y-121180717D01*
X119992283Y-121352180D01*
X120193903Y-121486898D01*
X120417931Y-121579693D01*
X120655757Y-121627000D01*
X120898243Y-121627000D01*
X121136069Y-121579693D01*
X121360097Y-121486898D01*
X121561717Y-121352180D01*
X121733180Y-121180717D01*
X121867898Y-120979097D01*
X121960693Y-120755069D01*
X122008000Y-120517243D01*
X122008000Y-120274757D01*
X134786000Y-120274757D01*
X134786000Y-120517243D01*
X134833307Y-120755069D01*
X134926102Y-120979097D01*
X135060820Y-121180717D01*
X135232283Y-121352180D01*
X135433903Y-121486898D01*
X135657931Y-121579693D01*
X135895757Y-121627000D01*
X136138243Y-121627000D01*
X136376069Y-121579693D01*
X136600097Y-121486898D01*
X136801717Y-121352180D01*
X136973180Y-121180717D01*
X137107898Y-120979097D01*
X137200693Y-120755069D01*
X137248000Y-120517243D01*
X137248000Y-120274757D01*
X137200693Y-120036931D01*
X137107898Y-119812903D01*
X136973180Y-119611283D01*
X136801717Y-119439820D01*
X136600097Y-119305102D01*
X136376069Y-119212307D01*
X136138243Y-119165000D01*
X135895757Y-119165000D01*
X135657931Y-119212307D01*
X135433903Y-119305102D01*
X135232283Y-119439820D01*
X135060820Y-119611283D01*
X134926102Y-119812903D01*
X134833307Y-120036931D01*
X134786000Y-120274757D01*
X122008000Y-120274757D01*
X121960693Y-120036931D01*
X121867898Y-119812903D01*
X121733180Y-119611283D01*
X121561717Y-119439820D01*
X121360097Y-119305102D01*
X121136069Y-119212307D01*
X120898243Y-119165000D01*
X120655757Y-119165000D01*
X120417931Y-119212307D01*
X120193903Y-119305102D01*
X119992283Y-119439820D01*
X119820820Y-119611283D01*
X119686102Y-119812903D01*
X119593307Y-120036931D01*
X119546000Y-120274757D01*
X117373000Y-120274757D01*
X117373000Y-117734757D01*
X119546000Y-117734757D01*
X119546000Y-117977243D01*
X119593307Y-118215069D01*
X119686102Y-118439097D01*
X119820820Y-118640717D01*
X119992283Y-118812180D01*
X120193903Y-118946898D01*
X120417931Y-119039693D01*
X120655757Y-119087000D01*
X120898243Y-119087000D01*
X121136069Y-119039693D01*
X121360097Y-118946898D01*
X121561717Y-118812180D01*
X121733180Y-118640717D01*
X121867898Y-118439097D01*
X121960693Y-118215069D01*
X122008000Y-117977243D01*
X122008000Y-117734757D01*
X134786000Y-117734757D01*
X134786000Y-117977243D01*
X134833307Y-118215069D01*
X134926102Y-118439097D01*
X135060820Y-118640717D01*
X135232283Y-118812180D01*
X135433903Y-118946898D01*
X135657931Y-119039693D01*
X135895757Y-119087000D01*
X136138243Y-119087000D01*
X136376069Y-119039693D01*
X136600097Y-118946898D01*
X136801717Y-118812180D01*
X136973180Y-118640717D01*
X137107898Y-118439097D01*
X137200693Y-118215069D01*
X137248000Y-117977243D01*
X137248000Y-117734757D01*
X137200693Y-117496931D01*
X137107898Y-117272903D01*
X136973180Y-117071283D01*
X136801717Y-116899820D01*
X136600097Y-116765102D01*
X136376069Y-116672307D01*
X136138243Y-116625000D01*
X135895757Y-116625000D01*
X135657931Y-116672307D01*
X135433903Y-116765102D01*
X135232283Y-116899820D01*
X135060820Y-117071283D01*
X134926102Y-117272903D01*
X134833307Y-117496931D01*
X134786000Y-117734757D01*
X122008000Y-117734757D01*
X121960693Y-117496931D01*
X121867898Y-117272903D01*
X121733180Y-117071283D01*
X121561717Y-116899820D01*
X121360097Y-116765102D01*
X121136069Y-116672307D01*
X120898243Y-116625000D01*
X120655757Y-116625000D01*
X120417931Y-116672307D01*
X120193903Y-116765102D01*
X119992283Y-116899820D01*
X119820820Y-117071283D01*
X119686102Y-117272903D01*
X119593307Y-117496931D01*
X119546000Y-117734757D01*
X117373000Y-117734757D01*
X117373000Y-115194757D01*
X119546000Y-115194757D01*
X119546000Y-115437243D01*
X119593307Y-115675069D01*
X119686102Y-115899097D01*
X119820820Y-116100717D01*
X119992283Y-116272180D01*
X120193903Y-116406898D01*
X120417931Y-116499693D01*
X120655757Y-116547000D01*
X120898243Y-116547000D01*
X121136069Y-116499693D01*
X121360097Y-116406898D01*
X121561717Y-116272180D01*
X121733180Y-116100717D01*
X121867898Y-115899097D01*
X121960693Y-115675069D01*
X121996770Y-115493699D01*
X129273290Y-115493699D01*
X129273290Y-115646301D01*
X129303062Y-115795972D01*
X129361460Y-115936958D01*
X129446242Y-116063842D01*
X129554148Y-116171748D01*
X129681032Y-116256530D01*
X129822018Y-116314928D01*
X129971689Y-116344700D01*
X130124291Y-116344700D01*
X130273962Y-116314928D01*
X130414948Y-116256530D01*
X130541832Y-116171748D01*
X130649738Y-116063842D01*
X130734520Y-115936958D01*
X130792918Y-115795972D01*
X130822690Y-115646301D01*
X130822690Y-115493699D01*
X130792918Y-115344028D01*
X130734520Y-115203042D01*
X130728985Y-115194757D01*
X134786000Y-115194757D01*
X134786000Y-115437243D01*
X134833307Y-115675069D01*
X134926102Y-115899097D01*
X135060820Y-116100717D01*
X135232283Y-116272180D01*
X135433903Y-116406898D01*
X135657931Y-116499693D01*
X135895757Y-116547000D01*
X136138243Y-116547000D01*
X136376069Y-116499693D01*
X136600097Y-116406898D01*
X136801717Y-116272180D01*
X136973180Y-116100717D01*
X137107898Y-115899097D01*
X137200693Y-115675069D01*
X137248000Y-115437243D01*
X137248000Y-115194757D01*
X137200693Y-114956931D01*
X137107898Y-114732903D01*
X136973180Y-114531283D01*
X136801717Y-114359820D01*
X136600097Y-114225102D01*
X136376069Y-114132307D01*
X136138243Y-114085000D01*
X135895757Y-114085000D01*
X135657931Y-114132307D01*
X135433903Y-114225102D01*
X135232283Y-114359820D01*
X135060820Y-114531283D01*
X134926102Y-114732903D01*
X134833307Y-114956931D01*
X134786000Y-115194757D01*
X130728985Y-115194757D01*
X130649738Y-115076158D01*
X130541832Y-114968252D01*
X130414948Y-114883470D01*
X130273962Y-114825072D01*
X130124291Y-114795300D01*
X129971689Y-114795300D01*
X129822018Y-114825072D01*
X129681032Y-114883470D01*
X129554148Y-114968252D01*
X129446242Y-115076158D01*
X129361460Y-115203042D01*
X129303062Y-115344028D01*
X129273290Y-115493699D01*
X121996770Y-115493699D01*
X122008000Y-115437243D01*
X122008000Y-115194757D01*
X121960693Y-114956931D01*
X121867898Y-114732903D01*
X121733180Y-114531283D01*
X121561717Y-114359820D01*
X121360097Y-114225102D01*
X121136069Y-114132307D01*
X120898243Y-114085000D01*
X120655757Y-114085000D01*
X120417931Y-114132307D01*
X120193903Y-114225102D01*
X119992283Y-114359820D01*
X119820820Y-114531283D01*
X119686102Y-114732903D01*
X119593307Y-114956931D01*
X119546000Y-115194757D01*
X117373000Y-115194757D01*
X117373000Y-111926000D01*
X119544157Y-111926000D01*
X119544157Y-113626000D01*
X119551513Y-113700689D01*
X119573299Y-113772508D01*
X119608678Y-113838696D01*
X119656289Y-113896711D01*
X119714304Y-113944322D01*
X119780492Y-113979701D01*
X119852311Y-114001487D01*
X119927000Y-114008843D01*
X121627000Y-114008843D01*
X121701689Y-114001487D01*
X121773508Y-113979701D01*
X121839696Y-113944322D01*
X121897711Y-113896711D01*
X121945322Y-113838696D01*
X121980701Y-113772508D01*
X122002487Y-113700689D01*
X122009843Y-113626000D01*
X122009843Y-113495993D01*
X122944000Y-113495993D01*
X122944000Y-113704007D01*
X122984581Y-113908024D01*
X123064185Y-114100204D01*
X123179751Y-114273161D01*
X123326839Y-114420249D01*
X123499796Y-114535815D01*
X123691976Y-114615419D01*
X123895993Y-114656000D01*
X124104007Y-114656000D01*
X124308024Y-114615419D01*
X124500204Y-114535815D01*
X124673161Y-114420249D01*
X124820249Y-114273161D01*
X124935815Y-114100204D01*
X125000000Y-113945249D01*
X125064185Y-114100204D01*
X125179751Y-114273161D01*
X125326839Y-114420249D01*
X125499796Y-114535815D01*
X125691976Y-114615419D01*
X125895993Y-114656000D01*
X126104007Y-114656000D01*
X126308024Y-114615419D01*
X126500204Y-114535815D01*
X126673161Y-114420249D01*
X126820249Y-114273161D01*
X126935815Y-114100204D01*
X127000000Y-113945249D01*
X127064185Y-114100204D01*
X127179751Y-114273161D01*
X127326839Y-114420249D01*
X127499796Y-114535815D01*
X127691976Y-114615419D01*
X127895993Y-114656000D01*
X128104007Y-114656000D01*
X128308024Y-114615419D01*
X128500204Y-114535815D01*
X128673161Y-114420249D01*
X128820249Y-114273161D01*
X128935815Y-114100204D01*
X128942157Y-114084893D01*
X128942157Y-114275000D01*
X128949513Y-114349689D01*
X128971299Y-114421508D01*
X129006678Y-114487696D01*
X129054289Y-114545711D01*
X129112304Y-114593322D01*
X129178492Y-114628701D01*
X129250311Y-114650487D01*
X129325000Y-114657843D01*
X130675000Y-114657843D01*
X130749689Y-114650487D01*
X130821508Y-114628701D01*
X130887696Y-114593322D01*
X130945711Y-114545711D01*
X130993322Y-114487696D01*
X131028701Y-114421508D01*
X131050487Y-114349689D01*
X131057843Y-114275000D01*
X131057843Y-112925000D01*
X131050487Y-112850311D01*
X131028701Y-112778492D01*
X130993322Y-112712304D01*
X130946096Y-112654757D01*
X134786000Y-112654757D01*
X134786000Y-112897243D01*
X134833307Y-113135069D01*
X134926102Y-113359097D01*
X135060820Y-113560717D01*
X135232283Y-113732180D01*
X135433903Y-113866898D01*
X135657931Y-113959693D01*
X135895757Y-114007000D01*
X136138243Y-114007000D01*
X136376069Y-113959693D01*
X136600097Y-113866898D01*
X136801717Y-113732180D01*
X136973180Y-113560717D01*
X137107898Y-113359097D01*
X137200693Y-113135069D01*
X137248000Y-112897243D01*
X137248000Y-112654757D01*
X137200693Y-112416931D01*
X137107898Y-112192903D01*
X136973180Y-111991283D01*
X136801717Y-111819820D01*
X136600097Y-111685102D01*
X136376069Y-111592307D01*
X136138243Y-111545000D01*
X135895757Y-111545000D01*
X135657931Y-111592307D01*
X135433903Y-111685102D01*
X135232283Y-111819820D01*
X135060820Y-111991283D01*
X134926102Y-112192903D01*
X134833307Y-112416931D01*
X134786000Y-112654757D01*
X130946096Y-112654757D01*
X130945711Y-112654289D01*
X130887696Y-112606678D01*
X130821508Y-112571299D01*
X130749689Y-112549513D01*
X130675000Y-112542157D01*
X129325000Y-112542157D01*
X129250311Y-112549513D01*
X129178492Y-112571299D01*
X129112304Y-112606678D01*
X129054289Y-112654289D01*
X129006678Y-112712304D01*
X128971299Y-112778492D01*
X128949513Y-112850311D01*
X128942157Y-112925000D01*
X128942157Y-113115107D01*
X128935815Y-113099796D01*
X128820249Y-112926839D01*
X128673161Y-112779751D01*
X128500204Y-112664185D01*
X128308024Y-112584581D01*
X128104007Y-112544000D01*
X127895993Y-112544000D01*
X127691976Y-112584581D01*
X127499796Y-112664185D01*
X127326839Y-112779751D01*
X127179751Y-112926839D01*
X127064185Y-113099796D01*
X127000000Y-113254751D01*
X126935815Y-113099796D01*
X126820249Y-112926839D01*
X126673161Y-112779751D01*
X126500204Y-112664185D01*
X126308024Y-112584581D01*
X126104007Y-112544000D01*
X125895993Y-112544000D01*
X125691976Y-112584581D01*
X125499796Y-112664185D01*
X125326839Y-112779751D01*
X125179751Y-112926839D01*
X125064185Y-113099796D01*
X125000000Y-113254751D01*
X124935815Y-113099796D01*
X124820249Y-112926839D01*
X124673161Y-112779751D01*
X124500204Y-112664185D01*
X124308024Y-112584581D01*
X124104007Y-112544000D01*
X123895993Y-112544000D01*
X123691976Y-112584581D01*
X123499796Y-112664185D01*
X123326839Y-112779751D01*
X123179751Y-112926839D01*
X123064185Y-113099796D01*
X122984581Y-113291976D01*
X122944000Y-113495993D01*
X122009843Y-113495993D01*
X122009843Y-112211152D01*
X122044819Y-112211152D01*
X122194490Y-112181380D01*
X122335476Y-112122982D01*
X122462360Y-112038200D01*
X122570266Y-111930294D01*
X122655048Y-111803410D01*
X122713446Y-111662424D01*
X122743218Y-111512753D01*
X122743218Y-111360151D01*
X122713446Y-111210480D01*
X122655048Y-111069494D01*
X122570266Y-110942610D01*
X122462360Y-110834704D01*
X122335476Y-110749922D01*
X122194490Y-110691524D01*
X122044819Y-110661752D01*
X121906599Y-110661752D01*
X121936530Y-110616958D01*
X121994928Y-110475972D01*
X122024700Y-110326301D01*
X122024700Y-110173699D01*
X121994928Y-110024028D01*
X121936530Y-109883042D01*
X121851748Y-109756158D01*
X121743842Y-109648252D01*
X121616958Y-109563470D01*
X121475972Y-109505072D01*
X121326301Y-109475300D01*
X121173699Y-109475300D01*
X121024028Y-109505072D01*
X120883042Y-109563470D01*
X120756158Y-109648252D01*
X120648252Y-109756158D01*
X120563470Y-109883042D01*
X120505072Y-110024028D01*
X120475300Y-110173699D01*
X120475300Y-110326301D01*
X120505072Y-110475972D01*
X120563470Y-110616958D01*
X120648252Y-110743842D01*
X120756158Y-110851748D01*
X120883042Y-110936530D01*
X121024028Y-110994928D01*
X121173699Y-111024700D01*
X121311919Y-111024700D01*
X121281988Y-111069494D01*
X121223590Y-111210480D01*
X121193818Y-111360151D01*
X121193818Y-111512753D01*
X121199866Y-111543157D01*
X119927000Y-111543157D01*
X119852311Y-111550513D01*
X119780492Y-111572299D01*
X119714304Y-111607678D01*
X119656289Y-111655289D01*
X119608678Y-111713304D01*
X119573299Y-111779492D01*
X119551513Y-111851311D01*
X119544157Y-111926000D01*
X117373000Y-111926000D01*
X117373000Y-108923699D01*
X122725300Y-108923699D01*
X122725300Y-109076301D01*
X122755072Y-109225972D01*
X122813470Y-109366958D01*
X122898252Y-109493842D01*
X123006158Y-109601748D01*
X123133042Y-109686530D01*
X123274028Y-109744928D01*
X123423699Y-109774700D01*
X123576301Y-109774700D01*
X123725972Y-109744928D01*
X123866958Y-109686530D01*
X123993842Y-109601748D01*
X124038612Y-109556978D01*
X124063456Y-109616958D01*
X124148238Y-109743842D01*
X124256144Y-109851748D01*
X124383028Y-109936530D01*
X124524014Y-109994928D01*
X124673685Y-110024700D01*
X124826287Y-110024700D01*
X124975958Y-109994928D01*
X125116944Y-109936530D01*
X125243828Y-109851748D01*
X125288618Y-109806958D01*
X125313470Y-109866958D01*
X125398252Y-109993842D01*
X125506158Y-110101748D01*
X125633042Y-110186530D01*
X125774028Y-110244928D01*
X125923699Y-110274700D01*
X126076301Y-110274700D01*
X126225972Y-110244928D01*
X126366958Y-110186530D01*
X126493842Y-110101748D01*
X126601748Y-109993842D01*
X126686530Y-109866958D01*
X126744928Y-109725972D01*
X126774700Y-109576301D01*
X126774700Y-109423699D01*
X126744928Y-109274028D01*
X126686530Y-109133042D01*
X126601748Y-109006158D01*
X126493842Y-108898252D01*
X126366958Y-108813470D01*
X126225972Y-108755072D01*
X126076301Y-108725300D01*
X125923699Y-108725300D01*
X125774028Y-108755072D01*
X125633042Y-108813470D01*
X125506158Y-108898252D01*
X125461368Y-108943042D01*
X125436516Y-108883042D01*
X125351734Y-108756158D01*
X125243828Y-108648252D01*
X125116944Y-108563470D01*
X124975958Y-108505072D01*
X124826287Y-108475300D01*
X124673685Y-108475300D01*
X124524014Y-108505072D01*
X124383028Y-108563470D01*
X124256144Y-108648252D01*
X124211374Y-108693022D01*
X124186530Y-108633042D01*
X124101748Y-108506158D01*
X123993842Y-108398252D01*
X123866958Y-108313470D01*
X123725972Y-108255072D01*
X123576301Y-108225300D01*
X123423699Y-108225300D01*
X123274028Y-108255072D01*
X123133042Y-108313470D01*
X123006158Y-108398252D01*
X122898252Y-108506158D01*
X122813470Y-108633042D01*
X122755072Y-108774028D01*
X122725300Y-108923699D01*
X117373000Y-108923699D01*
X117373000Y-107673699D01*
X125725300Y-107673699D01*
X125725300Y-107826301D01*
X125755072Y-107975972D01*
X125813470Y-108116958D01*
X125898252Y-108243842D01*
X126006158Y-108351748D01*
X126133042Y-108436530D01*
X126274028Y-108494928D01*
X126423699Y-108524700D01*
X126576301Y-108524700D01*
X126725972Y-108494928D01*
X126866958Y-108436530D01*
X126993842Y-108351748D01*
X127101748Y-108243842D01*
X127186530Y-108116958D01*
X127190073Y-108108402D01*
X128022597Y-108108402D01*
X128022597Y-108261004D01*
X128052369Y-108410675D01*
X128110767Y-108551661D01*
X128195549Y-108678545D01*
X128303455Y-108786451D01*
X128430339Y-108871233D01*
X128571325Y-108929631D01*
X128720996Y-108959403D01*
X128873598Y-108959403D01*
X129023269Y-108929631D01*
X129164255Y-108871233D01*
X129291139Y-108786451D01*
X129399045Y-108678545D01*
X129483827Y-108551661D01*
X129527300Y-108446707D01*
X129527300Y-108534275D01*
X129557072Y-108683946D01*
X129615470Y-108824932D01*
X129700252Y-108951816D01*
X129808158Y-109059722D01*
X129935042Y-109144504D01*
X130076028Y-109202902D01*
X130225699Y-109232674D01*
X130378301Y-109232674D01*
X130527972Y-109202902D01*
X130668958Y-109144504D01*
X130795842Y-109059722D01*
X130903748Y-108951816D01*
X130988530Y-108824932D01*
X131046928Y-108683946D01*
X131076700Y-108534275D01*
X131076700Y-108381673D01*
X131046928Y-108232002D01*
X130988530Y-108091016D01*
X130903748Y-107964132D01*
X130795842Y-107856226D01*
X130668958Y-107771444D01*
X130527972Y-107713046D01*
X130378301Y-107683274D01*
X130225699Y-107683274D01*
X130076028Y-107713046D01*
X129935042Y-107771444D01*
X129808158Y-107856226D01*
X129700252Y-107964132D01*
X129615470Y-108091016D01*
X129571997Y-108195970D01*
X129571997Y-108108402D01*
X129542225Y-107958731D01*
X129483827Y-107817745D01*
X129399045Y-107690861D01*
X129291139Y-107582955D01*
X129164255Y-107498173D01*
X129023269Y-107439775D01*
X128873598Y-107410003D01*
X128720996Y-107410003D01*
X128571325Y-107439775D01*
X128430339Y-107498173D01*
X128303455Y-107582955D01*
X128195549Y-107690861D01*
X128110767Y-107817745D01*
X128052369Y-107958731D01*
X128022597Y-108108402D01*
X127190073Y-108108402D01*
X127244928Y-107975972D01*
X127274700Y-107826301D01*
X127274700Y-107673699D01*
X127244928Y-107524028D01*
X127186530Y-107383042D01*
X127101748Y-107256158D01*
X126993842Y-107148252D01*
X126866958Y-107063470D01*
X126725972Y-107005072D01*
X126576301Y-106975300D01*
X126423699Y-106975300D01*
X126274028Y-107005072D01*
X126133042Y-107063470D01*
X126006158Y-107148252D01*
X125898252Y-107256158D01*
X125813470Y-107383042D01*
X125755072Y-107524028D01*
X125725300Y-107673699D01*
X117373000Y-107673699D01*
X117373000Y-106423713D01*
X124725300Y-106423713D01*
X124725300Y-106576315D01*
X124755072Y-106725986D01*
X124813470Y-106866972D01*
X124898252Y-106993856D01*
X125006158Y-107101762D01*
X125133042Y-107186544D01*
X125274028Y-107244942D01*
X125423699Y-107274714D01*
X125576301Y-107274714D01*
X125725972Y-107244942D01*
X125866958Y-107186544D01*
X125993842Y-107101762D01*
X126101748Y-106993856D01*
X126186530Y-106866972D01*
X126244928Y-106725986D01*
X126274700Y-106576315D01*
X126274700Y-106423713D01*
X126244928Y-106274042D01*
X126186530Y-106133056D01*
X126101748Y-106006172D01*
X125993842Y-105898266D01*
X125866958Y-105813484D01*
X125725972Y-105755086D01*
X125576301Y-105725314D01*
X125423699Y-105725314D01*
X125274028Y-105755086D01*
X125133042Y-105813484D01*
X125006158Y-105898266D01*
X124898252Y-106006172D01*
X124813470Y-106133056D01*
X124755072Y-106274042D01*
X124725300Y-106423713D01*
X117373000Y-106423713D01*
X117373000Y-105173699D01*
X125830221Y-105173699D01*
X125830221Y-105326301D01*
X125859993Y-105475972D01*
X125918391Y-105616958D01*
X126003173Y-105743842D01*
X126111079Y-105851748D01*
X126237963Y-105936530D01*
X126378949Y-105994928D01*
X126528620Y-106024700D01*
X126681222Y-106024700D01*
X126830893Y-105994928D01*
X126971879Y-105936530D01*
X127098763Y-105851748D01*
X127206669Y-105743842D01*
X127291451Y-105616958D01*
X127349849Y-105475972D01*
X127379621Y-105326301D01*
X127379621Y-105173699D01*
X127349849Y-105024028D01*
X127291451Y-104883042D01*
X127206669Y-104756158D01*
X127098763Y-104648252D01*
X126971879Y-104563470D01*
X126830893Y-104505072D01*
X126681222Y-104475300D01*
X126528620Y-104475300D01*
X126378949Y-104505072D01*
X126237963Y-104563470D01*
X126111079Y-104648252D01*
X126003173Y-104756158D01*
X125918391Y-104883042D01*
X125859993Y-105024028D01*
X125830221Y-105173699D01*
X117373000Y-105173699D01*
X117373000Y-103423699D01*
X119975300Y-103423699D01*
X119975300Y-103576301D01*
X120005072Y-103725972D01*
X120063470Y-103866958D01*
X120148252Y-103993842D01*
X120256158Y-104101748D01*
X120383042Y-104186530D01*
X120524028Y-104244928D01*
X120673699Y-104274700D01*
X120826301Y-104274700D01*
X120975972Y-104244928D01*
X121116958Y-104186530D01*
X121136160Y-104173699D01*
X121475300Y-104173699D01*
X121475300Y-104326301D01*
X121505072Y-104475972D01*
X121563470Y-104616958D01*
X121648252Y-104743842D01*
X121756158Y-104851748D01*
X121883042Y-104936530D01*
X122024028Y-104994928D01*
X122173699Y-105024700D01*
X122326301Y-105024700D01*
X122475972Y-104994928D01*
X122616958Y-104936530D01*
X122743842Y-104851748D01*
X122851748Y-104743842D01*
X122936530Y-104616958D01*
X122994928Y-104475972D01*
X123024700Y-104326301D01*
X123024700Y-104173699D01*
X122994928Y-104024028D01*
X122936530Y-103883042D01*
X122851748Y-103756158D01*
X122743842Y-103648252D01*
X122616958Y-103563470D01*
X122475972Y-103505072D01*
X122326301Y-103475300D01*
X122173699Y-103475300D01*
X122024028Y-103505072D01*
X121883042Y-103563470D01*
X121756158Y-103648252D01*
X121648252Y-103756158D01*
X121563470Y-103883042D01*
X121505072Y-104024028D01*
X121475300Y-104173699D01*
X121136160Y-104173699D01*
X121243842Y-104101748D01*
X121351748Y-103993842D01*
X121436530Y-103866958D01*
X121494928Y-103725972D01*
X121524700Y-103576301D01*
X121524700Y-103423699D01*
X121494928Y-103274028D01*
X121436530Y-103133042D01*
X121351748Y-103006158D01*
X121243842Y-102898252D01*
X121116958Y-102813470D01*
X120975972Y-102755072D01*
X120826301Y-102725300D01*
X120673699Y-102725300D01*
X120524028Y-102755072D01*
X120383042Y-102813470D01*
X120256158Y-102898252D01*
X120148252Y-103006158D01*
X120063470Y-103133042D01*
X120005072Y-103274028D01*
X119975300Y-103423699D01*
X117373000Y-103423699D01*
X117373000Y-102539699D01*
X122669300Y-102539699D01*
X122669300Y-102692301D01*
X122699072Y-102841972D01*
X122757470Y-102982958D01*
X122842252Y-103109842D01*
X122950158Y-103217748D01*
X123077042Y-103302530D01*
X123218028Y-103360928D01*
X123367699Y-103390700D01*
X123520301Y-103390700D01*
X123669972Y-103360928D01*
X123810958Y-103302530D01*
X123937842Y-103217748D01*
X124045748Y-103109842D01*
X124130530Y-102982958D01*
X124188928Y-102841972D01*
X124218700Y-102692301D01*
X124218700Y-102539699D01*
X124188928Y-102390028D01*
X124130530Y-102249042D01*
X124045748Y-102122158D01*
X123937842Y-102014252D01*
X123810958Y-101929470D01*
X123669972Y-101871072D01*
X123520301Y-101841300D01*
X123367699Y-101841300D01*
X123218028Y-101871072D01*
X123077042Y-101929470D01*
X122950158Y-102014252D01*
X122842252Y-102122158D01*
X122757470Y-102249042D01*
X122699072Y-102390028D01*
X122669300Y-102539699D01*
X117373000Y-102539699D01*
X117373000Y-99226000D01*
X119544157Y-99226000D01*
X119544157Y-100926000D01*
X119551513Y-101000689D01*
X119573299Y-101072508D01*
X119608678Y-101138696D01*
X119656289Y-101196711D01*
X119714304Y-101244322D01*
X119780492Y-101279701D01*
X119852311Y-101301487D01*
X119927000Y-101308843D01*
X121627000Y-101308843D01*
X121701689Y-101301487D01*
X121773508Y-101279701D01*
X121839696Y-101244322D01*
X121897711Y-101196711D01*
X121945322Y-101138696D01*
X121980701Y-101072508D01*
X122002487Y-101000689D01*
X122009843Y-100926000D01*
X122009843Y-100761699D01*
X132067300Y-100761699D01*
X132067300Y-100914301D01*
X132097072Y-101063972D01*
X132155470Y-101204958D01*
X132240252Y-101331842D01*
X132348158Y-101439748D01*
X132475042Y-101524530D01*
X132616028Y-101582928D01*
X132765699Y-101612700D01*
X132918301Y-101612700D01*
X133067972Y-101582928D01*
X133208958Y-101524530D01*
X133335842Y-101439748D01*
X133443748Y-101331842D01*
X133528530Y-101204958D01*
X133586928Y-101063972D01*
X133616700Y-100914301D01*
X133616700Y-100761699D01*
X133586928Y-100612028D01*
X133528530Y-100471042D01*
X133443748Y-100344158D01*
X133335842Y-100236252D01*
X133208958Y-100151470D01*
X133067972Y-100093072D01*
X132918301Y-100063300D01*
X132765699Y-100063300D01*
X132616028Y-100093072D01*
X132475042Y-100151470D01*
X132348158Y-100236252D01*
X132240252Y-100344158D01*
X132155470Y-100471042D01*
X132097072Y-100612028D01*
X132067300Y-100761699D01*
X122009843Y-100761699D01*
X122009843Y-99954757D01*
X134786000Y-99954757D01*
X134786000Y-100197243D01*
X134833307Y-100435069D01*
X134926102Y-100659097D01*
X135060820Y-100860717D01*
X135232283Y-101032180D01*
X135433903Y-101166898D01*
X135657931Y-101259693D01*
X135895757Y-101307000D01*
X136138243Y-101307000D01*
X136376069Y-101259693D01*
X136600097Y-101166898D01*
X136801717Y-101032180D01*
X136973180Y-100860717D01*
X137107898Y-100659097D01*
X137200693Y-100435069D01*
X137248000Y-100197243D01*
X137248000Y-99954757D01*
X137200693Y-99716931D01*
X137107898Y-99492903D01*
X136973180Y-99291283D01*
X136801717Y-99119820D01*
X136600097Y-98985102D01*
X136376069Y-98892307D01*
X136138243Y-98845000D01*
X135895757Y-98845000D01*
X135657931Y-98892307D01*
X135433903Y-98985102D01*
X135232283Y-99119820D01*
X135060820Y-99291283D01*
X134926102Y-99492903D01*
X134833307Y-99716931D01*
X134786000Y-99954757D01*
X122009843Y-99954757D01*
X122009843Y-99226000D01*
X122002487Y-99151311D01*
X121980701Y-99079492D01*
X121945322Y-99013304D01*
X121897711Y-98955289D01*
X121839696Y-98907678D01*
X121773508Y-98872299D01*
X121701689Y-98850513D01*
X121627000Y-98843157D01*
X119927000Y-98843157D01*
X119852311Y-98850513D01*
X119780492Y-98872299D01*
X119714304Y-98907678D01*
X119656289Y-98955289D01*
X119608678Y-99013304D01*
X119573299Y-99079492D01*
X119551513Y-99151311D01*
X119544157Y-99226000D01*
X117373000Y-99226000D01*
X117373000Y-97414757D01*
X119546000Y-97414757D01*
X119546000Y-97657243D01*
X119593307Y-97895069D01*
X119686102Y-98119097D01*
X119820820Y-98320717D01*
X119992283Y-98492180D01*
X120193903Y-98626898D01*
X120417931Y-98719693D01*
X120655757Y-98767000D01*
X120898243Y-98767000D01*
X121136069Y-98719693D01*
X121360097Y-98626898D01*
X121561717Y-98492180D01*
X121733180Y-98320717D01*
X121867898Y-98119097D01*
X121930608Y-97967699D01*
X125209300Y-97967699D01*
X125209300Y-98120301D01*
X125239072Y-98269972D01*
X125297470Y-98410958D01*
X125382252Y-98537842D01*
X125490158Y-98645748D01*
X125617042Y-98730530D01*
X125758028Y-98788928D01*
X125907699Y-98818700D01*
X126060301Y-98818700D01*
X126209972Y-98788928D01*
X126350958Y-98730530D01*
X126477842Y-98645748D01*
X126585748Y-98537842D01*
X126670530Y-98410958D01*
X126728928Y-98269972D01*
X126758700Y-98120301D01*
X126758700Y-97967699D01*
X126728928Y-97818028D01*
X126670530Y-97677042D01*
X126585748Y-97550158D01*
X126477842Y-97442252D01*
X126436694Y-97414757D01*
X134786000Y-97414757D01*
X134786000Y-97657243D01*
X134833307Y-97895069D01*
X134926102Y-98119097D01*
X135060820Y-98320717D01*
X135232283Y-98492180D01*
X135433903Y-98626898D01*
X135657931Y-98719693D01*
X135895757Y-98767000D01*
X136138243Y-98767000D01*
X136376069Y-98719693D01*
X136600097Y-98626898D01*
X136801717Y-98492180D01*
X136973180Y-98320717D01*
X137107898Y-98119097D01*
X137200693Y-97895069D01*
X137248000Y-97657243D01*
X137248000Y-97414757D01*
X137200693Y-97176931D01*
X137107898Y-96952903D01*
X136973180Y-96751283D01*
X136801717Y-96579820D01*
X136600097Y-96445102D01*
X136376069Y-96352307D01*
X136138243Y-96305000D01*
X135895757Y-96305000D01*
X135657931Y-96352307D01*
X135433903Y-96445102D01*
X135232283Y-96579820D01*
X135060820Y-96751283D01*
X134926102Y-96952903D01*
X134833307Y-97176931D01*
X134786000Y-97414757D01*
X126436694Y-97414757D01*
X126350958Y-97357470D01*
X126209972Y-97299072D01*
X126060301Y-97269300D01*
X125907699Y-97269300D01*
X125758028Y-97299072D01*
X125617042Y-97357470D01*
X125490158Y-97442252D01*
X125382252Y-97550158D01*
X125297470Y-97677042D01*
X125239072Y-97818028D01*
X125209300Y-97967699D01*
X121930608Y-97967699D01*
X121960693Y-97895069D01*
X122008000Y-97657243D01*
X122008000Y-97414757D01*
X121960693Y-97176931D01*
X121867898Y-96952903D01*
X121733180Y-96751283D01*
X121561717Y-96579820D01*
X121360097Y-96445102D01*
X121136069Y-96352307D01*
X120898243Y-96305000D01*
X120655757Y-96305000D01*
X120417931Y-96352307D01*
X120193903Y-96445102D01*
X119992283Y-96579820D01*
X119820820Y-96751283D01*
X119686102Y-96952903D01*
X119593307Y-97176931D01*
X119546000Y-97414757D01*
X117373000Y-97414757D01*
X117373000Y-94874757D01*
X119546000Y-94874757D01*
X119546000Y-95117243D01*
X119593307Y-95355069D01*
X119686102Y-95579097D01*
X119820820Y-95780717D01*
X119992283Y-95952180D01*
X120193903Y-96086898D01*
X120417931Y-96179693D01*
X120655757Y-96227000D01*
X120898243Y-96227000D01*
X121136069Y-96179693D01*
X121360097Y-96086898D01*
X121561717Y-95952180D01*
X121733180Y-95780717D01*
X121867898Y-95579097D01*
X121960693Y-95355069D01*
X122008000Y-95117243D01*
X122008000Y-94874757D01*
X134786000Y-94874757D01*
X134786000Y-95117243D01*
X134833307Y-95355069D01*
X134926102Y-95579097D01*
X135060820Y-95780717D01*
X135232283Y-95952180D01*
X135433903Y-96086898D01*
X135657931Y-96179693D01*
X135895757Y-96227000D01*
X136138243Y-96227000D01*
X136376069Y-96179693D01*
X136600097Y-96086898D01*
X136801717Y-95952180D01*
X136973180Y-95780717D01*
X137107898Y-95579097D01*
X137200693Y-95355069D01*
X137248000Y-95117243D01*
X137248000Y-94874757D01*
X137200693Y-94636931D01*
X137107898Y-94412903D01*
X136973180Y-94211283D01*
X136801717Y-94039820D01*
X136600097Y-93905102D01*
X136376069Y-93812307D01*
X136138243Y-93765000D01*
X135895757Y-93765000D01*
X135657931Y-93812307D01*
X135433903Y-93905102D01*
X135232283Y-94039820D01*
X135060820Y-94211283D01*
X134926102Y-94412903D01*
X134833307Y-94636931D01*
X134786000Y-94874757D01*
X122008000Y-94874757D01*
X121960693Y-94636931D01*
X121867898Y-94412903D01*
X121733180Y-94211283D01*
X121561717Y-94039820D01*
X121360097Y-93905102D01*
X121136069Y-93812307D01*
X120898243Y-93765000D01*
X120655757Y-93765000D01*
X120417931Y-93812307D01*
X120193903Y-93905102D01*
X119992283Y-94039820D01*
X119820820Y-94211283D01*
X119686102Y-94412903D01*
X119593307Y-94636931D01*
X119546000Y-94874757D01*
X117373000Y-94874757D01*
X117373000Y-92334757D01*
X119546000Y-92334757D01*
X119546000Y-92577243D01*
X119593307Y-92815069D01*
X119686102Y-93039097D01*
X119820820Y-93240717D01*
X119992283Y-93412180D01*
X120193903Y-93546898D01*
X120417931Y-93639693D01*
X120655757Y-93687000D01*
X120898243Y-93687000D01*
X121136069Y-93639693D01*
X121360097Y-93546898D01*
X121561717Y-93412180D01*
X121733180Y-93240717D01*
X121867898Y-93039097D01*
X121930608Y-92887699D01*
X125717300Y-92887699D01*
X125717300Y-93040301D01*
X125747072Y-93189972D01*
X125805470Y-93330958D01*
X125890252Y-93457842D01*
X125998158Y-93565748D01*
X126125042Y-93650530D01*
X126266028Y-93708928D01*
X126415699Y-93738700D01*
X126568301Y-93738700D01*
X126717972Y-93708928D01*
X126858958Y-93650530D01*
X126985842Y-93565748D01*
X127093748Y-93457842D01*
X127178530Y-93330958D01*
X127236928Y-93189972D01*
X127254000Y-93104147D01*
X127271072Y-93189972D01*
X127329470Y-93330958D01*
X127414252Y-93457842D01*
X127522158Y-93565748D01*
X127649042Y-93650530D01*
X127790028Y-93708928D01*
X127939699Y-93738700D01*
X128092301Y-93738700D01*
X128241972Y-93708928D01*
X128382958Y-93650530D01*
X128509842Y-93565748D01*
X128617748Y-93457842D01*
X128702530Y-93330958D01*
X128760928Y-93189972D01*
X128790700Y-93040301D01*
X128790700Y-92887699D01*
X128760928Y-92738028D01*
X128702530Y-92597042D01*
X128617748Y-92470158D01*
X128509842Y-92362252D01*
X128468694Y-92334757D01*
X134786000Y-92334757D01*
X134786000Y-92577243D01*
X134833307Y-92815069D01*
X134926102Y-93039097D01*
X135060820Y-93240717D01*
X135232283Y-93412180D01*
X135433903Y-93546898D01*
X135657931Y-93639693D01*
X135895757Y-93687000D01*
X136138243Y-93687000D01*
X136376069Y-93639693D01*
X136600097Y-93546898D01*
X136801717Y-93412180D01*
X136973180Y-93240717D01*
X137107898Y-93039097D01*
X137200693Y-92815069D01*
X137248000Y-92577243D01*
X137248000Y-92334757D01*
X137200693Y-92096931D01*
X137107898Y-91872903D01*
X136973180Y-91671283D01*
X136801717Y-91499820D01*
X136600097Y-91365102D01*
X136376069Y-91272307D01*
X136138243Y-91225000D01*
X135895757Y-91225000D01*
X135657931Y-91272307D01*
X135433903Y-91365102D01*
X135232283Y-91499820D01*
X135060820Y-91671283D01*
X134926102Y-91872903D01*
X134833307Y-92096931D01*
X134786000Y-92334757D01*
X128468694Y-92334757D01*
X128382958Y-92277470D01*
X128241972Y-92219072D01*
X128092301Y-92189300D01*
X127939699Y-92189300D01*
X127790028Y-92219072D01*
X127649042Y-92277470D01*
X127522158Y-92362252D01*
X127414252Y-92470158D01*
X127329470Y-92597042D01*
X127271072Y-92738028D01*
X127254000Y-92823853D01*
X127236928Y-92738028D01*
X127178530Y-92597042D01*
X127093748Y-92470158D01*
X126985842Y-92362252D01*
X126858958Y-92277470D01*
X126717972Y-92219072D01*
X126568301Y-92189300D01*
X126415699Y-92189300D01*
X126266028Y-92219072D01*
X126125042Y-92277470D01*
X125998158Y-92362252D01*
X125890252Y-92470158D01*
X125805470Y-92597042D01*
X125747072Y-92738028D01*
X125717300Y-92887699D01*
X121930608Y-92887699D01*
X121960693Y-92815069D01*
X122008000Y-92577243D01*
X122008000Y-92334757D01*
X121960693Y-92096931D01*
X121867898Y-91872903D01*
X121733180Y-91671283D01*
X121561717Y-91499820D01*
X121360097Y-91365102D01*
X121136069Y-91272307D01*
X120898243Y-91225000D01*
X120655757Y-91225000D01*
X120417931Y-91272307D01*
X120193903Y-91365102D01*
X119992283Y-91499820D01*
X119820820Y-91671283D01*
X119686102Y-91872903D01*
X119593307Y-92096931D01*
X119546000Y-92334757D01*
X117373000Y-92334757D01*
X117373000Y-89794757D01*
X119546000Y-89794757D01*
X119546000Y-90037243D01*
X119593307Y-90275069D01*
X119686102Y-90499097D01*
X119820820Y-90700717D01*
X119992283Y-90872180D01*
X120193903Y-91006898D01*
X120417931Y-91099693D01*
X120655757Y-91147000D01*
X120898243Y-91147000D01*
X121136069Y-91099693D01*
X121360097Y-91006898D01*
X121561717Y-90872180D01*
X121733180Y-90700717D01*
X121867898Y-90499097D01*
X121960693Y-90275069D01*
X122008000Y-90037243D01*
X122008000Y-89794757D01*
X134786000Y-89794757D01*
X134786000Y-90037243D01*
X134833307Y-90275069D01*
X134926102Y-90499097D01*
X135060820Y-90700717D01*
X135232283Y-90872180D01*
X135433903Y-91006898D01*
X135657931Y-91099693D01*
X135895757Y-91147000D01*
X136138243Y-91147000D01*
X136376069Y-91099693D01*
X136600097Y-91006898D01*
X136801717Y-90872180D01*
X136973180Y-90700717D01*
X137107898Y-90499097D01*
X137200693Y-90275069D01*
X137248000Y-90037243D01*
X137248000Y-89794757D01*
X137200693Y-89556931D01*
X137107898Y-89332903D01*
X136973180Y-89131283D01*
X136801717Y-88959820D01*
X136600097Y-88825102D01*
X136376069Y-88732307D01*
X136138243Y-88685000D01*
X135895757Y-88685000D01*
X135657931Y-88732307D01*
X135433903Y-88825102D01*
X135232283Y-88959820D01*
X135060820Y-89131283D01*
X134926102Y-89332903D01*
X134833307Y-89556931D01*
X134786000Y-89794757D01*
X122008000Y-89794757D01*
X121960693Y-89556931D01*
X121867898Y-89332903D01*
X121733180Y-89131283D01*
X121561717Y-88959820D01*
X121360097Y-88825102D01*
X121136069Y-88732307D01*
X120898243Y-88685000D01*
X120655757Y-88685000D01*
X120417931Y-88732307D01*
X120193903Y-88825102D01*
X119992283Y-88959820D01*
X119820820Y-89131283D01*
X119686102Y-89332903D01*
X119593307Y-89556931D01*
X119546000Y-89794757D01*
X117373000Y-89794757D01*
X117373000Y-86526000D01*
X119544157Y-86526000D01*
X119544157Y-88226000D01*
X119551513Y-88300689D01*
X119573299Y-88372508D01*
X119608678Y-88438696D01*
X119656289Y-88496711D01*
X119714304Y-88544322D01*
X119780492Y-88579701D01*
X119852311Y-88601487D01*
X119927000Y-88608843D01*
X121627000Y-88608843D01*
X121701689Y-88601487D01*
X121773508Y-88579701D01*
X121839696Y-88544322D01*
X121897711Y-88496711D01*
X121945322Y-88438696D01*
X121980701Y-88372508D01*
X122002487Y-88300689D01*
X122009843Y-88226000D01*
X122009843Y-87254757D01*
X134786000Y-87254757D01*
X134786000Y-87497243D01*
X134833307Y-87735069D01*
X134926102Y-87959097D01*
X135060820Y-88160717D01*
X135232283Y-88332180D01*
X135433903Y-88466898D01*
X135657931Y-88559693D01*
X135895757Y-88607000D01*
X136138243Y-88607000D01*
X136376069Y-88559693D01*
X136600097Y-88466898D01*
X136801717Y-88332180D01*
X136973180Y-88160717D01*
X137107898Y-87959097D01*
X137200693Y-87735069D01*
X137248000Y-87497243D01*
X137248000Y-87254757D01*
X137200693Y-87016931D01*
X137107898Y-86792903D01*
X136973180Y-86591283D01*
X136801717Y-86419820D01*
X136600097Y-86285102D01*
X136376069Y-86192307D01*
X136138243Y-86145000D01*
X135895757Y-86145000D01*
X135657931Y-86192307D01*
X135433903Y-86285102D01*
X135232283Y-86419820D01*
X135060820Y-86591283D01*
X134926102Y-86792903D01*
X134833307Y-87016931D01*
X134786000Y-87254757D01*
X122009843Y-87254757D01*
X122009843Y-86526000D01*
X122002487Y-86451311D01*
X121980701Y-86379492D01*
X121945322Y-86313304D01*
X121897711Y-86255289D01*
X121839696Y-86207678D01*
X121773508Y-86172299D01*
X121701689Y-86150513D01*
X121627000Y-86143157D01*
X119927000Y-86143157D01*
X119852311Y-86150513D01*
X119780492Y-86172299D01*
X119714304Y-86207678D01*
X119656289Y-86255289D01*
X119608678Y-86313304D01*
X119573299Y-86379492D01*
X119551513Y-86451311D01*
X119544157Y-86526000D01*
X117373000Y-86526000D01*
X117373000Y-84714757D01*
X119546000Y-84714757D01*
X119546000Y-84957243D01*
X119593307Y-85195069D01*
X119686102Y-85419097D01*
X119820820Y-85620717D01*
X119992283Y-85792180D01*
X120193903Y-85926898D01*
X120417931Y-86019693D01*
X120655757Y-86067000D01*
X120898243Y-86067000D01*
X121136069Y-86019693D01*
X121360097Y-85926898D01*
X121561717Y-85792180D01*
X121733180Y-85620717D01*
X121867898Y-85419097D01*
X121960693Y-85195069D01*
X122008000Y-84957243D01*
X122008000Y-84714757D01*
X134786000Y-84714757D01*
X134786000Y-84957243D01*
X134833307Y-85195069D01*
X134926102Y-85419097D01*
X135060820Y-85620717D01*
X135232283Y-85792180D01*
X135433903Y-85926898D01*
X135657931Y-86019693D01*
X135895757Y-86067000D01*
X136138243Y-86067000D01*
X136376069Y-86019693D01*
X136600097Y-85926898D01*
X136801717Y-85792180D01*
X136973180Y-85620717D01*
X137107898Y-85419097D01*
X137200693Y-85195069D01*
X137248000Y-84957243D01*
X137248000Y-84714757D01*
X137200693Y-84476931D01*
X137107898Y-84252903D01*
X136973180Y-84051283D01*
X136801717Y-83879820D01*
X136600097Y-83745102D01*
X136376069Y-83652307D01*
X136138243Y-83605000D01*
X135895757Y-83605000D01*
X135657931Y-83652307D01*
X135433903Y-83745102D01*
X135232283Y-83879820D01*
X135060820Y-84051283D01*
X134926102Y-84252903D01*
X134833307Y-84476931D01*
X134786000Y-84714757D01*
X122008000Y-84714757D01*
X121960693Y-84476931D01*
X121867898Y-84252903D01*
X121733180Y-84051283D01*
X121561717Y-83879820D01*
X121360097Y-83745102D01*
X121136069Y-83652307D01*
X120898243Y-83605000D01*
X120655757Y-83605000D01*
X120417931Y-83652307D01*
X120193903Y-83745102D01*
X119992283Y-83879820D01*
X119820820Y-84051283D01*
X119686102Y-84252903D01*
X119593307Y-84476931D01*
X119546000Y-84714757D01*
X117373000Y-84714757D01*
X117373000Y-82174757D01*
X119546000Y-82174757D01*
X119546000Y-82417243D01*
X119593307Y-82655069D01*
X119686102Y-82879097D01*
X119820820Y-83080717D01*
X119992283Y-83252180D01*
X120193903Y-83386898D01*
X120417931Y-83479693D01*
X120655757Y-83527000D01*
X120898243Y-83527000D01*
X121136069Y-83479693D01*
X121360097Y-83386898D01*
X121561717Y-83252180D01*
X121733180Y-83080717D01*
X121867898Y-82879097D01*
X121960693Y-82655069D01*
X122008000Y-82417243D01*
X122008000Y-82174757D01*
X134786000Y-82174757D01*
X134786000Y-82417243D01*
X134833307Y-82655069D01*
X134926102Y-82879097D01*
X135060820Y-83080717D01*
X135232283Y-83252180D01*
X135433903Y-83386898D01*
X135657931Y-83479693D01*
X135895757Y-83527000D01*
X136138243Y-83527000D01*
X136376069Y-83479693D01*
X136600097Y-83386898D01*
X136801717Y-83252180D01*
X136973180Y-83080717D01*
X137107898Y-82879097D01*
X137200693Y-82655069D01*
X137248000Y-82417243D01*
X137248000Y-82174757D01*
X137200693Y-81936931D01*
X137107898Y-81712903D01*
X136973180Y-81511283D01*
X136801717Y-81339820D01*
X136600097Y-81205102D01*
X136376069Y-81112307D01*
X136138243Y-81065000D01*
X135895757Y-81065000D01*
X135657931Y-81112307D01*
X135433903Y-81205102D01*
X135232283Y-81339820D01*
X135060820Y-81511283D01*
X134926102Y-81712903D01*
X134833307Y-81936931D01*
X134786000Y-82174757D01*
X122008000Y-82174757D01*
X121960693Y-81936931D01*
X121867898Y-81712903D01*
X121733180Y-81511283D01*
X121561717Y-81339820D01*
X121360097Y-81205102D01*
X121136069Y-81112307D01*
X120898243Y-81065000D01*
X120655757Y-81065000D01*
X120417931Y-81112307D01*
X120193903Y-81205102D01*
X119992283Y-81339820D01*
X119820820Y-81511283D01*
X119686102Y-81712903D01*
X119593307Y-81936931D01*
X119546000Y-82174757D01*
X117373000Y-82174757D01*
X117373000Y-79634757D01*
X119546000Y-79634757D01*
X119546000Y-79877243D01*
X119593307Y-80115069D01*
X119686102Y-80339097D01*
X119820820Y-80540717D01*
X119992283Y-80712180D01*
X120193903Y-80846898D01*
X120417931Y-80939693D01*
X120655757Y-80987000D01*
X120898243Y-80987000D01*
X121136069Y-80939693D01*
X121360097Y-80846898D01*
X121561717Y-80712180D01*
X121733180Y-80540717D01*
X121867898Y-80339097D01*
X121960693Y-80115069D01*
X122008000Y-79877243D01*
X122008000Y-79634757D01*
X134786000Y-79634757D01*
X134786000Y-79877243D01*
X134833307Y-80115069D01*
X134926102Y-80339097D01*
X135060820Y-80540717D01*
X135232283Y-80712180D01*
X135433903Y-80846898D01*
X135657931Y-80939693D01*
X135895757Y-80987000D01*
X136138243Y-80987000D01*
X136376069Y-80939693D01*
X136600097Y-80846898D01*
X136801717Y-80712180D01*
X136973180Y-80540717D01*
X137107898Y-80339097D01*
X137200693Y-80115069D01*
X137248000Y-79877243D01*
X137248000Y-79634757D01*
X137200693Y-79396931D01*
X137107898Y-79172903D01*
X136973180Y-78971283D01*
X136801717Y-78799820D01*
X136600097Y-78665102D01*
X136376069Y-78572307D01*
X136138243Y-78525000D01*
X135895757Y-78525000D01*
X135657931Y-78572307D01*
X135433903Y-78665102D01*
X135232283Y-78799820D01*
X135060820Y-78971283D01*
X134926102Y-79172903D01*
X134833307Y-79396931D01*
X134786000Y-79634757D01*
X122008000Y-79634757D01*
X121960693Y-79396931D01*
X121867898Y-79172903D01*
X121733180Y-78971283D01*
X121561717Y-78799820D01*
X121360097Y-78665102D01*
X121136069Y-78572307D01*
X120898243Y-78525000D01*
X120655757Y-78525000D01*
X120417931Y-78572307D01*
X120193903Y-78665102D01*
X119992283Y-78799820D01*
X119820820Y-78971283D01*
X119686102Y-79172903D01*
X119593307Y-79396931D01*
X119546000Y-79634757D01*
X117373000Y-79634757D01*
X117373000Y-77094757D01*
X119546000Y-77094757D01*
X119546000Y-77337243D01*
X119593307Y-77575069D01*
X119686102Y-77799097D01*
X119820820Y-78000717D01*
X119992283Y-78172180D01*
X120193903Y-78306898D01*
X120417931Y-78399693D01*
X120655757Y-78447000D01*
X120898243Y-78447000D01*
X121136069Y-78399693D01*
X121360097Y-78306898D01*
X121561717Y-78172180D01*
X121733180Y-78000717D01*
X121867898Y-77799097D01*
X121960693Y-77575069D01*
X122008000Y-77337243D01*
X122008000Y-77094757D01*
X134786000Y-77094757D01*
X134786000Y-77337243D01*
X134833307Y-77575069D01*
X134926102Y-77799097D01*
X135060820Y-78000717D01*
X135232283Y-78172180D01*
X135433903Y-78306898D01*
X135657931Y-78399693D01*
X135895757Y-78447000D01*
X136138243Y-78447000D01*
X136376069Y-78399693D01*
X136600097Y-78306898D01*
X136801717Y-78172180D01*
X136973180Y-78000717D01*
X137107898Y-77799097D01*
X137200693Y-77575069D01*
X137248000Y-77337243D01*
X137248000Y-77094757D01*
X137200693Y-76856931D01*
X137107898Y-76632903D01*
X136973180Y-76431283D01*
X136801717Y-76259820D01*
X136600097Y-76125102D01*
X136376069Y-76032307D01*
X136138243Y-75985000D01*
X135895757Y-75985000D01*
X135657931Y-76032307D01*
X135433903Y-76125102D01*
X135232283Y-76259820D01*
X135060820Y-76431283D01*
X134926102Y-76632903D01*
X134833307Y-76856931D01*
X134786000Y-77094757D01*
X122008000Y-77094757D01*
X121960693Y-76856931D01*
X121867898Y-76632903D01*
X121733180Y-76431283D01*
X121561717Y-76259820D01*
X121360097Y-76125102D01*
X121136069Y-76032307D01*
X120898243Y-75985000D01*
X120655757Y-75985000D01*
X120417931Y-76032307D01*
X120193903Y-76125102D01*
X119992283Y-76259820D01*
X119820820Y-76431283D01*
X119686102Y-76632903D01*
X119593307Y-76856931D01*
X119546000Y-77094757D01*
X117373000Y-77094757D01*
X117373000Y-75082000D01*
X139167000Y-75082000D01*
X139167001Y-126594000D01*
%TA.AperFunction,Conductor*%
D17*
G36*
X139167001Y-126594000D02*
G01*
X136534667Y-126594000D01*
X136600097Y-126566898D01*
X136801717Y-126432180D01*
X136973180Y-126260717D01*
X137107898Y-126059097D01*
X137200693Y-125835069D01*
X137248000Y-125597243D01*
X137248000Y-125354757D01*
X137200693Y-125116931D01*
X137107898Y-124892903D01*
X136973180Y-124691283D01*
X136801717Y-124519820D01*
X136600097Y-124385102D01*
X136376069Y-124292307D01*
X136138243Y-124245000D01*
X135895757Y-124245000D01*
X135657931Y-124292307D01*
X135433903Y-124385102D01*
X135232283Y-124519820D01*
X135060820Y-124691283D01*
X134926102Y-124892903D01*
X134833307Y-125116931D01*
X134786000Y-125354757D01*
X134786000Y-125597243D01*
X134833307Y-125835069D01*
X134926102Y-126059097D01*
X135060820Y-126260717D01*
X135232283Y-126432180D01*
X135433903Y-126566898D01*
X135499333Y-126594000D01*
X121899936Y-126594000D01*
X121945322Y-126538696D01*
X121980701Y-126472508D01*
X122002487Y-126400689D01*
X122009843Y-126326000D01*
X122009843Y-124626000D01*
X122002487Y-124551311D01*
X121980701Y-124479492D01*
X121945322Y-124413304D01*
X121911426Y-124372000D01*
X124370157Y-124372000D01*
X124370157Y-126072000D01*
X124377513Y-126146689D01*
X124399299Y-126218508D01*
X124434678Y-126284696D01*
X124482289Y-126342711D01*
X124540304Y-126390322D01*
X124606492Y-126425701D01*
X124678311Y-126447487D01*
X124753000Y-126454843D01*
X126453000Y-126454843D01*
X126527689Y-126447487D01*
X126599508Y-126425701D01*
X126665696Y-126390322D01*
X126723711Y-126342711D01*
X126771322Y-126284696D01*
X126806701Y-126218508D01*
X126828487Y-126146689D01*
X126835843Y-126072000D01*
X126835843Y-125100757D01*
X126912000Y-125100757D01*
X126912000Y-125343243D01*
X126959307Y-125581069D01*
X127052102Y-125805097D01*
X127186820Y-126006717D01*
X127358283Y-126178180D01*
X127559903Y-126312898D01*
X127783931Y-126405693D01*
X128021757Y-126453000D01*
X128264243Y-126453000D01*
X128502069Y-126405693D01*
X128726097Y-126312898D01*
X128927717Y-126178180D01*
X129099180Y-126006717D01*
X129233898Y-125805097D01*
X129326693Y-125581069D01*
X129374000Y-125343243D01*
X129374000Y-125100757D01*
X129326693Y-124862931D01*
X129233898Y-124638903D01*
X129099180Y-124437283D01*
X128927717Y-124265820D01*
X128726097Y-124131102D01*
X128502069Y-124038307D01*
X128264243Y-123991000D01*
X128021757Y-123991000D01*
X127783931Y-124038307D01*
X127559903Y-124131102D01*
X127358283Y-124265820D01*
X127186820Y-124437283D01*
X127052102Y-124638903D01*
X126959307Y-124862931D01*
X126912000Y-125100757D01*
X126835843Y-125100757D01*
X126835843Y-124372000D01*
X126828487Y-124297311D01*
X126806701Y-124225492D01*
X126771322Y-124159304D01*
X126723711Y-124101289D01*
X126665696Y-124053678D01*
X126599508Y-124018299D01*
X126527689Y-123996513D01*
X126453000Y-123989157D01*
X124753000Y-123989157D01*
X124678311Y-123996513D01*
X124606492Y-124018299D01*
X124540304Y-124053678D01*
X124482289Y-124101289D01*
X124434678Y-124159304D01*
X124399299Y-124225492D01*
X124377513Y-124297311D01*
X124370157Y-124372000D01*
X121911426Y-124372000D01*
X121897711Y-124355289D01*
X121839696Y-124307678D01*
X121773508Y-124272299D01*
X121701689Y-124250513D01*
X121627000Y-124243157D01*
X119927000Y-124243157D01*
X119852311Y-124250513D01*
X119780492Y-124272299D01*
X119714304Y-124307678D01*
X119656289Y-124355289D01*
X119608678Y-124413304D01*
X119573299Y-124479492D01*
X119551513Y-124551311D01*
X119544157Y-124626000D01*
X119544157Y-126326000D01*
X119551513Y-126400689D01*
X119573299Y-126472508D01*
X119608678Y-126538696D01*
X119654064Y-126594000D01*
X117373000Y-126594000D01*
X117373000Y-122814757D01*
X119546000Y-122814757D01*
X119546000Y-123057243D01*
X119593307Y-123295069D01*
X119686102Y-123519097D01*
X119820820Y-123720717D01*
X119992283Y-123892180D01*
X120193903Y-124026898D01*
X120417931Y-124119693D01*
X120655757Y-124167000D01*
X120898243Y-124167000D01*
X121136069Y-124119693D01*
X121360097Y-124026898D01*
X121561717Y-123892180D01*
X121733180Y-123720717D01*
X121867898Y-123519097D01*
X121960693Y-123295069D01*
X122008000Y-123057243D01*
X122008000Y-122814757D01*
X121969996Y-122623699D01*
X123225300Y-122623699D01*
X123225300Y-122776301D01*
X123255072Y-122925972D01*
X123313470Y-123066958D01*
X123398252Y-123193842D01*
X123506158Y-123301748D01*
X123633042Y-123386530D01*
X123774028Y-123444928D01*
X123923699Y-123474700D01*
X124076301Y-123474700D01*
X124225972Y-123444928D01*
X124366958Y-123386530D01*
X124493842Y-123301748D01*
X124519468Y-123276122D01*
X124646820Y-123466717D01*
X124818283Y-123638180D01*
X125019903Y-123772898D01*
X125243931Y-123865693D01*
X125481757Y-123913000D01*
X125724243Y-123913000D01*
X125962069Y-123865693D01*
X126186097Y-123772898D01*
X126387717Y-123638180D01*
X126559180Y-123466717D01*
X126693898Y-123265097D01*
X126786693Y-123041069D01*
X126834000Y-122803243D01*
X126834000Y-122560757D01*
X126912000Y-122560757D01*
X126912000Y-122803243D01*
X126959307Y-123041069D01*
X127052102Y-123265097D01*
X127186820Y-123466717D01*
X127358283Y-123638180D01*
X127559903Y-123772898D01*
X127783931Y-123865693D01*
X128021757Y-123913000D01*
X128264243Y-123913000D01*
X128502069Y-123865693D01*
X128726097Y-123772898D01*
X128927717Y-123638180D01*
X129099180Y-123466717D01*
X129233898Y-123265097D01*
X129281228Y-123150832D01*
X129338843Y-123313252D01*
X129487822Y-123563355D01*
X129682731Y-123779588D01*
X129916080Y-123953641D01*
X130178901Y-124078825D01*
X130206154Y-124087091D01*
X130099903Y-124131102D01*
X129898283Y-124265820D01*
X129726820Y-124437283D01*
X129592102Y-124638903D01*
X129499307Y-124862931D01*
X129452000Y-125100757D01*
X129452000Y-125343243D01*
X129499307Y-125581069D01*
X129592102Y-125805097D01*
X129726820Y-126006717D01*
X129898283Y-126178180D01*
X130099903Y-126312898D01*
X130323931Y-126405693D01*
X130561757Y-126453000D01*
X130804243Y-126453000D01*
X131042069Y-126405693D01*
X131266097Y-126312898D01*
X131467717Y-126178180D01*
X131639180Y-126006717D01*
X131773898Y-125805097D01*
X131866693Y-125581069D01*
X131914000Y-125343243D01*
X131914000Y-125100757D01*
X131866693Y-124862931D01*
X131773898Y-124638903D01*
X131639180Y-124437283D01*
X131467717Y-124265820D01*
X131266097Y-124131102D01*
X131159846Y-124087091D01*
X131187099Y-124078825D01*
X131449920Y-123953641D01*
X131683269Y-123779588D01*
X131878178Y-123563355D01*
X132027157Y-123313252D01*
X132124481Y-123038891D01*
X132006836Y-122814757D01*
X134786000Y-122814757D01*
X134786000Y-123057243D01*
X134833307Y-123295069D01*
X134926102Y-123519097D01*
X135060820Y-123720717D01*
X135232283Y-123892180D01*
X135433903Y-124026898D01*
X135657931Y-124119693D01*
X135895757Y-124167000D01*
X136138243Y-124167000D01*
X136376069Y-124119693D01*
X136600097Y-124026898D01*
X136801717Y-123892180D01*
X136973180Y-123720717D01*
X137107898Y-123519097D01*
X137200693Y-123295069D01*
X137248000Y-123057243D01*
X137248000Y-122814757D01*
X137200693Y-122576931D01*
X137107898Y-122352903D01*
X136973180Y-122151283D01*
X136801717Y-121979820D01*
X136600097Y-121845102D01*
X136376069Y-121752307D01*
X136138243Y-121705000D01*
X135895757Y-121705000D01*
X135657931Y-121752307D01*
X135433903Y-121845102D01*
X135232283Y-121979820D01*
X135060820Y-122151283D01*
X134926102Y-122352903D01*
X134833307Y-122576931D01*
X134786000Y-122814757D01*
X132006836Y-122814757D01*
X132003814Y-122809000D01*
X130810000Y-122809000D01*
X130810000Y-122829000D01*
X130556000Y-122829000D01*
X130556000Y-122809000D01*
X130536000Y-122809000D01*
X130536000Y-122555000D01*
X130556000Y-122555000D01*
X130556000Y-121361845D01*
X130810000Y-121361845D01*
X130810000Y-122555000D01*
X132003814Y-122555000D01*
X132124481Y-122325109D01*
X132027157Y-122050748D01*
X131878178Y-121800645D01*
X131683269Y-121584412D01*
X131449920Y-121410359D01*
X131187099Y-121285175D01*
X131039890Y-121240524D01*
X130810000Y-121361845D01*
X130556000Y-121361845D01*
X130326110Y-121240524D01*
X130178901Y-121285175D01*
X129916080Y-121410359D01*
X129682731Y-121584412D01*
X129487822Y-121800645D01*
X129338843Y-122050748D01*
X129281228Y-122213168D01*
X129233898Y-122098903D01*
X129099180Y-121897283D01*
X128927717Y-121725820D01*
X128726097Y-121591102D01*
X128502069Y-121498307D01*
X128264243Y-121451000D01*
X128021757Y-121451000D01*
X127783931Y-121498307D01*
X127559903Y-121591102D01*
X127358283Y-121725820D01*
X127186820Y-121897283D01*
X127052102Y-122098903D01*
X126959307Y-122322931D01*
X126912000Y-122560757D01*
X126834000Y-122560757D01*
X126786693Y-122322931D01*
X126693898Y-122098903D01*
X126559180Y-121897283D01*
X126387717Y-121725820D01*
X126186097Y-121591102D01*
X125962069Y-121498307D01*
X125724243Y-121451000D01*
X125493140Y-121451000D01*
X125544928Y-121325972D01*
X125574700Y-121176301D01*
X125574700Y-121023699D01*
X125544928Y-120874028D01*
X125486530Y-120733042D01*
X125401748Y-120606158D01*
X125293842Y-120498252D01*
X125166958Y-120413470D01*
X125025972Y-120355072D01*
X124876301Y-120325300D01*
X124723699Y-120325300D01*
X124574028Y-120355072D01*
X124433042Y-120413470D01*
X124306158Y-120498252D01*
X124198252Y-120606158D01*
X124113470Y-120733042D01*
X124055072Y-120874028D01*
X124025300Y-121023699D01*
X124025300Y-121176301D01*
X124055072Y-121325972D01*
X124113470Y-121466958D01*
X124198252Y-121593842D01*
X124306158Y-121701748D01*
X124433042Y-121786530D01*
X124574028Y-121844928D01*
X124678411Y-121865692D01*
X124646820Y-121897283D01*
X124512102Y-122098903D01*
X124506944Y-122111354D01*
X124493842Y-122098252D01*
X124366958Y-122013470D01*
X124225972Y-121955072D01*
X124076301Y-121925300D01*
X123923699Y-121925300D01*
X123774028Y-121955072D01*
X123633042Y-122013470D01*
X123506158Y-122098252D01*
X123398252Y-122206158D01*
X123313470Y-122333042D01*
X123255072Y-122474028D01*
X123225300Y-122623699D01*
X121969996Y-122623699D01*
X121960693Y-122576931D01*
X121867898Y-122352903D01*
X121733180Y-122151283D01*
X121561717Y-121979820D01*
X121360097Y-121845102D01*
X121136069Y-121752307D01*
X120898243Y-121705000D01*
X120655757Y-121705000D01*
X120417931Y-121752307D01*
X120193903Y-121845102D01*
X119992283Y-121979820D01*
X119820820Y-122151283D01*
X119686102Y-122352903D01*
X119593307Y-122576931D01*
X119546000Y-122814757D01*
X117373000Y-122814757D01*
X117373000Y-120274757D01*
X119546000Y-120274757D01*
X119546000Y-120517243D01*
X119593307Y-120755069D01*
X119686102Y-120979097D01*
X119820820Y-121180717D01*
X119992283Y-121352180D01*
X120193903Y-121486898D01*
X120417931Y-121579693D01*
X120655757Y-121627000D01*
X120898243Y-121627000D01*
X121136069Y-121579693D01*
X121360097Y-121486898D01*
X121561717Y-121352180D01*
X121733180Y-121180717D01*
X121867898Y-120979097D01*
X121960693Y-120755069D01*
X122008000Y-120517243D01*
X122008000Y-120274757D01*
X134786000Y-120274757D01*
X134786000Y-120517243D01*
X134833307Y-120755069D01*
X134926102Y-120979097D01*
X135060820Y-121180717D01*
X135232283Y-121352180D01*
X135433903Y-121486898D01*
X135657931Y-121579693D01*
X135895757Y-121627000D01*
X136138243Y-121627000D01*
X136376069Y-121579693D01*
X136600097Y-121486898D01*
X136801717Y-121352180D01*
X136973180Y-121180717D01*
X137107898Y-120979097D01*
X137200693Y-120755069D01*
X137248000Y-120517243D01*
X137248000Y-120274757D01*
X137200693Y-120036931D01*
X137107898Y-119812903D01*
X136973180Y-119611283D01*
X136801717Y-119439820D01*
X136600097Y-119305102D01*
X136376069Y-119212307D01*
X136138243Y-119165000D01*
X135895757Y-119165000D01*
X135657931Y-119212307D01*
X135433903Y-119305102D01*
X135232283Y-119439820D01*
X135060820Y-119611283D01*
X134926102Y-119812903D01*
X134833307Y-120036931D01*
X134786000Y-120274757D01*
X122008000Y-120274757D01*
X121960693Y-120036931D01*
X121867898Y-119812903D01*
X121733180Y-119611283D01*
X121561717Y-119439820D01*
X121360097Y-119305102D01*
X121136069Y-119212307D01*
X120898243Y-119165000D01*
X120655757Y-119165000D01*
X120417931Y-119212307D01*
X120193903Y-119305102D01*
X119992283Y-119439820D01*
X119820820Y-119611283D01*
X119686102Y-119812903D01*
X119593307Y-120036931D01*
X119546000Y-120274757D01*
X117373000Y-120274757D01*
X117373000Y-117734757D01*
X119546000Y-117734757D01*
X119546000Y-117977243D01*
X119593307Y-118215069D01*
X119686102Y-118439097D01*
X119820820Y-118640717D01*
X119992283Y-118812180D01*
X120193903Y-118946898D01*
X120417931Y-119039693D01*
X120655757Y-119087000D01*
X120898243Y-119087000D01*
X121136069Y-119039693D01*
X121360097Y-118946898D01*
X121561717Y-118812180D01*
X121733180Y-118640717D01*
X121867898Y-118439097D01*
X121960693Y-118215069D01*
X122008000Y-117977243D01*
X122008000Y-117734757D01*
X134786000Y-117734757D01*
X134786000Y-117977243D01*
X134833307Y-118215069D01*
X134926102Y-118439097D01*
X135060820Y-118640717D01*
X135232283Y-118812180D01*
X135433903Y-118946898D01*
X135657931Y-119039693D01*
X135895757Y-119087000D01*
X136138243Y-119087000D01*
X136376069Y-119039693D01*
X136600097Y-118946898D01*
X136801717Y-118812180D01*
X136973180Y-118640717D01*
X137107898Y-118439097D01*
X137200693Y-118215069D01*
X137248000Y-117977243D01*
X137248000Y-117734757D01*
X137200693Y-117496931D01*
X137107898Y-117272903D01*
X136973180Y-117071283D01*
X136801717Y-116899820D01*
X136600097Y-116765102D01*
X136376069Y-116672307D01*
X136138243Y-116625000D01*
X135895757Y-116625000D01*
X135657931Y-116672307D01*
X135433903Y-116765102D01*
X135232283Y-116899820D01*
X135060820Y-117071283D01*
X134926102Y-117272903D01*
X134833307Y-117496931D01*
X134786000Y-117734757D01*
X122008000Y-117734757D01*
X121960693Y-117496931D01*
X121867898Y-117272903D01*
X121733180Y-117071283D01*
X121561717Y-116899820D01*
X121360097Y-116765102D01*
X121136069Y-116672307D01*
X120898243Y-116625000D01*
X120655757Y-116625000D01*
X120417931Y-116672307D01*
X120193903Y-116765102D01*
X119992283Y-116899820D01*
X119820820Y-117071283D01*
X119686102Y-117272903D01*
X119593307Y-117496931D01*
X119546000Y-117734757D01*
X117373000Y-117734757D01*
X117373000Y-115194757D01*
X119546000Y-115194757D01*
X119546000Y-115437243D01*
X119593307Y-115675069D01*
X119686102Y-115899097D01*
X119820820Y-116100717D01*
X119992283Y-116272180D01*
X120193903Y-116406898D01*
X120417931Y-116499693D01*
X120655757Y-116547000D01*
X120898243Y-116547000D01*
X121136069Y-116499693D01*
X121360097Y-116406898D01*
X121561717Y-116272180D01*
X121733180Y-116100717D01*
X121867898Y-115899097D01*
X121960693Y-115675069D01*
X121996770Y-115493699D01*
X129273290Y-115493699D01*
X129273290Y-115646301D01*
X129303062Y-115795972D01*
X129361460Y-115936958D01*
X129446242Y-116063842D01*
X129554148Y-116171748D01*
X129681032Y-116256530D01*
X129822018Y-116314928D01*
X129971689Y-116344700D01*
X130124291Y-116344700D01*
X130273962Y-116314928D01*
X130414948Y-116256530D01*
X130541832Y-116171748D01*
X130649738Y-116063842D01*
X130734520Y-115936958D01*
X130792918Y-115795972D01*
X130822690Y-115646301D01*
X130822690Y-115493699D01*
X130792918Y-115344028D01*
X130734520Y-115203042D01*
X130728985Y-115194757D01*
X134786000Y-115194757D01*
X134786000Y-115437243D01*
X134833307Y-115675069D01*
X134926102Y-115899097D01*
X135060820Y-116100717D01*
X135232283Y-116272180D01*
X135433903Y-116406898D01*
X135657931Y-116499693D01*
X135895757Y-116547000D01*
X136138243Y-116547000D01*
X136376069Y-116499693D01*
X136600097Y-116406898D01*
X136801717Y-116272180D01*
X136973180Y-116100717D01*
X137107898Y-115899097D01*
X137200693Y-115675069D01*
X137248000Y-115437243D01*
X137248000Y-115194757D01*
X137200693Y-114956931D01*
X137107898Y-114732903D01*
X136973180Y-114531283D01*
X136801717Y-114359820D01*
X136600097Y-114225102D01*
X136376069Y-114132307D01*
X136138243Y-114085000D01*
X135895757Y-114085000D01*
X135657931Y-114132307D01*
X135433903Y-114225102D01*
X135232283Y-114359820D01*
X135060820Y-114531283D01*
X134926102Y-114732903D01*
X134833307Y-114956931D01*
X134786000Y-115194757D01*
X130728985Y-115194757D01*
X130649738Y-115076158D01*
X130541832Y-114968252D01*
X130414948Y-114883470D01*
X130273962Y-114825072D01*
X130124291Y-114795300D01*
X129971689Y-114795300D01*
X129822018Y-114825072D01*
X129681032Y-114883470D01*
X129554148Y-114968252D01*
X129446242Y-115076158D01*
X129361460Y-115203042D01*
X129303062Y-115344028D01*
X129273290Y-115493699D01*
X121996770Y-115493699D01*
X122008000Y-115437243D01*
X122008000Y-115194757D01*
X121960693Y-114956931D01*
X121867898Y-114732903D01*
X121733180Y-114531283D01*
X121561717Y-114359820D01*
X121360097Y-114225102D01*
X121136069Y-114132307D01*
X120898243Y-114085000D01*
X120655757Y-114085000D01*
X120417931Y-114132307D01*
X120193903Y-114225102D01*
X119992283Y-114359820D01*
X119820820Y-114531283D01*
X119686102Y-114732903D01*
X119593307Y-114956931D01*
X119546000Y-115194757D01*
X117373000Y-115194757D01*
X117373000Y-111926000D01*
X119544157Y-111926000D01*
X119544157Y-113626000D01*
X119551513Y-113700689D01*
X119573299Y-113772508D01*
X119608678Y-113838696D01*
X119656289Y-113896711D01*
X119714304Y-113944322D01*
X119780492Y-113979701D01*
X119852311Y-114001487D01*
X119927000Y-114008843D01*
X121627000Y-114008843D01*
X121701689Y-114001487D01*
X121773508Y-113979701D01*
X121839696Y-113944322D01*
X121897711Y-113896711D01*
X121945322Y-113838696D01*
X121980701Y-113772508D01*
X122002487Y-113700689D01*
X122009843Y-113626000D01*
X122009843Y-113495993D01*
X122944000Y-113495993D01*
X122944000Y-113704007D01*
X122984581Y-113908024D01*
X123064185Y-114100204D01*
X123179751Y-114273161D01*
X123326839Y-114420249D01*
X123499796Y-114535815D01*
X123691976Y-114615419D01*
X123895993Y-114656000D01*
X124104007Y-114656000D01*
X124308024Y-114615419D01*
X124500204Y-114535815D01*
X124673161Y-114420249D01*
X124820249Y-114273161D01*
X124935815Y-114100204D01*
X125000000Y-113945249D01*
X125064185Y-114100204D01*
X125179751Y-114273161D01*
X125326839Y-114420249D01*
X125499796Y-114535815D01*
X125691976Y-114615419D01*
X125895993Y-114656000D01*
X126104007Y-114656000D01*
X126308024Y-114615419D01*
X126500204Y-114535815D01*
X126673161Y-114420249D01*
X126820249Y-114273161D01*
X126935815Y-114100204D01*
X127000000Y-113945249D01*
X127064185Y-114100204D01*
X127179751Y-114273161D01*
X127326839Y-114420249D01*
X127499796Y-114535815D01*
X127691976Y-114615419D01*
X127895993Y-114656000D01*
X128104007Y-114656000D01*
X128308024Y-114615419D01*
X128500204Y-114535815D01*
X128673161Y-114420249D01*
X128820249Y-114273161D01*
X128935815Y-114100204D01*
X128942157Y-114084893D01*
X128942157Y-114275000D01*
X128949513Y-114349689D01*
X128971299Y-114421508D01*
X129006678Y-114487696D01*
X129054289Y-114545711D01*
X129112304Y-114593322D01*
X129178492Y-114628701D01*
X129250311Y-114650487D01*
X129325000Y-114657843D01*
X130675000Y-114657843D01*
X130749689Y-114650487D01*
X130821508Y-114628701D01*
X130887696Y-114593322D01*
X130945711Y-114545711D01*
X130993322Y-114487696D01*
X131028701Y-114421508D01*
X131050487Y-114349689D01*
X131057843Y-114275000D01*
X131057843Y-112925000D01*
X131050487Y-112850311D01*
X131028701Y-112778492D01*
X130993322Y-112712304D01*
X130946096Y-112654757D01*
X134786000Y-112654757D01*
X134786000Y-112897243D01*
X134833307Y-113135069D01*
X134926102Y-113359097D01*
X135060820Y-113560717D01*
X135232283Y-113732180D01*
X135433903Y-113866898D01*
X135657931Y-113959693D01*
X135895757Y-114007000D01*
X136138243Y-114007000D01*
X136376069Y-113959693D01*
X136600097Y-113866898D01*
X136801717Y-113732180D01*
X136973180Y-113560717D01*
X137107898Y-113359097D01*
X137200693Y-113135069D01*
X137248000Y-112897243D01*
X137248000Y-112654757D01*
X137200693Y-112416931D01*
X137107898Y-112192903D01*
X136973180Y-111991283D01*
X136801717Y-111819820D01*
X136600097Y-111685102D01*
X136376069Y-111592307D01*
X136138243Y-111545000D01*
X135895757Y-111545000D01*
X135657931Y-111592307D01*
X135433903Y-111685102D01*
X135232283Y-111819820D01*
X135060820Y-111991283D01*
X134926102Y-112192903D01*
X134833307Y-112416931D01*
X134786000Y-112654757D01*
X130946096Y-112654757D01*
X130945711Y-112654289D01*
X130887696Y-112606678D01*
X130821508Y-112571299D01*
X130749689Y-112549513D01*
X130675000Y-112542157D01*
X129325000Y-112542157D01*
X129250311Y-112549513D01*
X129178492Y-112571299D01*
X129112304Y-112606678D01*
X129054289Y-112654289D01*
X129006678Y-112712304D01*
X128971299Y-112778492D01*
X128949513Y-112850311D01*
X128942157Y-112925000D01*
X128942157Y-113115107D01*
X128935815Y-113099796D01*
X128820249Y-112926839D01*
X128673161Y-112779751D01*
X128500204Y-112664185D01*
X128308024Y-112584581D01*
X128104007Y-112544000D01*
X127895993Y-112544000D01*
X127691976Y-112584581D01*
X127499796Y-112664185D01*
X127326839Y-112779751D01*
X127179751Y-112926839D01*
X127064185Y-113099796D01*
X127000000Y-113254751D01*
X126935815Y-113099796D01*
X126820249Y-112926839D01*
X126673161Y-112779751D01*
X126500204Y-112664185D01*
X126308024Y-112584581D01*
X126104007Y-112544000D01*
X125895993Y-112544000D01*
X125691976Y-112584581D01*
X125499796Y-112664185D01*
X125326839Y-112779751D01*
X125179751Y-112926839D01*
X125064185Y-113099796D01*
X125000000Y-113254751D01*
X124935815Y-113099796D01*
X124820249Y-112926839D01*
X124673161Y-112779751D01*
X124500204Y-112664185D01*
X124308024Y-112584581D01*
X124104007Y-112544000D01*
X123895993Y-112544000D01*
X123691976Y-112584581D01*
X123499796Y-112664185D01*
X123326839Y-112779751D01*
X123179751Y-112926839D01*
X123064185Y-113099796D01*
X122984581Y-113291976D01*
X122944000Y-113495993D01*
X122009843Y-113495993D01*
X122009843Y-112211152D01*
X122044819Y-112211152D01*
X122194490Y-112181380D01*
X122335476Y-112122982D01*
X122462360Y-112038200D01*
X122570266Y-111930294D01*
X122655048Y-111803410D01*
X122713446Y-111662424D01*
X122743218Y-111512753D01*
X122743218Y-111360151D01*
X122713446Y-111210480D01*
X122655048Y-111069494D01*
X122570266Y-110942610D01*
X122462360Y-110834704D01*
X122335476Y-110749922D01*
X122194490Y-110691524D01*
X122044819Y-110661752D01*
X121906599Y-110661752D01*
X121936530Y-110616958D01*
X121994928Y-110475972D01*
X122024700Y-110326301D01*
X122024700Y-110173699D01*
X121994928Y-110024028D01*
X121936530Y-109883042D01*
X121851748Y-109756158D01*
X121743842Y-109648252D01*
X121616958Y-109563470D01*
X121475972Y-109505072D01*
X121326301Y-109475300D01*
X121173699Y-109475300D01*
X121024028Y-109505072D01*
X120883042Y-109563470D01*
X120756158Y-109648252D01*
X120648252Y-109756158D01*
X120563470Y-109883042D01*
X120505072Y-110024028D01*
X120475300Y-110173699D01*
X120475300Y-110326301D01*
X120505072Y-110475972D01*
X120563470Y-110616958D01*
X120648252Y-110743842D01*
X120756158Y-110851748D01*
X120883042Y-110936530D01*
X121024028Y-110994928D01*
X121173699Y-111024700D01*
X121311919Y-111024700D01*
X121281988Y-111069494D01*
X121223590Y-111210480D01*
X121193818Y-111360151D01*
X121193818Y-111512753D01*
X121199866Y-111543157D01*
X119927000Y-111543157D01*
X119852311Y-111550513D01*
X119780492Y-111572299D01*
X119714304Y-111607678D01*
X119656289Y-111655289D01*
X119608678Y-111713304D01*
X119573299Y-111779492D01*
X119551513Y-111851311D01*
X119544157Y-111926000D01*
X117373000Y-111926000D01*
X117373000Y-108923699D01*
X122725300Y-108923699D01*
X122725300Y-109076301D01*
X122755072Y-109225972D01*
X122813470Y-109366958D01*
X122898252Y-109493842D01*
X123006158Y-109601748D01*
X123133042Y-109686530D01*
X123274028Y-109744928D01*
X123423699Y-109774700D01*
X123576301Y-109774700D01*
X123725972Y-109744928D01*
X123866958Y-109686530D01*
X123993842Y-109601748D01*
X124038612Y-109556978D01*
X124063456Y-109616958D01*
X124148238Y-109743842D01*
X124256144Y-109851748D01*
X124383028Y-109936530D01*
X124524014Y-109994928D01*
X124673685Y-110024700D01*
X124826287Y-110024700D01*
X124975958Y-109994928D01*
X125116944Y-109936530D01*
X125243828Y-109851748D01*
X125288618Y-109806958D01*
X125313470Y-109866958D01*
X125398252Y-109993842D01*
X125506158Y-110101748D01*
X125633042Y-110186530D01*
X125774028Y-110244928D01*
X125923699Y-110274700D01*
X126076301Y-110274700D01*
X126225972Y-110244928D01*
X126366958Y-110186530D01*
X126493842Y-110101748D01*
X126601748Y-109993842D01*
X126686530Y-109866958D01*
X126744928Y-109725972D01*
X126774700Y-109576301D01*
X126774700Y-109423699D01*
X126744928Y-109274028D01*
X126686530Y-109133042D01*
X126601748Y-109006158D01*
X126493842Y-108898252D01*
X126366958Y-108813470D01*
X126225972Y-108755072D01*
X126076301Y-108725300D01*
X125923699Y-108725300D01*
X125774028Y-108755072D01*
X125633042Y-108813470D01*
X125506158Y-108898252D01*
X125461368Y-108943042D01*
X125436516Y-108883042D01*
X125351734Y-108756158D01*
X125243828Y-108648252D01*
X125116944Y-108563470D01*
X124975958Y-108505072D01*
X124826287Y-108475300D01*
X124673685Y-108475300D01*
X124524014Y-108505072D01*
X124383028Y-108563470D01*
X124256144Y-108648252D01*
X124211374Y-108693022D01*
X124186530Y-108633042D01*
X124101748Y-108506158D01*
X123993842Y-108398252D01*
X123866958Y-108313470D01*
X123725972Y-108255072D01*
X123576301Y-108225300D01*
X123423699Y-108225300D01*
X123274028Y-108255072D01*
X123133042Y-108313470D01*
X123006158Y-108398252D01*
X122898252Y-108506158D01*
X122813470Y-108633042D01*
X122755072Y-108774028D01*
X122725300Y-108923699D01*
X117373000Y-108923699D01*
X117373000Y-107673699D01*
X125725300Y-107673699D01*
X125725300Y-107826301D01*
X125755072Y-107975972D01*
X125813470Y-108116958D01*
X125898252Y-108243842D01*
X126006158Y-108351748D01*
X126133042Y-108436530D01*
X126274028Y-108494928D01*
X126423699Y-108524700D01*
X126576301Y-108524700D01*
X126725972Y-108494928D01*
X126866958Y-108436530D01*
X126993842Y-108351748D01*
X127101748Y-108243842D01*
X127186530Y-108116958D01*
X127190073Y-108108402D01*
X128022597Y-108108402D01*
X128022597Y-108261004D01*
X128052369Y-108410675D01*
X128110767Y-108551661D01*
X128195549Y-108678545D01*
X128303455Y-108786451D01*
X128430339Y-108871233D01*
X128571325Y-108929631D01*
X128720996Y-108959403D01*
X128873598Y-108959403D01*
X129023269Y-108929631D01*
X129164255Y-108871233D01*
X129291139Y-108786451D01*
X129399045Y-108678545D01*
X129483827Y-108551661D01*
X129527300Y-108446707D01*
X129527300Y-108534275D01*
X129557072Y-108683946D01*
X129615470Y-108824932D01*
X129700252Y-108951816D01*
X129808158Y-109059722D01*
X129935042Y-109144504D01*
X130076028Y-109202902D01*
X130225699Y-109232674D01*
X130378301Y-109232674D01*
X130527972Y-109202902D01*
X130668958Y-109144504D01*
X130795842Y-109059722D01*
X130903748Y-108951816D01*
X130988530Y-108824932D01*
X131046928Y-108683946D01*
X131076700Y-108534275D01*
X131076700Y-108381673D01*
X131046928Y-108232002D01*
X130988530Y-108091016D01*
X130903748Y-107964132D01*
X130795842Y-107856226D01*
X130668958Y-107771444D01*
X130527972Y-107713046D01*
X130378301Y-107683274D01*
X130225699Y-107683274D01*
X130076028Y-107713046D01*
X129935042Y-107771444D01*
X129808158Y-107856226D01*
X129700252Y-107964132D01*
X129615470Y-108091016D01*
X129571997Y-108195970D01*
X129571997Y-108108402D01*
X129542225Y-107958731D01*
X129483827Y-107817745D01*
X129399045Y-107690861D01*
X129291139Y-107582955D01*
X129164255Y-107498173D01*
X129023269Y-107439775D01*
X128873598Y-107410003D01*
X128720996Y-107410003D01*
X128571325Y-107439775D01*
X128430339Y-107498173D01*
X128303455Y-107582955D01*
X128195549Y-107690861D01*
X128110767Y-107817745D01*
X128052369Y-107958731D01*
X128022597Y-108108402D01*
X127190073Y-108108402D01*
X127244928Y-107975972D01*
X127274700Y-107826301D01*
X127274700Y-107673699D01*
X127244928Y-107524028D01*
X127186530Y-107383042D01*
X127101748Y-107256158D01*
X126993842Y-107148252D01*
X126866958Y-107063470D01*
X126725972Y-107005072D01*
X126576301Y-106975300D01*
X126423699Y-106975300D01*
X126274028Y-107005072D01*
X126133042Y-107063470D01*
X126006158Y-107148252D01*
X125898252Y-107256158D01*
X125813470Y-107383042D01*
X125755072Y-107524028D01*
X125725300Y-107673699D01*
X117373000Y-107673699D01*
X117373000Y-106423713D01*
X124725300Y-106423713D01*
X124725300Y-106576315D01*
X124755072Y-106725986D01*
X124813470Y-106866972D01*
X124898252Y-106993856D01*
X125006158Y-107101762D01*
X125133042Y-107186544D01*
X125274028Y-107244942D01*
X125423699Y-107274714D01*
X125576301Y-107274714D01*
X125725972Y-107244942D01*
X125866958Y-107186544D01*
X125993842Y-107101762D01*
X126101748Y-106993856D01*
X126186530Y-106866972D01*
X126244928Y-106725986D01*
X126274700Y-106576315D01*
X126274700Y-106423713D01*
X126244928Y-106274042D01*
X126186530Y-106133056D01*
X126101748Y-106006172D01*
X125993842Y-105898266D01*
X125866958Y-105813484D01*
X125725972Y-105755086D01*
X125576301Y-105725314D01*
X125423699Y-105725314D01*
X125274028Y-105755086D01*
X125133042Y-105813484D01*
X125006158Y-105898266D01*
X124898252Y-106006172D01*
X124813470Y-106133056D01*
X124755072Y-106274042D01*
X124725300Y-106423713D01*
X117373000Y-106423713D01*
X117373000Y-105173699D01*
X125830221Y-105173699D01*
X125830221Y-105326301D01*
X125859993Y-105475972D01*
X125918391Y-105616958D01*
X126003173Y-105743842D01*
X126111079Y-105851748D01*
X126237963Y-105936530D01*
X126378949Y-105994928D01*
X126528620Y-106024700D01*
X126681222Y-106024700D01*
X126830893Y-105994928D01*
X126971879Y-105936530D01*
X127098763Y-105851748D01*
X127206669Y-105743842D01*
X127291451Y-105616958D01*
X127349849Y-105475972D01*
X127379621Y-105326301D01*
X127379621Y-105173699D01*
X127349849Y-105024028D01*
X127291451Y-104883042D01*
X127206669Y-104756158D01*
X127098763Y-104648252D01*
X126971879Y-104563470D01*
X126830893Y-104505072D01*
X126681222Y-104475300D01*
X126528620Y-104475300D01*
X126378949Y-104505072D01*
X126237963Y-104563470D01*
X126111079Y-104648252D01*
X126003173Y-104756158D01*
X125918391Y-104883042D01*
X125859993Y-105024028D01*
X125830221Y-105173699D01*
X117373000Y-105173699D01*
X117373000Y-103423699D01*
X119975300Y-103423699D01*
X119975300Y-103576301D01*
X120005072Y-103725972D01*
X120063470Y-103866958D01*
X120148252Y-103993842D01*
X120256158Y-104101748D01*
X120383042Y-104186530D01*
X120524028Y-104244928D01*
X120673699Y-104274700D01*
X120826301Y-104274700D01*
X120975972Y-104244928D01*
X121116958Y-104186530D01*
X121136160Y-104173699D01*
X121475300Y-104173699D01*
X121475300Y-104326301D01*
X121505072Y-104475972D01*
X121563470Y-104616958D01*
X121648252Y-104743842D01*
X121756158Y-104851748D01*
X121883042Y-104936530D01*
X122024028Y-104994928D01*
X122173699Y-105024700D01*
X122326301Y-105024700D01*
X122475972Y-104994928D01*
X122616958Y-104936530D01*
X122743842Y-104851748D01*
X122851748Y-104743842D01*
X122936530Y-104616958D01*
X122994928Y-104475972D01*
X123024700Y-104326301D01*
X123024700Y-104173699D01*
X122994928Y-104024028D01*
X122936530Y-103883042D01*
X122851748Y-103756158D01*
X122743842Y-103648252D01*
X122616958Y-103563470D01*
X122475972Y-103505072D01*
X122326301Y-103475300D01*
X122173699Y-103475300D01*
X122024028Y-103505072D01*
X121883042Y-103563470D01*
X121756158Y-103648252D01*
X121648252Y-103756158D01*
X121563470Y-103883042D01*
X121505072Y-104024028D01*
X121475300Y-104173699D01*
X121136160Y-104173699D01*
X121243842Y-104101748D01*
X121351748Y-103993842D01*
X121436530Y-103866958D01*
X121494928Y-103725972D01*
X121524700Y-103576301D01*
X121524700Y-103423699D01*
X121494928Y-103274028D01*
X121436530Y-103133042D01*
X121351748Y-103006158D01*
X121243842Y-102898252D01*
X121116958Y-102813470D01*
X120975972Y-102755072D01*
X120826301Y-102725300D01*
X120673699Y-102725300D01*
X120524028Y-102755072D01*
X120383042Y-102813470D01*
X120256158Y-102898252D01*
X120148252Y-103006158D01*
X120063470Y-103133042D01*
X120005072Y-103274028D01*
X119975300Y-103423699D01*
X117373000Y-103423699D01*
X117373000Y-102539699D01*
X122669300Y-102539699D01*
X122669300Y-102692301D01*
X122699072Y-102841972D01*
X122757470Y-102982958D01*
X122842252Y-103109842D01*
X122950158Y-103217748D01*
X123077042Y-103302530D01*
X123218028Y-103360928D01*
X123367699Y-103390700D01*
X123520301Y-103390700D01*
X123669972Y-103360928D01*
X123810958Y-103302530D01*
X123937842Y-103217748D01*
X124045748Y-103109842D01*
X124130530Y-102982958D01*
X124188928Y-102841972D01*
X124218700Y-102692301D01*
X124218700Y-102539699D01*
X124188928Y-102390028D01*
X124130530Y-102249042D01*
X124045748Y-102122158D01*
X123937842Y-102014252D01*
X123810958Y-101929470D01*
X123669972Y-101871072D01*
X123520301Y-101841300D01*
X123367699Y-101841300D01*
X123218028Y-101871072D01*
X123077042Y-101929470D01*
X122950158Y-102014252D01*
X122842252Y-102122158D01*
X122757470Y-102249042D01*
X122699072Y-102390028D01*
X122669300Y-102539699D01*
X117373000Y-102539699D01*
X117373000Y-99226000D01*
X119544157Y-99226000D01*
X119544157Y-100926000D01*
X119551513Y-101000689D01*
X119573299Y-101072508D01*
X119608678Y-101138696D01*
X119656289Y-101196711D01*
X119714304Y-101244322D01*
X119780492Y-101279701D01*
X119852311Y-101301487D01*
X119927000Y-101308843D01*
X121627000Y-101308843D01*
X121701689Y-101301487D01*
X121773508Y-101279701D01*
X121839696Y-101244322D01*
X121897711Y-101196711D01*
X121945322Y-101138696D01*
X121980701Y-101072508D01*
X122002487Y-101000689D01*
X122009843Y-100926000D01*
X122009843Y-100761699D01*
X132067300Y-100761699D01*
X132067300Y-100914301D01*
X132097072Y-101063972D01*
X132155470Y-101204958D01*
X132240252Y-101331842D01*
X132348158Y-101439748D01*
X132475042Y-101524530D01*
X132616028Y-101582928D01*
X132765699Y-101612700D01*
X132918301Y-101612700D01*
X133067972Y-101582928D01*
X133208958Y-101524530D01*
X133335842Y-101439748D01*
X133443748Y-101331842D01*
X133528530Y-101204958D01*
X133586928Y-101063972D01*
X133616700Y-100914301D01*
X133616700Y-100761699D01*
X133586928Y-100612028D01*
X133528530Y-100471042D01*
X133443748Y-100344158D01*
X133335842Y-100236252D01*
X133208958Y-100151470D01*
X133067972Y-100093072D01*
X132918301Y-100063300D01*
X132765699Y-100063300D01*
X132616028Y-100093072D01*
X132475042Y-100151470D01*
X132348158Y-100236252D01*
X132240252Y-100344158D01*
X132155470Y-100471042D01*
X132097072Y-100612028D01*
X132067300Y-100761699D01*
X122009843Y-100761699D01*
X122009843Y-99954757D01*
X134786000Y-99954757D01*
X134786000Y-100197243D01*
X134833307Y-100435069D01*
X134926102Y-100659097D01*
X135060820Y-100860717D01*
X135232283Y-101032180D01*
X135433903Y-101166898D01*
X135657931Y-101259693D01*
X135895757Y-101307000D01*
X136138243Y-101307000D01*
X136376069Y-101259693D01*
X136600097Y-101166898D01*
X136801717Y-101032180D01*
X136973180Y-100860717D01*
X137107898Y-100659097D01*
X137200693Y-100435069D01*
X137248000Y-100197243D01*
X137248000Y-99954757D01*
X137200693Y-99716931D01*
X137107898Y-99492903D01*
X136973180Y-99291283D01*
X136801717Y-99119820D01*
X136600097Y-98985102D01*
X136376069Y-98892307D01*
X136138243Y-98845000D01*
X135895757Y-98845000D01*
X135657931Y-98892307D01*
X135433903Y-98985102D01*
X135232283Y-99119820D01*
X135060820Y-99291283D01*
X134926102Y-99492903D01*
X134833307Y-99716931D01*
X134786000Y-99954757D01*
X122009843Y-99954757D01*
X122009843Y-99226000D01*
X122002487Y-99151311D01*
X121980701Y-99079492D01*
X121945322Y-99013304D01*
X121897711Y-98955289D01*
X121839696Y-98907678D01*
X121773508Y-98872299D01*
X121701689Y-98850513D01*
X121627000Y-98843157D01*
X119927000Y-98843157D01*
X119852311Y-98850513D01*
X119780492Y-98872299D01*
X119714304Y-98907678D01*
X119656289Y-98955289D01*
X119608678Y-99013304D01*
X119573299Y-99079492D01*
X119551513Y-99151311D01*
X119544157Y-99226000D01*
X117373000Y-99226000D01*
X117373000Y-97414757D01*
X119546000Y-97414757D01*
X119546000Y-97657243D01*
X119593307Y-97895069D01*
X119686102Y-98119097D01*
X119820820Y-98320717D01*
X119992283Y-98492180D01*
X120193903Y-98626898D01*
X120417931Y-98719693D01*
X120655757Y-98767000D01*
X120898243Y-98767000D01*
X121136069Y-98719693D01*
X121360097Y-98626898D01*
X121561717Y-98492180D01*
X121733180Y-98320717D01*
X121867898Y-98119097D01*
X121930608Y-97967699D01*
X125209300Y-97967699D01*
X125209300Y-98120301D01*
X125239072Y-98269972D01*
X125297470Y-98410958D01*
X125382252Y-98537842D01*
X125490158Y-98645748D01*
X125617042Y-98730530D01*
X125758028Y-98788928D01*
X125907699Y-98818700D01*
X126060301Y-98818700D01*
X126209972Y-98788928D01*
X126350958Y-98730530D01*
X126477842Y-98645748D01*
X126585748Y-98537842D01*
X126670530Y-98410958D01*
X126728928Y-98269972D01*
X126758700Y-98120301D01*
X126758700Y-97967699D01*
X126728928Y-97818028D01*
X126670530Y-97677042D01*
X126585748Y-97550158D01*
X126477842Y-97442252D01*
X126436694Y-97414757D01*
X134786000Y-97414757D01*
X134786000Y-97657243D01*
X134833307Y-97895069D01*
X134926102Y-98119097D01*
X135060820Y-98320717D01*
X135232283Y-98492180D01*
X135433903Y-98626898D01*
X135657931Y-98719693D01*
X135895757Y-98767000D01*
X136138243Y-98767000D01*
X136376069Y-98719693D01*
X136600097Y-98626898D01*
X136801717Y-98492180D01*
X136973180Y-98320717D01*
X137107898Y-98119097D01*
X137200693Y-97895069D01*
X137248000Y-97657243D01*
X137248000Y-97414757D01*
X137200693Y-97176931D01*
X137107898Y-96952903D01*
X136973180Y-96751283D01*
X136801717Y-96579820D01*
X136600097Y-96445102D01*
X136376069Y-96352307D01*
X136138243Y-96305000D01*
X135895757Y-96305000D01*
X135657931Y-96352307D01*
X135433903Y-96445102D01*
X135232283Y-96579820D01*
X135060820Y-96751283D01*
X134926102Y-96952903D01*
X134833307Y-97176931D01*
X134786000Y-97414757D01*
X126436694Y-97414757D01*
X126350958Y-97357470D01*
X126209972Y-97299072D01*
X126060301Y-97269300D01*
X125907699Y-97269300D01*
X125758028Y-97299072D01*
X125617042Y-97357470D01*
X125490158Y-97442252D01*
X125382252Y-97550158D01*
X125297470Y-97677042D01*
X125239072Y-97818028D01*
X125209300Y-97967699D01*
X121930608Y-97967699D01*
X121960693Y-97895069D01*
X122008000Y-97657243D01*
X122008000Y-97414757D01*
X121960693Y-97176931D01*
X121867898Y-96952903D01*
X121733180Y-96751283D01*
X121561717Y-96579820D01*
X121360097Y-96445102D01*
X121136069Y-96352307D01*
X120898243Y-96305000D01*
X120655757Y-96305000D01*
X120417931Y-96352307D01*
X120193903Y-96445102D01*
X119992283Y-96579820D01*
X119820820Y-96751283D01*
X119686102Y-96952903D01*
X119593307Y-97176931D01*
X119546000Y-97414757D01*
X117373000Y-97414757D01*
X117373000Y-94874757D01*
X119546000Y-94874757D01*
X119546000Y-95117243D01*
X119593307Y-95355069D01*
X119686102Y-95579097D01*
X119820820Y-95780717D01*
X119992283Y-95952180D01*
X120193903Y-96086898D01*
X120417931Y-96179693D01*
X120655757Y-96227000D01*
X120898243Y-96227000D01*
X121136069Y-96179693D01*
X121360097Y-96086898D01*
X121561717Y-95952180D01*
X121733180Y-95780717D01*
X121867898Y-95579097D01*
X121960693Y-95355069D01*
X122008000Y-95117243D01*
X122008000Y-94874757D01*
X134786000Y-94874757D01*
X134786000Y-95117243D01*
X134833307Y-95355069D01*
X134926102Y-95579097D01*
X135060820Y-95780717D01*
X135232283Y-95952180D01*
X135433903Y-96086898D01*
X135657931Y-96179693D01*
X135895757Y-96227000D01*
X136138243Y-96227000D01*
X136376069Y-96179693D01*
X136600097Y-96086898D01*
X136801717Y-95952180D01*
X136973180Y-95780717D01*
X137107898Y-95579097D01*
X137200693Y-95355069D01*
X137248000Y-95117243D01*
X137248000Y-94874757D01*
X137200693Y-94636931D01*
X137107898Y-94412903D01*
X136973180Y-94211283D01*
X136801717Y-94039820D01*
X136600097Y-93905102D01*
X136376069Y-93812307D01*
X136138243Y-93765000D01*
X135895757Y-93765000D01*
X135657931Y-93812307D01*
X135433903Y-93905102D01*
X135232283Y-94039820D01*
X135060820Y-94211283D01*
X134926102Y-94412903D01*
X134833307Y-94636931D01*
X134786000Y-94874757D01*
X122008000Y-94874757D01*
X121960693Y-94636931D01*
X121867898Y-94412903D01*
X121733180Y-94211283D01*
X121561717Y-94039820D01*
X121360097Y-93905102D01*
X121136069Y-93812307D01*
X120898243Y-93765000D01*
X120655757Y-93765000D01*
X120417931Y-93812307D01*
X120193903Y-93905102D01*
X119992283Y-94039820D01*
X119820820Y-94211283D01*
X119686102Y-94412903D01*
X119593307Y-94636931D01*
X119546000Y-94874757D01*
X117373000Y-94874757D01*
X117373000Y-92334757D01*
X119546000Y-92334757D01*
X119546000Y-92577243D01*
X119593307Y-92815069D01*
X119686102Y-93039097D01*
X119820820Y-93240717D01*
X119992283Y-93412180D01*
X120193903Y-93546898D01*
X120417931Y-93639693D01*
X120655757Y-93687000D01*
X120898243Y-93687000D01*
X121136069Y-93639693D01*
X121360097Y-93546898D01*
X121561717Y-93412180D01*
X121733180Y-93240717D01*
X121867898Y-93039097D01*
X121930608Y-92887699D01*
X125717300Y-92887699D01*
X125717300Y-93040301D01*
X125747072Y-93189972D01*
X125805470Y-93330958D01*
X125890252Y-93457842D01*
X125998158Y-93565748D01*
X126125042Y-93650530D01*
X126266028Y-93708928D01*
X126415699Y-93738700D01*
X126568301Y-93738700D01*
X126717972Y-93708928D01*
X126858958Y-93650530D01*
X126985842Y-93565748D01*
X127093748Y-93457842D01*
X127178530Y-93330958D01*
X127236928Y-93189972D01*
X127254000Y-93104147D01*
X127271072Y-93189972D01*
X127329470Y-93330958D01*
X127414252Y-93457842D01*
X127522158Y-93565748D01*
X127649042Y-93650530D01*
X127790028Y-93708928D01*
X127939699Y-93738700D01*
X128092301Y-93738700D01*
X128241972Y-93708928D01*
X128382958Y-93650530D01*
X128509842Y-93565748D01*
X128617748Y-93457842D01*
X128702530Y-93330958D01*
X128760928Y-93189972D01*
X128790700Y-93040301D01*
X128790700Y-92887699D01*
X128760928Y-92738028D01*
X128702530Y-92597042D01*
X128617748Y-92470158D01*
X128509842Y-92362252D01*
X128468694Y-92334757D01*
X134786000Y-92334757D01*
X134786000Y-92577243D01*
X134833307Y-92815069D01*
X134926102Y-93039097D01*
X135060820Y-93240717D01*
X135232283Y-93412180D01*
X135433903Y-93546898D01*
X135657931Y-93639693D01*
X135895757Y-93687000D01*
X136138243Y-93687000D01*
X136376069Y-93639693D01*
X136600097Y-93546898D01*
X136801717Y-93412180D01*
X136973180Y-93240717D01*
X137107898Y-93039097D01*
X137200693Y-92815069D01*
X137248000Y-92577243D01*
X137248000Y-92334757D01*
X137200693Y-92096931D01*
X137107898Y-91872903D01*
X136973180Y-91671283D01*
X136801717Y-91499820D01*
X136600097Y-91365102D01*
X136376069Y-91272307D01*
X136138243Y-91225000D01*
X135895757Y-91225000D01*
X135657931Y-91272307D01*
X135433903Y-91365102D01*
X135232283Y-91499820D01*
X135060820Y-91671283D01*
X134926102Y-91872903D01*
X134833307Y-92096931D01*
X134786000Y-92334757D01*
X128468694Y-92334757D01*
X128382958Y-92277470D01*
X128241972Y-92219072D01*
X128092301Y-92189300D01*
X127939699Y-92189300D01*
X127790028Y-92219072D01*
X127649042Y-92277470D01*
X127522158Y-92362252D01*
X127414252Y-92470158D01*
X127329470Y-92597042D01*
X127271072Y-92738028D01*
X127254000Y-92823853D01*
X127236928Y-92738028D01*
X127178530Y-92597042D01*
X127093748Y-92470158D01*
X126985842Y-92362252D01*
X126858958Y-92277470D01*
X126717972Y-92219072D01*
X126568301Y-92189300D01*
X126415699Y-92189300D01*
X126266028Y-92219072D01*
X126125042Y-92277470D01*
X125998158Y-92362252D01*
X125890252Y-92470158D01*
X125805470Y-92597042D01*
X125747072Y-92738028D01*
X125717300Y-92887699D01*
X121930608Y-92887699D01*
X121960693Y-92815069D01*
X122008000Y-92577243D01*
X122008000Y-92334757D01*
X121960693Y-92096931D01*
X121867898Y-91872903D01*
X121733180Y-91671283D01*
X121561717Y-91499820D01*
X121360097Y-91365102D01*
X121136069Y-91272307D01*
X120898243Y-91225000D01*
X120655757Y-91225000D01*
X120417931Y-91272307D01*
X120193903Y-91365102D01*
X119992283Y-91499820D01*
X119820820Y-91671283D01*
X119686102Y-91872903D01*
X119593307Y-92096931D01*
X119546000Y-92334757D01*
X117373000Y-92334757D01*
X117373000Y-89794757D01*
X119546000Y-89794757D01*
X119546000Y-90037243D01*
X119593307Y-90275069D01*
X119686102Y-90499097D01*
X119820820Y-90700717D01*
X119992283Y-90872180D01*
X120193903Y-91006898D01*
X120417931Y-91099693D01*
X120655757Y-91147000D01*
X120898243Y-91147000D01*
X121136069Y-91099693D01*
X121360097Y-91006898D01*
X121561717Y-90872180D01*
X121733180Y-90700717D01*
X121867898Y-90499097D01*
X121960693Y-90275069D01*
X122008000Y-90037243D01*
X122008000Y-89794757D01*
X134786000Y-89794757D01*
X134786000Y-90037243D01*
X134833307Y-90275069D01*
X134926102Y-90499097D01*
X135060820Y-90700717D01*
X135232283Y-90872180D01*
X135433903Y-91006898D01*
X135657931Y-91099693D01*
X135895757Y-91147000D01*
X136138243Y-91147000D01*
X136376069Y-91099693D01*
X136600097Y-91006898D01*
X136801717Y-90872180D01*
X136973180Y-90700717D01*
X137107898Y-90499097D01*
X137200693Y-90275069D01*
X137248000Y-90037243D01*
X137248000Y-89794757D01*
X137200693Y-89556931D01*
X137107898Y-89332903D01*
X136973180Y-89131283D01*
X136801717Y-88959820D01*
X136600097Y-88825102D01*
X136376069Y-88732307D01*
X136138243Y-88685000D01*
X135895757Y-88685000D01*
X135657931Y-88732307D01*
X135433903Y-88825102D01*
X135232283Y-88959820D01*
X135060820Y-89131283D01*
X134926102Y-89332903D01*
X134833307Y-89556931D01*
X134786000Y-89794757D01*
X122008000Y-89794757D01*
X121960693Y-89556931D01*
X121867898Y-89332903D01*
X121733180Y-89131283D01*
X121561717Y-88959820D01*
X121360097Y-88825102D01*
X121136069Y-88732307D01*
X120898243Y-88685000D01*
X120655757Y-88685000D01*
X120417931Y-88732307D01*
X120193903Y-88825102D01*
X119992283Y-88959820D01*
X119820820Y-89131283D01*
X119686102Y-89332903D01*
X119593307Y-89556931D01*
X119546000Y-89794757D01*
X117373000Y-89794757D01*
X117373000Y-86526000D01*
X119544157Y-86526000D01*
X119544157Y-88226000D01*
X119551513Y-88300689D01*
X119573299Y-88372508D01*
X119608678Y-88438696D01*
X119656289Y-88496711D01*
X119714304Y-88544322D01*
X119780492Y-88579701D01*
X119852311Y-88601487D01*
X119927000Y-88608843D01*
X121627000Y-88608843D01*
X121701689Y-88601487D01*
X121773508Y-88579701D01*
X121839696Y-88544322D01*
X121897711Y-88496711D01*
X121945322Y-88438696D01*
X121980701Y-88372508D01*
X122002487Y-88300689D01*
X122009843Y-88226000D01*
X122009843Y-87254757D01*
X134786000Y-87254757D01*
X134786000Y-87497243D01*
X134833307Y-87735069D01*
X134926102Y-87959097D01*
X135060820Y-88160717D01*
X135232283Y-88332180D01*
X135433903Y-88466898D01*
X135657931Y-88559693D01*
X135895757Y-88607000D01*
X136138243Y-88607000D01*
X136376069Y-88559693D01*
X136600097Y-88466898D01*
X136801717Y-88332180D01*
X136973180Y-88160717D01*
X137107898Y-87959097D01*
X137200693Y-87735069D01*
X137248000Y-87497243D01*
X137248000Y-87254757D01*
X137200693Y-87016931D01*
X137107898Y-86792903D01*
X136973180Y-86591283D01*
X136801717Y-86419820D01*
X136600097Y-86285102D01*
X136376069Y-86192307D01*
X136138243Y-86145000D01*
X135895757Y-86145000D01*
X135657931Y-86192307D01*
X135433903Y-86285102D01*
X135232283Y-86419820D01*
X135060820Y-86591283D01*
X134926102Y-86792903D01*
X134833307Y-87016931D01*
X134786000Y-87254757D01*
X122009843Y-87254757D01*
X122009843Y-86526000D01*
X122002487Y-86451311D01*
X121980701Y-86379492D01*
X121945322Y-86313304D01*
X121897711Y-86255289D01*
X121839696Y-86207678D01*
X121773508Y-86172299D01*
X121701689Y-86150513D01*
X121627000Y-86143157D01*
X119927000Y-86143157D01*
X119852311Y-86150513D01*
X119780492Y-86172299D01*
X119714304Y-86207678D01*
X119656289Y-86255289D01*
X119608678Y-86313304D01*
X119573299Y-86379492D01*
X119551513Y-86451311D01*
X119544157Y-86526000D01*
X117373000Y-86526000D01*
X117373000Y-84714757D01*
X119546000Y-84714757D01*
X119546000Y-84957243D01*
X119593307Y-85195069D01*
X119686102Y-85419097D01*
X119820820Y-85620717D01*
X119992283Y-85792180D01*
X120193903Y-85926898D01*
X120417931Y-86019693D01*
X120655757Y-86067000D01*
X120898243Y-86067000D01*
X121136069Y-86019693D01*
X121360097Y-85926898D01*
X121561717Y-85792180D01*
X121733180Y-85620717D01*
X121867898Y-85419097D01*
X121960693Y-85195069D01*
X122008000Y-84957243D01*
X122008000Y-84714757D01*
X134786000Y-84714757D01*
X134786000Y-84957243D01*
X134833307Y-85195069D01*
X134926102Y-85419097D01*
X135060820Y-85620717D01*
X135232283Y-85792180D01*
X135433903Y-85926898D01*
X135657931Y-86019693D01*
X135895757Y-86067000D01*
X136138243Y-86067000D01*
X136376069Y-86019693D01*
X136600097Y-85926898D01*
X136801717Y-85792180D01*
X136973180Y-85620717D01*
X137107898Y-85419097D01*
X137200693Y-85195069D01*
X137248000Y-84957243D01*
X137248000Y-84714757D01*
X137200693Y-84476931D01*
X137107898Y-84252903D01*
X136973180Y-84051283D01*
X136801717Y-83879820D01*
X136600097Y-83745102D01*
X136376069Y-83652307D01*
X136138243Y-83605000D01*
X135895757Y-83605000D01*
X135657931Y-83652307D01*
X135433903Y-83745102D01*
X135232283Y-83879820D01*
X135060820Y-84051283D01*
X134926102Y-84252903D01*
X134833307Y-84476931D01*
X134786000Y-84714757D01*
X122008000Y-84714757D01*
X121960693Y-84476931D01*
X121867898Y-84252903D01*
X121733180Y-84051283D01*
X121561717Y-83879820D01*
X121360097Y-83745102D01*
X121136069Y-83652307D01*
X120898243Y-83605000D01*
X120655757Y-83605000D01*
X120417931Y-83652307D01*
X120193903Y-83745102D01*
X119992283Y-83879820D01*
X119820820Y-84051283D01*
X119686102Y-84252903D01*
X119593307Y-84476931D01*
X119546000Y-84714757D01*
X117373000Y-84714757D01*
X117373000Y-82174757D01*
X119546000Y-82174757D01*
X119546000Y-82417243D01*
X119593307Y-82655069D01*
X119686102Y-82879097D01*
X119820820Y-83080717D01*
X119992283Y-83252180D01*
X120193903Y-83386898D01*
X120417931Y-83479693D01*
X120655757Y-83527000D01*
X120898243Y-83527000D01*
X121136069Y-83479693D01*
X121360097Y-83386898D01*
X121561717Y-83252180D01*
X121733180Y-83080717D01*
X121867898Y-82879097D01*
X121960693Y-82655069D01*
X122008000Y-82417243D01*
X122008000Y-82174757D01*
X134786000Y-82174757D01*
X134786000Y-82417243D01*
X134833307Y-82655069D01*
X134926102Y-82879097D01*
X135060820Y-83080717D01*
X135232283Y-83252180D01*
X135433903Y-83386898D01*
X135657931Y-83479693D01*
X135895757Y-83527000D01*
X136138243Y-83527000D01*
X136376069Y-83479693D01*
X136600097Y-83386898D01*
X136801717Y-83252180D01*
X136973180Y-83080717D01*
X137107898Y-82879097D01*
X137200693Y-82655069D01*
X137248000Y-82417243D01*
X137248000Y-82174757D01*
X137200693Y-81936931D01*
X137107898Y-81712903D01*
X136973180Y-81511283D01*
X136801717Y-81339820D01*
X136600097Y-81205102D01*
X136376069Y-81112307D01*
X136138243Y-81065000D01*
X135895757Y-81065000D01*
X135657931Y-81112307D01*
X135433903Y-81205102D01*
X135232283Y-81339820D01*
X135060820Y-81511283D01*
X134926102Y-81712903D01*
X134833307Y-81936931D01*
X134786000Y-82174757D01*
X122008000Y-82174757D01*
X121960693Y-81936931D01*
X121867898Y-81712903D01*
X121733180Y-81511283D01*
X121561717Y-81339820D01*
X121360097Y-81205102D01*
X121136069Y-81112307D01*
X120898243Y-81065000D01*
X120655757Y-81065000D01*
X120417931Y-81112307D01*
X120193903Y-81205102D01*
X119992283Y-81339820D01*
X119820820Y-81511283D01*
X119686102Y-81712903D01*
X119593307Y-81936931D01*
X119546000Y-82174757D01*
X117373000Y-82174757D01*
X117373000Y-79634757D01*
X119546000Y-79634757D01*
X119546000Y-79877243D01*
X119593307Y-80115069D01*
X119686102Y-80339097D01*
X119820820Y-80540717D01*
X119992283Y-80712180D01*
X120193903Y-80846898D01*
X120417931Y-80939693D01*
X120655757Y-80987000D01*
X120898243Y-80987000D01*
X121136069Y-80939693D01*
X121360097Y-80846898D01*
X121561717Y-80712180D01*
X121733180Y-80540717D01*
X121867898Y-80339097D01*
X121960693Y-80115069D01*
X122008000Y-79877243D01*
X122008000Y-79634757D01*
X134786000Y-79634757D01*
X134786000Y-79877243D01*
X134833307Y-80115069D01*
X134926102Y-80339097D01*
X135060820Y-80540717D01*
X135232283Y-80712180D01*
X135433903Y-80846898D01*
X135657931Y-80939693D01*
X135895757Y-80987000D01*
X136138243Y-80987000D01*
X136376069Y-80939693D01*
X136600097Y-80846898D01*
X136801717Y-80712180D01*
X136973180Y-80540717D01*
X137107898Y-80339097D01*
X137200693Y-80115069D01*
X137248000Y-79877243D01*
X137248000Y-79634757D01*
X137200693Y-79396931D01*
X137107898Y-79172903D01*
X136973180Y-78971283D01*
X136801717Y-78799820D01*
X136600097Y-78665102D01*
X136376069Y-78572307D01*
X136138243Y-78525000D01*
X135895757Y-78525000D01*
X135657931Y-78572307D01*
X135433903Y-78665102D01*
X135232283Y-78799820D01*
X135060820Y-78971283D01*
X134926102Y-79172903D01*
X134833307Y-79396931D01*
X134786000Y-79634757D01*
X122008000Y-79634757D01*
X121960693Y-79396931D01*
X121867898Y-79172903D01*
X121733180Y-78971283D01*
X121561717Y-78799820D01*
X121360097Y-78665102D01*
X121136069Y-78572307D01*
X120898243Y-78525000D01*
X120655757Y-78525000D01*
X120417931Y-78572307D01*
X120193903Y-78665102D01*
X119992283Y-78799820D01*
X119820820Y-78971283D01*
X119686102Y-79172903D01*
X119593307Y-79396931D01*
X119546000Y-79634757D01*
X117373000Y-79634757D01*
X117373000Y-77094757D01*
X119546000Y-77094757D01*
X119546000Y-77337243D01*
X119593307Y-77575069D01*
X119686102Y-77799097D01*
X119820820Y-78000717D01*
X119992283Y-78172180D01*
X120193903Y-78306898D01*
X120417931Y-78399693D01*
X120655757Y-78447000D01*
X120898243Y-78447000D01*
X121136069Y-78399693D01*
X121360097Y-78306898D01*
X121561717Y-78172180D01*
X121733180Y-78000717D01*
X121867898Y-77799097D01*
X121960693Y-77575069D01*
X122008000Y-77337243D01*
X122008000Y-77094757D01*
X134786000Y-77094757D01*
X134786000Y-77337243D01*
X134833307Y-77575069D01*
X134926102Y-77799097D01*
X135060820Y-78000717D01*
X135232283Y-78172180D01*
X135433903Y-78306898D01*
X135657931Y-78399693D01*
X135895757Y-78447000D01*
X136138243Y-78447000D01*
X136376069Y-78399693D01*
X136600097Y-78306898D01*
X136801717Y-78172180D01*
X136973180Y-78000717D01*
X137107898Y-77799097D01*
X137200693Y-77575069D01*
X137248000Y-77337243D01*
X137248000Y-77094757D01*
X137200693Y-76856931D01*
X137107898Y-76632903D01*
X136973180Y-76431283D01*
X136801717Y-76259820D01*
X136600097Y-76125102D01*
X136376069Y-76032307D01*
X136138243Y-75985000D01*
X135895757Y-75985000D01*
X135657931Y-76032307D01*
X135433903Y-76125102D01*
X135232283Y-76259820D01*
X135060820Y-76431283D01*
X134926102Y-76632903D01*
X134833307Y-76856931D01*
X134786000Y-77094757D01*
X122008000Y-77094757D01*
X121960693Y-76856931D01*
X121867898Y-76632903D01*
X121733180Y-76431283D01*
X121561717Y-76259820D01*
X121360097Y-76125102D01*
X121136069Y-76032307D01*
X120898243Y-75985000D01*
X120655757Y-75985000D01*
X120417931Y-76032307D01*
X120193903Y-76125102D01*
X119992283Y-76259820D01*
X119820820Y-76431283D01*
X119686102Y-76632903D01*
X119593307Y-76856931D01*
X119546000Y-77094757D01*
X117373000Y-77094757D01*
X117373000Y-75082000D01*
X139167000Y-75082000D01*
X139167001Y-126594000D01*
G37*
%TD.AperFunction*%
%TD*%
D16*
%TO.N,+5V*%
X242094001Y-103373000D02*
X232000000Y-103373000D01*
X231975224Y-103375440D01*
X231951399Y-103382667D01*
X231929443Y-103394403D01*
X231910197Y-103410197D01*
X231894403Y-103429443D01*
X231882667Y-103451399D01*
X231875440Y-103475224D01*
X231873000Y-103500000D01*
X231873000Y-107373000D01*
X229627000Y-107373000D01*
X229627000Y-106264615D01*
X229725972Y-106244928D01*
X229866958Y-106186530D01*
X229993842Y-106101748D01*
X230101748Y-105993842D01*
X230186530Y-105866958D01*
X230244928Y-105725972D01*
X230274700Y-105576301D01*
X230274700Y-105423699D01*
X230244928Y-105274028D01*
X230186530Y-105133042D01*
X230101748Y-105006158D01*
X229993842Y-104898252D01*
X229866958Y-104813470D01*
X229725972Y-104755072D01*
X229576301Y-104725300D01*
X229423699Y-104725300D01*
X229274028Y-104755072D01*
X229133042Y-104813470D01*
X229006158Y-104898252D01*
X228898252Y-105006158D01*
X228813470Y-105133042D01*
X228755072Y-105274028D01*
X228735385Y-105373000D01*
X227627000Y-105373000D01*
X227627000Y-97127000D01*
X229766542Y-97127000D01*
X230432689Y-97323058D01*
X230468846Y-97329955D01*
X230504881Y-97337352D01*
X230510523Y-97337906D01*
X231239383Y-97404238D01*
X231276180Y-97403981D01*
X231312977Y-97404238D01*
X231318619Y-97403685D01*
X232046481Y-97327183D01*
X232082554Y-97319778D01*
X232118672Y-97312888D01*
X232124099Y-97311250D01*
X232719315Y-97127000D01*
X235000000Y-97127000D01*
X235024776Y-97124560D01*
X235048601Y-97117333D01*
X235070557Y-97105597D01*
X235089803Y-97089803D01*
X235105597Y-97070557D01*
X235117333Y-97048601D01*
X235124560Y-97024776D01*
X235127000Y-97000000D01*
X235127000Y-94725878D01*
X235317254Y-94095725D01*
X235324407Y-94059602D01*
X235332051Y-94023636D01*
X235332643Y-94018007D01*
X235332645Y-94017997D01*
X235332645Y-94017988D01*
X235400592Y-93325000D01*
X237942157Y-93325000D01*
X237942157Y-94675000D01*
X237949513Y-94749689D01*
X237971299Y-94821508D01*
X238006678Y-94887696D01*
X238054289Y-94945711D01*
X238112304Y-94993322D01*
X238178492Y-95028701D01*
X238250311Y-95050487D01*
X238325000Y-95057843D01*
X239675000Y-95057843D01*
X239749689Y-95050487D01*
X239821508Y-95028701D01*
X239887696Y-94993322D01*
X239945711Y-94945711D01*
X239993322Y-94887696D01*
X240028701Y-94821508D01*
X240050487Y-94749689D01*
X240057843Y-94675000D01*
X240057843Y-94484893D01*
X240064185Y-94500204D01*
X240179751Y-94673161D01*
X240326839Y-94820249D01*
X240499796Y-94935815D01*
X240691976Y-95015419D01*
X240895993Y-95056000D01*
X241104007Y-95056000D01*
X241308024Y-95015419D01*
X241500204Y-94935815D01*
X241673161Y-94820249D01*
X241820249Y-94673161D01*
X241935815Y-94500204D01*
X242015419Y-94308024D01*
X242056000Y-94104007D01*
X242056000Y-93895993D01*
X242015419Y-93691976D01*
X241935815Y-93499796D01*
X241820249Y-93326839D01*
X241673161Y-93179751D01*
X241500204Y-93064185D01*
X241308024Y-92984581D01*
X241104007Y-92944000D01*
X240895993Y-92944000D01*
X240691976Y-92984581D01*
X240499796Y-93064185D01*
X240326839Y-93179751D01*
X240179751Y-93326839D01*
X240064185Y-93499796D01*
X240057843Y-93515107D01*
X240057843Y-93325000D01*
X240050487Y-93250311D01*
X240028701Y-93178492D01*
X239993322Y-93112304D01*
X239945711Y-93054289D01*
X239887696Y-93006678D01*
X239821508Y-92971299D01*
X239749689Y-92949513D01*
X239675000Y-92942157D01*
X238325000Y-92942157D01*
X238250311Y-92949513D01*
X238178492Y-92971299D01*
X238112304Y-93006678D01*
X238054289Y-93054289D01*
X238006678Y-93112304D01*
X237971299Y-93178492D01*
X237949513Y-93250311D01*
X237942157Y-93325000D01*
X235400592Y-93325000D01*
X235404062Y-93289618D01*
X235406000Y-93269941D01*
X235406000Y-92906000D01*
X242094001Y-92906000D01*
X242094001Y-103373000D01*
%TA.AperFunction,Conductor*%
D17*
G36*
X242094001Y-103373000D02*
G01*
X232000000Y-103373000D01*
X231975224Y-103375440D01*
X231951399Y-103382667D01*
X231929443Y-103394403D01*
X231910197Y-103410197D01*
X231894403Y-103429443D01*
X231882667Y-103451399D01*
X231875440Y-103475224D01*
X231873000Y-103500000D01*
X231873000Y-107373000D01*
X229627000Y-107373000D01*
X229627000Y-106264615D01*
X229725972Y-106244928D01*
X229866958Y-106186530D01*
X229993842Y-106101748D01*
X230101748Y-105993842D01*
X230186530Y-105866958D01*
X230244928Y-105725972D01*
X230274700Y-105576301D01*
X230274700Y-105423699D01*
X230244928Y-105274028D01*
X230186530Y-105133042D01*
X230101748Y-105006158D01*
X229993842Y-104898252D01*
X229866958Y-104813470D01*
X229725972Y-104755072D01*
X229576301Y-104725300D01*
X229423699Y-104725300D01*
X229274028Y-104755072D01*
X229133042Y-104813470D01*
X229006158Y-104898252D01*
X228898252Y-105006158D01*
X228813470Y-105133042D01*
X228755072Y-105274028D01*
X228735385Y-105373000D01*
X227627000Y-105373000D01*
X227627000Y-97127000D01*
X229766542Y-97127000D01*
X230432689Y-97323058D01*
X230468846Y-97329955D01*
X230504881Y-97337352D01*
X230510523Y-97337906D01*
X231239383Y-97404238D01*
X231276180Y-97403981D01*
X231312977Y-97404238D01*
X231318619Y-97403685D01*
X232046481Y-97327183D01*
X232082554Y-97319778D01*
X232118672Y-97312888D01*
X232124099Y-97311250D01*
X232719315Y-97127000D01*
X235000000Y-97127000D01*
X235024776Y-97124560D01*
X235048601Y-97117333D01*
X235070557Y-97105597D01*
X235089803Y-97089803D01*
X235105597Y-97070557D01*
X235117333Y-97048601D01*
X235124560Y-97024776D01*
X235127000Y-97000000D01*
X235127000Y-94725878D01*
X235317254Y-94095725D01*
X235324407Y-94059602D01*
X235332051Y-94023636D01*
X235332643Y-94018007D01*
X235332645Y-94017997D01*
X235332645Y-94017988D01*
X235400592Y-93325000D01*
X237942157Y-93325000D01*
X237942157Y-94675000D01*
X237949513Y-94749689D01*
X237971299Y-94821508D01*
X238006678Y-94887696D01*
X238054289Y-94945711D01*
X238112304Y-94993322D01*
X238178492Y-95028701D01*
X238250311Y-95050487D01*
X238325000Y-95057843D01*
X239675000Y-95057843D01*
X239749689Y-95050487D01*
X239821508Y-95028701D01*
X239887696Y-94993322D01*
X239945711Y-94945711D01*
X239993322Y-94887696D01*
X240028701Y-94821508D01*
X240050487Y-94749689D01*
X240057843Y-94675000D01*
X240057843Y-94484893D01*
X240064185Y-94500204D01*
X240179751Y-94673161D01*
X240326839Y-94820249D01*
X240499796Y-94935815D01*
X240691976Y-95015419D01*
X240895993Y-95056000D01*
X241104007Y-95056000D01*
X241308024Y-95015419D01*
X241500204Y-94935815D01*
X241673161Y-94820249D01*
X241820249Y-94673161D01*
X241935815Y-94500204D01*
X242015419Y-94308024D01*
X242056000Y-94104007D01*
X242056000Y-93895993D01*
X242015419Y-93691976D01*
X241935815Y-93499796D01*
X241820249Y-93326839D01*
X241673161Y-93179751D01*
X241500204Y-93064185D01*
X241308024Y-92984581D01*
X241104007Y-92944000D01*
X240895993Y-92944000D01*
X240691976Y-92984581D01*
X240499796Y-93064185D01*
X240326839Y-93179751D01*
X240179751Y-93326839D01*
X240064185Y-93499796D01*
X240057843Y-93515107D01*
X240057843Y-93325000D01*
X240050487Y-93250311D01*
X240028701Y-93178492D01*
X239993322Y-93112304D01*
X239945711Y-93054289D01*
X239887696Y-93006678D01*
X239821508Y-92971299D01*
X239749689Y-92949513D01*
X239675000Y-92942157D01*
X238325000Y-92942157D01*
X238250311Y-92949513D01*
X238178492Y-92971299D01*
X238112304Y-93006678D01*
X238054289Y-93054289D01*
X238006678Y-93112304D01*
X237971299Y-93178492D01*
X237949513Y-93250311D01*
X237942157Y-93325000D01*
X235400592Y-93325000D01*
X235404062Y-93289618D01*
X235406000Y-93269941D01*
X235406000Y-92906000D01*
X242094001Y-92906000D01*
X242094001Y-103373000D01*
G37*
%TD.AperFunction*%
%TD*%
D16*
%TO.N,+3V3*%
X189873000Y-97000000D02*
X189875440Y-97024776D01*
X189882667Y-97048601D01*
X189894403Y-97070557D01*
X189910197Y-97089803D01*
X189929443Y-97105597D01*
X189951399Y-97117333D01*
X189975224Y-97124560D01*
X190000000Y-97127000D01*
X193266542Y-97127000D01*
X193932689Y-97323058D01*
X193968846Y-97329955D01*
X194004881Y-97337352D01*
X194010523Y-97337906D01*
X194739383Y-97404238D01*
X194776180Y-97403981D01*
X194812977Y-97404238D01*
X194818619Y-97403685D01*
X195546481Y-97327183D01*
X195582554Y-97319778D01*
X195618672Y-97312888D01*
X195624099Y-97311250D01*
X196219315Y-97127000D01*
X200000000Y-97127000D01*
X200024776Y-97124560D01*
X200048601Y-97117333D01*
X200070557Y-97105597D01*
X200089803Y-97089803D01*
X200105597Y-97070557D01*
X200117333Y-97048601D01*
X200124560Y-97024776D01*
X200127000Y-97000000D01*
X200127000Y-94850000D01*
X206261928Y-94850000D01*
X206274188Y-94974482D01*
X206310498Y-95094180D01*
X206369463Y-95204494D01*
X206448815Y-95301185D01*
X206545506Y-95380537D01*
X206655820Y-95439502D01*
X206775518Y-95475812D01*
X206900000Y-95488072D01*
X207464250Y-95485000D01*
X207623000Y-95326250D01*
X207623000Y-94127000D01*
X206423750Y-94127000D01*
X206265000Y-94285750D01*
X206261928Y-94850000D01*
X200127000Y-94850000D01*
X200127000Y-92906000D01*
X206310443Y-92906000D01*
X206274188Y-93025518D01*
X206261928Y-93150000D01*
X206265000Y-93714250D01*
X206423750Y-93873000D01*
X207623000Y-93873000D01*
X207623000Y-93853000D01*
X207877000Y-93853000D01*
X207877000Y-93873000D01*
X207897000Y-93873000D01*
X207897000Y-94127000D01*
X207877000Y-94127000D01*
X207877000Y-95326250D01*
X208035750Y-95485000D01*
X208600000Y-95488072D01*
X208724482Y-95475812D01*
X208844180Y-95439502D01*
X208954494Y-95380537D01*
X209051185Y-95301185D01*
X209130537Y-95204494D01*
X209189502Y-95094180D01*
X209225812Y-94974482D01*
X209238072Y-94850000D01*
X209236927Y-94639706D01*
X209333820Y-94784717D01*
X209505283Y-94956180D01*
X209706903Y-95090898D01*
X209930931Y-95183693D01*
X210168757Y-95231000D01*
X210411243Y-95231000D01*
X210649069Y-95183693D01*
X210873097Y-95090898D01*
X211074717Y-94956180D01*
X211246180Y-94784717D01*
X211380898Y-94583097D01*
X211473693Y-94359069D01*
X211521000Y-94121243D01*
X211521000Y-93878757D01*
X211473693Y-93640931D01*
X211380898Y-93416903D01*
X211246180Y-93215283D01*
X211074717Y-93043820D01*
X210873097Y-92909102D01*
X210865608Y-92906000D01*
X212254392Y-92906000D01*
X212246903Y-92909102D01*
X212045283Y-93043820D01*
X211873820Y-93215283D01*
X211739102Y-93416903D01*
X211646307Y-93640931D01*
X211599000Y-93878757D01*
X211599000Y-94121243D01*
X211646307Y-94359069D01*
X211739102Y-94583097D01*
X211873820Y-94784717D01*
X212045283Y-94956180D01*
X212246903Y-95090898D01*
X212470931Y-95183693D01*
X212708757Y-95231000D01*
X212951243Y-95231000D01*
X213189069Y-95183693D01*
X213413097Y-95090898D01*
X213614717Y-94956180D01*
X213786180Y-94784717D01*
X213920898Y-94583097D01*
X214013693Y-94359069D01*
X214061000Y-94121243D01*
X214061000Y-93878757D01*
X214013693Y-93640931D01*
X213920898Y-93416903D01*
X213786180Y-93215283D01*
X213614717Y-93043820D01*
X213413097Y-92909102D01*
X213405608Y-92906000D01*
X214794392Y-92906000D01*
X214786903Y-92909102D01*
X214585283Y-93043820D01*
X214413820Y-93215283D01*
X214279102Y-93416903D01*
X214186307Y-93640931D01*
X214139000Y-93878757D01*
X214139000Y-94121243D01*
X214186307Y-94359069D01*
X214279102Y-94583097D01*
X214413820Y-94784717D01*
X214585283Y-94956180D01*
X214786903Y-95090898D01*
X215010931Y-95183693D01*
X215248757Y-95231000D01*
X215491243Y-95231000D01*
X215729069Y-95183693D01*
X215953097Y-95090898D01*
X216154717Y-94956180D01*
X216326180Y-94784717D01*
X216460898Y-94583097D01*
X216553693Y-94359069D01*
X216601000Y-94121243D01*
X216601000Y-93878757D01*
X216553693Y-93640931D01*
X216460898Y-93416903D01*
X216326180Y-93215283D01*
X216154717Y-93043820D01*
X215953097Y-92909102D01*
X215945608Y-92906000D01*
X217334392Y-92906000D01*
X217326903Y-92909102D01*
X217125283Y-93043820D01*
X216953820Y-93215283D01*
X216819102Y-93416903D01*
X216726307Y-93640931D01*
X216679000Y-93878757D01*
X216679000Y-94121243D01*
X216726307Y-94359069D01*
X216819102Y-94583097D01*
X216953820Y-94784717D01*
X217125283Y-94956180D01*
X217326903Y-95090898D01*
X217550931Y-95183693D01*
X217788757Y-95231000D01*
X218031243Y-95231000D01*
X218269069Y-95183693D01*
X218493097Y-95090898D01*
X218694717Y-94956180D01*
X218866180Y-94784717D01*
X219000898Y-94583097D01*
X219093693Y-94359069D01*
X219141000Y-94121243D01*
X219141000Y-93878757D01*
X219093693Y-93640931D01*
X219000898Y-93416903D01*
X218866180Y-93215283D01*
X218694717Y-93043820D01*
X218493097Y-92909102D01*
X218485608Y-92906000D01*
X219874392Y-92906000D01*
X219866903Y-92909102D01*
X219665283Y-93043820D01*
X219493820Y-93215283D01*
X219359102Y-93416903D01*
X219266307Y-93640931D01*
X219219000Y-93878757D01*
X219219000Y-94121243D01*
X219266307Y-94359069D01*
X219359102Y-94583097D01*
X219493820Y-94784717D01*
X219665283Y-94956180D01*
X219866903Y-95090898D01*
X220090931Y-95183693D01*
X220328757Y-95231000D01*
X220571243Y-95231000D01*
X220809069Y-95183693D01*
X221033097Y-95090898D01*
X221234717Y-94956180D01*
X221406180Y-94784717D01*
X221540898Y-94583097D01*
X221633693Y-94359069D01*
X221681000Y-94121243D01*
X221681000Y-93878757D01*
X221633693Y-93640931D01*
X221540898Y-93416903D01*
X221406180Y-93215283D01*
X221234717Y-93043820D01*
X221033097Y-92909102D01*
X221025608Y-92906000D01*
X226873000Y-92906000D01*
X226873000Y-106000000D01*
X226875440Y-106024776D01*
X226882667Y-106048601D01*
X226894403Y-106070557D01*
X226910197Y-106089803D01*
X226929443Y-106105597D01*
X226951399Y-106117333D01*
X226975224Y-106124560D01*
X227000000Y-106127000D01*
X228873000Y-106127000D01*
X228873000Y-108000000D01*
X228875440Y-108024776D01*
X228882667Y-108048601D01*
X228894403Y-108070557D01*
X228910197Y-108089803D01*
X228929443Y-108105597D01*
X228951399Y-108117333D01*
X228975224Y-108124560D01*
X229000000Y-108127000D01*
X232500000Y-108127000D01*
X232524776Y-108124560D01*
X232548601Y-108117333D01*
X232570557Y-108105597D01*
X232589803Y-108089803D01*
X232605597Y-108070557D01*
X232617333Y-108048601D01*
X232624560Y-108024776D01*
X232627000Y-108000000D01*
X232627000Y-104127000D01*
X242094001Y-104127000D01*
X242094000Y-117094000D01*
X182906000Y-117094000D01*
X182906000Y-115595993D01*
X211044000Y-115595993D01*
X211044000Y-115804007D01*
X211084581Y-116008024D01*
X211164185Y-116200204D01*
X211279751Y-116373161D01*
X211426839Y-116520249D01*
X211599796Y-116635815D01*
X211791976Y-116715419D01*
X211995993Y-116756000D01*
X212204007Y-116756000D01*
X212408024Y-116715419D01*
X212600204Y-116635815D01*
X212773161Y-116520249D01*
X212920249Y-116373161D01*
X213035815Y-116200204D01*
X213042157Y-116184893D01*
X213042157Y-116375000D01*
X213049513Y-116449689D01*
X213071299Y-116521508D01*
X213106678Y-116587696D01*
X213154289Y-116645711D01*
X213212304Y-116693322D01*
X213278492Y-116728701D01*
X213350311Y-116750487D01*
X213425000Y-116757843D01*
X214775000Y-116757843D01*
X214849689Y-116750487D01*
X214921508Y-116728701D01*
X214987696Y-116693322D01*
X215045711Y-116645711D01*
X215093322Y-116587696D01*
X215128701Y-116521508D01*
X215150487Y-116449689D01*
X215157843Y-116375000D01*
X215157843Y-115025000D01*
X215150487Y-114950311D01*
X215128701Y-114878492D01*
X215093322Y-114812304D01*
X215045711Y-114754289D01*
X214987696Y-114706678D01*
X214921508Y-114671299D01*
X214849689Y-114649513D01*
X214775000Y-114642157D01*
X213425000Y-114642157D01*
X213350311Y-114649513D01*
X213278492Y-114671299D01*
X213212304Y-114706678D01*
X213154289Y-114754289D01*
X213106678Y-114812304D01*
X213071299Y-114878492D01*
X213049513Y-114950311D01*
X213042157Y-115025000D01*
X213042157Y-115215107D01*
X213035815Y-115199796D01*
X212920249Y-115026839D01*
X212773161Y-114879751D01*
X212600204Y-114764185D01*
X212408024Y-114684581D01*
X212204007Y-114644000D01*
X211995993Y-114644000D01*
X211791976Y-114684581D01*
X211599796Y-114764185D01*
X211426839Y-114879751D01*
X211279751Y-115026839D01*
X211164185Y-115199796D01*
X211084581Y-115391976D01*
X211044000Y-115595993D01*
X182906000Y-115595993D01*
X182906000Y-107389400D01*
X201230090Y-107389400D01*
X201260762Y-107490528D01*
X201368527Y-107723629D01*
X201519697Y-107931227D01*
X201708463Y-108105344D01*
X201874283Y-108206714D01*
X201824839Y-108239751D01*
X201677751Y-108386839D01*
X201562185Y-108559796D01*
X201482581Y-108751976D01*
X201442000Y-108955993D01*
X201442000Y-109164007D01*
X201482581Y-109368024D01*
X201562185Y-109560204D01*
X201677751Y-109733161D01*
X201824839Y-109880249D01*
X201997796Y-109995815D01*
X202189976Y-110075419D01*
X202393993Y-110116000D01*
X202602007Y-110116000D01*
X202806024Y-110075419D01*
X202998204Y-109995815D01*
X203171161Y-109880249D01*
X203318249Y-109733161D01*
X203433815Y-109560204D01*
X203513419Y-109368024D01*
X203554000Y-109164007D01*
X203554000Y-108955993D01*
X203513419Y-108751976D01*
X203433815Y-108559796D01*
X203318249Y-108386839D01*
X203256410Y-108325000D01*
X209442157Y-108325000D01*
X209442157Y-109675000D01*
X209449513Y-109749689D01*
X209471299Y-109821508D01*
X209506678Y-109887696D01*
X209554289Y-109945711D01*
X209612304Y-109993322D01*
X209678492Y-110028701D01*
X209750311Y-110050487D01*
X209825000Y-110057843D01*
X211175000Y-110057843D01*
X211249689Y-110050487D01*
X211321508Y-110028701D01*
X211387696Y-109993322D01*
X211445711Y-109945711D01*
X211493322Y-109887696D01*
X211528701Y-109821508D01*
X211550487Y-109749689D01*
X211557843Y-109675000D01*
X211557843Y-109484893D01*
X211564185Y-109500204D01*
X211679751Y-109673161D01*
X211826839Y-109820249D01*
X211999796Y-109935815D01*
X212191976Y-110015419D01*
X212395993Y-110056000D01*
X212604007Y-110056000D01*
X212808024Y-110015419D01*
X213000204Y-109935815D01*
X213173161Y-109820249D01*
X213320249Y-109673161D01*
X213435815Y-109500204D01*
X213500000Y-109345249D01*
X213564185Y-109500204D01*
X213679751Y-109673161D01*
X213826839Y-109820249D01*
X213999796Y-109935815D01*
X214191976Y-110015419D01*
X214395993Y-110056000D01*
X214604007Y-110056000D01*
X214808024Y-110015419D01*
X215000204Y-109935815D01*
X215173161Y-109820249D01*
X215320249Y-109673161D01*
X215435815Y-109500204D01*
X215500000Y-109345249D01*
X215564185Y-109500204D01*
X215679751Y-109673161D01*
X215826839Y-109820249D01*
X215999796Y-109935815D01*
X216191976Y-110015419D01*
X216395993Y-110056000D01*
X216604007Y-110056000D01*
X216808024Y-110015419D01*
X217000204Y-109935815D01*
X217173161Y-109820249D01*
X217320249Y-109673161D01*
X217371783Y-109596034D01*
X219769000Y-109596034D01*
X219769000Y-109887766D01*
X219825914Y-110173892D01*
X219937555Y-110443417D01*
X220099632Y-110685983D01*
X220305917Y-110892268D01*
X220548483Y-111054345D01*
X220818008Y-111165986D01*
X221104134Y-111222900D01*
X221395866Y-111222900D01*
X221681992Y-111165986D01*
X221951517Y-111054345D01*
X222194083Y-110892268D01*
X222400368Y-110685983D01*
X222562445Y-110443417D01*
X222674086Y-110173892D01*
X222731000Y-109887766D01*
X222731000Y-109596034D01*
X222674086Y-109309908D01*
X222562445Y-109040383D01*
X222400368Y-108797817D01*
X222194083Y-108591532D01*
X221951517Y-108429455D01*
X221681992Y-108317814D01*
X221395866Y-108260900D01*
X221104134Y-108260900D01*
X220818008Y-108317814D01*
X220548483Y-108429455D01*
X220305917Y-108591532D01*
X220099632Y-108797817D01*
X219937555Y-109040383D01*
X219825914Y-109309908D01*
X219769000Y-109596034D01*
X217371783Y-109596034D01*
X217435815Y-109500204D01*
X217515419Y-109308024D01*
X217556000Y-109104007D01*
X217556000Y-108895993D01*
X217515419Y-108691976D01*
X217435815Y-108499796D01*
X217320249Y-108326839D01*
X217173161Y-108179751D01*
X217000204Y-108064185D01*
X216808024Y-107984581D01*
X216604007Y-107944000D01*
X216395993Y-107944000D01*
X216191976Y-107984581D01*
X216053756Y-108041834D01*
X216101748Y-107993842D01*
X216186530Y-107866958D01*
X216244928Y-107725972D01*
X216274700Y-107576301D01*
X216274700Y-107423699D01*
X216244928Y-107274028D01*
X216186530Y-107133042D01*
X216101748Y-107006158D01*
X215993842Y-106898252D01*
X215866958Y-106813470D01*
X215725972Y-106755072D01*
X215576301Y-106725300D01*
X215423699Y-106725300D01*
X215274028Y-106755072D01*
X215133042Y-106813470D01*
X215006158Y-106898252D01*
X214898252Y-107006158D01*
X214813470Y-107133042D01*
X214755072Y-107274028D01*
X214725300Y-107423699D01*
X214725300Y-107576301D01*
X214755072Y-107725972D01*
X214813470Y-107866958D01*
X214898252Y-107993842D01*
X214946244Y-108041834D01*
X214808024Y-107984581D01*
X214604007Y-107944000D01*
X214395993Y-107944000D01*
X214191976Y-107984581D01*
X213999796Y-108064185D01*
X213826839Y-108179751D01*
X213679751Y-108326839D01*
X213564185Y-108499796D01*
X213500000Y-108654751D01*
X213435815Y-108499796D01*
X213320249Y-108326839D01*
X213173161Y-108179751D01*
X213000204Y-108064185D01*
X212808024Y-107984581D01*
X212604007Y-107944000D01*
X212395993Y-107944000D01*
X212191976Y-107984581D01*
X211999796Y-108064185D01*
X211826839Y-108179751D01*
X211679751Y-108326839D01*
X211564185Y-108499796D01*
X211557843Y-108515107D01*
X211557843Y-108325000D01*
X211550487Y-108250311D01*
X211528701Y-108178492D01*
X211493322Y-108112304D01*
X211445711Y-108054289D01*
X211387696Y-108006678D01*
X211321508Y-107971299D01*
X211249689Y-107949513D01*
X211175000Y-107942157D01*
X209825000Y-107942157D01*
X209750311Y-107949513D01*
X209678492Y-107971299D01*
X209612304Y-108006678D01*
X209554289Y-108054289D01*
X209506678Y-108112304D01*
X209471299Y-108178492D01*
X209449513Y-108250311D01*
X209442157Y-108325000D01*
X203256410Y-108325000D01*
X203171161Y-108239751D01*
X203121717Y-108206714D01*
X203287537Y-108105344D01*
X203476303Y-107931227D01*
X203627473Y-107723629D01*
X203735238Y-107490528D01*
X203765910Y-107389400D01*
X203642224Y-107187000D01*
X202625000Y-107187000D01*
X202625000Y-107207000D01*
X202371000Y-107207000D01*
X202371000Y-107187000D01*
X201353776Y-107187000D01*
X201230090Y-107389400D01*
X182906000Y-107389400D01*
X182906000Y-103389400D01*
X201230090Y-103389400D01*
X201260762Y-103490528D01*
X201368527Y-103723629D01*
X201519697Y-103931227D01*
X201708463Y-104105344D01*
X201874283Y-104206714D01*
X201824839Y-104239751D01*
X201677751Y-104386839D01*
X201562185Y-104559796D01*
X201482581Y-104751976D01*
X201442000Y-104955993D01*
X201442000Y-105164007D01*
X201482581Y-105368024D01*
X201562185Y-105560204D01*
X201677751Y-105733161D01*
X201824839Y-105880249D01*
X201874283Y-105913286D01*
X201708463Y-106014656D01*
X201519697Y-106188773D01*
X201368527Y-106396371D01*
X201260762Y-106629472D01*
X201230090Y-106730600D01*
X201353776Y-106933000D01*
X202371000Y-106933000D01*
X202371000Y-106913000D01*
X202625000Y-106913000D01*
X202625000Y-106933000D01*
X203642224Y-106933000D01*
X203765910Y-106730600D01*
X203735238Y-106629472D01*
X203627473Y-106396371D01*
X203476303Y-106188773D01*
X203287537Y-106014656D01*
X203138751Y-105923699D01*
X207725300Y-105923699D01*
X207725300Y-106076301D01*
X207755072Y-106225972D01*
X207813470Y-106366958D01*
X207898252Y-106493842D01*
X208006158Y-106601748D01*
X208133042Y-106686530D01*
X208274028Y-106744928D01*
X208423699Y-106774700D01*
X208576301Y-106774700D01*
X208725972Y-106744928D01*
X208866958Y-106686530D01*
X208993842Y-106601748D01*
X209101748Y-106493842D01*
X209186530Y-106366958D01*
X209244928Y-106225972D01*
X209274700Y-106076301D01*
X209274700Y-105923699D01*
X209274698Y-105923685D01*
X217225314Y-105923685D01*
X217225314Y-106076287D01*
X217255086Y-106225958D01*
X217313484Y-106366944D01*
X217398266Y-106493828D01*
X217506172Y-106601734D01*
X217633056Y-106686516D01*
X217774042Y-106744914D01*
X217923713Y-106774686D01*
X218076315Y-106774686D01*
X218225986Y-106744914D01*
X218366972Y-106686516D01*
X218493856Y-106601734D01*
X218601762Y-106493828D01*
X218686544Y-106366944D01*
X218744942Y-106225958D01*
X218774714Y-106076287D01*
X218774714Y-105923685D01*
X218744942Y-105774014D01*
X218686544Y-105633028D01*
X218601762Y-105506144D01*
X218493856Y-105398238D01*
X218366972Y-105313456D01*
X218225986Y-105255058D01*
X218076315Y-105225286D01*
X217923713Y-105225286D01*
X217774042Y-105255058D01*
X217633056Y-105313456D01*
X217506172Y-105398238D01*
X217398266Y-105506144D01*
X217313484Y-105633028D01*
X217255086Y-105774014D01*
X217225314Y-105923685D01*
X209274698Y-105923685D01*
X209244928Y-105774028D01*
X209186530Y-105633042D01*
X209101748Y-105506158D01*
X208993842Y-105398252D01*
X208866958Y-105313470D01*
X208725972Y-105255072D01*
X208576301Y-105225300D01*
X208423699Y-105225300D01*
X208274028Y-105255072D01*
X208133042Y-105313470D01*
X208006158Y-105398252D01*
X207898252Y-105506158D01*
X207813470Y-105633042D01*
X207755072Y-105774028D01*
X207725300Y-105923699D01*
X203138751Y-105923699D01*
X203121717Y-105913286D01*
X203171161Y-105880249D01*
X203318249Y-105733161D01*
X203433815Y-105560204D01*
X203513419Y-105368024D01*
X203554000Y-105164007D01*
X203554000Y-104955993D01*
X203513419Y-104751976D01*
X203433815Y-104559796D01*
X203318249Y-104386839D01*
X203171161Y-104239751D01*
X203121717Y-104206714D01*
X203287537Y-104105344D01*
X203476303Y-103931227D01*
X203627473Y-103723629D01*
X203735238Y-103490528D01*
X203765910Y-103389400D01*
X203642224Y-103187000D01*
X202625000Y-103187000D01*
X202625000Y-103207000D01*
X202371000Y-103207000D01*
X202371000Y-103187000D01*
X201353776Y-103187000D01*
X201230090Y-103389400D01*
X182906000Y-103389400D01*
X182906000Y-102730600D01*
X201230090Y-102730600D01*
X201353776Y-102933000D01*
X202371000Y-102933000D01*
X202371000Y-102913000D01*
X202625000Y-102913000D01*
X202625000Y-102933000D01*
X203642224Y-102933000D01*
X203765910Y-102730600D01*
X203735238Y-102629472D01*
X203627473Y-102396371D01*
X203476303Y-102188773D01*
X203350090Y-102072354D01*
X203385696Y-102053322D01*
X203443711Y-102005711D01*
X203491322Y-101947696D01*
X203526701Y-101881508D01*
X203548487Y-101809689D01*
X203555843Y-101735000D01*
X203555843Y-100385000D01*
X203548487Y-100310311D01*
X203526701Y-100238492D01*
X203491322Y-100172304D01*
X203443711Y-100114289D01*
X203385696Y-100066678D01*
X203319508Y-100031299D01*
X203247689Y-100009513D01*
X203173000Y-100002157D01*
X201823000Y-100002157D01*
X201748311Y-100009513D01*
X201676492Y-100031299D01*
X201610304Y-100066678D01*
X201552289Y-100114289D01*
X201504678Y-100172304D01*
X201469299Y-100238492D01*
X201447513Y-100310311D01*
X201440157Y-100385000D01*
X201440157Y-101735000D01*
X201447513Y-101809689D01*
X201469299Y-101881508D01*
X201504678Y-101947696D01*
X201552289Y-102005711D01*
X201610304Y-102053322D01*
X201645910Y-102072354D01*
X201519697Y-102188773D01*
X201368527Y-102396371D01*
X201260762Y-102629472D01*
X201230090Y-102730600D01*
X182906000Y-102730600D01*
X182906000Y-100312334D01*
X196019000Y-100312334D01*
X196019000Y-100604066D01*
X196075914Y-100890192D01*
X196187555Y-101159717D01*
X196349632Y-101402283D01*
X196555917Y-101608568D01*
X196798483Y-101770645D01*
X197068008Y-101882286D01*
X197354134Y-101939200D01*
X197645866Y-101939200D01*
X197931992Y-101882286D01*
X198201517Y-101770645D01*
X198444083Y-101608568D01*
X198650368Y-101402283D01*
X198812445Y-101159717D01*
X198924086Y-100890192D01*
X198981000Y-100604066D01*
X198981000Y-100312334D01*
X198924086Y-100026208D01*
X198812445Y-99756683D01*
X198650368Y-99514117D01*
X198444083Y-99307832D01*
X198201517Y-99145755D01*
X197931992Y-99034114D01*
X197645866Y-98977200D01*
X197354134Y-98977200D01*
X197068008Y-99034114D01*
X196798483Y-99145755D01*
X196555917Y-99307832D01*
X196349632Y-99514117D01*
X196187555Y-99756683D01*
X196075914Y-100026208D01*
X196019000Y-100312334D01*
X182906000Y-100312334D01*
X182906000Y-92906000D01*
X189873000Y-92906000D01*
X189873000Y-97000000D01*
%TA.AperFunction,Conductor*%
D17*
G36*
X189873000Y-97000000D02*
G01*
X189875440Y-97024776D01*
X189882667Y-97048601D01*
X189894403Y-97070557D01*
X189910197Y-97089803D01*
X189929443Y-97105597D01*
X189951399Y-97117333D01*
X189975224Y-97124560D01*
X190000000Y-97127000D01*
X193266542Y-97127000D01*
X193932689Y-97323058D01*
X193968846Y-97329955D01*
X194004881Y-97337352D01*
X194010523Y-97337906D01*
X194739383Y-97404238D01*
X194776180Y-97403981D01*
X194812977Y-97404238D01*
X194818619Y-97403685D01*
X195546481Y-97327183D01*
X195582554Y-97319778D01*
X195618672Y-97312888D01*
X195624099Y-97311250D01*
X196219315Y-97127000D01*
X200000000Y-97127000D01*
X200024776Y-97124560D01*
X200048601Y-97117333D01*
X200070557Y-97105597D01*
X200089803Y-97089803D01*
X200105597Y-97070557D01*
X200117333Y-97048601D01*
X200124560Y-97024776D01*
X200127000Y-97000000D01*
X200127000Y-94850000D01*
X206261928Y-94850000D01*
X206274188Y-94974482D01*
X206310498Y-95094180D01*
X206369463Y-95204494D01*
X206448815Y-95301185D01*
X206545506Y-95380537D01*
X206655820Y-95439502D01*
X206775518Y-95475812D01*
X206900000Y-95488072D01*
X207464250Y-95485000D01*
X207623000Y-95326250D01*
X207623000Y-94127000D01*
X206423750Y-94127000D01*
X206265000Y-94285750D01*
X206261928Y-94850000D01*
X200127000Y-94850000D01*
X200127000Y-92906000D01*
X206310443Y-92906000D01*
X206274188Y-93025518D01*
X206261928Y-93150000D01*
X206265000Y-93714250D01*
X206423750Y-93873000D01*
X207623000Y-93873000D01*
X207623000Y-93853000D01*
X207877000Y-93853000D01*
X207877000Y-93873000D01*
X207897000Y-93873000D01*
X207897000Y-94127000D01*
X207877000Y-94127000D01*
X207877000Y-95326250D01*
X208035750Y-95485000D01*
X208600000Y-95488072D01*
X208724482Y-95475812D01*
X208844180Y-95439502D01*
X208954494Y-95380537D01*
X209051185Y-95301185D01*
X209130537Y-95204494D01*
X209189502Y-95094180D01*
X209225812Y-94974482D01*
X209238072Y-94850000D01*
X209236927Y-94639706D01*
X209333820Y-94784717D01*
X209505283Y-94956180D01*
X209706903Y-95090898D01*
X209930931Y-95183693D01*
X210168757Y-95231000D01*
X210411243Y-95231000D01*
X210649069Y-95183693D01*
X210873097Y-95090898D01*
X211074717Y-94956180D01*
X211246180Y-94784717D01*
X211380898Y-94583097D01*
X211473693Y-94359069D01*
X211521000Y-94121243D01*
X211521000Y-93878757D01*
X211473693Y-93640931D01*
X211380898Y-93416903D01*
X211246180Y-93215283D01*
X211074717Y-93043820D01*
X210873097Y-92909102D01*
X210865608Y-92906000D01*
X212254392Y-92906000D01*
X212246903Y-92909102D01*
X212045283Y-93043820D01*
X211873820Y-93215283D01*
X211739102Y-93416903D01*
X211646307Y-93640931D01*
X211599000Y-93878757D01*
X211599000Y-94121243D01*
X211646307Y-94359069D01*
X211739102Y-94583097D01*
X211873820Y-94784717D01*
X212045283Y-94956180D01*
X212246903Y-95090898D01*
X212470931Y-95183693D01*
X212708757Y-95231000D01*
X212951243Y-95231000D01*
X213189069Y-95183693D01*
X213413097Y-95090898D01*
X213614717Y-94956180D01*
X213786180Y-94784717D01*
X213920898Y-94583097D01*
X214013693Y-94359069D01*
X214061000Y-94121243D01*
X214061000Y-93878757D01*
X214013693Y-93640931D01*
X213920898Y-93416903D01*
X213786180Y-93215283D01*
X213614717Y-93043820D01*
X213413097Y-92909102D01*
X213405608Y-92906000D01*
X214794392Y-92906000D01*
X214786903Y-92909102D01*
X214585283Y-93043820D01*
X214413820Y-93215283D01*
X214279102Y-93416903D01*
X214186307Y-93640931D01*
X214139000Y-93878757D01*
X214139000Y-94121243D01*
X214186307Y-94359069D01*
X214279102Y-94583097D01*
X214413820Y-94784717D01*
X214585283Y-94956180D01*
X214786903Y-95090898D01*
X215010931Y-95183693D01*
X215248757Y-95231000D01*
X215491243Y-95231000D01*
X215729069Y-95183693D01*
X215953097Y-95090898D01*
X216154717Y-94956180D01*
X216326180Y-94784717D01*
X216460898Y-94583097D01*
X216553693Y-94359069D01*
X216601000Y-94121243D01*
X216601000Y-93878757D01*
X216553693Y-93640931D01*
X216460898Y-93416903D01*
X216326180Y-93215283D01*
X216154717Y-93043820D01*
X215953097Y-92909102D01*
X215945608Y-92906000D01*
X217334392Y-92906000D01*
X217326903Y-92909102D01*
X217125283Y-93043820D01*
X216953820Y-93215283D01*
X216819102Y-93416903D01*
X216726307Y-93640931D01*
X216679000Y-93878757D01*
X216679000Y-94121243D01*
X216726307Y-94359069D01*
X216819102Y-94583097D01*
X216953820Y-94784717D01*
X217125283Y-94956180D01*
X217326903Y-95090898D01*
X217550931Y-95183693D01*
X217788757Y-95231000D01*
X218031243Y-95231000D01*
X218269069Y-95183693D01*
X218493097Y-95090898D01*
X218694717Y-94956180D01*
X218866180Y-94784717D01*
X219000898Y-94583097D01*
X219093693Y-94359069D01*
X219141000Y-94121243D01*
X219141000Y-93878757D01*
X219093693Y-93640931D01*
X219000898Y-93416903D01*
X218866180Y-93215283D01*
X218694717Y-93043820D01*
X218493097Y-92909102D01*
X218485608Y-92906000D01*
X219874392Y-92906000D01*
X219866903Y-92909102D01*
X219665283Y-93043820D01*
X219493820Y-93215283D01*
X219359102Y-93416903D01*
X219266307Y-93640931D01*
X219219000Y-93878757D01*
X219219000Y-94121243D01*
X219266307Y-94359069D01*
X219359102Y-94583097D01*
X219493820Y-94784717D01*
X219665283Y-94956180D01*
X219866903Y-95090898D01*
X220090931Y-95183693D01*
X220328757Y-95231000D01*
X220571243Y-95231000D01*
X220809069Y-95183693D01*
X221033097Y-95090898D01*
X221234717Y-94956180D01*
X221406180Y-94784717D01*
X221540898Y-94583097D01*
X221633693Y-94359069D01*
X221681000Y-94121243D01*
X221681000Y-93878757D01*
X221633693Y-93640931D01*
X221540898Y-93416903D01*
X221406180Y-93215283D01*
X221234717Y-93043820D01*
X221033097Y-92909102D01*
X221025608Y-92906000D01*
X226873000Y-92906000D01*
X226873000Y-106000000D01*
X226875440Y-106024776D01*
X226882667Y-106048601D01*
X226894403Y-106070557D01*
X226910197Y-106089803D01*
X226929443Y-106105597D01*
X226951399Y-106117333D01*
X226975224Y-106124560D01*
X227000000Y-106127000D01*
X228873000Y-106127000D01*
X228873000Y-108000000D01*
X228875440Y-108024776D01*
X228882667Y-108048601D01*
X228894403Y-108070557D01*
X228910197Y-108089803D01*
X228929443Y-108105597D01*
X228951399Y-108117333D01*
X228975224Y-108124560D01*
X229000000Y-108127000D01*
X232500000Y-108127000D01*
X232524776Y-108124560D01*
X232548601Y-108117333D01*
X232570557Y-108105597D01*
X232589803Y-108089803D01*
X232605597Y-108070557D01*
X232617333Y-108048601D01*
X232624560Y-108024776D01*
X232627000Y-108000000D01*
X232627000Y-104127000D01*
X242094001Y-104127000D01*
X242094000Y-117094000D01*
X182906000Y-117094000D01*
X182906000Y-115595993D01*
X211044000Y-115595993D01*
X211044000Y-115804007D01*
X211084581Y-116008024D01*
X211164185Y-116200204D01*
X211279751Y-116373161D01*
X211426839Y-116520249D01*
X211599796Y-116635815D01*
X211791976Y-116715419D01*
X211995993Y-116756000D01*
X212204007Y-116756000D01*
X212408024Y-116715419D01*
X212600204Y-116635815D01*
X212773161Y-116520249D01*
X212920249Y-116373161D01*
X213035815Y-116200204D01*
X213042157Y-116184893D01*
X213042157Y-116375000D01*
X213049513Y-116449689D01*
X213071299Y-116521508D01*
X213106678Y-116587696D01*
X213154289Y-116645711D01*
X213212304Y-116693322D01*
X213278492Y-116728701D01*
X213350311Y-116750487D01*
X213425000Y-116757843D01*
X214775000Y-116757843D01*
X214849689Y-116750487D01*
X214921508Y-116728701D01*
X214987696Y-116693322D01*
X215045711Y-116645711D01*
X215093322Y-116587696D01*
X215128701Y-116521508D01*
X215150487Y-116449689D01*
X215157843Y-116375000D01*
X215157843Y-115025000D01*
X215150487Y-114950311D01*
X215128701Y-114878492D01*
X215093322Y-114812304D01*
X215045711Y-114754289D01*
X214987696Y-114706678D01*
X214921508Y-114671299D01*
X214849689Y-114649513D01*
X214775000Y-114642157D01*
X213425000Y-114642157D01*
X213350311Y-114649513D01*
X213278492Y-114671299D01*
X213212304Y-114706678D01*
X213154289Y-114754289D01*
X213106678Y-114812304D01*
X213071299Y-114878492D01*
X213049513Y-114950311D01*
X213042157Y-115025000D01*
X213042157Y-115215107D01*
X213035815Y-115199796D01*
X212920249Y-115026839D01*
X212773161Y-114879751D01*
X212600204Y-114764185D01*
X212408024Y-114684581D01*
X212204007Y-114644000D01*
X211995993Y-114644000D01*
X211791976Y-114684581D01*
X211599796Y-114764185D01*
X211426839Y-114879751D01*
X211279751Y-115026839D01*
X211164185Y-115199796D01*
X211084581Y-115391976D01*
X211044000Y-115595993D01*
X182906000Y-115595993D01*
X182906000Y-107389400D01*
X201230090Y-107389400D01*
X201260762Y-107490528D01*
X201368527Y-107723629D01*
X201519697Y-107931227D01*
X201708463Y-108105344D01*
X201874283Y-108206714D01*
X201824839Y-108239751D01*
X201677751Y-108386839D01*
X201562185Y-108559796D01*
X201482581Y-108751976D01*
X201442000Y-108955993D01*
X201442000Y-109164007D01*
X201482581Y-109368024D01*
X201562185Y-109560204D01*
X201677751Y-109733161D01*
X201824839Y-109880249D01*
X201997796Y-109995815D01*
X202189976Y-110075419D01*
X202393993Y-110116000D01*
X202602007Y-110116000D01*
X202806024Y-110075419D01*
X202998204Y-109995815D01*
X203171161Y-109880249D01*
X203318249Y-109733161D01*
X203433815Y-109560204D01*
X203513419Y-109368024D01*
X203554000Y-109164007D01*
X203554000Y-108955993D01*
X203513419Y-108751976D01*
X203433815Y-108559796D01*
X203318249Y-108386839D01*
X203256410Y-108325000D01*
X209442157Y-108325000D01*
X209442157Y-109675000D01*
X209449513Y-109749689D01*
X209471299Y-109821508D01*
X209506678Y-109887696D01*
X209554289Y-109945711D01*
X209612304Y-109993322D01*
X209678492Y-110028701D01*
X209750311Y-110050487D01*
X209825000Y-110057843D01*
X211175000Y-110057843D01*
X211249689Y-110050487D01*
X211321508Y-110028701D01*
X211387696Y-109993322D01*
X211445711Y-109945711D01*
X211493322Y-109887696D01*
X211528701Y-109821508D01*
X211550487Y-109749689D01*
X211557843Y-109675000D01*
X211557843Y-109484893D01*
X211564185Y-109500204D01*
X211679751Y-109673161D01*
X211826839Y-109820249D01*
X211999796Y-109935815D01*
X212191976Y-110015419D01*
X212395993Y-110056000D01*
X212604007Y-110056000D01*
X212808024Y-110015419D01*
X213000204Y-109935815D01*
X213173161Y-109820249D01*
X213320249Y-109673161D01*
X213435815Y-109500204D01*
X213500000Y-109345249D01*
X213564185Y-109500204D01*
X213679751Y-109673161D01*
X213826839Y-109820249D01*
X213999796Y-109935815D01*
X214191976Y-110015419D01*
X214395993Y-110056000D01*
X214604007Y-110056000D01*
X214808024Y-110015419D01*
X215000204Y-109935815D01*
X215173161Y-109820249D01*
X215320249Y-109673161D01*
X215435815Y-109500204D01*
X215500000Y-109345249D01*
X215564185Y-109500204D01*
X215679751Y-109673161D01*
X215826839Y-109820249D01*
X215999796Y-109935815D01*
X216191976Y-110015419D01*
X216395993Y-110056000D01*
X216604007Y-110056000D01*
X216808024Y-110015419D01*
X217000204Y-109935815D01*
X217173161Y-109820249D01*
X217320249Y-109673161D01*
X217371783Y-109596034D01*
X219769000Y-109596034D01*
X219769000Y-109887766D01*
X219825914Y-110173892D01*
X219937555Y-110443417D01*
X220099632Y-110685983D01*
X220305917Y-110892268D01*
X220548483Y-111054345D01*
X220818008Y-111165986D01*
X221104134Y-111222900D01*
X221395866Y-111222900D01*
X221681992Y-111165986D01*
X221951517Y-111054345D01*
X222194083Y-110892268D01*
X222400368Y-110685983D01*
X222562445Y-110443417D01*
X222674086Y-110173892D01*
X222731000Y-109887766D01*
X222731000Y-109596034D01*
X222674086Y-109309908D01*
X222562445Y-109040383D01*
X222400368Y-108797817D01*
X222194083Y-108591532D01*
X221951517Y-108429455D01*
X221681992Y-108317814D01*
X221395866Y-108260900D01*
X221104134Y-108260900D01*
X220818008Y-108317814D01*
X220548483Y-108429455D01*
X220305917Y-108591532D01*
X220099632Y-108797817D01*
X219937555Y-109040383D01*
X219825914Y-109309908D01*
X219769000Y-109596034D01*
X217371783Y-109596034D01*
X217435815Y-109500204D01*
X217515419Y-109308024D01*
X217556000Y-109104007D01*
X217556000Y-108895993D01*
X217515419Y-108691976D01*
X217435815Y-108499796D01*
X217320249Y-108326839D01*
X217173161Y-108179751D01*
X217000204Y-108064185D01*
X216808024Y-107984581D01*
X216604007Y-107944000D01*
X216395993Y-107944000D01*
X216191976Y-107984581D01*
X216053756Y-108041834D01*
X216101748Y-107993842D01*
X216186530Y-107866958D01*
X216244928Y-107725972D01*
X216274700Y-107576301D01*
X216274700Y-107423699D01*
X216244928Y-107274028D01*
X216186530Y-107133042D01*
X216101748Y-107006158D01*
X215993842Y-106898252D01*
X215866958Y-106813470D01*
X215725972Y-106755072D01*
X215576301Y-106725300D01*
X215423699Y-106725300D01*
X215274028Y-106755072D01*
X215133042Y-106813470D01*
X215006158Y-106898252D01*
X214898252Y-107006158D01*
X214813470Y-107133042D01*
X214755072Y-107274028D01*
X214725300Y-107423699D01*
X214725300Y-107576301D01*
X214755072Y-107725972D01*
X214813470Y-107866958D01*
X214898252Y-107993842D01*
X214946244Y-108041834D01*
X214808024Y-107984581D01*
X214604007Y-107944000D01*
X214395993Y-107944000D01*
X214191976Y-107984581D01*
X213999796Y-108064185D01*
X213826839Y-108179751D01*
X213679751Y-108326839D01*
X213564185Y-108499796D01*
X213500000Y-108654751D01*
X213435815Y-108499796D01*
X213320249Y-108326839D01*
X213173161Y-108179751D01*
X213000204Y-108064185D01*
X212808024Y-107984581D01*
X212604007Y-107944000D01*
X212395993Y-107944000D01*
X212191976Y-107984581D01*
X211999796Y-108064185D01*
X211826839Y-108179751D01*
X211679751Y-108326839D01*
X211564185Y-108499796D01*
X211557843Y-108515107D01*
X211557843Y-108325000D01*
X211550487Y-108250311D01*
X211528701Y-108178492D01*
X211493322Y-108112304D01*
X211445711Y-108054289D01*
X211387696Y-108006678D01*
X211321508Y-107971299D01*
X211249689Y-107949513D01*
X211175000Y-107942157D01*
X209825000Y-107942157D01*
X209750311Y-107949513D01*
X209678492Y-107971299D01*
X209612304Y-108006678D01*
X209554289Y-108054289D01*
X209506678Y-108112304D01*
X209471299Y-108178492D01*
X209449513Y-108250311D01*
X209442157Y-108325000D01*
X203256410Y-108325000D01*
X203171161Y-108239751D01*
X203121717Y-108206714D01*
X203287537Y-108105344D01*
X203476303Y-107931227D01*
X203627473Y-107723629D01*
X203735238Y-107490528D01*
X203765910Y-107389400D01*
X203642224Y-107187000D01*
X202625000Y-107187000D01*
X202625000Y-107207000D01*
X202371000Y-107207000D01*
X202371000Y-107187000D01*
X201353776Y-107187000D01*
X201230090Y-107389400D01*
X182906000Y-107389400D01*
X182906000Y-103389400D01*
X201230090Y-103389400D01*
X201260762Y-103490528D01*
X201368527Y-103723629D01*
X201519697Y-103931227D01*
X201708463Y-104105344D01*
X201874283Y-104206714D01*
X201824839Y-104239751D01*
X201677751Y-104386839D01*
X201562185Y-104559796D01*
X201482581Y-104751976D01*
X201442000Y-104955993D01*
X201442000Y-105164007D01*
X201482581Y-105368024D01*
X201562185Y-105560204D01*
X201677751Y-105733161D01*
X201824839Y-105880249D01*
X201874283Y-105913286D01*
X201708463Y-106014656D01*
X201519697Y-106188773D01*
X201368527Y-106396371D01*
X201260762Y-106629472D01*
X201230090Y-106730600D01*
X201353776Y-106933000D01*
X202371000Y-106933000D01*
X202371000Y-106913000D01*
X202625000Y-106913000D01*
X202625000Y-106933000D01*
X203642224Y-106933000D01*
X203765910Y-106730600D01*
X203735238Y-106629472D01*
X203627473Y-106396371D01*
X203476303Y-106188773D01*
X203287537Y-106014656D01*
X203138751Y-105923699D01*
X207725300Y-105923699D01*
X207725300Y-106076301D01*
X207755072Y-106225972D01*
X207813470Y-106366958D01*
X207898252Y-106493842D01*
X208006158Y-106601748D01*
X208133042Y-106686530D01*
X208274028Y-106744928D01*
X208423699Y-106774700D01*
X208576301Y-106774700D01*
X208725972Y-106744928D01*
X208866958Y-106686530D01*
X208993842Y-106601748D01*
X209101748Y-106493842D01*
X209186530Y-106366958D01*
X209244928Y-106225972D01*
X209274700Y-106076301D01*
X209274700Y-105923699D01*
X209274698Y-105923685D01*
X217225314Y-105923685D01*
X217225314Y-106076287D01*
X217255086Y-106225958D01*
X217313484Y-106366944D01*
X217398266Y-106493828D01*
X217506172Y-106601734D01*
X217633056Y-106686516D01*
X217774042Y-106744914D01*
X217923713Y-106774686D01*
X218076315Y-106774686D01*
X218225986Y-106744914D01*
X218366972Y-106686516D01*
X218493856Y-106601734D01*
X218601762Y-106493828D01*
X218686544Y-106366944D01*
X218744942Y-106225958D01*
X218774714Y-106076287D01*
X218774714Y-105923685D01*
X218744942Y-105774014D01*
X218686544Y-105633028D01*
X218601762Y-105506144D01*
X218493856Y-105398238D01*
X218366972Y-105313456D01*
X218225986Y-105255058D01*
X218076315Y-105225286D01*
X217923713Y-105225286D01*
X217774042Y-105255058D01*
X217633056Y-105313456D01*
X217506172Y-105398238D01*
X217398266Y-105506144D01*
X217313484Y-105633028D01*
X217255086Y-105774014D01*
X217225314Y-105923685D01*
X209274698Y-105923685D01*
X209244928Y-105774028D01*
X209186530Y-105633042D01*
X209101748Y-105506158D01*
X208993842Y-105398252D01*
X208866958Y-105313470D01*
X208725972Y-105255072D01*
X208576301Y-105225300D01*
X208423699Y-105225300D01*
X208274028Y-105255072D01*
X208133042Y-105313470D01*
X208006158Y-105398252D01*
X207898252Y-105506158D01*
X207813470Y-105633042D01*
X207755072Y-105774028D01*
X207725300Y-105923699D01*
X203138751Y-105923699D01*
X203121717Y-105913286D01*
X203171161Y-105880249D01*
X203318249Y-105733161D01*
X203433815Y-105560204D01*
X203513419Y-105368024D01*
X203554000Y-105164007D01*
X203554000Y-104955993D01*
X203513419Y-104751976D01*
X203433815Y-104559796D01*
X203318249Y-104386839D01*
X203171161Y-104239751D01*
X203121717Y-104206714D01*
X203287537Y-104105344D01*
X203476303Y-103931227D01*
X203627473Y-103723629D01*
X203735238Y-103490528D01*
X203765910Y-103389400D01*
X203642224Y-103187000D01*
X202625000Y-103187000D01*
X202625000Y-103207000D01*
X202371000Y-103207000D01*
X202371000Y-103187000D01*
X201353776Y-103187000D01*
X201230090Y-103389400D01*
X182906000Y-103389400D01*
X182906000Y-102730600D01*
X201230090Y-102730600D01*
X201353776Y-102933000D01*
X202371000Y-102933000D01*
X202371000Y-102913000D01*
X202625000Y-102913000D01*
X202625000Y-102933000D01*
X203642224Y-102933000D01*
X203765910Y-102730600D01*
X203735238Y-102629472D01*
X203627473Y-102396371D01*
X203476303Y-102188773D01*
X203350090Y-102072354D01*
X203385696Y-102053322D01*
X203443711Y-102005711D01*
X203491322Y-101947696D01*
X203526701Y-101881508D01*
X203548487Y-101809689D01*
X203555843Y-101735000D01*
X203555843Y-100385000D01*
X203548487Y-100310311D01*
X203526701Y-100238492D01*
X203491322Y-100172304D01*
X203443711Y-100114289D01*
X203385696Y-100066678D01*
X203319508Y-100031299D01*
X203247689Y-100009513D01*
X203173000Y-100002157D01*
X201823000Y-100002157D01*
X201748311Y-100009513D01*
X201676492Y-100031299D01*
X201610304Y-100066678D01*
X201552289Y-100114289D01*
X201504678Y-100172304D01*
X201469299Y-100238492D01*
X201447513Y-100310311D01*
X201440157Y-100385000D01*
X201440157Y-101735000D01*
X201447513Y-101809689D01*
X201469299Y-101881508D01*
X201504678Y-101947696D01*
X201552289Y-102005711D01*
X201610304Y-102053322D01*
X201645910Y-102072354D01*
X201519697Y-102188773D01*
X201368527Y-102396371D01*
X201260762Y-102629472D01*
X201230090Y-102730600D01*
X182906000Y-102730600D01*
X182906000Y-100312334D01*
X196019000Y-100312334D01*
X196019000Y-100604066D01*
X196075914Y-100890192D01*
X196187555Y-101159717D01*
X196349632Y-101402283D01*
X196555917Y-101608568D01*
X196798483Y-101770645D01*
X197068008Y-101882286D01*
X197354134Y-101939200D01*
X197645866Y-101939200D01*
X197931992Y-101882286D01*
X198201517Y-101770645D01*
X198444083Y-101608568D01*
X198650368Y-101402283D01*
X198812445Y-101159717D01*
X198924086Y-100890192D01*
X198981000Y-100604066D01*
X198981000Y-100312334D01*
X198924086Y-100026208D01*
X198812445Y-99756683D01*
X198650368Y-99514117D01*
X198444083Y-99307832D01*
X198201517Y-99145755D01*
X197931992Y-99034114D01*
X197645866Y-98977200D01*
X197354134Y-98977200D01*
X197068008Y-99034114D01*
X196798483Y-99145755D01*
X196555917Y-99307832D01*
X196349632Y-99514117D01*
X196187555Y-99756683D01*
X196075914Y-100026208D01*
X196019000Y-100312334D01*
X182906000Y-100312334D01*
X182906000Y-92906000D01*
X189873000Y-92906000D01*
X189873000Y-97000000D01*
G37*
%TD.AperFunction*%
%TD*%
M02*
