%TF.GenerationSoftware,KiCad,Pcbnew,5.1.9-73d0e3b20d~88~ubuntu20.04.1*%
%TF.CreationDate,2021-03-15T23:00:21-05:00*%
%TF.ProjectId,portalgun,706f7274-616c-4677-956e-2e6b69636164,Draft A*%
%TF.SameCoordinates,Original*%
%TF.FileFunction,Copper,L2,Inr*%
%TF.FilePolarity,Positive*%
%FSLAX46Y46*%
G04 Gerber Fmt 4.6, Leading zero omitted, Abs format (unit mm)*
G04 Created by KiCad (PCBNEW 5.1.9-73d0e3b20d~88~ubuntu20.04.1) date 2021-03-15 23:00:21*
%MOMM*%
%LPD*%
G01*
G04 APERTURE LIST*
%TA.AperFunction,ComponentPad*%
%ADD10C,1.700000*%
%TD*%
%TA.AperFunction,ComponentPad*%
%ADD11O,0.800000X1.300000*%
%TD*%
%TA.AperFunction,ComponentPad*%
%ADD12O,1.350000X1.350000*%
%TD*%
%TA.AperFunction,ComponentPad*%
%ADD13R,1.350000X1.350000*%
%TD*%
%TA.AperFunction,ViaPad*%
%ADD14C,0.800000*%
%TD*%
%TA.AperFunction,ViaPad*%
%ADD15C,0.787400*%
%TD*%
%TA.AperFunction,Conductor*%
%ADD16C,0.254000*%
%TD*%
%TA.AperFunction,Conductor*%
%ADD17C,0.100000*%
%TD*%
G04 APERTURE END LIST*
D10*
%TO.N,GND*%
%TO.C,SW1*%
X210058000Y-116078000D03*
X210058000Y-109578000D03*
%TO.N,/bootsel*%
X214558000Y-116078000D03*
X214558000Y-109578000D03*
%TD*%
%TO.N,GND*%
%TO.C,SW2*%
X210058000Y-106172000D03*
X210058000Y-99672000D03*
%TO.N,/~rst*%
X214558000Y-106172000D03*
X214558000Y-99672000D03*
%TD*%
D11*
%TO.N,~DISPLAY_RST*%
%TO.C,J2*%
X224670000Y-94996000D03*
%TO.N,SPI1_NSS*%
X223420000Y-94996000D03*
%TO.N,Net-(J2-Pad5)*%
X222170000Y-94996000D03*
%TO.N,Net-(J2-Pad4)*%
X220920000Y-94996000D03*
%TO.N,Net-(J2-Pad3)*%
X219670000Y-94996000D03*
%TO.N,GND*%
X218420000Y-94996000D03*
%TO.N,+5V*%
%TA.AperFunction,ComponentPad*%
G36*
G01*
X216770000Y-95446000D02*
X216770000Y-94546000D01*
G75*
G02*
X216970000Y-94346000I200000J0D01*
G01*
X217370000Y-94346000D01*
G75*
G02*
X217570000Y-94546000I0J-200000D01*
G01*
X217570000Y-95446000D01*
G75*
G02*
X217370000Y-95646000I-200000J0D01*
G01*
X216970000Y-95646000D01*
G75*
G02*
X216770000Y-95446000I0J200000D01*
G01*
G37*
%TD.AperFunction*%
%TD*%
%TO.N,GND*%
%TO.C,J9*%
X212792000Y-94996000D03*
%TO.N,ESP_TXD*%
X211542000Y-94996000D03*
%TO.N,ESP_RXD*%
X210292000Y-94996000D03*
%TO.N,+3V3*%
%TA.AperFunction,ComponentPad*%
G36*
G01*
X208642000Y-95446000D02*
X208642000Y-94546000D01*
G75*
G02*
X208842000Y-94346000I200000J0D01*
G01*
X209242000Y-94346000D01*
G75*
G02*
X209442000Y-94546000I0J-200000D01*
G01*
X209442000Y-95446000D01*
G75*
G02*
X209242000Y-95646000I-200000J0D01*
G01*
X208842000Y-95646000D01*
G75*
G02*
X208642000Y-95446000I0J200000D01*
G01*
G37*
%TD.AperFunction*%
%TD*%
D12*
%TO.N,Net-(J10-Pad2)*%
%TO.C,J10*%
X184500000Y-116000000D03*
D13*
%TO.N,Net-(J10-Pad1)*%
X186500000Y-116000000D03*
%TD*%
D12*
%TO.N,Net-(J5-Pad2)*%
%TO.C,J5*%
X191872000Y-116070000D03*
D13*
%TO.N,Net-(J5-Pad1)*%
X193872000Y-116070000D03*
%TD*%
D12*
%TO.N,/Audio DAC/AOUT-*%
%TO.C,J4*%
X202470000Y-94234000D03*
D13*
%TO.N,/Audio DAC/AOUT+*%
X204470000Y-94234000D03*
%TD*%
D12*
%TO.N,Net-(J3-Pad2)*%
%TO.C,J3*%
X198264000Y-116070000D03*
D13*
%TO.N,Net-(J3-Pad1)*%
X200264000Y-116070000D03*
%TD*%
D12*
%TO.N,GND*%
%TO.C,J1*%
X184182000Y-94234000D03*
D13*
%TO.N,VBAT*%
X186182000Y-94234000D03*
%TD*%
D14*
%TO.N,GND*%
X204724000Y-102870000D03*
X204216000Y-102362000D03*
D15*
X200914000Y-97282000D03*
D14*
X183388000Y-97028000D03*
X184278500Y-95632500D03*
X190111122Y-103565368D03*
X184658000Y-105156000D03*
X185928000Y-107696000D03*
X185928000Y-109474000D03*
X183642000Y-110744000D03*
X189484000Y-111506000D03*
X193294000Y-109474000D03*
X192484000Y-108252000D03*
X196596000Y-110744000D03*
X196596000Y-108966000D03*
X199136000Y-106934000D03*
X200914000Y-106934000D03*
X203962000Y-108204000D03*
X197358000Y-105156000D03*
X228600000Y-102362000D03*
X224790000Y-99314000D03*
X223012000Y-99314000D03*
X221488000Y-102616000D03*
X219964000Y-102616000D03*
X218440000Y-102870000D03*
X236220000Y-93472000D03*
X243078000Y-93472000D03*
X236220000Y-96520000D03*
X240030000Y-110490000D03*
X240030000Y-114300000D03*
X233426000Y-107188000D03*
X238252000Y-105410000D03*
X238760000Y-107442000D03*
X232410000Y-110998000D03*
X232410000Y-114300000D03*
X229870000Y-107188000D03*
X230886000Y-103378000D03*
X224028000Y-105410000D03*
X224282000Y-110744000D03*
X218440000Y-107442000D03*
X219456000Y-114300000D03*
X210058000Y-102362000D03*
X213995000Y-102616000D03*
X215646000Y-103886000D03*
X219710000Y-105410000D03*
X206121000Y-116840000D03*
X200279000Y-94234000D03*
X200279000Y-102743000D03*
X234188000Y-112014000D03*
X216281000Y-101345994D03*
%TO.N,VBAT*%
X189204500Y-97002500D03*
X187452000Y-97028000D03*
X186053500Y-95886500D03*
%TO.N,+5V*%
X187814500Y-102253500D03*
X185674000Y-102362000D03*
X188722000Y-103632012D03*
X195580000Y-110744000D03*
X197612000Y-110744000D03*
X184658000Y-101600000D03*
X187452000Y-111252000D03*
X194056000Y-111252000D03*
X202692000Y-110998000D03*
X203454000Y-110998000D03*
X204216000Y-110998000D03*
D15*
%TO.N,+3V3*%
X207772000Y-99314000D03*
X207772000Y-105410000D03*
D14*
X195834000Y-105156000D03*
X195707000Y-106807000D03*
X199136000Y-107950000D03*
X199135988Y-105918000D03*
X216916000Y-113792000D03*
X203962000Y-98806000D03*
X216724211Y-108357300D03*
X240538000Y-102870000D03*
X240792000Y-112522000D03*
X241808000Y-98806000D03*
%TO.N,ESP_RXD*%
X211836000Y-104140000D03*
%TO.N,ESP_TXD*%
X225298000Y-116332000D03*
X224536000Y-113538000D03*
X212852000Y-104140000D03*
%TO.N,LED1*%
X240792000Y-104394000D03*
X185674000Y-110744000D03*
%TO.N,LED2*%
X192278000Y-112268000D03*
X240538000Y-106426000D03*
%TO.N,I2S_LRCLK*%
X212344000Y-108458000D03*
X225783002Y-106403000D03*
%TO.N,I2S_BCLK*%
X212344006Y-107442000D03*
X225797006Y-104403000D03*
%TO.N,LED3*%
X240284000Y-108458000D03*
X201168000Y-113284000D03*
%TD*%
D16*
%TO.N,GND*%
X190594001Y-93269941D02*
X190594139Y-93271346D01*
X190594376Y-93305196D01*
X190596304Y-93323539D01*
X190596304Y-93341976D01*
X190596896Y-93347614D01*
X190678476Y-94074925D01*
X190686139Y-94110976D01*
X190693275Y-94147016D01*
X190694948Y-94152421D01*
X190694950Y-94152431D01*
X190694954Y-94152440D01*
X190916246Y-94850044D01*
X190930764Y-94883918D01*
X190944766Y-94917887D01*
X190947457Y-94922865D01*
X190947461Y-94922874D01*
X190947466Y-94922881D01*
X191300044Y-95564218D01*
X191320827Y-95594572D01*
X191341196Y-95625229D01*
X191344810Y-95629598D01*
X191815248Y-96190244D01*
X191841550Y-96216001D01*
X191867468Y-96242101D01*
X191871861Y-96245685D01*
X192442237Y-96704278D01*
X192473037Y-96724433D01*
X192503534Y-96745003D01*
X192508540Y-96747665D01*
X193157127Y-97086738D01*
X193191285Y-97100538D01*
X193225167Y-97114781D01*
X193230594Y-97116420D01*
X193932689Y-97323058D01*
X193968846Y-97329955D01*
X194004881Y-97337352D01*
X194010523Y-97337906D01*
X194739383Y-97404238D01*
X194776180Y-97403981D01*
X194812977Y-97404238D01*
X194818619Y-97403685D01*
X195546481Y-97327183D01*
X195582554Y-97319778D01*
X195618672Y-97312888D01*
X195624099Y-97311250D01*
X196323240Y-97094830D01*
X196357203Y-97080553D01*
X196391281Y-97066785D01*
X196396277Y-97064129D01*
X196396286Y-97064125D01*
X196396293Y-97064120D01*
X197040077Y-96716028D01*
X197070600Y-96695440D01*
X197101374Y-96675302D01*
X197105760Y-96671725D01*
X197105767Y-96671720D01*
X197105773Y-96671714D01*
X197669684Y-96205206D01*
X197695618Y-96179090D01*
X197721903Y-96153350D01*
X197725517Y-96148982D01*
X198188082Y-95581822D01*
X198208456Y-95551157D01*
X198229235Y-95520810D01*
X198231932Y-95515824D01*
X198575524Y-94869620D01*
X198589550Y-94835592D01*
X198604043Y-94801776D01*
X198605720Y-94796361D01*
X198806907Y-94129993D01*
X201414000Y-94129993D01*
X201414000Y-94338007D01*
X201454581Y-94542024D01*
X201534185Y-94734204D01*
X201649751Y-94907161D01*
X201796839Y-95054249D01*
X201969796Y-95169815D01*
X202161976Y-95249419D01*
X202365993Y-95290000D01*
X202574007Y-95290000D01*
X202778024Y-95249419D01*
X202970204Y-95169815D01*
X203143161Y-95054249D01*
X203290249Y-94907161D01*
X203405815Y-94734204D01*
X203412157Y-94718893D01*
X203412157Y-94909000D01*
X203419513Y-94983689D01*
X203441299Y-95055508D01*
X203476678Y-95121696D01*
X203524289Y-95179711D01*
X203582304Y-95227322D01*
X203648492Y-95262701D01*
X203720311Y-95284487D01*
X203795000Y-95291843D01*
X205145000Y-95291843D01*
X205219689Y-95284487D01*
X205291508Y-95262701D01*
X205357696Y-95227322D01*
X205415711Y-95179711D01*
X205463322Y-95121696D01*
X205498701Y-95055508D01*
X205520487Y-94983689D01*
X205527843Y-94909000D01*
X205527843Y-94546000D01*
X208259157Y-94546000D01*
X208259157Y-95446000D01*
X208270356Y-95559707D01*
X208303523Y-95669044D01*
X208357384Y-95769810D01*
X208429868Y-95858132D01*
X208518190Y-95930616D01*
X208618956Y-95984477D01*
X208728293Y-96017644D01*
X208842000Y-96028843D01*
X209242000Y-96028843D01*
X209355707Y-96017644D01*
X209465044Y-95984477D01*
X209565810Y-95930616D01*
X209654132Y-95858132D01*
X209719081Y-95778991D01*
X209737079Y-95800922D01*
X209856002Y-95898519D01*
X209991679Y-95971040D01*
X210138898Y-96015699D01*
X210292000Y-96030778D01*
X210445103Y-96015699D01*
X210592322Y-95971040D01*
X210727999Y-95898519D01*
X210846922Y-95800922D01*
X210917000Y-95715531D01*
X210987079Y-95800922D01*
X211106002Y-95898519D01*
X211241679Y-95971040D01*
X211388898Y-96015699D01*
X211542000Y-96030778D01*
X211695103Y-96015699D01*
X211842322Y-95971040D01*
X211975461Y-95899876D01*
X212079717Y-96017112D01*
X212243840Y-96141255D01*
X212429028Y-96230994D01*
X212505877Y-96240666D01*
X212665000Y-96112998D01*
X212665000Y-95123000D01*
X212919000Y-95123000D01*
X212919000Y-96112998D01*
X213078123Y-96240666D01*
X213154972Y-96230994D01*
X213340160Y-96141255D01*
X213504283Y-96017112D01*
X213641033Y-95863336D01*
X213745155Y-95685836D01*
X213812648Y-95491433D01*
X213840918Y-95287599D01*
X213675762Y-95123000D01*
X212919000Y-95123000D01*
X212665000Y-95123000D01*
X212645000Y-95123000D01*
X212645000Y-94869000D01*
X212665000Y-94869000D01*
X212665000Y-93879002D01*
X212919000Y-93879002D01*
X212919000Y-94869000D01*
X213675762Y-94869000D01*
X213840918Y-94704401D01*
X213818950Y-94546000D01*
X216387157Y-94546000D01*
X216387157Y-95446000D01*
X216398356Y-95559707D01*
X216431523Y-95669044D01*
X216485384Y-95769810D01*
X216557868Y-95858132D01*
X216646190Y-95930616D01*
X216746956Y-95984477D01*
X216856293Y-96017644D01*
X216970000Y-96028843D01*
X217370000Y-96028843D01*
X217483707Y-96017644D01*
X217593044Y-95984477D01*
X217651100Y-95953445D01*
X217707717Y-96017112D01*
X217871840Y-96141255D01*
X218057028Y-96230994D01*
X218133877Y-96240666D01*
X218293000Y-96112998D01*
X218293000Y-95123000D01*
X218273000Y-95123000D01*
X218273000Y-94869000D01*
X218293000Y-94869000D01*
X218293000Y-93879002D01*
X218547000Y-93879002D01*
X218547000Y-94869000D01*
X218567000Y-94869000D01*
X218567000Y-95123000D01*
X218547000Y-95123000D01*
X218547000Y-96112998D01*
X218706123Y-96240666D01*
X218782972Y-96230994D01*
X218968160Y-96141255D01*
X219132283Y-96017112D01*
X219236539Y-95899875D01*
X219369679Y-95971040D01*
X219516898Y-96015699D01*
X219670000Y-96030778D01*
X219823103Y-96015699D01*
X219970322Y-95971040D01*
X220105999Y-95898519D01*
X220224922Y-95800922D01*
X220295000Y-95715531D01*
X220365079Y-95800922D01*
X220484002Y-95898519D01*
X220619679Y-95971040D01*
X220766898Y-96015699D01*
X220920000Y-96030778D01*
X221073103Y-96015699D01*
X221220322Y-95971040D01*
X221355999Y-95898519D01*
X221474922Y-95800922D01*
X221545000Y-95715531D01*
X221615079Y-95800922D01*
X221734002Y-95898519D01*
X221869679Y-95971040D01*
X222016898Y-96015699D01*
X222170000Y-96030778D01*
X222323103Y-96015699D01*
X222470322Y-95971040D01*
X222605999Y-95898519D01*
X222724922Y-95800922D01*
X222795000Y-95715531D01*
X222865079Y-95800922D01*
X222984002Y-95898519D01*
X223119679Y-95971040D01*
X223266898Y-96015699D01*
X223420000Y-96030778D01*
X223573103Y-96015699D01*
X223720322Y-95971040D01*
X223855999Y-95898519D01*
X223974922Y-95800922D01*
X224045000Y-95715531D01*
X224115079Y-95800922D01*
X224234002Y-95898519D01*
X224369679Y-95971040D01*
X224516898Y-96015699D01*
X224670000Y-96030778D01*
X224823103Y-96015699D01*
X224970322Y-95971040D01*
X225105999Y-95898519D01*
X225224922Y-95800922D01*
X225322519Y-95681999D01*
X225395040Y-95546322D01*
X225439699Y-95399103D01*
X225451000Y-95284360D01*
X225451000Y-94707640D01*
X225439699Y-94592897D01*
X225395040Y-94445678D01*
X225322519Y-94310001D01*
X225224922Y-94191078D01*
X225105998Y-94093481D01*
X224970321Y-94020960D01*
X224823102Y-93976301D01*
X224670000Y-93961222D01*
X224516897Y-93976301D01*
X224369678Y-94020960D01*
X224234001Y-94093481D01*
X224115078Y-94191078D01*
X224045000Y-94276469D01*
X223974922Y-94191078D01*
X223855998Y-94093481D01*
X223720321Y-94020960D01*
X223573102Y-93976301D01*
X223420000Y-93961222D01*
X223266897Y-93976301D01*
X223119678Y-94020960D01*
X222984001Y-94093481D01*
X222865078Y-94191078D01*
X222795000Y-94276469D01*
X222724922Y-94191078D01*
X222605998Y-94093481D01*
X222470321Y-94020960D01*
X222323102Y-93976301D01*
X222170000Y-93961222D01*
X222016897Y-93976301D01*
X221869678Y-94020960D01*
X221734001Y-94093481D01*
X221615078Y-94191078D01*
X221545000Y-94276469D01*
X221474922Y-94191078D01*
X221355998Y-94093481D01*
X221220321Y-94020960D01*
X221073102Y-93976301D01*
X220920000Y-93961222D01*
X220766897Y-93976301D01*
X220619678Y-94020960D01*
X220484001Y-94093481D01*
X220365078Y-94191078D01*
X220295000Y-94276469D01*
X220224922Y-94191078D01*
X220105998Y-94093481D01*
X219970321Y-94020960D01*
X219823102Y-93976301D01*
X219670000Y-93961222D01*
X219516897Y-93976301D01*
X219369678Y-94020960D01*
X219236539Y-94092124D01*
X219132283Y-93974888D01*
X218968160Y-93850745D01*
X218782972Y-93761006D01*
X218706123Y-93751334D01*
X218547000Y-93879002D01*
X218293000Y-93879002D01*
X218133877Y-93751334D01*
X218057028Y-93761006D01*
X217871840Y-93850745D01*
X217707717Y-93974888D01*
X217651100Y-94038555D01*
X217593044Y-94007523D01*
X217483707Y-93974356D01*
X217370000Y-93963157D01*
X216970000Y-93963157D01*
X216856293Y-93974356D01*
X216746956Y-94007523D01*
X216646190Y-94061384D01*
X216557868Y-94133868D01*
X216485384Y-94222190D01*
X216431523Y-94322956D01*
X216398356Y-94432293D01*
X216387157Y-94546000D01*
X213818950Y-94546000D01*
X213812648Y-94500567D01*
X213745155Y-94306164D01*
X213641033Y-94128664D01*
X213504283Y-93974888D01*
X213340160Y-93850745D01*
X213154972Y-93761006D01*
X213078123Y-93751334D01*
X212919000Y-93879002D01*
X212665000Y-93879002D01*
X212505877Y-93751334D01*
X212429028Y-93761006D01*
X212243840Y-93850745D01*
X212079717Y-93974888D01*
X211975461Y-94092125D01*
X211842321Y-94020960D01*
X211695102Y-93976301D01*
X211542000Y-93961222D01*
X211388897Y-93976301D01*
X211241678Y-94020960D01*
X211106001Y-94093481D01*
X210987078Y-94191078D01*
X210917000Y-94276469D01*
X210846922Y-94191078D01*
X210727998Y-94093481D01*
X210592321Y-94020960D01*
X210445102Y-93976301D01*
X210292000Y-93961222D01*
X210138897Y-93976301D01*
X209991678Y-94020960D01*
X209856001Y-94093481D01*
X209737078Y-94191078D01*
X209719081Y-94213008D01*
X209654132Y-94133868D01*
X209565810Y-94061384D01*
X209465044Y-94007523D01*
X209355707Y-93974356D01*
X209242000Y-93963157D01*
X208842000Y-93963157D01*
X208728293Y-93974356D01*
X208618956Y-94007523D01*
X208518190Y-94061384D01*
X208429868Y-94133868D01*
X208357384Y-94222190D01*
X208303523Y-94322956D01*
X208270356Y-94432293D01*
X208259157Y-94546000D01*
X205527843Y-94546000D01*
X205527843Y-93559000D01*
X205520487Y-93484311D01*
X205498701Y-93412492D01*
X205463322Y-93346304D01*
X205415711Y-93288289D01*
X205357696Y-93240678D01*
X205291508Y-93205299D01*
X205219689Y-93183513D01*
X205145000Y-93176157D01*
X203795000Y-93176157D01*
X203720311Y-93183513D01*
X203648492Y-93205299D01*
X203582304Y-93240678D01*
X203524289Y-93288289D01*
X203476678Y-93346304D01*
X203441299Y-93412492D01*
X203419513Y-93484311D01*
X203412157Y-93559000D01*
X203412157Y-93749107D01*
X203405815Y-93733796D01*
X203290249Y-93560839D01*
X203143161Y-93413751D01*
X202970204Y-93298185D01*
X202778024Y-93218581D01*
X202574007Y-93178000D01*
X202365993Y-93178000D01*
X202161976Y-93218581D01*
X201969796Y-93298185D01*
X201796839Y-93413751D01*
X201649751Y-93560839D01*
X201534185Y-93733796D01*
X201454581Y-93925976D01*
X201414000Y-94129993D01*
X198806907Y-94129993D01*
X198817254Y-94095725D01*
X198824407Y-94059602D01*
X198832051Y-94023636D01*
X198832643Y-94018007D01*
X198832645Y-94017997D01*
X198832645Y-94017988D01*
X198904062Y-93289618D01*
X198906000Y-93269941D01*
X198906000Y-92906000D01*
X227094001Y-92906000D01*
X227094001Y-93269941D01*
X227094139Y-93271346D01*
X227094376Y-93305196D01*
X227096304Y-93323539D01*
X227096304Y-93341976D01*
X227096896Y-93347614D01*
X227178476Y-94074925D01*
X227186139Y-94110976D01*
X227193275Y-94147016D01*
X227194948Y-94152421D01*
X227194950Y-94152431D01*
X227194954Y-94152440D01*
X227416246Y-94850044D01*
X227430764Y-94883918D01*
X227444766Y-94917887D01*
X227447457Y-94922865D01*
X227447461Y-94922874D01*
X227447466Y-94922881D01*
X227800044Y-95564218D01*
X227820827Y-95594572D01*
X227841196Y-95625229D01*
X227844810Y-95629598D01*
X228315248Y-96190244D01*
X228341550Y-96216001D01*
X228367468Y-96242101D01*
X228371861Y-96245685D01*
X228942237Y-96704278D01*
X228973037Y-96724433D01*
X229003534Y-96745003D01*
X229008540Y-96747665D01*
X229657127Y-97086738D01*
X229691285Y-97100538D01*
X229725167Y-97114781D01*
X229730594Y-97116420D01*
X230432689Y-97323058D01*
X230468846Y-97329955D01*
X230504881Y-97337352D01*
X230510523Y-97337906D01*
X231239383Y-97404238D01*
X231276180Y-97403981D01*
X231312977Y-97404238D01*
X231318619Y-97403685D01*
X232046481Y-97327183D01*
X232082554Y-97319778D01*
X232118672Y-97312888D01*
X232124099Y-97311250D01*
X232823240Y-97094830D01*
X232857203Y-97080553D01*
X232891281Y-97066785D01*
X232896277Y-97064129D01*
X232896286Y-97064125D01*
X232896293Y-97064120D01*
X233540077Y-96716028D01*
X233570600Y-96695440D01*
X233601374Y-96675302D01*
X233605760Y-96671725D01*
X233605767Y-96671720D01*
X233605773Y-96671714D01*
X234169684Y-96205206D01*
X234195618Y-96179090D01*
X234221903Y-96153350D01*
X234225517Y-96148982D01*
X234688082Y-95581822D01*
X234708456Y-95551157D01*
X234729235Y-95520810D01*
X234731932Y-95515824D01*
X235075524Y-94869620D01*
X235089550Y-94835592D01*
X235104043Y-94801776D01*
X235105720Y-94796361D01*
X235317254Y-94095725D01*
X235324407Y-94059602D01*
X235332051Y-94023636D01*
X235332643Y-94018007D01*
X235332645Y-94017997D01*
X235332645Y-94017988D01*
X235404062Y-93289618D01*
X235406000Y-93269941D01*
X235406000Y-92906000D01*
X243594001Y-92906000D01*
X243594000Y-117094000D01*
X225470442Y-117094000D01*
X225525809Y-117082987D01*
X225667942Y-117024113D01*
X225795859Y-116938642D01*
X225904642Y-116829859D01*
X225990113Y-116701942D01*
X226048987Y-116559809D01*
X226079000Y-116408922D01*
X226079000Y-116255078D01*
X226048987Y-116104191D01*
X225990113Y-115962058D01*
X225904642Y-115834141D01*
X225795859Y-115725358D01*
X225667942Y-115639887D01*
X225525809Y-115581013D01*
X225374922Y-115551000D01*
X225221078Y-115551000D01*
X225070191Y-115581013D01*
X224928058Y-115639887D01*
X224800141Y-115725358D01*
X224691358Y-115834141D01*
X224605887Y-115962058D01*
X224547013Y-116104191D01*
X224517000Y-116255078D01*
X224517000Y-116408922D01*
X224547013Y-116559809D01*
X224605887Y-116701942D01*
X224691358Y-116829859D01*
X224800141Y-116938642D01*
X224928058Y-117024113D01*
X225070191Y-117082987D01*
X225125558Y-117094000D01*
X215253190Y-117094000D01*
X215342717Y-117034180D01*
X215514180Y-116862717D01*
X215648898Y-116661097D01*
X215741693Y-116437069D01*
X215789000Y-116199243D01*
X215789000Y-115956757D01*
X215741693Y-115718931D01*
X215648898Y-115494903D01*
X215514180Y-115293283D01*
X215342717Y-115121820D01*
X215141097Y-114987102D01*
X214917069Y-114894307D01*
X214679243Y-114847000D01*
X214436757Y-114847000D01*
X214198931Y-114894307D01*
X213974903Y-114987102D01*
X213773283Y-115121820D01*
X213601820Y-115293283D01*
X213467102Y-115494903D01*
X213374307Y-115718931D01*
X213327000Y-115956757D01*
X213327000Y-116199243D01*
X213374307Y-116437069D01*
X213467102Y-116661097D01*
X213601820Y-116862717D01*
X213773283Y-117034180D01*
X213862810Y-117094000D01*
X211151400Y-117094000D01*
X211202504Y-117042896D01*
X211086399Y-116926791D01*
X211335472Y-116849157D01*
X211461371Y-116585117D01*
X211533339Y-116301589D01*
X211548611Y-116009469D01*
X211506599Y-115719981D01*
X211408919Y-115444253D01*
X211335472Y-115306843D01*
X211086397Y-115229208D01*
X210237605Y-116078000D01*
X210251748Y-116092143D01*
X210072143Y-116271748D01*
X210058000Y-116257605D01*
X210043858Y-116271748D01*
X209864253Y-116092143D01*
X209878395Y-116078000D01*
X209029603Y-115229208D01*
X208780528Y-115306843D01*
X208654629Y-115570883D01*
X208582661Y-115854411D01*
X208567389Y-116146531D01*
X208609401Y-116436019D01*
X208707081Y-116711747D01*
X208780528Y-116849157D01*
X209029601Y-116926791D01*
X208913496Y-117042896D01*
X208964600Y-117094000D01*
X201094303Y-117094000D01*
X201151696Y-117063322D01*
X201209711Y-117015711D01*
X201257322Y-116957696D01*
X201292701Y-116891508D01*
X201314487Y-116819689D01*
X201321843Y-116745000D01*
X201321843Y-115395000D01*
X201314487Y-115320311D01*
X201292701Y-115248492D01*
X201257322Y-115182304D01*
X201209711Y-115124289D01*
X201151696Y-115076678D01*
X201101044Y-115049603D01*
X209209208Y-115049603D01*
X210058000Y-115898395D01*
X210906792Y-115049603D01*
X210829157Y-114800528D01*
X210565117Y-114674629D01*
X210281589Y-114602661D01*
X209989469Y-114587389D01*
X209699981Y-114629401D01*
X209424253Y-114727081D01*
X209286843Y-114800528D01*
X209209208Y-115049603D01*
X201101044Y-115049603D01*
X201085508Y-115041299D01*
X201013689Y-115019513D01*
X200939000Y-115012157D01*
X199589000Y-115012157D01*
X199514311Y-115019513D01*
X199442492Y-115041299D01*
X199376304Y-115076678D01*
X199318289Y-115124289D01*
X199270678Y-115182304D01*
X199235299Y-115248492D01*
X199213513Y-115320311D01*
X199206157Y-115395000D01*
X199206157Y-115585107D01*
X199199815Y-115569796D01*
X199084249Y-115396839D01*
X198937161Y-115249751D01*
X198764204Y-115134185D01*
X198572024Y-115054581D01*
X198368007Y-115014000D01*
X198159993Y-115014000D01*
X197955976Y-115054581D01*
X197763796Y-115134185D01*
X197590839Y-115249751D01*
X197443751Y-115396839D01*
X197328185Y-115569796D01*
X197248581Y-115761976D01*
X197208000Y-115965993D01*
X197208000Y-116174007D01*
X197248581Y-116378024D01*
X197328185Y-116570204D01*
X197443751Y-116743161D01*
X197590839Y-116890249D01*
X197763796Y-117005815D01*
X197955976Y-117085419D01*
X197999116Y-117094000D01*
X194702303Y-117094000D01*
X194759696Y-117063322D01*
X194817711Y-117015711D01*
X194865322Y-116957696D01*
X194900701Y-116891508D01*
X194922487Y-116819689D01*
X194929843Y-116745000D01*
X194929843Y-115395000D01*
X194922487Y-115320311D01*
X194900701Y-115248492D01*
X194865322Y-115182304D01*
X194817711Y-115124289D01*
X194759696Y-115076678D01*
X194693508Y-115041299D01*
X194621689Y-115019513D01*
X194547000Y-115012157D01*
X193197000Y-115012157D01*
X193122311Y-115019513D01*
X193050492Y-115041299D01*
X192984304Y-115076678D01*
X192926289Y-115124289D01*
X192878678Y-115182304D01*
X192843299Y-115248492D01*
X192821513Y-115320311D01*
X192814157Y-115395000D01*
X192814157Y-115585107D01*
X192807815Y-115569796D01*
X192692249Y-115396839D01*
X192545161Y-115249751D01*
X192372204Y-115134185D01*
X192180024Y-115054581D01*
X191976007Y-115014000D01*
X191767993Y-115014000D01*
X191563976Y-115054581D01*
X191371796Y-115134185D01*
X191198839Y-115249751D01*
X191051751Y-115396839D01*
X190936185Y-115569796D01*
X190856581Y-115761976D01*
X190816000Y-115965993D01*
X190816000Y-116174007D01*
X190856581Y-116378024D01*
X190936185Y-116570204D01*
X191051751Y-116743161D01*
X191198839Y-116890249D01*
X191371796Y-117005815D01*
X191563976Y-117085419D01*
X191607116Y-117094000D01*
X182906000Y-117094000D01*
X182906000Y-115895993D01*
X183444000Y-115895993D01*
X183444000Y-116104007D01*
X183484581Y-116308024D01*
X183564185Y-116500204D01*
X183679751Y-116673161D01*
X183826839Y-116820249D01*
X183999796Y-116935815D01*
X184191976Y-117015419D01*
X184395993Y-117056000D01*
X184604007Y-117056000D01*
X184808024Y-117015419D01*
X185000204Y-116935815D01*
X185173161Y-116820249D01*
X185320249Y-116673161D01*
X185435815Y-116500204D01*
X185442157Y-116484893D01*
X185442157Y-116675000D01*
X185449513Y-116749689D01*
X185471299Y-116821508D01*
X185506678Y-116887696D01*
X185554289Y-116945711D01*
X185612304Y-116993322D01*
X185678492Y-117028701D01*
X185750311Y-117050487D01*
X185825000Y-117057843D01*
X187175000Y-117057843D01*
X187249689Y-117050487D01*
X187321508Y-117028701D01*
X187387696Y-116993322D01*
X187445711Y-116945711D01*
X187493322Y-116887696D01*
X187528701Y-116821508D01*
X187550487Y-116749689D01*
X187557843Y-116675000D01*
X187557843Y-115325000D01*
X187550487Y-115250311D01*
X187528701Y-115178492D01*
X187493322Y-115112304D01*
X187445711Y-115054289D01*
X187387696Y-115006678D01*
X187321508Y-114971299D01*
X187249689Y-114949513D01*
X187175000Y-114942157D01*
X185825000Y-114942157D01*
X185750311Y-114949513D01*
X185678492Y-114971299D01*
X185612304Y-115006678D01*
X185554289Y-115054289D01*
X185506678Y-115112304D01*
X185471299Y-115178492D01*
X185449513Y-115250311D01*
X185442157Y-115325000D01*
X185442157Y-115515107D01*
X185435815Y-115499796D01*
X185320249Y-115326839D01*
X185173161Y-115179751D01*
X185000204Y-115064185D01*
X184808024Y-114984581D01*
X184604007Y-114944000D01*
X184395993Y-114944000D01*
X184191976Y-114984581D01*
X183999796Y-115064185D01*
X183826839Y-115179751D01*
X183679751Y-115326839D01*
X183564185Y-115499796D01*
X183484581Y-115691976D01*
X183444000Y-115895993D01*
X182906000Y-115895993D01*
X182906000Y-113207078D01*
X200387000Y-113207078D01*
X200387000Y-113360922D01*
X200417013Y-113511809D01*
X200475887Y-113653942D01*
X200561358Y-113781859D01*
X200670141Y-113890642D01*
X200798058Y-113976113D01*
X200940191Y-114034987D01*
X201091078Y-114065000D01*
X201244922Y-114065000D01*
X201395809Y-114034987D01*
X201537942Y-113976113D01*
X201665859Y-113890642D01*
X201774642Y-113781859D01*
X201819263Y-113715078D01*
X216135000Y-113715078D01*
X216135000Y-113868922D01*
X216165013Y-114019809D01*
X216223887Y-114161942D01*
X216309358Y-114289859D01*
X216418141Y-114398642D01*
X216546058Y-114484113D01*
X216688191Y-114542987D01*
X216839078Y-114573000D01*
X216992922Y-114573000D01*
X217143809Y-114542987D01*
X217285942Y-114484113D01*
X217413859Y-114398642D01*
X217522642Y-114289859D01*
X217608113Y-114161942D01*
X217666987Y-114019809D01*
X217697000Y-113868922D01*
X217697000Y-113715078D01*
X217666987Y-113564191D01*
X217624276Y-113461078D01*
X223755000Y-113461078D01*
X223755000Y-113614922D01*
X223785013Y-113765809D01*
X223843887Y-113907942D01*
X223929358Y-114035859D01*
X224038141Y-114144642D01*
X224166058Y-114230113D01*
X224308191Y-114288987D01*
X224459078Y-114319000D01*
X224612922Y-114319000D01*
X224763809Y-114288987D01*
X224905942Y-114230113D01*
X225033859Y-114144642D01*
X225142642Y-114035859D01*
X225228113Y-113907942D01*
X225286987Y-113765809D01*
X225317000Y-113614922D01*
X225317000Y-113461078D01*
X225286987Y-113310191D01*
X225228113Y-113168058D01*
X225142642Y-113040141D01*
X225033859Y-112931358D01*
X224905942Y-112845887D01*
X224763809Y-112787013D01*
X224612922Y-112757000D01*
X224459078Y-112757000D01*
X224308191Y-112787013D01*
X224166058Y-112845887D01*
X224038141Y-112931358D01*
X223929358Y-113040141D01*
X223843887Y-113168058D01*
X223785013Y-113310191D01*
X223755000Y-113461078D01*
X217624276Y-113461078D01*
X217608113Y-113422058D01*
X217522642Y-113294141D01*
X217413859Y-113185358D01*
X217285942Y-113099887D01*
X217143809Y-113041013D01*
X216992922Y-113011000D01*
X216839078Y-113011000D01*
X216688191Y-113041013D01*
X216546058Y-113099887D01*
X216418141Y-113185358D01*
X216309358Y-113294141D01*
X216223887Y-113422058D01*
X216165013Y-113564191D01*
X216135000Y-113715078D01*
X201819263Y-113715078D01*
X201860113Y-113653942D01*
X201918987Y-113511809D01*
X201949000Y-113360922D01*
X201949000Y-113207078D01*
X201918987Y-113056191D01*
X201860113Y-112914058D01*
X201774642Y-112786141D01*
X201665859Y-112677358D01*
X201537942Y-112591887D01*
X201395809Y-112533013D01*
X201244922Y-112503000D01*
X201091078Y-112503000D01*
X200940191Y-112533013D01*
X200798058Y-112591887D01*
X200670141Y-112677358D01*
X200561358Y-112786141D01*
X200475887Y-112914058D01*
X200417013Y-113056191D01*
X200387000Y-113207078D01*
X182906000Y-113207078D01*
X182906000Y-112191078D01*
X191497000Y-112191078D01*
X191497000Y-112344922D01*
X191527013Y-112495809D01*
X191585887Y-112637942D01*
X191671358Y-112765859D01*
X191780141Y-112874642D01*
X191908058Y-112960113D01*
X192050191Y-113018987D01*
X192201078Y-113049000D01*
X192354922Y-113049000D01*
X192505809Y-113018987D01*
X192647942Y-112960113D01*
X192775859Y-112874642D01*
X192884642Y-112765859D01*
X192970113Y-112637942D01*
X193028987Y-112495809D01*
X193039077Y-112445078D01*
X240011000Y-112445078D01*
X240011000Y-112598922D01*
X240041013Y-112749809D01*
X240099887Y-112891942D01*
X240185358Y-113019859D01*
X240294141Y-113128642D01*
X240422058Y-113214113D01*
X240564191Y-113272987D01*
X240715078Y-113303000D01*
X240868922Y-113303000D01*
X241019809Y-113272987D01*
X241161942Y-113214113D01*
X241289859Y-113128642D01*
X241398642Y-113019859D01*
X241484113Y-112891942D01*
X241542987Y-112749809D01*
X241573000Y-112598922D01*
X241573000Y-112445078D01*
X241542987Y-112294191D01*
X241484113Y-112152058D01*
X241398642Y-112024141D01*
X241289859Y-111915358D01*
X241161942Y-111829887D01*
X241019809Y-111771013D01*
X240868922Y-111741000D01*
X240715078Y-111741000D01*
X240564191Y-111771013D01*
X240422058Y-111829887D01*
X240294141Y-111915358D01*
X240185358Y-112024141D01*
X240099887Y-112152058D01*
X240041013Y-112294191D01*
X240011000Y-112445078D01*
X193039077Y-112445078D01*
X193059000Y-112344922D01*
X193059000Y-112191078D01*
X193028987Y-112040191D01*
X192970113Y-111898058D01*
X192884642Y-111770141D01*
X192775859Y-111661358D01*
X192647942Y-111575887D01*
X192505809Y-111517013D01*
X192354922Y-111487000D01*
X192201078Y-111487000D01*
X192050191Y-111517013D01*
X191908058Y-111575887D01*
X191780141Y-111661358D01*
X191671358Y-111770141D01*
X191585887Y-111898058D01*
X191527013Y-112040191D01*
X191497000Y-112191078D01*
X182906000Y-112191078D01*
X182906000Y-110667078D01*
X184893000Y-110667078D01*
X184893000Y-110820922D01*
X184923013Y-110971809D01*
X184981887Y-111113942D01*
X185067358Y-111241859D01*
X185176141Y-111350642D01*
X185304058Y-111436113D01*
X185446191Y-111494987D01*
X185597078Y-111525000D01*
X185750922Y-111525000D01*
X185901809Y-111494987D01*
X186043942Y-111436113D01*
X186171859Y-111350642D01*
X186280642Y-111241859D01*
X186325263Y-111175078D01*
X186671000Y-111175078D01*
X186671000Y-111328922D01*
X186701013Y-111479809D01*
X186759887Y-111621942D01*
X186845358Y-111749859D01*
X186954141Y-111858642D01*
X187082058Y-111944113D01*
X187224191Y-112002987D01*
X187375078Y-112033000D01*
X187528922Y-112033000D01*
X187679809Y-112002987D01*
X187821942Y-111944113D01*
X187949859Y-111858642D01*
X188058642Y-111749859D01*
X188144113Y-111621942D01*
X188202987Y-111479809D01*
X188233000Y-111328922D01*
X188233000Y-111175078D01*
X193275000Y-111175078D01*
X193275000Y-111328922D01*
X193305013Y-111479809D01*
X193363887Y-111621942D01*
X193449358Y-111749859D01*
X193558141Y-111858642D01*
X193686058Y-111944113D01*
X193828191Y-112002987D01*
X193979078Y-112033000D01*
X194132922Y-112033000D01*
X194283809Y-112002987D01*
X194425942Y-111944113D01*
X194553859Y-111858642D01*
X194662642Y-111749859D01*
X194748113Y-111621942D01*
X194806987Y-111479809D01*
X194837000Y-111328922D01*
X194837000Y-111175078D01*
X194806987Y-111024191D01*
X194748113Y-110882058D01*
X194662642Y-110754141D01*
X194575579Y-110667078D01*
X194799000Y-110667078D01*
X194799000Y-110820922D01*
X194829013Y-110971809D01*
X194887887Y-111113942D01*
X194973358Y-111241859D01*
X195082141Y-111350642D01*
X195210058Y-111436113D01*
X195352191Y-111494987D01*
X195503078Y-111525000D01*
X195656922Y-111525000D01*
X195807809Y-111494987D01*
X195949942Y-111436113D01*
X196077859Y-111350642D01*
X196186642Y-111241859D01*
X196272113Y-111113942D01*
X196330987Y-110971809D01*
X196361000Y-110820922D01*
X196361000Y-110667078D01*
X196831000Y-110667078D01*
X196831000Y-110820922D01*
X196861013Y-110971809D01*
X196919887Y-111113942D01*
X197005358Y-111241859D01*
X197114141Y-111350642D01*
X197242058Y-111436113D01*
X197384191Y-111494987D01*
X197535078Y-111525000D01*
X197688922Y-111525000D01*
X197839809Y-111494987D01*
X197981942Y-111436113D01*
X198109859Y-111350642D01*
X198218642Y-111241859D01*
X198304113Y-111113942D01*
X198362987Y-110971809D01*
X198373077Y-110921078D01*
X201911000Y-110921078D01*
X201911000Y-111074922D01*
X201941013Y-111225809D01*
X201999887Y-111367942D01*
X202085358Y-111495859D01*
X202194141Y-111604642D01*
X202322058Y-111690113D01*
X202464191Y-111748987D01*
X202615078Y-111779000D01*
X202768922Y-111779000D01*
X202919809Y-111748987D01*
X203061942Y-111690113D01*
X203073000Y-111682724D01*
X203084058Y-111690113D01*
X203226191Y-111748987D01*
X203377078Y-111779000D01*
X203530922Y-111779000D01*
X203681809Y-111748987D01*
X203823942Y-111690113D01*
X203835000Y-111682724D01*
X203846058Y-111690113D01*
X203988191Y-111748987D01*
X204139078Y-111779000D01*
X204292922Y-111779000D01*
X204443809Y-111748987D01*
X204585942Y-111690113D01*
X204713859Y-111604642D01*
X204822642Y-111495859D01*
X204908113Y-111367942D01*
X204966987Y-111225809D01*
X204997000Y-111074922D01*
X204997000Y-110921078D01*
X204966987Y-110770191D01*
X204908113Y-110628058D01*
X204893640Y-110606397D01*
X209209208Y-110606397D01*
X209286843Y-110855472D01*
X209550883Y-110981371D01*
X209834411Y-111053339D01*
X210126531Y-111068611D01*
X210416019Y-111026599D01*
X210691747Y-110928919D01*
X210829157Y-110855472D01*
X210906792Y-110606397D01*
X210058000Y-109757605D01*
X209209208Y-110606397D01*
X204893640Y-110606397D01*
X204822642Y-110500141D01*
X204713859Y-110391358D01*
X204585942Y-110305887D01*
X204443809Y-110247013D01*
X204292922Y-110217000D01*
X204139078Y-110217000D01*
X203988191Y-110247013D01*
X203846058Y-110305887D01*
X203835000Y-110313276D01*
X203823942Y-110305887D01*
X203681809Y-110247013D01*
X203530922Y-110217000D01*
X203377078Y-110217000D01*
X203226191Y-110247013D01*
X203084058Y-110305887D01*
X203073000Y-110313276D01*
X203061942Y-110305887D01*
X202919809Y-110247013D01*
X202768922Y-110217000D01*
X202615078Y-110217000D01*
X202464191Y-110247013D01*
X202322058Y-110305887D01*
X202194141Y-110391358D01*
X202085358Y-110500141D01*
X201999887Y-110628058D01*
X201941013Y-110770191D01*
X201911000Y-110921078D01*
X198373077Y-110921078D01*
X198393000Y-110820922D01*
X198393000Y-110667078D01*
X198362987Y-110516191D01*
X198304113Y-110374058D01*
X198218642Y-110246141D01*
X198109859Y-110137358D01*
X197981942Y-110051887D01*
X197839809Y-109993013D01*
X197688922Y-109963000D01*
X197535078Y-109963000D01*
X197384191Y-109993013D01*
X197242058Y-110051887D01*
X197114141Y-110137358D01*
X197005358Y-110246141D01*
X196919887Y-110374058D01*
X196861013Y-110516191D01*
X196831000Y-110667078D01*
X196361000Y-110667078D01*
X196330987Y-110516191D01*
X196272113Y-110374058D01*
X196186642Y-110246141D01*
X196077859Y-110137358D01*
X195949942Y-110051887D01*
X195807809Y-109993013D01*
X195656922Y-109963000D01*
X195503078Y-109963000D01*
X195352191Y-109993013D01*
X195210058Y-110051887D01*
X195082141Y-110137358D01*
X194973358Y-110246141D01*
X194887887Y-110374058D01*
X194829013Y-110516191D01*
X194799000Y-110667078D01*
X194575579Y-110667078D01*
X194553859Y-110645358D01*
X194425942Y-110559887D01*
X194283809Y-110501013D01*
X194132922Y-110471000D01*
X193979078Y-110471000D01*
X193828191Y-110501013D01*
X193686058Y-110559887D01*
X193558141Y-110645358D01*
X193449358Y-110754141D01*
X193363887Y-110882058D01*
X193305013Y-111024191D01*
X193275000Y-111175078D01*
X188233000Y-111175078D01*
X188202987Y-111024191D01*
X188144113Y-110882058D01*
X188058642Y-110754141D01*
X187949859Y-110645358D01*
X187821942Y-110559887D01*
X187679809Y-110501013D01*
X187528922Y-110471000D01*
X187375078Y-110471000D01*
X187224191Y-110501013D01*
X187082058Y-110559887D01*
X186954141Y-110645358D01*
X186845358Y-110754141D01*
X186759887Y-110882058D01*
X186701013Y-111024191D01*
X186671000Y-111175078D01*
X186325263Y-111175078D01*
X186366113Y-111113942D01*
X186424987Y-110971809D01*
X186455000Y-110820922D01*
X186455000Y-110667078D01*
X186424987Y-110516191D01*
X186366113Y-110374058D01*
X186280642Y-110246141D01*
X186171859Y-110137358D01*
X186043942Y-110051887D01*
X185901809Y-109993013D01*
X185750922Y-109963000D01*
X185597078Y-109963000D01*
X185446191Y-109993013D01*
X185304058Y-110051887D01*
X185176141Y-110137358D01*
X185067358Y-110246141D01*
X184981887Y-110374058D01*
X184923013Y-110516191D01*
X184893000Y-110667078D01*
X182906000Y-110667078D01*
X182906000Y-109646531D01*
X208567389Y-109646531D01*
X208609401Y-109936019D01*
X208707081Y-110211747D01*
X208780528Y-110349157D01*
X209029603Y-110426792D01*
X209878395Y-109578000D01*
X210237605Y-109578000D01*
X211086397Y-110426792D01*
X211335472Y-110349157D01*
X211461371Y-110085117D01*
X211533339Y-109801589D01*
X211548611Y-109509469D01*
X211540962Y-109456757D01*
X213327000Y-109456757D01*
X213327000Y-109699243D01*
X213374307Y-109937069D01*
X213467102Y-110161097D01*
X213601820Y-110362717D01*
X213773283Y-110534180D01*
X213974903Y-110668898D01*
X214198931Y-110761693D01*
X214436757Y-110809000D01*
X214679243Y-110809000D01*
X214917069Y-110761693D01*
X215141097Y-110668898D01*
X215342717Y-110534180D01*
X215514180Y-110362717D01*
X215648898Y-110161097D01*
X215741693Y-109937069D01*
X215789000Y-109699243D01*
X215789000Y-109581260D01*
X219619000Y-109581260D01*
X219619000Y-109902540D01*
X219681678Y-110217645D01*
X219804626Y-110514468D01*
X219983119Y-110781602D01*
X220210298Y-111008781D01*
X220477432Y-111187274D01*
X220774255Y-111310222D01*
X221089360Y-111372900D01*
X221410640Y-111372900D01*
X221725745Y-111310222D01*
X222022568Y-111187274D01*
X222289702Y-111008781D01*
X222516881Y-110781602D01*
X222695374Y-110514468D01*
X222818322Y-110217645D01*
X222881000Y-109902540D01*
X222881000Y-109581260D01*
X222818322Y-109266155D01*
X222695374Y-108969332D01*
X222516881Y-108702198D01*
X222289702Y-108475019D01*
X222149110Y-108381078D01*
X239503000Y-108381078D01*
X239503000Y-108534922D01*
X239533013Y-108685809D01*
X239591887Y-108827942D01*
X239677358Y-108955859D01*
X239786141Y-109064642D01*
X239914058Y-109150113D01*
X240056191Y-109208987D01*
X240207078Y-109239000D01*
X240360922Y-109239000D01*
X240511809Y-109208987D01*
X240653942Y-109150113D01*
X240781859Y-109064642D01*
X240890642Y-108955859D01*
X240976113Y-108827942D01*
X241034987Y-108685809D01*
X241065000Y-108534922D01*
X241065000Y-108381078D01*
X241034987Y-108230191D01*
X240976113Y-108088058D01*
X240890642Y-107960141D01*
X240781859Y-107851358D01*
X240653942Y-107765887D01*
X240511809Y-107707013D01*
X240360922Y-107677000D01*
X240207078Y-107677000D01*
X240056191Y-107707013D01*
X239914058Y-107765887D01*
X239786141Y-107851358D01*
X239677358Y-107960141D01*
X239591887Y-108088058D01*
X239533013Y-108230191D01*
X239503000Y-108381078D01*
X222149110Y-108381078D01*
X222022568Y-108296526D01*
X221725745Y-108173578D01*
X221410640Y-108110900D01*
X221089360Y-108110900D01*
X220774255Y-108173578D01*
X220477432Y-108296526D01*
X220210298Y-108475019D01*
X219983119Y-108702198D01*
X219804626Y-108969332D01*
X219681678Y-109266155D01*
X219619000Y-109581260D01*
X215789000Y-109581260D01*
X215789000Y-109456757D01*
X215741693Y-109218931D01*
X215648898Y-108994903D01*
X215514180Y-108793283D01*
X215342717Y-108621820D01*
X215141097Y-108487102D01*
X214917069Y-108394307D01*
X214679243Y-108347000D01*
X214436757Y-108347000D01*
X214198931Y-108394307D01*
X213974903Y-108487102D01*
X213773283Y-108621820D01*
X213601820Y-108793283D01*
X213467102Y-108994903D01*
X213374307Y-109218931D01*
X213327000Y-109456757D01*
X211540962Y-109456757D01*
X211506599Y-109219981D01*
X211408919Y-108944253D01*
X211335472Y-108806843D01*
X211086397Y-108729208D01*
X210237605Y-109578000D01*
X209878395Y-109578000D01*
X209029603Y-108729208D01*
X208780528Y-108806843D01*
X208654629Y-109070883D01*
X208582661Y-109354411D01*
X208567389Y-109646531D01*
X182906000Y-109646531D01*
X182906000Y-107873078D01*
X198355000Y-107873078D01*
X198355000Y-108026922D01*
X198385013Y-108177809D01*
X198443887Y-108319942D01*
X198529358Y-108447859D01*
X198638141Y-108556642D01*
X198766058Y-108642113D01*
X198908191Y-108700987D01*
X199059078Y-108731000D01*
X199212922Y-108731000D01*
X199363809Y-108700987D01*
X199505942Y-108642113D01*
X199633859Y-108556642D01*
X199640898Y-108549603D01*
X209209208Y-108549603D01*
X210058000Y-109398395D01*
X210906792Y-108549603D01*
X210854264Y-108381078D01*
X211563000Y-108381078D01*
X211563000Y-108534922D01*
X211593013Y-108685809D01*
X211651887Y-108827942D01*
X211737358Y-108955859D01*
X211846141Y-109064642D01*
X211974058Y-109150113D01*
X212116191Y-109208987D01*
X212267078Y-109239000D01*
X212420922Y-109239000D01*
X212571809Y-109208987D01*
X212713942Y-109150113D01*
X212841859Y-109064642D01*
X212950642Y-108955859D01*
X213036113Y-108827942D01*
X213094987Y-108685809D01*
X213125000Y-108534922D01*
X213125000Y-108381078D01*
X213104970Y-108280378D01*
X215943211Y-108280378D01*
X215943211Y-108434222D01*
X215973224Y-108585109D01*
X216032098Y-108727242D01*
X216117569Y-108855159D01*
X216226352Y-108963942D01*
X216354269Y-109049413D01*
X216496402Y-109108287D01*
X216647289Y-109138300D01*
X216801133Y-109138300D01*
X216952020Y-109108287D01*
X217094153Y-109049413D01*
X217222070Y-108963942D01*
X217330853Y-108855159D01*
X217416324Y-108727242D01*
X217475198Y-108585109D01*
X217505211Y-108434222D01*
X217505211Y-108280378D01*
X217475198Y-108129491D01*
X217416324Y-107987358D01*
X217330853Y-107859441D01*
X217222070Y-107750658D01*
X217094153Y-107665187D01*
X216952020Y-107606313D01*
X216801133Y-107576300D01*
X216647289Y-107576300D01*
X216496402Y-107606313D01*
X216354269Y-107665187D01*
X216226352Y-107750658D01*
X216117569Y-107859441D01*
X216032098Y-107987358D01*
X215973224Y-108129491D01*
X215943211Y-108280378D01*
X213104970Y-108280378D01*
X213094987Y-108230191D01*
X213036113Y-108088058D01*
X212950642Y-107960141D01*
X212940504Y-107950003D01*
X212950648Y-107939859D01*
X213036119Y-107811942D01*
X213094993Y-107669809D01*
X213125006Y-107518922D01*
X213125006Y-107365078D01*
X213094993Y-107214191D01*
X213036119Y-107072058D01*
X212950648Y-106944141D01*
X212841865Y-106835358D01*
X212713948Y-106749887D01*
X212571815Y-106691013D01*
X212420928Y-106661000D01*
X212267084Y-106661000D01*
X212116197Y-106691013D01*
X211974064Y-106749887D01*
X211846147Y-106835358D01*
X211737364Y-106944141D01*
X211651893Y-107072058D01*
X211593019Y-107214191D01*
X211563006Y-107365078D01*
X211563006Y-107518922D01*
X211593019Y-107669809D01*
X211651893Y-107811942D01*
X211737364Y-107939859D01*
X211747502Y-107949997D01*
X211737358Y-107960141D01*
X211651887Y-108088058D01*
X211593013Y-108230191D01*
X211563000Y-108381078D01*
X210854264Y-108381078D01*
X210829157Y-108300528D01*
X210565117Y-108174629D01*
X210281589Y-108102661D01*
X209989469Y-108087389D01*
X209699981Y-108129401D01*
X209424253Y-108227081D01*
X209286843Y-108300528D01*
X209209208Y-108549603D01*
X199640898Y-108549603D01*
X199742642Y-108447859D01*
X199828113Y-108319942D01*
X199886987Y-108177809D01*
X199917000Y-108026922D01*
X199917000Y-107873078D01*
X199886987Y-107722191D01*
X199828113Y-107580058D01*
X199742642Y-107452141D01*
X199633859Y-107343358D01*
X199505942Y-107257887D01*
X199367151Y-107200397D01*
X209209208Y-107200397D01*
X209286843Y-107449472D01*
X209550883Y-107575371D01*
X209834411Y-107647339D01*
X210126531Y-107662611D01*
X210416019Y-107620599D01*
X210691747Y-107522919D01*
X210829157Y-107449472D01*
X210906792Y-107200397D01*
X210058000Y-106351605D01*
X209209208Y-107200397D01*
X199367151Y-107200397D01*
X199363809Y-107199013D01*
X199212922Y-107169000D01*
X199059078Y-107169000D01*
X198908191Y-107199013D01*
X198766058Y-107257887D01*
X198638141Y-107343358D01*
X198529358Y-107452141D01*
X198443887Y-107580058D01*
X198385013Y-107722191D01*
X198355000Y-107873078D01*
X182906000Y-107873078D01*
X182906000Y-106730078D01*
X194926000Y-106730078D01*
X194926000Y-106883922D01*
X194956013Y-107034809D01*
X195014887Y-107176942D01*
X195100358Y-107304859D01*
X195209141Y-107413642D01*
X195337058Y-107499113D01*
X195479191Y-107557987D01*
X195630078Y-107588000D01*
X195783922Y-107588000D01*
X195934809Y-107557987D01*
X196076942Y-107499113D01*
X196204859Y-107413642D01*
X196313642Y-107304859D01*
X196399113Y-107176942D01*
X196457987Y-107034809D01*
X196488000Y-106883922D01*
X196488000Y-106730078D01*
X196457987Y-106579191D01*
X196399113Y-106437058D01*
X196313642Y-106309141D01*
X196204859Y-106200358D01*
X196076942Y-106114887D01*
X195934809Y-106056013D01*
X195783922Y-106026000D01*
X195630078Y-106026000D01*
X195479191Y-106056013D01*
X195337058Y-106114887D01*
X195209141Y-106200358D01*
X195100358Y-106309141D01*
X195014887Y-106437058D01*
X194956013Y-106579191D01*
X194926000Y-106730078D01*
X182906000Y-106730078D01*
X182906000Y-105079078D01*
X195053000Y-105079078D01*
X195053000Y-105232922D01*
X195083013Y-105383809D01*
X195141887Y-105525942D01*
X195227358Y-105653859D01*
X195336141Y-105762642D01*
X195464058Y-105848113D01*
X195606191Y-105906987D01*
X195757078Y-105937000D01*
X195910922Y-105937000D01*
X196061809Y-105906987D01*
X196203942Y-105848113D01*
X196214470Y-105841078D01*
X198354988Y-105841078D01*
X198354988Y-105994922D01*
X198385001Y-106145809D01*
X198443875Y-106287942D01*
X198529346Y-106415859D01*
X198638129Y-106524642D01*
X198766046Y-106610113D01*
X198908179Y-106668987D01*
X199059066Y-106699000D01*
X199212910Y-106699000D01*
X199363797Y-106668987D01*
X199505930Y-106610113D01*
X199633847Y-106524642D01*
X199742630Y-106415859D01*
X199828101Y-106287942D01*
X199847739Y-106240531D01*
X208567389Y-106240531D01*
X208609401Y-106530019D01*
X208707081Y-106805747D01*
X208780528Y-106943157D01*
X209029603Y-107020792D01*
X209878395Y-106172000D01*
X210237605Y-106172000D01*
X211086397Y-107020792D01*
X211335472Y-106943157D01*
X211461371Y-106679117D01*
X211533339Y-106395589D01*
X211548611Y-106103469D01*
X211540962Y-106050757D01*
X213327000Y-106050757D01*
X213327000Y-106293243D01*
X213374307Y-106531069D01*
X213467102Y-106755097D01*
X213601820Y-106956717D01*
X213773283Y-107128180D01*
X213974903Y-107262898D01*
X214198931Y-107355693D01*
X214436757Y-107403000D01*
X214679243Y-107403000D01*
X214917069Y-107355693D01*
X215141097Y-107262898D01*
X215342717Y-107128180D01*
X215514180Y-106956717D01*
X215648898Y-106755097D01*
X215741693Y-106531069D01*
X215782468Y-106326078D01*
X225002002Y-106326078D01*
X225002002Y-106479922D01*
X225032015Y-106630809D01*
X225090889Y-106772942D01*
X225176360Y-106900859D01*
X225285143Y-107009642D01*
X225413060Y-107095113D01*
X225555193Y-107153987D01*
X225706080Y-107184000D01*
X225859924Y-107184000D01*
X226010811Y-107153987D01*
X226152944Y-107095113D01*
X226280861Y-107009642D01*
X226389644Y-106900859D01*
X226475115Y-106772942D01*
X226533989Y-106630809D01*
X226564002Y-106479922D01*
X226564002Y-106349078D01*
X239757000Y-106349078D01*
X239757000Y-106502922D01*
X239787013Y-106653809D01*
X239845887Y-106795942D01*
X239931358Y-106923859D01*
X240040141Y-107032642D01*
X240168058Y-107118113D01*
X240310191Y-107176987D01*
X240461078Y-107207000D01*
X240614922Y-107207000D01*
X240765809Y-107176987D01*
X240907942Y-107118113D01*
X241035859Y-107032642D01*
X241144642Y-106923859D01*
X241230113Y-106795942D01*
X241288987Y-106653809D01*
X241319000Y-106502922D01*
X241319000Y-106349078D01*
X241288987Y-106198191D01*
X241230113Y-106056058D01*
X241144642Y-105928141D01*
X241035859Y-105819358D01*
X240907942Y-105733887D01*
X240765809Y-105675013D01*
X240614922Y-105645000D01*
X240461078Y-105645000D01*
X240310191Y-105675013D01*
X240168058Y-105733887D01*
X240040141Y-105819358D01*
X239931358Y-105928141D01*
X239845887Y-106056058D01*
X239787013Y-106198191D01*
X239757000Y-106349078D01*
X226564002Y-106349078D01*
X226564002Y-106326078D01*
X226533989Y-106175191D01*
X226475115Y-106033058D01*
X226389644Y-105905141D01*
X226280861Y-105796358D01*
X226152944Y-105710887D01*
X226010811Y-105652013D01*
X225859924Y-105622000D01*
X225706080Y-105622000D01*
X225555193Y-105652013D01*
X225413060Y-105710887D01*
X225285143Y-105796358D01*
X225176360Y-105905141D01*
X225090889Y-106033058D01*
X225032015Y-106175191D01*
X225002002Y-106326078D01*
X215782468Y-106326078D01*
X215789000Y-106293243D01*
X215789000Y-106050757D01*
X215741693Y-105812931D01*
X215648898Y-105588903D01*
X215514180Y-105387283D01*
X215342717Y-105215820D01*
X215141097Y-105081102D01*
X214917069Y-104988307D01*
X214679243Y-104941000D01*
X214436757Y-104941000D01*
X214198931Y-104988307D01*
X213974903Y-105081102D01*
X213773283Y-105215820D01*
X213601820Y-105387283D01*
X213467102Y-105588903D01*
X213374307Y-105812931D01*
X213327000Y-106050757D01*
X211540962Y-106050757D01*
X211506599Y-105813981D01*
X211408919Y-105538253D01*
X211335472Y-105400843D01*
X211086397Y-105323208D01*
X210237605Y-106172000D01*
X209878395Y-106172000D01*
X209029603Y-105323208D01*
X208780528Y-105400843D01*
X208654629Y-105664883D01*
X208582661Y-105948411D01*
X208567389Y-106240531D01*
X199847739Y-106240531D01*
X199886975Y-106145809D01*
X199916988Y-105994922D01*
X199916988Y-105841078D01*
X199886975Y-105690191D01*
X199828101Y-105548058D01*
X199742630Y-105420141D01*
X199656188Y-105333699D01*
X206997300Y-105333699D01*
X206997300Y-105486301D01*
X207027072Y-105635972D01*
X207085470Y-105776958D01*
X207170252Y-105903842D01*
X207278158Y-106011748D01*
X207405042Y-106096530D01*
X207546028Y-106154928D01*
X207695699Y-106184700D01*
X207848301Y-106184700D01*
X207997972Y-106154928D01*
X208138958Y-106096530D01*
X208265842Y-106011748D01*
X208373748Y-105903842D01*
X208458530Y-105776958D01*
X208516928Y-105635972D01*
X208546700Y-105486301D01*
X208546700Y-105333699D01*
X208516928Y-105184028D01*
X208500184Y-105143603D01*
X209209208Y-105143603D01*
X210058000Y-105992395D01*
X210906792Y-105143603D01*
X210829157Y-104894528D01*
X210565117Y-104768629D01*
X210281589Y-104696661D01*
X209989469Y-104681389D01*
X209699981Y-104723401D01*
X209424253Y-104821081D01*
X209286843Y-104894528D01*
X209209208Y-105143603D01*
X208500184Y-105143603D01*
X208458530Y-105043042D01*
X208373748Y-104916158D01*
X208265842Y-104808252D01*
X208138958Y-104723470D01*
X207997972Y-104665072D01*
X207848301Y-104635300D01*
X207695699Y-104635300D01*
X207546028Y-104665072D01*
X207405042Y-104723470D01*
X207278158Y-104808252D01*
X207170252Y-104916158D01*
X207085470Y-105043042D01*
X207027072Y-105184028D01*
X206997300Y-105333699D01*
X199656188Y-105333699D01*
X199633847Y-105311358D01*
X199505930Y-105225887D01*
X199363797Y-105167013D01*
X199212910Y-105137000D01*
X199059066Y-105137000D01*
X198908179Y-105167013D01*
X198766046Y-105225887D01*
X198638129Y-105311358D01*
X198529346Y-105420141D01*
X198443875Y-105548058D01*
X198385001Y-105690191D01*
X198354988Y-105841078D01*
X196214470Y-105841078D01*
X196331859Y-105762642D01*
X196440642Y-105653859D01*
X196526113Y-105525942D01*
X196584987Y-105383809D01*
X196615000Y-105232922D01*
X196615000Y-105079078D01*
X196584987Y-104928191D01*
X196526113Y-104786058D01*
X196440642Y-104658141D01*
X196331859Y-104549358D01*
X196203942Y-104463887D01*
X196061809Y-104405013D01*
X195910922Y-104375000D01*
X195757078Y-104375000D01*
X195606191Y-104405013D01*
X195464058Y-104463887D01*
X195336141Y-104549358D01*
X195227358Y-104658141D01*
X195141887Y-104786058D01*
X195083013Y-104928191D01*
X195053000Y-105079078D01*
X182906000Y-105079078D01*
X182906000Y-103555090D01*
X187941000Y-103555090D01*
X187941000Y-103708934D01*
X187971013Y-103859821D01*
X188029887Y-104001954D01*
X188115358Y-104129871D01*
X188224141Y-104238654D01*
X188352058Y-104324125D01*
X188494191Y-104382999D01*
X188645078Y-104413012D01*
X188798922Y-104413012D01*
X188949809Y-104382999D01*
X189091942Y-104324125D01*
X189219859Y-104238654D01*
X189328642Y-104129871D01*
X189373271Y-104063078D01*
X211055000Y-104063078D01*
X211055000Y-104216922D01*
X211085013Y-104367809D01*
X211143887Y-104509942D01*
X211229358Y-104637859D01*
X211338141Y-104746642D01*
X211466058Y-104832113D01*
X211608191Y-104890987D01*
X211759078Y-104921000D01*
X211912922Y-104921000D01*
X212063809Y-104890987D01*
X212205942Y-104832113D01*
X212333859Y-104746642D01*
X212344000Y-104736501D01*
X212354141Y-104746642D01*
X212482058Y-104832113D01*
X212624191Y-104890987D01*
X212775078Y-104921000D01*
X212928922Y-104921000D01*
X213079809Y-104890987D01*
X213221942Y-104832113D01*
X213349859Y-104746642D01*
X213458642Y-104637859D01*
X213544113Y-104509942D01*
X213602987Y-104367809D01*
X213611287Y-104326078D01*
X225016006Y-104326078D01*
X225016006Y-104479922D01*
X225046019Y-104630809D01*
X225104893Y-104772942D01*
X225190364Y-104900859D01*
X225299147Y-105009642D01*
X225427064Y-105095113D01*
X225569197Y-105153987D01*
X225720084Y-105184000D01*
X225873928Y-105184000D01*
X226024815Y-105153987D01*
X226166948Y-105095113D01*
X226294865Y-105009642D01*
X226403648Y-104900859D01*
X226489119Y-104772942D01*
X226547993Y-104630809D01*
X226578006Y-104479922D01*
X226578006Y-104326078D01*
X226547993Y-104175191D01*
X226489119Y-104033058D01*
X226403648Y-103905141D01*
X226294865Y-103796358D01*
X226166948Y-103710887D01*
X226024815Y-103652013D01*
X225873928Y-103622000D01*
X225720084Y-103622000D01*
X225569197Y-103652013D01*
X225427064Y-103710887D01*
X225299147Y-103796358D01*
X225190364Y-103905141D01*
X225104893Y-104033058D01*
X225046019Y-104175191D01*
X225016006Y-104326078D01*
X213611287Y-104326078D01*
X213633000Y-104216922D01*
X213633000Y-104063078D01*
X213602987Y-103912191D01*
X213544113Y-103770058D01*
X213458642Y-103642141D01*
X213349859Y-103533358D01*
X213221942Y-103447887D01*
X213079809Y-103389013D01*
X212928922Y-103359000D01*
X212775078Y-103359000D01*
X212624191Y-103389013D01*
X212482058Y-103447887D01*
X212354141Y-103533358D01*
X212344000Y-103543499D01*
X212333859Y-103533358D01*
X212205942Y-103447887D01*
X212063809Y-103389013D01*
X211912922Y-103359000D01*
X211759078Y-103359000D01*
X211608191Y-103389013D01*
X211466058Y-103447887D01*
X211338141Y-103533358D01*
X211229358Y-103642141D01*
X211143887Y-103770058D01*
X211085013Y-103912191D01*
X211055000Y-104063078D01*
X189373271Y-104063078D01*
X189414113Y-104001954D01*
X189472987Y-103859821D01*
X189503000Y-103708934D01*
X189503000Y-103555090D01*
X189472987Y-103404203D01*
X189414113Y-103262070D01*
X189328642Y-103134153D01*
X189219859Y-103025370D01*
X189091942Y-102939899D01*
X188949809Y-102881025D01*
X188798922Y-102851012D01*
X188645078Y-102851012D01*
X188494191Y-102881025D01*
X188352058Y-102939899D01*
X188224141Y-103025370D01*
X188115358Y-103134153D01*
X188029887Y-103262070D01*
X187971013Y-103404203D01*
X187941000Y-103555090D01*
X182906000Y-103555090D01*
X182906000Y-101523078D01*
X183877000Y-101523078D01*
X183877000Y-101676922D01*
X183907013Y-101827809D01*
X183965887Y-101969942D01*
X184051358Y-102097859D01*
X184160141Y-102206642D01*
X184288058Y-102292113D01*
X184430191Y-102350987D01*
X184581078Y-102381000D01*
X184734922Y-102381000D01*
X184885809Y-102350987D01*
X184893000Y-102348008D01*
X184893000Y-102438922D01*
X184923013Y-102589809D01*
X184981887Y-102731942D01*
X185067358Y-102859859D01*
X185176141Y-102968642D01*
X185304058Y-103054113D01*
X185446191Y-103112987D01*
X185597078Y-103143000D01*
X185750922Y-103143000D01*
X185901809Y-103112987D01*
X186043942Y-103054113D01*
X186171859Y-102968642D01*
X186280642Y-102859859D01*
X186366113Y-102731942D01*
X186424987Y-102589809D01*
X186455000Y-102438922D01*
X186455000Y-102285078D01*
X186433419Y-102176578D01*
X187033500Y-102176578D01*
X187033500Y-102330422D01*
X187063513Y-102481309D01*
X187122387Y-102623442D01*
X187207858Y-102751359D01*
X187316641Y-102860142D01*
X187444558Y-102945613D01*
X187586691Y-103004487D01*
X187737578Y-103034500D01*
X187891422Y-103034500D01*
X188042309Y-103004487D01*
X188184442Y-102945613D01*
X188312359Y-102860142D01*
X188379423Y-102793078D01*
X239757000Y-102793078D01*
X239757000Y-102946922D01*
X239787013Y-103097809D01*
X239845887Y-103239942D01*
X239931358Y-103367859D01*
X240040141Y-103476642D01*
X240168058Y-103562113D01*
X240310191Y-103620987D01*
X240461078Y-103651000D01*
X240544909Y-103651000D01*
X240422058Y-103701887D01*
X240294141Y-103787358D01*
X240185358Y-103896141D01*
X240099887Y-104024058D01*
X240041013Y-104166191D01*
X240011000Y-104317078D01*
X240011000Y-104470922D01*
X240041013Y-104621809D01*
X240099887Y-104763942D01*
X240185358Y-104891859D01*
X240294141Y-105000642D01*
X240422058Y-105086113D01*
X240564191Y-105144987D01*
X240715078Y-105175000D01*
X240868922Y-105175000D01*
X241019809Y-105144987D01*
X241161942Y-105086113D01*
X241289859Y-105000642D01*
X241398642Y-104891859D01*
X241484113Y-104763942D01*
X241542987Y-104621809D01*
X241573000Y-104470922D01*
X241573000Y-104317078D01*
X241542987Y-104166191D01*
X241484113Y-104024058D01*
X241398642Y-103896141D01*
X241289859Y-103787358D01*
X241161942Y-103701887D01*
X241019809Y-103643013D01*
X240868922Y-103613000D01*
X240785091Y-103613000D01*
X240907942Y-103562113D01*
X241035859Y-103476642D01*
X241144642Y-103367859D01*
X241230113Y-103239942D01*
X241288987Y-103097809D01*
X241319000Y-102946922D01*
X241319000Y-102793078D01*
X241288987Y-102642191D01*
X241230113Y-102500058D01*
X241144642Y-102372141D01*
X241035859Y-102263358D01*
X240907942Y-102177887D01*
X240765809Y-102119013D01*
X240614922Y-102089000D01*
X240461078Y-102089000D01*
X240310191Y-102119013D01*
X240168058Y-102177887D01*
X240040141Y-102263358D01*
X239931358Y-102372141D01*
X239845887Y-102500058D01*
X239787013Y-102642191D01*
X239757000Y-102793078D01*
X188379423Y-102793078D01*
X188421142Y-102751359D01*
X188506613Y-102623442D01*
X188565487Y-102481309D01*
X188595500Y-102330422D01*
X188595500Y-102176578D01*
X188565487Y-102025691D01*
X188506613Y-101883558D01*
X188421142Y-101755641D01*
X188312359Y-101646858D01*
X188184442Y-101561387D01*
X188042309Y-101502513D01*
X187891422Y-101472500D01*
X187737578Y-101472500D01*
X187586691Y-101502513D01*
X187444558Y-101561387D01*
X187316641Y-101646858D01*
X187207858Y-101755641D01*
X187122387Y-101883558D01*
X187063513Y-102025691D01*
X187033500Y-102176578D01*
X186433419Y-102176578D01*
X186424987Y-102134191D01*
X186366113Y-101992058D01*
X186280642Y-101864141D01*
X186171859Y-101755358D01*
X186043942Y-101669887D01*
X185901809Y-101611013D01*
X185750922Y-101581000D01*
X185597078Y-101581000D01*
X185446191Y-101611013D01*
X185439000Y-101613992D01*
X185439000Y-101523078D01*
X185408987Y-101372191D01*
X185350113Y-101230058D01*
X185264642Y-101102141D01*
X185155859Y-100993358D01*
X185027942Y-100907887D01*
X184885809Y-100849013D01*
X184734922Y-100819000D01*
X184581078Y-100819000D01*
X184430191Y-100849013D01*
X184288058Y-100907887D01*
X184160141Y-100993358D01*
X184051358Y-101102141D01*
X183965887Y-101230058D01*
X183907013Y-101372191D01*
X183877000Y-101523078D01*
X182906000Y-101523078D01*
X182906000Y-100297560D01*
X195869000Y-100297560D01*
X195869000Y-100618840D01*
X195931678Y-100933945D01*
X196054626Y-101230768D01*
X196233119Y-101497902D01*
X196460298Y-101725081D01*
X196727432Y-101903574D01*
X197024255Y-102026522D01*
X197339360Y-102089200D01*
X197660640Y-102089200D01*
X197975745Y-102026522D01*
X198272568Y-101903574D01*
X198539702Y-101725081D01*
X198766881Y-101497902D01*
X198945374Y-101230768D01*
X199068322Y-100933945D01*
X199114777Y-100700397D01*
X209209208Y-100700397D01*
X209286843Y-100949472D01*
X209550883Y-101075371D01*
X209834411Y-101147339D01*
X210126531Y-101162611D01*
X210416019Y-101120599D01*
X210691747Y-101022919D01*
X210829157Y-100949472D01*
X210906792Y-100700397D01*
X210058000Y-99851605D01*
X209209208Y-100700397D01*
X199114777Y-100700397D01*
X199131000Y-100618840D01*
X199131000Y-100297560D01*
X199068322Y-99982455D01*
X198945374Y-99685632D01*
X198766881Y-99418498D01*
X198539702Y-99191319D01*
X198272568Y-99012826D01*
X197975745Y-98889878D01*
X197660640Y-98827200D01*
X197339360Y-98827200D01*
X197024255Y-98889878D01*
X196727432Y-99012826D01*
X196460298Y-99191319D01*
X196233119Y-99418498D01*
X196054626Y-99685632D01*
X195931678Y-99982455D01*
X195869000Y-100297560D01*
X182906000Y-100297560D01*
X182906000Y-98729078D01*
X203181000Y-98729078D01*
X203181000Y-98882922D01*
X203211013Y-99033809D01*
X203269887Y-99175942D01*
X203355358Y-99303859D01*
X203464141Y-99412642D01*
X203592058Y-99498113D01*
X203734191Y-99556987D01*
X203885078Y-99587000D01*
X204038922Y-99587000D01*
X204189809Y-99556987D01*
X204331942Y-99498113D01*
X204459859Y-99412642D01*
X204568642Y-99303859D01*
X204612848Y-99237699D01*
X206997300Y-99237699D01*
X206997300Y-99390301D01*
X207027072Y-99539972D01*
X207085470Y-99680958D01*
X207170252Y-99807842D01*
X207278158Y-99915748D01*
X207405042Y-100000530D01*
X207546028Y-100058928D01*
X207695699Y-100088700D01*
X207848301Y-100088700D01*
X207997972Y-100058928D01*
X208138958Y-100000530D01*
X208265842Y-99915748D01*
X208373748Y-99807842D01*
X208418724Y-99740531D01*
X208567389Y-99740531D01*
X208609401Y-100030019D01*
X208707081Y-100305747D01*
X208780528Y-100443157D01*
X209029603Y-100520792D01*
X209878395Y-99672000D01*
X210237605Y-99672000D01*
X211086397Y-100520792D01*
X211335472Y-100443157D01*
X211461371Y-100179117D01*
X211533339Y-99895589D01*
X211548611Y-99603469D01*
X211540962Y-99550757D01*
X213327000Y-99550757D01*
X213327000Y-99793243D01*
X213374307Y-100031069D01*
X213467102Y-100255097D01*
X213601820Y-100456717D01*
X213773283Y-100628180D01*
X213974903Y-100762898D01*
X214198931Y-100855693D01*
X214436757Y-100903000D01*
X214679243Y-100903000D01*
X214917069Y-100855693D01*
X215141097Y-100762898D01*
X215342717Y-100628180D01*
X215514180Y-100456717D01*
X215648898Y-100255097D01*
X215741693Y-100031069D01*
X215789000Y-99793243D01*
X215789000Y-99550757D01*
X215741693Y-99312931D01*
X215648898Y-99088903D01*
X215514180Y-98887283D01*
X215355975Y-98729078D01*
X241027000Y-98729078D01*
X241027000Y-98882922D01*
X241057013Y-99033809D01*
X241115887Y-99175942D01*
X241201358Y-99303859D01*
X241310141Y-99412642D01*
X241438058Y-99498113D01*
X241580191Y-99556987D01*
X241731078Y-99587000D01*
X241884922Y-99587000D01*
X242035809Y-99556987D01*
X242177942Y-99498113D01*
X242305859Y-99412642D01*
X242414642Y-99303859D01*
X242500113Y-99175942D01*
X242558987Y-99033809D01*
X242589000Y-98882922D01*
X242589000Y-98729078D01*
X242558987Y-98578191D01*
X242500113Y-98436058D01*
X242414642Y-98308141D01*
X242305859Y-98199358D01*
X242177942Y-98113887D01*
X242035809Y-98055013D01*
X241884922Y-98025000D01*
X241731078Y-98025000D01*
X241580191Y-98055013D01*
X241438058Y-98113887D01*
X241310141Y-98199358D01*
X241201358Y-98308141D01*
X241115887Y-98436058D01*
X241057013Y-98578191D01*
X241027000Y-98729078D01*
X215355975Y-98729078D01*
X215342717Y-98715820D01*
X215141097Y-98581102D01*
X214917069Y-98488307D01*
X214679243Y-98441000D01*
X214436757Y-98441000D01*
X214198931Y-98488307D01*
X213974903Y-98581102D01*
X213773283Y-98715820D01*
X213601820Y-98887283D01*
X213467102Y-99088903D01*
X213374307Y-99312931D01*
X213327000Y-99550757D01*
X211540962Y-99550757D01*
X211506599Y-99313981D01*
X211408919Y-99038253D01*
X211335472Y-98900843D01*
X211086397Y-98823208D01*
X210237605Y-99672000D01*
X209878395Y-99672000D01*
X209029603Y-98823208D01*
X208780528Y-98900843D01*
X208654629Y-99164883D01*
X208582661Y-99448411D01*
X208567389Y-99740531D01*
X208418724Y-99740531D01*
X208458530Y-99680958D01*
X208516928Y-99539972D01*
X208546700Y-99390301D01*
X208546700Y-99237699D01*
X208516928Y-99088028D01*
X208458530Y-98947042D01*
X208373748Y-98820158D01*
X208265842Y-98712252D01*
X208163103Y-98643603D01*
X209209208Y-98643603D01*
X210058000Y-99492395D01*
X210906792Y-98643603D01*
X210829157Y-98394528D01*
X210565117Y-98268629D01*
X210281589Y-98196661D01*
X209989469Y-98181389D01*
X209699981Y-98223401D01*
X209424253Y-98321081D01*
X209286843Y-98394528D01*
X209209208Y-98643603D01*
X208163103Y-98643603D01*
X208138958Y-98627470D01*
X207997972Y-98569072D01*
X207848301Y-98539300D01*
X207695699Y-98539300D01*
X207546028Y-98569072D01*
X207405042Y-98627470D01*
X207278158Y-98712252D01*
X207170252Y-98820158D01*
X207085470Y-98947042D01*
X207027072Y-99088028D01*
X206997300Y-99237699D01*
X204612848Y-99237699D01*
X204654113Y-99175942D01*
X204712987Y-99033809D01*
X204743000Y-98882922D01*
X204743000Y-98729078D01*
X204712987Y-98578191D01*
X204654113Y-98436058D01*
X204568642Y-98308141D01*
X204459859Y-98199358D01*
X204331942Y-98113887D01*
X204189809Y-98055013D01*
X204038922Y-98025000D01*
X203885078Y-98025000D01*
X203734191Y-98055013D01*
X203592058Y-98113887D01*
X203464141Y-98199358D01*
X203355358Y-98308141D01*
X203269887Y-98436058D01*
X203211013Y-98578191D01*
X203181000Y-98729078D01*
X182906000Y-98729078D01*
X182906000Y-96951078D01*
X186671000Y-96951078D01*
X186671000Y-97104922D01*
X186701013Y-97255809D01*
X186759887Y-97397942D01*
X186845358Y-97525859D01*
X186954141Y-97634642D01*
X187082058Y-97720113D01*
X187224191Y-97778987D01*
X187375078Y-97809000D01*
X187528922Y-97809000D01*
X187679809Y-97778987D01*
X187821942Y-97720113D01*
X187949859Y-97634642D01*
X188058642Y-97525859D01*
X188144113Y-97397942D01*
X188202987Y-97255809D01*
X188233000Y-97104922D01*
X188233000Y-96951078D01*
X188227928Y-96925578D01*
X188423500Y-96925578D01*
X188423500Y-97079422D01*
X188453513Y-97230309D01*
X188512387Y-97372442D01*
X188597858Y-97500359D01*
X188706641Y-97609142D01*
X188834558Y-97694613D01*
X188976691Y-97753487D01*
X189127578Y-97783500D01*
X189281422Y-97783500D01*
X189432309Y-97753487D01*
X189574442Y-97694613D01*
X189702359Y-97609142D01*
X189811142Y-97500359D01*
X189896613Y-97372442D01*
X189955487Y-97230309D01*
X189985500Y-97079422D01*
X189985500Y-96925578D01*
X189955487Y-96774691D01*
X189896613Y-96632558D01*
X189811142Y-96504641D01*
X189702359Y-96395858D01*
X189574442Y-96310387D01*
X189432309Y-96251513D01*
X189281422Y-96221500D01*
X189127578Y-96221500D01*
X188976691Y-96251513D01*
X188834558Y-96310387D01*
X188706641Y-96395858D01*
X188597858Y-96504641D01*
X188512387Y-96632558D01*
X188453513Y-96774691D01*
X188423500Y-96925578D01*
X188227928Y-96925578D01*
X188202987Y-96800191D01*
X188144113Y-96658058D01*
X188058642Y-96530141D01*
X187949859Y-96421358D01*
X187821942Y-96335887D01*
X187679809Y-96277013D01*
X187528922Y-96247000D01*
X187375078Y-96247000D01*
X187224191Y-96277013D01*
X187082058Y-96335887D01*
X186954141Y-96421358D01*
X186845358Y-96530141D01*
X186759887Y-96658058D01*
X186701013Y-96800191D01*
X186671000Y-96951078D01*
X182906000Y-96951078D01*
X182906000Y-94361002D01*
X183036914Y-94361002D01*
X182914085Y-94563401D01*
X183002711Y-94804430D01*
X183136656Y-95023537D01*
X183310773Y-95212303D01*
X183518371Y-95363473D01*
X183751472Y-95471238D01*
X183852600Y-95501910D01*
X184055000Y-95378224D01*
X184055000Y-94361000D01*
X184035000Y-94361000D01*
X184035000Y-94107000D01*
X184055000Y-94107000D01*
X184055000Y-93089776D01*
X184309000Y-93089776D01*
X184309000Y-94107000D01*
X184329000Y-94107000D01*
X184329000Y-94361000D01*
X184309000Y-94361000D01*
X184309000Y-95378224D01*
X184511400Y-95501910D01*
X184612528Y-95471238D01*
X184845629Y-95363473D01*
X185053227Y-95212303D01*
X185169646Y-95086090D01*
X185188678Y-95121696D01*
X185236289Y-95179711D01*
X185294304Y-95227322D01*
X185360492Y-95262701D01*
X185432311Y-95284487D01*
X185507000Y-95291843D01*
X185543656Y-95291843D01*
X185446858Y-95388641D01*
X185361387Y-95516558D01*
X185302513Y-95658691D01*
X185272500Y-95809578D01*
X185272500Y-95963422D01*
X185302513Y-96114309D01*
X185361387Y-96256442D01*
X185446858Y-96384359D01*
X185555641Y-96493142D01*
X185683558Y-96578613D01*
X185825691Y-96637487D01*
X185976578Y-96667500D01*
X186130422Y-96667500D01*
X186281309Y-96637487D01*
X186423442Y-96578613D01*
X186551359Y-96493142D01*
X186660142Y-96384359D01*
X186745613Y-96256442D01*
X186804487Y-96114309D01*
X186834500Y-95963422D01*
X186834500Y-95809578D01*
X186804487Y-95658691D01*
X186745613Y-95516558D01*
X186660142Y-95388641D01*
X186563344Y-95291843D01*
X186857000Y-95291843D01*
X186931689Y-95284487D01*
X187003508Y-95262701D01*
X187069696Y-95227322D01*
X187127711Y-95179711D01*
X187175322Y-95121696D01*
X187210701Y-95055508D01*
X187232487Y-94983689D01*
X187239843Y-94909000D01*
X187239843Y-93559000D01*
X187232487Y-93484311D01*
X187210701Y-93412492D01*
X187175322Y-93346304D01*
X187127711Y-93288289D01*
X187069696Y-93240678D01*
X187003508Y-93205299D01*
X186931689Y-93183513D01*
X186857000Y-93176157D01*
X185507000Y-93176157D01*
X185432311Y-93183513D01*
X185360492Y-93205299D01*
X185294304Y-93240678D01*
X185236289Y-93288289D01*
X185188678Y-93346304D01*
X185169646Y-93381910D01*
X185053227Y-93255697D01*
X184845629Y-93104527D01*
X184612528Y-92996762D01*
X184511400Y-92966090D01*
X184309000Y-93089776D01*
X184055000Y-93089776D01*
X183852600Y-92966090D01*
X183751472Y-92996762D01*
X183518371Y-93104527D01*
X183310773Y-93255697D01*
X183136656Y-93444463D01*
X183002711Y-93663570D01*
X182914085Y-93904599D01*
X183036914Y-94106998D01*
X182906000Y-94106998D01*
X182906000Y-92906000D01*
X190594001Y-92906000D01*
X190594001Y-93269941D01*
%TA.AperFunction,Conductor*%
D17*
G36*
X190594001Y-93269941D02*
G01*
X190594139Y-93271346D01*
X190594376Y-93305196D01*
X190596304Y-93323539D01*
X190596304Y-93341976D01*
X190596896Y-93347614D01*
X190678476Y-94074925D01*
X190686139Y-94110976D01*
X190693275Y-94147016D01*
X190694948Y-94152421D01*
X190694950Y-94152431D01*
X190694954Y-94152440D01*
X190916246Y-94850044D01*
X190930764Y-94883918D01*
X190944766Y-94917887D01*
X190947457Y-94922865D01*
X190947461Y-94922874D01*
X190947466Y-94922881D01*
X191300044Y-95564218D01*
X191320827Y-95594572D01*
X191341196Y-95625229D01*
X191344810Y-95629598D01*
X191815248Y-96190244D01*
X191841550Y-96216001D01*
X191867468Y-96242101D01*
X191871861Y-96245685D01*
X192442237Y-96704278D01*
X192473037Y-96724433D01*
X192503534Y-96745003D01*
X192508540Y-96747665D01*
X193157127Y-97086738D01*
X193191285Y-97100538D01*
X193225167Y-97114781D01*
X193230594Y-97116420D01*
X193932689Y-97323058D01*
X193968846Y-97329955D01*
X194004881Y-97337352D01*
X194010523Y-97337906D01*
X194739383Y-97404238D01*
X194776180Y-97403981D01*
X194812977Y-97404238D01*
X194818619Y-97403685D01*
X195546481Y-97327183D01*
X195582554Y-97319778D01*
X195618672Y-97312888D01*
X195624099Y-97311250D01*
X196323240Y-97094830D01*
X196357203Y-97080553D01*
X196391281Y-97066785D01*
X196396277Y-97064129D01*
X196396286Y-97064125D01*
X196396293Y-97064120D01*
X197040077Y-96716028D01*
X197070600Y-96695440D01*
X197101374Y-96675302D01*
X197105760Y-96671725D01*
X197105767Y-96671720D01*
X197105773Y-96671714D01*
X197669684Y-96205206D01*
X197695618Y-96179090D01*
X197721903Y-96153350D01*
X197725517Y-96148982D01*
X198188082Y-95581822D01*
X198208456Y-95551157D01*
X198229235Y-95520810D01*
X198231932Y-95515824D01*
X198575524Y-94869620D01*
X198589550Y-94835592D01*
X198604043Y-94801776D01*
X198605720Y-94796361D01*
X198806907Y-94129993D01*
X201414000Y-94129993D01*
X201414000Y-94338007D01*
X201454581Y-94542024D01*
X201534185Y-94734204D01*
X201649751Y-94907161D01*
X201796839Y-95054249D01*
X201969796Y-95169815D01*
X202161976Y-95249419D01*
X202365993Y-95290000D01*
X202574007Y-95290000D01*
X202778024Y-95249419D01*
X202970204Y-95169815D01*
X203143161Y-95054249D01*
X203290249Y-94907161D01*
X203405815Y-94734204D01*
X203412157Y-94718893D01*
X203412157Y-94909000D01*
X203419513Y-94983689D01*
X203441299Y-95055508D01*
X203476678Y-95121696D01*
X203524289Y-95179711D01*
X203582304Y-95227322D01*
X203648492Y-95262701D01*
X203720311Y-95284487D01*
X203795000Y-95291843D01*
X205145000Y-95291843D01*
X205219689Y-95284487D01*
X205291508Y-95262701D01*
X205357696Y-95227322D01*
X205415711Y-95179711D01*
X205463322Y-95121696D01*
X205498701Y-95055508D01*
X205520487Y-94983689D01*
X205527843Y-94909000D01*
X205527843Y-94546000D01*
X208259157Y-94546000D01*
X208259157Y-95446000D01*
X208270356Y-95559707D01*
X208303523Y-95669044D01*
X208357384Y-95769810D01*
X208429868Y-95858132D01*
X208518190Y-95930616D01*
X208618956Y-95984477D01*
X208728293Y-96017644D01*
X208842000Y-96028843D01*
X209242000Y-96028843D01*
X209355707Y-96017644D01*
X209465044Y-95984477D01*
X209565810Y-95930616D01*
X209654132Y-95858132D01*
X209719081Y-95778991D01*
X209737079Y-95800922D01*
X209856002Y-95898519D01*
X209991679Y-95971040D01*
X210138898Y-96015699D01*
X210292000Y-96030778D01*
X210445103Y-96015699D01*
X210592322Y-95971040D01*
X210727999Y-95898519D01*
X210846922Y-95800922D01*
X210917000Y-95715531D01*
X210987079Y-95800922D01*
X211106002Y-95898519D01*
X211241679Y-95971040D01*
X211388898Y-96015699D01*
X211542000Y-96030778D01*
X211695103Y-96015699D01*
X211842322Y-95971040D01*
X211975461Y-95899876D01*
X212079717Y-96017112D01*
X212243840Y-96141255D01*
X212429028Y-96230994D01*
X212505877Y-96240666D01*
X212665000Y-96112998D01*
X212665000Y-95123000D01*
X212919000Y-95123000D01*
X212919000Y-96112998D01*
X213078123Y-96240666D01*
X213154972Y-96230994D01*
X213340160Y-96141255D01*
X213504283Y-96017112D01*
X213641033Y-95863336D01*
X213745155Y-95685836D01*
X213812648Y-95491433D01*
X213840918Y-95287599D01*
X213675762Y-95123000D01*
X212919000Y-95123000D01*
X212665000Y-95123000D01*
X212645000Y-95123000D01*
X212645000Y-94869000D01*
X212665000Y-94869000D01*
X212665000Y-93879002D01*
X212919000Y-93879002D01*
X212919000Y-94869000D01*
X213675762Y-94869000D01*
X213840918Y-94704401D01*
X213818950Y-94546000D01*
X216387157Y-94546000D01*
X216387157Y-95446000D01*
X216398356Y-95559707D01*
X216431523Y-95669044D01*
X216485384Y-95769810D01*
X216557868Y-95858132D01*
X216646190Y-95930616D01*
X216746956Y-95984477D01*
X216856293Y-96017644D01*
X216970000Y-96028843D01*
X217370000Y-96028843D01*
X217483707Y-96017644D01*
X217593044Y-95984477D01*
X217651100Y-95953445D01*
X217707717Y-96017112D01*
X217871840Y-96141255D01*
X218057028Y-96230994D01*
X218133877Y-96240666D01*
X218293000Y-96112998D01*
X218293000Y-95123000D01*
X218273000Y-95123000D01*
X218273000Y-94869000D01*
X218293000Y-94869000D01*
X218293000Y-93879002D01*
X218547000Y-93879002D01*
X218547000Y-94869000D01*
X218567000Y-94869000D01*
X218567000Y-95123000D01*
X218547000Y-95123000D01*
X218547000Y-96112998D01*
X218706123Y-96240666D01*
X218782972Y-96230994D01*
X218968160Y-96141255D01*
X219132283Y-96017112D01*
X219236539Y-95899875D01*
X219369679Y-95971040D01*
X219516898Y-96015699D01*
X219670000Y-96030778D01*
X219823103Y-96015699D01*
X219970322Y-95971040D01*
X220105999Y-95898519D01*
X220224922Y-95800922D01*
X220295000Y-95715531D01*
X220365079Y-95800922D01*
X220484002Y-95898519D01*
X220619679Y-95971040D01*
X220766898Y-96015699D01*
X220920000Y-96030778D01*
X221073103Y-96015699D01*
X221220322Y-95971040D01*
X221355999Y-95898519D01*
X221474922Y-95800922D01*
X221545000Y-95715531D01*
X221615079Y-95800922D01*
X221734002Y-95898519D01*
X221869679Y-95971040D01*
X222016898Y-96015699D01*
X222170000Y-96030778D01*
X222323103Y-96015699D01*
X222470322Y-95971040D01*
X222605999Y-95898519D01*
X222724922Y-95800922D01*
X222795000Y-95715531D01*
X222865079Y-95800922D01*
X222984002Y-95898519D01*
X223119679Y-95971040D01*
X223266898Y-96015699D01*
X223420000Y-96030778D01*
X223573103Y-96015699D01*
X223720322Y-95971040D01*
X223855999Y-95898519D01*
X223974922Y-95800922D01*
X224045000Y-95715531D01*
X224115079Y-95800922D01*
X224234002Y-95898519D01*
X224369679Y-95971040D01*
X224516898Y-96015699D01*
X224670000Y-96030778D01*
X224823103Y-96015699D01*
X224970322Y-95971040D01*
X225105999Y-95898519D01*
X225224922Y-95800922D01*
X225322519Y-95681999D01*
X225395040Y-95546322D01*
X225439699Y-95399103D01*
X225451000Y-95284360D01*
X225451000Y-94707640D01*
X225439699Y-94592897D01*
X225395040Y-94445678D01*
X225322519Y-94310001D01*
X225224922Y-94191078D01*
X225105998Y-94093481D01*
X224970321Y-94020960D01*
X224823102Y-93976301D01*
X224670000Y-93961222D01*
X224516897Y-93976301D01*
X224369678Y-94020960D01*
X224234001Y-94093481D01*
X224115078Y-94191078D01*
X224045000Y-94276469D01*
X223974922Y-94191078D01*
X223855998Y-94093481D01*
X223720321Y-94020960D01*
X223573102Y-93976301D01*
X223420000Y-93961222D01*
X223266897Y-93976301D01*
X223119678Y-94020960D01*
X222984001Y-94093481D01*
X222865078Y-94191078D01*
X222795000Y-94276469D01*
X222724922Y-94191078D01*
X222605998Y-94093481D01*
X222470321Y-94020960D01*
X222323102Y-93976301D01*
X222170000Y-93961222D01*
X222016897Y-93976301D01*
X221869678Y-94020960D01*
X221734001Y-94093481D01*
X221615078Y-94191078D01*
X221545000Y-94276469D01*
X221474922Y-94191078D01*
X221355998Y-94093481D01*
X221220321Y-94020960D01*
X221073102Y-93976301D01*
X220920000Y-93961222D01*
X220766897Y-93976301D01*
X220619678Y-94020960D01*
X220484001Y-94093481D01*
X220365078Y-94191078D01*
X220295000Y-94276469D01*
X220224922Y-94191078D01*
X220105998Y-94093481D01*
X219970321Y-94020960D01*
X219823102Y-93976301D01*
X219670000Y-93961222D01*
X219516897Y-93976301D01*
X219369678Y-94020960D01*
X219236539Y-94092124D01*
X219132283Y-93974888D01*
X218968160Y-93850745D01*
X218782972Y-93761006D01*
X218706123Y-93751334D01*
X218547000Y-93879002D01*
X218293000Y-93879002D01*
X218133877Y-93751334D01*
X218057028Y-93761006D01*
X217871840Y-93850745D01*
X217707717Y-93974888D01*
X217651100Y-94038555D01*
X217593044Y-94007523D01*
X217483707Y-93974356D01*
X217370000Y-93963157D01*
X216970000Y-93963157D01*
X216856293Y-93974356D01*
X216746956Y-94007523D01*
X216646190Y-94061384D01*
X216557868Y-94133868D01*
X216485384Y-94222190D01*
X216431523Y-94322956D01*
X216398356Y-94432293D01*
X216387157Y-94546000D01*
X213818950Y-94546000D01*
X213812648Y-94500567D01*
X213745155Y-94306164D01*
X213641033Y-94128664D01*
X213504283Y-93974888D01*
X213340160Y-93850745D01*
X213154972Y-93761006D01*
X213078123Y-93751334D01*
X212919000Y-93879002D01*
X212665000Y-93879002D01*
X212505877Y-93751334D01*
X212429028Y-93761006D01*
X212243840Y-93850745D01*
X212079717Y-93974888D01*
X211975461Y-94092125D01*
X211842321Y-94020960D01*
X211695102Y-93976301D01*
X211542000Y-93961222D01*
X211388897Y-93976301D01*
X211241678Y-94020960D01*
X211106001Y-94093481D01*
X210987078Y-94191078D01*
X210917000Y-94276469D01*
X210846922Y-94191078D01*
X210727998Y-94093481D01*
X210592321Y-94020960D01*
X210445102Y-93976301D01*
X210292000Y-93961222D01*
X210138897Y-93976301D01*
X209991678Y-94020960D01*
X209856001Y-94093481D01*
X209737078Y-94191078D01*
X209719081Y-94213008D01*
X209654132Y-94133868D01*
X209565810Y-94061384D01*
X209465044Y-94007523D01*
X209355707Y-93974356D01*
X209242000Y-93963157D01*
X208842000Y-93963157D01*
X208728293Y-93974356D01*
X208618956Y-94007523D01*
X208518190Y-94061384D01*
X208429868Y-94133868D01*
X208357384Y-94222190D01*
X208303523Y-94322956D01*
X208270356Y-94432293D01*
X208259157Y-94546000D01*
X205527843Y-94546000D01*
X205527843Y-93559000D01*
X205520487Y-93484311D01*
X205498701Y-93412492D01*
X205463322Y-93346304D01*
X205415711Y-93288289D01*
X205357696Y-93240678D01*
X205291508Y-93205299D01*
X205219689Y-93183513D01*
X205145000Y-93176157D01*
X203795000Y-93176157D01*
X203720311Y-93183513D01*
X203648492Y-93205299D01*
X203582304Y-93240678D01*
X203524289Y-93288289D01*
X203476678Y-93346304D01*
X203441299Y-93412492D01*
X203419513Y-93484311D01*
X203412157Y-93559000D01*
X203412157Y-93749107D01*
X203405815Y-93733796D01*
X203290249Y-93560839D01*
X203143161Y-93413751D01*
X202970204Y-93298185D01*
X202778024Y-93218581D01*
X202574007Y-93178000D01*
X202365993Y-93178000D01*
X202161976Y-93218581D01*
X201969796Y-93298185D01*
X201796839Y-93413751D01*
X201649751Y-93560839D01*
X201534185Y-93733796D01*
X201454581Y-93925976D01*
X201414000Y-94129993D01*
X198806907Y-94129993D01*
X198817254Y-94095725D01*
X198824407Y-94059602D01*
X198832051Y-94023636D01*
X198832643Y-94018007D01*
X198832645Y-94017997D01*
X198832645Y-94017988D01*
X198904062Y-93289618D01*
X198906000Y-93269941D01*
X198906000Y-92906000D01*
X227094001Y-92906000D01*
X227094001Y-93269941D01*
X227094139Y-93271346D01*
X227094376Y-93305196D01*
X227096304Y-93323539D01*
X227096304Y-93341976D01*
X227096896Y-93347614D01*
X227178476Y-94074925D01*
X227186139Y-94110976D01*
X227193275Y-94147016D01*
X227194948Y-94152421D01*
X227194950Y-94152431D01*
X227194954Y-94152440D01*
X227416246Y-94850044D01*
X227430764Y-94883918D01*
X227444766Y-94917887D01*
X227447457Y-94922865D01*
X227447461Y-94922874D01*
X227447466Y-94922881D01*
X227800044Y-95564218D01*
X227820827Y-95594572D01*
X227841196Y-95625229D01*
X227844810Y-95629598D01*
X228315248Y-96190244D01*
X228341550Y-96216001D01*
X228367468Y-96242101D01*
X228371861Y-96245685D01*
X228942237Y-96704278D01*
X228973037Y-96724433D01*
X229003534Y-96745003D01*
X229008540Y-96747665D01*
X229657127Y-97086738D01*
X229691285Y-97100538D01*
X229725167Y-97114781D01*
X229730594Y-97116420D01*
X230432689Y-97323058D01*
X230468846Y-97329955D01*
X230504881Y-97337352D01*
X230510523Y-97337906D01*
X231239383Y-97404238D01*
X231276180Y-97403981D01*
X231312977Y-97404238D01*
X231318619Y-97403685D01*
X232046481Y-97327183D01*
X232082554Y-97319778D01*
X232118672Y-97312888D01*
X232124099Y-97311250D01*
X232823240Y-97094830D01*
X232857203Y-97080553D01*
X232891281Y-97066785D01*
X232896277Y-97064129D01*
X232896286Y-97064125D01*
X232896293Y-97064120D01*
X233540077Y-96716028D01*
X233570600Y-96695440D01*
X233601374Y-96675302D01*
X233605760Y-96671725D01*
X233605767Y-96671720D01*
X233605773Y-96671714D01*
X234169684Y-96205206D01*
X234195618Y-96179090D01*
X234221903Y-96153350D01*
X234225517Y-96148982D01*
X234688082Y-95581822D01*
X234708456Y-95551157D01*
X234729235Y-95520810D01*
X234731932Y-95515824D01*
X235075524Y-94869620D01*
X235089550Y-94835592D01*
X235104043Y-94801776D01*
X235105720Y-94796361D01*
X235317254Y-94095725D01*
X235324407Y-94059602D01*
X235332051Y-94023636D01*
X235332643Y-94018007D01*
X235332645Y-94017997D01*
X235332645Y-94017988D01*
X235404062Y-93289618D01*
X235406000Y-93269941D01*
X235406000Y-92906000D01*
X243594001Y-92906000D01*
X243594000Y-117094000D01*
X225470442Y-117094000D01*
X225525809Y-117082987D01*
X225667942Y-117024113D01*
X225795859Y-116938642D01*
X225904642Y-116829859D01*
X225990113Y-116701942D01*
X226048987Y-116559809D01*
X226079000Y-116408922D01*
X226079000Y-116255078D01*
X226048987Y-116104191D01*
X225990113Y-115962058D01*
X225904642Y-115834141D01*
X225795859Y-115725358D01*
X225667942Y-115639887D01*
X225525809Y-115581013D01*
X225374922Y-115551000D01*
X225221078Y-115551000D01*
X225070191Y-115581013D01*
X224928058Y-115639887D01*
X224800141Y-115725358D01*
X224691358Y-115834141D01*
X224605887Y-115962058D01*
X224547013Y-116104191D01*
X224517000Y-116255078D01*
X224517000Y-116408922D01*
X224547013Y-116559809D01*
X224605887Y-116701942D01*
X224691358Y-116829859D01*
X224800141Y-116938642D01*
X224928058Y-117024113D01*
X225070191Y-117082987D01*
X225125558Y-117094000D01*
X215253190Y-117094000D01*
X215342717Y-117034180D01*
X215514180Y-116862717D01*
X215648898Y-116661097D01*
X215741693Y-116437069D01*
X215789000Y-116199243D01*
X215789000Y-115956757D01*
X215741693Y-115718931D01*
X215648898Y-115494903D01*
X215514180Y-115293283D01*
X215342717Y-115121820D01*
X215141097Y-114987102D01*
X214917069Y-114894307D01*
X214679243Y-114847000D01*
X214436757Y-114847000D01*
X214198931Y-114894307D01*
X213974903Y-114987102D01*
X213773283Y-115121820D01*
X213601820Y-115293283D01*
X213467102Y-115494903D01*
X213374307Y-115718931D01*
X213327000Y-115956757D01*
X213327000Y-116199243D01*
X213374307Y-116437069D01*
X213467102Y-116661097D01*
X213601820Y-116862717D01*
X213773283Y-117034180D01*
X213862810Y-117094000D01*
X211151400Y-117094000D01*
X211202504Y-117042896D01*
X211086399Y-116926791D01*
X211335472Y-116849157D01*
X211461371Y-116585117D01*
X211533339Y-116301589D01*
X211548611Y-116009469D01*
X211506599Y-115719981D01*
X211408919Y-115444253D01*
X211335472Y-115306843D01*
X211086397Y-115229208D01*
X210237605Y-116078000D01*
X210251748Y-116092143D01*
X210072143Y-116271748D01*
X210058000Y-116257605D01*
X210043858Y-116271748D01*
X209864253Y-116092143D01*
X209878395Y-116078000D01*
X209029603Y-115229208D01*
X208780528Y-115306843D01*
X208654629Y-115570883D01*
X208582661Y-115854411D01*
X208567389Y-116146531D01*
X208609401Y-116436019D01*
X208707081Y-116711747D01*
X208780528Y-116849157D01*
X209029601Y-116926791D01*
X208913496Y-117042896D01*
X208964600Y-117094000D01*
X201094303Y-117094000D01*
X201151696Y-117063322D01*
X201209711Y-117015711D01*
X201257322Y-116957696D01*
X201292701Y-116891508D01*
X201314487Y-116819689D01*
X201321843Y-116745000D01*
X201321843Y-115395000D01*
X201314487Y-115320311D01*
X201292701Y-115248492D01*
X201257322Y-115182304D01*
X201209711Y-115124289D01*
X201151696Y-115076678D01*
X201101044Y-115049603D01*
X209209208Y-115049603D01*
X210058000Y-115898395D01*
X210906792Y-115049603D01*
X210829157Y-114800528D01*
X210565117Y-114674629D01*
X210281589Y-114602661D01*
X209989469Y-114587389D01*
X209699981Y-114629401D01*
X209424253Y-114727081D01*
X209286843Y-114800528D01*
X209209208Y-115049603D01*
X201101044Y-115049603D01*
X201085508Y-115041299D01*
X201013689Y-115019513D01*
X200939000Y-115012157D01*
X199589000Y-115012157D01*
X199514311Y-115019513D01*
X199442492Y-115041299D01*
X199376304Y-115076678D01*
X199318289Y-115124289D01*
X199270678Y-115182304D01*
X199235299Y-115248492D01*
X199213513Y-115320311D01*
X199206157Y-115395000D01*
X199206157Y-115585107D01*
X199199815Y-115569796D01*
X199084249Y-115396839D01*
X198937161Y-115249751D01*
X198764204Y-115134185D01*
X198572024Y-115054581D01*
X198368007Y-115014000D01*
X198159993Y-115014000D01*
X197955976Y-115054581D01*
X197763796Y-115134185D01*
X197590839Y-115249751D01*
X197443751Y-115396839D01*
X197328185Y-115569796D01*
X197248581Y-115761976D01*
X197208000Y-115965993D01*
X197208000Y-116174007D01*
X197248581Y-116378024D01*
X197328185Y-116570204D01*
X197443751Y-116743161D01*
X197590839Y-116890249D01*
X197763796Y-117005815D01*
X197955976Y-117085419D01*
X197999116Y-117094000D01*
X194702303Y-117094000D01*
X194759696Y-117063322D01*
X194817711Y-117015711D01*
X194865322Y-116957696D01*
X194900701Y-116891508D01*
X194922487Y-116819689D01*
X194929843Y-116745000D01*
X194929843Y-115395000D01*
X194922487Y-115320311D01*
X194900701Y-115248492D01*
X194865322Y-115182304D01*
X194817711Y-115124289D01*
X194759696Y-115076678D01*
X194693508Y-115041299D01*
X194621689Y-115019513D01*
X194547000Y-115012157D01*
X193197000Y-115012157D01*
X193122311Y-115019513D01*
X193050492Y-115041299D01*
X192984304Y-115076678D01*
X192926289Y-115124289D01*
X192878678Y-115182304D01*
X192843299Y-115248492D01*
X192821513Y-115320311D01*
X192814157Y-115395000D01*
X192814157Y-115585107D01*
X192807815Y-115569796D01*
X192692249Y-115396839D01*
X192545161Y-115249751D01*
X192372204Y-115134185D01*
X192180024Y-115054581D01*
X191976007Y-115014000D01*
X191767993Y-115014000D01*
X191563976Y-115054581D01*
X191371796Y-115134185D01*
X191198839Y-115249751D01*
X191051751Y-115396839D01*
X190936185Y-115569796D01*
X190856581Y-115761976D01*
X190816000Y-115965993D01*
X190816000Y-116174007D01*
X190856581Y-116378024D01*
X190936185Y-116570204D01*
X191051751Y-116743161D01*
X191198839Y-116890249D01*
X191371796Y-117005815D01*
X191563976Y-117085419D01*
X191607116Y-117094000D01*
X182906000Y-117094000D01*
X182906000Y-115895993D01*
X183444000Y-115895993D01*
X183444000Y-116104007D01*
X183484581Y-116308024D01*
X183564185Y-116500204D01*
X183679751Y-116673161D01*
X183826839Y-116820249D01*
X183999796Y-116935815D01*
X184191976Y-117015419D01*
X184395993Y-117056000D01*
X184604007Y-117056000D01*
X184808024Y-117015419D01*
X185000204Y-116935815D01*
X185173161Y-116820249D01*
X185320249Y-116673161D01*
X185435815Y-116500204D01*
X185442157Y-116484893D01*
X185442157Y-116675000D01*
X185449513Y-116749689D01*
X185471299Y-116821508D01*
X185506678Y-116887696D01*
X185554289Y-116945711D01*
X185612304Y-116993322D01*
X185678492Y-117028701D01*
X185750311Y-117050487D01*
X185825000Y-117057843D01*
X187175000Y-117057843D01*
X187249689Y-117050487D01*
X187321508Y-117028701D01*
X187387696Y-116993322D01*
X187445711Y-116945711D01*
X187493322Y-116887696D01*
X187528701Y-116821508D01*
X187550487Y-116749689D01*
X187557843Y-116675000D01*
X187557843Y-115325000D01*
X187550487Y-115250311D01*
X187528701Y-115178492D01*
X187493322Y-115112304D01*
X187445711Y-115054289D01*
X187387696Y-115006678D01*
X187321508Y-114971299D01*
X187249689Y-114949513D01*
X187175000Y-114942157D01*
X185825000Y-114942157D01*
X185750311Y-114949513D01*
X185678492Y-114971299D01*
X185612304Y-115006678D01*
X185554289Y-115054289D01*
X185506678Y-115112304D01*
X185471299Y-115178492D01*
X185449513Y-115250311D01*
X185442157Y-115325000D01*
X185442157Y-115515107D01*
X185435815Y-115499796D01*
X185320249Y-115326839D01*
X185173161Y-115179751D01*
X185000204Y-115064185D01*
X184808024Y-114984581D01*
X184604007Y-114944000D01*
X184395993Y-114944000D01*
X184191976Y-114984581D01*
X183999796Y-115064185D01*
X183826839Y-115179751D01*
X183679751Y-115326839D01*
X183564185Y-115499796D01*
X183484581Y-115691976D01*
X183444000Y-115895993D01*
X182906000Y-115895993D01*
X182906000Y-113207078D01*
X200387000Y-113207078D01*
X200387000Y-113360922D01*
X200417013Y-113511809D01*
X200475887Y-113653942D01*
X200561358Y-113781859D01*
X200670141Y-113890642D01*
X200798058Y-113976113D01*
X200940191Y-114034987D01*
X201091078Y-114065000D01*
X201244922Y-114065000D01*
X201395809Y-114034987D01*
X201537942Y-113976113D01*
X201665859Y-113890642D01*
X201774642Y-113781859D01*
X201819263Y-113715078D01*
X216135000Y-113715078D01*
X216135000Y-113868922D01*
X216165013Y-114019809D01*
X216223887Y-114161942D01*
X216309358Y-114289859D01*
X216418141Y-114398642D01*
X216546058Y-114484113D01*
X216688191Y-114542987D01*
X216839078Y-114573000D01*
X216992922Y-114573000D01*
X217143809Y-114542987D01*
X217285942Y-114484113D01*
X217413859Y-114398642D01*
X217522642Y-114289859D01*
X217608113Y-114161942D01*
X217666987Y-114019809D01*
X217697000Y-113868922D01*
X217697000Y-113715078D01*
X217666987Y-113564191D01*
X217624276Y-113461078D01*
X223755000Y-113461078D01*
X223755000Y-113614922D01*
X223785013Y-113765809D01*
X223843887Y-113907942D01*
X223929358Y-114035859D01*
X224038141Y-114144642D01*
X224166058Y-114230113D01*
X224308191Y-114288987D01*
X224459078Y-114319000D01*
X224612922Y-114319000D01*
X224763809Y-114288987D01*
X224905942Y-114230113D01*
X225033859Y-114144642D01*
X225142642Y-114035859D01*
X225228113Y-113907942D01*
X225286987Y-113765809D01*
X225317000Y-113614922D01*
X225317000Y-113461078D01*
X225286987Y-113310191D01*
X225228113Y-113168058D01*
X225142642Y-113040141D01*
X225033859Y-112931358D01*
X224905942Y-112845887D01*
X224763809Y-112787013D01*
X224612922Y-112757000D01*
X224459078Y-112757000D01*
X224308191Y-112787013D01*
X224166058Y-112845887D01*
X224038141Y-112931358D01*
X223929358Y-113040141D01*
X223843887Y-113168058D01*
X223785013Y-113310191D01*
X223755000Y-113461078D01*
X217624276Y-113461078D01*
X217608113Y-113422058D01*
X217522642Y-113294141D01*
X217413859Y-113185358D01*
X217285942Y-113099887D01*
X217143809Y-113041013D01*
X216992922Y-113011000D01*
X216839078Y-113011000D01*
X216688191Y-113041013D01*
X216546058Y-113099887D01*
X216418141Y-113185358D01*
X216309358Y-113294141D01*
X216223887Y-113422058D01*
X216165013Y-113564191D01*
X216135000Y-113715078D01*
X201819263Y-113715078D01*
X201860113Y-113653942D01*
X201918987Y-113511809D01*
X201949000Y-113360922D01*
X201949000Y-113207078D01*
X201918987Y-113056191D01*
X201860113Y-112914058D01*
X201774642Y-112786141D01*
X201665859Y-112677358D01*
X201537942Y-112591887D01*
X201395809Y-112533013D01*
X201244922Y-112503000D01*
X201091078Y-112503000D01*
X200940191Y-112533013D01*
X200798058Y-112591887D01*
X200670141Y-112677358D01*
X200561358Y-112786141D01*
X200475887Y-112914058D01*
X200417013Y-113056191D01*
X200387000Y-113207078D01*
X182906000Y-113207078D01*
X182906000Y-112191078D01*
X191497000Y-112191078D01*
X191497000Y-112344922D01*
X191527013Y-112495809D01*
X191585887Y-112637942D01*
X191671358Y-112765859D01*
X191780141Y-112874642D01*
X191908058Y-112960113D01*
X192050191Y-113018987D01*
X192201078Y-113049000D01*
X192354922Y-113049000D01*
X192505809Y-113018987D01*
X192647942Y-112960113D01*
X192775859Y-112874642D01*
X192884642Y-112765859D01*
X192970113Y-112637942D01*
X193028987Y-112495809D01*
X193039077Y-112445078D01*
X240011000Y-112445078D01*
X240011000Y-112598922D01*
X240041013Y-112749809D01*
X240099887Y-112891942D01*
X240185358Y-113019859D01*
X240294141Y-113128642D01*
X240422058Y-113214113D01*
X240564191Y-113272987D01*
X240715078Y-113303000D01*
X240868922Y-113303000D01*
X241019809Y-113272987D01*
X241161942Y-113214113D01*
X241289859Y-113128642D01*
X241398642Y-113019859D01*
X241484113Y-112891942D01*
X241542987Y-112749809D01*
X241573000Y-112598922D01*
X241573000Y-112445078D01*
X241542987Y-112294191D01*
X241484113Y-112152058D01*
X241398642Y-112024141D01*
X241289859Y-111915358D01*
X241161942Y-111829887D01*
X241019809Y-111771013D01*
X240868922Y-111741000D01*
X240715078Y-111741000D01*
X240564191Y-111771013D01*
X240422058Y-111829887D01*
X240294141Y-111915358D01*
X240185358Y-112024141D01*
X240099887Y-112152058D01*
X240041013Y-112294191D01*
X240011000Y-112445078D01*
X193039077Y-112445078D01*
X193059000Y-112344922D01*
X193059000Y-112191078D01*
X193028987Y-112040191D01*
X192970113Y-111898058D01*
X192884642Y-111770141D01*
X192775859Y-111661358D01*
X192647942Y-111575887D01*
X192505809Y-111517013D01*
X192354922Y-111487000D01*
X192201078Y-111487000D01*
X192050191Y-111517013D01*
X191908058Y-111575887D01*
X191780141Y-111661358D01*
X191671358Y-111770141D01*
X191585887Y-111898058D01*
X191527013Y-112040191D01*
X191497000Y-112191078D01*
X182906000Y-112191078D01*
X182906000Y-110667078D01*
X184893000Y-110667078D01*
X184893000Y-110820922D01*
X184923013Y-110971809D01*
X184981887Y-111113942D01*
X185067358Y-111241859D01*
X185176141Y-111350642D01*
X185304058Y-111436113D01*
X185446191Y-111494987D01*
X185597078Y-111525000D01*
X185750922Y-111525000D01*
X185901809Y-111494987D01*
X186043942Y-111436113D01*
X186171859Y-111350642D01*
X186280642Y-111241859D01*
X186325263Y-111175078D01*
X186671000Y-111175078D01*
X186671000Y-111328922D01*
X186701013Y-111479809D01*
X186759887Y-111621942D01*
X186845358Y-111749859D01*
X186954141Y-111858642D01*
X187082058Y-111944113D01*
X187224191Y-112002987D01*
X187375078Y-112033000D01*
X187528922Y-112033000D01*
X187679809Y-112002987D01*
X187821942Y-111944113D01*
X187949859Y-111858642D01*
X188058642Y-111749859D01*
X188144113Y-111621942D01*
X188202987Y-111479809D01*
X188233000Y-111328922D01*
X188233000Y-111175078D01*
X193275000Y-111175078D01*
X193275000Y-111328922D01*
X193305013Y-111479809D01*
X193363887Y-111621942D01*
X193449358Y-111749859D01*
X193558141Y-111858642D01*
X193686058Y-111944113D01*
X193828191Y-112002987D01*
X193979078Y-112033000D01*
X194132922Y-112033000D01*
X194283809Y-112002987D01*
X194425942Y-111944113D01*
X194553859Y-111858642D01*
X194662642Y-111749859D01*
X194748113Y-111621942D01*
X194806987Y-111479809D01*
X194837000Y-111328922D01*
X194837000Y-111175078D01*
X194806987Y-111024191D01*
X194748113Y-110882058D01*
X194662642Y-110754141D01*
X194575579Y-110667078D01*
X194799000Y-110667078D01*
X194799000Y-110820922D01*
X194829013Y-110971809D01*
X194887887Y-111113942D01*
X194973358Y-111241859D01*
X195082141Y-111350642D01*
X195210058Y-111436113D01*
X195352191Y-111494987D01*
X195503078Y-111525000D01*
X195656922Y-111525000D01*
X195807809Y-111494987D01*
X195949942Y-111436113D01*
X196077859Y-111350642D01*
X196186642Y-111241859D01*
X196272113Y-111113942D01*
X196330987Y-110971809D01*
X196361000Y-110820922D01*
X196361000Y-110667078D01*
X196831000Y-110667078D01*
X196831000Y-110820922D01*
X196861013Y-110971809D01*
X196919887Y-111113942D01*
X197005358Y-111241859D01*
X197114141Y-111350642D01*
X197242058Y-111436113D01*
X197384191Y-111494987D01*
X197535078Y-111525000D01*
X197688922Y-111525000D01*
X197839809Y-111494987D01*
X197981942Y-111436113D01*
X198109859Y-111350642D01*
X198218642Y-111241859D01*
X198304113Y-111113942D01*
X198362987Y-110971809D01*
X198373077Y-110921078D01*
X201911000Y-110921078D01*
X201911000Y-111074922D01*
X201941013Y-111225809D01*
X201999887Y-111367942D01*
X202085358Y-111495859D01*
X202194141Y-111604642D01*
X202322058Y-111690113D01*
X202464191Y-111748987D01*
X202615078Y-111779000D01*
X202768922Y-111779000D01*
X202919809Y-111748987D01*
X203061942Y-111690113D01*
X203073000Y-111682724D01*
X203084058Y-111690113D01*
X203226191Y-111748987D01*
X203377078Y-111779000D01*
X203530922Y-111779000D01*
X203681809Y-111748987D01*
X203823942Y-111690113D01*
X203835000Y-111682724D01*
X203846058Y-111690113D01*
X203988191Y-111748987D01*
X204139078Y-111779000D01*
X204292922Y-111779000D01*
X204443809Y-111748987D01*
X204585942Y-111690113D01*
X204713859Y-111604642D01*
X204822642Y-111495859D01*
X204908113Y-111367942D01*
X204966987Y-111225809D01*
X204997000Y-111074922D01*
X204997000Y-110921078D01*
X204966987Y-110770191D01*
X204908113Y-110628058D01*
X204893640Y-110606397D01*
X209209208Y-110606397D01*
X209286843Y-110855472D01*
X209550883Y-110981371D01*
X209834411Y-111053339D01*
X210126531Y-111068611D01*
X210416019Y-111026599D01*
X210691747Y-110928919D01*
X210829157Y-110855472D01*
X210906792Y-110606397D01*
X210058000Y-109757605D01*
X209209208Y-110606397D01*
X204893640Y-110606397D01*
X204822642Y-110500141D01*
X204713859Y-110391358D01*
X204585942Y-110305887D01*
X204443809Y-110247013D01*
X204292922Y-110217000D01*
X204139078Y-110217000D01*
X203988191Y-110247013D01*
X203846058Y-110305887D01*
X203835000Y-110313276D01*
X203823942Y-110305887D01*
X203681809Y-110247013D01*
X203530922Y-110217000D01*
X203377078Y-110217000D01*
X203226191Y-110247013D01*
X203084058Y-110305887D01*
X203073000Y-110313276D01*
X203061942Y-110305887D01*
X202919809Y-110247013D01*
X202768922Y-110217000D01*
X202615078Y-110217000D01*
X202464191Y-110247013D01*
X202322058Y-110305887D01*
X202194141Y-110391358D01*
X202085358Y-110500141D01*
X201999887Y-110628058D01*
X201941013Y-110770191D01*
X201911000Y-110921078D01*
X198373077Y-110921078D01*
X198393000Y-110820922D01*
X198393000Y-110667078D01*
X198362987Y-110516191D01*
X198304113Y-110374058D01*
X198218642Y-110246141D01*
X198109859Y-110137358D01*
X197981942Y-110051887D01*
X197839809Y-109993013D01*
X197688922Y-109963000D01*
X197535078Y-109963000D01*
X197384191Y-109993013D01*
X197242058Y-110051887D01*
X197114141Y-110137358D01*
X197005358Y-110246141D01*
X196919887Y-110374058D01*
X196861013Y-110516191D01*
X196831000Y-110667078D01*
X196361000Y-110667078D01*
X196330987Y-110516191D01*
X196272113Y-110374058D01*
X196186642Y-110246141D01*
X196077859Y-110137358D01*
X195949942Y-110051887D01*
X195807809Y-109993013D01*
X195656922Y-109963000D01*
X195503078Y-109963000D01*
X195352191Y-109993013D01*
X195210058Y-110051887D01*
X195082141Y-110137358D01*
X194973358Y-110246141D01*
X194887887Y-110374058D01*
X194829013Y-110516191D01*
X194799000Y-110667078D01*
X194575579Y-110667078D01*
X194553859Y-110645358D01*
X194425942Y-110559887D01*
X194283809Y-110501013D01*
X194132922Y-110471000D01*
X193979078Y-110471000D01*
X193828191Y-110501013D01*
X193686058Y-110559887D01*
X193558141Y-110645358D01*
X193449358Y-110754141D01*
X193363887Y-110882058D01*
X193305013Y-111024191D01*
X193275000Y-111175078D01*
X188233000Y-111175078D01*
X188202987Y-111024191D01*
X188144113Y-110882058D01*
X188058642Y-110754141D01*
X187949859Y-110645358D01*
X187821942Y-110559887D01*
X187679809Y-110501013D01*
X187528922Y-110471000D01*
X187375078Y-110471000D01*
X187224191Y-110501013D01*
X187082058Y-110559887D01*
X186954141Y-110645358D01*
X186845358Y-110754141D01*
X186759887Y-110882058D01*
X186701013Y-111024191D01*
X186671000Y-111175078D01*
X186325263Y-111175078D01*
X186366113Y-111113942D01*
X186424987Y-110971809D01*
X186455000Y-110820922D01*
X186455000Y-110667078D01*
X186424987Y-110516191D01*
X186366113Y-110374058D01*
X186280642Y-110246141D01*
X186171859Y-110137358D01*
X186043942Y-110051887D01*
X185901809Y-109993013D01*
X185750922Y-109963000D01*
X185597078Y-109963000D01*
X185446191Y-109993013D01*
X185304058Y-110051887D01*
X185176141Y-110137358D01*
X185067358Y-110246141D01*
X184981887Y-110374058D01*
X184923013Y-110516191D01*
X184893000Y-110667078D01*
X182906000Y-110667078D01*
X182906000Y-109646531D01*
X208567389Y-109646531D01*
X208609401Y-109936019D01*
X208707081Y-110211747D01*
X208780528Y-110349157D01*
X209029603Y-110426792D01*
X209878395Y-109578000D01*
X210237605Y-109578000D01*
X211086397Y-110426792D01*
X211335472Y-110349157D01*
X211461371Y-110085117D01*
X211533339Y-109801589D01*
X211548611Y-109509469D01*
X211540962Y-109456757D01*
X213327000Y-109456757D01*
X213327000Y-109699243D01*
X213374307Y-109937069D01*
X213467102Y-110161097D01*
X213601820Y-110362717D01*
X213773283Y-110534180D01*
X213974903Y-110668898D01*
X214198931Y-110761693D01*
X214436757Y-110809000D01*
X214679243Y-110809000D01*
X214917069Y-110761693D01*
X215141097Y-110668898D01*
X215342717Y-110534180D01*
X215514180Y-110362717D01*
X215648898Y-110161097D01*
X215741693Y-109937069D01*
X215789000Y-109699243D01*
X215789000Y-109581260D01*
X219619000Y-109581260D01*
X219619000Y-109902540D01*
X219681678Y-110217645D01*
X219804626Y-110514468D01*
X219983119Y-110781602D01*
X220210298Y-111008781D01*
X220477432Y-111187274D01*
X220774255Y-111310222D01*
X221089360Y-111372900D01*
X221410640Y-111372900D01*
X221725745Y-111310222D01*
X222022568Y-111187274D01*
X222289702Y-111008781D01*
X222516881Y-110781602D01*
X222695374Y-110514468D01*
X222818322Y-110217645D01*
X222881000Y-109902540D01*
X222881000Y-109581260D01*
X222818322Y-109266155D01*
X222695374Y-108969332D01*
X222516881Y-108702198D01*
X222289702Y-108475019D01*
X222149110Y-108381078D01*
X239503000Y-108381078D01*
X239503000Y-108534922D01*
X239533013Y-108685809D01*
X239591887Y-108827942D01*
X239677358Y-108955859D01*
X239786141Y-109064642D01*
X239914058Y-109150113D01*
X240056191Y-109208987D01*
X240207078Y-109239000D01*
X240360922Y-109239000D01*
X240511809Y-109208987D01*
X240653942Y-109150113D01*
X240781859Y-109064642D01*
X240890642Y-108955859D01*
X240976113Y-108827942D01*
X241034987Y-108685809D01*
X241065000Y-108534922D01*
X241065000Y-108381078D01*
X241034987Y-108230191D01*
X240976113Y-108088058D01*
X240890642Y-107960141D01*
X240781859Y-107851358D01*
X240653942Y-107765887D01*
X240511809Y-107707013D01*
X240360922Y-107677000D01*
X240207078Y-107677000D01*
X240056191Y-107707013D01*
X239914058Y-107765887D01*
X239786141Y-107851358D01*
X239677358Y-107960141D01*
X239591887Y-108088058D01*
X239533013Y-108230191D01*
X239503000Y-108381078D01*
X222149110Y-108381078D01*
X222022568Y-108296526D01*
X221725745Y-108173578D01*
X221410640Y-108110900D01*
X221089360Y-108110900D01*
X220774255Y-108173578D01*
X220477432Y-108296526D01*
X220210298Y-108475019D01*
X219983119Y-108702198D01*
X219804626Y-108969332D01*
X219681678Y-109266155D01*
X219619000Y-109581260D01*
X215789000Y-109581260D01*
X215789000Y-109456757D01*
X215741693Y-109218931D01*
X215648898Y-108994903D01*
X215514180Y-108793283D01*
X215342717Y-108621820D01*
X215141097Y-108487102D01*
X214917069Y-108394307D01*
X214679243Y-108347000D01*
X214436757Y-108347000D01*
X214198931Y-108394307D01*
X213974903Y-108487102D01*
X213773283Y-108621820D01*
X213601820Y-108793283D01*
X213467102Y-108994903D01*
X213374307Y-109218931D01*
X213327000Y-109456757D01*
X211540962Y-109456757D01*
X211506599Y-109219981D01*
X211408919Y-108944253D01*
X211335472Y-108806843D01*
X211086397Y-108729208D01*
X210237605Y-109578000D01*
X209878395Y-109578000D01*
X209029603Y-108729208D01*
X208780528Y-108806843D01*
X208654629Y-109070883D01*
X208582661Y-109354411D01*
X208567389Y-109646531D01*
X182906000Y-109646531D01*
X182906000Y-107873078D01*
X198355000Y-107873078D01*
X198355000Y-108026922D01*
X198385013Y-108177809D01*
X198443887Y-108319942D01*
X198529358Y-108447859D01*
X198638141Y-108556642D01*
X198766058Y-108642113D01*
X198908191Y-108700987D01*
X199059078Y-108731000D01*
X199212922Y-108731000D01*
X199363809Y-108700987D01*
X199505942Y-108642113D01*
X199633859Y-108556642D01*
X199640898Y-108549603D01*
X209209208Y-108549603D01*
X210058000Y-109398395D01*
X210906792Y-108549603D01*
X210854264Y-108381078D01*
X211563000Y-108381078D01*
X211563000Y-108534922D01*
X211593013Y-108685809D01*
X211651887Y-108827942D01*
X211737358Y-108955859D01*
X211846141Y-109064642D01*
X211974058Y-109150113D01*
X212116191Y-109208987D01*
X212267078Y-109239000D01*
X212420922Y-109239000D01*
X212571809Y-109208987D01*
X212713942Y-109150113D01*
X212841859Y-109064642D01*
X212950642Y-108955859D01*
X213036113Y-108827942D01*
X213094987Y-108685809D01*
X213125000Y-108534922D01*
X213125000Y-108381078D01*
X213104970Y-108280378D01*
X215943211Y-108280378D01*
X215943211Y-108434222D01*
X215973224Y-108585109D01*
X216032098Y-108727242D01*
X216117569Y-108855159D01*
X216226352Y-108963942D01*
X216354269Y-109049413D01*
X216496402Y-109108287D01*
X216647289Y-109138300D01*
X216801133Y-109138300D01*
X216952020Y-109108287D01*
X217094153Y-109049413D01*
X217222070Y-108963942D01*
X217330853Y-108855159D01*
X217416324Y-108727242D01*
X217475198Y-108585109D01*
X217505211Y-108434222D01*
X217505211Y-108280378D01*
X217475198Y-108129491D01*
X217416324Y-107987358D01*
X217330853Y-107859441D01*
X217222070Y-107750658D01*
X217094153Y-107665187D01*
X216952020Y-107606313D01*
X216801133Y-107576300D01*
X216647289Y-107576300D01*
X216496402Y-107606313D01*
X216354269Y-107665187D01*
X216226352Y-107750658D01*
X216117569Y-107859441D01*
X216032098Y-107987358D01*
X215973224Y-108129491D01*
X215943211Y-108280378D01*
X213104970Y-108280378D01*
X213094987Y-108230191D01*
X213036113Y-108088058D01*
X212950642Y-107960141D01*
X212940504Y-107950003D01*
X212950648Y-107939859D01*
X213036119Y-107811942D01*
X213094993Y-107669809D01*
X213125006Y-107518922D01*
X213125006Y-107365078D01*
X213094993Y-107214191D01*
X213036119Y-107072058D01*
X212950648Y-106944141D01*
X212841865Y-106835358D01*
X212713948Y-106749887D01*
X212571815Y-106691013D01*
X212420928Y-106661000D01*
X212267084Y-106661000D01*
X212116197Y-106691013D01*
X211974064Y-106749887D01*
X211846147Y-106835358D01*
X211737364Y-106944141D01*
X211651893Y-107072058D01*
X211593019Y-107214191D01*
X211563006Y-107365078D01*
X211563006Y-107518922D01*
X211593019Y-107669809D01*
X211651893Y-107811942D01*
X211737364Y-107939859D01*
X211747502Y-107949997D01*
X211737358Y-107960141D01*
X211651887Y-108088058D01*
X211593013Y-108230191D01*
X211563000Y-108381078D01*
X210854264Y-108381078D01*
X210829157Y-108300528D01*
X210565117Y-108174629D01*
X210281589Y-108102661D01*
X209989469Y-108087389D01*
X209699981Y-108129401D01*
X209424253Y-108227081D01*
X209286843Y-108300528D01*
X209209208Y-108549603D01*
X199640898Y-108549603D01*
X199742642Y-108447859D01*
X199828113Y-108319942D01*
X199886987Y-108177809D01*
X199917000Y-108026922D01*
X199917000Y-107873078D01*
X199886987Y-107722191D01*
X199828113Y-107580058D01*
X199742642Y-107452141D01*
X199633859Y-107343358D01*
X199505942Y-107257887D01*
X199367151Y-107200397D01*
X209209208Y-107200397D01*
X209286843Y-107449472D01*
X209550883Y-107575371D01*
X209834411Y-107647339D01*
X210126531Y-107662611D01*
X210416019Y-107620599D01*
X210691747Y-107522919D01*
X210829157Y-107449472D01*
X210906792Y-107200397D01*
X210058000Y-106351605D01*
X209209208Y-107200397D01*
X199367151Y-107200397D01*
X199363809Y-107199013D01*
X199212922Y-107169000D01*
X199059078Y-107169000D01*
X198908191Y-107199013D01*
X198766058Y-107257887D01*
X198638141Y-107343358D01*
X198529358Y-107452141D01*
X198443887Y-107580058D01*
X198385013Y-107722191D01*
X198355000Y-107873078D01*
X182906000Y-107873078D01*
X182906000Y-106730078D01*
X194926000Y-106730078D01*
X194926000Y-106883922D01*
X194956013Y-107034809D01*
X195014887Y-107176942D01*
X195100358Y-107304859D01*
X195209141Y-107413642D01*
X195337058Y-107499113D01*
X195479191Y-107557987D01*
X195630078Y-107588000D01*
X195783922Y-107588000D01*
X195934809Y-107557987D01*
X196076942Y-107499113D01*
X196204859Y-107413642D01*
X196313642Y-107304859D01*
X196399113Y-107176942D01*
X196457987Y-107034809D01*
X196488000Y-106883922D01*
X196488000Y-106730078D01*
X196457987Y-106579191D01*
X196399113Y-106437058D01*
X196313642Y-106309141D01*
X196204859Y-106200358D01*
X196076942Y-106114887D01*
X195934809Y-106056013D01*
X195783922Y-106026000D01*
X195630078Y-106026000D01*
X195479191Y-106056013D01*
X195337058Y-106114887D01*
X195209141Y-106200358D01*
X195100358Y-106309141D01*
X195014887Y-106437058D01*
X194956013Y-106579191D01*
X194926000Y-106730078D01*
X182906000Y-106730078D01*
X182906000Y-105079078D01*
X195053000Y-105079078D01*
X195053000Y-105232922D01*
X195083013Y-105383809D01*
X195141887Y-105525942D01*
X195227358Y-105653859D01*
X195336141Y-105762642D01*
X195464058Y-105848113D01*
X195606191Y-105906987D01*
X195757078Y-105937000D01*
X195910922Y-105937000D01*
X196061809Y-105906987D01*
X196203942Y-105848113D01*
X196214470Y-105841078D01*
X198354988Y-105841078D01*
X198354988Y-105994922D01*
X198385001Y-106145809D01*
X198443875Y-106287942D01*
X198529346Y-106415859D01*
X198638129Y-106524642D01*
X198766046Y-106610113D01*
X198908179Y-106668987D01*
X199059066Y-106699000D01*
X199212910Y-106699000D01*
X199363797Y-106668987D01*
X199505930Y-106610113D01*
X199633847Y-106524642D01*
X199742630Y-106415859D01*
X199828101Y-106287942D01*
X199847739Y-106240531D01*
X208567389Y-106240531D01*
X208609401Y-106530019D01*
X208707081Y-106805747D01*
X208780528Y-106943157D01*
X209029603Y-107020792D01*
X209878395Y-106172000D01*
X210237605Y-106172000D01*
X211086397Y-107020792D01*
X211335472Y-106943157D01*
X211461371Y-106679117D01*
X211533339Y-106395589D01*
X211548611Y-106103469D01*
X211540962Y-106050757D01*
X213327000Y-106050757D01*
X213327000Y-106293243D01*
X213374307Y-106531069D01*
X213467102Y-106755097D01*
X213601820Y-106956717D01*
X213773283Y-107128180D01*
X213974903Y-107262898D01*
X214198931Y-107355693D01*
X214436757Y-107403000D01*
X214679243Y-107403000D01*
X214917069Y-107355693D01*
X215141097Y-107262898D01*
X215342717Y-107128180D01*
X215514180Y-106956717D01*
X215648898Y-106755097D01*
X215741693Y-106531069D01*
X215782468Y-106326078D01*
X225002002Y-106326078D01*
X225002002Y-106479922D01*
X225032015Y-106630809D01*
X225090889Y-106772942D01*
X225176360Y-106900859D01*
X225285143Y-107009642D01*
X225413060Y-107095113D01*
X225555193Y-107153987D01*
X225706080Y-107184000D01*
X225859924Y-107184000D01*
X226010811Y-107153987D01*
X226152944Y-107095113D01*
X226280861Y-107009642D01*
X226389644Y-106900859D01*
X226475115Y-106772942D01*
X226533989Y-106630809D01*
X226564002Y-106479922D01*
X226564002Y-106349078D01*
X239757000Y-106349078D01*
X239757000Y-106502922D01*
X239787013Y-106653809D01*
X239845887Y-106795942D01*
X239931358Y-106923859D01*
X240040141Y-107032642D01*
X240168058Y-107118113D01*
X240310191Y-107176987D01*
X240461078Y-107207000D01*
X240614922Y-107207000D01*
X240765809Y-107176987D01*
X240907942Y-107118113D01*
X241035859Y-107032642D01*
X241144642Y-106923859D01*
X241230113Y-106795942D01*
X241288987Y-106653809D01*
X241319000Y-106502922D01*
X241319000Y-106349078D01*
X241288987Y-106198191D01*
X241230113Y-106056058D01*
X241144642Y-105928141D01*
X241035859Y-105819358D01*
X240907942Y-105733887D01*
X240765809Y-105675013D01*
X240614922Y-105645000D01*
X240461078Y-105645000D01*
X240310191Y-105675013D01*
X240168058Y-105733887D01*
X240040141Y-105819358D01*
X239931358Y-105928141D01*
X239845887Y-106056058D01*
X239787013Y-106198191D01*
X239757000Y-106349078D01*
X226564002Y-106349078D01*
X226564002Y-106326078D01*
X226533989Y-106175191D01*
X226475115Y-106033058D01*
X226389644Y-105905141D01*
X226280861Y-105796358D01*
X226152944Y-105710887D01*
X226010811Y-105652013D01*
X225859924Y-105622000D01*
X225706080Y-105622000D01*
X225555193Y-105652013D01*
X225413060Y-105710887D01*
X225285143Y-105796358D01*
X225176360Y-105905141D01*
X225090889Y-106033058D01*
X225032015Y-106175191D01*
X225002002Y-106326078D01*
X215782468Y-106326078D01*
X215789000Y-106293243D01*
X215789000Y-106050757D01*
X215741693Y-105812931D01*
X215648898Y-105588903D01*
X215514180Y-105387283D01*
X215342717Y-105215820D01*
X215141097Y-105081102D01*
X214917069Y-104988307D01*
X214679243Y-104941000D01*
X214436757Y-104941000D01*
X214198931Y-104988307D01*
X213974903Y-105081102D01*
X213773283Y-105215820D01*
X213601820Y-105387283D01*
X213467102Y-105588903D01*
X213374307Y-105812931D01*
X213327000Y-106050757D01*
X211540962Y-106050757D01*
X211506599Y-105813981D01*
X211408919Y-105538253D01*
X211335472Y-105400843D01*
X211086397Y-105323208D01*
X210237605Y-106172000D01*
X209878395Y-106172000D01*
X209029603Y-105323208D01*
X208780528Y-105400843D01*
X208654629Y-105664883D01*
X208582661Y-105948411D01*
X208567389Y-106240531D01*
X199847739Y-106240531D01*
X199886975Y-106145809D01*
X199916988Y-105994922D01*
X199916988Y-105841078D01*
X199886975Y-105690191D01*
X199828101Y-105548058D01*
X199742630Y-105420141D01*
X199656188Y-105333699D01*
X206997300Y-105333699D01*
X206997300Y-105486301D01*
X207027072Y-105635972D01*
X207085470Y-105776958D01*
X207170252Y-105903842D01*
X207278158Y-106011748D01*
X207405042Y-106096530D01*
X207546028Y-106154928D01*
X207695699Y-106184700D01*
X207848301Y-106184700D01*
X207997972Y-106154928D01*
X208138958Y-106096530D01*
X208265842Y-106011748D01*
X208373748Y-105903842D01*
X208458530Y-105776958D01*
X208516928Y-105635972D01*
X208546700Y-105486301D01*
X208546700Y-105333699D01*
X208516928Y-105184028D01*
X208500184Y-105143603D01*
X209209208Y-105143603D01*
X210058000Y-105992395D01*
X210906792Y-105143603D01*
X210829157Y-104894528D01*
X210565117Y-104768629D01*
X210281589Y-104696661D01*
X209989469Y-104681389D01*
X209699981Y-104723401D01*
X209424253Y-104821081D01*
X209286843Y-104894528D01*
X209209208Y-105143603D01*
X208500184Y-105143603D01*
X208458530Y-105043042D01*
X208373748Y-104916158D01*
X208265842Y-104808252D01*
X208138958Y-104723470D01*
X207997972Y-104665072D01*
X207848301Y-104635300D01*
X207695699Y-104635300D01*
X207546028Y-104665072D01*
X207405042Y-104723470D01*
X207278158Y-104808252D01*
X207170252Y-104916158D01*
X207085470Y-105043042D01*
X207027072Y-105184028D01*
X206997300Y-105333699D01*
X199656188Y-105333699D01*
X199633847Y-105311358D01*
X199505930Y-105225887D01*
X199363797Y-105167013D01*
X199212910Y-105137000D01*
X199059066Y-105137000D01*
X198908179Y-105167013D01*
X198766046Y-105225887D01*
X198638129Y-105311358D01*
X198529346Y-105420141D01*
X198443875Y-105548058D01*
X198385001Y-105690191D01*
X198354988Y-105841078D01*
X196214470Y-105841078D01*
X196331859Y-105762642D01*
X196440642Y-105653859D01*
X196526113Y-105525942D01*
X196584987Y-105383809D01*
X196615000Y-105232922D01*
X196615000Y-105079078D01*
X196584987Y-104928191D01*
X196526113Y-104786058D01*
X196440642Y-104658141D01*
X196331859Y-104549358D01*
X196203942Y-104463887D01*
X196061809Y-104405013D01*
X195910922Y-104375000D01*
X195757078Y-104375000D01*
X195606191Y-104405013D01*
X195464058Y-104463887D01*
X195336141Y-104549358D01*
X195227358Y-104658141D01*
X195141887Y-104786058D01*
X195083013Y-104928191D01*
X195053000Y-105079078D01*
X182906000Y-105079078D01*
X182906000Y-103555090D01*
X187941000Y-103555090D01*
X187941000Y-103708934D01*
X187971013Y-103859821D01*
X188029887Y-104001954D01*
X188115358Y-104129871D01*
X188224141Y-104238654D01*
X188352058Y-104324125D01*
X188494191Y-104382999D01*
X188645078Y-104413012D01*
X188798922Y-104413012D01*
X188949809Y-104382999D01*
X189091942Y-104324125D01*
X189219859Y-104238654D01*
X189328642Y-104129871D01*
X189373271Y-104063078D01*
X211055000Y-104063078D01*
X211055000Y-104216922D01*
X211085013Y-104367809D01*
X211143887Y-104509942D01*
X211229358Y-104637859D01*
X211338141Y-104746642D01*
X211466058Y-104832113D01*
X211608191Y-104890987D01*
X211759078Y-104921000D01*
X211912922Y-104921000D01*
X212063809Y-104890987D01*
X212205942Y-104832113D01*
X212333859Y-104746642D01*
X212344000Y-104736501D01*
X212354141Y-104746642D01*
X212482058Y-104832113D01*
X212624191Y-104890987D01*
X212775078Y-104921000D01*
X212928922Y-104921000D01*
X213079809Y-104890987D01*
X213221942Y-104832113D01*
X213349859Y-104746642D01*
X213458642Y-104637859D01*
X213544113Y-104509942D01*
X213602987Y-104367809D01*
X213611287Y-104326078D01*
X225016006Y-104326078D01*
X225016006Y-104479922D01*
X225046019Y-104630809D01*
X225104893Y-104772942D01*
X225190364Y-104900859D01*
X225299147Y-105009642D01*
X225427064Y-105095113D01*
X225569197Y-105153987D01*
X225720084Y-105184000D01*
X225873928Y-105184000D01*
X226024815Y-105153987D01*
X226166948Y-105095113D01*
X226294865Y-105009642D01*
X226403648Y-104900859D01*
X226489119Y-104772942D01*
X226547993Y-104630809D01*
X226578006Y-104479922D01*
X226578006Y-104326078D01*
X226547993Y-104175191D01*
X226489119Y-104033058D01*
X226403648Y-103905141D01*
X226294865Y-103796358D01*
X226166948Y-103710887D01*
X226024815Y-103652013D01*
X225873928Y-103622000D01*
X225720084Y-103622000D01*
X225569197Y-103652013D01*
X225427064Y-103710887D01*
X225299147Y-103796358D01*
X225190364Y-103905141D01*
X225104893Y-104033058D01*
X225046019Y-104175191D01*
X225016006Y-104326078D01*
X213611287Y-104326078D01*
X213633000Y-104216922D01*
X213633000Y-104063078D01*
X213602987Y-103912191D01*
X213544113Y-103770058D01*
X213458642Y-103642141D01*
X213349859Y-103533358D01*
X213221942Y-103447887D01*
X213079809Y-103389013D01*
X212928922Y-103359000D01*
X212775078Y-103359000D01*
X212624191Y-103389013D01*
X212482058Y-103447887D01*
X212354141Y-103533358D01*
X212344000Y-103543499D01*
X212333859Y-103533358D01*
X212205942Y-103447887D01*
X212063809Y-103389013D01*
X211912922Y-103359000D01*
X211759078Y-103359000D01*
X211608191Y-103389013D01*
X211466058Y-103447887D01*
X211338141Y-103533358D01*
X211229358Y-103642141D01*
X211143887Y-103770058D01*
X211085013Y-103912191D01*
X211055000Y-104063078D01*
X189373271Y-104063078D01*
X189414113Y-104001954D01*
X189472987Y-103859821D01*
X189503000Y-103708934D01*
X189503000Y-103555090D01*
X189472987Y-103404203D01*
X189414113Y-103262070D01*
X189328642Y-103134153D01*
X189219859Y-103025370D01*
X189091942Y-102939899D01*
X188949809Y-102881025D01*
X188798922Y-102851012D01*
X188645078Y-102851012D01*
X188494191Y-102881025D01*
X188352058Y-102939899D01*
X188224141Y-103025370D01*
X188115358Y-103134153D01*
X188029887Y-103262070D01*
X187971013Y-103404203D01*
X187941000Y-103555090D01*
X182906000Y-103555090D01*
X182906000Y-101523078D01*
X183877000Y-101523078D01*
X183877000Y-101676922D01*
X183907013Y-101827809D01*
X183965887Y-101969942D01*
X184051358Y-102097859D01*
X184160141Y-102206642D01*
X184288058Y-102292113D01*
X184430191Y-102350987D01*
X184581078Y-102381000D01*
X184734922Y-102381000D01*
X184885809Y-102350987D01*
X184893000Y-102348008D01*
X184893000Y-102438922D01*
X184923013Y-102589809D01*
X184981887Y-102731942D01*
X185067358Y-102859859D01*
X185176141Y-102968642D01*
X185304058Y-103054113D01*
X185446191Y-103112987D01*
X185597078Y-103143000D01*
X185750922Y-103143000D01*
X185901809Y-103112987D01*
X186043942Y-103054113D01*
X186171859Y-102968642D01*
X186280642Y-102859859D01*
X186366113Y-102731942D01*
X186424987Y-102589809D01*
X186455000Y-102438922D01*
X186455000Y-102285078D01*
X186433419Y-102176578D01*
X187033500Y-102176578D01*
X187033500Y-102330422D01*
X187063513Y-102481309D01*
X187122387Y-102623442D01*
X187207858Y-102751359D01*
X187316641Y-102860142D01*
X187444558Y-102945613D01*
X187586691Y-103004487D01*
X187737578Y-103034500D01*
X187891422Y-103034500D01*
X188042309Y-103004487D01*
X188184442Y-102945613D01*
X188312359Y-102860142D01*
X188379423Y-102793078D01*
X239757000Y-102793078D01*
X239757000Y-102946922D01*
X239787013Y-103097809D01*
X239845887Y-103239942D01*
X239931358Y-103367859D01*
X240040141Y-103476642D01*
X240168058Y-103562113D01*
X240310191Y-103620987D01*
X240461078Y-103651000D01*
X240544909Y-103651000D01*
X240422058Y-103701887D01*
X240294141Y-103787358D01*
X240185358Y-103896141D01*
X240099887Y-104024058D01*
X240041013Y-104166191D01*
X240011000Y-104317078D01*
X240011000Y-104470922D01*
X240041013Y-104621809D01*
X240099887Y-104763942D01*
X240185358Y-104891859D01*
X240294141Y-105000642D01*
X240422058Y-105086113D01*
X240564191Y-105144987D01*
X240715078Y-105175000D01*
X240868922Y-105175000D01*
X241019809Y-105144987D01*
X241161942Y-105086113D01*
X241289859Y-105000642D01*
X241398642Y-104891859D01*
X241484113Y-104763942D01*
X241542987Y-104621809D01*
X241573000Y-104470922D01*
X241573000Y-104317078D01*
X241542987Y-104166191D01*
X241484113Y-104024058D01*
X241398642Y-103896141D01*
X241289859Y-103787358D01*
X241161942Y-103701887D01*
X241019809Y-103643013D01*
X240868922Y-103613000D01*
X240785091Y-103613000D01*
X240907942Y-103562113D01*
X241035859Y-103476642D01*
X241144642Y-103367859D01*
X241230113Y-103239942D01*
X241288987Y-103097809D01*
X241319000Y-102946922D01*
X241319000Y-102793078D01*
X241288987Y-102642191D01*
X241230113Y-102500058D01*
X241144642Y-102372141D01*
X241035859Y-102263358D01*
X240907942Y-102177887D01*
X240765809Y-102119013D01*
X240614922Y-102089000D01*
X240461078Y-102089000D01*
X240310191Y-102119013D01*
X240168058Y-102177887D01*
X240040141Y-102263358D01*
X239931358Y-102372141D01*
X239845887Y-102500058D01*
X239787013Y-102642191D01*
X239757000Y-102793078D01*
X188379423Y-102793078D01*
X188421142Y-102751359D01*
X188506613Y-102623442D01*
X188565487Y-102481309D01*
X188595500Y-102330422D01*
X188595500Y-102176578D01*
X188565487Y-102025691D01*
X188506613Y-101883558D01*
X188421142Y-101755641D01*
X188312359Y-101646858D01*
X188184442Y-101561387D01*
X188042309Y-101502513D01*
X187891422Y-101472500D01*
X187737578Y-101472500D01*
X187586691Y-101502513D01*
X187444558Y-101561387D01*
X187316641Y-101646858D01*
X187207858Y-101755641D01*
X187122387Y-101883558D01*
X187063513Y-102025691D01*
X187033500Y-102176578D01*
X186433419Y-102176578D01*
X186424987Y-102134191D01*
X186366113Y-101992058D01*
X186280642Y-101864141D01*
X186171859Y-101755358D01*
X186043942Y-101669887D01*
X185901809Y-101611013D01*
X185750922Y-101581000D01*
X185597078Y-101581000D01*
X185446191Y-101611013D01*
X185439000Y-101613992D01*
X185439000Y-101523078D01*
X185408987Y-101372191D01*
X185350113Y-101230058D01*
X185264642Y-101102141D01*
X185155859Y-100993358D01*
X185027942Y-100907887D01*
X184885809Y-100849013D01*
X184734922Y-100819000D01*
X184581078Y-100819000D01*
X184430191Y-100849013D01*
X184288058Y-100907887D01*
X184160141Y-100993358D01*
X184051358Y-101102141D01*
X183965887Y-101230058D01*
X183907013Y-101372191D01*
X183877000Y-101523078D01*
X182906000Y-101523078D01*
X182906000Y-100297560D01*
X195869000Y-100297560D01*
X195869000Y-100618840D01*
X195931678Y-100933945D01*
X196054626Y-101230768D01*
X196233119Y-101497902D01*
X196460298Y-101725081D01*
X196727432Y-101903574D01*
X197024255Y-102026522D01*
X197339360Y-102089200D01*
X197660640Y-102089200D01*
X197975745Y-102026522D01*
X198272568Y-101903574D01*
X198539702Y-101725081D01*
X198766881Y-101497902D01*
X198945374Y-101230768D01*
X199068322Y-100933945D01*
X199114777Y-100700397D01*
X209209208Y-100700397D01*
X209286843Y-100949472D01*
X209550883Y-101075371D01*
X209834411Y-101147339D01*
X210126531Y-101162611D01*
X210416019Y-101120599D01*
X210691747Y-101022919D01*
X210829157Y-100949472D01*
X210906792Y-100700397D01*
X210058000Y-99851605D01*
X209209208Y-100700397D01*
X199114777Y-100700397D01*
X199131000Y-100618840D01*
X199131000Y-100297560D01*
X199068322Y-99982455D01*
X198945374Y-99685632D01*
X198766881Y-99418498D01*
X198539702Y-99191319D01*
X198272568Y-99012826D01*
X197975745Y-98889878D01*
X197660640Y-98827200D01*
X197339360Y-98827200D01*
X197024255Y-98889878D01*
X196727432Y-99012826D01*
X196460298Y-99191319D01*
X196233119Y-99418498D01*
X196054626Y-99685632D01*
X195931678Y-99982455D01*
X195869000Y-100297560D01*
X182906000Y-100297560D01*
X182906000Y-98729078D01*
X203181000Y-98729078D01*
X203181000Y-98882922D01*
X203211013Y-99033809D01*
X203269887Y-99175942D01*
X203355358Y-99303859D01*
X203464141Y-99412642D01*
X203592058Y-99498113D01*
X203734191Y-99556987D01*
X203885078Y-99587000D01*
X204038922Y-99587000D01*
X204189809Y-99556987D01*
X204331942Y-99498113D01*
X204459859Y-99412642D01*
X204568642Y-99303859D01*
X204612848Y-99237699D01*
X206997300Y-99237699D01*
X206997300Y-99390301D01*
X207027072Y-99539972D01*
X207085470Y-99680958D01*
X207170252Y-99807842D01*
X207278158Y-99915748D01*
X207405042Y-100000530D01*
X207546028Y-100058928D01*
X207695699Y-100088700D01*
X207848301Y-100088700D01*
X207997972Y-100058928D01*
X208138958Y-100000530D01*
X208265842Y-99915748D01*
X208373748Y-99807842D01*
X208418724Y-99740531D01*
X208567389Y-99740531D01*
X208609401Y-100030019D01*
X208707081Y-100305747D01*
X208780528Y-100443157D01*
X209029603Y-100520792D01*
X209878395Y-99672000D01*
X210237605Y-99672000D01*
X211086397Y-100520792D01*
X211335472Y-100443157D01*
X211461371Y-100179117D01*
X211533339Y-99895589D01*
X211548611Y-99603469D01*
X211540962Y-99550757D01*
X213327000Y-99550757D01*
X213327000Y-99793243D01*
X213374307Y-100031069D01*
X213467102Y-100255097D01*
X213601820Y-100456717D01*
X213773283Y-100628180D01*
X213974903Y-100762898D01*
X214198931Y-100855693D01*
X214436757Y-100903000D01*
X214679243Y-100903000D01*
X214917069Y-100855693D01*
X215141097Y-100762898D01*
X215342717Y-100628180D01*
X215514180Y-100456717D01*
X215648898Y-100255097D01*
X215741693Y-100031069D01*
X215789000Y-99793243D01*
X215789000Y-99550757D01*
X215741693Y-99312931D01*
X215648898Y-99088903D01*
X215514180Y-98887283D01*
X215355975Y-98729078D01*
X241027000Y-98729078D01*
X241027000Y-98882922D01*
X241057013Y-99033809D01*
X241115887Y-99175942D01*
X241201358Y-99303859D01*
X241310141Y-99412642D01*
X241438058Y-99498113D01*
X241580191Y-99556987D01*
X241731078Y-99587000D01*
X241884922Y-99587000D01*
X242035809Y-99556987D01*
X242177942Y-99498113D01*
X242305859Y-99412642D01*
X242414642Y-99303859D01*
X242500113Y-99175942D01*
X242558987Y-99033809D01*
X242589000Y-98882922D01*
X242589000Y-98729078D01*
X242558987Y-98578191D01*
X242500113Y-98436058D01*
X242414642Y-98308141D01*
X242305859Y-98199358D01*
X242177942Y-98113887D01*
X242035809Y-98055013D01*
X241884922Y-98025000D01*
X241731078Y-98025000D01*
X241580191Y-98055013D01*
X241438058Y-98113887D01*
X241310141Y-98199358D01*
X241201358Y-98308141D01*
X241115887Y-98436058D01*
X241057013Y-98578191D01*
X241027000Y-98729078D01*
X215355975Y-98729078D01*
X215342717Y-98715820D01*
X215141097Y-98581102D01*
X214917069Y-98488307D01*
X214679243Y-98441000D01*
X214436757Y-98441000D01*
X214198931Y-98488307D01*
X213974903Y-98581102D01*
X213773283Y-98715820D01*
X213601820Y-98887283D01*
X213467102Y-99088903D01*
X213374307Y-99312931D01*
X213327000Y-99550757D01*
X211540962Y-99550757D01*
X211506599Y-99313981D01*
X211408919Y-99038253D01*
X211335472Y-98900843D01*
X211086397Y-98823208D01*
X210237605Y-99672000D01*
X209878395Y-99672000D01*
X209029603Y-98823208D01*
X208780528Y-98900843D01*
X208654629Y-99164883D01*
X208582661Y-99448411D01*
X208567389Y-99740531D01*
X208418724Y-99740531D01*
X208458530Y-99680958D01*
X208516928Y-99539972D01*
X208546700Y-99390301D01*
X208546700Y-99237699D01*
X208516928Y-99088028D01*
X208458530Y-98947042D01*
X208373748Y-98820158D01*
X208265842Y-98712252D01*
X208163103Y-98643603D01*
X209209208Y-98643603D01*
X210058000Y-99492395D01*
X210906792Y-98643603D01*
X210829157Y-98394528D01*
X210565117Y-98268629D01*
X210281589Y-98196661D01*
X209989469Y-98181389D01*
X209699981Y-98223401D01*
X209424253Y-98321081D01*
X209286843Y-98394528D01*
X209209208Y-98643603D01*
X208163103Y-98643603D01*
X208138958Y-98627470D01*
X207997972Y-98569072D01*
X207848301Y-98539300D01*
X207695699Y-98539300D01*
X207546028Y-98569072D01*
X207405042Y-98627470D01*
X207278158Y-98712252D01*
X207170252Y-98820158D01*
X207085470Y-98947042D01*
X207027072Y-99088028D01*
X206997300Y-99237699D01*
X204612848Y-99237699D01*
X204654113Y-99175942D01*
X204712987Y-99033809D01*
X204743000Y-98882922D01*
X204743000Y-98729078D01*
X204712987Y-98578191D01*
X204654113Y-98436058D01*
X204568642Y-98308141D01*
X204459859Y-98199358D01*
X204331942Y-98113887D01*
X204189809Y-98055013D01*
X204038922Y-98025000D01*
X203885078Y-98025000D01*
X203734191Y-98055013D01*
X203592058Y-98113887D01*
X203464141Y-98199358D01*
X203355358Y-98308141D01*
X203269887Y-98436058D01*
X203211013Y-98578191D01*
X203181000Y-98729078D01*
X182906000Y-98729078D01*
X182906000Y-96951078D01*
X186671000Y-96951078D01*
X186671000Y-97104922D01*
X186701013Y-97255809D01*
X186759887Y-97397942D01*
X186845358Y-97525859D01*
X186954141Y-97634642D01*
X187082058Y-97720113D01*
X187224191Y-97778987D01*
X187375078Y-97809000D01*
X187528922Y-97809000D01*
X187679809Y-97778987D01*
X187821942Y-97720113D01*
X187949859Y-97634642D01*
X188058642Y-97525859D01*
X188144113Y-97397942D01*
X188202987Y-97255809D01*
X188233000Y-97104922D01*
X188233000Y-96951078D01*
X188227928Y-96925578D01*
X188423500Y-96925578D01*
X188423500Y-97079422D01*
X188453513Y-97230309D01*
X188512387Y-97372442D01*
X188597858Y-97500359D01*
X188706641Y-97609142D01*
X188834558Y-97694613D01*
X188976691Y-97753487D01*
X189127578Y-97783500D01*
X189281422Y-97783500D01*
X189432309Y-97753487D01*
X189574442Y-97694613D01*
X189702359Y-97609142D01*
X189811142Y-97500359D01*
X189896613Y-97372442D01*
X189955487Y-97230309D01*
X189985500Y-97079422D01*
X189985500Y-96925578D01*
X189955487Y-96774691D01*
X189896613Y-96632558D01*
X189811142Y-96504641D01*
X189702359Y-96395858D01*
X189574442Y-96310387D01*
X189432309Y-96251513D01*
X189281422Y-96221500D01*
X189127578Y-96221500D01*
X188976691Y-96251513D01*
X188834558Y-96310387D01*
X188706641Y-96395858D01*
X188597858Y-96504641D01*
X188512387Y-96632558D01*
X188453513Y-96774691D01*
X188423500Y-96925578D01*
X188227928Y-96925578D01*
X188202987Y-96800191D01*
X188144113Y-96658058D01*
X188058642Y-96530141D01*
X187949859Y-96421358D01*
X187821942Y-96335887D01*
X187679809Y-96277013D01*
X187528922Y-96247000D01*
X187375078Y-96247000D01*
X187224191Y-96277013D01*
X187082058Y-96335887D01*
X186954141Y-96421358D01*
X186845358Y-96530141D01*
X186759887Y-96658058D01*
X186701013Y-96800191D01*
X186671000Y-96951078D01*
X182906000Y-96951078D01*
X182906000Y-94361002D01*
X183036914Y-94361002D01*
X182914085Y-94563401D01*
X183002711Y-94804430D01*
X183136656Y-95023537D01*
X183310773Y-95212303D01*
X183518371Y-95363473D01*
X183751472Y-95471238D01*
X183852600Y-95501910D01*
X184055000Y-95378224D01*
X184055000Y-94361000D01*
X184035000Y-94361000D01*
X184035000Y-94107000D01*
X184055000Y-94107000D01*
X184055000Y-93089776D01*
X184309000Y-93089776D01*
X184309000Y-94107000D01*
X184329000Y-94107000D01*
X184329000Y-94361000D01*
X184309000Y-94361000D01*
X184309000Y-95378224D01*
X184511400Y-95501910D01*
X184612528Y-95471238D01*
X184845629Y-95363473D01*
X185053227Y-95212303D01*
X185169646Y-95086090D01*
X185188678Y-95121696D01*
X185236289Y-95179711D01*
X185294304Y-95227322D01*
X185360492Y-95262701D01*
X185432311Y-95284487D01*
X185507000Y-95291843D01*
X185543656Y-95291843D01*
X185446858Y-95388641D01*
X185361387Y-95516558D01*
X185302513Y-95658691D01*
X185272500Y-95809578D01*
X185272500Y-95963422D01*
X185302513Y-96114309D01*
X185361387Y-96256442D01*
X185446858Y-96384359D01*
X185555641Y-96493142D01*
X185683558Y-96578613D01*
X185825691Y-96637487D01*
X185976578Y-96667500D01*
X186130422Y-96667500D01*
X186281309Y-96637487D01*
X186423442Y-96578613D01*
X186551359Y-96493142D01*
X186660142Y-96384359D01*
X186745613Y-96256442D01*
X186804487Y-96114309D01*
X186834500Y-95963422D01*
X186834500Y-95809578D01*
X186804487Y-95658691D01*
X186745613Y-95516558D01*
X186660142Y-95388641D01*
X186563344Y-95291843D01*
X186857000Y-95291843D01*
X186931689Y-95284487D01*
X187003508Y-95262701D01*
X187069696Y-95227322D01*
X187127711Y-95179711D01*
X187175322Y-95121696D01*
X187210701Y-95055508D01*
X187232487Y-94983689D01*
X187239843Y-94909000D01*
X187239843Y-93559000D01*
X187232487Y-93484311D01*
X187210701Y-93412492D01*
X187175322Y-93346304D01*
X187127711Y-93288289D01*
X187069696Y-93240678D01*
X187003508Y-93205299D01*
X186931689Y-93183513D01*
X186857000Y-93176157D01*
X185507000Y-93176157D01*
X185432311Y-93183513D01*
X185360492Y-93205299D01*
X185294304Y-93240678D01*
X185236289Y-93288289D01*
X185188678Y-93346304D01*
X185169646Y-93381910D01*
X185053227Y-93255697D01*
X184845629Y-93104527D01*
X184612528Y-92996762D01*
X184511400Y-92966090D01*
X184309000Y-93089776D01*
X184055000Y-93089776D01*
X183852600Y-92966090D01*
X183751472Y-92996762D01*
X183518371Y-93104527D01*
X183310773Y-93255697D01*
X183136656Y-93444463D01*
X183002711Y-93663570D01*
X182914085Y-93904599D01*
X183036914Y-94106998D01*
X182906000Y-94106998D01*
X182906000Y-92906000D01*
X190594001Y-92906000D01*
X190594001Y-93269941D01*
G37*
%TD.AperFunction*%
%TD*%
M02*
