%TF.GenerationSoftware,KiCad,Pcbnew,5.1.9-73d0e3b20d~88~ubuntu20.04.1*%
%TF.CreationDate,2021-01-31T09:20:22-06:00*%
%TF.ProjectId,portalgun,706f7274-616c-4677-956e-2e6b69636164,rev?*%
%TF.SameCoordinates,Original*%
%TF.FileFunction,Copper,L1,Top*%
%TF.FilePolarity,Positive*%
%FSLAX46Y46*%
G04 Gerber Fmt 4.6, Leading zero omitted, Abs format (unit mm)*
G04 Created by KiCad (PCBNEW 5.1.9-73d0e3b20d~88~ubuntu20.04.1) date 2021-01-31 09:20:22*
%MOMM*%
%LPD*%
G01*
G04 APERTURE LIST*
%TA.AperFunction,ComponentPad*%
%ADD10O,1.350000X1.350000*%
%TD*%
%TA.AperFunction,ComponentPad*%
%ADD11R,1.350000X1.350000*%
%TD*%
%TA.AperFunction,SMDPad,CuDef*%
%ADD12R,1.060000X0.650000*%
%TD*%
%TA.AperFunction,ComponentPad*%
%ADD13O,1.700000X1.700000*%
%TD*%
%TA.AperFunction,ComponentPad*%
%ADD14R,1.700000X1.700000*%
%TD*%
%TA.AperFunction,ComponentPad*%
%ADD15C,1.700000*%
%TD*%
%TA.AperFunction,SMDPad,CuDef*%
%ADD16C,0.100000*%
%TD*%
%TA.AperFunction,SMDPad,CuDef*%
%ADD17R,0.800000X0.900000*%
%TD*%
%TA.AperFunction,SMDPad,CuDef*%
%ADD18R,1.450000X0.800000*%
%TD*%
%TA.AperFunction,ViaPad*%
%ADD19C,0.787400*%
%TD*%
%TA.AperFunction,Conductor*%
%ADD20C,0.203200*%
%TD*%
%TA.AperFunction,Conductor*%
%ADD21C,0.254000*%
%TD*%
%TA.AperFunction,Conductor*%
%ADD22C,0.100000*%
%TD*%
G04 APERTURE END LIST*
%TO.P,R6,2*%
%TO.N,GND*%
%TA.AperFunction,SMDPad,CuDef*%
G36*
G01*
X206425000Y-102737500D02*
X206425000Y-102262500D01*
G75*
G02*
X206662500Y-102025000I237500J0D01*
G01*
X207162500Y-102025000D01*
G75*
G02*
X207400000Y-102262500I0J-237500D01*
G01*
X207400000Y-102737500D01*
G75*
G02*
X207162500Y-102975000I-237500J0D01*
G01*
X206662500Y-102975000D01*
G75*
G02*
X206425000Y-102737500I0J237500D01*
G01*
G37*
%TD.AperFunction*%
%TO.P,R6,1*%
%TO.N,ENCODER_B*%
%TA.AperFunction,SMDPad,CuDef*%
G36*
G01*
X204600000Y-102737500D02*
X204600000Y-102262500D01*
G75*
G02*
X204837500Y-102025000I237500J0D01*
G01*
X205337500Y-102025000D01*
G75*
G02*
X205575000Y-102262500I0J-237500D01*
G01*
X205575000Y-102737500D01*
G75*
G02*
X205337500Y-102975000I-237500J0D01*
G01*
X204837500Y-102975000D01*
G75*
G02*
X204600000Y-102737500I0J237500D01*
G01*
G37*
%TD.AperFunction*%
%TD*%
%TO.P,C14,2*%
%TO.N,GND*%
%TA.AperFunction,SMDPad,CuDef*%
G36*
G01*
X216750000Y-105825000D02*
X217250000Y-105825000D01*
G75*
G02*
X217475000Y-106050000I0J-225000D01*
G01*
X217475000Y-106500000D01*
G75*
G02*
X217250000Y-106725000I-225000J0D01*
G01*
X216750000Y-106725000D01*
G75*
G02*
X216525000Y-106500000I0J225000D01*
G01*
X216525000Y-106050000D01*
G75*
G02*
X216750000Y-105825000I225000J0D01*
G01*
G37*
%TD.AperFunction*%
%TO.P,C14,1*%
%TO.N,+3V3*%
%TA.AperFunction,SMDPad,CuDef*%
G36*
G01*
X216750000Y-104275000D02*
X217250000Y-104275000D01*
G75*
G02*
X217475000Y-104500000I0J-225000D01*
G01*
X217475000Y-104950000D01*
G75*
G02*
X217250000Y-105175000I-225000J0D01*
G01*
X216750000Y-105175000D01*
G75*
G02*
X216525000Y-104950000I0J225000D01*
G01*
X216525000Y-104500000D01*
G75*
G02*
X216750000Y-104275000I225000J0D01*
G01*
G37*
%TD.AperFunction*%
%TD*%
%TO.P,C12,2*%
%TO.N,GND*%
%TA.AperFunction,SMDPad,CuDef*%
G36*
G01*
X209250000Y-105825000D02*
X209750000Y-105825000D01*
G75*
G02*
X209975000Y-106050000I0J-225000D01*
G01*
X209975000Y-106500000D01*
G75*
G02*
X209750000Y-106725000I-225000J0D01*
G01*
X209250000Y-106725000D01*
G75*
G02*
X209025000Y-106500000I0J225000D01*
G01*
X209025000Y-106050000D01*
G75*
G02*
X209250000Y-105825000I225000J0D01*
G01*
G37*
%TD.AperFunction*%
%TO.P,C12,1*%
%TO.N,+3V3*%
%TA.AperFunction,SMDPad,CuDef*%
G36*
G01*
X209250000Y-104275000D02*
X209750000Y-104275000D01*
G75*
G02*
X209975000Y-104500000I0J-225000D01*
G01*
X209975000Y-104950000D01*
G75*
G02*
X209750000Y-105175000I-225000J0D01*
G01*
X209250000Y-105175000D01*
G75*
G02*
X209025000Y-104950000I0J225000D01*
G01*
X209025000Y-104500000D01*
G75*
G02*
X209250000Y-104275000I225000J0D01*
G01*
G37*
%TD.AperFunction*%
%TD*%
D10*
%TO.P,J8,4*%
%TO.N,SPI1_NSS*%
X216500000Y-109000000D03*
%TO.P,J8,3*%
%TO.N,SPI1_MISO*%
X214500000Y-109000000D03*
%TO.P,J8,2*%
%TO.N,SPI1_MOSI*%
X212500000Y-109000000D03*
D11*
%TO.P,J8,1*%
%TO.N,SPI1_SCK*%
X210500000Y-109000000D03*
%TD*%
D10*
%TO.P,J7,4*%
%TO.N,/7 Segment Display/SPI1_NSS*%
X124000000Y-113600000D03*
%TO.P,J7,3*%
%TO.N,AVR_ICSP_MISO*%
X126000000Y-113600000D03*
%TO.P,J7,2*%
%TO.N,AVR_ICSP_MOSI*%
X128000000Y-113600000D03*
D11*
%TO.P,J7,1*%
%TO.N,AVR_ICSP_SCK*%
X130000000Y-113600000D03*
%TD*%
D10*
%TO.P,J4,2*%
%TO.N,GND*%
X63700000Y-92700000D03*
D11*
%TO.P,J4,1*%
%TO.N,Net-(C11-Pad2)*%
X63700000Y-90700000D03*
%TD*%
D10*
%TO.P,J3,2*%
%TO.N,Net-(J3-Pad2)*%
X212100000Y-115700000D03*
D11*
%TO.P,J3,1*%
%TO.N,VBAT*%
X214100000Y-115700000D03*
%TD*%
D10*
%TO.P,J1,2*%
%TO.N,GND*%
X241000000Y-94000000D03*
D11*
%TO.P,J1,1*%
%TO.N,VBAT*%
X239000000Y-94000000D03*
%TD*%
D12*
%TO.P,U3,5*%
%TO.N,+3V3*%
X228400000Y-106450000D03*
%TO.P,U3,4*%
%TO.N,+5V*%
X228400000Y-104550000D03*
%TO.P,U3,3*%
X230600000Y-104550000D03*
%TO.P,U3,2*%
%TO.N,GND*%
X230600000Y-105500000D03*
%TO.P,U3,1*%
%TO.N,+5V*%
X230600000Y-106450000D03*
%TD*%
%TO.P,U1,8*%
%TO.N,+5V*%
%TA.AperFunction,SMDPad,CuDef*%
G36*
G01*
X234625000Y-101700000D02*
X234425000Y-101700000D01*
G75*
G02*
X234325000Y-101600000I0J100000D01*
G01*
X234325000Y-100175000D01*
G75*
G02*
X234425000Y-100075000I100000J0D01*
G01*
X234625000Y-100075000D01*
G75*
G02*
X234725000Y-100175000I0J-100000D01*
G01*
X234725000Y-101600000D01*
G75*
G02*
X234625000Y-101700000I-100000J0D01*
G01*
G37*
%TD.AperFunction*%
%TO.P,U1,7*%
%TO.N,/ncp_lx*%
%TA.AperFunction,SMDPad,CuDef*%
G36*
G01*
X235275000Y-101700000D02*
X235075000Y-101700000D01*
G75*
G02*
X234975000Y-101600000I0J100000D01*
G01*
X234975000Y-100175000D01*
G75*
G02*
X235075000Y-100075000I100000J0D01*
G01*
X235275000Y-100075000D01*
G75*
G02*
X235375000Y-100175000I0J-100000D01*
G01*
X235375000Y-101600000D01*
G75*
G02*
X235275000Y-101700000I-100000J0D01*
G01*
G37*
%TD.AperFunction*%
%TO.P,U1,6*%
%TO.N,GND*%
%TA.AperFunction,SMDPad,CuDef*%
G36*
G01*
X235925000Y-101700000D02*
X235725000Y-101700000D01*
G75*
G02*
X235625000Y-101600000I0J100000D01*
G01*
X235625000Y-100175000D01*
G75*
G02*
X235725000Y-100075000I100000J0D01*
G01*
X235925000Y-100075000D01*
G75*
G02*
X236025000Y-100175000I0J-100000D01*
G01*
X236025000Y-101600000D01*
G75*
G02*
X235925000Y-101700000I-100000J0D01*
G01*
G37*
%TD.AperFunction*%
%TO.P,U1,5*%
%TO.N,VBAT*%
%TA.AperFunction,SMDPad,CuDef*%
G36*
G01*
X236575000Y-101700000D02*
X236375000Y-101700000D01*
G75*
G02*
X236275000Y-101600000I0J100000D01*
G01*
X236275000Y-100175000D01*
G75*
G02*
X236375000Y-100075000I100000J0D01*
G01*
X236575000Y-100075000D01*
G75*
G02*
X236675000Y-100175000I0J-100000D01*
G01*
X236675000Y-101600000D01*
G75*
G02*
X236575000Y-101700000I-100000J0D01*
G01*
G37*
%TD.AperFunction*%
%TO.P,U1,4*%
%TO.N,/ncp_ref*%
%TA.AperFunction,SMDPad,CuDef*%
G36*
G01*
X236575000Y-105925000D02*
X236375000Y-105925000D01*
G75*
G02*
X236275000Y-105825000I0J100000D01*
G01*
X236275000Y-104400000D01*
G75*
G02*
X236375000Y-104300000I100000J0D01*
G01*
X236575000Y-104300000D01*
G75*
G02*
X236675000Y-104400000I0J-100000D01*
G01*
X236675000Y-105825000D01*
G75*
G02*
X236575000Y-105925000I-100000J0D01*
G01*
G37*
%TD.AperFunction*%
%TO.P,U1,3*%
%TO.N,LBO*%
%TA.AperFunction,SMDPad,CuDef*%
G36*
G01*
X235925000Y-105925000D02*
X235725000Y-105925000D01*
G75*
G02*
X235625000Y-105825000I0J100000D01*
G01*
X235625000Y-104400000D01*
G75*
G02*
X235725000Y-104300000I100000J0D01*
G01*
X235925000Y-104300000D01*
G75*
G02*
X236025000Y-104400000I0J-100000D01*
G01*
X236025000Y-105825000D01*
G75*
G02*
X235925000Y-105925000I-100000J0D01*
G01*
G37*
%TD.AperFunction*%
%TO.P,U1,2*%
%TO.N,LBI_EN*%
%TA.AperFunction,SMDPad,CuDef*%
G36*
G01*
X235275000Y-105925000D02*
X235075000Y-105925000D01*
G75*
G02*
X234975000Y-105825000I0J100000D01*
G01*
X234975000Y-104400000D01*
G75*
G02*
X235075000Y-104300000I100000J0D01*
G01*
X235275000Y-104300000D01*
G75*
G02*
X235375000Y-104400000I0J-100000D01*
G01*
X235375000Y-105825000D01*
G75*
G02*
X235275000Y-105925000I-100000J0D01*
G01*
G37*
%TD.AperFunction*%
%TO.P,U1,1*%
%TO.N,/ncp_fb*%
%TA.AperFunction,SMDPad,CuDef*%
G36*
G01*
X234625000Y-105925000D02*
X234425000Y-105925000D01*
G75*
G02*
X234325000Y-105825000I0J100000D01*
G01*
X234325000Y-104400000D01*
G75*
G02*
X234425000Y-104300000I100000J0D01*
G01*
X234625000Y-104300000D01*
G75*
G02*
X234725000Y-104400000I0J-100000D01*
G01*
X234725000Y-105825000D01*
G75*
G02*
X234625000Y-105925000I-100000J0D01*
G01*
G37*
%TD.AperFunction*%
%TD*%
%TO.P,R12,2*%
%TO.N,LPUART1_RX*%
%TA.AperFunction,SMDPad,CuDef*%
G36*
G01*
X217762500Y-98175000D02*
X218237500Y-98175000D01*
G75*
G02*
X218475000Y-98412500I0J-237500D01*
G01*
X218475000Y-98912500D01*
G75*
G02*
X218237500Y-99150000I-237500J0D01*
G01*
X217762500Y-99150000D01*
G75*
G02*
X217525000Y-98912500I0J237500D01*
G01*
X217525000Y-98412500D01*
G75*
G02*
X217762500Y-98175000I237500J0D01*
G01*
G37*
%TD.AperFunction*%
%TO.P,R12,1*%
%TO.N,Net-(J5-Pad5)*%
%TA.AperFunction,SMDPad,CuDef*%
G36*
G01*
X217762500Y-96350000D02*
X218237500Y-96350000D01*
G75*
G02*
X218475000Y-96587500I0J-237500D01*
G01*
X218475000Y-97087500D01*
G75*
G02*
X218237500Y-97325000I-237500J0D01*
G01*
X217762500Y-97325000D01*
G75*
G02*
X217525000Y-97087500I0J237500D01*
G01*
X217525000Y-96587500D01*
G75*
G02*
X217762500Y-96350000I237500J0D01*
G01*
G37*
%TD.AperFunction*%
%TD*%
%TO.P,R10,2*%
%TO.N,LPUART1_TX*%
%TA.AperFunction,SMDPad,CuDef*%
G36*
G01*
X212512500Y-98175000D02*
X212987500Y-98175000D01*
G75*
G02*
X213225000Y-98412500I0J-237500D01*
G01*
X213225000Y-98912500D01*
G75*
G02*
X212987500Y-99150000I-237500J0D01*
G01*
X212512500Y-99150000D01*
G75*
G02*
X212275000Y-98912500I0J237500D01*
G01*
X212275000Y-98412500D01*
G75*
G02*
X212512500Y-98175000I237500J0D01*
G01*
G37*
%TD.AperFunction*%
%TO.P,R10,1*%
%TO.N,Net-(J5-Pad3)*%
%TA.AperFunction,SMDPad,CuDef*%
G36*
G01*
X212512500Y-96350000D02*
X212987500Y-96350000D01*
G75*
G02*
X213225000Y-96587500I0J-237500D01*
G01*
X213225000Y-97087500D01*
G75*
G02*
X212987500Y-97325000I-237500J0D01*
G01*
X212512500Y-97325000D01*
G75*
G02*
X212275000Y-97087500I0J237500D01*
G01*
X212275000Y-96587500D01*
G75*
G02*
X212512500Y-96350000I237500J0D01*
G01*
G37*
%TD.AperFunction*%
%TD*%
%TO.P,R4,2*%
%TO.N,GND*%
%TA.AperFunction,SMDPad,CuDef*%
G36*
G01*
X232262500Y-105675000D02*
X232737500Y-105675000D01*
G75*
G02*
X232975000Y-105912500I0J-237500D01*
G01*
X232975000Y-106412500D01*
G75*
G02*
X232737500Y-106650000I-237500J0D01*
G01*
X232262500Y-106650000D01*
G75*
G02*
X232025000Y-106412500I0J237500D01*
G01*
X232025000Y-105912500D01*
G75*
G02*
X232262500Y-105675000I237500J0D01*
G01*
G37*
%TD.AperFunction*%
%TO.P,R4,1*%
%TO.N,/ncp_fb*%
%TA.AperFunction,SMDPad,CuDef*%
G36*
G01*
X232262500Y-103850000D02*
X232737500Y-103850000D01*
G75*
G02*
X232975000Y-104087500I0J-237500D01*
G01*
X232975000Y-104587500D01*
G75*
G02*
X232737500Y-104825000I-237500J0D01*
G01*
X232262500Y-104825000D01*
G75*
G02*
X232025000Y-104587500I0J237500D01*
G01*
X232025000Y-104087500D01*
G75*
G02*
X232262500Y-103850000I237500J0D01*
G01*
G37*
%TD.AperFunction*%
%TD*%
%TO.P,R2,2*%
%TO.N,/ncp_fb*%
%TA.AperFunction,SMDPad,CuDef*%
G36*
G01*
X232262500Y-102175000D02*
X232737500Y-102175000D01*
G75*
G02*
X232975000Y-102412500I0J-237500D01*
G01*
X232975000Y-102912500D01*
G75*
G02*
X232737500Y-103150000I-237500J0D01*
G01*
X232262500Y-103150000D01*
G75*
G02*
X232025000Y-102912500I0J237500D01*
G01*
X232025000Y-102412500D01*
G75*
G02*
X232262500Y-102175000I237500J0D01*
G01*
G37*
%TD.AperFunction*%
%TO.P,R2,1*%
%TO.N,+5V*%
%TA.AperFunction,SMDPad,CuDef*%
G36*
G01*
X232262500Y-100350000D02*
X232737500Y-100350000D01*
G75*
G02*
X232975000Y-100587500I0J-237500D01*
G01*
X232975000Y-101087500D01*
G75*
G02*
X232737500Y-101325000I-237500J0D01*
G01*
X232262500Y-101325000D01*
G75*
G02*
X232025000Y-101087500I0J237500D01*
G01*
X232025000Y-100587500D01*
G75*
G02*
X232262500Y-100350000I237500J0D01*
G01*
G37*
%TD.AperFunction*%
%TD*%
%TO.P,R1,2*%
%TO.N,LBI_EN*%
%TA.AperFunction,SMDPad,CuDef*%
G36*
G01*
X238012500Y-101925000D02*
X238487500Y-101925000D01*
G75*
G02*
X238725000Y-102162500I0J-237500D01*
G01*
X238725000Y-102662500D01*
G75*
G02*
X238487500Y-102900000I-237500J0D01*
G01*
X238012500Y-102900000D01*
G75*
G02*
X237775000Y-102662500I0J237500D01*
G01*
X237775000Y-102162500D01*
G75*
G02*
X238012500Y-101925000I237500J0D01*
G01*
G37*
%TD.AperFunction*%
%TO.P,R1,1*%
%TO.N,VBAT*%
%TA.AperFunction,SMDPad,CuDef*%
G36*
G01*
X238012500Y-100100000D02*
X238487500Y-100100000D01*
G75*
G02*
X238725000Y-100337500I0J-237500D01*
G01*
X238725000Y-100837500D01*
G75*
G02*
X238487500Y-101075000I-237500J0D01*
G01*
X238012500Y-101075000D01*
G75*
G02*
X237775000Y-100837500I0J237500D01*
G01*
X237775000Y-100337500D01*
G75*
G02*
X238012500Y-100100000I237500J0D01*
G01*
G37*
%TD.AperFunction*%
%TD*%
%TO.P,L1,2*%
%TO.N,/ncp_lx*%
%TA.AperFunction,SMDPad,CuDef*%
G36*
G01*
X234450000Y-97799999D02*
X234450000Y-99200001D01*
G75*
G02*
X234200001Y-99450000I-249999J0D01*
G01*
X233649999Y-99450000D01*
G75*
G02*
X233400000Y-99200001I0J249999D01*
G01*
X233400000Y-97799999D01*
G75*
G02*
X233649999Y-97550000I249999J0D01*
G01*
X234200001Y-97550000D01*
G75*
G02*
X234450000Y-97799999I0J-249999D01*
G01*
G37*
%TD.AperFunction*%
%TO.P,L1,1*%
%TO.N,VBAT*%
%TA.AperFunction,SMDPad,CuDef*%
G36*
G01*
X237600000Y-97799999D02*
X237600000Y-99200001D01*
G75*
G02*
X237350001Y-99450000I-249999J0D01*
G01*
X236799999Y-99450000D01*
G75*
G02*
X236550000Y-99200001I0J249999D01*
G01*
X236550000Y-97799999D01*
G75*
G02*
X236799999Y-97550000I249999J0D01*
G01*
X237350001Y-97550000D01*
G75*
G02*
X237600000Y-97799999I0J-249999D01*
G01*
G37*
%TD.AperFunction*%
%TD*%
%TO.P,C7,2*%
%TO.N,GND*%
%TA.AperFunction,SMDPad,CuDef*%
G36*
G01*
X234262500Y-108575000D02*
X234737500Y-108575000D01*
G75*
G02*
X234975000Y-108812500I0J-237500D01*
G01*
X234975000Y-109412500D01*
G75*
G02*
X234737500Y-109650000I-237500J0D01*
G01*
X234262500Y-109650000D01*
G75*
G02*
X234025000Y-109412500I0J237500D01*
G01*
X234025000Y-108812500D01*
G75*
G02*
X234262500Y-108575000I237500J0D01*
G01*
G37*
%TD.AperFunction*%
%TO.P,C7,1*%
%TO.N,/ncp_fb*%
%TA.AperFunction,SMDPad,CuDef*%
G36*
G01*
X234262500Y-106850000D02*
X234737500Y-106850000D01*
G75*
G02*
X234975000Y-107087500I0J-237500D01*
G01*
X234975000Y-107687500D01*
G75*
G02*
X234737500Y-107925000I-237500J0D01*
G01*
X234262500Y-107925000D01*
G75*
G02*
X234025000Y-107687500I0J237500D01*
G01*
X234025000Y-107087500D01*
G75*
G02*
X234262500Y-106850000I237500J0D01*
G01*
G37*
%TD.AperFunction*%
%TD*%
%TO.P,C5,2*%
%TO.N,GND*%
%TA.AperFunction,SMDPad,CuDef*%
G36*
G01*
X230474999Y-102075000D02*
X231025001Y-102075000D01*
G75*
G02*
X231275000Y-102324999I0J-249999D01*
G01*
X231275000Y-102950001D01*
G75*
G02*
X231025001Y-103200000I-249999J0D01*
G01*
X230474999Y-103200000D01*
G75*
G02*
X230225000Y-102950001I0J249999D01*
G01*
X230225000Y-102324999D01*
G75*
G02*
X230474999Y-102075000I249999J0D01*
G01*
G37*
%TD.AperFunction*%
%TO.P,C5,1*%
%TO.N,+5V*%
%TA.AperFunction,SMDPad,CuDef*%
G36*
G01*
X230474999Y-100300000D02*
X231025001Y-100300000D01*
G75*
G02*
X231275000Y-100549999I0J-249999D01*
G01*
X231275000Y-101175001D01*
G75*
G02*
X231025001Y-101425000I-249999J0D01*
G01*
X230474999Y-101425000D01*
G75*
G02*
X230225000Y-101175001I0J249999D01*
G01*
X230225000Y-100549999D01*
G75*
G02*
X230474999Y-100300000I249999J0D01*
G01*
G37*
%TD.AperFunction*%
%TD*%
%TO.P,C1,2*%
%TO.N,GND*%
%TA.AperFunction,SMDPad,CuDef*%
G36*
G01*
X240325000Y-97275001D02*
X240325000Y-96724999D01*
G75*
G02*
X240574999Y-96475000I249999J0D01*
G01*
X241200001Y-96475000D01*
G75*
G02*
X241450000Y-96724999I0J-249999D01*
G01*
X241450000Y-97275001D01*
G75*
G02*
X241200001Y-97525000I-249999J0D01*
G01*
X240574999Y-97525000D01*
G75*
G02*
X240325000Y-97275001I0J249999D01*
G01*
G37*
%TD.AperFunction*%
%TO.P,C1,1*%
%TO.N,VBAT*%
%TA.AperFunction,SMDPad,CuDef*%
G36*
G01*
X238550000Y-97275001D02*
X238550000Y-96724999D01*
G75*
G02*
X238799999Y-96475000I249999J0D01*
G01*
X239425001Y-96475000D01*
G75*
G02*
X239675000Y-96724999I0J-249999D01*
G01*
X239675000Y-97275001D01*
G75*
G02*
X239425001Y-97525000I-249999J0D01*
G01*
X238799999Y-97525000D01*
G75*
G02*
X238550000Y-97275001I0J249999D01*
G01*
G37*
%TD.AperFunction*%
%TD*%
D13*
%TO.P,J6,6*%
%TO.N,GND*%
X130683000Y-122682000D03*
%TO.P,J6,5*%
%TO.N,Net-(J6-Pad5)*%
X130683000Y-125222000D03*
%TO.P,J6,4*%
%TO.N,Net-(J6-Pad4)*%
X128143000Y-122682000D03*
%TO.P,J6,3*%
%TO.N,Net-(J6-Pad3)*%
X128143000Y-125222000D03*
%TO.P,J6,2*%
%TO.N,VBAT*%
X125603000Y-122682000D03*
D14*
%TO.P,J6,1*%
%TO.N,Net-(J6-Pad1)*%
X125603000Y-125222000D03*
%TD*%
D13*
%TO.P,J5,6*%
%TO.N,GND*%
X220450000Y-94000000D03*
%TO.P,J5,5*%
%TO.N,Net-(J5-Pad5)*%
X217910000Y-94000000D03*
%TO.P,J5,4*%
%TO.N,Net-(J5-Pad4)*%
X215370000Y-94000000D03*
%TO.P,J5,3*%
%TO.N,Net-(J5-Pad3)*%
X212830000Y-94000000D03*
%TO.P,J5,2*%
%TO.N,Net-(J5-Pad2)*%
X210290000Y-94000000D03*
D14*
%TO.P,J5,1*%
%TO.N,+3V3*%
X207750000Y-94000000D03*
%TD*%
D10*
%TO.P,J2,5*%
%TO.N,ENCODER_A*%
X202498000Y-109060000D03*
%TO.P,J2,4*%
%TO.N,+3V3*%
X202498000Y-107060000D03*
%TO.P,J2,3*%
%TO.N,ENCODER_B*%
X202498000Y-105060000D03*
%TO.P,J2,2*%
%TO.N,+3V3*%
X202498000Y-103060000D03*
D11*
%TO.P,J2,1*%
%TO.N,SWITCH*%
X202498000Y-101060000D03*
%TD*%
D15*
%TO.P,U6,10*%
%TO.N,/7 Segment Display/segment_e*%
X136017000Y-100076000D03*
%TO.P,U6,9*%
%TO.N,/7 Segment Display/segment_d*%
X136017000Y-97536000D03*
%TO.P,U6,8*%
%TO.N,Net-(Q3-Pad3)*%
X136017000Y-94996000D03*
%TO.P,U6,7*%
%TO.N,/7 Segment Display/segment_c*%
X136017000Y-92456000D03*
%TO.P,U6,6*%
%TO.N,/7 Segment Display/decimal_point*%
X136017000Y-89916000D03*
%TO.P,U6,5*%
%TO.N,/7 Segment Display/segment_b*%
X120777000Y-89916000D03*
%TO.P,U6,4*%
%TO.N,/7 Segment Display/segment_a*%
X120777000Y-92456000D03*
%TO.P,U6,3*%
%TO.N,Net-(U6-Pad3)*%
X120777000Y-94996000D03*
%TO.P,U6,2*%
%TO.N,/7 Segment Display/segment_f*%
X120777000Y-97536000D03*
D14*
%TO.P,U6,1*%
%TO.N,/7 Segment Display/segment_g*%
X120777000Y-100076000D03*
%TD*%
%TA.AperFunction,SMDPad,CuDef*%
D16*
%TO.P,U4,28*%
%TO.N,Net-(U4-Pad28)*%
G36*
X211838779Y-102125865D02*
G01*
X211847221Y-102128425D01*
X211855001Y-102132584D01*
X211861820Y-102138180D01*
X211867416Y-102144999D01*
X211871575Y-102152779D01*
X211874135Y-102161221D01*
X211875000Y-102170000D01*
X211875000Y-102835000D01*
X211874135Y-102843779D01*
X211871575Y-102852221D01*
X211867416Y-102860001D01*
X211861820Y-102866820D01*
X211855001Y-102872416D01*
X211847221Y-102876575D01*
X211838779Y-102879135D01*
X211830000Y-102880000D01*
X211803640Y-102880000D01*
X211794861Y-102879135D01*
X211786419Y-102876575D01*
X211778639Y-102872416D01*
X211771820Y-102866820D01*
X211638180Y-102733180D01*
X211632584Y-102726361D01*
X211628425Y-102718581D01*
X211625865Y-102710139D01*
X211625000Y-102701360D01*
X211625000Y-102170000D01*
X211625865Y-102161221D01*
X211628425Y-102152779D01*
X211632584Y-102144999D01*
X211638180Y-102138180D01*
X211644999Y-102132584D01*
X211652779Y-102128425D01*
X211661221Y-102125865D01*
X211670000Y-102125000D01*
X211830000Y-102125000D01*
X211838779Y-102125865D01*
G37*
%TD.AperFunction*%
%TO.P,U4,27*%
%TO.N,LBO*%
%TA.AperFunction,SMDPad,CuDef*%
G36*
G01*
X212125000Y-102937500D02*
X212125000Y-102187500D01*
G75*
G02*
X212187500Y-102125000I62500J0D01*
G01*
X212312500Y-102125000D01*
G75*
G02*
X212375000Y-102187500I0J-62500D01*
G01*
X212375000Y-102937500D01*
G75*
G02*
X212312500Y-103000000I-62500J0D01*
G01*
X212187500Y-103000000D01*
G75*
G02*
X212125000Y-102937500I0J62500D01*
G01*
G37*
%TD.AperFunction*%
%TO.P,U4,26*%
%TO.N,ENCODER_A*%
%TA.AperFunction,SMDPad,CuDef*%
G36*
G01*
X212625000Y-102937500D02*
X212625000Y-102187500D01*
G75*
G02*
X212687500Y-102125000I62500J0D01*
G01*
X212812500Y-102125000D01*
G75*
G02*
X212875000Y-102187500I0J-62500D01*
G01*
X212875000Y-102937500D01*
G75*
G02*
X212812500Y-103000000I-62500J0D01*
G01*
X212687500Y-103000000D01*
G75*
G02*
X212625000Y-102937500I0J62500D01*
G01*
G37*
%TD.AperFunction*%
%TO.P,U4,25*%
%TO.N,ENCODER_B*%
%TA.AperFunction,SMDPad,CuDef*%
G36*
G01*
X213125000Y-102937500D02*
X213125000Y-102187500D01*
G75*
G02*
X213187500Y-102125000I62500J0D01*
G01*
X213312500Y-102125000D01*
G75*
G02*
X213375000Y-102187500I0J-62500D01*
G01*
X213375000Y-102937500D01*
G75*
G02*
X213312500Y-103000000I-62500J0D01*
G01*
X213187500Y-103000000D01*
G75*
G02*
X213125000Y-102937500I0J62500D01*
G01*
G37*
%TD.AperFunction*%
%TO.P,U4,24*%
%TO.N,SWITCH*%
%TA.AperFunction,SMDPad,CuDef*%
G36*
G01*
X213625000Y-102937500D02*
X213625000Y-102187500D01*
G75*
G02*
X213687500Y-102125000I62500J0D01*
G01*
X213812500Y-102125000D01*
G75*
G02*
X213875000Y-102187500I0J-62500D01*
G01*
X213875000Y-102937500D01*
G75*
G02*
X213812500Y-103000000I-62500J0D01*
G01*
X213687500Y-103000000D01*
G75*
G02*
X213625000Y-102937500I0J62500D01*
G01*
G37*
%TD.AperFunction*%
%TO.P,U4,23*%
%TO.N,Net-(U4-Pad23)*%
%TA.AperFunction,SMDPad,CuDef*%
G36*
G01*
X214125000Y-102937500D02*
X214125000Y-102187500D01*
G75*
G02*
X214187500Y-102125000I62500J0D01*
G01*
X214312500Y-102125000D01*
G75*
G02*
X214375000Y-102187500I0J-62500D01*
G01*
X214375000Y-102937500D01*
G75*
G02*
X214312500Y-103000000I-62500J0D01*
G01*
X214187500Y-103000000D01*
G75*
G02*
X214125000Y-102937500I0J62500D01*
G01*
G37*
%TD.AperFunction*%
%TA.AperFunction,SMDPad,CuDef*%
%TO.P,U4,22*%
%TO.N,SYS_SWCLK*%
G36*
X214838779Y-102125865D02*
G01*
X214847221Y-102128425D01*
X214855001Y-102132584D01*
X214861820Y-102138180D01*
X214867416Y-102144999D01*
X214871575Y-102152779D01*
X214874135Y-102161221D01*
X214875000Y-102170000D01*
X214875000Y-102701360D01*
X214874135Y-102710139D01*
X214871575Y-102718581D01*
X214867416Y-102726361D01*
X214861820Y-102733180D01*
X214728180Y-102866820D01*
X214721361Y-102872416D01*
X214713581Y-102876575D01*
X214705139Y-102879135D01*
X214696360Y-102880000D01*
X214670000Y-102880000D01*
X214661221Y-102879135D01*
X214652779Y-102876575D01*
X214644999Y-102872416D01*
X214638180Y-102866820D01*
X214632584Y-102860001D01*
X214628425Y-102852221D01*
X214625865Y-102843779D01*
X214625000Y-102835000D01*
X214625000Y-102170000D01*
X214625865Y-102161221D01*
X214628425Y-102152779D01*
X214632584Y-102144999D01*
X214638180Y-102138180D01*
X214644999Y-102132584D01*
X214652779Y-102128425D01*
X214661221Y-102125865D01*
X214670000Y-102125000D01*
X214830000Y-102125000D01*
X214838779Y-102125865D01*
G37*
%TD.AperFunction*%
%TA.AperFunction,SMDPad,CuDef*%
%TO.P,U4,21*%
%TO.N,SYS_SWDIO*%
G36*
X215588779Y-102875865D02*
G01*
X215597221Y-102878425D01*
X215605001Y-102882584D01*
X215611820Y-102888180D01*
X215617416Y-102894999D01*
X215621575Y-102902779D01*
X215624135Y-102911221D01*
X215625000Y-102920000D01*
X215625000Y-103080000D01*
X215624135Y-103088779D01*
X215621575Y-103097221D01*
X215617416Y-103105001D01*
X215611820Y-103111820D01*
X215605001Y-103117416D01*
X215597221Y-103121575D01*
X215588779Y-103124135D01*
X215580000Y-103125000D01*
X214915000Y-103125000D01*
X214906221Y-103124135D01*
X214897779Y-103121575D01*
X214889999Y-103117416D01*
X214883180Y-103111820D01*
X214877584Y-103105001D01*
X214873425Y-103097221D01*
X214870865Y-103088779D01*
X214870000Y-103080000D01*
X214870000Y-103053640D01*
X214870865Y-103044861D01*
X214873425Y-103036419D01*
X214877584Y-103028639D01*
X214883180Y-103021820D01*
X215016820Y-102888180D01*
X215023639Y-102882584D01*
X215031419Y-102878425D01*
X215039861Y-102875865D01*
X215048640Y-102875000D01*
X215580000Y-102875000D01*
X215588779Y-102875865D01*
G37*
%TD.AperFunction*%
%TO.P,U4,20*%
%TO.N,I2C1_SDA*%
%TA.AperFunction,SMDPad,CuDef*%
G36*
G01*
X214750000Y-103562500D02*
X214750000Y-103437500D01*
G75*
G02*
X214812500Y-103375000I62500J0D01*
G01*
X215562500Y-103375000D01*
G75*
G02*
X215625000Y-103437500I0J-62500D01*
G01*
X215625000Y-103562500D01*
G75*
G02*
X215562500Y-103625000I-62500J0D01*
G01*
X214812500Y-103625000D01*
G75*
G02*
X214750000Y-103562500I0J62500D01*
G01*
G37*
%TD.AperFunction*%
%TO.P,U4,19*%
%TO.N,I2C1_SCL*%
%TA.AperFunction,SMDPad,CuDef*%
G36*
G01*
X214750000Y-104062500D02*
X214750000Y-103937500D01*
G75*
G02*
X214812500Y-103875000I62500J0D01*
G01*
X215562500Y-103875000D01*
G75*
G02*
X215625000Y-103937500I0J-62500D01*
G01*
X215625000Y-104062500D01*
G75*
G02*
X215562500Y-104125000I-62500J0D01*
G01*
X214812500Y-104125000D01*
G75*
G02*
X214750000Y-104062500I0J62500D01*
G01*
G37*
%TD.AperFunction*%
%TO.P,U4,18*%
%TO.N,SPI1_NSS*%
%TA.AperFunction,SMDPad,CuDef*%
G36*
G01*
X214750000Y-104562500D02*
X214750000Y-104437500D01*
G75*
G02*
X214812500Y-104375000I62500J0D01*
G01*
X215562500Y-104375000D01*
G75*
G02*
X215625000Y-104437500I0J-62500D01*
G01*
X215625000Y-104562500D01*
G75*
G02*
X215562500Y-104625000I-62500J0D01*
G01*
X214812500Y-104625000D01*
G75*
G02*
X214750000Y-104562500I0J62500D01*
G01*
G37*
%TD.AperFunction*%
%TO.P,U4,17*%
%TO.N,+3V3*%
%TA.AperFunction,SMDPad,CuDef*%
G36*
G01*
X214750000Y-105062500D02*
X214750000Y-104937500D01*
G75*
G02*
X214812500Y-104875000I62500J0D01*
G01*
X215562500Y-104875000D01*
G75*
G02*
X215625000Y-104937500I0J-62500D01*
G01*
X215625000Y-105062500D01*
G75*
G02*
X215562500Y-105125000I-62500J0D01*
G01*
X214812500Y-105125000D01*
G75*
G02*
X214750000Y-105062500I0J62500D01*
G01*
G37*
%TD.AperFunction*%
%TO.P,U4,16*%
%TO.N,GND*%
%TA.AperFunction,SMDPad,CuDef*%
G36*
G01*
X214750000Y-105562500D02*
X214750000Y-105437500D01*
G75*
G02*
X214812500Y-105375000I62500J0D01*
G01*
X215562500Y-105375000D01*
G75*
G02*
X215625000Y-105437500I0J-62500D01*
G01*
X215625000Y-105562500D01*
G75*
G02*
X215562500Y-105625000I-62500J0D01*
G01*
X214812500Y-105625000D01*
G75*
G02*
X214750000Y-105562500I0J62500D01*
G01*
G37*
%TD.AperFunction*%
%TA.AperFunction,SMDPad,CuDef*%
%TO.P,U4,15*%
%TO.N,Net-(U4-Pad15)*%
G36*
X215588779Y-105875865D02*
G01*
X215597221Y-105878425D01*
X215605001Y-105882584D01*
X215611820Y-105888180D01*
X215617416Y-105894999D01*
X215621575Y-105902779D01*
X215624135Y-105911221D01*
X215625000Y-105920000D01*
X215625000Y-106080000D01*
X215624135Y-106088779D01*
X215621575Y-106097221D01*
X215617416Y-106105001D01*
X215611820Y-106111820D01*
X215605001Y-106117416D01*
X215597221Y-106121575D01*
X215588779Y-106124135D01*
X215580000Y-106125000D01*
X215048640Y-106125000D01*
X215039861Y-106124135D01*
X215031419Y-106121575D01*
X215023639Y-106117416D01*
X215016820Y-106111820D01*
X214883180Y-105978180D01*
X214877584Y-105971361D01*
X214873425Y-105963581D01*
X214870865Y-105955139D01*
X214870000Y-105946360D01*
X214870000Y-105920000D01*
X214870865Y-105911221D01*
X214873425Y-105902779D01*
X214877584Y-105894999D01*
X214883180Y-105888180D01*
X214889999Y-105882584D01*
X214897779Y-105878425D01*
X214906221Y-105875865D01*
X214915000Y-105875000D01*
X215580000Y-105875000D01*
X215588779Y-105875865D01*
G37*
%TD.AperFunction*%
%TA.AperFunction,SMDPad,CuDef*%
%TO.P,U4,14*%
%TO.N,Net-(U4-Pad14)*%
G36*
X214705139Y-106120865D02*
G01*
X214713581Y-106123425D01*
X214721361Y-106127584D01*
X214728180Y-106133180D01*
X214861820Y-106266820D01*
X214867416Y-106273639D01*
X214871575Y-106281419D01*
X214874135Y-106289861D01*
X214875000Y-106298640D01*
X214875000Y-106830000D01*
X214874135Y-106838779D01*
X214871575Y-106847221D01*
X214867416Y-106855001D01*
X214861820Y-106861820D01*
X214855001Y-106867416D01*
X214847221Y-106871575D01*
X214838779Y-106874135D01*
X214830000Y-106875000D01*
X214670000Y-106875000D01*
X214661221Y-106874135D01*
X214652779Y-106871575D01*
X214644999Y-106867416D01*
X214638180Y-106861820D01*
X214632584Y-106855001D01*
X214628425Y-106847221D01*
X214625865Y-106838779D01*
X214625000Y-106830000D01*
X214625000Y-106165000D01*
X214625865Y-106156221D01*
X214628425Y-106147779D01*
X214632584Y-106139999D01*
X214638180Y-106133180D01*
X214644999Y-106127584D01*
X214652779Y-106123425D01*
X214661221Y-106120865D01*
X214670000Y-106120000D01*
X214696360Y-106120000D01*
X214705139Y-106120865D01*
G37*
%TD.AperFunction*%
%TO.P,U4,13*%
%TO.N,SPI1_MOSI*%
%TA.AperFunction,SMDPad,CuDef*%
G36*
G01*
X214125000Y-106812500D02*
X214125000Y-106062500D01*
G75*
G02*
X214187500Y-106000000I62500J0D01*
G01*
X214312500Y-106000000D01*
G75*
G02*
X214375000Y-106062500I0J-62500D01*
G01*
X214375000Y-106812500D01*
G75*
G02*
X214312500Y-106875000I-62500J0D01*
G01*
X214187500Y-106875000D01*
G75*
G02*
X214125000Y-106812500I0J62500D01*
G01*
G37*
%TD.AperFunction*%
%TO.P,U4,12*%
%TO.N,SPI1_MISO*%
%TA.AperFunction,SMDPad,CuDef*%
G36*
G01*
X213625000Y-106812500D02*
X213625000Y-106062500D01*
G75*
G02*
X213687500Y-106000000I62500J0D01*
G01*
X213812500Y-106000000D01*
G75*
G02*
X213875000Y-106062500I0J-62500D01*
G01*
X213875000Y-106812500D01*
G75*
G02*
X213812500Y-106875000I-62500J0D01*
G01*
X213687500Y-106875000D01*
G75*
G02*
X213625000Y-106812500I0J62500D01*
G01*
G37*
%TD.AperFunction*%
%TO.P,U4,11*%
%TO.N,SPI1_SCK*%
%TA.AperFunction,SMDPad,CuDef*%
G36*
G01*
X213125000Y-106812500D02*
X213125000Y-106062500D01*
G75*
G02*
X213187500Y-106000000I62500J0D01*
G01*
X213312500Y-106000000D01*
G75*
G02*
X213375000Y-106062500I0J-62500D01*
G01*
X213375000Y-106812500D01*
G75*
G02*
X213312500Y-106875000I-62500J0D01*
G01*
X213187500Y-106875000D01*
G75*
G02*
X213125000Y-106812500I0J62500D01*
G01*
G37*
%TD.AperFunction*%
%TO.P,U4,10*%
%TO.N,Net-(U4-Pad10)*%
%TA.AperFunction,SMDPad,CuDef*%
G36*
G01*
X212625000Y-106812500D02*
X212625000Y-106062500D01*
G75*
G02*
X212687500Y-106000000I62500J0D01*
G01*
X212812500Y-106000000D01*
G75*
G02*
X212875000Y-106062500I0J-62500D01*
G01*
X212875000Y-106812500D01*
G75*
G02*
X212812500Y-106875000I-62500J0D01*
G01*
X212687500Y-106875000D01*
G75*
G02*
X212625000Y-106812500I0J62500D01*
G01*
G37*
%TD.AperFunction*%
%TO.P,U4,9*%
%TO.N,Net-(U4-Pad9)*%
%TA.AperFunction,SMDPad,CuDef*%
G36*
G01*
X212125000Y-106812500D02*
X212125000Y-106062500D01*
G75*
G02*
X212187500Y-106000000I62500J0D01*
G01*
X212312500Y-106000000D01*
G75*
G02*
X212375000Y-106062500I0J-62500D01*
G01*
X212375000Y-106812500D01*
G75*
G02*
X212312500Y-106875000I-62500J0D01*
G01*
X212187500Y-106875000D01*
G75*
G02*
X212125000Y-106812500I0J62500D01*
G01*
G37*
%TD.AperFunction*%
%TA.AperFunction,SMDPad,CuDef*%
%TO.P,U4,8*%
%TO.N,Net-(U4-Pad8)*%
G36*
X211838779Y-106120865D02*
G01*
X211847221Y-106123425D01*
X211855001Y-106127584D01*
X211861820Y-106133180D01*
X211867416Y-106139999D01*
X211871575Y-106147779D01*
X211874135Y-106156221D01*
X211875000Y-106165000D01*
X211875000Y-106830000D01*
X211874135Y-106838779D01*
X211871575Y-106847221D01*
X211867416Y-106855001D01*
X211861820Y-106861820D01*
X211855001Y-106867416D01*
X211847221Y-106871575D01*
X211838779Y-106874135D01*
X211830000Y-106875000D01*
X211670000Y-106875000D01*
X211661221Y-106874135D01*
X211652779Y-106871575D01*
X211644999Y-106867416D01*
X211638180Y-106861820D01*
X211632584Y-106855001D01*
X211628425Y-106847221D01*
X211625865Y-106838779D01*
X211625000Y-106830000D01*
X211625000Y-106298640D01*
X211625865Y-106289861D01*
X211628425Y-106281419D01*
X211632584Y-106273639D01*
X211638180Y-106266820D01*
X211771820Y-106133180D01*
X211778639Y-106127584D01*
X211786419Y-106123425D01*
X211794861Y-106120865D01*
X211803640Y-106120000D01*
X211830000Y-106120000D01*
X211838779Y-106120865D01*
G37*
%TD.AperFunction*%
%TA.AperFunction,SMDPad,CuDef*%
%TO.P,U4,7*%
%TO.N,LPUART1_TX*%
G36*
X211593779Y-105875865D02*
G01*
X211602221Y-105878425D01*
X211610001Y-105882584D01*
X211616820Y-105888180D01*
X211622416Y-105894999D01*
X211626575Y-105902779D01*
X211629135Y-105911221D01*
X211630000Y-105920000D01*
X211630000Y-105946360D01*
X211629135Y-105955139D01*
X211626575Y-105963581D01*
X211622416Y-105971361D01*
X211616820Y-105978180D01*
X211483180Y-106111820D01*
X211476361Y-106117416D01*
X211468581Y-106121575D01*
X211460139Y-106124135D01*
X211451360Y-106125000D01*
X210920000Y-106125000D01*
X210911221Y-106124135D01*
X210902779Y-106121575D01*
X210894999Y-106117416D01*
X210888180Y-106111820D01*
X210882584Y-106105001D01*
X210878425Y-106097221D01*
X210875865Y-106088779D01*
X210875000Y-106080000D01*
X210875000Y-105920000D01*
X210875865Y-105911221D01*
X210878425Y-105902779D01*
X210882584Y-105894999D01*
X210888180Y-105888180D01*
X210894999Y-105882584D01*
X210902779Y-105878425D01*
X210911221Y-105875865D01*
X210920000Y-105875000D01*
X211585000Y-105875000D01*
X211593779Y-105875865D01*
G37*
%TD.AperFunction*%
%TO.P,U4,6*%
%TO.N,LPUART1_RX*%
%TA.AperFunction,SMDPad,CuDef*%
G36*
G01*
X210875000Y-105562500D02*
X210875000Y-105437500D01*
G75*
G02*
X210937500Y-105375000I62500J0D01*
G01*
X211687500Y-105375000D01*
G75*
G02*
X211750000Y-105437500I0J-62500D01*
G01*
X211750000Y-105562500D01*
G75*
G02*
X211687500Y-105625000I-62500J0D01*
G01*
X210937500Y-105625000D01*
G75*
G02*
X210875000Y-105562500I0J62500D01*
G01*
G37*
%TD.AperFunction*%
%TO.P,U4,5*%
%TO.N,+3V3*%
%TA.AperFunction,SMDPad,CuDef*%
G36*
G01*
X210875000Y-105062500D02*
X210875000Y-104937500D01*
G75*
G02*
X210937500Y-104875000I62500J0D01*
G01*
X211687500Y-104875000D01*
G75*
G02*
X211750000Y-104937500I0J-62500D01*
G01*
X211750000Y-105062500D01*
G75*
G02*
X211687500Y-105125000I-62500J0D01*
G01*
X210937500Y-105125000D01*
G75*
G02*
X210875000Y-105062500I0J62500D01*
G01*
G37*
%TD.AperFunction*%
%TO.P,U4,4*%
%TO.N,Net-(U4-Pad4)*%
%TA.AperFunction,SMDPad,CuDef*%
G36*
G01*
X210875000Y-104562500D02*
X210875000Y-104437500D01*
G75*
G02*
X210937500Y-104375000I62500J0D01*
G01*
X211687500Y-104375000D01*
G75*
G02*
X211750000Y-104437500I0J-62500D01*
G01*
X211750000Y-104562500D01*
G75*
G02*
X211687500Y-104625000I-62500J0D01*
G01*
X210937500Y-104625000D01*
G75*
G02*
X210875000Y-104562500I0J62500D01*
G01*
G37*
%TD.AperFunction*%
%TO.P,U4,3*%
%TO.N,Net-(U4-Pad3)*%
%TA.AperFunction,SMDPad,CuDef*%
G36*
G01*
X210875000Y-104062500D02*
X210875000Y-103937500D01*
G75*
G02*
X210937500Y-103875000I62500J0D01*
G01*
X211687500Y-103875000D01*
G75*
G02*
X211750000Y-103937500I0J-62500D01*
G01*
X211750000Y-104062500D01*
G75*
G02*
X211687500Y-104125000I-62500J0D01*
G01*
X210937500Y-104125000D01*
G75*
G02*
X210875000Y-104062500I0J62500D01*
G01*
G37*
%TD.AperFunction*%
%TO.P,U4,2*%
%TO.N,Net-(U4-Pad2)*%
%TA.AperFunction,SMDPad,CuDef*%
G36*
G01*
X210875000Y-103562500D02*
X210875000Y-103437500D01*
G75*
G02*
X210937500Y-103375000I62500J0D01*
G01*
X211687500Y-103375000D01*
G75*
G02*
X211750000Y-103437500I0J-62500D01*
G01*
X211750000Y-103562500D01*
G75*
G02*
X211687500Y-103625000I-62500J0D01*
G01*
X210937500Y-103625000D01*
G75*
G02*
X210875000Y-103562500I0J62500D01*
G01*
G37*
%TD.AperFunction*%
%TA.AperFunction,SMDPad,CuDef*%
%TO.P,U4,1*%
%TO.N,Net-(U4-Pad1)*%
G36*
X211460139Y-102875865D02*
G01*
X211468581Y-102878425D01*
X211476361Y-102882584D01*
X211483180Y-102888180D01*
X211616820Y-103021820D01*
X211622416Y-103028639D01*
X211626575Y-103036419D01*
X211629135Y-103044861D01*
X211630000Y-103053640D01*
X211630000Y-103080000D01*
X211629135Y-103088779D01*
X211626575Y-103097221D01*
X211622416Y-103105001D01*
X211616820Y-103111820D01*
X211610001Y-103117416D01*
X211602221Y-103121575D01*
X211593779Y-103124135D01*
X211585000Y-103125000D01*
X210920000Y-103125000D01*
X210911221Y-103124135D01*
X210902779Y-103121575D01*
X210894999Y-103117416D01*
X210888180Y-103111820D01*
X210882584Y-103105001D01*
X210878425Y-103097221D01*
X210875865Y-103088779D01*
X210875000Y-103080000D01*
X210875000Y-102920000D01*
X210875865Y-102911221D01*
X210878425Y-102902779D01*
X210882584Y-102894999D01*
X210888180Y-102888180D01*
X210894999Y-102882584D01*
X210902779Y-102878425D01*
X210911221Y-102875865D01*
X210920000Y-102875000D01*
X211451360Y-102875000D01*
X211460139Y-102875865D01*
G37*
%TD.AperFunction*%
%TD*%
%TO.P,R11,2*%
%TO.N,Net-(J5-Pad4)*%
%TA.AperFunction,SMDPad,CuDef*%
G36*
G01*
X215487500Y-97325000D02*
X215012500Y-97325000D01*
G75*
G02*
X214775000Y-97087500I0J237500D01*
G01*
X214775000Y-96587500D01*
G75*
G02*
X215012500Y-96350000I237500J0D01*
G01*
X215487500Y-96350000D01*
G75*
G02*
X215725000Y-96587500I0J-237500D01*
G01*
X215725000Y-97087500D01*
G75*
G02*
X215487500Y-97325000I-237500J0D01*
G01*
G37*
%TD.AperFunction*%
%TO.P,R11,1*%
%TO.N,SYS_SWCLK*%
%TA.AperFunction,SMDPad,CuDef*%
G36*
G01*
X215487500Y-99150000D02*
X215012500Y-99150000D01*
G75*
G02*
X214775000Y-98912500I0J237500D01*
G01*
X214775000Y-98412500D01*
G75*
G02*
X215012500Y-98175000I237500J0D01*
G01*
X215487500Y-98175000D01*
G75*
G02*
X215725000Y-98412500I0J-237500D01*
G01*
X215725000Y-98912500D01*
G75*
G02*
X215487500Y-99150000I-237500J0D01*
G01*
G37*
%TD.AperFunction*%
%TD*%
%TO.P,R9,2*%
%TO.N,Net-(J5-Pad2)*%
%TA.AperFunction,SMDPad,CuDef*%
G36*
G01*
X210487500Y-97325000D02*
X210012500Y-97325000D01*
G75*
G02*
X209775000Y-97087500I0J237500D01*
G01*
X209775000Y-96587500D01*
G75*
G02*
X210012500Y-96350000I237500J0D01*
G01*
X210487500Y-96350000D01*
G75*
G02*
X210725000Y-96587500I0J-237500D01*
G01*
X210725000Y-97087500D01*
G75*
G02*
X210487500Y-97325000I-237500J0D01*
G01*
G37*
%TD.AperFunction*%
%TO.P,R9,1*%
%TO.N,SYS_SWDIO*%
%TA.AperFunction,SMDPad,CuDef*%
G36*
G01*
X210487500Y-99150000D02*
X210012500Y-99150000D01*
G75*
G02*
X209775000Y-98912500I0J237500D01*
G01*
X209775000Y-98412500D01*
G75*
G02*
X210012500Y-98175000I237500J0D01*
G01*
X210487500Y-98175000D01*
G75*
G02*
X210725000Y-98412500I0J-237500D01*
G01*
X210725000Y-98912500D01*
G75*
G02*
X210487500Y-99150000I-237500J0D01*
G01*
G37*
%TD.AperFunction*%
%TD*%
%TO.P,R8,2*%
%TO.N,Net-(Q1-Pad1)*%
%TA.AperFunction,SMDPad,CuDef*%
G36*
G01*
X209262500Y-112925000D02*
X209737500Y-112925000D01*
G75*
G02*
X209975000Y-113162500I0J-237500D01*
G01*
X209975000Y-113662500D01*
G75*
G02*
X209737500Y-113900000I-237500J0D01*
G01*
X209262500Y-113900000D01*
G75*
G02*
X209025000Y-113662500I0J237500D01*
G01*
X209025000Y-113162500D01*
G75*
G02*
X209262500Y-112925000I237500J0D01*
G01*
G37*
%TD.AperFunction*%
%TO.P,R8,1*%
%TO.N,LED_GATE*%
%TA.AperFunction,SMDPad,CuDef*%
G36*
G01*
X209262500Y-111100000D02*
X209737500Y-111100000D01*
G75*
G02*
X209975000Y-111337500I0J-237500D01*
G01*
X209975000Y-111837500D01*
G75*
G02*
X209737500Y-112075000I-237500J0D01*
G01*
X209262500Y-112075000D01*
G75*
G02*
X209025000Y-111837500I0J237500D01*
G01*
X209025000Y-111337500D01*
G75*
G02*
X209262500Y-111100000I237500J0D01*
G01*
G37*
%TD.AperFunction*%
%TD*%
%TO.P,R7,2*%
%TO.N,GND*%
%TA.AperFunction,SMDPad,CuDef*%
G36*
G01*
X206425000Y-101237500D02*
X206425000Y-100762500D01*
G75*
G02*
X206662500Y-100525000I237500J0D01*
G01*
X207162500Y-100525000D01*
G75*
G02*
X207400000Y-100762500I0J-237500D01*
G01*
X207400000Y-101237500D01*
G75*
G02*
X207162500Y-101475000I-237500J0D01*
G01*
X206662500Y-101475000D01*
G75*
G02*
X206425000Y-101237500I0J237500D01*
G01*
G37*
%TD.AperFunction*%
%TO.P,R7,1*%
%TO.N,SWITCH*%
%TA.AperFunction,SMDPad,CuDef*%
G36*
G01*
X204600000Y-101237500D02*
X204600000Y-100762500D01*
G75*
G02*
X204837500Y-100525000I237500J0D01*
G01*
X205337500Y-100525000D01*
G75*
G02*
X205575000Y-100762500I0J-237500D01*
G01*
X205575000Y-101237500D01*
G75*
G02*
X205337500Y-101475000I-237500J0D01*
G01*
X204837500Y-101475000D01*
G75*
G02*
X204600000Y-101237500I0J237500D01*
G01*
G37*
%TD.AperFunction*%
%TD*%
%TO.P,R5,2*%
%TO.N,GND*%
%TA.AperFunction,SMDPad,CuDef*%
G36*
G01*
X206425000Y-104237500D02*
X206425000Y-103762500D01*
G75*
G02*
X206662500Y-103525000I237500J0D01*
G01*
X207162500Y-103525000D01*
G75*
G02*
X207400000Y-103762500I0J-237500D01*
G01*
X207400000Y-104237500D01*
G75*
G02*
X207162500Y-104475000I-237500J0D01*
G01*
X206662500Y-104475000D01*
G75*
G02*
X206425000Y-104237500I0J237500D01*
G01*
G37*
%TD.AperFunction*%
%TO.P,R5,1*%
%TO.N,ENCODER_A*%
%TA.AperFunction,SMDPad,CuDef*%
G36*
G01*
X204600000Y-104237500D02*
X204600000Y-103762500D01*
G75*
G02*
X204837500Y-103525000I237500J0D01*
G01*
X205337500Y-103525000D01*
G75*
G02*
X205575000Y-103762500I0J-237500D01*
G01*
X205575000Y-104237500D01*
G75*
G02*
X205337500Y-104475000I-237500J0D01*
G01*
X204837500Y-104475000D01*
G75*
G02*
X204600000Y-104237500I0J237500D01*
G01*
G37*
%TD.AperFunction*%
%TD*%
%TO.P,R3,2*%
%TO.N,GND*%
%TA.AperFunction,SMDPad,CuDef*%
G36*
G01*
X238012500Y-105425000D02*
X238487500Y-105425000D01*
G75*
G02*
X238725000Y-105662500I0J-237500D01*
G01*
X238725000Y-106162500D01*
G75*
G02*
X238487500Y-106400000I-237500J0D01*
G01*
X238012500Y-106400000D01*
G75*
G02*
X237775000Y-106162500I0J237500D01*
G01*
X237775000Y-105662500D01*
G75*
G02*
X238012500Y-105425000I237500J0D01*
G01*
G37*
%TD.AperFunction*%
%TO.P,R3,1*%
%TO.N,LBI_EN*%
%TA.AperFunction,SMDPad,CuDef*%
G36*
G01*
X238012500Y-103600000D02*
X238487500Y-103600000D01*
G75*
G02*
X238725000Y-103837500I0J-237500D01*
G01*
X238725000Y-104337500D01*
G75*
G02*
X238487500Y-104575000I-237500J0D01*
G01*
X238012500Y-104575000D01*
G75*
G02*
X237775000Y-104337500I0J237500D01*
G01*
X237775000Y-103837500D01*
G75*
G02*
X238012500Y-103600000I237500J0D01*
G01*
G37*
%TD.AperFunction*%
%TD*%
D17*
%TO.P,Q1,3*%
%TO.N,Net-(J3-Pad2)*%
X212000000Y-113500000D03*
%TO.P,Q1,2*%
%TO.N,GND*%
X211050000Y-111500000D03*
%TO.P,Q1,1*%
%TO.N,Net-(Q1-Pad1)*%
X212950000Y-111500000D03*
%TD*%
%TO.P,C8,2*%
%TO.N,GND*%
%TA.AperFunction,SMDPad,CuDef*%
G36*
G01*
X217825000Y-115775001D02*
X217825000Y-115224999D01*
G75*
G02*
X218074999Y-114975000I249999J0D01*
G01*
X218700001Y-114975000D01*
G75*
G02*
X218950000Y-115224999I0J-249999D01*
G01*
X218950000Y-115775001D01*
G75*
G02*
X218700001Y-116025000I-249999J0D01*
G01*
X218074999Y-116025000D01*
G75*
G02*
X217825000Y-115775001I0J249999D01*
G01*
G37*
%TD.AperFunction*%
%TO.P,C8,1*%
%TO.N,VBAT*%
%TA.AperFunction,SMDPad,CuDef*%
G36*
G01*
X216050000Y-115775001D02*
X216050000Y-115224999D01*
G75*
G02*
X216299999Y-114975000I249999J0D01*
G01*
X216925001Y-114975000D01*
G75*
G02*
X217175000Y-115224999I0J-249999D01*
G01*
X217175000Y-115775001D01*
G75*
G02*
X216925001Y-116025000I-249999J0D01*
G01*
X216299999Y-116025000D01*
G75*
G02*
X216050000Y-115775001I0J249999D01*
G01*
G37*
%TD.AperFunction*%
%TD*%
%TO.P,C6,2*%
%TO.N,GND*%
%TA.AperFunction,SMDPad,CuDef*%
G36*
G01*
X236262500Y-108575000D02*
X236737500Y-108575000D01*
G75*
G02*
X236975000Y-108812500I0J-237500D01*
G01*
X236975000Y-109412500D01*
G75*
G02*
X236737500Y-109650000I-237500J0D01*
G01*
X236262500Y-109650000D01*
G75*
G02*
X236025000Y-109412500I0J237500D01*
G01*
X236025000Y-108812500D01*
G75*
G02*
X236262500Y-108575000I237500J0D01*
G01*
G37*
%TD.AperFunction*%
%TO.P,C6,1*%
%TO.N,/ncp_ref*%
%TA.AperFunction,SMDPad,CuDef*%
G36*
G01*
X236262500Y-106850000D02*
X236737500Y-106850000D01*
G75*
G02*
X236975000Y-107087500I0J-237500D01*
G01*
X236975000Y-107687500D01*
G75*
G02*
X236737500Y-107925000I-237500J0D01*
G01*
X236262500Y-107925000D01*
G75*
G02*
X236025000Y-107687500I0J237500D01*
G01*
X236025000Y-107087500D01*
G75*
G02*
X236262500Y-106850000I237500J0D01*
G01*
G37*
%TD.AperFunction*%
%TD*%
D18*
%TO.P,U2,1*%
%TO.N,Net-(C11-Pad1)*%
X54094000Y-91603000D03*
%TO.P,U2,2*%
X54094000Y-92873000D03*
%TO.P,U2,3*%
%TO.N,Net-(C10-Pad2)*%
X54094000Y-94143000D03*
%TO.P,U2,4*%
%TO.N,N/C*%
X54094000Y-95413000D03*
%TO.P,U2,8*%
X59344000Y-91603000D03*
%TO.P,U2,7*%
X59344000Y-92873000D03*
%TO.P,U2,6*%
X59344000Y-94143000D03*
%TO.P,U2,5*%
X59344000Y-95413000D03*
%TD*%
%TO.P,R18,2*%
%TO.N,Net-(D2-Pad4)*%
%TA.AperFunction,SMDPad,CuDef*%
G36*
G01*
X67534000Y-99183000D02*
X67534000Y-98633000D01*
G75*
G02*
X67734000Y-98433000I200000J0D01*
G01*
X68134000Y-98433000D01*
G75*
G02*
X68334000Y-98633000I0J-200000D01*
G01*
X68334000Y-99183000D01*
G75*
G02*
X68134000Y-99383000I-200000J0D01*
G01*
X67734000Y-99383000D01*
G75*
G02*
X67534000Y-99183000I0J200000D01*
G01*
G37*
%TD.AperFunction*%
%TO.P,R18,1*%
%TO.N,PWM_LED_B*%
%TA.AperFunction,SMDPad,CuDef*%
G36*
G01*
X65884000Y-99183000D02*
X65884000Y-98633000D01*
G75*
G02*
X66084000Y-98433000I200000J0D01*
G01*
X66484000Y-98433000D01*
G75*
G02*
X66684000Y-98633000I0J-200000D01*
G01*
X66684000Y-99183000D01*
G75*
G02*
X66484000Y-99383000I-200000J0D01*
G01*
X66084000Y-99383000D01*
G75*
G02*
X65884000Y-99183000I0J200000D01*
G01*
G37*
%TD.AperFunction*%
%TD*%
%TO.P,R17,2*%
%TO.N,Net-(D2-Pad3)*%
%TA.AperFunction,SMDPad,CuDef*%
G36*
G01*
X67764000Y-96673000D02*
X67764000Y-96123000D01*
G75*
G02*
X67964000Y-95923000I200000J0D01*
G01*
X68364000Y-95923000D01*
G75*
G02*
X68564000Y-96123000I0J-200000D01*
G01*
X68564000Y-96673000D01*
G75*
G02*
X68364000Y-96873000I-200000J0D01*
G01*
X67964000Y-96873000D01*
G75*
G02*
X67764000Y-96673000I0J200000D01*
G01*
G37*
%TD.AperFunction*%
%TO.P,R17,1*%
%TO.N,PWM_LED_G*%
%TA.AperFunction,SMDPad,CuDef*%
G36*
G01*
X66114000Y-96673000D02*
X66114000Y-96123000D01*
G75*
G02*
X66314000Y-95923000I200000J0D01*
G01*
X66714000Y-95923000D01*
G75*
G02*
X66914000Y-96123000I0J-200000D01*
G01*
X66914000Y-96673000D01*
G75*
G02*
X66714000Y-96873000I-200000J0D01*
G01*
X66314000Y-96873000D01*
G75*
G02*
X66114000Y-96673000I0J200000D01*
G01*
G37*
%TD.AperFunction*%
%TD*%
%TO.P,R16,2*%
%TO.N,Net-(D2-Pad2)*%
%TA.AperFunction,SMDPad,CuDef*%
G36*
G01*
X63524000Y-99113000D02*
X63524000Y-98563000D01*
G75*
G02*
X63724000Y-98363000I200000J0D01*
G01*
X64124000Y-98363000D01*
G75*
G02*
X64324000Y-98563000I0J-200000D01*
G01*
X64324000Y-99113000D01*
G75*
G02*
X64124000Y-99313000I-200000J0D01*
G01*
X63724000Y-99313000D01*
G75*
G02*
X63524000Y-99113000I0J200000D01*
G01*
G37*
%TD.AperFunction*%
%TO.P,R16,1*%
%TO.N,PWM_LED_R*%
%TA.AperFunction,SMDPad,CuDef*%
G36*
G01*
X61874000Y-99113000D02*
X61874000Y-98563000D01*
G75*
G02*
X62074000Y-98363000I200000J0D01*
G01*
X62474000Y-98363000D01*
G75*
G02*
X62674000Y-98563000I0J-200000D01*
G01*
X62674000Y-99113000D01*
G75*
G02*
X62474000Y-99313000I-200000J0D01*
G01*
X62074000Y-99313000D01*
G75*
G02*
X61874000Y-99113000I0J200000D01*
G01*
G37*
%TD.AperFunction*%
%TD*%
%TO.P,R15,2*%
%TO.N,Net-(D1-Pad4)*%
%TA.AperFunction,SMDPad,CuDef*%
G36*
G01*
X67764000Y-94163000D02*
X67764000Y-93613000D01*
G75*
G02*
X67964000Y-93413000I200000J0D01*
G01*
X68364000Y-93413000D01*
G75*
G02*
X68564000Y-93613000I0J-200000D01*
G01*
X68564000Y-94163000D01*
G75*
G02*
X68364000Y-94363000I-200000J0D01*
G01*
X67964000Y-94363000D01*
G75*
G02*
X67764000Y-94163000I0J200000D01*
G01*
G37*
%TD.AperFunction*%
%TO.P,R15,1*%
%TO.N,PWM_LED_B*%
%TA.AperFunction,SMDPad,CuDef*%
G36*
G01*
X66114000Y-94163000D02*
X66114000Y-93613000D01*
G75*
G02*
X66314000Y-93413000I200000J0D01*
G01*
X66714000Y-93413000D01*
G75*
G02*
X66914000Y-93613000I0J-200000D01*
G01*
X66914000Y-94163000D01*
G75*
G02*
X66714000Y-94363000I-200000J0D01*
G01*
X66314000Y-94363000D01*
G75*
G02*
X66114000Y-94163000I0J200000D01*
G01*
G37*
%TD.AperFunction*%
%TD*%
%TO.P,R14,2*%
%TO.N,Net-(D1-Pad3)*%
%TA.AperFunction,SMDPad,CuDef*%
G36*
G01*
X59514000Y-99113000D02*
X59514000Y-98563000D01*
G75*
G02*
X59714000Y-98363000I200000J0D01*
G01*
X60114000Y-98363000D01*
G75*
G02*
X60314000Y-98563000I0J-200000D01*
G01*
X60314000Y-99113000D01*
G75*
G02*
X60114000Y-99313000I-200000J0D01*
G01*
X59714000Y-99313000D01*
G75*
G02*
X59514000Y-99113000I0J200000D01*
G01*
G37*
%TD.AperFunction*%
%TO.P,R14,1*%
%TO.N,PWM_LED_G*%
%TA.AperFunction,SMDPad,CuDef*%
G36*
G01*
X57864000Y-99113000D02*
X57864000Y-98563000D01*
G75*
G02*
X58064000Y-98363000I200000J0D01*
G01*
X58464000Y-98363000D01*
G75*
G02*
X58664000Y-98563000I0J-200000D01*
G01*
X58664000Y-99113000D01*
G75*
G02*
X58464000Y-99313000I-200000J0D01*
G01*
X58064000Y-99313000D01*
G75*
G02*
X57864000Y-99113000I0J200000D01*
G01*
G37*
%TD.AperFunction*%
%TD*%
%TO.P,R13,2*%
%TO.N,Net-(D1-Pad2)*%
%TA.AperFunction,SMDPad,CuDef*%
G36*
G01*
X67424000Y-91653000D02*
X67424000Y-91103000D01*
G75*
G02*
X67624000Y-90903000I200000J0D01*
G01*
X68024000Y-90903000D01*
G75*
G02*
X68224000Y-91103000I0J-200000D01*
G01*
X68224000Y-91653000D01*
G75*
G02*
X68024000Y-91853000I-200000J0D01*
G01*
X67624000Y-91853000D01*
G75*
G02*
X67424000Y-91653000I0J200000D01*
G01*
G37*
%TD.AperFunction*%
%TO.P,R13,1*%
%TO.N,PWM_LED_R*%
%TA.AperFunction,SMDPad,CuDef*%
G36*
G01*
X65774000Y-91653000D02*
X65774000Y-91103000D01*
G75*
G02*
X65974000Y-90903000I200000J0D01*
G01*
X66374000Y-90903000D01*
G75*
G02*
X66574000Y-91103000I0J-200000D01*
G01*
X66574000Y-91653000D01*
G75*
G02*
X66374000Y-91853000I-200000J0D01*
G01*
X65974000Y-91853000D01*
G75*
G02*
X65774000Y-91653000I0J200000D01*
G01*
G37*
%TD.AperFunction*%
%TD*%
%TO.P,C11,2*%
%TO.N,Net-(C11-Pad2)*%
%TA.AperFunction,SMDPad,CuDef*%
G36*
G01*
X63439000Y-96453001D02*
X63439000Y-95902999D01*
G75*
G02*
X63688999Y-95653000I249999J0D01*
G01*
X64314001Y-95653000D01*
G75*
G02*
X64564000Y-95902999I0J-249999D01*
G01*
X64564000Y-96453001D01*
G75*
G02*
X64314001Y-96703000I-249999J0D01*
G01*
X63688999Y-96703000D01*
G75*
G02*
X63439000Y-96453001I0J249999D01*
G01*
G37*
%TD.AperFunction*%
%TO.P,C11,1*%
%TO.N,Net-(C11-Pad1)*%
%TA.AperFunction,SMDPad,CuDef*%
G36*
G01*
X61664000Y-96453001D02*
X61664000Y-95902999D01*
G75*
G02*
X61913999Y-95653000I249999J0D01*
G01*
X62539001Y-95653000D01*
G75*
G02*
X62789000Y-95902999I0J-249999D01*
G01*
X62789000Y-96453001D01*
G75*
G02*
X62539001Y-96703000I-249999J0D01*
G01*
X61913999Y-96703000D01*
G75*
G02*
X61664000Y-96453001I0J249999D01*
G01*
G37*
%TD.AperFunction*%
%TD*%
%TO.P,C10,2*%
%TO.N,Net-(C10-Pad2)*%
%TA.AperFunction,SMDPad,CuDef*%
G36*
G01*
X55189000Y-98573001D02*
X55189000Y-98022999D01*
G75*
G02*
X55438999Y-97773000I249999J0D01*
G01*
X56064001Y-97773000D01*
G75*
G02*
X56314000Y-98022999I0J-249999D01*
G01*
X56314000Y-98573001D01*
G75*
G02*
X56064001Y-98823000I-249999J0D01*
G01*
X55438999Y-98823000D01*
G75*
G02*
X55189000Y-98573001I0J249999D01*
G01*
G37*
%TD.AperFunction*%
%TO.P,C10,1*%
%TO.N,Net-(C10-Pad1)*%
%TA.AperFunction,SMDPad,CuDef*%
G36*
G01*
X53414000Y-98573001D02*
X53414000Y-98022999D01*
G75*
G02*
X53663999Y-97773000I249999J0D01*
G01*
X54289001Y-97773000D01*
G75*
G02*
X54539000Y-98022999I0J-249999D01*
G01*
X54539000Y-98573001D01*
G75*
G02*
X54289001Y-98823000I-249999J0D01*
G01*
X53663999Y-98823000D01*
G75*
G02*
X53414000Y-98573001I0J249999D01*
G01*
G37*
%TD.AperFunction*%
%TD*%
D15*
%TO.P,U8,10*%
%TO.N,/7 Segment Display/segment_e*%
X136017000Y-112776000D03*
%TO.P,U8,9*%
%TO.N,/7 Segment Display/segment_d*%
X136017000Y-115316000D03*
%TO.P,U8,8*%
%TO.N,Net-(Q4-Pad3)*%
X136017000Y-117856000D03*
%TO.P,U8,7*%
%TO.N,/7 Segment Display/segment_c*%
X136017000Y-120396000D03*
%TO.P,U8,6*%
%TO.N,/7 Segment Display/decimal_point*%
X136017000Y-122936000D03*
%TO.P,U8,5*%
%TO.N,/7 Segment Display/segment_b*%
X120777000Y-122936000D03*
%TO.P,U8,4*%
%TO.N,/7 Segment Display/segment_a*%
X120777000Y-120396000D03*
%TO.P,U8,3*%
%TO.N,Net-(U8-Pad3)*%
X120777000Y-117856000D03*
%TO.P,U8,2*%
%TO.N,/7 Segment Display/segment_f*%
X120777000Y-115316000D03*
D14*
%TO.P,U8,1*%
%TO.N,/7 Segment Display/segment_g*%
X120777000Y-112776000D03*
%TD*%
D15*
%TO.P,U9,10*%
%TO.N,/7 Segment Display/segment_e*%
X136017000Y-125476000D03*
%TO.P,U9,9*%
%TO.N,/7 Segment Display/segment_d*%
X136017000Y-122936000D03*
%TO.P,U9,8*%
%TO.N,Net-(Q5-Pad3)*%
X136017000Y-120396000D03*
%TO.P,U9,7*%
%TO.N,/7 Segment Display/segment_c*%
X136017000Y-117856000D03*
%TO.P,U9,6*%
%TO.N,/7 Segment Display/decimal_point*%
X136017000Y-115316000D03*
%TO.P,U9,5*%
%TO.N,/7 Segment Display/segment_b*%
X120777000Y-115316000D03*
%TO.P,U9,4*%
%TO.N,/7 Segment Display/segment_a*%
X120777000Y-117856000D03*
%TO.P,U9,3*%
%TO.N,Net-(U9-Pad3)*%
X120777000Y-120396000D03*
%TO.P,U9,2*%
%TO.N,/7 Segment Display/segment_f*%
X120777000Y-122936000D03*
D14*
%TO.P,U9,1*%
%TO.N,/7 Segment Display/segment_g*%
X120777000Y-125476000D03*
%TD*%
D15*
%TO.P,U5,10*%
%TO.N,/7 Segment Display/segment_e*%
X136017000Y-87376000D03*
%TO.P,U5,9*%
%TO.N,/7 Segment Display/segment_d*%
X136017000Y-84836000D03*
%TO.P,U5,8*%
%TO.N,Net-(Q2-Pad3)*%
X136017000Y-82296000D03*
%TO.P,U5,7*%
%TO.N,/7 Segment Display/segment_c*%
X136017000Y-79756000D03*
%TO.P,U5,6*%
%TO.N,/7 Segment Display/decimal_point*%
X136017000Y-77216000D03*
%TO.P,U5,5*%
%TO.N,/7 Segment Display/segment_b*%
X120777000Y-77216000D03*
%TO.P,U5,4*%
%TO.N,/7 Segment Display/segment_a*%
X120777000Y-79756000D03*
%TO.P,U5,3*%
%TO.N,Net-(U5-Pad3)*%
X120777000Y-82296000D03*
%TO.P,U5,2*%
%TO.N,/7 Segment Display/segment_f*%
X120777000Y-84836000D03*
D14*
%TO.P,U5,1*%
%TO.N,/7 Segment Display/segment_g*%
X120777000Y-87376000D03*
%TD*%
D19*
%TO.N,GND*%
X127762000Y-102108000D03*
X127762000Y-100584000D03*
X126492000Y-102108000D03*
X126492000Y-100584000D03*
X123444000Y-101092000D03*
X132588000Y-102108000D03*
X133858000Y-117094000D03*
X130048000Y-120904000D03*
X123400000Y-117300000D03*
X124206000Y-116078000D03*
X129540000Y-103632000D03*
X133604000Y-106172000D03*
X229500000Y-105500000D03*
X208500000Y-106000000D03*
X218000014Y-105999986D03*
%TO.N,VBAT*%
X123444000Y-102616000D03*
X132842000Y-100838000D03*
X124800000Y-121100000D03*
X124000000Y-122700000D03*
%TO.N,+5V*%
X234500000Y-102500000D03*
X232500000Y-99500000D03*
X231000000Y-99500000D03*
%TO.N,+3V3*%
X227500000Y-106500000D03*
X228500000Y-107500000D03*
X218000000Y-105000000D03*
X208500000Y-105000000D03*
%TO.N,/7 Segment Display/segment_a*%
X126492000Y-92964000D03*
X122250000Y-104250000D03*
%TO.N,/7 Segment Display/segment_b*%
X128016000Y-92964000D03*
X121968518Y-111436452D03*
X120750000Y-103500000D03*
%TO.N,/7 Segment Display/segment_f*%
X128797297Y-108184703D03*
X121250000Y-110250000D03*
%TO.N,/7 Segment Display/segment_g*%
X130302000Y-108457974D03*
%TO.N,AVR_ICSP_MISO*%
X125500000Y-106500014D03*
X124749986Y-109250000D03*
%TO.N,AVR_ICSP_MOSI*%
X126000000Y-109500000D03*
X126500000Y-107750000D03*
%TO.N,AVR_ICSP_nRST*%
X125984000Y-98044000D03*
X130047990Y-115570000D03*
%TO.N,/7 Segment Display/SPI1_NSS*%
X123500000Y-109000000D03*
X126604921Y-105250000D03*
%TO.N,SPI1_MOSI*%
X215500000Y-107500000D03*
%TD*%
D20*
%TO.N,GND*%
X230600000Y-105500000D02*
X229500000Y-105500000D01*
X208775000Y-106275000D02*
X208500000Y-106000000D01*
X209500000Y-106275000D02*
X208775000Y-106275000D01*
X216250000Y-105500000D02*
X215187500Y-105500000D01*
X217000000Y-106250000D02*
X216250000Y-105500000D01*
X217000000Y-106275000D02*
X217000000Y-106250000D01*
X217725000Y-106275000D02*
X218000014Y-105999986D01*
X217000000Y-106275000D02*
X217725000Y-106275000D01*
%TO.N,+5V*%
X234525000Y-102475000D02*
X234500000Y-102500000D01*
X234525000Y-100887500D02*
X234525000Y-102475000D01*
X232500000Y-100837500D02*
X232500000Y-99500000D01*
X230750000Y-99750000D02*
X231000000Y-99500000D01*
X230750000Y-100862500D02*
X230750000Y-99750000D01*
%TO.N,+3V3*%
X227550000Y-106450000D02*
X227500000Y-106500000D01*
X228400000Y-106450000D02*
X227550000Y-106450000D01*
X228400000Y-107400000D02*
X228500000Y-107500000D01*
X228400000Y-106450000D02*
X228400000Y-107400000D01*
X217000000Y-104725000D02*
X217725000Y-104725000D01*
X217725000Y-104725000D02*
X218000000Y-105000000D01*
X208775000Y-104725000D02*
X208500000Y-105000000D01*
X209500000Y-104725000D02*
X208775000Y-104725000D01*
X210225000Y-104725000D02*
X210500000Y-105000000D01*
X209500000Y-104725000D02*
X210225000Y-104725000D01*
X211312500Y-105000000D02*
X210500000Y-105000000D01*
X216275000Y-105000000D02*
X215187500Y-105000000D01*
X216550000Y-104725000D02*
X216275000Y-105000000D01*
X217000000Y-104725000D02*
X216550000Y-104725000D01*
%TO.N,SWITCH*%
X205027500Y-101060000D02*
X205087500Y-101000000D01*
X202498000Y-101060000D02*
X205027500Y-101060000D01*
%TO.N,ENCODER_B*%
X202498000Y-105060000D02*
X203500000Y-104058000D01*
X203500000Y-104058000D02*
X203500000Y-103000000D01*
X204000000Y-102500000D02*
X205087500Y-102500000D01*
X203500000Y-103000000D02*
X204000000Y-102500000D01*
%TO.N,ENCODER_A*%
X204440000Y-109060000D02*
X202498000Y-109060000D01*
X205087500Y-108412500D02*
X204440000Y-109060000D01*
X205087500Y-104000000D02*
X205087500Y-105412500D01*
X205087500Y-105412500D02*
X205087500Y-108412500D01*
%TO.N,Net-(J5-Pad2)*%
X210250000Y-94040000D02*
X210290000Y-94000000D01*
X210250000Y-96837500D02*
X210250000Y-94040000D01*
%TO.N,Net-(J5-Pad3)*%
X212750000Y-94080000D02*
X212830000Y-94000000D01*
X212750000Y-96837500D02*
X212750000Y-94080000D01*
%TO.N,Net-(J5-Pad4)*%
X215250000Y-94120000D02*
X215370000Y-94000000D01*
X215250000Y-96837500D02*
X215250000Y-94120000D01*
%TO.N,Net-(J5-Pad5)*%
X218000000Y-94090000D02*
X217910000Y-94000000D01*
X218000000Y-96837500D02*
X218000000Y-94090000D01*
%TO.N,/7 Segment Display/segment_a*%
X126492000Y-92964000D02*
X125984000Y-92456000D01*
X122174000Y-92456000D02*
X120777000Y-92456000D01*
X125984000Y-92456000D02*
X122174000Y-92456000D01*
X122174000Y-93853000D02*
X122174000Y-92456000D01*
X122174000Y-103759000D02*
X122174000Y-103674000D01*
X122174000Y-104174000D02*
X122250000Y-104250000D01*
X122174000Y-103174000D02*
X122174000Y-104174000D01*
X122174000Y-103674000D02*
X122174000Y-103174000D01*
X122174000Y-103174000D02*
X122174000Y-93853000D01*
%TO.N,/7 Segment Display/segment_b*%
X128016000Y-92202000D02*
X125730000Y-89916000D01*
X128016000Y-92964000D02*
X128016000Y-92202000D01*
X122174000Y-78613000D02*
X120777000Y-77216000D01*
X122174000Y-89916000D02*
X122174000Y-78613000D01*
X125730000Y-89916000D02*
X122174000Y-89916000D01*
X122174000Y-89916000D02*
X120777000Y-89916000D01*
X119380000Y-104870000D02*
X120750000Y-103500000D01*
X121968518Y-111436452D02*
X119818452Y-111436452D01*
X119380000Y-110998000D02*
X119380000Y-104870000D01*
X119818452Y-111436452D02*
X119380000Y-110998000D01*
%TO.N,/7 Segment Display/segment_c*%
X134862199Y-116701199D02*
X136017000Y-117856000D01*
X134862199Y-106310801D02*
X134862199Y-116701199D01*
X136017000Y-105156000D02*
X134862199Y-106310801D01*
X134862199Y-93610801D02*
X136017000Y-92456000D01*
X134862199Y-104001199D02*
X134862199Y-93610801D01*
X136017000Y-105156000D02*
X134862199Y-104001199D01*
X134862199Y-80910801D02*
X136017000Y-79756000D01*
X134862199Y-91301199D02*
X134862199Y-80910801D01*
X136017000Y-92456000D02*
X134862199Y-91301199D01*
%TO.N,/7 Segment Display/segment_f*%
X128797297Y-108456485D02*
X128797297Y-108184703D01*
X127017782Y-110236000D02*
X128797297Y-108456485D01*
X121264000Y-110236000D02*
X121250000Y-110250000D01*
X127017782Y-110236000D02*
X121264000Y-110236000D01*
%TO.N,/7 Segment Display/segment_g*%
X120777000Y-125476000D02*
X118872000Y-123571000D01*
X118872000Y-123571000D02*
X118872000Y-112776000D01*
X118872000Y-112776000D02*
X120777000Y-112776000D01*
X118872000Y-112776000D02*
X118872000Y-100076000D01*
X118872000Y-100076000D02*
X120777000Y-100076000D01*
X120650000Y-87376000D02*
X118872000Y-89154000D01*
X120777000Y-87376000D02*
X120650000Y-87376000D01*
X118872000Y-100076000D02*
X118872000Y-89154000D01*
X130302000Y-109728000D02*
X130302000Y-108457974D01*
X128830000Y-111200000D02*
X130302000Y-109728000D01*
X124200000Y-111200000D02*
X128830000Y-111200000D01*
X122624000Y-112776000D02*
X124200000Y-111200000D01*
X120777000Y-112776000D02*
X122624000Y-112776000D01*
%TO.N,/7 Segment Display/decimal_point*%
X136017000Y-77216000D02*
X137820411Y-79019411D01*
X137820411Y-113512589D02*
X136017000Y-115316000D01*
X137820411Y-88112589D02*
X137820411Y-86461589D01*
X136017000Y-89916000D02*
X137820411Y-88112589D01*
X137820411Y-79019411D02*
X137820411Y-86461589D01*
X137820411Y-91719411D02*
X137820411Y-92049589D01*
X136017000Y-89916000D02*
X137820411Y-91719411D01*
X137820411Y-100812589D02*
X137820411Y-100431589D01*
X136017000Y-102616000D02*
X137820411Y-100812589D01*
X137820411Y-92049589D02*
X137820411Y-100431589D01*
X137820411Y-104419411D02*
X137820411Y-105765589D01*
X136017000Y-102616000D02*
X137820411Y-104419411D01*
X137820411Y-105765589D02*
X137820411Y-113512589D01*
%TO.N,AVR_ICSP_MISO*%
X125500000Y-106500014D02*
X124749986Y-107250028D01*
X124749986Y-107250028D02*
X124749986Y-109250000D01*
%TO.N,AVR_ICSP_MOSI*%
X126000000Y-108250000D02*
X126500000Y-107750000D01*
X126000000Y-109500000D02*
X126000000Y-108250000D01*
%TO.N,AVR_ICSP_nRST*%
X130048000Y-115569990D02*
X130047990Y-115570000D01*
X131064000Y-114553990D02*
X130048000Y-115569990D01*
X131064000Y-100838000D02*
X131064000Y-114553990D01*
X128270000Y-98044000D02*
X131064000Y-100838000D01*
X125984000Y-98044000D02*
X128270000Y-98044000D01*
%TO.N,/7 Segment Display/SPI1_NSS*%
X125193225Y-105250000D02*
X126604921Y-105250000D01*
X123500000Y-106943225D02*
X125193225Y-105250000D01*
X123500000Y-109000000D02*
X123500000Y-106943225D01*
%TO.N,SPI1_SCK*%
X212644456Y-107500000D02*
X213250000Y-106894456D01*
X213250000Y-106894456D02*
X213250000Y-106437500D01*
X212000000Y-107500000D02*
X212644456Y-107500000D01*
X210500000Y-109000000D02*
X212000000Y-107500000D01*
%TO.N,SPI1_MOSI*%
X214250000Y-106904708D02*
X214250000Y-106437500D01*
X214845292Y-107500000D02*
X214250000Y-106904708D01*
X215500000Y-107500000D02*
X214845292Y-107500000D01*
%TO.N,SPI1_MISO*%
X214500000Y-109000000D02*
X214500000Y-108000000D01*
X213750000Y-107250000D02*
X213750000Y-106437500D01*
X214500000Y-108000000D02*
X213750000Y-107250000D01*
%TO.N,SPI1_NSS*%
X218698514Y-104664730D02*
X218698514Y-106801486D01*
X218698514Y-106801486D02*
X216500000Y-109000000D01*
X215187500Y-104500000D02*
X215644456Y-104500000D01*
X215644456Y-104500000D02*
X216500000Y-103644456D01*
X216500000Y-103644456D02*
X217678240Y-103644456D01*
X217678240Y-103644456D02*
X218698514Y-104664730D01*
%TD*%
D21*
%TO.N,GND*%
X139167001Y-126594000D02*
X136534667Y-126594000D01*
X136600097Y-126566898D01*
X136801717Y-126432180D01*
X136973180Y-126260717D01*
X137107898Y-126059097D01*
X137200693Y-125835069D01*
X137248000Y-125597243D01*
X137248000Y-125354757D01*
X137200693Y-125116931D01*
X137107898Y-124892903D01*
X136973180Y-124691283D01*
X136801717Y-124519820D01*
X136600097Y-124385102D01*
X136376069Y-124292307D01*
X136138243Y-124245000D01*
X135895757Y-124245000D01*
X135657931Y-124292307D01*
X135433903Y-124385102D01*
X135232283Y-124519820D01*
X135060820Y-124691283D01*
X134926102Y-124892903D01*
X134833307Y-125116931D01*
X134786000Y-125354757D01*
X134786000Y-125597243D01*
X134833307Y-125835069D01*
X134926102Y-126059097D01*
X135060820Y-126260717D01*
X135232283Y-126432180D01*
X135433903Y-126566898D01*
X135499333Y-126594000D01*
X121899936Y-126594000D01*
X121945322Y-126538696D01*
X121980701Y-126472508D01*
X122002487Y-126400689D01*
X122009843Y-126326000D01*
X122009843Y-124626000D01*
X122002487Y-124551311D01*
X121980701Y-124479492D01*
X121945322Y-124413304D01*
X121911426Y-124372000D01*
X124370157Y-124372000D01*
X124370157Y-126072000D01*
X124377513Y-126146689D01*
X124399299Y-126218508D01*
X124434678Y-126284696D01*
X124482289Y-126342711D01*
X124540304Y-126390322D01*
X124606492Y-126425701D01*
X124678311Y-126447487D01*
X124753000Y-126454843D01*
X126453000Y-126454843D01*
X126527689Y-126447487D01*
X126599508Y-126425701D01*
X126665696Y-126390322D01*
X126723711Y-126342711D01*
X126771322Y-126284696D01*
X126806701Y-126218508D01*
X126828487Y-126146689D01*
X126835843Y-126072000D01*
X126835843Y-125100757D01*
X126912000Y-125100757D01*
X126912000Y-125343243D01*
X126959307Y-125581069D01*
X127052102Y-125805097D01*
X127186820Y-126006717D01*
X127358283Y-126178180D01*
X127559903Y-126312898D01*
X127783931Y-126405693D01*
X128021757Y-126453000D01*
X128264243Y-126453000D01*
X128502069Y-126405693D01*
X128726097Y-126312898D01*
X128927717Y-126178180D01*
X129099180Y-126006717D01*
X129233898Y-125805097D01*
X129326693Y-125581069D01*
X129374000Y-125343243D01*
X129374000Y-125100757D01*
X129326693Y-124862931D01*
X129233898Y-124638903D01*
X129099180Y-124437283D01*
X128927717Y-124265820D01*
X128726097Y-124131102D01*
X128502069Y-124038307D01*
X128264243Y-123991000D01*
X128021757Y-123991000D01*
X127783931Y-124038307D01*
X127559903Y-124131102D01*
X127358283Y-124265820D01*
X127186820Y-124437283D01*
X127052102Y-124638903D01*
X126959307Y-124862931D01*
X126912000Y-125100757D01*
X126835843Y-125100757D01*
X126835843Y-124372000D01*
X126828487Y-124297311D01*
X126806701Y-124225492D01*
X126771322Y-124159304D01*
X126723711Y-124101289D01*
X126665696Y-124053678D01*
X126599508Y-124018299D01*
X126527689Y-123996513D01*
X126453000Y-123989157D01*
X124753000Y-123989157D01*
X124678311Y-123996513D01*
X124606492Y-124018299D01*
X124540304Y-124053678D01*
X124482289Y-124101289D01*
X124434678Y-124159304D01*
X124399299Y-124225492D01*
X124377513Y-124297311D01*
X124370157Y-124372000D01*
X121911426Y-124372000D01*
X121897711Y-124355289D01*
X121839696Y-124307678D01*
X121773508Y-124272299D01*
X121701689Y-124250513D01*
X121627000Y-124243157D01*
X120226657Y-124243157D01*
X119354600Y-123371101D01*
X119354600Y-122814757D01*
X119546000Y-122814757D01*
X119546000Y-123057243D01*
X119593307Y-123295069D01*
X119686102Y-123519097D01*
X119820820Y-123720717D01*
X119992283Y-123892180D01*
X120193903Y-124026898D01*
X120417931Y-124119693D01*
X120655757Y-124167000D01*
X120898243Y-124167000D01*
X121136069Y-124119693D01*
X121360097Y-124026898D01*
X121561717Y-123892180D01*
X121733180Y-123720717D01*
X121867898Y-123519097D01*
X121960693Y-123295069D01*
X122008000Y-123057243D01*
X122008000Y-122814757D01*
X121969996Y-122623699D01*
X123225300Y-122623699D01*
X123225300Y-122776301D01*
X123255072Y-122925972D01*
X123313470Y-123066958D01*
X123398252Y-123193842D01*
X123506158Y-123301748D01*
X123633042Y-123386530D01*
X123774028Y-123444928D01*
X123923699Y-123474700D01*
X124076301Y-123474700D01*
X124225972Y-123444928D01*
X124366958Y-123386530D01*
X124493842Y-123301748D01*
X124519468Y-123276122D01*
X124646820Y-123466717D01*
X124818283Y-123638180D01*
X125019903Y-123772898D01*
X125243931Y-123865693D01*
X125481757Y-123913000D01*
X125724243Y-123913000D01*
X125962069Y-123865693D01*
X126186097Y-123772898D01*
X126387717Y-123638180D01*
X126559180Y-123466717D01*
X126693898Y-123265097D01*
X126786693Y-123041069D01*
X126834000Y-122803243D01*
X126834000Y-122560757D01*
X126912000Y-122560757D01*
X126912000Y-122803243D01*
X126959307Y-123041069D01*
X127052102Y-123265097D01*
X127186820Y-123466717D01*
X127358283Y-123638180D01*
X127559903Y-123772898D01*
X127783931Y-123865693D01*
X128021757Y-123913000D01*
X128264243Y-123913000D01*
X128502069Y-123865693D01*
X128726097Y-123772898D01*
X128927717Y-123638180D01*
X129099180Y-123466717D01*
X129233898Y-123265097D01*
X129281228Y-123150832D01*
X129338843Y-123313252D01*
X129487822Y-123563355D01*
X129682731Y-123779588D01*
X129916080Y-123953641D01*
X130178901Y-124078825D01*
X130206154Y-124087091D01*
X130099903Y-124131102D01*
X129898283Y-124265820D01*
X129726820Y-124437283D01*
X129592102Y-124638903D01*
X129499307Y-124862931D01*
X129452000Y-125100757D01*
X129452000Y-125343243D01*
X129499307Y-125581069D01*
X129592102Y-125805097D01*
X129726820Y-126006717D01*
X129898283Y-126178180D01*
X130099903Y-126312898D01*
X130323931Y-126405693D01*
X130561757Y-126453000D01*
X130804243Y-126453000D01*
X131042069Y-126405693D01*
X131266097Y-126312898D01*
X131467717Y-126178180D01*
X131639180Y-126006717D01*
X131773898Y-125805097D01*
X131866693Y-125581069D01*
X131914000Y-125343243D01*
X131914000Y-125100757D01*
X131866693Y-124862931D01*
X131773898Y-124638903D01*
X131639180Y-124437283D01*
X131467717Y-124265820D01*
X131266097Y-124131102D01*
X131159846Y-124087091D01*
X131187099Y-124078825D01*
X131449920Y-123953641D01*
X131683269Y-123779588D01*
X131878178Y-123563355D01*
X132027157Y-123313252D01*
X132124481Y-123038891D01*
X132006836Y-122814757D01*
X134786000Y-122814757D01*
X134786000Y-123057243D01*
X134833307Y-123295069D01*
X134926102Y-123519097D01*
X135060820Y-123720717D01*
X135232283Y-123892180D01*
X135433903Y-124026898D01*
X135657931Y-124119693D01*
X135895757Y-124167000D01*
X136138243Y-124167000D01*
X136376069Y-124119693D01*
X136600097Y-124026898D01*
X136801717Y-123892180D01*
X136973180Y-123720717D01*
X137107898Y-123519097D01*
X137200693Y-123295069D01*
X137248000Y-123057243D01*
X137248000Y-122814757D01*
X137200693Y-122576931D01*
X137107898Y-122352903D01*
X136973180Y-122151283D01*
X136801717Y-121979820D01*
X136600097Y-121845102D01*
X136376069Y-121752307D01*
X136138243Y-121705000D01*
X135895757Y-121705000D01*
X135657931Y-121752307D01*
X135433903Y-121845102D01*
X135232283Y-121979820D01*
X135060820Y-122151283D01*
X134926102Y-122352903D01*
X134833307Y-122576931D01*
X134786000Y-122814757D01*
X132006836Y-122814757D01*
X132003814Y-122809000D01*
X130810000Y-122809000D01*
X130810000Y-122829000D01*
X130556000Y-122829000D01*
X130556000Y-122809000D01*
X130536000Y-122809000D01*
X130536000Y-122555000D01*
X130556000Y-122555000D01*
X130556000Y-121361845D01*
X130810000Y-121361845D01*
X130810000Y-122555000D01*
X132003814Y-122555000D01*
X132124481Y-122325109D01*
X132027157Y-122050748D01*
X131878178Y-121800645D01*
X131683269Y-121584412D01*
X131449920Y-121410359D01*
X131187099Y-121285175D01*
X131039890Y-121240524D01*
X130810000Y-121361845D01*
X130556000Y-121361845D01*
X130326110Y-121240524D01*
X130178901Y-121285175D01*
X129916080Y-121410359D01*
X129682731Y-121584412D01*
X129487822Y-121800645D01*
X129338843Y-122050748D01*
X129281228Y-122213168D01*
X129233898Y-122098903D01*
X129099180Y-121897283D01*
X128927717Y-121725820D01*
X128726097Y-121591102D01*
X128502069Y-121498307D01*
X128264243Y-121451000D01*
X128021757Y-121451000D01*
X127783931Y-121498307D01*
X127559903Y-121591102D01*
X127358283Y-121725820D01*
X127186820Y-121897283D01*
X127052102Y-122098903D01*
X126959307Y-122322931D01*
X126912000Y-122560757D01*
X126834000Y-122560757D01*
X126786693Y-122322931D01*
X126693898Y-122098903D01*
X126559180Y-121897283D01*
X126387717Y-121725820D01*
X126186097Y-121591102D01*
X125962069Y-121498307D01*
X125724243Y-121451000D01*
X125493140Y-121451000D01*
X125544928Y-121325972D01*
X125574700Y-121176301D01*
X125574700Y-121023699D01*
X125544928Y-120874028D01*
X125486530Y-120733042D01*
X125401748Y-120606158D01*
X125293842Y-120498252D01*
X125166958Y-120413470D01*
X125025972Y-120355072D01*
X124876301Y-120325300D01*
X124723699Y-120325300D01*
X124574028Y-120355072D01*
X124433042Y-120413470D01*
X124306158Y-120498252D01*
X124198252Y-120606158D01*
X124113470Y-120733042D01*
X124055072Y-120874028D01*
X124025300Y-121023699D01*
X124025300Y-121176301D01*
X124055072Y-121325972D01*
X124113470Y-121466958D01*
X124198252Y-121593842D01*
X124306158Y-121701748D01*
X124433042Y-121786530D01*
X124574028Y-121844928D01*
X124678411Y-121865692D01*
X124646820Y-121897283D01*
X124512102Y-122098903D01*
X124506944Y-122111354D01*
X124493842Y-122098252D01*
X124366958Y-122013470D01*
X124225972Y-121955072D01*
X124076301Y-121925300D01*
X123923699Y-121925300D01*
X123774028Y-121955072D01*
X123633042Y-122013470D01*
X123506158Y-122098252D01*
X123398252Y-122206158D01*
X123313470Y-122333042D01*
X123255072Y-122474028D01*
X123225300Y-122623699D01*
X121969996Y-122623699D01*
X121960693Y-122576931D01*
X121867898Y-122352903D01*
X121733180Y-122151283D01*
X121561717Y-121979820D01*
X121360097Y-121845102D01*
X121136069Y-121752307D01*
X120898243Y-121705000D01*
X120655757Y-121705000D01*
X120417931Y-121752307D01*
X120193903Y-121845102D01*
X119992283Y-121979820D01*
X119820820Y-122151283D01*
X119686102Y-122352903D01*
X119593307Y-122576931D01*
X119546000Y-122814757D01*
X119354600Y-122814757D01*
X119354600Y-120274757D01*
X119546000Y-120274757D01*
X119546000Y-120517243D01*
X119593307Y-120755069D01*
X119686102Y-120979097D01*
X119820820Y-121180717D01*
X119992283Y-121352180D01*
X120193903Y-121486898D01*
X120417931Y-121579693D01*
X120655757Y-121627000D01*
X120898243Y-121627000D01*
X121136069Y-121579693D01*
X121360097Y-121486898D01*
X121561717Y-121352180D01*
X121733180Y-121180717D01*
X121867898Y-120979097D01*
X121960693Y-120755069D01*
X122008000Y-120517243D01*
X122008000Y-120274757D01*
X134786000Y-120274757D01*
X134786000Y-120517243D01*
X134833307Y-120755069D01*
X134926102Y-120979097D01*
X135060820Y-121180717D01*
X135232283Y-121352180D01*
X135433903Y-121486898D01*
X135657931Y-121579693D01*
X135895757Y-121627000D01*
X136138243Y-121627000D01*
X136376069Y-121579693D01*
X136600097Y-121486898D01*
X136801717Y-121352180D01*
X136973180Y-121180717D01*
X137107898Y-120979097D01*
X137200693Y-120755069D01*
X137248000Y-120517243D01*
X137248000Y-120274757D01*
X137200693Y-120036931D01*
X137107898Y-119812903D01*
X136973180Y-119611283D01*
X136801717Y-119439820D01*
X136600097Y-119305102D01*
X136376069Y-119212307D01*
X136138243Y-119165000D01*
X135895757Y-119165000D01*
X135657931Y-119212307D01*
X135433903Y-119305102D01*
X135232283Y-119439820D01*
X135060820Y-119611283D01*
X134926102Y-119812903D01*
X134833307Y-120036931D01*
X134786000Y-120274757D01*
X122008000Y-120274757D01*
X121960693Y-120036931D01*
X121867898Y-119812903D01*
X121733180Y-119611283D01*
X121561717Y-119439820D01*
X121360097Y-119305102D01*
X121136069Y-119212307D01*
X120898243Y-119165000D01*
X120655757Y-119165000D01*
X120417931Y-119212307D01*
X120193903Y-119305102D01*
X119992283Y-119439820D01*
X119820820Y-119611283D01*
X119686102Y-119812903D01*
X119593307Y-120036931D01*
X119546000Y-120274757D01*
X119354600Y-120274757D01*
X119354600Y-117734757D01*
X119546000Y-117734757D01*
X119546000Y-117977243D01*
X119593307Y-118215069D01*
X119686102Y-118439097D01*
X119820820Y-118640717D01*
X119992283Y-118812180D01*
X120193903Y-118946898D01*
X120417931Y-119039693D01*
X120655757Y-119087000D01*
X120898243Y-119087000D01*
X121136069Y-119039693D01*
X121360097Y-118946898D01*
X121561717Y-118812180D01*
X121733180Y-118640717D01*
X121867898Y-118439097D01*
X121960693Y-118215069D01*
X122008000Y-117977243D01*
X122008000Y-117734757D01*
X121960693Y-117496931D01*
X121867898Y-117272903D01*
X121733180Y-117071283D01*
X121561717Y-116899820D01*
X121360097Y-116765102D01*
X121136069Y-116672307D01*
X120898243Y-116625000D01*
X120655757Y-116625000D01*
X120417931Y-116672307D01*
X120193903Y-116765102D01*
X119992283Y-116899820D01*
X119820820Y-117071283D01*
X119686102Y-117272903D01*
X119593307Y-117496931D01*
X119546000Y-117734757D01*
X119354600Y-117734757D01*
X119354600Y-115194757D01*
X119546000Y-115194757D01*
X119546000Y-115437243D01*
X119593307Y-115675069D01*
X119686102Y-115899097D01*
X119820820Y-116100717D01*
X119992283Y-116272180D01*
X120193903Y-116406898D01*
X120417931Y-116499693D01*
X120655757Y-116547000D01*
X120898243Y-116547000D01*
X121136069Y-116499693D01*
X121360097Y-116406898D01*
X121561717Y-116272180D01*
X121733180Y-116100717D01*
X121867898Y-115899097D01*
X121960693Y-115675069D01*
X122008000Y-115437243D01*
X122008000Y-115194757D01*
X121960693Y-114956931D01*
X121867898Y-114732903D01*
X121733180Y-114531283D01*
X121561717Y-114359820D01*
X121360097Y-114225102D01*
X121136069Y-114132307D01*
X120898243Y-114085000D01*
X120655757Y-114085000D01*
X120417931Y-114132307D01*
X120193903Y-114225102D01*
X119992283Y-114359820D01*
X119820820Y-114531283D01*
X119686102Y-114732903D01*
X119593307Y-114956931D01*
X119546000Y-115194757D01*
X119354600Y-115194757D01*
X119354600Y-113258600D01*
X119544157Y-113258600D01*
X119544157Y-113626000D01*
X119551513Y-113700689D01*
X119573299Y-113772508D01*
X119608678Y-113838696D01*
X119656289Y-113896711D01*
X119714304Y-113944322D01*
X119780492Y-113979701D01*
X119852311Y-114001487D01*
X119927000Y-114008843D01*
X121627000Y-114008843D01*
X121701689Y-114001487D01*
X121773508Y-113979701D01*
X121839696Y-113944322D01*
X121897711Y-113896711D01*
X121945322Y-113838696D01*
X121980701Y-113772508D01*
X122002487Y-113700689D01*
X122009843Y-113626000D01*
X122009843Y-113258600D01*
X122600295Y-113258600D01*
X122624000Y-113260935D01*
X122647705Y-113258600D01*
X122647707Y-113258600D01*
X122718606Y-113251617D01*
X122809577Y-113224022D01*
X122893415Y-113179209D01*
X122966901Y-113118901D01*
X122982017Y-113100482D01*
X124399900Y-111682600D01*
X128806295Y-111682600D01*
X128830000Y-111684935D01*
X128853705Y-111682600D01*
X128853707Y-111682600D01*
X128924606Y-111675617D01*
X129015577Y-111648022D01*
X129099415Y-111603209D01*
X129172901Y-111542901D01*
X129188017Y-111524482D01*
X130581401Y-110131098D01*
X130581401Y-112542157D01*
X129325000Y-112542157D01*
X129250311Y-112549513D01*
X129178492Y-112571299D01*
X129112304Y-112606678D01*
X129054289Y-112654289D01*
X129006678Y-112712304D01*
X128971299Y-112778492D01*
X128949513Y-112850311D01*
X128942157Y-112925000D01*
X128942157Y-113115107D01*
X128935815Y-113099796D01*
X128820249Y-112926839D01*
X128673161Y-112779751D01*
X128500204Y-112664185D01*
X128308024Y-112584581D01*
X128104007Y-112544000D01*
X127895993Y-112544000D01*
X127691976Y-112584581D01*
X127499796Y-112664185D01*
X127326839Y-112779751D01*
X127179751Y-112926839D01*
X127064185Y-113099796D01*
X127000000Y-113254751D01*
X126935815Y-113099796D01*
X126820249Y-112926839D01*
X126673161Y-112779751D01*
X126500204Y-112664185D01*
X126308024Y-112584581D01*
X126104007Y-112544000D01*
X125895993Y-112544000D01*
X125691976Y-112584581D01*
X125499796Y-112664185D01*
X125326839Y-112779751D01*
X125179751Y-112926839D01*
X125064185Y-113099796D01*
X125000000Y-113254751D01*
X124935815Y-113099796D01*
X124820249Y-112926839D01*
X124673161Y-112779751D01*
X124500204Y-112664185D01*
X124308024Y-112584581D01*
X124104007Y-112544000D01*
X123895993Y-112544000D01*
X123691976Y-112584581D01*
X123499796Y-112664185D01*
X123326839Y-112779751D01*
X123179751Y-112926839D01*
X123064185Y-113099796D01*
X122984581Y-113291976D01*
X122944000Y-113495993D01*
X122944000Y-113704007D01*
X122984581Y-113908024D01*
X123064185Y-114100204D01*
X123179751Y-114273161D01*
X123326839Y-114420249D01*
X123499796Y-114535815D01*
X123691976Y-114615419D01*
X123895993Y-114656000D01*
X124104007Y-114656000D01*
X124308024Y-114615419D01*
X124500204Y-114535815D01*
X124673161Y-114420249D01*
X124820249Y-114273161D01*
X124935815Y-114100204D01*
X125000000Y-113945249D01*
X125064185Y-114100204D01*
X125179751Y-114273161D01*
X125326839Y-114420249D01*
X125499796Y-114535815D01*
X125691976Y-114615419D01*
X125895993Y-114656000D01*
X126104007Y-114656000D01*
X126308024Y-114615419D01*
X126500204Y-114535815D01*
X126673161Y-114420249D01*
X126820249Y-114273161D01*
X126935815Y-114100204D01*
X127000000Y-113945249D01*
X127064185Y-114100204D01*
X127179751Y-114273161D01*
X127326839Y-114420249D01*
X127499796Y-114535815D01*
X127691976Y-114615419D01*
X127895993Y-114656000D01*
X128104007Y-114656000D01*
X128308024Y-114615419D01*
X128500204Y-114535815D01*
X128673161Y-114420249D01*
X128820249Y-114273161D01*
X128935815Y-114100204D01*
X128942157Y-114084893D01*
X128942157Y-114275000D01*
X128949513Y-114349689D01*
X128971299Y-114421508D01*
X129006678Y-114487696D01*
X129054289Y-114545711D01*
X129112304Y-114593322D01*
X129178492Y-114628701D01*
X129250311Y-114650487D01*
X129325000Y-114657843D01*
X130277647Y-114657843D01*
X130137553Y-114797938D01*
X130124291Y-114795300D01*
X129971689Y-114795300D01*
X129822018Y-114825072D01*
X129681032Y-114883470D01*
X129554148Y-114968252D01*
X129446242Y-115076158D01*
X129361460Y-115203042D01*
X129303062Y-115344028D01*
X129273290Y-115493699D01*
X129273290Y-115646301D01*
X129303062Y-115795972D01*
X129361460Y-115936958D01*
X129446242Y-116063842D01*
X129554148Y-116171748D01*
X129681032Y-116256530D01*
X129822018Y-116314928D01*
X129971689Y-116344700D01*
X130124291Y-116344700D01*
X130273962Y-116314928D01*
X130414948Y-116256530D01*
X130541832Y-116171748D01*
X130649738Y-116063842D01*
X130734520Y-115936958D01*
X130792918Y-115795972D01*
X130822690Y-115646301D01*
X130822690Y-115493699D01*
X130820052Y-115480437D01*
X131388487Y-114912002D01*
X131406901Y-114896891D01*
X131467209Y-114823405D01*
X131512022Y-114739567D01*
X131537371Y-114656000D01*
X131539617Y-114648597D01*
X131548935Y-114553990D01*
X131546600Y-114530283D01*
X131546600Y-100861707D01*
X131548935Y-100838000D01*
X131541420Y-100761699D01*
X132067300Y-100761699D01*
X132067300Y-100914301D01*
X132097072Y-101063972D01*
X132155470Y-101204958D01*
X132240252Y-101331842D01*
X132348158Y-101439748D01*
X132475042Y-101524530D01*
X132616028Y-101582928D01*
X132765699Y-101612700D01*
X132918301Y-101612700D01*
X133067972Y-101582928D01*
X133208958Y-101524530D01*
X133335842Y-101439748D01*
X133443748Y-101331842D01*
X133528530Y-101204958D01*
X133586928Y-101063972D01*
X133616700Y-100914301D01*
X133616700Y-100761699D01*
X133586928Y-100612028D01*
X133528530Y-100471042D01*
X133443748Y-100344158D01*
X133335842Y-100236252D01*
X133208958Y-100151470D01*
X133067972Y-100093072D01*
X132918301Y-100063300D01*
X132765699Y-100063300D01*
X132616028Y-100093072D01*
X132475042Y-100151470D01*
X132348158Y-100236252D01*
X132240252Y-100344158D01*
X132155470Y-100471042D01*
X132097072Y-100612028D01*
X132067300Y-100761699D01*
X131541420Y-100761699D01*
X131539617Y-100743393D01*
X131512022Y-100652423D01*
X131467208Y-100568584D01*
X131459015Y-100558600D01*
X131406901Y-100495099D01*
X131388488Y-100479988D01*
X128628017Y-97719518D01*
X128612901Y-97701099D01*
X128539415Y-97640791D01*
X128455577Y-97595978D01*
X128364606Y-97568383D01*
X128293707Y-97561400D01*
X128293705Y-97561400D01*
X128270000Y-97559065D01*
X128246295Y-97561400D01*
X126593260Y-97561400D01*
X126585748Y-97550158D01*
X126477842Y-97442252D01*
X126350958Y-97357470D01*
X126209972Y-97299072D01*
X126060301Y-97269300D01*
X125907699Y-97269300D01*
X125758028Y-97299072D01*
X125617042Y-97357470D01*
X125490158Y-97442252D01*
X125382252Y-97550158D01*
X125297470Y-97677042D01*
X125239072Y-97818028D01*
X125209300Y-97967699D01*
X125209300Y-98120301D01*
X125239072Y-98269972D01*
X125297470Y-98410958D01*
X125382252Y-98537842D01*
X125490158Y-98645748D01*
X125617042Y-98730530D01*
X125758028Y-98788928D01*
X125907699Y-98818700D01*
X126060301Y-98818700D01*
X126209972Y-98788928D01*
X126350958Y-98730530D01*
X126477842Y-98645748D01*
X126585748Y-98537842D01*
X126593260Y-98526600D01*
X128070101Y-98526600D01*
X130581400Y-101037900D01*
X130581401Y-107735177D01*
X130527972Y-107713046D01*
X130378301Y-107683274D01*
X130225699Y-107683274D01*
X130076028Y-107713046D01*
X129935042Y-107771444D01*
X129808158Y-107856226D01*
X129700252Y-107964132D01*
X129615470Y-108091016D01*
X129571997Y-108195970D01*
X129571997Y-108108402D01*
X129542225Y-107958731D01*
X129483827Y-107817745D01*
X129399045Y-107690861D01*
X129291139Y-107582955D01*
X129164255Y-107498173D01*
X129023269Y-107439775D01*
X128873598Y-107410003D01*
X128720996Y-107410003D01*
X128571325Y-107439775D01*
X128430339Y-107498173D01*
X128303455Y-107582955D01*
X128195549Y-107690861D01*
X128110767Y-107817745D01*
X128052369Y-107958731D01*
X128022597Y-108108402D01*
X128022597Y-108261004D01*
X128052369Y-108410675D01*
X128084071Y-108487212D01*
X126817883Y-109753400D01*
X126733567Y-109753400D01*
X126744928Y-109725972D01*
X126774700Y-109576301D01*
X126774700Y-109423699D01*
X126744928Y-109274028D01*
X126686530Y-109133042D01*
X126601748Y-109006158D01*
X126493842Y-108898252D01*
X126482600Y-108890740D01*
X126482600Y-108524700D01*
X126576301Y-108524700D01*
X126725972Y-108494928D01*
X126866958Y-108436530D01*
X126993842Y-108351748D01*
X127101748Y-108243842D01*
X127186530Y-108116958D01*
X127244928Y-107975972D01*
X127274700Y-107826301D01*
X127274700Y-107673699D01*
X127244928Y-107524028D01*
X127186530Y-107383042D01*
X127101748Y-107256158D01*
X126993842Y-107148252D01*
X126866958Y-107063470D01*
X126725972Y-107005072D01*
X126576301Y-106975300D01*
X126423699Y-106975300D01*
X126274028Y-107005072D01*
X126133042Y-107063470D01*
X126006158Y-107148252D01*
X125898252Y-107256158D01*
X125813470Y-107383042D01*
X125755072Y-107524028D01*
X125725300Y-107673699D01*
X125725300Y-107826301D01*
X125727938Y-107839563D01*
X125675513Y-107891988D01*
X125657100Y-107907099D01*
X125641989Y-107925512D01*
X125641987Y-107925514D01*
X125596792Y-107980585D01*
X125551978Y-108064424D01*
X125524384Y-108155394D01*
X125515065Y-108250000D01*
X125517401Y-108273715D01*
X125517400Y-108890740D01*
X125506158Y-108898252D01*
X125461368Y-108943042D01*
X125436516Y-108883042D01*
X125351734Y-108756158D01*
X125243828Y-108648252D01*
X125232586Y-108640740D01*
X125232586Y-107449927D01*
X125410437Y-107272076D01*
X125423699Y-107274714D01*
X125576301Y-107274714D01*
X125725972Y-107244942D01*
X125866958Y-107186544D01*
X125993842Y-107101762D01*
X126101748Y-106993856D01*
X126186530Y-106866972D01*
X126244928Y-106725986D01*
X126274700Y-106576315D01*
X126274700Y-106423713D01*
X126244928Y-106274042D01*
X126186530Y-106133056D01*
X126101748Y-106006172D01*
X125993842Y-105898266D01*
X125866958Y-105813484D01*
X125725972Y-105755086D01*
X125612929Y-105732600D01*
X125995661Y-105732600D01*
X126003173Y-105743842D01*
X126111079Y-105851748D01*
X126237963Y-105936530D01*
X126378949Y-105994928D01*
X126528620Y-106024700D01*
X126681222Y-106024700D01*
X126830893Y-105994928D01*
X126971879Y-105936530D01*
X127098763Y-105851748D01*
X127206669Y-105743842D01*
X127291451Y-105616958D01*
X127349849Y-105475972D01*
X127379621Y-105326301D01*
X127379621Y-105173699D01*
X127349849Y-105024028D01*
X127291451Y-104883042D01*
X127206669Y-104756158D01*
X127098763Y-104648252D01*
X126971879Y-104563470D01*
X126830893Y-104505072D01*
X126681222Y-104475300D01*
X126528620Y-104475300D01*
X126378949Y-104505072D01*
X126237963Y-104563470D01*
X126111079Y-104648252D01*
X126003173Y-104756158D01*
X125995661Y-104767400D01*
X125216932Y-104767400D01*
X125193225Y-104765065D01*
X125098618Y-104774383D01*
X125007648Y-104801978D01*
X124923810Y-104846791D01*
X124923808Y-104846792D01*
X124923809Y-104846792D01*
X124875321Y-104886585D01*
X124850324Y-104907099D01*
X124835213Y-104925512D01*
X123175513Y-106585213D01*
X123157100Y-106600324D01*
X123141989Y-106618737D01*
X123141987Y-106618739D01*
X123096792Y-106673810D01*
X123051978Y-106757649D01*
X123024384Y-106848619D01*
X123015065Y-106943225D01*
X123017401Y-106966940D01*
X123017400Y-108390740D01*
X123006158Y-108398252D01*
X122898252Y-108506158D01*
X122813470Y-108633042D01*
X122755072Y-108774028D01*
X122725300Y-108923699D01*
X122725300Y-109076301D01*
X122755072Y-109225972D01*
X122813470Y-109366958D01*
X122898252Y-109493842D01*
X123006158Y-109601748D01*
X123133042Y-109686530D01*
X123274028Y-109744928D01*
X123316619Y-109753400D01*
X121848990Y-109753400D01*
X121743842Y-109648252D01*
X121616958Y-109563470D01*
X121475972Y-109505072D01*
X121326301Y-109475300D01*
X121173699Y-109475300D01*
X121024028Y-109505072D01*
X120883042Y-109563470D01*
X120756158Y-109648252D01*
X120648252Y-109756158D01*
X120563470Y-109883042D01*
X120505072Y-110024028D01*
X120475300Y-110173699D01*
X120475300Y-110326301D01*
X120505072Y-110475972D01*
X120563470Y-110616958D01*
X120648252Y-110743842D01*
X120756158Y-110851748D01*
X120883042Y-110936530D01*
X120924861Y-110953852D01*
X120018352Y-110953852D01*
X119862600Y-110798101D01*
X119862600Y-105069899D01*
X120660438Y-104272062D01*
X120673699Y-104274700D01*
X120826301Y-104274700D01*
X120975972Y-104244928D01*
X121116958Y-104186530D01*
X121243842Y-104101748D01*
X121351748Y-103993842D01*
X121436530Y-103866958D01*
X121494928Y-103725972D01*
X121524700Y-103576301D01*
X121524700Y-103423699D01*
X121494928Y-103274028D01*
X121436530Y-103133042D01*
X121351748Y-103006158D01*
X121243842Y-102898252D01*
X121116958Y-102813470D01*
X120975972Y-102755072D01*
X120826301Y-102725300D01*
X120673699Y-102725300D01*
X120524028Y-102755072D01*
X120383042Y-102813470D01*
X120256158Y-102898252D01*
X120148252Y-103006158D01*
X120063470Y-103133042D01*
X120005072Y-103274028D01*
X119975300Y-103423699D01*
X119975300Y-103576301D01*
X119977938Y-103589562D01*
X119354600Y-104212901D01*
X119354600Y-100558600D01*
X119544157Y-100558600D01*
X119544157Y-100926000D01*
X119551513Y-101000689D01*
X119573299Y-101072508D01*
X119608678Y-101138696D01*
X119656289Y-101196711D01*
X119714304Y-101244322D01*
X119780492Y-101279701D01*
X119852311Y-101301487D01*
X119927000Y-101308843D01*
X121627000Y-101308843D01*
X121691400Y-101302500D01*
X121691400Y-103713010D01*
X121648252Y-103756158D01*
X121563470Y-103883042D01*
X121505072Y-104024028D01*
X121475300Y-104173699D01*
X121475300Y-104326301D01*
X121505072Y-104475972D01*
X121563470Y-104616958D01*
X121648252Y-104743842D01*
X121756158Y-104851748D01*
X121883042Y-104936530D01*
X122024028Y-104994928D01*
X122173699Y-105024700D01*
X122326301Y-105024700D01*
X122475972Y-104994928D01*
X122616958Y-104936530D01*
X122743842Y-104851748D01*
X122851748Y-104743842D01*
X122936530Y-104616958D01*
X122994928Y-104475972D01*
X123024700Y-104326301D01*
X123024700Y-104173699D01*
X122994928Y-104024028D01*
X122936530Y-103883042D01*
X122851748Y-103756158D01*
X122743842Y-103648252D01*
X122656600Y-103589958D01*
X122656600Y-102539699D01*
X122669300Y-102539699D01*
X122669300Y-102692301D01*
X122699072Y-102841972D01*
X122757470Y-102982958D01*
X122842252Y-103109842D01*
X122950158Y-103217748D01*
X123077042Y-103302530D01*
X123218028Y-103360928D01*
X123367699Y-103390700D01*
X123520301Y-103390700D01*
X123669972Y-103360928D01*
X123810958Y-103302530D01*
X123937842Y-103217748D01*
X124045748Y-103109842D01*
X124130530Y-102982958D01*
X124188928Y-102841972D01*
X124218700Y-102692301D01*
X124218700Y-102539699D01*
X124188928Y-102390028D01*
X124130530Y-102249042D01*
X124045748Y-102122158D01*
X123937842Y-102014252D01*
X123810958Y-101929470D01*
X123669972Y-101871072D01*
X123520301Y-101841300D01*
X123367699Y-101841300D01*
X123218028Y-101871072D01*
X123077042Y-101929470D01*
X122950158Y-102014252D01*
X122842252Y-102122158D01*
X122757470Y-102249042D01*
X122699072Y-102390028D01*
X122669300Y-102539699D01*
X122656600Y-102539699D01*
X122656600Y-92938600D01*
X125717300Y-92938600D01*
X125717300Y-93040301D01*
X125747072Y-93189972D01*
X125805470Y-93330958D01*
X125890252Y-93457842D01*
X125998158Y-93565748D01*
X126125042Y-93650530D01*
X126266028Y-93708928D01*
X126415699Y-93738700D01*
X126568301Y-93738700D01*
X126717972Y-93708928D01*
X126858958Y-93650530D01*
X126985842Y-93565748D01*
X127093748Y-93457842D01*
X127178530Y-93330958D01*
X127236928Y-93189972D01*
X127254000Y-93104147D01*
X127271072Y-93189972D01*
X127329470Y-93330958D01*
X127414252Y-93457842D01*
X127522158Y-93565748D01*
X127649042Y-93650530D01*
X127790028Y-93708928D01*
X127939699Y-93738700D01*
X128092301Y-93738700D01*
X128241972Y-93708928D01*
X128382958Y-93650530D01*
X128509842Y-93565748D01*
X128617748Y-93457842D01*
X128702530Y-93330958D01*
X128760928Y-93189972D01*
X128790700Y-93040301D01*
X128790700Y-92887699D01*
X128760928Y-92738028D01*
X128702530Y-92597042D01*
X128617748Y-92470158D01*
X128509842Y-92362252D01*
X128498600Y-92354740D01*
X128498600Y-92225704D01*
X128500935Y-92201999D01*
X128497530Y-92167432D01*
X128491617Y-92107394D01*
X128464022Y-92016423D01*
X128419209Y-91932585D01*
X128358901Y-91859099D01*
X128340482Y-91843983D01*
X126088017Y-89591518D01*
X126072901Y-89573099D01*
X125999415Y-89512791D01*
X125915577Y-89467978D01*
X125824606Y-89440383D01*
X125753707Y-89433400D01*
X125753705Y-89433400D01*
X125730000Y-89431065D01*
X125706295Y-89433400D01*
X122656600Y-89433400D01*
X122656600Y-80910801D01*
X134377264Y-80910801D01*
X134379600Y-80934516D01*
X134379599Y-91277494D01*
X134377264Y-91301199D01*
X134379599Y-91324904D01*
X134379599Y-91324905D01*
X134386582Y-91395804D01*
X134414177Y-91486775D01*
X134458990Y-91570614D01*
X134519298Y-91644100D01*
X134537717Y-91659216D01*
X134874934Y-91996433D01*
X134833307Y-92096931D01*
X134786000Y-92334757D01*
X134786000Y-92577243D01*
X134833307Y-92815069D01*
X134874934Y-92915567D01*
X134537712Y-93252789D01*
X134519299Y-93267900D01*
X134504188Y-93286313D01*
X134504186Y-93286315D01*
X134458991Y-93341386D01*
X134414177Y-93425225D01*
X134386583Y-93516195D01*
X134377264Y-93610801D01*
X134379600Y-93634516D01*
X134379599Y-103977494D01*
X134377264Y-104001199D01*
X134379599Y-104024904D01*
X134379599Y-104024905D01*
X134386582Y-104095804D01*
X134414177Y-104186775D01*
X134458990Y-104270614D01*
X134519298Y-104344100D01*
X134537717Y-104359216D01*
X135334501Y-105156000D01*
X134537717Y-105952784D01*
X134519298Y-105967900D01*
X134458990Y-106041386D01*
X134414177Y-106125225D01*
X134386582Y-106216196D01*
X134384119Y-106241206D01*
X134377264Y-106310801D01*
X134379599Y-106334506D01*
X134379600Y-116677484D01*
X134377264Y-116701199D01*
X134386583Y-116795805D01*
X134414177Y-116886775D01*
X134414178Y-116886776D01*
X134458991Y-116970614D01*
X134519299Y-117044100D01*
X134537712Y-117059211D01*
X134874934Y-117396433D01*
X134833307Y-117496931D01*
X134786000Y-117734757D01*
X134786000Y-117977243D01*
X134833307Y-118215069D01*
X134926102Y-118439097D01*
X135060820Y-118640717D01*
X135232283Y-118812180D01*
X135433903Y-118946898D01*
X135657931Y-119039693D01*
X135895757Y-119087000D01*
X136138243Y-119087000D01*
X136376069Y-119039693D01*
X136600097Y-118946898D01*
X136801717Y-118812180D01*
X136973180Y-118640717D01*
X137107898Y-118439097D01*
X137200693Y-118215069D01*
X137248000Y-117977243D01*
X137248000Y-117734757D01*
X137200693Y-117496931D01*
X137107898Y-117272903D01*
X136973180Y-117071283D01*
X136801717Y-116899820D01*
X136600097Y-116765102D01*
X136376069Y-116672307D01*
X136138243Y-116625000D01*
X135895757Y-116625000D01*
X135657931Y-116672307D01*
X135557433Y-116713934D01*
X135344799Y-116501300D01*
X135344799Y-116347361D01*
X135433903Y-116406898D01*
X135657931Y-116499693D01*
X135895757Y-116547000D01*
X136138243Y-116547000D01*
X136376069Y-116499693D01*
X136600097Y-116406898D01*
X136801717Y-116272180D01*
X136973180Y-116100717D01*
X137107898Y-115899097D01*
X137200693Y-115675069D01*
X137248000Y-115437243D01*
X137248000Y-115194757D01*
X137200693Y-114956931D01*
X137159066Y-114856433D01*
X138144893Y-113870606D01*
X138163312Y-113855490D01*
X138223620Y-113782004D01*
X138268433Y-113698166D01*
X138296028Y-113607195D01*
X138303011Y-113536296D01*
X138303011Y-113536295D01*
X138305346Y-113512590D01*
X138303011Y-113488885D01*
X138303011Y-104443115D01*
X138305346Y-104419410D01*
X138301963Y-104385065D01*
X138296028Y-104324805D01*
X138268433Y-104233834D01*
X138223620Y-104149996D01*
X138163312Y-104076510D01*
X138144893Y-104061394D01*
X136699499Y-102616000D01*
X138144893Y-101170606D01*
X138163312Y-101155490D01*
X138223620Y-101082004D01*
X138268433Y-100998166D01*
X138296028Y-100907195D01*
X138303011Y-100836296D01*
X138303011Y-100836295D01*
X138305346Y-100812590D01*
X138303011Y-100788885D01*
X138303011Y-91743115D01*
X138305346Y-91719410D01*
X138303011Y-91695704D01*
X138296028Y-91624805D01*
X138268433Y-91533834D01*
X138223620Y-91449996D01*
X138163312Y-91376510D01*
X138144893Y-91361394D01*
X137159066Y-90375567D01*
X137200693Y-90275069D01*
X137248000Y-90037243D01*
X137248000Y-89794757D01*
X137200693Y-89556931D01*
X137159066Y-89456433D01*
X138144893Y-88470606D01*
X138163312Y-88455490D01*
X138223620Y-88382004D01*
X138268433Y-88298166D01*
X138296028Y-88207195D01*
X138303011Y-88136296D01*
X138303011Y-88136295D01*
X138305346Y-88112590D01*
X138303011Y-88088885D01*
X138303011Y-79043115D01*
X138305346Y-79019410D01*
X138303011Y-78995704D01*
X138296028Y-78924805D01*
X138268433Y-78833834D01*
X138223620Y-78749996D01*
X138163312Y-78676510D01*
X138144893Y-78661394D01*
X137159066Y-77675567D01*
X137200693Y-77575069D01*
X137248000Y-77337243D01*
X137248000Y-77094757D01*
X137200693Y-76856931D01*
X137107898Y-76632903D01*
X136973180Y-76431283D01*
X136801717Y-76259820D01*
X136600097Y-76125102D01*
X136376069Y-76032307D01*
X136138243Y-75985000D01*
X135895757Y-75985000D01*
X135657931Y-76032307D01*
X135433903Y-76125102D01*
X135232283Y-76259820D01*
X135060820Y-76431283D01*
X134926102Y-76632903D01*
X134833307Y-76856931D01*
X134786000Y-77094757D01*
X134786000Y-77337243D01*
X134833307Y-77575069D01*
X134926102Y-77799097D01*
X135060820Y-78000717D01*
X135232283Y-78172180D01*
X135433903Y-78306898D01*
X135657931Y-78399693D01*
X135895757Y-78447000D01*
X136138243Y-78447000D01*
X136376069Y-78399693D01*
X136476567Y-78358066D01*
X137337811Y-79219310D01*
X137337812Y-86437882D01*
X137337811Y-87912690D01*
X136476567Y-88773934D01*
X136376069Y-88732307D01*
X136138243Y-88685000D01*
X135895757Y-88685000D01*
X135657931Y-88732307D01*
X135433903Y-88825102D01*
X135344799Y-88884639D01*
X135344799Y-88407361D01*
X135433903Y-88466898D01*
X135657931Y-88559693D01*
X135895757Y-88607000D01*
X136138243Y-88607000D01*
X136376069Y-88559693D01*
X136600097Y-88466898D01*
X136801717Y-88332180D01*
X136973180Y-88160717D01*
X137107898Y-87959097D01*
X137200693Y-87735069D01*
X137248000Y-87497243D01*
X137248000Y-87254757D01*
X137200693Y-87016931D01*
X137107898Y-86792903D01*
X136973180Y-86591283D01*
X136801717Y-86419820D01*
X136600097Y-86285102D01*
X136376069Y-86192307D01*
X136138243Y-86145000D01*
X135895757Y-86145000D01*
X135657931Y-86192307D01*
X135433903Y-86285102D01*
X135344799Y-86344639D01*
X135344799Y-85867361D01*
X135433903Y-85926898D01*
X135657931Y-86019693D01*
X135895757Y-86067000D01*
X136138243Y-86067000D01*
X136376069Y-86019693D01*
X136600097Y-85926898D01*
X136801717Y-85792180D01*
X136973180Y-85620717D01*
X137107898Y-85419097D01*
X137200693Y-85195069D01*
X137248000Y-84957243D01*
X137248000Y-84714757D01*
X137200693Y-84476931D01*
X137107898Y-84252903D01*
X136973180Y-84051283D01*
X136801717Y-83879820D01*
X136600097Y-83745102D01*
X136376069Y-83652307D01*
X136138243Y-83605000D01*
X135895757Y-83605000D01*
X135657931Y-83652307D01*
X135433903Y-83745102D01*
X135344799Y-83804639D01*
X135344799Y-83327361D01*
X135433903Y-83386898D01*
X135657931Y-83479693D01*
X135895757Y-83527000D01*
X136138243Y-83527000D01*
X136376069Y-83479693D01*
X136600097Y-83386898D01*
X136801717Y-83252180D01*
X136973180Y-83080717D01*
X137107898Y-82879097D01*
X137200693Y-82655069D01*
X137248000Y-82417243D01*
X137248000Y-82174757D01*
X137200693Y-81936931D01*
X137107898Y-81712903D01*
X136973180Y-81511283D01*
X136801717Y-81339820D01*
X136600097Y-81205102D01*
X136376069Y-81112307D01*
X136138243Y-81065000D01*
X135895757Y-81065000D01*
X135657931Y-81112307D01*
X135433903Y-81205102D01*
X135344799Y-81264639D01*
X135344799Y-81110700D01*
X135557433Y-80898066D01*
X135657931Y-80939693D01*
X135895757Y-80987000D01*
X136138243Y-80987000D01*
X136376069Y-80939693D01*
X136600097Y-80846898D01*
X136801717Y-80712180D01*
X136973180Y-80540717D01*
X137107898Y-80339097D01*
X137200693Y-80115069D01*
X137248000Y-79877243D01*
X137248000Y-79634757D01*
X137200693Y-79396931D01*
X137107898Y-79172903D01*
X136973180Y-78971283D01*
X136801717Y-78799820D01*
X136600097Y-78665102D01*
X136376069Y-78572307D01*
X136138243Y-78525000D01*
X135895757Y-78525000D01*
X135657931Y-78572307D01*
X135433903Y-78665102D01*
X135232283Y-78799820D01*
X135060820Y-78971283D01*
X134926102Y-79172903D01*
X134833307Y-79396931D01*
X134786000Y-79634757D01*
X134786000Y-79877243D01*
X134833307Y-80115069D01*
X134874934Y-80215567D01*
X134537712Y-80552789D01*
X134519299Y-80567900D01*
X134504188Y-80586313D01*
X134504186Y-80586315D01*
X134458991Y-80641386D01*
X134414177Y-80725225D01*
X134386583Y-80816195D01*
X134377264Y-80910801D01*
X122656600Y-80910801D01*
X122656600Y-78636696D01*
X122658934Y-78612999D01*
X122656600Y-78589302D01*
X122656600Y-78589293D01*
X122649617Y-78518394D01*
X122622022Y-78427423D01*
X122577209Y-78343585D01*
X122516901Y-78270099D01*
X122498482Y-78254983D01*
X121919066Y-77675567D01*
X121960693Y-77575069D01*
X122008000Y-77337243D01*
X122008000Y-77094757D01*
X121960693Y-76856931D01*
X121867898Y-76632903D01*
X121733180Y-76431283D01*
X121561717Y-76259820D01*
X121360097Y-76125102D01*
X121136069Y-76032307D01*
X120898243Y-75985000D01*
X120655757Y-75985000D01*
X120417931Y-76032307D01*
X120193903Y-76125102D01*
X119992283Y-76259820D01*
X119820820Y-76431283D01*
X119686102Y-76632903D01*
X119593307Y-76856931D01*
X119546000Y-77094757D01*
X119546000Y-77337243D01*
X119593307Y-77575069D01*
X119686102Y-77799097D01*
X119820820Y-78000717D01*
X119992283Y-78172180D01*
X120193903Y-78306898D01*
X120417931Y-78399693D01*
X120655757Y-78447000D01*
X120898243Y-78447000D01*
X121136069Y-78399693D01*
X121236567Y-78358066D01*
X121691401Y-78812900D01*
X121691401Y-78929504D01*
X121561717Y-78799820D01*
X121360097Y-78665102D01*
X121136069Y-78572307D01*
X120898243Y-78525000D01*
X120655757Y-78525000D01*
X120417931Y-78572307D01*
X120193903Y-78665102D01*
X119992283Y-78799820D01*
X119820820Y-78971283D01*
X119686102Y-79172903D01*
X119593307Y-79396931D01*
X119546000Y-79634757D01*
X119546000Y-79877243D01*
X119593307Y-80115069D01*
X119686102Y-80339097D01*
X119820820Y-80540717D01*
X119992283Y-80712180D01*
X120193903Y-80846898D01*
X120417931Y-80939693D01*
X120655757Y-80987000D01*
X120898243Y-80987000D01*
X121136069Y-80939693D01*
X121360097Y-80846898D01*
X121561717Y-80712180D01*
X121691401Y-80582496D01*
X121691401Y-81469504D01*
X121561717Y-81339820D01*
X121360097Y-81205102D01*
X121136069Y-81112307D01*
X120898243Y-81065000D01*
X120655757Y-81065000D01*
X120417931Y-81112307D01*
X120193903Y-81205102D01*
X119992283Y-81339820D01*
X119820820Y-81511283D01*
X119686102Y-81712903D01*
X119593307Y-81936931D01*
X119546000Y-82174757D01*
X119546000Y-82417243D01*
X119593307Y-82655069D01*
X119686102Y-82879097D01*
X119820820Y-83080717D01*
X119992283Y-83252180D01*
X120193903Y-83386898D01*
X120417931Y-83479693D01*
X120655757Y-83527000D01*
X120898243Y-83527000D01*
X121136069Y-83479693D01*
X121360097Y-83386898D01*
X121561717Y-83252180D01*
X121691401Y-83122496D01*
X121691401Y-84009504D01*
X121561717Y-83879820D01*
X121360097Y-83745102D01*
X121136069Y-83652307D01*
X120898243Y-83605000D01*
X120655757Y-83605000D01*
X120417931Y-83652307D01*
X120193903Y-83745102D01*
X119992283Y-83879820D01*
X119820820Y-84051283D01*
X119686102Y-84252903D01*
X119593307Y-84476931D01*
X119546000Y-84714757D01*
X119546000Y-84957243D01*
X119593307Y-85195069D01*
X119686102Y-85419097D01*
X119820820Y-85620717D01*
X119992283Y-85792180D01*
X120193903Y-85926898D01*
X120417931Y-86019693D01*
X120655757Y-86067000D01*
X120898243Y-86067000D01*
X121136069Y-86019693D01*
X121360097Y-85926898D01*
X121561717Y-85792180D01*
X121691400Y-85662497D01*
X121691400Y-86149500D01*
X121627000Y-86143157D01*
X119927000Y-86143157D01*
X119852311Y-86150513D01*
X119780492Y-86172299D01*
X119714304Y-86207678D01*
X119656289Y-86255289D01*
X119608678Y-86313304D01*
X119573299Y-86379492D01*
X119551513Y-86451311D01*
X119544157Y-86526000D01*
X119544157Y-87799343D01*
X118547513Y-88795988D01*
X118529100Y-88811099D01*
X118513989Y-88829512D01*
X118513987Y-88829514D01*
X118468792Y-88884585D01*
X118423978Y-88968424D01*
X118396384Y-89059394D01*
X118387065Y-89154000D01*
X118389401Y-89177715D01*
X118389400Y-100052293D01*
X118387065Y-100076000D01*
X118389401Y-100099717D01*
X118389400Y-112752293D01*
X118387065Y-112776000D01*
X118389401Y-112799717D01*
X118389400Y-123547295D01*
X118387065Y-123571000D01*
X118389400Y-123594705D01*
X118389400Y-123594706D01*
X118396383Y-123665605D01*
X118423978Y-123756576D01*
X118468791Y-123840415D01*
X118529099Y-123913901D01*
X118547518Y-123929017D01*
X119544157Y-124925657D01*
X119544157Y-126326000D01*
X119551513Y-126400689D01*
X119573299Y-126472508D01*
X119608678Y-126538696D01*
X119654064Y-126594000D01*
X117373000Y-126594000D01*
X117373000Y-75082000D01*
X139167000Y-75082000D01*
X139167001Y-126594000D01*
%TA.AperFunction,Conductor*%
D22*
G36*
X139167001Y-126594000D02*
G01*
X136534667Y-126594000D01*
X136600097Y-126566898D01*
X136801717Y-126432180D01*
X136973180Y-126260717D01*
X137107898Y-126059097D01*
X137200693Y-125835069D01*
X137248000Y-125597243D01*
X137248000Y-125354757D01*
X137200693Y-125116931D01*
X137107898Y-124892903D01*
X136973180Y-124691283D01*
X136801717Y-124519820D01*
X136600097Y-124385102D01*
X136376069Y-124292307D01*
X136138243Y-124245000D01*
X135895757Y-124245000D01*
X135657931Y-124292307D01*
X135433903Y-124385102D01*
X135232283Y-124519820D01*
X135060820Y-124691283D01*
X134926102Y-124892903D01*
X134833307Y-125116931D01*
X134786000Y-125354757D01*
X134786000Y-125597243D01*
X134833307Y-125835069D01*
X134926102Y-126059097D01*
X135060820Y-126260717D01*
X135232283Y-126432180D01*
X135433903Y-126566898D01*
X135499333Y-126594000D01*
X121899936Y-126594000D01*
X121945322Y-126538696D01*
X121980701Y-126472508D01*
X122002487Y-126400689D01*
X122009843Y-126326000D01*
X122009843Y-124626000D01*
X122002487Y-124551311D01*
X121980701Y-124479492D01*
X121945322Y-124413304D01*
X121911426Y-124372000D01*
X124370157Y-124372000D01*
X124370157Y-126072000D01*
X124377513Y-126146689D01*
X124399299Y-126218508D01*
X124434678Y-126284696D01*
X124482289Y-126342711D01*
X124540304Y-126390322D01*
X124606492Y-126425701D01*
X124678311Y-126447487D01*
X124753000Y-126454843D01*
X126453000Y-126454843D01*
X126527689Y-126447487D01*
X126599508Y-126425701D01*
X126665696Y-126390322D01*
X126723711Y-126342711D01*
X126771322Y-126284696D01*
X126806701Y-126218508D01*
X126828487Y-126146689D01*
X126835843Y-126072000D01*
X126835843Y-125100757D01*
X126912000Y-125100757D01*
X126912000Y-125343243D01*
X126959307Y-125581069D01*
X127052102Y-125805097D01*
X127186820Y-126006717D01*
X127358283Y-126178180D01*
X127559903Y-126312898D01*
X127783931Y-126405693D01*
X128021757Y-126453000D01*
X128264243Y-126453000D01*
X128502069Y-126405693D01*
X128726097Y-126312898D01*
X128927717Y-126178180D01*
X129099180Y-126006717D01*
X129233898Y-125805097D01*
X129326693Y-125581069D01*
X129374000Y-125343243D01*
X129374000Y-125100757D01*
X129326693Y-124862931D01*
X129233898Y-124638903D01*
X129099180Y-124437283D01*
X128927717Y-124265820D01*
X128726097Y-124131102D01*
X128502069Y-124038307D01*
X128264243Y-123991000D01*
X128021757Y-123991000D01*
X127783931Y-124038307D01*
X127559903Y-124131102D01*
X127358283Y-124265820D01*
X127186820Y-124437283D01*
X127052102Y-124638903D01*
X126959307Y-124862931D01*
X126912000Y-125100757D01*
X126835843Y-125100757D01*
X126835843Y-124372000D01*
X126828487Y-124297311D01*
X126806701Y-124225492D01*
X126771322Y-124159304D01*
X126723711Y-124101289D01*
X126665696Y-124053678D01*
X126599508Y-124018299D01*
X126527689Y-123996513D01*
X126453000Y-123989157D01*
X124753000Y-123989157D01*
X124678311Y-123996513D01*
X124606492Y-124018299D01*
X124540304Y-124053678D01*
X124482289Y-124101289D01*
X124434678Y-124159304D01*
X124399299Y-124225492D01*
X124377513Y-124297311D01*
X124370157Y-124372000D01*
X121911426Y-124372000D01*
X121897711Y-124355289D01*
X121839696Y-124307678D01*
X121773508Y-124272299D01*
X121701689Y-124250513D01*
X121627000Y-124243157D01*
X120226657Y-124243157D01*
X119354600Y-123371101D01*
X119354600Y-122814757D01*
X119546000Y-122814757D01*
X119546000Y-123057243D01*
X119593307Y-123295069D01*
X119686102Y-123519097D01*
X119820820Y-123720717D01*
X119992283Y-123892180D01*
X120193903Y-124026898D01*
X120417931Y-124119693D01*
X120655757Y-124167000D01*
X120898243Y-124167000D01*
X121136069Y-124119693D01*
X121360097Y-124026898D01*
X121561717Y-123892180D01*
X121733180Y-123720717D01*
X121867898Y-123519097D01*
X121960693Y-123295069D01*
X122008000Y-123057243D01*
X122008000Y-122814757D01*
X121969996Y-122623699D01*
X123225300Y-122623699D01*
X123225300Y-122776301D01*
X123255072Y-122925972D01*
X123313470Y-123066958D01*
X123398252Y-123193842D01*
X123506158Y-123301748D01*
X123633042Y-123386530D01*
X123774028Y-123444928D01*
X123923699Y-123474700D01*
X124076301Y-123474700D01*
X124225972Y-123444928D01*
X124366958Y-123386530D01*
X124493842Y-123301748D01*
X124519468Y-123276122D01*
X124646820Y-123466717D01*
X124818283Y-123638180D01*
X125019903Y-123772898D01*
X125243931Y-123865693D01*
X125481757Y-123913000D01*
X125724243Y-123913000D01*
X125962069Y-123865693D01*
X126186097Y-123772898D01*
X126387717Y-123638180D01*
X126559180Y-123466717D01*
X126693898Y-123265097D01*
X126786693Y-123041069D01*
X126834000Y-122803243D01*
X126834000Y-122560757D01*
X126912000Y-122560757D01*
X126912000Y-122803243D01*
X126959307Y-123041069D01*
X127052102Y-123265097D01*
X127186820Y-123466717D01*
X127358283Y-123638180D01*
X127559903Y-123772898D01*
X127783931Y-123865693D01*
X128021757Y-123913000D01*
X128264243Y-123913000D01*
X128502069Y-123865693D01*
X128726097Y-123772898D01*
X128927717Y-123638180D01*
X129099180Y-123466717D01*
X129233898Y-123265097D01*
X129281228Y-123150832D01*
X129338843Y-123313252D01*
X129487822Y-123563355D01*
X129682731Y-123779588D01*
X129916080Y-123953641D01*
X130178901Y-124078825D01*
X130206154Y-124087091D01*
X130099903Y-124131102D01*
X129898283Y-124265820D01*
X129726820Y-124437283D01*
X129592102Y-124638903D01*
X129499307Y-124862931D01*
X129452000Y-125100757D01*
X129452000Y-125343243D01*
X129499307Y-125581069D01*
X129592102Y-125805097D01*
X129726820Y-126006717D01*
X129898283Y-126178180D01*
X130099903Y-126312898D01*
X130323931Y-126405693D01*
X130561757Y-126453000D01*
X130804243Y-126453000D01*
X131042069Y-126405693D01*
X131266097Y-126312898D01*
X131467717Y-126178180D01*
X131639180Y-126006717D01*
X131773898Y-125805097D01*
X131866693Y-125581069D01*
X131914000Y-125343243D01*
X131914000Y-125100757D01*
X131866693Y-124862931D01*
X131773898Y-124638903D01*
X131639180Y-124437283D01*
X131467717Y-124265820D01*
X131266097Y-124131102D01*
X131159846Y-124087091D01*
X131187099Y-124078825D01*
X131449920Y-123953641D01*
X131683269Y-123779588D01*
X131878178Y-123563355D01*
X132027157Y-123313252D01*
X132124481Y-123038891D01*
X132006836Y-122814757D01*
X134786000Y-122814757D01*
X134786000Y-123057243D01*
X134833307Y-123295069D01*
X134926102Y-123519097D01*
X135060820Y-123720717D01*
X135232283Y-123892180D01*
X135433903Y-124026898D01*
X135657931Y-124119693D01*
X135895757Y-124167000D01*
X136138243Y-124167000D01*
X136376069Y-124119693D01*
X136600097Y-124026898D01*
X136801717Y-123892180D01*
X136973180Y-123720717D01*
X137107898Y-123519097D01*
X137200693Y-123295069D01*
X137248000Y-123057243D01*
X137248000Y-122814757D01*
X137200693Y-122576931D01*
X137107898Y-122352903D01*
X136973180Y-122151283D01*
X136801717Y-121979820D01*
X136600097Y-121845102D01*
X136376069Y-121752307D01*
X136138243Y-121705000D01*
X135895757Y-121705000D01*
X135657931Y-121752307D01*
X135433903Y-121845102D01*
X135232283Y-121979820D01*
X135060820Y-122151283D01*
X134926102Y-122352903D01*
X134833307Y-122576931D01*
X134786000Y-122814757D01*
X132006836Y-122814757D01*
X132003814Y-122809000D01*
X130810000Y-122809000D01*
X130810000Y-122829000D01*
X130556000Y-122829000D01*
X130556000Y-122809000D01*
X130536000Y-122809000D01*
X130536000Y-122555000D01*
X130556000Y-122555000D01*
X130556000Y-121361845D01*
X130810000Y-121361845D01*
X130810000Y-122555000D01*
X132003814Y-122555000D01*
X132124481Y-122325109D01*
X132027157Y-122050748D01*
X131878178Y-121800645D01*
X131683269Y-121584412D01*
X131449920Y-121410359D01*
X131187099Y-121285175D01*
X131039890Y-121240524D01*
X130810000Y-121361845D01*
X130556000Y-121361845D01*
X130326110Y-121240524D01*
X130178901Y-121285175D01*
X129916080Y-121410359D01*
X129682731Y-121584412D01*
X129487822Y-121800645D01*
X129338843Y-122050748D01*
X129281228Y-122213168D01*
X129233898Y-122098903D01*
X129099180Y-121897283D01*
X128927717Y-121725820D01*
X128726097Y-121591102D01*
X128502069Y-121498307D01*
X128264243Y-121451000D01*
X128021757Y-121451000D01*
X127783931Y-121498307D01*
X127559903Y-121591102D01*
X127358283Y-121725820D01*
X127186820Y-121897283D01*
X127052102Y-122098903D01*
X126959307Y-122322931D01*
X126912000Y-122560757D01*
X126834000Y-122560757D01*
X126786693Y-122322931D01*
X126693898Y-122098903D01*
X126559180Y-121897283D01*
X126387717Y-121725820D01*
X126186097Y-121591102D01*
X125962069Y-121498307D01*
X125724243Y-121451000D01*
X125493140Y-121451000D01*
X125544928Y-121325972D01*
X125574700Y-121176301D01*
X125574700Y-121023699D01*
X125544928Y-120874028D01*
X125486530Y-120733042D01*
X125401748Y-120606158D01*
X125293842Y-120498252D01*
X125166958Y-120413470D01*
X125025972Y-120355072D01*
X124876301Y-120325300D01*
X124723699Y-120325300D01*
X124574028Y-120355072D01*
X124433042Y-120413470D01*
X124306158Y-120498252D01*
X124198252Y-120606158D01*
X124113470Y-120733042D01*
X124055072Y-120874028D01*
X124025300Y-121023699D01*
X124025300Y-121176301D01*
X124055072Y-121325972D01*
X124113470Y-121466958D01*
X124198252Y-121593842D01*
X124306158Y-121701748D01*
X124433042Y-121786530D01*
X124574028Y-121844928D01*
X124678411Y-121865692D01*
X124646820Y-121897283D01*
X124512102Y-122098903D01*
X124506944Y-122111354D01*
X124493842Y-122098252D01*
X124366958Y-122013470D01*
X124225972Y-121955072D01*
X124076301Y-121925300D01*
X123923699Y-121925300D01*
X123774028Y-121955072D01*
X123633042Y-122013470D01*
X123506158Y-122098252D01*
X123398252Y-122206158D01*
X123313470Y-122333042D01*
X123255072Y-122474028D01*
X123225300Y-122623699D01*
X121969996Y-122623699D01*
X121960693Y-122576931D01*
X121867898Y-122352903D01*
X121733180Y-122151283D01*
X121561717Y-121979820D01*
X121360097Y-121845102D01*
X121136069Y-121752307D01*
X120898243Y-121705000D01*
X120655757Y-121705000D01*
X120417931Y-121752307D01*
X120193903Y-121845102D01*
X119992283Y-121979820D01*
X119820820Y-122151283D01*
X119686102Y-122352903D01*
X119593307Y-122576931D01*
X119546000Y-122814757D01*
X119354600Y-122814757D01*
X119354600Y-120274757D01*
X119546000Y-120274757D01*
X119546000Y-120517243D01*
X119593307Y-120755069D01*
X119686102Y-120979097D01*
X119820820Y-121180717D01*
X119992283Y-121352180D01*
X120193903Y-121486898D01*
X120417931Y-121579693D01*
X120655757Y-121627000D01*
X120898243Y-121627000D01*
X121136069Y-121579693D01*
X121360097Y-121486898D01*
X121561717Y-121352180D01*
X121733180Y-121180717D01*
X121867898Y-120979097D01*
X121960693Y-120755069D01*
X122008000Y-120517243D01*
X122008000Y-120274757D01*
X134786000Y-120274757D01*
X134786000Y-120517243D01*
X134833307Y-120755069D01*
X134926102Y-120979097D01*
X135060820Y-121180717D01*
X135232283Y-121352180D01*
X135433903Y-121486898D01*
X135657931Y-121579693D01*
X135895757Y-121627000D01*
X136138243Y-121627000D01*
X136376069Y-121579693D01*
X136600097Y-121486898D01*
X136801717Y-121352180D01*
X136973180Y-121180717D01*
X137107898Y-120979097D01*
X137200693Y-120755069D01*
X137248000Y-120517243D01*
X137248000Y-120274757D01*
X137200693Y-120036931D01*
X137107898Y-119812903D01*
X136973180Y-119611283D01*
X136801717Y-119439820D01*
X136600097Y-119305102D01*
X136376069Y-119212307D01*
X136138243Y-119165000D01*
X135895757Y-119165000D01*
X135657931Y-119212307D01*
X135433903Y-119305102D01*
X135232283Y-119439820D01*
X135060820Y-119611283D01*
X134926102Y-119812903D01*
X134833307Y-120036931D01*
X134786000Y-120274757D01*
X122008000Y-120274757D01*
X121960693Y-120036931D01*
X121867898Y-119812903D01*
X121733180Y-119611283D01*
X121561717Y-119439820D01*
X121360097Y-119305102D01*
X121136069Y-119212307D01*
X120898243Y-119165000D01*
X120655757Y-119165000D01*
X120417931Y-119212307D01*
X120193903Y-119305102D01*
X119992283Y-119439820D01*
X119820820Y-119611283D01*
X119686102Y-119812903D01*
X119593307Y-120036931D01*
X119546000Y-120274757D01*
X119354600Y-120274757D01*
X119354600Y-117734757D01*
X119546000Y-117734757D01*
X119546000Y-117977243D01*
X119593307Y-118215069D01*
X119686102Y-118439097D01*
X119820820Y-118640717D01*
X119992283Y-118812180D01*
X120193903Y-118946898D01*
X120417931Y-119039693D01*
X120655757Y-119087000D01*
X120898243Y-119087000D01*
X121136069Y-119039693D01*
X121360097Y-118946898D01*
X121561717Y-118812180D01*
X121733180Y-118640717D01*
X121867898Y-118439097D01*
X121960693Y-118215069D01*
X122008000Y-117977243D01*
X122008000Y-117734757D01*
X121960693Y-117496931D01*
X121867898Y-117272903D01*
X121733180Y-117071283D01*
X121561717Y-116899820D01*
X121360097Y-116765102D01*
X121136069Y-116672307D01*
X120898243Y-116625000D01*
X120655757Y-116625000D01*
X120417931Y-116672307D01*
X120193903Y-116765102D01*
X119992283Y-116899820D01*
X119820820Y-117071283D01*
X119686102Y-117272903D01*
X119593307Y-117496931D01*
X119546000Y-117734757D01*
X119354600Y-117734757D01*
X119354600Y-115194757D01*
X119546000Y-115194757D01*
X119546000Y-115437243D01*
X119593307Y-115675069D01*
X119686102Y-115899097D01*
X119820820Y-116100717D01*
X119992283Y-116272180D01*
X120193903Y-116406898D01*
X120417931Y-116499693D01*
X120655757Y-116547000D01*
X120898243Y-116547000D01*
X121136069Y-116499693D01*
X121360097Y-116406898D01*
X121561717Y-116272180D01*
X121733180Y-116100717D01*
X121867898Y-115899097D01*
X121960693Y-115675069D01*
X122008000Y-115437243D01*
X122008000Y-115194757D01*
X121960693Y-114956931D01*
X121867898Y-114732903D01*
X121733180Y-114531283D01*
X121561717Y-114359820D01*
X121360097Y-114225102D01*
X121136069Y-114132307D01*
X120898243Y-114085000D01*
X120655757Y-114085000D01*
X120417931Y-114132307D01*
X120193903Y-114225102D01*
X119992283Y-114359820D01*
X119820820Y-114531283D01*
X119686102Y-114732903D01*
X119593307Y-114956931D01*
X119546000Y-115194757D01*
X119354600Y-115194757D01*
X119354600Y-113258600D01*
X119544157Y-113258600D01*
X119544157Y-113626000D01*
X119551513Y-113700689D01*
X119573299Y-113772508D01*
X119608678Y-113838696D01*
X119656289Y-113896711D01*
X119714304Y-113944322D01*
X119780492Y-113979701D01*
X119852311Y-114001487D01*
X119927000Y-114008843D01*
X121627000Y-114008843D01*
X121701689Y-114001487D01*
X121773508Y-113979701D01*
X121839696Y-113944322D01*
X121897711Y-113896711D01*
X121945322Y-113838696D01*
X121980701Y-113772508D01*
X122002487Y-113700689D01*
X122009843Y-113626000D01*
X122009843Y-113258600D01*
X122600295Y-113258600D01*
X122624000Y-113260935D01*
X122647705Y-113258600D01*
X122647707Y-113258600D01*
X122718606Y-113251617D01*
X122809577Y-113224022D01*
X122893415Y-113179209D01*
X122966901Y-113118901D01*
X122982017Y-113100482D01*
X124399900Y-111682600D01*
X128806295Y-111682600D01*
X128830000Y-111684935D01*
X128853705Y-111682600D01*
X128853707Y-111682600D01*
X128924606Y-111675617D01*
X129015577Y-111648022D01*
X129099415Y-111603209D01*
X129172901Y-111542901D01*
X129188017Y-111524482D01*
X130581401Y-110131098D01*
X130581401Y-112542157D01*
X129325000Y-112542157D01*
X129250311Y-112549513D01*
X129178492Y-112571299D01*
X129112304Y-112606678D01*
X129054289Y-112654289D01*
X129006678Y-112712304D01*
X128971299Y-112778492D01*
X128949513Y-112850311D01*
X128942157Y-112925000D01*
X128942157Y-113115107D01*
X128935815Y-113099796D01*
X128820249Y-112926839D01*
X128673161Y-112779751D01*
X128500204Y-112664185D01*
X128308024Y-112584581D01*
X128104007Y-112544000D01*
X127895993Y-112544000D01*
X127691976Y-112584581D01*
X127499796Y-112664185D01*
X127326839Y-112779751D01*
X127179751Y-112926839D01*
X127064185Y-113099796D01*
X127000000Y-113254751D01*
X126935815Y-113099796D01*
X126820249Y-112926839D01*
X126673161Y-112779751D01*
X126500204Y-112664185D01*
X126308024Y-112584581D01*
X126104007Y-112544000D01*
X125895993Y-112544000D01*
X125691976Y-112584581D01*
X125499796Y-112664185D01*
X125326839Y-112779751D01*
X125179751Y-112926839D01*
X125064185Y-113099796D01*
X125000000Y-113254751D01*
X124935815Y-113099796D01*
X124820249Y-112926839D01*
X124673161Y-112779751D01*
X124500204Y-112664185D01*
X124308024Y-112584581D01*
X124104007Y-112544000D01*
X123895993Y-112544000D01*
X123691976Y-112584581D01*
X123499796Y-112664185D01*
X123326839Y-112779751D01*
X123179751Y-112926839D01*
X123064185Y-113099796D01*
X122984581Y-113291976D01*
X122944000Y-113495993D01*
X122944000Y-113704007D01*
X122984581Y-113908024D01*
X123064185Y-114100204D01*
X123179751Y-114273161D01*
X123326839Y-114420249D01*
X123499796Y-114535815D01*
X123691976Y-114615419D01*
X123895993Y-114656000D01*
X124104007Y-114656000D01*
X124308024Y-114615419D01*
X124500204Y-114535815D01*
X124673161Y-114420249D01*
X124820249Y-114273161D01*
X124935815Y-114100204D01*
X125000000Y-113945249D01*
X125064185Y-114100204D01*
X125179751Y-114273161D01*
X125326839Y-114420249D01*
X125499796Y-114535815D01*
X125691976Y-114615419D01*
X125895993Y-114656000D01*
X126104007Y-114656000D01*
X126308024Y-114615419D01*
X126500204Y-114535815D01*
X126673161Y-114420249D01*
X126820249Y-114273161D01*
X126935815Y-114100204D01*
X127000000Y-113945249D01*
X127064185Y-114100204D01*
X127179751Y-114273161D01*
X127326839Y-114420249D01*
X127499796Y-114535815D01*
X127691976Y-114615419D01*
X127895993Y-114656000D01*
X128104007Y-114656000D01*
X128308024Y-114615419D01*
X128500204Y-114535815D01*
X128673161Y-114420249D01*
X128820249Y-114273161D01*
X128935815Y-114100204D01*
X128942157Y-114084893D01*
X128942157Y-114275000D01*
X128949513Y-114349689D01*
X128971299Y-114421508D01*
X129006678Y-114487696D01*
X129054289Y-114545711D01*
X129112304Y-114593322D01*
X129178492Y-114628701D01*
X129250311Y-114650487D01*
X129325000Y-114657843D01*
X130277647Y-114657843D01*
X130137553Y-114797938D01*
X130124291Y-114795300D01*
X129971689Y-114795300D01*
X129822018Y-114825072D01*
X129681032Y-114883470D01*
X129554148Y-114968252D01*
X129446242Y-115076158D01*
X129361460Y-115203042D01*
X129303062Y-115344028D01*
X129273290Y-115493699D01*
X129273290Y-115646301D01*
X129303062Y-115795972D01*
X129361460Y-115936958D01*
X129446242Y-116063842D01*
X129554148Y-116171748D01*
X129681032Y-116256530D01*
X129822018Y-116314928D01*
X129971689Y-116344700D01*
X130124291Y-116344700D01*
X130273962Y-116314928D01*
X130414948Y-116256530D01*
X130541832Y-116171748D01*
X130649738Y-116063842D01*
X130734520Y-115936958D01*
X130792918Y-115795972D01*
X130822690Y-115646301D01*
X130822690Y-115493699D01*
X130820052Y-115480437D01*
X131388487Y-114912002D01*
X131406901Y-114896891D01*
X131467209Y-114823405D01*
X131512022Y-114739567D01*
X131537371Y-114656000D01*
X131539617Y-114648597D01*
X131548935Y-114553990D01*
X131546600Y-114530283D01*
X131546600Y-100861707D01*
X131548935Y-100838000D01*
X131541420Y-100761699D01*
X132067300Y-100761699D01*
X132067300Y-100914301D01*
X132097072Y-101063972D01*
X132155470Y-101204958D01*
X132240252Y-101331842D01*
X132348158Y-101439748D01*
X132475042Y-101524530D01*
X132616028Y-101582928D01*
X132765699Y-101612700D01*
X132918301Y-101612700D01*
X133067972Y-101582928D01*
X133208958Y-101524530D01*
X133335842Y-101439748D01*
X133443748Y-101331842D01*
X133528530Y-101204958D01*
X133586928Y-101063972D01*
X133616700Y-100914301D01*
X133616700Y-100761699D01*
X133586928Y-100612028D01*
X133528530Y-100471042D01*
X133443748Y-100344158D01*
X133335842Y-100236252D01*
X133208958Y-100151470D01*
X133067972Y-100093072D01*
X132918301Y-100063300D01*
X132765699Y-100063300D01*
X132616028Y-100093072D01*
X132475042Y-100151470D01*
X132348158Y-100236252D01*
X132240252Y-100344158D01*
X132155470Y-100471042D01*
X132097072Y-100612028D01*
X132067300Y-100761699D01*
X131541420Y-100761699D01*
X131539617Y-100743393D01*
X131512022Y-100652423D01*
X131467208Y-100568584D01*
X131459015Y-100558600D01*
X131406901Y-100495099D01*
X131388488Y-100479988D01*
X128628017Y-97719518D01*
X128612901Y-97701099D01*
X128539415Y-97640791D01*
X128455577Y-97595978D01*
X128364606Y-97568383D01*
X128293707Y-97561400D01*
X128293705Y-97561400D01*
X128270000Y-97559065D01*
X128246295Y-97561400D01*
X126593260Y-97561400D01*
X126585748Y-97550158D01*
X126477842Y-97442252D01*
X126350958Y-97357470D01*
X126209972Y-97299072D01*
X126060301Y-97269300D01*
X125907699Y-97269300D01*
X125758028Y-97299072D01*
X125617042Y-97357470D01*
X125490158Y-97442252D01*
X125382252Y-97550158D01*
X125297470Y-97677042D01*
X125239072Y-97818028D01*
X125209300Y-97967699D01*
X125209300Y-98120301D01*
X125239072Y-98269972D01*
X125297470Y-98410958D01*
X125382252Y-98537842D01*
X125490158Y-98645748D01*
X125617042Y-98730530D01*
X125758028Y-98788928D01*
X125907699Y-98818700D01*
X126060301Y-98818700D01*
X126209972Y-98788928D01*
X126350958Y-98730530D01*
X126477842Y-98645748D01*
X126585748Y-98537842D01*
X126593260Y-98526600D01*
X128070101Y-98526600D01*
X130581400Y-101037900D01*
X130581401Y-107735177D01*
X130527972Y-107713046D01*
X130378301Y-107683274D01*
X130225699Y-107683274D01*
X130076028Y-107713046D01*
X129935042Y-107771444D01*
X129808158Y-107856226D01*
X129700252Y-107964132D01*
X129615470Y-108091016D01*
X129571997Y-108195970D01*
X129571997Y-108108402D01*
X129542225Y-107958731D01*
X129483827Y-107817745D01*
X129399045Y-107690861D01*
X129291139Y-107582955D01*
X129164255Y-107498173D01*
X129023269Y-107439775D01*
X128873598Y-107410003D01*
X128720996Y-107410003D01*
X128571325Y-107439775D01*
X128430339Y-107498173D01*
X128303455Y-107582955D01*
X128195549Y-107690861D01*
X128110767Y-107817745D01*
X128052369Y-107958731D01*
X128022597Y-108108402D01*
X128022597Y-108261004D01*
X128052369Y-108410675D01*
X128084071Y-108487212D01*
X126817883Y-109753400D01*
X126733567Y-109753400D01*
X126744928Y-109725972D01*
X126774700Y-109576301D01*
X126774700Y-109423699D01*
X126744928Y-109274028D01*
X126686530Y-109133042D01*
X126601748Y-109006158D01*
X126493842Y-108898252D01*
X126482600Y-108890740D01*
X126482600Y-108524700D01*
X126576301Y-108524700D01*
X126725972Y-108494928D01*
X126866958Y-108436530D01*
X126993842Y-108351748D01*
X127101748Y-108243842D01*
X127186530Y-108116958D01*
X127244928Y-107975972D01*
X127274700Y-107826301D01*
X127274700Y-107673699D01*
X127244928Y-107524028D01*
X127186530Y-107383042D01*
X127101748Y-107256158D01*
X126993842Y-107148252D01*
X126866958Y-107063470D01*
X126725972Y-107005072D01*
X126576301Y-106975300D01*
X126423699Y-106975300D01*
X126274028Y-107005072D01*
X126133042Y-107063470D01*
X126006158Y-107148252D01*
X125898252Y-107256158D01*
X125813470Y-107383042D01*
X125755072Y-107524028D01*
X125725300Y-107673699D01*
X125725300Y-107826301D01*
X125727938Y-107839563D01*
X125675513Y-107891988D01*
X125657100Y-107907099D01*
X125641989Y-107925512D01*
X125641987Y-107925514D01*
X125596792Y-107980585D01*
X125551978Y-108064424D01*
X125524384Y-108155394D01*
X125515065Y-108250000D01*
X125517401Y-108273715D01*
X125517400Y-108890740D01*
X125506158Y-108898252D01*
X125461368Y-108943042D01*
X125436516Y-108883042D01*
X125351734Y-108756158D01*
X125243828Y-108648252D01*
X125232586Y-108640740D01*
X125232586Y-107449927D01*
X125410437Y-107272076D01*
X125423699Y-107274714D01*
X125576301Y-107274714D01*
X125725972Y-107244942D01*
X125866958Y-107186544D01*
X125993842Y-107101762D01*
X126101748Y-106993856D01*
X126186530Y-106866972D01*
X126244928Y-106725986D01*
X126274700Y-106576315D01*
X126274700Y-106423713D01*
X126244928Y-106274042D01*
X126186530Y-106133056D01*
X126101748Y-106006172D01*
X125993842Y-105898266D01*
X125866958Y-105813484D01*
X125725972Y-105755086D01*
X125612929Y-105732600D01*
X125995661Y-105732600D01*
X126003173Y-105743842D01*
X126111079Y-105851748D01*
X126237963Y-105936530D01*
X126378949Y-105994928D01*
X126528620Y-106024700D01*
X126681222Y-106024700D01*
X126830893Y-105994928D01*
X126971879Y-105936530D01*
X127098763Y-105851748D01*
X127206669Y-105743842D01*
X127291451Y-105616958D01*
X127349849Y-105475972D01*
X127379621Y-105326301D01*
X127379621Y-105173699D01*
X127349849Y-105024028D01*
X127291451Y-104883042D01*
X127206669Y-104756158D01*
X127098763Y-104648252D01*
X126971879Y-104563470D01*
X126830893Y-104505072D01*
X126681222Y-104475300D01*
X126528620Y-104475300D01*
X126378949Y-104505072D01*
X126237963Y-104563470D01*
X126111079Y-104648252D01*
X126003173Y-104756158D01*
X125995661Y-104767400D01*
X125216932Y-104767400D01*
X125193225Y-104765065D01*
X125098618Y-104774383D01*
X125007648Y-104801978D01*
X124923810Y-104846791D01*
X124923808Y-104846792D01*
X124923809Y-104846792D01*
X124875321Y-104886585D01*
X124850324Y-104907099D01*
X124835213Y-104925512D01*
X123175513Y-106585213D01*
X123157100Y-106600324D01*
X123141989Y-106618737D01*
X123141987Y-106618739D01*
X123096792Y-106673810D01*
X123051978Y-106757649D01*
X123024384Y-106848619D01*
X123015065Y-106943225D01*
X123017401Y-106966940D01*
X123017400Y-108390740D01*
X123006158Y-108398252D01*
X122898252Y-108506158D01*
X122813470Y-108633042D01*
X122755072Y-108774028D01*
X122725300Y-108923699D01*
X122725300Y-109076301D01*
X122755072Y-109225972D01*
X122813470Y-109366958D01*
X122898252Y-109493842D01*
X123006158Y-109601748D01*
X123133042Y-109686530D01*
X123274028Y-109744928D01*
X123316619Y-109753400D01*
X121848990Y-109753400D01*
X121743842Y-109648252D01*
X121616958Y-109563470D01*
X121475972Y-109505072D01*
X121326301Y-109475300D01*
X121173699Y-109475300D01*
X121024028Y-109505072D01*
X120883042Y-109563470D01*
X120756158Y-109648252D01*
X120648252Y-109756158D01*
X120563470Y-109883042D01*
X120505072Y-110024028D01*
X120475300Y-110173699D01*
X120475300Y-110326301D01*
X120505072Y-110475972D01*
X120563470Y-110616958D01*
X120648252Y-110743842D01*
X120756158Y-110851748D01*
X120883042Y-110936530D01*
X120924861Y-110953852D01*
X120018352Y-110953852D01*
X119862600Y-110798101D01*
X119862600Y-105069899D01*
X120660438Y-104272062D01*
X120673699Y-104274700D01*
X120826301Y-104274700D01*
X120975972Y-104244928D01*
X121116958Y-104186530D01*
X121243842Y-104101748D01*
X121351748Y-103993842D01*
X121436530Y-103866958D01*
X121494928Y-103725972D01*
X121524700Y-103576301D01*
X121524700Y-103423699D01*
X121494928Y-103274028D01*
X121436530Y-103133042D01*
X121351748Y-103006158D01*
X121243842Y-102898252D01*
X121116958Y-102813470D01*
X120975972Y-102755072D01*
X120826301Y-102725300D01*
X120673699Y-102725300D01*
X120524028Y-102755072D01*
X120383042Y-102813470D01*
X120256158Y-102898252D01*
X120148252Y-103006158D01*
X120063470Y-103133042D01*
X120005072Y-103274028D01*
X119975300Y-103423699D01*
X119975300Y-103576301D01*
X119977938Y-103589562D01*
X119354600Y-104212901D01*
X119354600Y-100558600D01*
X119544157Y-100558600D01*
X119544157Y-100926000D01*
X119551513Y-101000689D01*
X119573299Y-101072508D01*
X119608678Y-101138696D01*
X119656289Y-101196711D01*
X119714304Y-101244322D01*
X119780492Y-101279701D01*
X119852311Y-101301487D01*
X119927000Y-101308843D01*
X121627000Y-101308843D01*
X121691400Y-101302500D01*
X121691400Y-103713010D01*
X121648252Y-103756158D01*
X121563470Y-103883042D01*
X121505072Y-104024028D01*
X121475300Y-104173699D01*
X121475300Y-104326301D01*
X121505072Y-104475972D01*
X121563470Y-104616958D01*
X121648252Y-104743842D01*
X121756158Y-104851748D01*
X121883042Y-104936530D01*
X122024028Y-104994928D01*
X122173699Y-105024700D01*
X122326301Y-105024700D01*
X122475972Y-104994928D01*
X122616958Y-104936530D01*
X122743842Y-104851748D01*
X122851748Y-104743842D01*
X122936530Y-104616958D01*
X122994928Y-104475972D01*
X123024700Y-104326301D01*
X123024700Y-104173699D01*
X122994928Y-104024028D01*
X122936530Y-103883042D01*
X122851748Y-103756158D01*
X122743842Y-103648252D01*
X122656600Y-103589958D01*
X122656600Y-102539699D01*
X122669300Y-102539699D01*
X122669300Y-102692301D01*
X122699072Y-102841972D01*
X122757470Y-102982958D01*
X122842252Y-103109842D01*
X122950158Y-103217748D01*
X123077042Y-103302530D01*
X123218028Y-103360928D01*
X123367699Y-103390700D01*
X123520301Y-103390700D01*
X123669972Y-103360928D01*
X123810958Y-103302530D01*
X123937842Y-103217748D01*
X124045748Y-103109842D01*
X124130530Y-102982958D01*
X124188928Y-102841972D01*
X124218700Y-102692301D01*
X124218700Y-102539699D01*
X124188928Y-102390028D01*
X124130530Y-102249042D01*
X124045748Y-102122158D01*
X123937842Y-102014252D01*
X123810958Y-101929470D01*
X123669972Y-101871072D01*
X123520301Y-101841300D01*
X123367699Y-101841300D01*
X123218028Y-101871072D01*
X123077042Y-101929470D01*
X122950158Y-102014252D01*
X122842252Y-102122158D01*
X122757470Y-102249042D01*
X122699072Y-102390028D01*
X122669300Y-102539699D01*
X122656600Y-102539699D01*
X122656600Y-92938600D01*
X125717300Y-92938600D01*
X125717300Y-93040301D01*
X125747072Y-93189972D01*
X125805470Y-93330958D01*
X125890252Y-93457842D01*
X125998158Y-93565748D01*
X126125042Y-93650530D01*
X126266028Y-93708928D01*
X126415699Y-93738700D01*
X126568301Y-93738700D01*
X126717972Y-93708928D01*
X126858958Y-93650530D01*
X126985842Y-93565748D01*
X127093748Y-93457842D01*
X127178530Y-93330958D01*
X127236928Y-93189972D01*
X127254000Y-93104147D01*
X127271072Y-93189972D01*
X127329470Y-93330958D01*
X127414252Y-93457842D01*
X127522158Y-93565748D01*
X127649042Y-93650530D01*
X127790028Y-93708928D01*
X127939699Y-93738700D01*
X128092301Y-93738700D01*
X128241972Y-93708928D01*
X128382958Y-93650530D01*
X128509842Y-93565748D01*
X128617748Y-93457842D01*
X128702530Y-93330958D01*
X128760928Y-93189972D01*
X128790700Y-93040301D01*
X128790700Y-92887699D01*
X128760928Y-92738028D01*
X128702530Y-92597042D01*
X128617748Y-92470158D01*
X128509842Y-92362252D01*
X128498600Y-92354740D01*
X128498600Y-92225704D01*
X128500935Y-92201999D01*
X128497530Y-92167432D01*
X128491617Y-92107394D01*
X128464022Y-92016423D01*
X128419209Y-91932585D01*
X128358901Y-91859099D01*
X128340482Y-91843983D01*
X126088017Y-89591518D01*
X126072901Y-89573099D01*
X125999415Y-89512791D01*
X125915577Y-89467978D01*
X125824606Y-89440383D01*
X125753707Y-89433400D01*
X125753705Y-89433400D01*
X125730000Y-89431065D01*
X125706295Y-89433400D01*
X122656600Y-89433400D01*
X122656600Y-80910801D01*
X134377264Y-80910801D01*
X134379600Y-80934516D01*
X134379599Y-91277494D01*
X134377264Y-91301199D01*
X134379599Y-91324904D01*
X134379599Y-91324905D01*
X134386582Y-91395804D01*
X134414177Y-91486775D01*
X134458990Y-91570614D01*
X134519298Y-91644100D01*
X134537717Y-91659216D01*
X134874934Y-91996433D01*
X134833307Y-92096931D01*
X134786000Y-92334757D01*
X134786000Y-92577243D01*
X134833307Y-92815069D01*
X134874934Y-92915567D01*
X134537712Y-93252789D01*
X134519299Y-93267900D01*
X134504188Y-93286313D01*
X134504186Y-93286315D01*
X134458991Y-93341386D01*
X134414177Y-93425225D01*
X134386583Y-93516195D01*
X134377264Y-93610801D01*
X134379600Y-93634516D01*
X134379599Y-103977494D01*
X134377264Y-104001199D01*
X134379599Y-104024904D01*
X134379599Y-104024905D01*
X134386582Y-104095804D01*
X134414177Y-104186775D01*
X134458990Y-104270614D01*
X134519298Y-104344100D01*
X134537717Y-104359216D01*
X135334501Y-105156000D01*
X134537717Y-105952784D01*
X134519298Y-105967900D01*
X134458990Y-106041386D01*
X134414177Y-106125225D01*
X134386582Y-106216196D01*
X134384119Y-106241206D01*
X134377264Y-106310801D01*
X134379599Y-106334506D01*
X134379600Y-116677484D01*
X134377264Y-116701199D01*
X134386583Y-116795805D01*
X134414177Y-116886775D01*
X134414178Y-116886776D01*
X134458991Y-116970614D01*
X134519299Y-117044100D01*
X134537712Y-117059211D01*
X134874934Y-117396433D01*
X134833307Y-117496931D01*
X134786000Y-117734757D01*
X134786000Y-117977243D01*
X134833307Y-118215069D01*
X134926102Y-118439097D01*
X135060820Y-118640717D01*
X135232283Y-118812180D01*
X135433903Y-118946898D01*
X135657931Y-119039693D01*
X135895757Y-119087000D01*
X136138243Y-119087000D01*
X136376069Y-119039693D01*
X136600097Y-118946898D01*
X136801717Y-118812180D01*
X136973180Y-118640717D01*
X137107898Y-118439097D01*
X137200693Y-118215069D01*
X137248000Y-117977243D01*
X137248000Y-117734757D01*
X137200693Y-117496931D01*
X137107898Y-117272903D01*
X136973180Y-117071283D01*
X136801717Y-116899820D01*
X136600097Y-116765102D01*
X136376069Y-116672307D01*
X136138243Y-116625000D01*
X135895757Y-116625000D01*
X135657931Y-116672307D01*
X135557433Y-116713934D01*
X135344799Y-116501300D01*
X135344799Y-116347361D01*
X135433903Y-116406898D01*
X135657931Y-116499693D01*
X135895757Y-116547000D01*
X136138243Y-116547000D01*
X136376069Y-116499693D01*
X136600097Y-116406898D01*
X136801717Y-116272180D01*
X136973180Y-116100717D01*
X137107898Y-115899097D01*
X137200693Y-115675069D01*
X137248000Y-115437243D01*
X137248000Y-115194757D01*
X137200693Y-114956931D01*
X137159066Y-114856433D01*
X138144893Y-113870606D01*
X138163312Y-113855490D01*
X138223620Y-113782004D01*
X138268433Y-113698166D01*
X138296028Y-113607195D01*
X138303011Y-113536296D01*
X138303011Y-113536295D01*
X138305346Y-113512590D01*
X138303011Y-113488885D01*
X138303011Y-104443115D01*
X138305346Y-104419410D01*
X138301963Y-104385065D01*
X138296028Y-104324805D01*
X138268433Y-104233834D01*
X138223620Y-104149996D01*
X138163312Y-104076510D01*
X138144893Y-104061394D01*
X136699499Y-102616000D01*
X138144893Y-101170606D01*
X138163312Y-101155490D01*
X138223620Y-101082004D01*
X138268433Y-100998166D01*
X138296028Y-100907195D01*
X138303011Y-100836296D01*
X138303011Y-100836295D01*
X138305346Y-100812590D01*
X138303011Y-100788885D01*
X138303011Y-91743115D01*
X138305346Y-91719410D01*
X138303011Y-91695704D01*
X138296028Y-91624805D01*
X138268433Y-91533834D01*
X138223620Y-91449996D01*
X138163312Y-91376510D01*
X138144893Y-91361394D01*
X137159066Y-90375567D01*
X137200693Y-90275069D01*
X137248000Y-90037243D01*
X137248000Y-89794757D01*
X137200693Y-89556931D01*
X137159066Y-89456433D01*
X138144893Y-88470606D01*
X138163312Y-88455490D01*
X138223620Y-88382004D01*
X138268433Y-88298166D01*
X138296028Y-88207195D01*
X138303011Y-88136296D01*
X138303011Y-88136295D01*
X138305346Y-88112590D01*
X138303011Y-88088885D01*
X138303011Y-79043115D01*
X138305346Y-79019410D01*
X138303011Y-78995704D01*
X138296028Y-78924805D01*
X138268433Y-78833834D01*
X138223620Y-78749996D01*
X138163312Y-78676510D01*
X138144893Y-78661394D01*
X137159066Y-77675567D01*
X137200693Y-77575069D01*
X137248000Y-77337243D01*
X137248000Y-77094757D01*
X137200693Y-76856931D01*
X137107898Y-76632903D01*
X136973180Y-76431283D01*
X136801717Y-76259820D01*
X136600097Y-76125102D01*
X136376069Y-76032307D01*
X136138243Y-75985000D01*
X135895757Y-75985000D01*
X135657931Y-76032307D01*
X135433903Y-76125102D01*
X135232283Y-76259820D01*
X135060820Y-76431283D01*
X134926102Y-76632903D01*
X134833307Y-76856931D01*
X134786000Y-77094757D01*
X134786000Y-77337243D01*
X134833307Y-77575069D01*
X134926102Y-77799097D01*
X135060820Y-78000717D01*
X135232283Y-78172180D01*
X135433903Y-78306898D01*
X135657931Y-78399693D01*
X135895757Y-78447000D01*
X136138243Y-78447000D01*
X136376069Y-78399693D01*
X136476567Y-78358066D01*
X137337811Y-79219310D01*
X137337812Y-86437882D01*
X137337811Y-87912690D01*
X136476567Y-88773934D01*
X136376069Y-88732307D01*
X136138243Y-88685000D01*
X135895757Y-88685000D01*
X135657931Y-88732307D01*
X135433903Y-88825102D01*
X135344799Y-88884639D01*
X135344799Y-88407361D01*
X135433903Y-88466898D01*
X135657931Y-88559693D01*
X135895757Y-88607000D01*
X136138243Y-88607000D01*
X136376069Y-88559693D01*
X136600097Y-88466898D01*
X136801717Y-88332180D01*
X136973180Y-88160717D01*
X137107898Y-87959097D01*
X137200693Y-87735069D01*
X137248000Y-87497243D01*
X137248000Y-87254757D01*
X137200693Y-87016931D01*
X137107898Y-86792903D01*
X136973180Y-86591283D01*
X136801717Y-86419820D01*
X136600097Y-86285102D01*
X136376069Y-86192307D01*
X136138243Y-86145000D01*
X135895757Y-86145000D01*
X135657931Y-86192307D01*
X135433903Y-86285102D01*
X135344799Y-86344639D01*
X135344799Y-85867361D01*
X135433903Y-85926898D01*
X135657931Y-86019693D01*
X135895757Y-86067000D01*
X136138243Y-86067000D01*
X136376069Y-86019693D01*
X136600097Y-85926898D01*
X136801717Y-85792180D01*
X136973180Y-85620717D01*
X137107898Y-85419097D01*
X137200693Y-85195069D01*
X137248000Y-84957243D01*
X137248000Y-84714757D01*
X137200693Y-84476931D01*
X137107898Y-84252903D01*
X136973180Y-84051283D01*
X136801717Y-83879820D01*
X136600097Y-83745102D01*
X136376069Y-83652307D01*
X136138243Y-83605000D01*
X135895757Y-83605000D01*
X135657931Y-83652307D01*
X135433903Y-83745102D01*
X135344799Y-83804639D01*
X135344799Y-83327361D01*
X135433903Y-83386898D01*
X135657931Y-83479693D01*
X135895757Y-83527000D01*
X136138243Y-83527000D01*
X136376069Y-83479693D01*
X136600097Y-83386898D01*
X136801717Y-83252180D01*
X136973180Y-83080717D01*
X137107898Y-82879097D01*
X137200693Y-82655069D01*
X137248000Y-82417243D01*
X137248000Y-82174757D01*
X137200693Y-81936931D01*
X137107898Y-81712903D01*
X136973180Y-81511283D01*
X136801717Y-81339820D01*
X136600097Y-81205102D01*
X136376069Y-81112307D01*
X136138243Y-81065000D01*
X135895757Y-81065000D01*
X135657931Y-81112307D01*
X135433903Y-81205102D01*
X135344799Y-81264639D01*
X135344799Y-81110700D01*
X135557433Y-80898066D01*
X135657931Y-80939693D01*
X135895757Y-80987000D01*
X136138243Y-80987000D01*
X136376069Y-80939693D01*
X136600097Y-80846898D01*
X136801717Y-80712180D01*
X136973180Y-80540717D01*
X137107898Y-80339097D01*
X137200693Y-80115069D01*
X137248000Y-79877243D01*
X137248000Y-79634757D01*
X137200693Y-79396931D01*
X137107898Y-79172903D01*
X136973180Y-78971283D01*
X136801717Y-78799820D01*
X136600097Y-78665102D01*
X136376069Y-78572307D01*
X136138243Y-78525000D01*
X135895757Y-78525000D01*
X135657931Y-78572307D01*
X135433903Y-78665102D01*
X135232283Y-78799820D01*
X135060820Y-78971283D01*
X134926102Y-79172903D01*
X134833307Y-79396931D01*
X134786000Y-79634757D01*
X134786000Y-79877243D01*
X134833307Y-80115069D01*
X134874934Y-80215567D01*
X134537712Y-80552789D01*
X134519299Y-80567900D01*
X134504188Y-80586313D01*
X134504186Y-80586315D01*
X134458991Y-80641386D01*
X134414177Y-80725225D01*
X134386583Y-80816195D01*
X134377264Y-80910801D01*
X122656600Y-80910801D01*
X122656600Y-78636696D01*
X122658934Y-78612999D01*
X122656600Y-78589302D01*
X122656600Y-78589293D01*
X122649617Y-78518394D01*
X122622022Y-78427423D01*
X122577209Y-78343585D01*
X122516901Y-78270099D01*
X122498482Y-78254983D01*
X121919066Y-77675567D01*
X121960693Y-77575069D01*
X122008000Y-77337243D01*
X122008000Y-77094757D01*
X121960693Y-76856931D01*
X121867898Y-76632903D01*
X121733180Y-76431283D01*
X121561717Y-76259820D01*
X121360097Y-76125102D01*
X121136069Y-76032307D01*
X120898243Y-75985000D01*
X120655757Y-75985000D01*
X120417931Y-76032307D01*
X120193903Y-76125102D01*
X119992283Y-76259820D01*
X119820820Y-76431283D01*
X119686102Y-76632903D01*
X119593307Y-76856931D01*
X119546000Y-77094757D01*
X119546000Y-77337243D01*
X119593307Y-77575069D01*
X119686102Y-77799097D01*
X119820820Y-78000717D01*
X119992283Y-78172180D01*
X120193903Y-78306898D01*
X120417931Y-78399693D01*
X120655757Y-78447000D01*
X120898243Y-78447000D01*
X121136069Y-78399693D01*
X121236567Y-78358066D01*
X121691401Y-78812900D01*
X121691401Y-78929504D01*
X121561717Y-78799820D01*
X121360097Y-78665102D01*
X121136069Y-78572307D01*
X120898243Y-78525000D01*
X120655757Y-78525000D01*
X120417931Y-78572307D01*
X120193903Y-78665102D01*
X119992283Y-78799820D01*
X119820820Y-78971283D01*
X119686102Y-79172903D01*
X119593307Y-79396931D01*
X119546000Y-79634757D01*
X119546000Y-79877243D01*
X119593307Y-80115069D01*
X119686102Y-80339097D01*
X119820820Y-80540717D01*
X119992283Y-80712180D01*
X120193903Y-80846898D01*
X120417931Y-80939693D01*
X120655757Y-80987000D01*
X120898243Y-80987000D01*
X121136069Y-80939693D01*
X121360097Y-80846898D01*
X121561717Y-80712180D01*
X121691401Y-80582496D01*
X121691401Y-81469504D01*
X121561717Y-81339820D01*
X121360097Y-81205102D01*
X121136069Y-81112307D01*
X120898243Y-81065000D01*
X120655757Y-81065000D01*
X120417931Y-81112307D01*
X120193903Y-81205102D01*
X119992283Y-81339820D01*
X119820820Y-81511283D01*
X119686102Y-81712903D01*
X119593307Y-81936931D01*
X119546000Y-82174757D01*
X119546000Y-82417243D01*
X119593307Y-82655069D01*
X119686102Y-82879097D01*
X119820820Y-83080717D01*
X119992283Y-83252180D01*
X120193903Y-83386898D01*
X120417931Y-83479693D01*
X120655757Y-83527000D01*
X120898243Y-83527000D01*
X121136069Y-83479693D01*
X121360097Y-83386898D01*
X121561717Y-83252180D01*
X121691401Y-83122496D01*
X121691401Y-84009504D01*
X121561717Y-83879820D01*
X121360097Y-83745102D01*
X121136069Y-83652307D01*
X120898243Y-83605000D01*
X120655757Y-83605000D01*
X120417931Y-83652307D01*
X120193903Y-83745102D01*
X119992283Y-83879820D01*
X119820820Y-84051283D01*
X119686102Y-84252903D01*
X119593307Y-84476931D01*
X119546000Y-84714757D01*
X119546000Y-84957243D01*
X119593307Y-85195069D01*
X119686102Y-85419097D01*
X119820820Y-85620717D01*
X119992283Y-85792180D01*
X120193903Y-85926898D01*
X120417931Y-86019693D01*
X120655757Y-86067000D01*
X120898243Y-86067000D01*
X121136069Y-86019693D01*
X121360097Y-85926898D01*
X121561717Y-85792180D01*
X121691400Y-85662497D01*
X121691400Y-86149500D01*
X121627000Y-86143157D01*
X119927000Y-86143157D01*
X119852311Y-86150513D01*
X119780492Y-86172299D01*
X119714304Y-86207678D01*
X119656289Y-86255289D01*
X119608678Y-86313304D01*
X119573299Y-86379492D01*
X119551513Y-86451311D01*
X119544157Y-86526000D01*
X119544157Y-87799343D01*
X118547513Y-88795988D01*
X118529100Y-88811099D01*
X118513989Y-88829512D01*
X118513987Y-88829514D01*
X118468792Y-88884585D01*
X118423978Y-88968424D01*
X118396384Y-89059394D01*
X118387065Y-89154000D01*
X118389401Y-89177715D01*
X118389400Y-100052293D01*
X118387065Y-100076000D01*
X118389401Y-100099717D01*
X118389400Y-112752293D01*
X118387065Y-112776000D01*
X118389401Y-112799717D01*
X118389400Y-123547295D01*
X118387065Y-123571000D01*
X118389400Y-123594705D01*
X118389400Y-123594706D01*
X118396383Y-123665605D01*
X118423978Y-123756576D01*
X118468791Y-123840415D01*
X118529099Y-123913901D01*
X118547518Y-123929017D01*
X119544157Y-124925657D01*
X119544157Y-126326000D01*
X119551513Y-126400689D01*
X119573299Y-126472508D01*
X119608678Y-126538696D01*
X119654064Y-126594000D01*
X117373000Y-126594000D01*
X117373000Y-75082000D01*
X139167000Y-75082000D01*
X139167001Y-126594000D01*
G37*
%TD.AperFunction*%
%TD*%
M02*
