%TF.GenerationSoftware,KiCad,Pcbnew,5.1.10-88a1d61d58~88~ubuntu20.04.1*%
%TF.CreationDate,2021-06-26T15:26:23-05:00*%
%TF.ProjectId,portalgun,706f7274-616c-4677-956e-2e6b69636164,B*%
%TF.SameCoordinates,Original*%
%TF.FileFunction,Soldermask,Top*%
%TF.FilePolarity,Negative*%
%FSLAX46Y46*%
G04 Gerber Fmt 4.6, Leading zero omitted, Abs format (unit mm)*
G04 Created by KiCad (PCBNEW 5.1.10-88a1d61d58~88~ubuntu20.04.1) date 2021-06-26 15:26:23*
%MOMM*%
%LPD*%
G01*
G04 APERTURE LIST*
%ADD10C,0.100000*%
%ADD11C,0.150000*%
%ADD12C,0.300000*%
%ADD13C,0.400000*%
%ADD14O,1.700000X1.700000*%
%ADD15R,1.700000X1.700000*%
%ADD16R,2.500000X1.000000*%
%ADD17R,1.000000X1.800000*%
%ADD18C,1.500000*%
%ADD19R,0.900000X0.800000*%
%ADD20C,1.700000*%
%ADD21R,0.800000X0.900000*%
%ADD22O,0.800000X1.300000*%
%ADD23R,0.650000X1.060000*%
%ADD24C,2.500000*%
%ADD25C,0.254000*%
G04 APERTURE END LIST*
D10*
D11*
X177002200Y-166007200D02*
X177002200Y-198007200D01*
X285002200Y-198007200D01*
X285002200Y-166007200D01*
X177002200Y-166007200D01*
D10*
D11*
X10000000Y-10000000D02*
X10000000Y-200007200D01*
X287002200Y-200007200D01*
X287002200Y-10000000D01*
X10000000Y-10000000D01*
D10*
D11*
X12000000Y-12000000D02*
X12000000Y-198007200D01*
X285002200Y-198007200D01*
X285002200Y-12000000D01*
X12000000Y-12000000D01*
D10*
D11*
X60000000Y-12000000D02*
X60000000Y-10000000D01*
D10*
D11*
X110000000Y-12000000D02*
X110000000Y-10000000D01*
D10*
D11*
X160000000Y-12000000D02*
X160000000Y-10000000D01*
D10*
D11*
X210000000Y-12000000D02*
X210000000Y-10000000D01*
D10*
D11*
X260000000Y-12000000D02*
X260000000Y-10000000D01*
D10*
D11*
X36065476Y-11588095D02*
X35322619Y-11588095D01*
X35694047Y-11588095D02*
X35694047Y-10288095D01*
X35570238Y-10473809D01*
X35446428Y-10597619D01*
X35322619Y-10659523D01*
D10*
D11*
X85322619Y-10411904D02*
X85384523Y-10350000D01*
X85508333Y-10288095D01*
X85817857Y-10288095D01*
X85941666Y-10350000D01*
X86003571Y-10411904D01*
X86065476Y-10535714D01*
X86065476Y-10659523D01*
X86003571Y-10845238D01*
X85260714Y-11588095D01*
X86065476Y-11588095D01*
D10*
D11*
X135260714Y-10288095D02*
X136065476Y-10288095D01*
X135632142Y-10783333D01*
X135817857Y-10783333D01*
X135941666Y-10845238D01*
X136003571Y-10907142D01*
X136065476Y-11030952D01*
X136065476Y-11340476D01*
X136003571Y-11464285D01*
X135941666Y-11526190D01*
X135817857Y-11588095D01*
X135446428Y-11588095D01*
X135322619Y-11526190D01*
X135260714Y-11464285D01*
D10*
D11*
X185941666Y-10721428D02*
X185941666Y-11588095D01*
X185632142Y-10226190D02*
X185322619Y-11154761D01*
X186127380Y-11154761D01*
D10*
D11*
X236003571Y-10288095D02*
X235384523Y-10288095D01*
X235322619Y-10907142D01*
X235384523Y-10845238D01*
X235508333Y-10783333D01*
X235817857Y-10783333D01*
X235941666Y-10845238D01*
X236003571Y-10907142D01*
X236065476Y-11030952D01*
X236065476Y-11340476D01*
X236003571Y-11464285D01*
X235941666Y-11526190D01*
X235817857Y-11588095D01*
X235508333Y-11588095D01*
X235384523Y-11526190D01*
X235322619Y-11464285D01*
D10*
D11*
X285941666Y-10288095D02*
X285694047Y-10288095D01*
X285570238Y-10350000D01*
X285508333Y-10411904D01*
X285384523Y-10597619D01*
X285322619Y-10845238D01*
X285322619Y-11340476D01*
X285384523Y-11464285D01*
X285446428Y-11526190D01*
X285570238Y-11588095D01*
X285817857Y-11588095D01*
X285941666Y-11526190D01*
X286003571Y-11464285D01*
X286065476Y-11340476D01*
X286065476Y-11030952D01*
X286003571Y-10907142D01*
X285941666Y-10845238D01*
X285817857Y-10783333D01*
X285570238Y-10783333D01*
X285446428Y-10845238D01*
X285384523Y-10907142D01*
X285322619Y-11030952D01*
D10*
D11*
X60000000Y-198007200D02*
X60000000Y-200007200D01*
D10*
D11*
X110000000Y-198007200D02*
X110000000Y-200007200D01*
D10*
D11*
X160000000Y-198007200D02*
X160000000Y-200007200D01*
D10*
D11*
X210000000Y-198007200D02*
X210000000Y-200007200D01*
D10*
D11*
X260000000Y-198007200D02*
X260000000Y-200007200D01*
D10*
D11*
X36065476Y-199595295D02*
X35322619Y-199595295D01*
X35694047Y-199595295D02*
X35694047Y-198295295D01*
X35570238Y-198481009D01*
X35446428Y-198604819D01*
X35322619Y-198666723D01*
D10*
D11*
X85322619Y-198419104D02*
X85384523Y-198357200D01*
X85508333Y-198295295D01*
X85817857Y-198295295D01*
X85941666Y-198357200D01*
X86003571Y-198419104D01*
X86065476Y-198542914D01*
X86065476Y-198666723D01*
X86003571Y-198852438D01*
X85260714Y-199595295D01*
X86065476Y-199595295D01*
D10*
D11*
X135260714Y-198295295D02*
X136065476Y-198295295D01*
X135632142Y-198790533D01*
X135817857Y-198790533D01*
X135941666Y-198852438D01*
X136003571Y-198914342D01*
X136065476Y-199038152D01*
X136065476Y-199347676D01*
X136003571Y-199471485D01*
X135941666Y-199533390D01*
X135817857Y-199595295D01*
X135446428Y-199595295D01*
X135322619Y-199533390D01*
X135260714Y-199471485D01*
D10*
D11*
X185941666Y-198728628D02*
X185941666Y-199595295D01*
X185632142Y-198233390D02*
X185322619Y-199161961D01*
X186127380Y-199161961D01*
D10*
D11*
X236003571Y-198295295D02*
X235384523Y-198295295D01*
X235322619Y-198914342D01*
X235384523Y-198852438D01*
X235508333Y-198790533D01*
X235817857Y-198790533D01*
X235941666Y-198852438D01*
X236003571Y-198914342D01*
X236065476Y-199038152D01*
X236065476Y-199347676D01*
X236003571Y-199471485D01*
X235941666Y-199533390D01*
X235817857Y-199595295D01*
X235508333Y-199595295D01*
X235384523Y-199533390D01*
X235322619Y-199471485D01*
D10*
D11*
X285941666Y-198295295D02*
X285694047Y-198295295D01*
X285570238Y-198357200D01*
X285508333Y-198419104D01*
X285384523Y-198604819D01*
X285322619Y-198852438D01*
X285322619Y-199347676D01*
X285384523Y-199471485D01*
X285446428Y-199533390D01*
X285570238Y-199595295D01*
X285817857Y-199595295D01*
X285941666Y-199533390D01*
X286003571Y-199471485D01*
X286065476Y-199347676D01*
X286065476Y-199038152D01*
X286003571Y-198914342D01*
X285941666Y-198852438D01*
X285817857Y-198790533D01*
X285570238Y-198790533D01*
X285446428Y-198852438D01*
X285384523Y-198914342D01*
X285322619Y-199038152D01*
D10*
D11*
X10000000Y-60000000D02*
X12000000Y-60000000D01*
D10*
D11*
X10000000Y-110000000D02*
X12000000Y-110000000D01*
D10*
D11*
X10000000Y-160000000D02*
X12000000Y-160000000D01*
D10*
D11*
X10690476Y-35216666D02*
X11309523Y-35216666D01*
X10566666Y-35588095D02*
X11000000Y-34288095D01*
X11433333Y-35588095D01*
D10*
D11*
X11092857Y-84907142D02*
X11278571Y-84969047D01*
X11340476Y-85030952D01*
X11402380Y-85154761D01*
X11402380Y-85340476D01*
X11340476Y-85464285D01*
X11278571Y-85526190D01*
X11154761Y-85588095D01*
X10659523Y-85588095D01*
X10659523Y-84288095D01*
X11092857Y-84288095D01*
X11216666Y-84350000D01*
X11278571Y-84411904D01*
X11340476Y-84535714D01*
X11340476Y-84659523D01*
X11278571Y-84783333D01*
X11216666Y-84845238D01*
X11092857Y-84907142D01*
X10659523Y-84907142D01*
D10*
D11*
X11402380Y-135464285D02*
X11340476Y-135526190D01*
X11154761Y-135588095D01*
X11030952Y-135588095D01*
X10845238Y-135526190D01*
X10721428Y-135402380D01*
X10659523Y-135278571D01*
X10597619Y-135030952D01*
X10597619Y-134845238D01*
X10659523Y-134597619D01*
X10721428Y-134473809D01*
X10845238Y-134350000D01*
X11030952Y-134288095D01*
X11154761Y-134288095D01*
X11340476Y-134350000D01*
X11402380Y-134411904D01*
D10*
D11*
X10659523Y-185588095D02*
X10659523Y-184288095D01*
X10969047Y-184288095D01*
X11154761Y-184350000D01*
X11278571Y-184473809D01*
X11340476Y-184597619D01*
X11402380Y-184845238D01*
X11402380Y-185030952D01*
X11340476Y-185278571D01*
X11278571Y-185402380D01*
X11154761Y-185526190D01*
X10969047Y-185588095D01*
X10659523Y-185588095D01*
D10*
D11*
X287002200Y-60000000D02*
X285002200Y-60000000D01*
D10*
D11*
X287002200Y-110000000D02*
X285002200Y-110000000D01*
D10*
D11*
X287002200Y-160000000D02*
X285002200Y-160000000D01*
D10*
D11*
X285692676Y-35216666D02*
X286311723Y-35216666D01*
X285568866Y-35588095D02*
X286002200Y-34288095D01*
X286435533Y-35588095D01*
D10*
D11*
X286095057Y-84907142D02*
X286280771Y-84969047D01*
X286342676Y-85030952D01*
X286404580Y-85154761D01*
X286404580Y-85340476D01*
X286342676Y-85464285D01*
X286280771Y-85526190D01*
X286156961Y-85588095D01*
X285661723Y-85588095D01*
X285661723Y-84288095D01*
X286095057Y-84288095D01*
X286218866Y-84350000D01*
X286280771Y-84411904D01*
X286342676Y-84535714D01*
X286342676Y-84659523D01*
X286280771Y-84783333D01*
X286218866Y-84845238D01*
X286095057Y-84907142D01*
X285661723Y-84907142D01*
D10*
D11*
X286404580Y-135464285D02*
X286342676Y-135526190D01*
X286156961Y-135588095D01*
X286033152Y-135588095D01*
X285847438Y-135526190D01*
X285723628Y-135402380D01*
X285661723Y-135278571D01*
X285599819Y-135030952D01*
X285599819Y-134845238D01*
X285661723Y-134597619D01*
X285723628Y-134473809D01*
X285847438Y-134350000D01*
X286033152Y-134288095D01*
X286156961Y-134288095D01*
X286342676Y-134350000D01*
X286404580Y-134411904D01*
D10*
D11*
X285661723Y-185588095D02*
X285661723Y-184288095D01*
X285971247Y-184288095D01*
X286156961Y-184350000D01*
X286280771Y-184473809D01*
X286342676Y-184597619D01*
X286404580Y-184845238D01*
X286404580Y-185030952D01*
X286342676Y-185278571D01*
X286280771Y-185402380D01*
X286156961Y-185526190D01*
X285971247Y-185588095D01*
X285661723Y-185588095D01*
D10*
D11*
X200434342Y-193785771D02*
X200434342Y-192285771D01*
X200791485Y-192285771D01*
X201005771Y-192357200D01*
X201148628Y-192500057D01*
X201220057Y-192642914D01*
X201291485Y-192928628D01*
X201291485Y-193142914D01*
X201220057Y-193428628D01*
X201148628Y-193571485D01*
X201005771Y-193714342D01*
X200791485Y-193785771D01*
X200434342Y-193785771D01*
X202577200Y-193785771D02*
X202577200Y-193000057D01*
X202505771Y-192857200D01*
X202362914Y-192785771D01*
X202077200Y-192785771D01*
X201934342Y-192857200D01*
X202577200Y-193714342D02*
X202434342Y-193785771D01*
X202077200Y-193785771D01*
X201934342Y-193714342D01*
X201862914Y-193571485D01*
X201862914Y-193428628D01*
X201934342Y-193285771D01*
X202077200Y-193214342D01*
X202434342Y-193214342D01*
X202577200Y-193142914D01*
X203077200Y-192785771D02*
X203648628Y-192785771D01*
X203291485Y-192285771D02*
X203291485Y-193571485D01*
X203362914Y-193714342D01*
X203505771Y-193785771D01*
X203648628Y-193785771D01*
X204720057Y-193714342D02*
X204577200Y-193785771D01*
X204291485Y-193785771D01*
X204148628Y-193714342D01*
X204077200Y-193571485D01*
X204077200Y-193000057D01*
X204148628Y-192857200D01*
X204291485Y-192785771D01*
X204577200Y-192785771D01*
X204720057Y-192857200D01*
X204791485Y-193000057D01*
X204791485Y-193142914D01*
X204077200Y-193285771D01*
X205434342Y-193642914D02*
X205505771Y-193714342D01*
X205434342Y-193785771D01*
X205362914Y-193714342D01*
X205434342Y-193642914D01*
X205434342Y-193785771D01*
X205434342Y-192857200D02*
X205505771Y-192928628D01*
X205434342Y-193000057D01*
X205362914Y-192928628D01*
X205434342Y-192857200D01*
X205434342Y-193000057D01*
X207220057Y-192428628D02*
X207291485Y-192357200D01*
X207434342Y-192285771D01*
X207791485Y-192285771D01*
X207934342Y-192357200D01*
X208005771Y-192428628D01*
X208077200Y-192571485D01*
X208077200Y-192714342D01*
X208005771Y-192928628D01*
X207148628Y-193785771D01*
X208077200Y-193785771D01*
X209005771Y-192285771D02*
X209148628Y-192285771D01*
X209291485Y-192357200D01*
X209362914Y-192428628D01*
X209434342Y-192571485D01*
X209505771Y-192857200D01*
X209505771Y-193214342D01*
X209434342Y-193500057D01*
X209362914Y-193642914D01*
X209291485Y-193714342D01*
X209148628Y-193785771D01*
X209005771Y-193785771D01*
X208862914Y-193714342D01*
X208791485Y-193642914D01*
X208720057Y-193500057D01*
X208648628Y-193214342D01*
X208648628Y-192857200D01*
X208720057Y-192571485D01*
X208791485Y-192428628D01*
X208862914Y-192357200D01*
X209005771Y-192285771D01*
X210077200Y-192428628D02*
X210148628Y-192357200D01*
X210291485Y-192285771D01*
X210648628Y-192285771D01*
X210791485Y-192357200D01*
X210862914Y-192428628D01*
X210934342Y-192571485D01*
X210934342Y-192714342D01*
X210862914Y-192928628D01*
X210005771Y-193785771D01*
X210934342Y-193785771D01*
X212362914Y-193785771D02*
X211505771Y-193785771D01*
X211934342Y-193785771D02*
X211934342Y-192285771D01*
X211791485Y-192500057D01*
X211648628Y-192642914D01*
X211505771Y-192714342D01*
X213005771Y-193214342D02*
X214148628Y-193214342D01*
X215148628Y-192285771D02*
X215291485Y-192285771D01*
X215434342Y-192357200D01*
X215505771Y-192428628D01*
X215577200Y-192571485D01*
X215648628Y-192857200D01*
X215648628Y-193214342D01*
X215577200Y-193500057D01*
X215505771Y-193642914D01*
X215434342Y-193714342D01*
X215291485Y-193785771D01*
X215148628Y-193785771D01*
X215005771Y-193714342D01*
X214934342Y-193642914D01*
X214862914Y-193500057D01*
X214791485Y-193214342D01*
X214791485Y-192857200D01*
X214862914Y-192571485D01*
X214934342Y-192428628D01*
X215005771Y-192357200D01*
X215148628Y-192285771D01*
X216934342Y-192285771D02*
X216648628Y-192285771D01*
X216505771Y-192357200D01*
X216434342Y-192428628D01*
X216291485Y-192642914D01*
X216220057Y-192928628D01*
X216220057Y-193500057D01*
X216291485Y-193642914D01*
X216362914Y-193714342D01*
X216505771Y-193785771D01*
X216791485Y-193785771D01*
X216934342Y-193714342D01*
X217005771Y-193642914D01*
X217077200Y-193500057D01*
X217077200Y-193142914D01*
X217005771Y-193000057D01*
X216934342Y-192928628D01*
X216791485Y-192857200D01*
X216505771Y-192857200D01*
X216362914Y-192928628D01*
X216291485Y-193000057D01*
X216220057Y-193142914D01*
X217720057Y-193214342D02*
X218862914Y-193214342D01*
X219505771Y-192428628D02*
X219577200Y-192357200D01*
X219720057Y-192285771D01*
X220077200Y-192285771D01*
X220220057Y-192357200D01*
X220291485Y-192428628D01*
X220362914Y-192571485D01*
X220362914Y-192714342D01*
X220291485Y-192928628D01*
X219434342Y-193785771D01*
X220362914Y-193785771D01*
X221648628Y-192285771D02*
X221362914Y-192285771D01*
X221220057Y-192357200D01*
X221148628Y-192428628D01*
X221005771Y-192642914D01*
X220934342Y-192928628D01*
X220934342Y-193500057D01*
X221005771Y-193642914D01*
X221077200Y-193714342D01*
X221220057Y-193785771D01*
X221505771Y-193785771D01*
X221648628Y-193714342D01*
X221720057Y-193642914D01*
X221791485Y-193500057D01*
X221791485Y-193142914D01*
X221720057Y-193000057D01*
X221648628Y-192928628D01*
X221505771Y-192857200D01*
X221220057Y-192857200D01*
X221077200Y-192928628D01*
X221005771Y-193000057D01*
X220934342Y-193142914D01*
D10*
D11*
X177002200Y-194507200D02*
X285002200Y-194507200D01*
D10*
D11*
X178434342Y-196585771D02*
X178434342Y-195085771D01*
X179291485Y-196585771D02*
X178648628Y-195728628D01*
X179291485Y-195085771D02*
X178434342Y-195942914D01*
X179934342Y-196585771D02*
X179934342Y-195585771D01*
X179934342Y-195085771D02*
X179862914Y-195157200D01*
X179934342Y-195228628D01*
X180005771Y-195157200D01*
X179934342Y-195085771D01*
X179934342Y-195228628D01*
X181505771Y-196442914D02*
X181434342Y-196514342D01*
X181220057Y-196585771D01*
X181077200Y-196585771D01*
X180862914Y-196514342D01*
X180720057Y-196371485D01*
X180648628Y-196228628D01*
X180577200Y-195942914D01*
X180577200Y-195728628D01*
X180648628Y-195442914D01*
X180720057Y-195300057D01*
X180862914Y-195157200D01*
X181077200Y-195085771D01*
X181220057Y-195085771D01*
X181434342Y-195157200D01*
X181505771Y-195228628D01*
X182791485Y-196585771D02*
X182791485Y-195800057D01*
X182720057Y-195657200D01*
X182577200Y-195585771D01*
X182291485Y-195585771D01*
X182148628Y-195657200D01*
X182791485Y-196514342D02*
X182648628Y-196585771D01*
X182291485Y-196585771D01*
X182148628Y-196514342D01*
X182077200Y-196371485D01*
X182077200Y-196228628D01*
X182148628Y-196085771D01*
X182291485Y-196014342D01*
X182648628Y-196014342D01*
X182791485Y-195942914D01*
X184148628Y-196585771D02*
X184148628Y-195085771D01*
X184148628Y-196514342D02*
X184005771Y-196585771D01*
X183720057Y-196585771D01*
X183577200Y-196514342D01*
X183505771Y-196442914D01*
X183434342Y-196300057D01*
X183434342Y-195871485D01*
X183505771Y-195728628D01*
X183577200Y-195657200D01*
X183720057Y-195585771D01*
X184005771Y-195585771D01*
X184148628Y-195657200D01*
X186005771Y-195800057D02*
X186505771Y-195800057D01*
X186720057Y-196585771D02*
X186005771Y-196585771D01*
X186005771Y-195085771D01*
X186720057Y-195085771D01*
X187362914Y-196442914D02*
X187434342Y-196514342D01*
X187362914Y-196585771D01*
X187291485Y-196514342D01*
X187362914Y-196442914D01*
X187362914Y-196585771D01*
X188077200Y-196585771D02*
X188077200Y-195085771D01*
X188434342Y-195085771D01*
X188648628Y-195157200D01*
X188791485Y-195300057D01*
X188862914Y-195442914D01*
X188934342Y-195728628D01*
X188934342Y-195942914D01*
X188862914Y-196228628D01*
X188791485Y-196371485D01*
X188648628Y-196514342D01*
X188434342Y-196585771D01*
X188077200Y-196585771D01*
X189577200Y-196442914D02*
X189648628Y-196514342D01*
X189577200Y-196585771D01*
X189505771Y-196514342D01*
X189577200Y-196442914D01*
X189577200Y-196585771D01*
X190220057Y-196157200D02*
X190934342Y-196157200D01*
X190077200Y-196585771D02*
X190577200Y-195085771D01*
X191077200Y-196585771D01*
X191577200Y-196442914D02*
X191648628Y-196514342D01*
X191577200Y-196585771D01*
X191505771Y-196514342D01*
X191577200Y-196442914D01*
X191577200Y-196585771D01*
X194577200Y-196585771D02*
X194577200Y-195085771D01*
X194720057Y-196014342D02*
X195148628Y-196585771D01*
X195148628Y-195585771D02*
X194577200Y-196157200D01*
X195791485Y-196585771D02*
X195791485Y-195585771D01*
X195791485Y-195085771D02*
X195720057Y-195157200D01*
X195791485Y-195228628D01*
X195862914Y-195157200D01*
X195791485Y-195085771D01*
X195791485Y-195228628D01*
X197148628Y-196514342D02*
X197005771Y-196585771D01*
X196720057Y-196585771D01*
X196577200Y-196514342D01*
X196505771Y-196442914D01*
X196434342Y-196300057D01*
X196434342Y-195871485D01*
X196505771Y-195728628D01*
X196577200Y-195657200D01*
X196720057Y-195585771D01*
X197005771Y-195585771D01*
X197148628Y-195657200D01*
X198434342Y-196585771D02*
X198434342Y-195800057D01*
X198362914Y-195657200D01*
X198220057Y-195585771D01*
X197934342Y-195585771D01*
X197791485Y-195657200D01*
X198434342Y-196514342D02*
X198291485Y-196585771D01*
X197934342Y-196585771D01*
X197791485Y-196514342D01*
X197720057Y-196371485D01*
X197720057Y-196228628D01*
X197791485Y-196085771D01*
X197934342Y-196014342D01*
X198291485Y-196014342D01*
X198434342Y-195942914D01*
X199791485Y-196585771D02*
X199791485Y-195085771D01*
X199791485Y-196514342D02*
X199648628Y-196585771D01*
X199362914Y-196585771D01*
X199220057Y-196514342D01*
X199148628Y-196442914D01*
X199077200Y-196300057D01*
X199077200Y-195871485D01*
X199148628Y-195728628D01*
X199220057Y-195657200D01*
X199362914Y-195585771D01*
X199648628Y-195585771D01*
X199791485Y-195657200D01*
X202362914Y-195085771D02*
X201648628Y-195085771D01*
X201577200Y-195800057D01*
X201648628Y-195728628D01*
X201791485Y-195657200D01*
X202148628Y-195657200D01*
X202291485Y-195728628D01*
X202362914Y-195800057D01*
X202434342Y-195942914D01*
X202434342Y-196300057D01*
X202362914Y-196442914D01*
X202291485Y-196514342D01*
X202148628Y-196585771D01*
X201791485Y-196585771D01*
X201648628Y-196514342D01*
X201577200Y-196442914D01*
X203077200Y-196442914D02*
X203148628Y-196514342D01*
X203077200Y-196585771D01*
X203005771Y-196514342D01*
X203077200Y-196442914D01*
X203077200Y-196585771D01*
X204577200Y-196585771D02*
X203720057Y-196585771D01*
X204148628Y-196585771D02*
X204148628Y-195085771D01*
X204005771Y-195300057D01*
X203862914Y-195442914D01*
X203720057Y-195514342D01*
X205220057Y-196442914D02*
X205291485Y-196514342D01*
X205220057Y-196585771D01*
X205148628Y-196514342D01*
X205220057Y-196442914D01*
X205220057Y-196585771D01*
X206720057Y-196585771D02*
X205862914Y-196585771D01*
X206291485Y-196585771D02*
X206291485Y-195085771D01*
X206148628Y-195300057D01*
X206005771Y-195442914D01*
X205862914Y-195514342D01*
X207648628Y-195085771D02*
X207791485Y-195085771D01*
X207934342Y-195157200D01*
X208005771Y-195228628D01*
X208077200Y-195371485D01*
X208148628Y-195657200D01*
X208148628Y-196014342D01*
X208077200Y-196300057D01*
X208005771Y-196442914D01*
X207934342Y-196514342D01*
X207791485Y-196585771D01*
X207648628Y-196585771D01*
X207505771Y-196514342D01*
X207434342Y-196442914D01*
X207362914Y-196300057D01*
X207291485Y-196014342D01*
X207291485Y-195657200D01*
X207362914Y-195371485D01*
X207434342Y-195228628D01*
X207505771Y-195157200D01*
X207648628Y-195085771D01*
X208791485Y-196014342D02*
X209934342Y-196014342D01*
X210862914Y-195728628D02*
X210720057Y-195657200D01*
X210648628Y-195585771D01*
X210577200Y-195442914D01*
X210577200Y-195371485D01*
X210648628Y-195228628D01*
X210720057Y-195157200D01*
X210862914Y-195085771D01*
X211148628Y-195085771D01*
X211291485Y-195157200D01*
X211362914Y-195228628D01*
X211434342Y-195371485D01*
X211434342Y-195442914D01*
X211362914Y-195585771D01*
X211291485Y-195657200D01*
X211148628Y-195728628D01*
X210862914Y-195728628D01*
X210720057Y-195800057D01*
X210648628Y-195871485D01*
X210577200Y-196014342D01*
X210577200Y-196300057D01*
X210648628Y-196442914D01*
X210720057Y-196514342D01*
X210862914Y-196585771D01*
X211148628Y-196585771D01*
X211291485Y-196514342D01*
X211362914Y-196442914D01*
X211434342Y-196300057D01*
X211434342Y-196014342D01*
X211362914Y-195871485D01*
X211291485Y-195800057D01*
X211148628Y-195728628D01*
X212291485Y-195728628D02*
X212148628Y-195657200D01*
X212077200Y-195585771D01*
X212005771Y-195442914D01*
X212005771Y-195371485D01*
X212077200Y-195228628D01*
X212148628Y-195157200D01*
X212291485Y-195085771D01*
X212577200Y-195085771D01*
X212720057Y-195157200D01*
X212791485Y-195228628D01*
X212862914Y-195371485D01*
X212862914Y-195442914D01*
X212791485Y-195585771D01*
X212720057Y-195657200D01*
X212577200Y-195728628D01*
X212291485Y-195728628D01*
X212148628Y-195800057D01*
X212077200Y-195871485D01*
X212005771Y-196014342D01*
X212005771Y-196300057D01*
X212077200Y-196442914D01*
X212148628Y-196514342D01*
X212291485Y-196585771D01*
X212577200Y-196585771D01*
X212720057Y-196514342D01*
X212791485Y-196442914D01*
X212862914Y-196300057D01*
X212862914Y-196014342D01*
X212791485Y-195871485D01*
X212720057Y-195800057D01*
X212577200Y-195728628D01*
X214148628Y-196585771D02*
X214148628Y-195800057D01*
X214077200Y-195657200D01*
X213934342Y-195585771D01*
X213648628Y-195585771D01*
X213505771Y-195657200D01*
X214148628Y-196514342D02*
X214005771Y-196585771D01*
X213648628Y-196585771D01*
X213505771Y-196514342D01*
X213434342Y-196371485D01*
X213434342Y-196228628D01*
X213505771Y-196085771D01*
X213648628Y-196014342D01*
X214005771Y-196014342D01*
X214148628Y-195942914D01*
X215648628Y-196585771D02*
X214791485Y-196585771D01*
X215220057Y-196585771D02*
X215220057Y-195085771D01*
X215077200Y-195300057D01*
X214934342Y-195442914D01*
X214791485Y-195514342D01*
X216934342Y-196585771D02*
X216934342Y-195085771D01*
X216934342Y-196514342D02*
X216791485Y-196585771D01*
X216505771Y-196585771D01*
X216362914Y-196514342D01*
X216291485Y-196442914D01*
X216220057Y-196300057D01*
X216220057Y-195871485D01*
X216291485Y-195728628D01*
X216362914Y-195657200D01*
X216505771Y-195585771D01*
X216791485Y-195585771D01*
X216934342Y-195657200D01*
X218291485Y-195085771D02*
X218005771Y-195085771D01*
X217862914Y-195157200D01*
X217791485Y-195228628D01*
X217648628Y-195442914D01*
X217577200Y-195728628D01*
X217577200Y-196300057D01*
X217648628Y-196442914D01*
X217720057Y-196514342D01*
X217862914Y-196585771D01*
X218148628Y-196585771D01*
X218291485Y-196514342D01*
X218362914Y-196442914D01*
X218434342Y-196300057D01*
X218434342Y-195942914D01*
X218362914Y-195800057D01*
X218291485Y-195728628D01*
X218148628Y-195657200D01*
X217862914Y-195657200D01*
X217720057Y-195728628D01*
X217648628Y-195800057D01*
X217577200Y-195942914D01*
X219862914Y-196585771D02*
X219005771Y-196585771D01*
X219434342Y-196585771D02*
X219434342Y-195085771D01*
X219291485Y-195300057D01*
X219148628Y-195442914D01*
X219005771Y-195514342D01*
X221148628Y-196585771D02*
X221148628Y-195085771D01*
X221148628Y-196514342D02*
X221005771Y-196585771D01*
X220720057Y-196585771D01*
X220577200Y-196514342D01*
X220505771Y-196442914D01*
X220434342Y-196300057D01*
X220434342Y-195871485D01*
X220505771Y-195728628D01*
X220577200Y-195657200D01*
X220720057Y-195585771D01*
X221005771Y-195585771D01*
X221148628Y-195657200D01*
X222577200Y-195085771D02*
X221862914Y-195085771D01*
X221791485Y-195800057D01*
X221862914Y-195728628D01*
X222005771Y-195657200D01*
X222362914Y-195657200D01*
X222505771Y-195728628D01*
X222577200Y-195800057D01*
X222648628Y-195942914D01*
X222648628Y-196300057D01*
X222577200Y-196442914D01*
X222505771Y-196514342D01*
X222362914Y-196585771D01*
X222005771Y-196585771D01*
X221862914Y-196514342D01*
X221791485Y-196442914D01*
X223505771Y-195728628D02*
X223362914Y-195657200D01*
X223291485Y-195585771D01*
X223220057Y-195442914D01*
X223220057Y-195371485D01*
X223291485Y-195228628D01*
X223362914Y-195157200D01*
X223505771Y-195085771D01*
X223791485Y-195085771D01*
X223934342Y-195157200D01*
X224005771Y-195228628D01*
X224077200Y-195371485D01*
X224077200Y-195442914D01*
X224005771Y-195585771D01*
X223934342Y-195657200D01*
X223791485Y-195728628D01*
X223505771Y-195728628D01*
X223362914Y-195800057D01*
X223291485Y-195871485D01*
X223220057Y-196014342D01*
X223220057Y-196300057D01*
X223291485Y-196442914D01*
X223362914Y-196514342D01*
X223505771Y-196585771D01*
X223791485Y-196585771D01*
X223934342Y-196514342D01*
X224005771Y-196442914D01*
X224077200Y-196300057D01*
X224077200Y-196014342D01*
X224005771Y-195871485D01*
X223934342Y-195800057D01*
X223791485Y-195728628D01*
X224362914Y-194677200D02*
X225791485Y-194677200D01*
X224934342Y-195728628D02*
X224791485Y-195657200D01*
X224720057Y-195585771D01*
X224648628Y-195442914D01*
X224648628Y-195371485D01*
X224720057Y-195228628D01*
X224791485Y-195157200D01*
X224934342Y-195085771D01*
X225220057Y-195085771D01*
X225362914Y-195157200D01*
X225434342Y-195228628D01*
X225505771Y-195371485D01*
X225505771Y-195442914D01*
X225434342Y-195585771D01*
X225362914Y-195657200D01*
X225220057Y-195728628D01*
X224934342Y-195728628D01*
X224791485Y-195800057D01*
X224720057Y-195871485D01*
X224648628Y-196014342D01*
X224648628Y-196300057D01*
X224720057Y-196442914D01*
X224791485Y-196514342D01*
X224934342Y-196585771D01*
X225220057Y-196585771D01*
X225362914Y-196514342D01*
X225434342Y-196442914D01*
X225505771Y-196300057D01*
X225505771Y-196014342D01*
X225434342Y-195871485D01*
X225362914Y-195800057D01*
X225220057Y-195728628D01*
X225791485Y-194677200D02*
X227220057Y-194677200D01*
X226362914Y-195728628D02*
X226220057Y-195657200D01*
X226148628Y-195585771D01*
X226077199Y-195442914D01*
X226077199Y-195371485D01*
X226148628Y-195228628D01*
X226220057Y-195157200D01*
X226362914Y-195085771D01*
X226648628Y-195085771D01*
X226791485Y-195157200D01*
X226862914Y-195228628D01*
X226934342Y-195371485D01*
X226934342Y-195442914D01*
X226862914Y-195585771D01*
X226791485Y-195657200D01*
X226648628Y-195728628D01*
X226362914Y-195728628D01*
X226220057Y-195800057D01*
X226148628Y-195871485D01*
X226077199Y-196014342D01*
X226077199Y-196300057D01*
X226148628Y-196442914D01*
X226220057Y-196514342D01*
X226362914Y-196585771D01*
X226648628Y-196585771D01*
X226791485Y-196514342D01*
X226862914Y-196442914D01*
X226934342Y-196300057D01*
X226934342Y-196014342D01*
X226862914Y-195871485D01*
X226791485Y-195800057D01*
X226648628Y-195728628D01*
X228220057Y-195585771D02*
X228220057Y-196585771D01*
X227577199Y-195585771D02*
X227577199Y-196371485D01*
X227648628Y-196514342D01*
X227791485Y-196585771D01*
X228005771Y-196585771D01*
X228148628Y-196514342D01*
X228220057Y-196442914D01*
X228934342Y-196585771D02*
X228934342Y-195085771D01*
X228934342Y-195657200D02*
X229077199Y-195585771D01*
X229362914Y-195585771D01*
X229505771Y-195657200D01*
X229577199Y-195728628D01*
X229648628Y-195871485D01*
X229648628Y-196300057D01*
X229577199Y-196442914D01*
X229505771Y-196514342D01*
X229362914Y-196585771D01*
X229077199Y-196585771D01*
X228934342Y-196514342D01*
X230934342Y-195585771D02*
X230934342Y-196585771D01*
X230291485Y-195585771D02*
X230291485Y-196371485D01*
X230362914Y-196514342D01*
X230505771Y-196585771D01*
X230720057Y-196585771D01*
X230862914Y-196514342D01*
X230934342Y-196442914D01*
X231648628Y-195585771D02*
X231648628Y-196585771D01*
X231648628Y-195728628D02*
X231720057Y-195657200D01*
X231862914Y-195585771D01*
X232077199Y-195585771D01*
X232220057Y-195657200D01*
X232291485Y-195800057D01*
X232291485Y-196585771D01*
X232791485Y-195585771D02*
X233362914Y-195585771D01*
X233005771Y-195085771D02*
X233005771Y-196371485D01*
X233077199Y-196514342D01*
X233220057Y-196585771D01*
X233362914Y-196585771D01*
X234505771Y-195585771D02*
X234505771Y-196585771D01*
X233862914Y-195585771D02*
X233862914Y-196371485D01*
X233934342Y-196514342D01*
X234077200Y-196585771D01*
X234291485Y-196585771D01*
X234434342Y-196514342D01*
X234505771Y-196442914D01*
X235148628Y-195228628D02*
X235220057Y-195157200D01*
X235362914Y-195085771D01*
X235720057Y-195085771D01*
X235862914Y-195157200D01*
X235934342Y-195228628D01*
X236005771Y-195371485D01*
X236005771Y-195514342D01*
X235934342Y-195728628D01*
X235077200Y-196585771D01*
X236005771Y-196585771D01*
X236934342Y-195085771D02*
X237077199Y-195085771D01*
X237220057Y-195157200D01*
X237291485Y-195228628D01*
X237362914Y-195371485D01*
X237434342Y-195657200D01*
X237434342Y-196014342D01*
X237362914Y-196300057D01*
X237291485Y-196442914D01*
X237220057Y-196514342D01*
X237077199Y-196585771D01*
X236934342Y-196585771D01*
X236791485Y-196514342D01*
X236720057Y-196442914D01*
X236648628Y-196300057D01*
X236577199Y-196014342D01*
X236577199Y-195657200D01*
X236648628Y-195371485D01*
X236720057Y-195228628D01*
X236791485Y-195157200D01*
X236934342Y-195085771D01*
X238077199Y-196442914D02*
X238148628Y-196514342D01*
X238077199Y-196585771D01*
X238005771Y-196514342D01*
X238077199Y-196442914D01*
X238077199Y-196585771D01*
X239077199Y-195085771D02*
X239220057Y-195085771D01*
X239362914Y-195157200D01*
X239434342Y-195228628D01*
X239505771Y-195371485D01*
X239577199Y-195657200D01*
X239577199Y-196014342D01*
X239505771Y-196300057D01*
X239434342Y-196442914D01*
X239362914Y-196514342D01*
X239220057Y-196585771D01*
X239077199Y-196585771D01*
X238934342Y-196514342D01*
X238862914Y-196442914D01*
X238791485Y-196300057D01*
X238720057Y-196014342D01*
X238720057Y-195657200D01*
X238791485Y-195371485D01*
X238862914Y-195228628D01*
X238934342Y-195157200D01*
X239077199Y-195085771D01*
X240862914Y-195585771D02*
X240862914Y-196585771D01*
X240505771Y-195014342D02*
X240148628Y-196085771D01*
X241077199Y-196085771D01*
X241648628Y-196442914D02*
X241720057Y-196514342D01*
X241648628Y-196585771D01*
X241577199Y-196514342D01*
X241648628Y-196442914D01*
X241648628Y-196585771D01*
X243148628Y-196585771D02*
X242291485Y-196585771D01*
X242720057Y-196585771D02*
X242720057Y-195085771D01*
X242577199Y-195300057D01*
X242434342Y-195442914D01*
X242291485Y-195514342D01*
D10*
D11*
X177002200Y-191507200D02*
X285002200Y-191507200D01*
D10*
D12*
X264411485Y-193785771D02*
X263911485Y-193071485D01*
X263554342Y-193785771D02*
X263554342Y-192285771D01*
X264125771Y-192285771D01*
X264268628Y-192357200D01*
X264340057Y-192428628D01*
X264411485Y-192571485D01*
X264411485Y-192785771D01*
X264340057Y-192928628D01*
X264268628Y-193000057D01*
X264125771Y-193071485D01*
X263554342Y-193071485D01*
X265625771Y-193714342D02*
X265482914Y-193785771D01*
X265197200Y-193785771D01*
X265054342Y-193714342D01*
X264982914Y-193571485D01*
X264982914Y-193000057D01*
X265054342Y-192857200D01*
X265197200Y-192785771D01*
X265482914Y-192785771D01*
X265625771Y-192857200D01*
X265697200Y-193000057D01*
X265697200Y-193142914D01*
X264982914Y-193285771D01*
X266197200Y-192785771D02*
X266554342Y-193785771D01*
X266911485Y-192785771D01*
X267482914Y-193642914D02*
X267554342Y-193714342D01*
X267482914Y-193785771D01*
X267411485Y-193714342D01*
X267482914Y-193642914D01*
X267482914Y-193785771D01*
X267482914Y-192857200D02*
X267554342Y-192928628D01*
X267482914Y-193000057D01*
X267411485Y-192928628D01*
X267482914Y-192857200D01*
X267482914Y-193000057D01*
X269840057Y-193000057D02*
X270054342Y-193071485D01*
X270125771Y-193142914D01*
X270197200Y-193285771D01*
X270197200Y-193500057D01*
X270125771Y-193642914D01*
X270054342Y-193714342D01*
X269911485Y-193785771D01*
X269340057Y-193785771D01*
X269340057Y-192285771D01*
X269840057Y-192285771D01*
X269982914Y-192357200D01*
X270054342Y-192428628D01*
X270125771Y-192571485D01*
X270125771Y-192714342D01*
X270054342Y-192857200D01*
X269982914Y-192928628D01*
X269840057Y-193000057D01*
X269340057Y-193000057D01*
D10*
D11*
X178362914Y-193714342D02*
X178577200Y-193785771D01*
X178934342Y-193785771D01*
X179077200Y-193714342D01*
X179148628Y-193642914D01*
X179220057Y-193500057D01*
X179220057Y-193357200D01*
X179148628Y-193214342D01*
X179077200Y-193142914D01*
X178934342Y-193071485D01*
X178648628Y-193000057D01*
X178505771Y-192928628D01*
X178434342Y-192857200D01*
X178362914Y-192714342D01*
X178362914Y-192571485D01*
X178434342Y-192428628D01*
X178505771Y-192357200D01*
X178648628Y-192285771D01*
X179005771Y-192285771D01*
X179220057Y-192357200D01*
X179862914Y-193785771D02*
X179862914Y-192785771D01*
X179862914Y-192285771D02*
X179791485Y-192357200D01*
X179862914Y-192428628D01*
X179934342Y-192357200D01*
X179862914Y-192285771D01*
X179862914Y-192428628D01*
X180434342Y-192785771D02*
X181220057Y-192785771D01*
X180434342Y-193785771D01*
X181220057Y-193785771D01*
X182362914Y-193714342D02*
X182220057Y-193785771D01*
X181934342Y-193785771D01*
X181791485Y-193714342D01*
X181720057Y-193571485D01*
X181720057Y-193000057D01*
X181791485Y-192857200D01*
X181934342Y-192785771D01*
X182220057Y-192785771D01*
X182362914Y-192857200D01*
X182434342Y-193000057D01*
X182434342Y-193142914D01*
X181720057Y-193285771D01*
X183077200Y-193642914D02*
X183148628Y-193714342D01*
X183077200Y-193785771D01*
X183005771Y-193714342D01*
X183077200Y-193642914D01*
X183077200Y-193785771D01*
X183077200Y-192857200D02*
X183148628Y-192928628D01*
X183077200Y-193000057D01*
X183005771Y-192928628D01*
X183077200Y-192857200D01*
X183077200Y-193000057D01*
X184862914Y-193357200D02*
X185577200Y-193357200D01*
X184720057Y-193785771D02*
X185220057Y-192285771D01*
X185720057Y-193785771D01*
X186862914Y-192785771D02*
X186862914Y-193785771D01*
X186505771Y-192214342D02*
X186148628Y-193285771D01*
X187077200Y-193285771D01*
D10*
D11*
X263434342Y-196585771D02*
X263434342Y-195085771D01*
X264791485Y-196585771D02*
X264791485Y-195085771D01*
X264791485Y-196514342D02*
X264648628Y-196585771D01*
X264362914Y-196585771D01*
X264220057Y-196514342D01*
X264148628Y-196442914D01*
X264077200Y-196300057D01*
X264077200Y-195871485D01*
X264148628Y-195728628D01*
X264220057Y-195657200D01*
X264362914Y-195585771D01*
X264648628Y-195585771D01*
X264791485Y-195657200D01*
X265505771Y-196442914D02*
X265577200Y-196514342D01*
X265505771Y-196585771D01*
X265434342Y-196514342D01*
X265505771Y-196442914D01*
X265505771Y-196585771D01*
X265505771Y-195657200D02*
X265577200Y-195728628D01*
X265505771Y-195800057D01*
X265434342Y-195728628D01*
X265505771Y-195657200D01*
X265505771Y-195800057D01*
X268148628Y-196585771D02*
X267291485Y-196585771D01*
X267720057Y-196585771D02*
X267720057Y-195085771D01*
X267577200Y-195300057D01*
X267434342Y-195442914D01*
X267291485Y-195514342D01*
X269862914Y-195014342D02*
X268577200Y-196942914D01*
X271148628Y-196585771D02*
X270291485Y-196585771D01*
X270720057Y-196585771D02*
X270720057Y-195085771D01*
X270577200Y-195300057D01*
X270434342Y-195442914D01*
X270291485Y-195514342D01*
D10*
D11*
X177002200Y-187507200D02*
X285002200Y-187507200D01*
D10*
D13*
X178714580Y-188211961D02*
X179857438Y-188211961D01*
X179036009Y-190211961D02*
X179286009Y-188211961D01*
X180274104Y-190211961D02*
X180440771Y-188878628D01*
X180524104Y-188211961D02*
X180416961Y-188307200D01*
X180500295Y-188402438D01*
X180607438Y-188307200D01*
X180524104Y-188211961D01*
X180500295Y-188402438D01*
X181107438Y-188878628D02*
X181869342Y-188878628D01*
X181476485Y-188211961D02*
X181262200Y-189926247D01*
X181333628Y-190116723D01*
X181512200Y-190211961D01*
X181702676Y-190211961D01*
X182655057Y-190211961D02*
X182476485Y-190116723D01*
X182405057Y-189926247D01*
X182619342Y-188211961D01*
X184190771Y-190116723D02*
X183988390Y-190211961D01*
X183607438Y-190211961D01*
X183428866Y-190116723D01*
X183357438Y-189926247D01*
X183452676Y-189164342D01*
X183571723Y-188973866D01*
X183774104Y-188878628D01*
X184155057Y-188878628D01*
X184333628Y-188973866D01*
X184405057Y-189164342D01*
X184381247Y-189354819D01*
X183405057Y-189545295D01*
X185155057Y-190021485D02*
X185238390Y-190116723D01*
X185131247Y-190211961D01*
X185047914Y-190116723D01*
X185155057Y-190021485D01*
X185131247Y-190211961D01*
X185286009Y-188973866D02*
X185369342Y-189069104D01*
X185262200Y-189164342D01*
X185178866Y-189069104D01*
X185286009Y-188973866D01*
X185262200Y-189164342D01*
X187607438Y-190211961D02*
X187857438Y-188211961D01*
X188619342Y-188211961D01*
X188797914Y-188307200D01*
X188881247Y-188402438D01*
X188952676Y-188592914D01*
X188916961Y-188878628D01*
X188797914Y-189069104D01*
X188690771Y-189164342D01*
X188488390Y-189259580D01*
X187726485Y-189259580D01*
X189893152Y-190211961D02*
X189714580Y-190116723D01*
X189631247Y-190021485D01*
X189559819Y-189831009D01*
X189631247Y-189259580D01*
X189750295Y-189069104D01*
X189857438Y-188973866D01*
X190059819Y-188878628D01*
X190345533Y-188878628D01*
X190524104Y-188973866D01*
X190607438Y-189069104D01*
X190678866Y-189259580D01*
X190607438Y-189831009D01*
X190488390Y-190021485D01*
X190381247Y-190116723D01*
X190178866Y-190211961D01*
X189893152Y-190211961D01*
X191416961Y-190211961D02*
X191583628Y-188878628D01*
X191536009Y-189259580D02*
X191655057Y-189069104D01*
X191762200Y-188973866D01*
X191964580Y-188878628D01*
X192155057Y-188878628D01*
X192536009Y-188878628D02*
X193297914Y-188878628D01*
X192905057Y-188211961D02*
X192690771Y-189926247D01*
X192762200Y-190116723D01*
X192940771Y-190211961D01*
X193131247Y-190211961D01*
X194655057Y-190211961D02*
X194786009Y-189164342D01*
X194714580Y-188973866D01*
X194536009Y-188878628D01*
X194155057Y-188878628D01*
X193952676Y-188973866D01*
X194666961Y-190116723D02*
X194464580Y-190211961D01*
X193988390Y-190211961D01*
X193809819Y-190116723D01*
X193738390Y-189926247D01*
X193762200Y-189735771D01*
X193881247Y-189545295D01*
X194083628Y-189450057D01*
X194559819Y-189450057D01*
X194762200Y-189354819D01*
X195893152Y-190211961D02*
X195714580Y-190116723D01*
X195643152Y-189926247D01*
X195857438Y-188211961D01*
X199464580Y-188307200D02*
X199286009Y-188211961D01*
X199000295Y-188211961D01*
X198702676Y-188307200D01*
X198488390Y-188497676D01*
X198369342Y-188688152D01*
X198226485Y-189069104D01*
X198190771Y-189354819D01*
X198238390Y-189735771D01*
X198309819Y-189926247D01*
X198476485Y-190116723D01*
X198750295Y-190211961D01*
X198940771Y-190211961D01*
X199238390Y-190116723D01*
X199345533Y-190021485D01*
X199428866Y-189354819D01*
X199047914Y-189354819D01*
X201202676Y-188878628D02*
X201036009Y-190211961D01*
X200345533Y-188878628D02*
X200214580Y-189926247D01*
X200286009Y-190116723D01*
X200464580Y-190211961D01*
X200750295Y-190211961D01*
X200952676Y-190116723D01*
X201059819Y-190021485D01*
X202155057Y-188878628D02*
X201988390Y-190211961D01*
X202131247Y-189069104D02*
X202238390Y-188973866D01*
X202440771Y-188878628D01*
X202726485Y-188878628D01*
X202905057Y-188973866D01*
X202976485Y-189164342D01*
X202845533Y-190211961D01*
X205321723Y-190211961D02*
X205571723Y-188211961D01*
X206059819Y-189640533D01*
X206905057Y-188211961D01*
X206655057Y-190211961D01*
X208464580Y-190211961D02*
X208595533Y-189164342D01*
X208524104Y-188973866D01*
X208345533Y-188878628D01*
X207964580Y-188878628D01*
X207762200Y-188973866D01*
X208476485Y-190116723D02*
X208274104Y-190211961D01*
X207797914Y-190211961D01*
X207619342Y-190116723D01*
X207547914Y-189926247D01*
X207571723Y-189735771D01*
X207690771Y-189545295D01*
X207893152Y-189450057D01*
X208369342Y-189450057D01*
X208571723Y-189354819D01*
X209416961Y-190211961D02*
X209583628Y-188878628D01*
X209666961Y-188211961D02*
X209559819Y-188307200D01*
X209643152Y-188402438D01*
X209750295Y-188307200D01*
X209666961Y-188211961D01*
X209643152Y-188402438D01*
X210536009Y-188878628D02*
X210369342Y-190211961D01*
X210512200Y-189069104D02*
X210619342Y-188973866D01*
X210821723Y-188878628D01*
X211107438Y-188878628D01*
X211286009Y-188973866D01*
X211357438Y-189164342D01*
X211226485Y-190211961D01*
X214500295Y-189164342D02*
X214774104Y-189259580D01*
X214857438Y-189354819D01*
X214928866Y-189545295D01*
X214893152Y-189831009D01*
X214774104Y-190021485D01*
X214666961Y-190116723D01*
X214464580Y-190211961D01*
X213702676Y-190211961D01*
X213952676Y-188211961D01*
X214619342Y-188211961D01*
X214797914Y-188307200D01*
X214881247Y-188402438D01*
X214952676Y-188592914D01*
X214928866Y-188783390D01*
X214809819Y-188973866D01*
X214702676Y-189069104D01*
X214500295Y-189164342D01*
X213833628Y-189164342D01*
X215988390Y-190211961D02*
X215809819Y-190116723D01*
X215726485Y-190021485D01*
X215655057Y-189831009D01*
X215726485Y-189259580D01*
X215845533Y-189069104D01*
X215952676Y-188973866D01*
X216155057Y-188878628D01*
X216440771Y-188878628D01*
X216619342Y-188973866D01*
X216702676Y-189069104D01*
X216774104Y-189259580D01*
X216702676Y-189831009D01*
X216583628Y-190021485D01*
X216476485Y-190116723D01*
X216274104Y-190211961D01*
X215988390Y-190211961D01*
X218369342Y-190211961D02*
X218500295Y-189164342D01*
X218428866Y-188973866D01*
X218250295Y-188878628D01*
X217869342Y-188878628D01*
X217666961Y-188973866D01*
X218381247Y-190116723D02*
X218178866Y-190211961D01*
X217702676Y-190211961D01*
X217524104Y-190116723D01*
X217452676Y-189926247D01*
X217476485Y-189735771D01*
X217595533Y-189545295D01*
X217797914Y-189450057D01*
X218274104Y-189450057D01*
X218476485Y-189354819D01*
X219321723Y-190211961D02*
X219488390Y-188878628D01*
X219440771Y-189259580D02*
X219559819Y-189069104D01*
X219666961Y-188973866D01*
X219869342Y-188878628D01*
X220059819Y-188878628D01*
X221416961Y-190211961D02*
X221666961Y-188211961D01*
X221428866Y-190116723D02*
X221226485Y-190211961D01*
X220845533Y-190211961D01*
X220666961Y-190116723D01*
X220583628Y-190021485D01*
X220512200Y-189831009D01*
X220583628Y-189259580D01*
X220702676Y-189069104D01*
X220809819Y-188973866D01*
X221012200Y-188878628D01*
X221393152Y-188878628D01*
X221571723Y-188973866D01*
D10*
D11*
X178934342Y-185600057D02*
X178434342Y-185600057D01*
X178434342Y-186385771D02*
X178434342Y-184885771D01*
X179148628Y-184885771D01*
X179720057Y-186385771D02*
X179720057Y-185385771D01*
X179720057Y-184885771D02*
X179648628Y-184957200D01*
X179720057Y-185028628D01*
X179791485Y-184957200D01*
X179720057Y-184885771D01*
X179720057Y-185028628D01*
X180648628Y-186385771D02*
X180505771Y-186314342D01*
X180434342Y-186171485D01*
X180434342Y-184885771D01*
X181791485Y-186314342D02*
X181648628Y-186385771D01*
X181362914Y-186385771D01*
X181220057Y-186314342D01*
X181148628Y-186171485D01*
X181148628Y-185600057D01*
X181220057Y-185457200D01*
X181362914Y-185385771D01*
X181648628Y-185385771D01*
X181791485Y-185457200D01*
X181862914Y-185600057D01*
X181862914Y-185742914D01*
X181148628Y-185885771D01*
X182505771Y-186242914D02*
X182577200Y-186314342D01*
X182505771Y-186385771D01*
X182434342Y-186314342D01*
X182505771Y-186242914D01*
X182505771Y-186385771D01*
X182505771Y-185457200D02*
X182577200Y-185528628D01*
X182505771Y-185600057D01*
X182434342Y-185528628D01*
X182505771Y-185457200D01*
X182505771Y-185600057D01*
X184362914Y-185385771D02*
X184362914Y-186885771D01*
X184362914Y-185457200D02*
X184505771Y-185385771D01*
X184791485Y-185385771D01*
X184934342Y-185457200D01*
X185005771Y-185528628D01*
X185077200Y-185671485D01*
X185077200Y-186100057D01*
X185005771Y-186242914D01*
X184934342Y-186314342D01*
X184791485Y-186385771D01*
X184505771Y-186385771D01*
X184362914Y-186314342D01*
X185934342Y-186385771D02*
X185791485Y-186314342D01*
X185720057Y-186242914D01*
X185648628Y-186100057D01*
X185648628Y-185671485D01*
X185720057Y-185528628D01*
X185791485Y-185457200D01*
X185934342Y-185385771D01*
X186148628Y-185385771D01*
X186291485Y-185457200D01*
X186362914Y-185528628D01*
X186434342Y-185671485D01*
X186434342Y-186100057D01*
X186362914Y-186242914D01*
X186291485Y-186314342D01*
X186148628Y-186385771D01*
X185934342Y-186385771D01*
X187077200Y-186385771D02*
X187077200Y-185385771D01*
X187077200Y-185671485D02*
X187148628Y-185528628D01*
X187220057Y-185457200D01*
X187362914Y-185385771D01*
X187505771Y-185385771D01*
X187791485Y-185385771D02*
X188362914Y-185385771D01*
X188005771Y-184885771D02*
X188005771Y-186171485D01*
X188077200Y-186314342D01*
X188220057Y-186385771D01*
X188362914Y-186385771D01*
X189505771Y-186385771D02*
X189505771Y-185600057D01*
X189434342Y-185457200D01*
X189291485Y-185385771D01*
X189005771Y-185385771D01*
X188862914Y-185457200D01*
X189505771Y-186314342D02*
X189362914Y-186385771D01*
X189005771Y-186385771D01*
X188862914Y-186314342D01*
X188791485Y-186171485D01*
X188791485Y-186028628D01*
X188862914Y-185885771D01*
X189005771Y-185814342D01*
X189362914Y-185814342D01*
X189505771Y-185742914D01*
X190434342Y-186385771D02*
X190291485Y-186314342D01*
X190220057Y-186171485D01*
X190220057Y-184885771D01*
X191648628Y-185385771D02*
X191648628Y-186600057D01*
X191577200Y-186742914D01*
X191505771Y-186814342D01*
X191362914Y-186885771D01*
X191148628Y-186885771D01*
X191005771Y-186814342D01*
X191648628Y-186314342D02*
X191505771Y-186385771D01*
X191220057Y-186385771D01*
X191077200Y-186314342D01*
X191005771Y-186242914D01*
X190934342Y-186100057D01*
X190934342Y-185671485D01*
X191005771Y-185528628D01*
X191077200Y-185457200D01*
X191220057Y-185385771D01*
X191505771Y-185385771D01*
X191648628Y-185457200D01*
X193005771Y-185385771D02*
X193005771Y-186385771D01*
X192362914Y-185385771D02*
X192362914Y-186171485D01*
X192434342Y-186314342D01*
X192577200Y-186385771D01*
X192791485Y-186385771D01*
X192934342Y-186314342D01*
X193005771Y-186242914D01*
X193720057Y-185385771D02*
X193720057Y-186385771D01*
X193720057Y-185528628D02*
X193791485Y-185457200D01*
X193934342Y-185385771D01*
X194148628Y-185385771D01*
X194291485Y-185457200D01*
X194362914Y-185600057D01*
X194362914Y-186385771D01*
X195077200Y-186242914D02*
X195148628Y-186314342D01*
X195077200Y-186385771D01*
X195005771Y-186314342D01*
X195077200Y-186242914D01*
X195077200Y-186385771D01*
X195791485Y-186385771D02*
X195791485Y-184885771D01*
X195934342Y-185814342D02*
X196362914Y-186385771D01*
X196362914Y-185385771D02*
X195791485Y-185957200D01*
X197005771Y-186385771D02*
X197005771Y-185385771D01*
X197005771Y-184885771D02*
X196934342Y-184957200D01*
X197005771Y-185028628D01*
X197077200Y-184957200D01*
X197005771Y-184885771D01*
X197005771Y-185028628D01*
X198362914Y-186314342D02*
X198220057Y-186385771D01*
X197934342Y-186385771D01*
X197791485Y-186314342D01*
X197720057Y-186242914D01*
X197648628Y-186100057D01*
X197648628Y-185671485D01*
X197720057Y-185528628D01*
X197791485Y-185457200D01*
X197934342Y-185385771D01*
X198220057Y-185385771D01*
X198362914Y-185457200D01*
X199648628Y-186385771D02*
X199648628Y-185600057D01*
X199577200Y-185457200D01*
X199434342Y-185385771D01*
X199148628Y-185385771D01*
X199005771Y-185457200D01*
X199648628Y-186314342D02*
X199505771Y-186385771D01*
X199148628Y-186385771D01*
X199005771Y-186314342D01*
X198934342Y-186171485D01*
X198934342Y-186028628D01*
X199005771Y-185885771D01*
X199148628Y-185814342D01*
X199505771Y-185814342D01*
X199648628Y-185742914D01*
X201005771Y-186385771D02*
X201005771Y-184885771D01*
X201005771Y-186314342D02*
X200862914Y-186385771D01*
X200577200Y-186385771D01*
X200434342Y-186314342D01*
X200362914Y-186242914D01*
X200291485Y-186100057D01*
X200291485Y-185671485D01*
X200362914Y-185528628D01*
X200434342Y-185457200D01*
X200577200Y-185385771D01*
X200862914Y-185385771D01*
X201005771Y-185457200D01*
X201362914Y-186528628D02*
X202505771Y-186528628D01*
X202862914Y-185385771D02*
X202862914Y-186885771D01*
X202862914Y-185457200D02*
X203005771Y-185385771D01*
X203291485Y-185385771D01*
X203434342Y-185457200D01*
X203505771Y-185528628D01*
X203577200Y-185671485D01*
X203577200Y-186100057D01*
X203505771Y-186242914D01*
X203434342Y-186314342D01*
X203291485Y-186385771D01*
X203005771Y-186385771D01*
X202862914Y-186314342D01*
X204862914Y-186314342D02*
X204720057Y-186385771D01*
X204434342Y-186385771D01*
X204291485Y-186314342D01*
X204220057Y-186242914D01*
X204148628Y-186100057D01*
X204148628Y-185671485D01*
X204220057Y-185528628D01*
X204291485Y-185457200D01*
X204434342Y-185385771D01*
X204720057Y-185385771D01*
X204862914Y-185457200D01*
X205505771Y-186385771D02*
X205505771Y-184885771D01*
X205505771Y-185457200D02*
X205648628Y-185385771D01*
X205934342Y-185385771D01*
X206077200Y-185457200D01*
X206148628Y-185528628D01*
X206220057Y-185671485D01*
X206220057Y-186100057D01*
X206148628Y-186242914D01*
X206077200Y-186314342D01*
X205934342Y-186385771D01*
X205648628Y-186385771D01*
X205505771Y-186314342D01*
D10*
D11*
X177002200Y-181507200D02*
X285002200Y-181507200D01*
D10*
D11*
X178362914Y-183614342D02*
X178577200Y-183685771D01*
X178934342Y-183685771D01*
X179077200Y-183614342D01*
X179148628Y-183542914D01*
X179220057Y-183400057D01*
X179220057Y-183257200D01*
X179148628Y-183114342D01*
X179077200Y-183042914D01*
X178934342Y-182971485D01*
X178648628Y-182900057D01*
X178505771Y-182828628D01*
X178434342Y-182757200D01*
X178362914Y-182614342D01*
X178362914Y-182471485D01*
X178434342Y-182328628D01*
X178505771Y-182257200D01*
X178648628Y-182185771D01*
X179005771Y-182185771D01*
X179220057Y-182257200D01*
X179862914Y-183685771D02*
X179862914Y-182185771D01*
X180505771Y-183685771D02*
X180505771Y-182900057D01*
X180434342Y-182757200D01*
X180291485Y-182685771D01*
X180077200Y-182685771D01*
X179934342Y-182757200D01*
X179862914Y-182828628D01*
X181791485Y-183614342D02*
X181648628Y-183685771D01*
X181362914Y-183685771D01*
X181220057Y-183614342D01*
X181148628Y-183471485D01*
X181148628Y-182900057D01*
X181220057Y-182757200D01*
X181362914Y-182685771D01*
X181648628Y-182685771D01*
X181791485Y-182757200D01*
X181862914Y-182900057D01*
X181862914Y-183042914D01*
X181148628Y-183185771D01*
X183077200Y-183614342D02*
X182934342Y-183685771D01*
X182648628Y-183685771D01*
X182505771Y-183614342D01*
X182434342Y-183471485D01*
X182434342Y-182900057D01*
X182505771Y-182757200D01*
X182648628Y-182685771D01*
X182934342Y-182685771D01*
X183077200Y-182757200D01*
X183148628Y-182900057D01*
X183148628Y-183042914D01*
X182434342Y-183185771D01*
X183577200Y-182685771D02*
X184148628Y-182685771D01*
X183791485Y-182185771D02*
X183791485Y-183471485D01*
X183862914Y-183614342D01*
X184005771Y-183685771D01*
X184148628Y-183685771D01*
X184648628Y-183542914D02*
X184720057Y-183614342D01*
X184648628Y-183685771D01*
X184577200Y-183614342D01*
X184648628Y-183542914D01*
X184648628Y-183685771D01*
X184648628Y-182757200D02*
X184720057Y-182828628D01*
X184648628Y-182900057D01*
X184577200Y-182828628D01*
X184648628Y-182757200D01*
X184648628Y-182900057D01*
D10*
D12*
X178982914Y-179185771D02*
X178982914Y-180257200D01*
X178911485Y-180471485D01*
X178768628Y-180614342D01*
X178554342Y-180685771D01*
X178411485Y-180685771D01*
X180340057Y-180685771D02*
X180340057Y-179900057D01*
X180268628Y-179757200D01*
X180125771Y-179685771D01*
X179840057Y-179685771D01*
X179697200Y-179757200D01*
X180340057Y-180614342D02*
X180197200Y-180685771D01*
X179840057Y-180685771D01*
X179697200Y-180614342D01*
X179625771Y-180471485D01*
X179625771Y-180328628D01*
X179697200Y-180185771D01*
X179840057Y-180114342D01*
X180197200Y-180114342D01*
X180340057Y-180042914D01*
X181697200Y-180614342D02*
X181554342Y-180685771D01*
X181268628Y-180685771D01*
X181125771Y-180614342D01*
X181054342Y-180542914D01*
X180982914Y-180400057D01*
X180982914Y-179971485D01*
X181054342Y-179828628D01*
X181125771Y-179757200D01*
X181268628Y-179685771D01*
X181554342Y-179685771D01*
X181697200Y-179757200D01*
X182554342Y-180685771D02*
X182411485Y-180614342D01*
X182340057Y-180542914D01*
X182268628Y-180400057D01*
X182268628Y-179971485D01*
X182340057Y-179828628D01*
X182411485Y-179757200D01*
X182554342Y-179685771D01*
X182768628Y-179685771D01*
X182911485Y-179757200D01*
X182982914Y-179828628D01*
X183054342Y-179971485D01*
X183054342Y-180400057D01*
X182982914Y-180542914D01*
X182911485Y-180614342D01*
X182768628Y-180685771D01*
X182554342Y-180685771D01*
X183697200Y-180685771D02*
X183697200Y-179185771D01*
X183697200Y-179757200D02*
X183840057Y-179685771D01*
X184125771Y-179685771D01*
X184268628Y-179757200D01*
X184340057Y-179828628D01*
X184411485Y-179971485D01*
X184411485Y-180400057D01*
X184340057Y-180542914D01*
X184268628Y-180614342D01*
X184125771Y-180685771D01*
X183840057Y-180685771D01*
X183697200Y-180614342D01*
X186197200Y-180685771D02*
X186197200Y-179185771D01*
X187054342Y-180685771D02*
X186411485Y-179828628D01*
X187054342Y-179185771D02*
X186197200Y-180042914D01*
X187697200Y-180685771D02*
X187697200Y-179685771D01*
X187697200Y-179185771D02*
X187625771Y-179257200D01*
X187697200Y-179328628D01*
X187768628Y-179257200D01*
X187697200Y-179185771D01*
X187697200Y-179328628D01*
X188625771Y-180685771D02*
X188482914Y-180614342D01*
X188411485Y-180471485D01*
X188411485Y-179185771D01*
X189411485Y-180685771D02*
X189268628Y-180614342D01*
X189197200Y-180471485D01*
X189197200Y-179185771D01*
X190554342Y-180614342D02*
X190411485Y-180685771D01*
X190125771Y-180685771D01*
X189982914Y-180614342D01*
X189911485Y-180471485D01*
X189911485Y-179900057D01*
X189982914Y-179757200D01*
X190125771Y-179685771D01*
X190411485Y-179685771D01*
X190554342Y-179757200D01*
X190625771Y-179900057D01*
X190625771Y-180042914D01*
X189911485Y-180185771D01*
X191482914Y-180685771D02*
X191340057Y-180614342D01*
X191268628Y-180471485D01*
X191268628Y-179185771D01*
X192625771Y-180614342D02*
X192482914Y-180685771D01*
X192197200Y-180685771D01*
X192054342Y-180614342D01*
X191982914Y-180471485D01*
X191982914Y-179900057D01*
X192054342Y-179757200D01*
X192197200Y-179685771D01*
X192482914Y-179685771D01*
X192625771Y-179757200D01*
X192697200Y-179900057D01*
X192697200Y-180042914D01*
X191982914Y-180185771D01*
X193982914Y-180685771D02*
X193982914Y-179900057D01*
X193911485Y-179757200D01*
X193768628Y-179685771D01*
X193482914Y-179685771D01*
X193340057Y-179757200D01*
X193982914Y-180614342D02*
X193840057Y-180685771D01*
X193482914Y-180685771D01*
X193340057Y-180614342D01*
X193268628Y-180471485D01*
X193268628Y-180328628D01*
X193340057Y-180185771D01*
X193482914Y-180114342D01*
X193840057Y-180114342D01*
X193982914Y-180042914D01*
D10*
D11*
X197002200Y-191507200D02*
X197002200Y-194507200D01*
D10*
D11*
X261002200Y-191507200D02*
X261002200Y-198007200D01*
%TO.C,R13*%
G36*
G01*
X207306500Y-103041000D02*
X207856500Y-103041000D01*
G75*
G02*
X208056500Y-103241000I0J-200000D01*
G01*
X208056500Y-103641000D01*
G75*
G02*
X207856500Y-103841000I-200000J0D01*
G01*
X207306500Y-103841000D01*
G75*
G02*
X207106500Y-103641000I0J200000D01*
G01*
X207106500Y-103241000D01*
G75*
G02*
X207306500Y-103041000I200000J0D01*
G01*
G37*
G36*
G01*
X207306500Y-101391000D02*
X207856500Y-101391000D01*
G75*
G02*
X208056500Y-101591000I0J-200000D01*
G01*
X208056500Y-101991000D01*
G75*
G02*
X207856500Y-102191000I-200000J0D01*
G01*
X207306500Y-102191000D01*
G75*
G02*
X207106500Y-101991000I0J200000D01*
G01*
X207106500Y-101591000D01*
G75*
G02*
X207306500Y-101391000I200000J0D01*
G01*
G37*
%TD*%
D10*
%TO.C,U4*%
G36*
X204704741Y-100838000D02*
G01*
X203835000Y-101707741D01*
X202965259Y-100838000D01*
X203835000Y-99968259D01*
X204704741Y-100838000D01*
G37*
G36*
G01*
X203684740Y-102225697D02*
X203189765Y-102720672D01*
G75*
G02*
X203101377Y-102720672I-44194J44194D01*
G01*
X203012988Y-102632283D01*
G75*
G02*
X203012988Y-102543895I44194J44194D01*
G01*
X203507963Y-102048920D01*
G75*
G02*
X203596351Y-102048920I44194J-44194D01*
G01*
X203684740Y-102137309D01*
G75*
G02*
X203684740Y-102225697I-44194J-44194D01*
G01*
G37*
G36*
G01*
X203331187Y-101872144D02*
X202836212Y-102367119D01*
G75*
G02*
X202747824Y-102367119I-44194J44194D01*
G01*
X202659435Y-102278730D01*
G75*
G02*
X202659435Y-102190342I44194J44194D01*
G01*
X203154410Y-101695367D01*
G75*
G02*
X203242798Y-101695367I44194J-44194D01*
G01*
X203331187Y-101783756D01*
G75*
G02*
X203331187Y-101872144I-44194J-44194D01*
G01*
G37*
G36*
G01*
X202977633Y-101518590D02*
X202482658Y-102013565D01*
G75*
G02*
X202394270Y-102013565I-44194J44194D01*
G01*
X202305881Y-101925176D01*
G75*
G02*
X202305881Y-101836788I44194J44194D01*
G01*
X202800856Y-101341813D01*
G75*
G02*
X202889244Y-101341813I44194J-44194D01*
G01*
X202977633Y-101430202D01*
G75*
G02*
X202977633Y-101518590I-44194J-44194D01*
G01*
G37*
G36*
G01*
X202624080Y-101165037D02*
X202129105Y-101660012D01*
G75*
G02*
X202040717Y-101660012I-44194J44194D01*
G01*
X201952328Y-101571623D01*
G75*
G02*
X201952328Y-101483235I44194J44194D01*
G01*
X202447303Y-100988260D01*
G75*
G02*
X202535691Y-100988260I44194J-44194D01*
G01*
X202624080Y-101076649D01*
G75*
G02*
X202624080Y-101165037I-44194J-44194D01*
G01*
G37*
G36*
G01*
X202624080Y-100599351D02*
X202535691Y-100687740D01*
G75*
G02*
X202447303Y-100687740I-44194J44194D01*
G01*
X201952328Y-100192765D01*
G75*
G02*
X201952328Y-100104377I44194J44194D01*
G01*
X202040717Y-100015988D01*
G75*
G02*
X202129105Y-100015988I44194J-44194D01*
G01*
X202624080Y-100510963D01*
G75*
G02*
X202624080Y-100599351I-44194J-44194D01*
G01*
G37*
G36*
G01*
X202977633Y-100245798D02*
X202889244Y-100334187D01*
G75*
G02*
X202800856Y-100334187I-44194J44194D01*
G01*
X202305881Y-99839212D01*
G75*
G02*
X202305881Y-99750824I44194J44194D01*
G01*
X202394270Y-99662435D01*
G75*
G02*
X202482658Y-99662435I44194J-44194D01*
G01*
X202977633Y-100157410D01*
G75*
G02*
X202977633Y-100245798I-44194J-44194D01*
G01*
G37*
G36*
G01*
X203331187Y-99892244D02*
X203242798Y-99980633D01*
G75*
G02*
X203154410Y-99980633I-44194J44194D01*
G01*
X202659435Y-99485658D01*
G75*
G02*
X202659435Y-99397270I44194J44194D01*
G01*
X202747824Y-99308881D01*
G75*
G02*
X202836212Y-99308881I44194J-44194D01*
G01*
X203331187Y-99803856D01*
G75*
G02*
X203331187Y-99892244I-44194J-44194D01*
G01*
G37*
G36*
G01*
X203684740Y-99538691D02*
X203596351Y-99627080D01*
G75*
G02*
X203507963Y-99627080I-44194J44194D01*
G01*
X203012988Y-99132105D01*
G75*
G02*
X203012988Y-99043717I44194J44194D01*
G01*
X203101377Y-98955328D01*
G75*
G02*
X203189765Y-98955328I44194J-44194D01*
G01*
X203684740Y-99450303D01*
G75*
G02*
X203684740Y-99538691I-44194J-44194D01*
G01*
G37*
G36*
G01*
X204657012Y-99132105D02*
X204162037Y-99627080D01*
G75*
G02*
X204073649Y-99627080I-44194J44194D01*
G01*
X203985260Y-99538691D01*
G75*
G02*
X203985260Y-99450303I44194J44194D01*
G01*
X204480235Y-98955328D01*
G75*
G02*
X204568623Y-98955328I44194J-44194D01*
G01*
X204657012Y-99043717D01*
G75*
G02*
X204657012Y-99132105I-44194J-44194D01*
G01*
G37*
G36*
G01*
X205010565Y-99485658D02*
X204515590Y-99980633D01*
G75*
G02*
X204427202Y-99980633I-44194J44194D01*
G01*
X204338813Y-99892244D01*
G75*
G02*
X204338813Y-99803856I44194J44194D01*
G01*
X204833788Y-99308881D01*
G75*
G02*
X204922176Y-99308881I44194J-44194D01*
G01*
X205010565Y-99397270D01*
G75*
G02*
X205010565Y-99485658I-44194J-44194D01*
G01*
G37*
G36*
G01*
X205364119Y-99839212D02*
X204869144Y-100334187D01*
G75*
G02*
X204780756Y-100334187I-44194J44194D01*
G01*
X204692367Y-100245798D01*
G75*
G02*
X204692367Y-100157410I44194J44194D01*
G01*
X205187342Y-99662435D01*
G75*
G02*
X205275730Y-99662435I44194J-44194D01*
G01*
X205364119Y-99750824D01*
G75*
G02*
X205364119Y-99839212I-44194J-44194D01*
G01*
G37*
G36*
G01*
X205717672Y-100192765D02*
X205222697Y-100687740D01*
G75*
G02*
X205134309Y-100687740I-44194J44194D01*
G01*
X205045920Y-100599351D01*
G75*
G02*
X205045920Y-100510963I44194J44194D01*
G01*
X205540895Y-100015988D01*
G75*
G02*
X205629283Y-100015988I44194J-44194D01*
G01*
X205717672Y-100104377D01*
G75*
G02*
X205717672Y-100192765I-44194J-44194D01*
G01*
G37*
G36*
G01*
X205717672Y-101571623D02*
X205629283Y-101660012D01*
G75*
G02*
X205540895Y-101660012I-44194J44194D01*
G01*
X205045920Y-101165037D01*
G75*
G02*
X205045920Y-101076649I44194J44194D01*
G01*
X205134309Y-100988260D01*
G75*
G02*
X205222697Y-100988260I44194J-44194D01*
G01*
X205717672Y-101483235D01*
G75*
G02*
X205717672Y-101571623I-44194J-44194D01*
G01*
G37*
G36*
G01*
X205364119Y-101925176D02*
X205275730Y-102013565D01*
G75*
G02*
X205187342Y-102013565I-44194J44194D01*
G01*
X204692367Y-101518590D01*
G75*
G02*
X204692367Y-101430202I44194J44194D01*
G01*
X204780756Y-101341813D01*
G75*
G02*
X204869144Y-101341813I44194J-44194D01*
G01*
X205364119Y-101836788D01*
G75*
G02*
X205364119Y-101925176I-44194J-44194D01*
G01*
G37*
G36*
G01*
X205010565Y-102278730D02*
X204922176Y-102367119D01*
G75*
G02*
X204833788Y-102367119I-44194J44194D01*
G01*
X204338813Y-101872144D01*
G75*
G02*
X204338813Y-101783756I44194J44194D01*
G01*
X204427202Y-101695367D01*
G75*
G02*
X204515590Y-101695367I44194J-44194D01*
G01*
X205010565Y-102190342D01*
G75*
G02*
X205010565Y-102278730I-44194J-44194D01*
G01*
G37*
G36*
G01*
X204657012Y-102632283D02*
X204568623Y-102720672D01*
G75*
G02*
X204480235Y-102720672I-44194J44194D01*
G01*
X203985260Y-102225697D01*
G75*
G02*
X203985260Y-102137309I44194J44194D01*
G01*
X204073649Y-102048920D01*
G75*
G02*
X204162037Y-102048920I44194J-44194D01*
G01*
X204657012Y-102543895D01*
G75*
G02*
X204657012Y-102632283I-44194J-44194D01*
G01*
G37*
%TD*%
D14*
%TO.C,J5*%
X190500000Y-116078000D03*
D15*
X193040000Y-116078000D03*
%TD*%
D14*
%TO.C,J10*%
X183896000Y-116078000D03*
D15*
X186436000Y-116078000D03*
%TD*%
D14*
%TO.C,J4*%
X204724000Y-93980000D03*
D15*
X202184000Y-93980000D03*
%TD*%
D14*
%TO.C,J3*%
X197104000Y-116078000D03*
D15*
X199644000Y-116078000D03*
%TD*%
D14*
%TO.C,J1*%
X183642000Y-94234000D03*
D15*
X186182000Y-94234000D03*
%TD*%
D16*
%TO.C,U2*%
X227223000Y-116403000D03*
X227223000Y-114403000D03*
X227223000Y-112403000D03*
X227223000Y-110403000D03*
X227223000Y-108403000D03*
X227223000Y-106403000D03*
X227223000Y-104403000D03*
X227223000Y-102403000D03*
D17*
X229823000Y-100903000D03*
X231823000Y-100903000D03*
X233823000Y-100903000D03*
X235823000Y-100903000D03*
X237823000Y-100903000D03*
X239823000Y-100903000D03*
D16*
X242423000Y-102403000D03*
X242423000Y-104403000D03*
X242423000Y-106403000D03*
X242423000Y-108403000D03*
X242423000Y-110403000D03*
X242423000Y-112403000D03*
X242423000Y-114403000D03*
X242423000Y-116403000D03*
%TD*%
D18*
%TO.C,TP6*%
X205486000Y-104648000D03*
%TD*%
%TO.C,TP5*%
X202819000Y-104902000D03*
%TD*%
%TO.C,TP4*%
X200660000Y-103251000D03*
%TD*%
%TO.C,C12*%
G36*
G01*
X189730000Y-97061000D02*
X189730000Y-98011000D01*
G75*
G02*
X189480000Y-98261000I-250000J0D01*
G01*
X188980000Y-98261000D01*
G75*
G02*
X188730000Y-98011000I0J250000D01*
G01*
X188730000Y-97061000D01*
G75*
G02*
X188980000Y-96811000I250000J0D01*
G01*
X189480000Y-96811000D01*
G75*
G02*
X189730000Y-97061000I0J-250000D01*
G01*
G37*
G36*
G01*
X191630000Y-97061000D02*
X191630000Y-98011000D01*
G75*
G02*
X191380000Y-98261000I-250000J0D01*
G01*
X190880000Y-98261000D01*
G75*
G02*
X190630000Y-98011000I0J250000D01*
G01*
X190630000Y-97061000D01*
G75*
G02*
X190880000Y-96811000I250000J0D01*
G01*
X191380000Y-96811000D01*
G75*
G02*
X191630000Y-97061000I0J-250000D01*
G01*
G37*
%TD*%
D19*
%TO.C,Q4*%
X186801000Y-98425000D03*
X184801000Y-99375000D03*
X184801000Y-97475000D03*
%TD*%
%TO.C,C9*%
G36*
G01*
X218382000Y-98646000D02*
X218382000Y-97696000D01*
G75*
G02*
X218632000Y-97446000I250000J0D01*
G01*
X219132000Y-97446000D01*
G75*
G02*
X219382000Y-97696000I0J-250000D01*
G01*
X219382000Y-98646000D01*
G75*
G02*
X219132000Y-98896000I-250000J0D01*
G01*
X218632000Y-98896000D01*
G75*
G02*
X218382000Y-98646000I0J250000D01*
G01*
G37*
G36*
G01*
X216482000Y-98646000D02*
X216482000Y-97696000D01*
G75*
G02*
X216732000Y-97446000I250000J0D01*
G01*
X217232000Y-97446000D01*
G75*
G02*
X217482000Y-97696000I0J-250000D01*
G01*
X217482000Y-98646000D01*
G75*
G02*
X217232000Y-98896000I-250000J0D01*
G01*
X216732000Y-98896000D01*
G75*
G02*
X216482000Y-98646000I0J250000D01*
G01*
G37*
%TD*%
%TO.C,C8*%
G36*
G01*
X196157000Y-105123000D02*
X196157000Y-104173000D01*
G75*
G02*
X196407000Y-103923000I250000J0D01*
G01*
X196907000Y-103923000D01*
G75*
G02*
X197157000Y-104173000I0J-250000D01*
G01*
X197157000Y-105123000D01*
G75*
G02*
X196907000Y-105373000I-250000J0D01*
G01*
X196407000Y-105373000D01*
G75*
G02*
X196157000Y-105123000I0J250000D01*
G01*
G37*
G36*
G01*
X194257000Y-105123000D02*
X194257000Y-104173000D01*
G75*
G02*
X194507000Y-103923000I250000J0D01*
G01*
X195007000Y-103923000D01*
G75*
G02*
X195257000Y-104173000I0J-250000D01*
G01*
X195257000Y-105123000D01*
G75*
G02*
X195007000Y-105373000I-250000J0D01*
G01*
X194507000Y-105373000D01*
G75*
G02*
X194257000Y-105123000I0J250000D01*
G01*
G37*
%TD*%
%TO.C,C3*%
G36*
G01*
X206193571Y-99296322D02*
X206865322Y-98624571D01*
G75*
G02*
X207218876Y-98624571I176777J-176777D01*
G01*
X207572429Y-98978124D01*
G75*
G02*
X207572429Y-99331678I-176777J-176777D01*
G01*
X206900678Y-100003429D01*
G75*
G02*
X206547124Y-100003429I-176777J176777D01*
G01*
X206193571Y-99649876D01*
G75*
G02*
X206193571Y-99296322I176777J176777D01*
G01*
G37*
G36*
G01*
X204850069Y-97952820D02*
X205521820Y-97281069D01*
G75*
G02*
X205875374Y-97281069I176777J-176777D01*
G01*
X206228927Y-97634622D01*
G75*
G02*
X206228927Y-97988176I-176777J-176777D01*
G01*
X205557176Y-98659927D01*
G75*
G02*
X205203622Y-98659927I-176777J176777D01*
G01*
X204850069Y-98306374D01*
G75*
G02*
X204850069Y-97952820I176777J176777D01*
G01*
G37*
%TD*%
%TO.C,C11*%
G36*
G01*
X240051001Y-96195000D02*
X239500999Y-96195000D01*
G75*
G02*
X239251000Y-95945001I0J249999D01*
G01*
X239251000Y-95319999D01*
G75*
G02*
X239500999Y-95070000I249999J0D01*
G01*
X240051001Y-95070000D01*
G75*
G02*
X240301000Y-95319999I0J-249999D01*
G01*
X240301000Y-95945001D01*
G75*
G02*
X240051001Y-96195000I-249999J0D01*
G01*
G37*
G36*
G01*
X240051001Y-97970000D02*
X239500999Y-97970000D01*
G75*
G02*
X239251000Y-97720001I0J249999D01*
G01*
X239251000Y-97094999D01*
G75*
G02*
X239500999Y-96845000I249999J0D01*
G01*
X240051001Y-96845000D01*
G75*
G02*
X240301000Y-97094999I0J-249999D01*
G01*
X240301000Y-97720001D01*
G75*
G02*
X240051001Y-97970000I-249999J0D01*
G01*
G37*
%TD*%
D20*
%TO.C,SW1*%
X210058000Y-116078000D03*
X210058000Y-109578000D03*
X214558000Y-116078000D03*
X214558000Y-109578000D03*
%TD*%
%TO.C,R6*%
G36*
G01*
X217849000Y-116353000D02*
X217849000Y-115803000D01*
G75*
G02*
X218049000Y-115603000I200000J0D01*
G01*
X218449000Y-115603000D01*
G75*
G02*
X218649000Y-115803000I0J-200000D01*
G01*
X218649000Y-116353000D01*
G75*
G02*
X218449000Y-116553000I-200000J0D01*
G01*
X218049000Y-116553000D01*
G75*
G02*
X217849000Y-116353000I0J200000D01*
G01*
G37*
G36*
G01*
X216199000Y-116353000D02*
X216199000Y-115803000D01*
G75*
G02*
X216399000Y-115603000I200000J0D01*
G01*
X216799000Y-115603000D01*
G75*
G02*
X216999000Y-115803000I0J-200000D01*
G01*
X216999000Y-116353000D01*
G75*
G02*
X216799000Y-116553000I-200000J0D01*
G01*
X216399000Y-116553000D01*
G75*
G02*
X216199000Y-116353000I0J200000D01*
G01*
G37*
%TD*%
D21*
%TO.C,Q3*%
X197104000Y-113522000D03*
X196154000Y-111522000D03*
X198054000Y-111522000D03*
%TD*%
%TO.C,Q2*%
X190500000Y-113522000D03*
X189550000Y-111522000D03*
X191450000Y-111522000D03*
%TD*%
%TO.C,Q1*%
X184404000Y-113522000D03*
X183454000Y-111522000D03*
X185354000Y-111522000D03*
%TD*%
D20*
%TO.C,SW2*%
X210058000Y-106172000D03*
X210058000Y-99672000D03*
X214558000Y-106172000D03*
X214558000Y-99672000D03*
%TD*%
D22*
%TO.C,J2*%
X224670000Y-94996000D03*
X223420000Y-94996000D03*
X222170000Y-94996000D03*
X220920000Y-94996000D03*
X219670000Y-94996000D03*
X218420000Y-94996000D03*
G36*
G01*
X216770000Y-95446000D02*
X216770000Y-94546000D01*
G75*
G02*
X216970000Y-94346000I200000J0D01*
G01*
X217370000Y-94346000D01*
G75*
G02*
X217570000Y-94546000I0J-200000D01*
G01*
X217570000Y-95446000D01*
G75*
G02*
X217370000Y-95646000I-200000J0D01*
G01*
X216970000Y-95646000D01*
G75*
G02*
X216770000Y-95446000I0J200000D01*
G01*
G37*
%TD*%
D23*
%TO.C,U3*%
X194757000Y-106596000D03*
X196657000Y-106596000D03*
X196657000Y-108796000D03*
X195707000Y-108796000D03*
X194757000Y-108796000D03*
%TD*%
%TO.C,C2*%
G36*
G01*
X242283000Y-96070000D02*
X241333000Y-96070000D01*
G75*
G02*
X241083000Y-95820000I0J250000D01*
G01*
X241083000Y-95320000D01*
G75*
G02*
X241333000Y-95070000I250000J0D01*
G01*
X242283000Y-95070000D01*
G75*
G02*
X242533000Y-95320000I0J-250000D01*
G01*
X242533000Y-95820000D01*
G75*
G02*
X242283000Y-96070000I-250000J0D01*
G01*
G37*
G36*
G01*
X242283000Y-97970000D02*
X241333000Y-97970000D01*
G75*
G02*
X241083000Y-97720000I0J250000D01*
G01*
X241083000Y-97220000D01*
G75*
G02*
X241333000Y-96970000I250000J0D01*
G01*
X242283000Y-96970000D01*
G75*
G02*
X242533000Y-97220000I0J-250000D01*
G01*
X242533000Y-97720000D01*
G75*
G02*
X242283000Y-97970000I-250000J0D01*
G01*
G37*
%TD*%
D22*
%TO.C,J9*%
X212792000Y-94996000D03*
X211542000Y-94996000D03*
X210292000Y-94996000D03*
G36*
G01*
X208642000Y-95446000D02*
X208642000Y-94546000D01*
G75*
G02*
X208842000Y-94346000I200000J0D01*
G01*
X209242000Y-94346000D01*
G75*
G02*
X209442000Y-94546000I0J-200000D01*
G01*
X209442000Y-95446000D01*
G75*
G02*
X209242000Y-95646000I-200000J0D01*
G01*
X208842000Y-95646000D01*
G75*
G02*
X208642000Y-95446000I0J200000D01*
G01*
G37*
%TD*%
D24*
%TO.C,H2*%
X221250000Y-109741900D03*
%TD*%
%TO.C,R11*%
G36*
G01*
X187219000Y-112097000D02*
X186669000Y-112097000D01*
G75*
G02*
X186469000Y-111897000I0J200000D01*
G01*
X186469000Y-111497000D01*
G75*
G02*
X186669000Y-111297000I200000J0D01*
G01*
X187219000Y-111297000D01*
G75*
G02*
X187419000Y-111497000I0J-200000D01*
G01*
X187419000Y-111897000D01*
G75*
G02*
X187219000Y-112097000I-200000J0D01*
G01*
G37*
G36*
G01*
X187219000Y-113747000D02*
X186669000Y-113747000D01*
G75*
G02*
X186469000Y-113547000I0J200000D01*
G01*
X186469000Y-113147000D01*
G75*
G02*
X186669000Y-112947000I200000J0D01*
G01*
X187219000Y-112947000D01*
G75*
G02*
X187419000Y-113147000I0J-200000D01*
G01*
X187419000Y-113547000D01*
G75*
G02*
X187219000Y-113747000I-200000J0D01*
G01*
G37*
%TD*%
%TO.C,R10*%
G36*
G01*
X193315000Y-112097000D02*
X192765000Y-112097000D01*
G75*
G02*
X192565000Y-111897000I0J200000D01*
G01*
X192565000Y-111497000D01*
G75*
G02*
X192765000Y-111297000I200000J0D01*
G01*
X193315000Y-111297000D01*
G75*
G02*
X193515000Y-111497000I0J-200000D01*
G01*
X193515000Y-111897000D01*
G75*
G02*
X193315000Y-112097000I-200000J0D01*
G01*
G37*
G36*
G01*
X193315000Y-113747000D02*
X192765000Y-113747000D01*
G75*
G02*
X192565000Y-113547000I0J200000D01*
G01*
X192565000Y-113147000D01*
G75*
G02*
X192765000Y-112947000I200000J0D01*
G01*
X193315000Y-112947000D01*
G75*
G02*
X193515000Y-113147000I0J-200000D01*
G01*
X193515000Y-113547000D01*
G75*
G02*
X193315000Y-113747000I-200000J0D01*
G01*
G37*
%TD*%
%TO.C,R8*%
G36*
G01*
X199919000Y-112097000D02*
X199369000Y-112097000D01*
G75*
G02*
X199169000Y-111897000I0J200000D01*
G01*
X199169000Y-111497000D01*
G75*
G02*
X199369000Y-111297000I200000J0D01*
G01*
X199919000Y-111297000D01*
G75*
G02*
X200119000Y-111497000I0J-200000D01*
G01*
X200119000Y-111897000D01*
G75*
G02*
X199919000Y-112097000I-200000J0D01*
G01*
G37*
G36*
G01*
X199919000Y-113747000D02*
X199369000Y-113747000D01*
G75*
G02*
X199169000Y-113547000I0J200000D01*
G01*
X199169000Y-113147000D01*
G75*
G02*
X199369000Y-112947000I200000J0D01*
G01*
X199919000Y-112947000D01*
G75*
G02*
X200119000Y-113147000I0J-200000D01*
G01*
X200119000Y-113547000D01*
G75*
G02*
X199919000Y-113747000I-200000J0D01*
G01*
G37*
%TD*%
%TO.C,H1*%
X197500000Y-100458200D03*
%TD*%
%TO.C,U1*%
G36*
G01*
X188859000Y-103116000D02*
X188659000Y-103116000D01*
G75*
G02*
X188559000Y-103016000I0J100000D01*
G01*
X188559000Y-101591000D01*
G75*
G02*
X188659000Y-101491000I100000J0D01*
G01*
X188859000Y-101491000D01*
G75*
G02*
X188959000Y-101591000I0J-100000D01*
G01*
X188959000Y-103016000D01*
G75*
G02*
X188859000Y-103116000I-100000J0D01*
G01*
G37*
G36*
G01*
X189509000Y-103116000D02*
X189309000Y-103116000D01*
G75*
G02*
X189209000Y-103016000I0J100000D01*
G01*
X189209000Y-101591000D01*
G75*
G02*
X189309000Y-101491000I100000J0D01*
G01*
X189509000Y-101491000D01*
G75*
G02*
X189609000Y-101591000I0J-100000D01*
G01*
X189609000Y-103016000D01*
G75*
G02*
X189509000Y-103116000I-100000J0D01*
G01*
G37*
G36*
G01*
X190159000Y-103116000D02*
X189959000Y-103116000D01*
G75*
G02*
X189859000Y-103016000I0J100000D01*
G01*
X189859000Y-101591000D01*
G75*
G02*
X189959000Y-101491000I100000J0D01*
G01*
X190159000Y-101491000D01*
G75*
G02*
X190259000Y-101591000I0J-100000D01*
G01*
X190259000Y-103016000D01*
G75*
G02*
X190159000Y-103116000I-100000J0D01*
G01*
G37*
G36*
G01*
X190809000Y-103116000D02*
X190609000Y-103116000D01*
G75*
G02*
X190509000Y-103016000I0J100000D01*
G01*
X190509000Y-101591000D01*
G75*
G02*
X190609000Y-101491000I100000J0D01*
G01*
X190809000Y-101491000D01*
G75*
G02*
X190909000Y-101591000I0J-100000D01*
G01*
X190909000Y-103016000D01*
G75*
G02*
X190809000Y-103116000I-100000J0D01*
G01*
G37*
G36*
G01*
X190809000Y-107341000D02*
X190609000Y-107341000D01*
G75*
G02*
X190509000Y-107241000I0J100000D01*
G01*
X190509000Y-105816000D01*
G75*
G02*
X190609000Y-105716000I100000J0D01*
G01*
X190809000Y-105716000D01*
G75*
G02*
X190909000Y-105816000I0J-100000D01*
G01*
X190909000Y-107241000D01*
G75*
G02*
X190809000Y-107341000I-100000J0D01*
G01*
G37*
G36*
G01*
X190159000Y-107341000D02*
X189959000Y-107341000D01*
G75*
G02*
X189859000Y-107241000I0J100000D01*
G01*
X189859000Y-105816000D01*
G75*
G02*
X189959000Y-105716000I100000J0D01*
G01*
X190159000Y-105716000D01*
G75*
G02*
X190259000Y-105816000I0J-100000D01*
G01*
X190259000Y-107241000D01*
G75*
G02*
X190159000Y-107341000I-100000J0D01*
G01*
G37*
G36*
G01*
X189509000Y-107341000D02*
X189309000Y-107341000D01*
G75*
G02*
X189209000Y-107241000I0J100000D01*
G01*
X189209000Y-105816000D01*
G75*
G02*
X189309000Y-105716000I100000J0D01*
G01*
X189509000Y-105716000D01*
G75*
G02*
X189609000Y-105816000I0J-100000D01*
G01*
X189609000Y-107241000D01*
G75*
G02*
X189509000Y-107341000I-100000J0D01*
G01*
G37*
G36*
G01*
X188859000Y-107341000D02*
X188659000Y-107341000D01*
G75*
G02*
X188559000Y-107241000I0J100000D01*
G01*
X188559000Y-105816000D01*
G75*
G02*
X188659000Y-105716000I100000J0D01*
G01*
X188859000Y-105716000D01*
G75*
G02*
X188959000Y-105816000I0J-100000D01*
G01*
X188959000Y-107241000D01*
G75*
G02*
X188859000Y-107341000I-100000J0D01*
G01*
G37*
%TD*%
%TO.C,R4*%
G36*
G01*
X186496500Y-107091000D02*
X186971500Y-107091000D01*
G75*
G02*
X187209000Y-107328500I0J-237500D01*
G01*
X187209000Y-107828500D01*
G75*
G02*
X186971500Y-108066000I-237500J0D01*
G01*
X186496500Y-108066000D01*
G75*
G02*
X186259000Y-107828500I0J237500D01*
G01*
X186259000Y-107328500D01*
G75*
G02*
X186496500Y-107091000I237500J0D01*
G01*
G37*
G36*
G01*
X186496500Y-105266000D02*
X186971500Y-105266000D01*
G75*
G02*
X187209000Y-105503500I0J-237500D01*
G01*
X187209000Y-106003500D01*
G75*
G02*
X186971500Y-106241000I-237500J0D01*
G01*
X186496500Y-106241000D01*
G75*
G02*
X186259000Y-106003500I0J237500D01*
G01*
X186259000Y-105503500D01*
G75*
G02*
X186496500Y-105266000I237500J0D01*
G01*
G37*
%TD*%
%TO.C,R2*%
G36*
G01*
X186496500Y-103591000D02*
X186971500Y-103591000D01*
G75*
G02*
X187209000Y-103828500I0J-237500D01*
G01*
X187209000Y-104328500D01*
G75*
G02*
X186971500Y-104566000I-237500J0D01*
G01*
X186496500Y-104566000D01*
G75*
G02*
X186259000Y-104328500I0J237500D01*
G01*
X186259000Y-103828500D01*
G75*
G02*
X186496500Y-103591000I237500J0D01*
G01*
G37*
G36*
G01*
X186496500Y-101766000D02*
X186971500Y-101766000D01*
G75*
G02*
X187209000Y-102003500I0J-237500D01*
G01*
X187209000Y-102503500D01*
G75*
G02*
X186971500Y-102741000I-237500J0D01*
G01*
X186496500Y-102741000D01*
G75*
G02*
X186259000Y-102503500I0J237500D01*
G01*
X186259000Y-102003500D01*
G75*
G02*
X186496500Y-101766000I237500J0D01*
G01*
G37*
%TD*%
%TO.C,R1*%
G36*
G01*
X192246500Y-103341000D02*
X192721500Y-103341000D01*
G75*
G02*
X192959000Y-103578500I0J-237500D01*
G01*
X192959000Y-104078500D01*
G75*
G02*
X192721500Y-104316000I-237500J0D01*
G01*
X192246500Y-104316000D01*
G75*
G02*
X192009000Y-104078500I0J237500D01*
G01*
X192009000Y-103578500D01*
G75*
G02*
X192246500Y-103341000I237500J0D01*
G01*
G37*
G36*
G01*
X192246500Y-101516000D02*
X192721500Y-101516000D01*
G75*
G02*
X192959000Y-101753500I0J-237500D01*
G01*
X192959000Y-102253500D01*
G75*
G02*
X192721500Y-102491000I-237500J0D01*
G01*
X192246500Y-102491000D01*
G75*
G02*
X192009000Y-102253500I0J237500D01*
G01*
X192009000Y-101753500D01*
G75*
G02*
X192246500Y-101516000I237500J0D01*
G01*
G37*
%TD*%
%TO.C,L1*%
G36*
G01*
X189958000Y-99121999D02*
X189958000Y-100522001D01*
G75*
G02*
X189708001Y-100772000I-249999J0D01*
G01*
X189157999Y-100772000D01*
G75*
G02*
X188908000Y-100522001I0J249999D01*
G01*
X188908000Y-99121999D01*
G75*
G02*
X189157999Y-98872000I249999J0D01*
G01*
X189708001Y-98872000D01*
G75*
G02*
X189958000Y-99121999I0J-249999D01*
G01*
G37*
G36*
G01*
X193108000Y-99121999D02*
X193108000Y-100522001D01*
G75*
G02*
X192858001Y-100772000I-249999J0D01*
G01*
X192307999Y-100772000D01*
G75*
G02*
X192058000Y-100522001I0J249999D01*
G01*
X192058000Y-99121999D01*
G75*
G02*
X192307999Y-98872000I249999J0D01*
G01*
X192858001Y-98872000D01*
G75*
G02*
X193108000Y-99121999I0J-249999D01*
G01*
G37*
%TD*%
%TO.C,C7*%
G36*
G01*
X187127000Y-109262500D02*
X187127000Y-109737500D01*
G75*
G02*
X186889500Y-109975000I-237500J0D01*
G01*
X186289500Y-109975000D01*
G75*
G02*
X186052000Y-109737500I0J237500D01*
G01*
X186052000Y-109262500D01*
G75*
G02*
X186289500Y-109025000I237500J0D01*
G01*
X186889500Y-109025000D01*
G75*
G02*
X187127000Y-109262500I0J-237500D01*
G01*
G37*
G36*
G01*
X188852000Y-109262500D02*
X188852000Y-109737500D01*
G75*
G02*
X188614500Y-109975000I-237500J0D01*
G01*
X188014500Y-109975000D01*
G75*
G02*
X187777000Y-109737500I0J237500D01*
G01*
X187777000Y-109262500D01*
G75*
G02*
X188014500Y-109025000I237500J0D01*
G01*
X188614500Y-109025000D01*
G75*
G02*
X188852000Y-109262500I0J-237500D01*
G01*
G37*
%TD*%
%TO.C,C5*%
G36*
G01*
X184382999Y-103703000D02*
X184933001Y-103703000D01*
G75*
G02*
X185183000Y-103952999I0J-249999D01*
G01*
X185183000Y-104578001D01*
G75*
G02*
X184933001Y-104828000I-249999J0D01*
G01*
X184382999Y-104828000D01*
G75*
G02*
X184133000Y-104578001I0J249999D01*
G01*
X184133000Y-103952999D01*
G75*
G02*
X184382999Y-103703000I249999J0D01*
G01*
G37*
G36*
G01*
X184382999Y-101928000D02*
X184933001Y-101928000D01*
G75*
G02*
X185183000Y-102177999I0J-249999D01*
G01*
X185183000Y-102803001D01*
G75*
G02*
X184933001Y-103053000I-249999J0D01*
G01*
X184382999Y-103053000D01*
G75*
G02*
X184133000Y-102803001I0J249999D01*
G01*
X184133000Y-102177999D01*
G75*
G02*
X184382999Y-101928000I249999J0D01*
G01*
G37*
%TD*%
%TO.C,C1*%
G36*
G01*
X189505001Y-94163000D02*
X188954999Y-94163000D01*
G75*
G02*
X188705000Y-93913001I0J249999D01*
G01*
X188705000Y-93287999D01*
G75*
G02*
X188954999Y-93038000I249999J0D01*
G01*
X189505001Y-93038000D01*
G75*
G02*
X189755000Y-93287999I0J-249999D01*
G01*
X189755000Y-93913001D01*
G75*
G02*
X189505001Y-94163000I-249999J0D01*
G01*
G37*
G36*
G01*
X189505001Y-95938000D02*
X188954999Y-95938000D01*
G75*
G02*
X188705000Y-95688001I0J249999D01*
G01*
X188705000Y-95062999D01*
G75*
G02*
X188954999Y-94813000I249999J0D01*
G01*
X189505001Y-94813000D01*
G75*
G02*
X189755000Y-95062999I0J-249999D01*
G01*
X189755000Y-95688001D01*
G75*
G02*
X189505001Y-95938000I-249999J0D01*
G01*
G37*
%TD*%
%TO.C,R3*%
G36*
G01*
X192246500Y-106841000D02*
X192721500Y-106841000D01*
G75*
G02*
X192959000Y-107078500I0J-237500D01*
G01*
X192959000Y-107578500D01*
G75*
G02*
X192721500Y-107816000I-237500J0D01*
G01*
X192246500Y-107816000D01*
G75*
G02*
X192009000Y-107578500I0J237500D01*
G01*
X192009000Y-107078500D01*
G75*
G02*
X192246500Y-106841000I237500J0D01*
G01*
G37*
G36*
G01*
X192246500Y-105016000D02*
X192721500Y-105016000D01*
G75*
G02*
X192959000Y-105253500I0J-237500D01*
G01*
X192959000Y-105753500D01*
G75*
G02*
X192721500Y-105991000I-237500J0D01*
G01*
X192246500Y-105991000D01*
G75*
G02*
X192009000Y-105753500I0J237500D01*
G01*
X192009000Y-105253500D01*
G75*
G02*
X192246500Y-105016000I237500J0D01*
G01*
G37*
%TD*%
%TO.C,C6*%
G36*
G01*
X191841000Y-109711500D02*
X191841000Y-109236500D01*
G75*
G02*
X192078500Y-108999000I237500J0D01*
G01*
X192678500Y-108999000D01*
G75*
G02*
X192916000Y-109236500I0J-237500D01*
G01*
X192916000Y-109711500D01*
G75*
G02*
X192678500Y-109949000I-237500J0D01*
G01*
X192078500Y-109949000D01*
G75*
G02*
X191841000Y-109711500I0J237500D01*
G01*
G37*
G36*
G01*
X190116000Y-109711500D02*
X190116000Y-109236500D01*
G75*
G02*
X190353500Y-108999000I237500J0D01*
G01*
X190953500Y-108999000D01*
G75*
G02*
X191191000Y-109236500I0J-237500D01*
G01*
X191191000Y-109711500D01*
G75*
G02*
X190953500Y-109949000I-237500J0D01*
G01*
X190353500Y-109949000D01*
G75*
G02*
X190116000Y-109711500I0J237500D01*
G01*
G37*
%TD*%
D25*
X208026000Y-117500000D02*
X203327000Y-117500000D01*
X203327000Y-114427000D01*
X208026000Y-114427000D01*
X208026000Y-117500000D01*
D10*
G36*
X208026000Y-117500000D02*
G01*
X203327000Y-117500000D01*
X203327000Y-114427000D01*
X208026000Y-114427000D01*
X208026000Y-117500000D01*
G37*
D25*
X200152000Y-101727000D02*
X193929000Y-101727000D01*
X193929000Y-96906979D01*
X193970331Y-96918054D01*
X194358018Y-96979457D01*
X194750000Y-97000000D01*
X195141982Y-96979457D01*
X195529669Y-96918054D01*
X195908814Y-96816462D01*
X196275262Y-96675795D01*
X196625000Y-96497595D01*
X196954195Y-96283814D01*
X197259240Y-96036793D01*
X197536793Y-95759240D01*
X197783814Y-95454195D01*
X197997595Y-95125000D01*
X198175795Y-94775262D01*
X198316462Y-94408814D01*
X198418054Y-94029669D01*
X198479457Y-93641982D01*
X198500000Y-93250000D01*
X198500000Y-92500000D01*
X200152000Y-92500000D01*
X200152000Y-101727000D01*
D10*
G36*
X200152000Y-101727000D02*
G01*
X193929000Y-101727000D01*
X193929000Y-96906979D01*
X193970331Y-96918054D01*
X194358018Y-96979457D01*
X194750000Y-97000000D01*
X195141982Y-96979457D01*
X195529669Y-96918054D01*
X195908814Y-96816462D01*
X196275262Y-96675795D01*
X196625000Y-96497595D01*
X196954195Y-96283814D01*
X197259240Y-96036793D01*
X197536793Y-95759240D01*
X197783814Y-95454195D01*
X197997595Y-95125000D01*
X198175795Y-94775262D01*
X198316462Y-94408814D01*
X198418054Y-94029669D01*
X198479457Y-93641982D01*
X198500000Y-93250000D01*
X198500000Y-92500000D01*
X200152000Y-92500000D01*
X200152000Y-101727000D01*
G37*
M02*
