%TF.GenerationSoftware,KiCad,Pcbnew,5.1.10-88a1d61d58~88~ubuntu20.04.1*%
%TF.CreationDate,2021-06-26T15:26:23-05:00*%
%TF.ProjectId,portalgun,706f7274-616c-4677-956e-2e6b69636164,B*%
%TF.SameCoordinates,Original*%
%TF.FileFunction,Other,Fab,Top*%
%FSLAX46Y46*%
G04 Gerber Fmt 4.6, Leading zero omitted, Abs format (unit mm)*
G04 Created by KiCad (PCBNEW 5.1.10-88a1d61d58~88~ubuntu20.04.1) date 2021-06-26 15:26:23*
%MOMM*%
%LPD*%
G01*
G04 APERTURE LIST*
%ADD10C,0.100000*%
%ADD11C,0.150000*%
%ADD12C,0.300000*%
%ADD13C,0.400000*%
%ADD14C,0.120000*%
%ADD15C,0.127000*%
G04 APERTURE END LIST*
D10*
D11*
X177002200Y-166007200D02*
X177002200Y-198007200D01*
X285002200Y-198007200D01*
X285002200Y-166007200D01*
X177002200Y-166007200D01*
D10*
D11*
X10000000Y-10000000D02*
X10000000Y-200007200D01*
X287002200Y-200007200D01*
X287002200Y-10000000D01*
X10000000Y-10000000D01*
D10*
D11*
X12000000Y-12000000D02*
X12000000Y-198007200D01*
X285002200Y-198007200D01*
X285002200Y-12000000D01*
X12000000Y-12000000D01*
D10*
D11*
X60000000Y-12000000D02*
X60000000Y-10000000D01*
D10*
D11*
X110000000Y-12000000D02*
X110000000Y-10000000D01*
D10*
D11*
X160000000Y-12000000D02*
X160000000Y-10000000D01*
D10*
D11*
X210000000Y-12000000D02*
X210000000Y-10000000D01*
D10*
D11*
X260000000Y-12000000D02*
X260000000Y-10000000D01*
D10*
D11*
X36065476Y-11588095D02*
X35322619Y-11588095D01*
X35694047Y-11588095D02*
X35694047Y-10288095D01*
X35570238Y-10473809D01*
X35446428Y-10597619D01*
X35322619Y-10659523D01*
D10*
D11*
X85322619Y-10411904D02*
X85384523Y-10350000D01*
X85508333Y-10288095D01*
X85817857Y-10288095D01*
X85941666Y-10350000D01*
X86003571Y-10411904D01*
X86065476Y-10535714D01*
X86065476Y-10659523D01*
X86003571Y-10845238D01*
X85260714Y-11588095D01*
X86065476Y-11588095D01*
D10*
D11*
X135260714Y-10288095D02*
X136065476Y-10288095D01*
X135632142Y-10783333D01*
X135817857Y-10783333D01*
X135941666Y-10845238D01*
X136003571Y-10907142D01*
X136065476Y-11030952D01*
X136065476Y-11340476D01*
X136003571Y-11464285D01*
X135941666Y-11526190D01*
X135817857Y-11588095D01*
X135446428Y-11588095D01*
X135322619Y-11526190D01*
X135260714Y-11464285D01*
D10*
D11*
X185941666Y-10721428D02*
X185941666Y-11588095D01*
X185632142Y-10226190D02*
X185322619Y-11154761D01*
X186127380Y-11154761D01*
D10*
D11*
X236003571Y-10288095D02*
X235384523Y-10288095D01*
X235322619Y-10907142D01*
X235384523Y-10845238D01*
X235508333Y-10783333D01*
X235817857Y-10783333D01*
X235941666Y-10845238D01*
X236003571Y-10907142D01*
X236065476Y-11030952D01*
X236065476Y-11340476D01*
X236003571Y-11464285D01*
X235941666Y-11526190D01*
X235817857Y-11588095D01*
X235508333Y-11588095D01*
X235384523Y-11526190D01*
X235322619Y-11464285D01*
D10*
D11*
X285941666Y-10288095D02*
X285694047Y-10288095D01*
X285570238Y-10350000D01*
X285508333Y-10411904D01*
X285384523Y-10597619D01*
X285322619Y-10845238D01*
X285322619Y-11340476D01*
X285384523Y-11464285D01*
X285446428Y-11526190D01*
X285570238Y-11588095D01*
X285817857Y-11588095D01*
X285941666Y-11526190D01*
X286003571Y-11464285D01*
X286065476Y-11340476D01*
X286065476Y-11030952D01*
X286003571Y-10907142D01*
X285941666Y-10845238D01*
X285817857Y-10783333D01*
X285570238Y-10783333D01*
X285446428Y-10845238D01*
X285384523Y-10907142D01*
X285322619Y-11030952D01*
D10*
D11*
X60000000Y-198007200D02*
X60000000Y-200007200D01*
D10*
D11*
X110000000Y-198007200D02*
X110000000Y-200007200D01*
D10*
D11*
X160000000Y-198007200D02*
X160000000Y-200007200D01*
D10*
D11*
X210000000Y-198007200D02*
X210000000Y-200007200D01*
D10*
D11*
X260000000Y-198007200D02*
X260000000Y-200007200D01*
D10*
D11*
X36065476Y-199595295D02*
X35322619Y-199595295D01*
X35694047Y-199595295D02*
X35694047Y-198295295D01*
X35570238Y-198481009D01*
X35446428Y-198604819D01*
X35322619Y-198666723D01*
D10*
D11*
X85322619Y-198419104D02*
X85384523Y-198357200D01*
X85508333Y-198295295D01*
X85817857Y-198295295D01*
X85941666Y-198357200D01*
X86003571Y-198419104D01*
X86065476Y-198542914D01*
X86065476Y-198666723D01*
X86003571Y-198852438D01*
X85260714Y-199595295D01*
X86065476Y-199595295D01*
D10*
D11*
X135260714Y-198295295D02*
X136065476Y-198295295D01*
X135632142Y-198790533D01*
X135817857Y-198790533D01*
X135941666Y-198852438D01*
X136003571Y-198914342D01*
X136065476Y-199038152D01*
X136065476Y-199347676D01*
X136003571Y-199471485D01*
X135941666Y-199533390D01*
X135817857Y-199595295D01*
X135446428Y-199595295D01*
X135322619Y-199533390D01*
X135260714Y-199471485D01*
D10*
D11*
X185941666Y-198728628D02*
X185941666Y-199595295D01*
X185632142Y-198233390D02*
X185322619Y-199161961D01*
X186127380Y-199161961D01*
D10*
D11*
X236003571Y-198295295D02*
X235384523Y-198295295D01*
X235322619Y-198914342D01*
X235384523Y-198852438D01*
X235508333Y-198790533D01*
X235817857Y-198790533D01*
X235941666Y-198852438D01*
X236003571Y-198914342D01*
X236065476Y-199038152D01*
X236065476Y-199347676D01*
X236003571Y-199471485D01*
X235941666Y-199533390D01*
X235817857Y-199595295D01*
X235508333Y-199595295D01*
X235384523Y-199533390D01*
X235322619Y-199471485D01*
D10*
D11*
X285941666Y-198295295D02*
X285694047Y-198295295D01*
X285570238Y-198357200D01*
X285508333Y-198419104D01*
X285384523Y-198604819D01*
X285322619Y-198852438D01*
X285322619Y-199347676D01*
X285384523Y-199471485D01*
X285446428Y-199533390D01*
X285570238Y-199595295D01*
X285817857Y-199595295D01*
X285941666Y-199533390D01*
X286003571Y-199471485D01*
X286065476Y-199347676D01*
X286065476Y-199038152D01*
X286003571Y-198914342D01*
X285941666Y-198852438D01*
X285817857Y-198790533D01*
X285570238Y-198790533D01*
X285446428Y-198852438D01*
X285384523Y-198914342D01*
X285322619Y-199038152D01*
D10*
D11*
X10000000Y-60000000D02*
X12000000Y-60000000D01*
D10*
D11*
X10000000Y-110000000D02*
X12000000Y-110000000D01*
D10*
D11*
X10000000Y-160000000D02*
X12000000Y-160000000D01*
D10*
D11*
X10690476Y-35216666D02*
X11309523Y-35216666D01*
X10566666Y-35588095D02*
X11000000Y-34288095D01*
X11433333Y-35588095D01*
D10*
D11*
X11092857Y-84907142D02*
X11278571Y-84969047D01*
X11340476Y-85030952D01*
X11402380Y-85154761D01*
X11402380Y-85340476D01*
X11340476Y-85464285D01*
X11278571Y-85526190D01*
X11154761Y-85588095D01*
X10659523Y-85588095D01*
X10659523Y-84288095D01*
X11092857Y-84288095D01*
X11216666Y-84350000D01*
X11278571Y-84411904D01*
X11340476Y-84535714D01*
X11340476Y-84659523D01*
X11278571Y-84783333D01*
X11216666Y-84845238D01*
X11092857Y-84907142D01*
X10659523Y-84907142D01*
D10*
D11*
X11402380Y-135464285D02*
X11340476Y-135526190D01*
X11154761Y-135588095D01*
X11030952Y-135588095D01*
X10845238Y-135526190D01*
X10721428Y-135402380D01*
X10659523Y-135278571D01*
X10597619Y-135030952D01*
X10597619Y-134845238D01*
X10659523Y-134597619D01*
X10721428Y-134473809D01*
X10845238Y-134350000D01*
X11030952Y-134288095D01*
X11154761Y-134288095D01*
X11340476Y-134350000D01*
X11402380Y-134411904D01*
D10*
D11*
X10659523Y-185588095D02*
X10659523Y-184288095D01*
X10969047Y-184288095D01*
X11154761Y-184350000D01*
X11278571Y-184473809D01*
X11340476Y-184597619D01*
X11402380Y-184845238D01*
X11402380Y-185030952D01*
X11340476Y-185278571D01*
X11278571Y-185402380D01*
X11154761Y-185526190D01*
X10969047Y-185588095D01*
X10659523Y-185588095D01*
D10*
D11*
X287002200Y-60000000D02*
X285002200Y-60000000D01*
D10*
D11*
X287002200Y-110000000D02*
X285002200Y-110000000D01*
D10*
D11*
X287002200Y-160000000D02*
X285002200Y-160000000D01*
D10*
D11*
X285692676Y-35216666D02*
X286311723Y-35216666D01*
X285568866Y-35588095D02*
X286002200Y-34288095D01*
X286435533Y-35588095D01*
D10*
D11*
X286095057Y-84907142D02*
X286280771Y-84969047D01*
X286342676Y-85030952D01*
X286404580Y-85154761D01*
X286404580Y-85340476D01*
X286342676Y-85464285D01*
X286280771Y-85526190D01*
X286156961Y-85588095D01*
X285661723Y-85588095D01*
X285661723Y-84288095D01*
X286095057Y-84288095D01*
X286218866Y-84350000D01*
X286280771Y-84411904D01*
X286342676Y-84535714D01*
X286342676Y-84659523D01*
X286280771Y-84783333D01*
X286218866Y-84845238D01*
X286095057Y-84907142D01*
X285661723Y-84907142D01*
D10*
D11*
X286404580Y-135464285D02*
X286342676Y-135526190D01*
X286156961Y-135588095D01*
X286033152Y-135588095D01*
X285847438Y-135526190D01*
X285723628Y-135402380D01*
X285661723Y-135278571D01*
X285599819Y-135030952D01*
X285599819Y-134845238D01*
X285661723Y-134597619D01*
X285723628Y-134473809D01*
X285847438Y-134350000D01*
X286033152Y-134288095D01*
X286156961Y-134288095D01*
X286342676Y-134350000D01*
X286404580Y-134411904D01*
D10*
D11*
X285661723Y-185588095D02*
X285661723Y-184288095D01*
X285971247Y-184288095D01*
X286156961Y-184350000D01*
X286280771Y-184473809D01*
X286342676Y-184597619D01*
X286404580Y-184845238D01*
X286404580Y-185030952D01*
X286342676Y-185278571D01*
X286280771Y-185402380D01*
X286156961Y-185526190D01*
X285971247Y-185588095D01*
X285661723Y-185588095D01*
D10*
D11*
X200434342Y-193785771D02*
X200434342Y-192285771D01*
X200791485Y-192285771D01*
X201005771Y-192357200D01*
X201148628Y-192500057D01*
X201220057Y-192642914D01*
X201291485Y-192928628D01*
X201291485Y-193142914D01*
X201220057Y-193428628D01*
X201148628Y-193571485D01*
X201005771Y-193714342D01*
X200791485Y-193785771D01*
X200434342Y-193785771D01*
X202577200Y-193785771D02*
X202577200Y-193000057D01*
X202505771Y-192857200D01*
X202362914Y-192785771D01*
X202077200Y-192785771D01*
X201934342Y-192857200D01*
X202577200Y-193714342D02*
X202434342Y-193785771D01*
X202077200Y-193785771D01*
X201934342Y-193714342D01*
X201862914Y-193571485D01*
X201862914Y-193428628D01*
X201934342Y-193285771D01*
X202077200Y-193214342D01*
X202434342Y-193214342D01*
X202577200Y-193142914D01*
X203077200Y-192785771D02*
X203648628Y-192785771D01*
X203291485Y-192285771D02*
X203291485Y-193571485D01*
X203362914Y-193714342D01*
X203505771Y-193785771D01*
X203648628Y-193785771D01*
X204720057Y-193714342D02*
X204577200Y-193785771D01*
X204291485Y-193785771D01*
X204148628Y-193714342D01*
X204077200Y-193571485D01*
X204077200Y-193000057D01*
X204148628Y-192857200D01*
X204291485Y-192785771D01*
X204577200Y-192785771D01*
X204720057Y-192857200D01*
X204791485Y-193000057D01*
X204791485Y-193142914D01*
X204077200Y-193285771D01*
X205434342Y-193642914D02*
X205505771Y-193714342D01*
X205434342Y-193785771D01*
X205362914Y-193714342D01*
X205434342Y-193642914D01*
X205434342Y-193785771D01*
X205434342Y-192857200D02*
X205505771Y-192928628D01*
X205434342Y-193000057D01*
X205362914Y-192928628D01*
X205434342Y-192857200D01*
X205434342Y-193000057D01*
X207220057Y-192428628D02*
X207291485Y-192357200D01*
X207434342Y-192285771D01*
X207791485Y-192285771D01*
X207934342Y-192357200D01*
X208005771Y-192428628D01*
X208077200Y-192571485D01*
X208077200Y-192714342D01*
X208005771Y-192928628D01*
X207148628Y-193785771D01*
X208077200Y-193785771D01*
X209005771Y-192285771D02*
X209148628Y-192285771D01*
X209291485Y-192357200D01*
X209362914Y-192428628D01*
X209434342Y-192571485D01*
X209505771Y-192857200D01*
X209505771Y-193214342D01*
X209434342Y-193500057D01*
X209362914Y-193642914D01*
X209291485Y-193714342D01*
X209148628Y-193785771D01*
X209005771Y-193785771D01*
X208862914Y-193714342D01*
X208791485Y-193642914D01*
X208720057Y-193500057D01*
X208648628Y-193214342D01*
X208648628Y-192857200D01*
X208720057Y-192571485D01*
X208791485Y-192428628D01*
X208862914Y-192357200D01*
X209005771Y-192285771D01*
X210077200Y-192428628D02*
X210148628Y-192357200D01*
X210291485Y-192285771D01*
X210648628Y-192285771D01*
X210791485Y-192357200D01*
X210862914Y-192428628D01*
X210934342Y-192571485D01*
X210934342Y-192714342D01*
X210862914Y-192928628D01*
X210005771Y-193785771D01*
X210934342Y-193785771D01*
X212362914Y-193785771D02*
X211505771Y-193785771D01*
X211934342Y-193785771D02*
X211934342Y-192285771D01*
X211791485Y-192500057D01*
X211648628Y-192642914D01*
X211505771Y-192714342D01*
X213005771Y-193214342D02*
X214148628Y-193214342D01*
X215148628Y-192285771D02*
X215291485Y-192285771D01*
X215434342Y-192357200D01*
X215505771Y-192428628D01*
X215577200Y-192571485D01*
X215648628Y-192857200D01*
X215648628Y-193214342D01*
X215577200Y-193500057D01*
X215505771Y-193642914D01*
X215434342Y-193714342D01*
X215291485Y-193785771D01*
X215148628Y-193785771D01*
X215005771Y-193714342D01*
X214934342Y-193642914D01*
X214862914Y-193500057D01*
X214791485Y-193214342D01*
X214791485Y-192857200D01*
X214862914Y-192571485D01*
X214934342Y-192428628D01*
X215005771Y-192357200D01*
X215148628Y-192285771D01*
X216934342Y-192285771D02*
X216648628Y-192285771D01*
X216505771Y-192357200D01*
X216434342Y-192428628D01*
X216291485Y-192642914D01*
X216220057Y-192928628D01*
X216220057Y-193500057D01*
X216291485Y-193642914D01*
X216362914Y-193714342D01*
X216505771Y-193785771D01*
X216791485Y-193785771D01*
X216934342Y-193714342D01*
X217005771Y-193642914D01*
X217077200Y-193500057D01*
X217077200Y-193142914D01*
X217005771Y-193000057D01*
X216934342Y-192928628D01*
X216791485Y-192857200D01*
X216505771Y-192857200D01*
X216362914Y-192928628D01*
X216291485Y-193000057D01*
X216220057Y-193142914D01*
X217720057Y-193214342D02*
X218862914Y-193214342D01*
X219505771Y-192428628D02*
X219577200Y-192357200D01*
X219720057Y-192285771D01*
X220077200Y-192285771D01*
X220220057Y-192357200D01*
X220291485Y-192428628D01*
X220362914Y-192571485D01*
X220362914Y-192714342D01*
X220291485Y-192928628D01*
X219434342Y-193785771D01*
X220362914Y-193785771D01*
X221648628Y-192285771D02*
X221362914Y-192285771D01*
X221220057Y-192357200D01*
X221148628Y-192428628D01*
X221005771Y-192642914D01*
X220934342Y-192928628D01*
X220934342Y-193500057D01*
X221005771Y-193642914D01*
X221077200Y-193714342D01*
X221220057Y-193785771D01*
X221505771Y-193785771D01*
X221648628Y-193714342D01*
X221720057Y-193642914D01*
X221791485Y-193500057D01*
X221791485Y-193142914D01*
X221720057Y-193000057D01*
X221648628Y-192928628D01*
X221505771Y-192857200D01*
X221220057Y-192857200D01*
X221077200Y-192928628D01*
X221005771Y-193000057D01*
X220934342Y-193142914D01*
D10*
D11*
X177002200Y-194507200D02*
X285002200Y-194507200D01*
D10*
D11*
X178434342Y-196585771D02*
X178434342Y-195085771D01*
X179291485Y-196585771D02*
X178648628Y-195728628D01*
X179291485Y-195085771D02*
X178434342Y-195942914D01*
X179934342Y-196585771D02*
X179934342Y-195585771D01*
X179934342Y-195085771D02*
X179862914Y-195157200D01*
X179934342Y-195228628D01*
X180005771Y-195157200D01*
X179934342Y-195085771D01*
X179934342Y-195228628D01*
X181505771Y-196442914D02*
X181434342Y-196514342D01*
X181220057Y-196585771D01*
X181077200Y-196585771D01*
X180862914Y-196514342D01*
X180720057Y-196371485D01*
X180648628Y-196228628D01*
X180577200Y-195942914D01*
X180577200Y-195728628D01*
X180648628Y-195442914D01*
X180720057Y-195300057D01*
X180862914Y-195157200D01*
X181077200Y-195085771D01*
X181220057Y-195085771D01*
X181434342Y-195157200D01*
X181505771Y-195228628D01*
X182791485Y-196585771D02*
X182791485Y-195800057D01*
X182720057Y-195657200D01*
X182577200Y-195585771D01*
X182291485Y-195585771D01*
X182148628Y-195657200D01*
X182791485Y-196514342D02*
X182648628Y-196585771D01*
X182291485Y-196585771D01*
X182148628Y-196514342D01*
X182077200Y-196371485D01*
X182077200Y-196228628D01*
X182148628Y-196085771D01*
X182291485Y-196014342D01*
X182648628Y-196014342D01*
X182791485Y-195942914D01*
X184148628Y-196585771D02*
X184148628Y-195085771D01*
X184148628Y-196514342D02*
X184005771Y-196585771D01*
X183720057Y-196585771D01*
X183577200Y-196514342D01*
X183505771Y-196442914D01*
X183434342Y-196300057D01*
X183434342Y-195871485D01*
X183505771Y-195728628D01*
X183577200Y-195657200D01*
X183720057Y-195585771D01*
X184005771Y-195585771D01*
X184148628Y-195657200D01*
X186005771Y-195800057D02*
X186505771Y-195800057D01*
X186720057Y-196585771D02*
X186005771Y-196585771D01*
X186005771Y-195085771D01*
X186720057Y-195085771D01*
X187362914Y-196442914D02*
X187434342Y-196514342D01*
X187362914Y-196585771D01*
X187291485Y-196514342D01*
X187362914Y-196442914D01*
X187362914Y-196585771D01*
X188077200Y-196585771D02*
X188077200Y-195085771D01*
X188434342Y-195085771D01*
X188648628Y-195157200D01*
X188791485Y-195300057D01*
X188862914Y-195442914D01*
X188934342Y-195728628D01*
X188934342Y-195942914D01*
X188862914Y-196228628D01*
X188791485Y-196371485D01*
X188648628Y-196514342D01*
X188434342Y-196585771D01*
X188077200Y-196585771D01*
X189577200Y-196442914D02*
X189648628Y-196514342D01*
X189577200Y-196585771D01*
X189505771Y-196514342D01*
X189577200Y-196442914D01*
X189577200Y-196585771D01*
X190220057Y-196157200D02*
X190934342Y-196157200D01*
X190077200Y-196585771D02*
X190577200Y-195085771D01*
X191077200Y-196585771D01*
X191577200Y-196442914D02*
X191648628Y-196514342D01*
X191577200Y-196585771D01*
X191505771Y-196514342D01*
X191577200Y-196442914D01*
X191577200Y-196585771D01*
X194577200Y-196585771D02*
X194577200Y-195085771D01*
X194720057Y-196014342D02*
X195148628Y-196585771D01*
X195148628Y-195585771D02*
X194577200Y-196157200D01*
X195791485Y-196585771D02*
X195791485Y-195585771D01*
X195791485Y-195085771D02*
X195720057Y-195157200D01*
X195791485Y-195228628D01*
X195862914Y-195157200D01*
X195791485Y-195085771D01*
X195791485Y-195228628D01*
X197148628Y-196514342D02*
X197005771Y-196585771D01*
X196720057Y-196585771D01*
X196577200Y-196514342D01*
X196505771Y-196442914D01*
X196434342Y-196300057D01*
X196434342Y-195871485D01*
X196505771Y-195728628D01*
X196577200Y-195657200D01*
X196720057Y-195585771D01*
X197005771Y-195585771D01*
X197148628Y-195657200D01*
X198434342Y-196585771D02*
X198434342Y-195800057D01*
X198362914Y-195657200D01*
X198220057Y-195585771D01*
X197934342Y-195585771D01*
X197791485Y-195657200D01*
X198434342Y-196514342D02*
X198291485Y-196585771D01*
X197934342Y-196585771D01*
X197791485Y-196514342D01*
X197720057Y-196371485D01*
X197720057Y-196228628D01*
X197791485Y-196085771D01*
X197934342Y-196014342D01*
X198291485Y-196014342D01*
X198434342Y-195942914D01*
X199791485Y-196585771D02*
X199791485Y-195085771D01*
X199791485Y-196514342D02*
X199648628Y-196585771D01*
X199362914Y-196585771D01*
X199220057Y-196514342D01*
X199148628Y-196442914D01*
X199077200Y-196300057D01*
X199077200Y-195871485D01*
X199148628Y-195728628D01*
X199220057Y-195657200D01*
X199362914Y-195585771D01*
X199648628Y-195585771D01*
X199791485Y-195657200D01*
X202362914Y-195085771D02*
X201648628Y-195085771D01*
X201577200Y-195800057D01*
X201648628Y-195728628D01*
X201791485Y-195657200D01*
X202148628Y-195657200D01*
X202291485Y-195728628D01*
X202362914Y-195800057D01*
X202434342Y-195942914D01*
X202434342Y-196300057D01*
X202362914Y-196442914D01*
X202291485Y-196514342D01*
X202148628Y-196585771D01*
X201791485Y-196585771D01*
X201648628Y-196514342D01*
X201577200Y-196442914D01*
X203077200Y-196442914D02*
X203148628Y-196514342D01*
X203077200Y-196585771D01*
X203005771Y-196514342D01*
X203077200Y-196442914D01*
X203077200Y-196585771D01*
X204577200Y-196585771D02*
X203720057Y-196585771D01*
X204148628Y-196585771D02*
X204148628Y-195085771D01*
X204005771Y-195300057D01*
X203862914Y-195442914D01*
X203720057Y-195514342D01*
X205220057Y-196442914D02*
X205291485Y-196514342D01*
X205220057Y-196585771D01*
X205148628Y-196514342D01*
X205220057Y-196442914D01*
X205220057Y-196585771D01*
X206720057Y-196585771D02*
X205862914Y-196585771D01*
X206291485Y-196585771D02*
X206291485Y-195085771D01*
X206148628Y-195300057D01*
X206005771Y-195442914D01*
X205862914Y-195514342D01*
X207648628Y-195085771D02*
X207791485Y-195085771D01*
X207934342Y-195157200D01*
X208005771Y-195228628D01*
X208077200Y-195371485D01*
X208148628Y-195657200D01*
X208148628Y-196014342D01*
X208077200Y-196300057D01*
X208005771Y-196442914D01*
X207934342Y-196514342D01*
X207791485Y-196585771D01*
X207648628Y-196585771D01*
X207505771Y-196514342D01*
X207434342Y-196442914D01*
X207362914Y-196300057D01*
X207291485Y-196014342D01*
X207291485Y-195657200D01*
X207362914Y-195371485D01*
X207434342Y-195228628D01*
X207505771Y-195157200D01*
X207648628Y-195085771D01*
X208791485Y-196014342D02*
X209934342Y-196014342D01*
X210862914Y-195728628D02*
X210720057Y-195657200D01*
X210648628Y-195585771D01*
X210577200Y-195442914D01*
X210577200Y-195371485D01*
X210648628Y-195228628D01*
X210720057Y-195157200D01*
X210862914Y-195085771D01*
X211148628Y-195085771D01*
X211291485Y-195157200D01*
X211362914Y-195228628D01*
X211434342Y-195371485D01*
X211434342Y-195442914D01*
X211362914Y-195585771D01*
X211291485Y-195657200D01*
X211148628Y-195728628D01*
X210862914Y-195728628D01*
X210720057Y-195800057D01*
X210648628Y-195871485D01*
X210577200Y-196014342D01*
X210577200Y-196300057D01*
X210648628Y-196442914D01*
X210720057Y-196514342D01*
X210862914Y-196585771D01*
X211148628Y-196585771D01*
X211291485Y-196514342D01*
X211362914Y-196442914D01*
X211434342Y-196300057D01*
X211434342Y-196014342D01*
X211362914Y-195871485D01*
X211291485Y-195800057D01*
X211148628Y-195728628D01*
X212291485Y-195728628D02*
X212148628Y-195657200D01*
X212077200Y-195585771D01*
X212005771Y-195442914D01*
X212005771Y-195371485D01*
X212077200Y-195228628D01*
X212148628Y-195157200D01*
X212291485Y-195085771D01*
X212577200Y-195085771D01*
X212720057Y-195157200D01*
X212791485Y-195228628D01*
X212862914Y-195371485D01*
X212862914Y-195442914D01*
X212791485Y-195585771D01*
X212720057Y-195657200D01*
X212577200Y-195728628D01*
X212291485Y-195728628D01*
X212148628Y-195800057D01*
X212077200Y-195871485D01*
X212005771Y-196014342D01*
X212005771Y-196300057D01*
X212077200Y-196442914D01*
X212148628Y-196514342D01*
X212291485Y-196585771D01*
X212577200Y-196585771D01*
X212720057Y-196514342D01*
X212791485Y-196442914D01*
X212862914Y-196300057D01*
X212862914Y-196014342D01*
X212791485Y-195871485D01*
X212720057Y-195800057D01*
X212577200Y-195728628D01*
X214148628Y-196585771D02*
X214148628Y-195800057D01*
X214077200Y-195657200D01*
X213934342Y-195585771D01*
X213648628Y-195585771D01*
X213505771Y-195657200D01*
X214148628Y-196514342D02*
X214005771Y-196585771D01*
X213648628Y-196585771D01*
X213505771Y-196514342D01*
X213434342Y-196371485D01*
X213434342Y-196228628D01*
X213505771Y-196085771D01*
X213648628Y-196014342D01*
X214005771Y-196014342D01*
X214148628Y-195942914D01*
X215648628Y-196585771D02*
X214791485Y-196585771D01*
X215220057Y-196585771D02*
X215220057Y-195085771D01*
X215077200Y-195300057D01*
X214934342Y-195442914D01*
X214791485Y-195514342D01*
X216934342Y-196585771D02*
X216934342Y-195085771D01*
X216934342Y-196514342D02*
X216791485Y-196585771D01*
X216505771Y-196585771D01*
X216362914Y-196514342D01*
X216291485Y-196442914D01*
X216220057Y-196300057D01*
X216220057Y-195871485D01*
X216291485Y-195728628D01*
X216362914Y-195657200D01*
X216505771Y-195585771D01*
X216791485Y-195585771D01*
X216934342Y-195657200D01*
X218291485Y-195085771D02*
X218005771Y-195085771D01*
X217862914Y-195157200D01*
X217791485Y-195228628D01*
X217648628Y-195442914D01*
X217577200Y-195728628D01*
X217577200Y-196300057D01*
X217648628Y-196442914D01*
X217720057Y-196514342D01*
X217862914Y-196585771D01*
X218148628Y-196585771D01*
X218291485Y-196514342D01*
X218362914Y-196442914D01*
X218434342Y-196300057D01*
X218434342Y-195942914D01*
X218362914Y-195800057D01*
X218291485Y-195728628D01*
X218148628Y-195657200D01*
X217862914Y-195657200D01*
X217720057Y-195728628D01*
X217648628Y-195800057D01*
X217577200Y-195942914D01*
X219862914Y-196585771D02*
X219005771Y-196585771D01*
X219434342Y-196585771D02*
X219434342Y-195085771D01*
X219291485Y-195300057D01*
X219148628Y-195442914D01*
X219005771Y-195514342D01*
X221148628Y-196585771D02*
X221148628Y-195085771D01*
X221148628Y-196514342D02*
X221005771Y-196585771D01*
X220720057Y-196585771D01*
X220577200Y-196514342D01*
X220505771Y-196442914D01*
X220434342Y-196300057D01*
X220434342Y-195871485D01*
X220505771Y-195728628D01*
X220577200Y-195657200D01*
X220720057Y-195585771D01*
X221005771Y-195585771D01*
X221148628Y-195657200D01*
X222577200Y-195085771D02*
X221862914Y-195085771D01*
X221791485Y-195800057D01*
X221862914Y-195728628D01*
X222005771Y-195657200D01*
X222362914Y-195657200D01*
X222505771Y-195728628D01*
X222577200Y-195800057D01*
X222648628Y-195942914D01*
X222648628Y-196300057D01*
X222577200Y-196442914D01*
X222505771Y-196514342D01*
X222362914Y-196585771D01*
X222005771Y-196585771D01*
X221862914Y-196514342D01*
X221791485Y-196442914D01*
X223505771Y-195728628D02*
X223362914Y-195657200D01*
X223291485Y-195585771D01*
X223220057Y-195442914D01*
X223220057Y-195371485D01*
X223291485Y-195228628D01*
X223362914Y-195157200D01*
X223505771Y-195085771D01*
X223791485Y-195085771D01*
X223934342Y-195157200D01*
X224005771Y-195228628D01*
X224077200Y-195371485D01*
X224077200Y-195442914D01*
X224005771Y-195585771D01*
X223934342Y-195657200D01*
X223791485Y-195728628D01*
X223505771Y-195728628D01*
X223362914Y-195800057D01*
X223291485Y-195871485D01*
X223220057Y-196014342D01*
X223220057Y-196300057D01*
X223291485Y-196442914D01*
X223362914Y-196514342D01*
X223505771Y-196585771D01*
X223791485Y-196585771D01*
X223934342Y-196514342D01*
X224005771Y-196442914D01*
X224077200Y-196300057D01*
X224077200Y-196014342D01*
X224005771Y-195871485D01*
X223934342Y-195800057D01*
X223791485Y-195728628D01*
X224362914Y-194677200D02*
X225791485Y-194677200D01*
X224934342Y-195728628D02*
X224791485Y-195657200D01*
X224720057Y-195585771D01*
X224648628Y-195442914D01*
X224648628Y-195371485D01*
X224720057Y-195228628D01*
X224791485Y-195157200D01*
X224934342Y-195085771D01*
X225220057Y-195085771D01*
X225362914Y-195157200D01*
X225434342Y-195228628D01*
X225505771Y-195371485D01*
X225505771Y-195442914D01*
X225434342Y-195585771D01*
X225362914Y-195657200D01*
X225220057Y-195728628D01*
X224934342Y-195728628D01*
X224791485Y-195800057D01*
X224720057Y-195871485D01*
X224648628Y-196014342D01*
X224648628Y-196300057D01*
X224720057Y-196442914D01*
X224791485Y-196514342D01*
X224934342Y-196585771D01*
X225220057Y-196585771D01*
X225362914Y-196514342D01*
X225434342Y-196442914D01*
X225505771Y-196300057D01*
X225505771Y-196014342D01*
X225434342Y-195871485D01*
X225362914Y-195800057D01*
X225220057Y-195728628D01*
X225791485Y-194677200D02*
X227220057Y-194677200D01*
X226362914Y-195728628D02*
X226220057Y-195657200D01*
X226148628Y-195585771D01*
X226077199Y-195442914D01*
X226077199Y-195371485D01*
X226148628Y-195228628D01*
X226220057Y-195157200D01*
X226362914Y-195085771D01*
X226648628Y-195085771D01*
X226791485Y-195157200D01*
X226862914Y-195228628D01*
X226934342Y-195371485D01*
X226934342Y-195442914D01*
X226862914Y-195585771D01*
X226791485Y-195657200D01*
X226648628Y-195728628D01*
X226362914Y-195728628D01*
X226220057Y-195800057D01*
X226148628Y-195871485D01*
X226077199Y-196014342D01*
X226077199Y-196300057D01*
X226148628Y-196442914D01*
X226220057Y-196514342D01*
X226362914Y-196585771D01*
X226648628Y-196585771D01*
X226791485Y-196514342D01*
X226862914Y-196442914D01*
X226934342Y-196300057D01*
X226934342Y-196014342D01*
X226862914Y-195871485D01*
X226791485Y-195800057D01*
X226648628Y-195728628D01*
X228220057Y-195585771D02*
X228220057Y-196585771D01*
X227577199Y-195585771D02*
X227577199Y-196371485D01*
X227648628Y-196514342D01*
X227791485Y-196585771D01*
X228005771Y-196585771D01*
X228148628Y-196514342D01*
X228220057Y-196442914D01*
X228934342Y-196585771D02*
X228934342Y-195085771D01*
X228934342Y-195657200D02*
X229077199Y-195585771D01*
X229362914Y-195585771D01*
X229505771Y-195657200D01*
X229577199Y-195728628D01*
X229648628Y-195871485D01*
X229648628Y-196300057D01*
X229577199Y-196442914D01*
X229505771Y-196514342D01*
X229362914Y-196585771D01*
X229077199Y-196585771D01*
X228934342Y-196514342D01*
X230934342Y-195585771D02*
X230934342Y-196585771D01*
X230291485Y-195585771D02*
X230291485Y-196371485D01*
X230362914Y-196514342D01*
X230505771Y-196585771D01*
X230720057Y-196585771D01*
X230862914Y-196514342D01*
X230934342Y-196442914D01*
X231648628Y-195585771D02*
X231648628Y-196585771D01*
X231648628Y-195728628D02*
X231720057Y-195657200D01*
X231862914Y-195585771D01*
X232077199Y-195585771D01*
X232220057Y-195657200D01*
X232291485Y-195800057D01*
X232291485Y-196585771D01*
X232791485Y-195585771D02*
X233362914Y-195585771D01*
X233005771Y-195085771D02*
X233005771Y-196371485D01*
X233077199Y-196514342D01*
X233220057Y-196585771D01*
X233362914Y-196585771D01*
X234505771Y-195585771D02*
X234505771Y-196585771D01*
X233862914Y-195585771D02*
X233862914Y-196371485D01*
X233934342Y-196514342D01*
X234077200Y-196585771D01*
X234291485Y-196585771D01*
X234434342Y-196514342D01*
X234505771Y-196442914D01*
X235148628Y-195228628D02*
X235220057Y-195157200D01*
X235362914Y-195085771D01*
X235720057Y-195085771D01*
X235862914Y-195157200D01*
X235934342Y-195228628D01*
X236005771Y-195371485D01*
X236005771Y-195514342D01*
X235934342Y-195728628D01*
X235077200Y-196585771D01*
X236005771Y-196585771D01*
X236934342Y-195085771D02*
X237077199Y-195085771D01*
X237220057Y-195157200D01*
X237291485Y-195228628D01*
X237362914Y-195371485D01*
X237434342Y-195657200D01*
X237434342Y-196014342D01*
X237362914Y-196300057D01*
X237291485Y-196442914D01*
X237220057Y-196514342D01*
X237077199Y-196585771D01*
X236934342Y-196585771D01*
X236791485Y-196514342D01*
X236720057Y-196442914D01*
X236648628Y-196300057D01*
X236577199Y-196014342D01*
X236577199Y-195657200D01*
X236648628Y-195371485D01*
X236720057Y-195228628D01*
X236791485Y-195157200D01*
X236934342Y-195085771D01*
X238077199Y-196442914D02*
X238148628Y-196514342D01*
X238077199Y-196585771D01*
X238005771Y-196514342D01*
X238077199Y-196442914D01*
X238077199Y-196585771D01*
X239077199Y-195085771D02*
X239220057Y-195085771D01*
X239362914Y-195157200D01*
X239434342Y-195228628D01*
X239505771Y-195371485D01*
X239577199Y-195657200D01*
X239577199Y-196014342D01*
X239505771Y-196300057D01*
X239434342Y-196442914D01*
X239362914Y-196514342D01*
X239220057Y-196585771D01*
X239077199Y-196585771D01*
X238934342Y-196514342D01*
X238862914Y-196442914D01*
X238791485Y-196300057D01*
X238720057Y-196014342D01*
X238720057Y-195657200D01*
X238791485Y-195371485D01*
X238862914Y-195228628D01*
X238934342Y-195157200D01*
X239077199Y-195085771D01*
X240862914Y-195585771D02*
X240862914Y-196585771D01*
X240505771Y-195014342D02*
X240148628Y-196085771D01*
X241077199Y-196085771D01*
X241648628Y-196442914D02*
X241720057Y-196514342D01*
X241648628Y-196585771D01*
X241577199Y-196514342D01*
X241648628Y-196442914D01*
X241648628Y-196585771D01*
X243148628Y-196585771D02*
X242291485Y-196585771D01*
X242720057Y-196585771D02*
X242720057Y-195085771D01*
X242577199Y-195300057D01*
X242434342Y-195442914D01*
X242291485Y-195514342D01*
D10*
D11*
X177002200Y-191507200D02*
X285002200Y-191507200D01*
D10*
D12*
X264411485Y-193785771D02*
X263911485Y-193071485D01*
X263554342Y-193785771D02*
X263554342Y-192285771D01*
X264125771Y-192285771D01*
X264268628Y-192357200D01*
X264340057Y-192428628D01*
X264411485Y-192571485D01*
X264411485Y-192785771D01*
X264340057Y-192928628D01*
X264268628Y-193000057D01*
X264125771Y-193071485D01*
X263554342Y-193071485D01*
X265625771Y-193714342D02*
X265482914Y-193785771D01*
X265197200Y-193785771D01*
X265054342Y-193714342D01*
X264982914Y-193571485D01*
X264982914Y-193000057D01*
X265054342Y-192857200D01*
X265197200Y-192785771D01*
X265482914Y-192785771D01*
X265625771Y-192857200D01*
X265697200Y-193000057D01*
X265697200Y-193142914D01*
X264982914Y-193285771D01*
X266197200Y-192785771D02*
X266554342Y-193785771D01*
X266911485Y-192785771D01*
X267482914Y-193642914D02*
X267554342Y-193714342D01*
X267482914Y-193785771D01*
X267411485Y-193714342D01*
X267482914Y-193642914D01*
X267482914Y-193785771D01*
X267482914Y-192857200D02*
X267554342Y-192928628D01*
X267482914Y-193000057D01*
X267411485Y-192928628D01*
X267482914Y-192857200D01*
X267482914Y-193000057D01*
X269840057Y-193000057D02*
X270054342Y-193071485D01*
X270125771Y-193142914D01*
X270197200Y-193285771D01*
X270197200Y-193500057D01*
X270125771Y-193642914D01*
X270054342Y-193714342D01*
X269911485Y-193785771D01*
X269340057Y-193785771D01*
X269340057Y-192285771D01*
X269840057Y-192285771D01*
X269982914Y-192357200D01*
X270054342Y-192428628D01*
X270125771Y-192571485D01*
X270125771Y-192714342D01*
X270054342Y-192857200D01*
X269982914Y-192928628D01*
X269840057Y-193000057D01*
X269340057Y-193000057D01*
D10*
D11*
X178362914Y-193714342D02*
X178577200Y-193785771D01*
X178934342Y-193785771D01*
X179077200Y-193714342D01*
X179148628Y-193642914D01*
X179220057Y-193500057D01*
X179220057Y-193357200D01*
X179148628Y-193214342D01*
X179077200Y-193142914D01*
X178934342Y-193071485D01*
X178648628Y-193000057D01*
X178505771Y-192928628D01*
X178434342Y-192857200D01*
X178362914Y-192714342D01*
X178362914Y-192571485D01*
X178434342Y-192428628D01*
X178505771Y-192357200D01*
X178648628Y-192285771D01*
X179005771Y-192285771D01*
X179220057Y-192357200D01*
X179862914Y-193785771D02*
X179862914Y-192785771D01*
X179862914Y-192285771D02*
X179791485Y-192357200D01*
X179862914Y-192428628D01*
X179934342Y-192357200D01*
X179862914Y-192285771D01*
X179862914Y-192428628D01*
X180434342Y-192785771D02*
X181220057Y-192785771D01*
X180434342Y-193785771D01*
X181220057Y-193785771D01*
X182362914Y-193714342D02*
X182220057Y-193785771D01*
X181934342Y-193785771D01*
X181791485Y-193714342D01*
X181720057Y-193571485D01*
X181720057Y-193000057D01*
X181791485Y-192857200D01*
X181934342Y-192785771D01*
X182220057Y-192785771D01*
X182362914Y-192857200D01*
X182434342Y-193000057D01*
X182434342Y-193142914D01*
X181720057Y-193285771D01*
X183077200Y-193642914D02*
X183148628Y-193714342D01*
X183077200Y-193785771D01*
X183005771Y-193714342D01*
X183077200Y-193642914D01*
X183077200Y-193785771D01*
X183077200Y-192857200D02*
X183148628Y-192928628D01*
X183077200Y-193000057D01*
X183005771Y-192928628D01*
X183077200Y-192857200D01*
X183077200Y-193000057D01*
X184862914Y-193357200D02*
X185577200Y-193357200D01*
X184720057Y-193785771D02*
X185220057Y-192285771D01*
X185720057Y-193785771D01*
X186862914Y-192785771D02*
X186862914Y-193785771D01*
X186505771Y-192214342D02*
X186148628Y-193285771D01*
X187077200Y-193285771D01*
D10*
D11*
X263434342Y-196585771D02*
X263434342Y-195085771D01*
X264791485Y-196585771D02*
X264791485Y-195085771D01*
X264791485Y-196514342D02*
X264648628Y-196585771D01*
X264362914Y-196585771D01*
X264220057Y-196514342D01*
X264148628Y-196442914D01*
X264077200Y-196300057D01*
X264077200Y-195871485D01*
X264148628Y-195728628D01*
X264220057Y-195657200D01*
X264362914Y-195585771D01*
X264648628Y-195585771D01*
X264791485Y-195657200D01*
X265505771Y-196442914D02*
X265577200Y-196514342D01*
X265505771Y-196585771D01*
X265434342Y-196514342D01*
X265505771Y-196442914D01*
X265505771Y-196585771D01*
X265505771Y-195657200D02*
X265577200Y-195728628D01*
X265505771Y-195800057D01*
X265434342Y-195728628D01*
X265505771Y-195657200D01*
X265505771Y-195800057D01*
X268148628Y-196585771D02*
X267291485Y-196585771D01*
X267720057Y-196585771D02*
X267720057Y-195085771D01*
X267577200Y-195300057D01*
X267434342Y-195442914D01*
X267291485Y-195514342D01*
X269862914Y-195014342D02*
X268577200Y-196942914D01*
X271148628Y-196585771D02*
X270291485Y-196585771D01*
X270720057Y-196585771D02*
X270720057Y-195085771D01*
X270577200Y-195300057D01*
X270434342Y-195442914D01*
X270291485Y-195514342D01*
D10*
D11*
X177002200Y-187507200D02*
X285002200Y-187507200D01*
D10*
D13*
X178714580Y-188211961D02*
X179857438Y-188211961D01*
X179036009Y-190211961D02*
X179286009Y-188211961D01*
X180274104Y-190211961D02*
X180440771Y-188878628D01*
X180524104Y-188211961D02*
X180416961Y-188307200D01*
X180500295Y-188402438D01*
X180607438Y-188307200D01*
X180524104Y-188211961D01*
X180500295Y-188402438D01*
X181107438Y-188878628D02*
X181869342Y-188878628D01*
X181476485Y-188211961D02*
X181262200Y-189926247D01*
X181333628Y-190116723D01*
X181512200Y-190211961D01*
X181702676Y-190211961D01*
X182655057Y-190211961D02*
X182476485Y-190116723D01*
X182405057Y-189926247D01*
X182619342Y-188211961D01*
X184190771Y-190116723D02*
X183988390Y-190211961D01*
X183607438Y-190211961D01*
X183428866Y-190116723D01*
X183357438Y-189926247D01*
X183452676Y-189164342D01*
X183571723Y-188973866D01*
X183774104Y-188878628D01*
X184155057Y-188878628D01*
X184333628Y-188973866D01*
X184405057Y-189164342D01*
X184381247Y-189354819D01*
X183405057Y-189545295D01*
X185155057Y-190021485D02*
X185238390Y-190116723D01*
X185131247Y-190211961D01*
X185047914Y-190116723D01*
X185155057Y-190021485D01*
X185131247Y-190211961D01*
X185286009Y-188973866D02*
X185369342Y-189069104D01*
X185262200Y-189164342D01*
X185178866Y-189069104D01*
X185286009Y-188973866D01*
X185262200Y-189164342D01*
X187607438Y-190211961D02*
X187857438Y-188211961D01*
X188619342Y-188211961D01*
X188797914Y-188307200D01*
X188881247Y-188402438D01*
X188952676Y-188592914D01*
X188916961Y-188878628D01*
X188797914Y-189069104D01*
X188690771Y-189164342D01*
X188488390Y-189259580D01*
X187726485Y-189259580D01*
X189893152Y-190211961D02*
X189714580Y-190116723D01*
X189631247Y-190021485D01*
X189559819Y-189831009D01*
X189631247Y-189259580D01*
X189750295Y-189069104D01*
X189857438Y-188973866D01*
X190059819Y-188878628D01*
X190345533Y-188878628D01*
X190524104Y-188973866D01*
X190607438Y-189069104D01*
X190678866Y-189259580D01*
X190607438Y-189831009D01*
X190488390Y-190021485D01*
X190381247Y-190116723D01*
X190178866Y-190211961D01*
X189893152Y-190211961D01*
X191416961Y-190211961D02*
X191583628Y-188878628D01*
X191536009Y-189259580D02*
X191655057Y-189069104D01*
X191762200Y-188973866D01*
X191964580Y-188878628D01*
X192155057Y-188878628D01*
X192536009Y-188878628D02*
X193297914Y-188878628D01*
X192905057Y-188211961D02*
X192690771Y-189926247D01*
X192762200Y-190116723D01*
X192940771Y-190211961D01*
X193131247Y-190211961D01*
X194655057Y-190211961D02*
X194786009Y-189164342D01*
X194714580Y-188973866D01*
X194536009Y-188878628D01*
X194155057Y-188878628D01*
X193952676Y-188973866D01*
X194666961Y-190116723D02*
X194464580Y-190211961D01*
X193988390Y-190211961D01*
X193809819Y-190116723D01*
X193738390Y-189926247D01*
X193762200Y-189735771D01*
X193881247Y-189545295D01*
X194083628Y-189450057D01*
X194559819Y-189450057D01*
X194762200Y-189354819D01*
X195893152Y-190211961D02*
X195714580Y-190116723D01*
X195643152Y-189926247D01*
X195857438Y-188211961D01*
X199464580Y-188307200D02*
X199286009Y-188211961D01*
X199000295Y-188211961D01*
X198702676Y-188307200D01*
X198488390Y-188497676D01*
X198369342Y-188688152D01*
X198226485Y-189069104D01*
X198190771Y-189354819D01*
X198238390Y-189735771D01*
X198309819Y-189926247D01*
X198476485Y-190116723D01*
X198750295Y-190211961D01*
X198940771Y-190211961D01*
X199238390Y-190116723D01*
X199345533Y-190021485D01*
X199428866Y-189354819D01*
X199047914Y-189354819D01*
X201202676Y-188878628D02*
X201036009Y-190211961D01*
X200345533Y-188878628D02*
X200214580Y-189926247D01*
X200286009Y-190116723D01*
X200464580Y-190211961D01*
X200750295Y-190211961D01*
X200952676Y-190116723D01*
X201059819Y-190021485D01*
X202155057Y-188878628D02*
X201988390Y-190211961D01*
X202131247Y-189069104D02*
X202238390Y-188973866D01*
X202440771Y-188878628D01*
X202726485Y-188878628D01*
X202905057Y-188973866D01*
X202976485Y-189164342D01*
X202845533Y-190211961D01*
X205321723Y-190211961D02*
X205571723Y-188211961D01*
X206059819Y-189640533D01*
X206905057Y-188211961D01*
X206655057Y-190211961D01*
X208464580Y-190211961D02*
X208595533Y-189164342D01*
X208524104Y-188973866D01*
X208345533Y-188878628D01*
X207964580Y-188878628D01*
X207762200Y-188973866D01*
X208476485Y-190116723D02*
X208274104Y-190211961D01*
X207797914Y-190211961D01*
X207619342Y-190116723D01*
X207547914Y-189926247D01*
X207571723Y-189735771D01*
X207690771Y-189545295D01*
X207893152Y-189450057D01*
X208369342Y-189450057D01*
X208571723Y-189354819D01*
X209416961Y-190211961D02*
X209583628Y-188878628D01*
X209666961Y-188211961D02*
X209559819Y-188307200D01*
X209643152Y-188402438D01*
X209750295Y-188307200D01*
X209666961Y-188211961D01*
X209643152Y-188402438D01*
X210536009Y-188878628D02*
X210369342Y-190211961D01*
X210512200Y-189069104D02*
X210619342Y-188973866D01*
X210821723Y-188878628D01*
X211107438Y-188878628D01*
X211286009Y-188973866D01*
X211357438Y-189164342D01*
X211226485Y-190211961D01*
X214500295Y-189164342D02*
X214774104Y-189259580D01*
X214857438Y-189354819D01*
X214928866Y-189545295D01*
X214893152Y-189831009D01*
X214774104Y-190021485D01*
X214666961Y-190116723D01*
X214464580Y-190211961D01*
X213702676Y-190211961D01*
X213952676Y-188211961D01*
X214619342Y-188211961D01*
X214797914Y-188307200D01*
X214881247Y-188402438D01*
X214952676Y-188592914D01*
X214928866Y-188783390D01*
X214809819Y-188973866D01*
X214702676Y-189069104D01*
X214500295Y-189164342D01*
X213833628Y-189164342D01*
X215988390Y-190211961D02*
X215809819Y-190116723D01*
X215726485Y-190021485D01*
X215655057Y-189831009D01*
X215726485Y-189259580D01*
X215845533Y-189069104D01*
X215952676Y-188973866D01*
X216155057Y-188878628D01*
X216440771Y-188878628D01*
X216619342Y-188973866D01*
X216702676Y-189069104D01*
X216774104Y-189259580D01*
X216702676Y-189831009D01*
X216583628Y-190021485D01*
X216476485Y-190116723D01*
X216274104Y-190211961D01*
X215988390Y-190211961D01*
X218369342Y-190211961D02*
X218500295Y-189164342D01*
X218428866Y-188973866D01*
X218250295Y-188878628D01*
X217869342Y-188878628D01*
X217666961Y-188973866D01*
X218381247Y-190116723D02*
X218178866Y-190211961D01*
X217702676Y-190211961D01*
X217524104Y-190116723D01*
X217452676Y-189926247D01*
X217476485Y-189735771D01*
X217595533Y-189545295D01*
X217797914Y-189450057D01*
X218274104Y-189450057D01*
X218476485Y-189354819D01*
X219321723Y-190211961D02*
X219488390Y-188878628D01*
X219440771Y-189259580D02*
X219559819Y-189069104D01*
X219666961Y-188973866D01*
X219869342Y-188878628D01*
X220059819Y-188878628D01*
X221416961Y-190211961D02*
X221666961Y-188211961D01*
X221428866Y-190116723D02*
X221226485Y-190211961D01*
X220845533Y-190211961D01*
X220666961Y-190116723D01*
X220583628Y-190021485D01*
X220512200Y-189831009D01*
X220583628Y-189259580D01*
X220702676Y-189069104D01*
X220809819Y-188973866D01*
X221012200Y-188878628D01*
X221393152Y-188878628D01*
X221571723Y-188973866D01*
D10*
D11*
X178934342Y-185600057D02*
X178434342Y-185600057D01*
X178434342Y-186385771D02*
X178434342Y-184885771D01*
X179148628Y-184885771D01*
X179720057Y-186385771D02*
X179720057Y-185385771D01*
X179720057Y-184885771D02*
X179648628Y-184957200D01*
X179720057Y-185028628D01*
X179791485Y-184957200D01*
X179720057Y-184885771D01*
X179720057Y-185028628D01*
X180648628Y-186385771D02*
X180505771Y-186314342D01*
X180434342Y-186171485D01*
X180434342Y-184885771D01*
X181791485Y-186314342D02*
X181648628Y-186385771D01*
X181362914Y-186385771D01*
X181220057Y-186314342D01*
X181148628Y-186171485D01*
X181148628Y-185600057D01*
X181220057Y-185457200D01*
X181362914Y-185385771D01*
X181648628Y-185385771D01*
X181791485Y-185457200D01*
X181862914Y-185600057D01*
X181862914Y-185742914D01*
X181148628Y-185885771D01*
X182505771Y-186242914D02*
X182577200Y-186314342D01*
X182505771Y-186385771D01*
X182434342Y-186314342D01*
X182505771Y-186242914D01*
X182505771Y-186385771D01*
X182505771Y-185457200D02*
X182577200Y-185528628D01*
X182505771Y-185600057D01*
X182434342Y-185528628D01*
X182505771Y-185457200D01*
X182505771Y-185600057D01*
X184362914Y-185385771D02*
X184362914Y-186885771D01*
X184362914Y-185457200D02*
X184505771Y-185385771D01*
X184791485Y-185385771D01*
X184934342Y-185457200D01*
X185005771Y-185528628D01*
X185077200Y-185671485D01*
X185077200Y-186100057D01*
X185005771Y-186242914D01*
X184934342Y-186314342D01*
X184791485Y-186385771D01*
X184505771Y-186385771D01*
X184362914Y-186314342D01*
X185934342Y-186385771D02*
X185791485Y-186314342D01*
X185720057Y-186242914D01*
X185648628Y-186100057D01*
X185648628Y-185671485D01*
X185720057Y-185528628D01*
X185791485Y-185457200D01*
X185934342Y-185385771D01*
X186148628Y-185385771D01*
X186291485Y-185457200D01*
X186362914Y-185528628D01*
X186434342Y-185671485D01*
X186434342Y-186100057D01*
X186362914Y-186242914D01*
X186291485Y-186314342D01*
X186148628Y-186385771D01*
X185934342Y-186385771D01*
X187077200Y-186385771D02*
X187077200Y-185385771D01*
X187077200Y-185671485D02*
X187148628Y-185528628D01*
X187220057Y-185457200D01*
X187362914Y-185385771D01*
X187505771Y-185385771D01*
X187791485Y-185385771D02*
X188362914Y-185385771D01*
X188005771Y-184885771D02*
X188005771Y-186171485D01*
X188077200Y-186314342D01*
X188220057Y-186385771D01*
X188362914Y-186385771D01*
X189505771Y-186385771D02*
X189505771Y-185600057D01*
X189434342Y-185457200D01*
X189291485Y-185385771D01*
X189005771Y-185385771D01*
X188862914Y-185457200D01*
X189505771Y-186314342D02*
X189362914Y-186385771D01*
X189005771Y-186385771D01*
X188862914Y-186314342D01*
X188791485Y-186171485D01*
X188791485Y-186028628D01*
X188862914Y-185885771D01*
X189005771Y-185814342D01*
X189362914Y-185814342D01*
X189505771Y-185742914D01*
X190434342Y-186385771D02*
X190291485Y-186314342D01*
X190220057Y-186171485D01*
X190220057Y-184885771D01*
X191648628Y-185385771D02*
X191648628Y-186600057D01*
X191577200Y-186742914D01*
X191505771Y-186814342D01*
X191362914Y-186885771D01*
X191148628Y-186885771D01*
X191005771Y-186814342D01*
X191648628Y-186314342D02*
X191505771Y-186385771D01*
X191220057Y-186385771D01*
X191077200Y-186314342D01*
X191005771Y-186242914D01*
X190934342Y-186100057D01*
X190934342Y-185671485D01*
X191005771Y-185528628D01*
X191077200Y-185457200D01*
X191220057Y-185385771D01*
X191505771Y-185385771D01*
X191648628Y-185457200D01*
X193005771Y-185385771D02*
X193005771Y-186385771D01*
X192362914Y-185385771D02*
X192362914Y-186171485D01*
X192434342Y-186314342D01*
X192577200Y-186385771D01*
X192791485Y-186385771D01*
X192934342Y-186314342D01*
X193005771Y-186242914D01*
X193720057Y-185385771D02*
X193720057Y-186385771D01*
X193720057Y-185528628D02*
X193791485Y-185457200D01*
X193934342Y-185385771D01*
X194148628Y-185385771D01*
X194291485Y-185457200D01*
X194362914Y-185600057D01*
X194362914Y-186385771D01*
X195077200Y-186242914D02*
X195148628Y-186314342D01*
X195077200Y-186385771D01*
X195005771Y-186314342D01*
X195077200Y-186242914D01*
X195077200Y-186385771D01*
X195791485Y-186385771D02*
X195791485Y-184885771D01*
X195934342Y-185814342D02*
X196362914Y-186385771D01*
X196362914Y-185385771D02*
X195791485Y-185957200D01*
X197005771Y-186385771D02*
X197005771Y-185385771D01*
X197005771Y-184885771D02*
X196934342Y-184957200D01*
X197005771Y-185028628D01*
X197077200Y-184957200D01*
X197005771Y-184885771D01*
X197005771Y-185028628D01*
X198362914Y-186314342D02*
X198220057Y-186385771D01*
X197934342Y-186385771D01*
X197791485Y-186314342D01*
X197720057Y-186242914D01*
X197648628Y-186100057D01*
X197648628Y-185671485D01*
X197720057Y-185528628D01*
X197791485Y-185457200D01*
X197934342Y-185385771D01*
X198220057Y-185385771D01*
X198362914Y-185457200D01*
X199648628Y-186385771D02*
X199648628Y-185600057D01*
X199577200Y-185457200D01*
X199434342Y-185385771D01*
X199148628Y-185385771D01*
X199005771Y-185457200D01*
X199648628Y-186314342D02*
X199505771Y-186385771D01*
X199148628Y-186385771D01*
X199005771Y-186314342D01*
X198934342Y-186171485D01*
X198934342Y-186028628D01*
X199005771Y-185885771D01*
X199148628Y-185814342D01*
X199505771Y-185814342D01*
X199648628Y-185742914D01*
X201005771Y-186385771D02*
X201005771Y-184885771D01*
X201005771Y-186314342D02*
X200862914Y-186385771D01*
X200577200Y-186385771D01*
X200434342Y-186314342D01*
X200362914Y-186242914D01*
X200291485Y-186100057D01*
X200291485Y-185671485D01*
X200362914Y-185528628D01*
X200434342Y-185457200D01*
X200577200Y-185385771D01*
X200862914Y-185385771D01*
X201005771Y-185457200D01*
X201362914Y-186528628D02*
X202505771Y-186528628D01*
X202862914Y-185385771D02*
X202862914Y-186885771D01*
X202862914Y-185457200D02*
X203005771Y-185385771D01*
X203291485Y-185385771D01*
X203434342Y-185457200D01*
X203505771Y-185528628D01*
X203577200Y-185671485D01*
X203577200Y-186100057D01*
X203505771Y-186242914D01*
X203434342Y-186314342D01*
X203291485Y-186385771D01*
X203005771Y-186385771D01*
X202862914Y-186314342D01*
X204862914Y-186314342D02*
X204720057Y-186385771D01*
X204434342Y-186385771D01*
X204291485Y-186314342D01*
X204220057Y-186242914D01*
X204148628Y-186100057D01*
X204148628Y-185671485D01*
X204220057Y-185528628D01*
X204291485Y-185457200D01*
X204434342Y-185385771D01*
X204720057Y-185385771D01*
X204862914Y-185457200D01*
X205505771Y-186385771D02*
X205505771Y-184885771D01*
X205505771Y-185457200D02*
X205648628Y-185385771D01*
X205934342Y-185385771D01*
X206077200Y-185457200D01*
X206148628Y-185528628D01*
X206220057Y-185671485D01*
X206220057Y-186100057D01*
X206148628Y-186242914D01*
X206077200Y-186314342D01*
X205934342Y-186385771D01*
X205648628Y-186385771D01*
X205505771Y-186314342D01*
D10*
D11*
X177002200Y-181507200D02*
X285002200Y-181507200D01*
D10*
D11*
X178362914Y-183614342D02*
X178577200Y-183685771D01*
X178934342Y-183685771D01*
X179077200Y-183614342D01*
X179148628Y-183542914D01*
X179220057Y-183400057D01*
X179220057Y-183257200D01*
X179148628Y-183114342D01*
X179077200Y-183042914D01*
X178934342Y-182971485D01*
X178648628Y-182900057D01*
X178505771Y-182828628D01*
X178434342Y-182757200D01*
X178362914Y-182614342D01*
X178362914Y-182471485D01*
X178434342Y-182328628D01*
X178505771Y-182257200D01*
X178648628Y-182185771D01*
X179005771Y-182185771D01*
X179220057Y-182257200D01*
X179862914Y-183685771D02*
X179862914Y-182185771D01*
X180505771Y-183685771D02*
X180505771Y-182900057D01*
X180434342Y-182757200D01*
X180291485Y-182685771D01*
X180077200Y-182685771D01*
X179934342Y-182757200D01*
X179862914Y-182828628D01*
X181791485Y-183614342D02*
X181648628Y-183685771D01*
X181362914Y-183685771D01*
X181220057Y-183614342D01*
X181148628Y-183471485D01*
X181148628Y-182900057D01*
X181220057Y-182757200D01*
X181362914Y-182685771D01*
X181648628Y-182685771D01*
X181791485Y-182757200D01*
X181862914Y-182900057D01*
X181862914Y-183042914D01*
X181148628Y-183185771D01*
X183077200Y-183614342D02*
X182934342Y-183685771D01*
X182648628Y-183685771D01*
X182505771Y-183614342D01*
X182434342Y-183471485D01*
X182434342Y-182900057D01*
X182505771Y-182757200D01*
X182648628Y-182685771D01*
X182934342Y-182685771D01*
X183077200Y-182757200D01*
X183148628Y-182900057D01*
X183148628Y-183042914D01*
X182434342Y-183185771D01*
X183577200Y-182685771D02*
X184148628Y-182685771D01*
X183791485Y-182185771D02*
X183791485Y-183471485D01*
X183862914Y-183614342D01*
X184005771Y-183685771D01*
X184148628Y-183685771D01*
X184648628Y-183542914D02*
X184720057Y-183614342D01*
X184648628Y-183685771D01*
X184577200Y-183614342D01*
X184648628Y-183542914D01*
X184648628Y-183685771D01*
X184648628Y-182757200D02*
X184720057Y-182828628D01*
X184648628Y-182900057D01*
X184577200Y-182828628D01*
X184648628Y-182757200D01*
X184648628Y-182900057D01*
D10*
D12*
X178982914Y-179185771D02*
X178982914Y-180257200D01*
X178911485Y-180471485D01*
X178768628Y-180614342D01*
X178554342Y-180685771D01*
X178411485Y-180685771D01*
X180340057Y-180685771D02*
X180340057Y-179900057D01*
X180268628Y-179757200D01*
X180125771Y-179685771D01*
X179840057Y-179685771D01*
X179697200Y-179757200D01*
X180340057Y-180614342D02*
X180197200Y-180685771D01*
X179840057Y-180685771D01*
X179697200Y-180614342D01*
X179625771Y-180471485D01*
X179625771Y-180328628D01*
X179697200Y-180185771D01*
X179840057Y-180114342D01*
X180197200Y-180114342D01*
X180340057Y-180042914D01*
X181697200Y-180614342D02*
X181554342Y-180685771D01*
X181268628Y-180685771D01*
X181125771Y-180614342D01*
X181054342Y-180542914D01*
X180982914Y-180400057D01*
X180982914Y-179971485D01*
X181054342Y-179828628D01*
X181125771Y-179757200D01*
X181268628Y-179685771D01*
X181554342Y-179685771D01*
X181697200Y-179757200D01*
X182554342Y-180685771D02*
X182411485Y-180614342D01*
X182340057Y-180542914D01*
X182268628Y-180400057D01*
X182268628Y-179971485D01*
X182340057Y-179828628D01*
X182411485Y-179757200D01*
X182554342Y-179685771D01*
X182768628Y-179685771D01*
X182911485Y-179757200D01*
X182982914Y-179828628D01*
X183054342Y-179971485D01*
X183054342Y-180400057D01*
X182982914Y-180542914D01*
X182911485Y-180614342D01*
X182768628Y-180685771D01*
X182554342Y-180685771D01*
X183697200Y-180685771D02*
X183697200Y-179185771D01*
X183697200Y-179757200D02*
X183840057Y-179685771D01*
X184125771Y-179685771D01*
X184268628Y-179757200D01*
X184340057Y-179828628D01*
X184411485Y-179971485D01*
X184411485Y-180400057D01*
X184340057Y-180542914D01*
X184268628Y-180614342D01*
X184125771Y-180685771D01*
X183840057Y-180685771D01*
X183697200Y-180614342D01*
X186197200Y-180685771D02*
X186197200Y-179185771D01*
X187054342Y-180685771D02*
X186411485Y-179828628D01*
X187054342Y-179185771D02*
X186197200Y-180042914D01*
X187697200Y-180685771D02*
X187697200Y-179685771D01*
X187697200Y-179185771D02*
X187625771Y-179257200D01*
X187697200Y-179328628D01*
X187768628Y-179257200D01*
X187697200Y-179185771D01*
X187697200Y-179328628D01*
X188625771Y-180685771D02*
X188482914Y-180614342D01*
X188411485Y-180471485D01*
X188411485Y-179185771D01*
X189411485Y-180685771D02*
X189268628Y-180614342D01*
X189197200Y-180471485D01*
X189197200Y-179185771D01*
X190554342Y-180614342D02*
X190411485Y-180685771D01*
X190125771Y-180685771D01*
X189982914Y-180614342D01*
X189911485Y-180471485D01*
X189911485Y-179900057D01*
X189982914Y-179757200D01*
X190125771Y-179685771D01*
X190411485Y-179685771D01*
X190554342Y-179757200D01*
X190625771Y-179900057D01*
X190625771Y-180042914D01*
X189911485Y-180185771D01*
X191482914Y-180685771D02*
X191340057Y-180614342D01*
X191268628Y-180471485D01*
X191268628Y-179185771D01*
X192625771Y-180614342D02*
X192482914Y-180685771D01*
X192197200Y-180685771D01*
X192054342Y-180614342D01*
X191982914Y-180471485D01*
X191982914Y-179900057D01*
X192054342Y-179757200D01*
X192197200Y-179685771D01*
X192482914Y-179685771D01*
X192625771Y-179757200D01*
X192697200Y-179900057D01*
X192697200Y-180042914D01*
X191982914Y-180185771D01*
X193982914Y-180685771D02*
X193982914Y-179900057D01*
X193911485Y-179757200D01*
X193768628Y-179685771D01*
X193482914Y-179685771D01*
X193340057Y-179757200D01*
X193982914Y-180614342D02*
X193840057Y-180685771D01*
X193482914Y-180685771D01*
X193340057Y-180614342D01*
X193268628Y-180471485D01*
X193268628Y-180328628D01*
X193340057Y-180185771D01*
X193482914Y-180114342D01*
X193840057Y-180114342D01*
X193982914Y-180042914D01*
D10*
D11*
X197002200Y-191507200D02*
X197002200Y-194507200D01*
D10*
D11*
X261002200Y-191507200D02*
X261002200Y-198007200D01*
D10*
%TO.C,R13*%
X207169000Y-103416000D02*
X207169000Y-101816000D01*
X207994000Y-103416000D02*
X207169000Y-103416000D01*
X207994000Y-101816000D02*
X207994000Y-103416000D01*
X207169000Y-101816000D02*
X207994000Y-101816000D01*
%TO.C,U4*%
X203304670Y-102428990D02*
X201713680Y-100838000D01*
X201713680Y-100838000D02*
X203835000Y-98716680D01*
X203835000Y-98716680D02*
X205956320Y-100838000D01*
X205956320Y-100838000D02*
X204365330Y-102428990D01*
X204365330Y-102428990D02*
X203304670Y-102428990D01*
%TO.C,J5*%
X193675000Y-114808000D02*
X194310000Y-115443000D01*
X189230000Y-114808000D02*
X193675000Y-114808000D01*
X189230000Y-117348000D02*
X189230000Y-114808000D01*
X194310000Y-117348000D02*
X189230000Y-117348000D01*
X194310000Y-115443000D02*
X194310000Y-117348000D01*
%TO.C,J10*%
X187071000Y-114808000D02*
X187706000Y-115443000D01*
X182626000Y-114808000D02*
X187071000Y-114808000D01*
X182626000Y-117348000D02*
X182626000Y-114808000D01*
X187706000Y-117348000D02*
X182626000Y-117348000D01*
X187706000Y-115443000D02*
X187706000Y-117348000D01*
%TO.C,J4*%
X201549000Y-95250000D02*
X200914000Y-94615000D01*
X205994000Y-95250000D02*
X201549000Y-95250000D01*
X205994000Y-92710000D02*
X205994000Y-95250000D01*
X200914000Y-92710000D02*
X205994000Y-92710000D01*
X200914000Y-94615000D02*
X200914000Y-92710000D01*
%TO.C,J3*%
X200279000Y-114808000D02*
X200914000Y-115443000D01*
X195834000Y-114808000D02*
X200279000Y-114808000D01*
X195834000Y-117348000D02*
X195834000Y-114808000D01*
X200914000Y-117348000D02*
X195834000Y-117348000D01*
X200914000Y-115443000D02*
X200914000Y-117348000D01*
%TO.C,J1*%
X186817000Y-92964000D02*
X187452000Y-93599000D01*
X182372000Y-92964000D02*
X186817000Y-92964000D01*
X182372000Y-95504000D02*
X182372000Y-92964000D01*
X187452000Y-95504000D02*
X182372000Y-95504000D01*
X187452000Y-93599000D02*
X187452000Y-95504000D01*
D14*
%TO.C,U2*%
X242823000Y-116903000D02*
X242823000Y-124903000D01*
X242323000Y-116403000D02*
X242823000Y-116903000D01*
X242823000Y-115903000D02*
X242323000Y-116403000D01*
X242823000Y-100903000D02*
X242823000Y-115903000D01*
X226823000Y-100903000D02*
X242823000Y-100903000D01*
X226823000Y-124903000D02*
X226823000Y-100903000D01*
X242823000Y-124903000D02*
X226823000Y-124903000D01*
D10*
%TO.C,C12*%
X189180000Y-96911000D02*
X191180000Y-96911000D01*
X189180000Y-98161000D02*
X189180000Y-96911000D01*
X191180000Y-98161000D02*
X189180000Y-98161000D01*
X191180000Y-96911000D02*
X191180000Y-98161000D01*
%TO.C,Q4*%
X185101000Y-99945000D02*
X186501000Y-99945000D01*
X186501000Y-96905000D02*
X186501000Y-99945000D01*
X185101000Y-97475000D02*
X185651000Y-96905000D01*
X185651000Y-96905000D02*
X186501000Y-96905000D01*
X185101000Y-97475000D02*
X185101000Y-99925000D01*
%TO.C,C9*%
X218932000Y-98796000D02*
X216932000Y-98796000D01*
X218932000Y-97546000D02*
X218932000Y-98796000D01*
X216932000Y-97546000D02*
X218932000Y-97546000D01*
X216932000Y-98796000D02*
X216932000Y-97546000D01*
%TO.C,C8*%
X196707000Y-105273000D02*
X194707000Y-105273000D01*
X196707000Y-104023000D02*
X196707000Y-105273000D01*
X194707000Y-104023000D02*
X196707000Y-104023000D01*
X194707000Y-105273000D02*
X194707000Y-104023000D01*
%TO.C,C3*%
X206476414Y-99791298D02*
X205062200Y-98377084D01*
X207360298Y-98907414D02*
X206476414Y-99791298D01*
X205946084Y-97493200D02*
X207360298Y-98907414D01*
X205062200Y-98377084D02*
X205946084Y-97493200D01*
%TO.C,C11*%
X240401000Y-95520000D02*
X239151000Y-95520000D01*
X240401000Y-97520000D02*
X240401000Y-95520000D01*
X239463500Y-97520000D02*
X240401000Y-97520000D01*
X239151000Y-97207500D02*
X239463500Y-97520000D01*
X239151000Y-95520000D02*
X239151000Y-97207500D01*
%TO.C,SW1*%
X215308000Y-115828000D02*
X215308000Y-109828000D01*
X209308000Y-115828000D02*
X209308000Y-109828000D01*
X209308000Y-109828000D02*
X215308000Y-109828000D01*
X209308000Y-115828000D02*
X215308000Y-115828000D01*
%TO.C,R6*%
X218224000Y-116490500D02*
X216624000Y-116490500D01*
X218224000Y-115665500D02*
X218224000Y-116490500D01*
X216624000Y-115665500D02*
X218224000Y-115665500D01*
X216624000Y-116490500D02*
X216624000Y-115665500D01*
%TO.C,Q3*%
X198054000Y-111822000D02*
X195604000Y-111822000D01*
X198624000Y-112372000D02*
X198624000Y-113222000D01*
X198054000Y-111822000D02*
X198624000Y-112372000D01*
X198624000Y-113222000D02*
X195584000Y-113222000D01*
X195584000Y-111822000D02*
X195584000Y-113222000D01*
%TO.C,Q2*%
X191450000Y-111822000D02*
X189000000Y-111822000D01*
X192020000Y-112372000D02*
X192020000Y-113222000D01*
X191450000Y-111822000D02*
X192020000Y-112372000D01*
X192020000Y-113222000D02*
X188980000Y-113222000D01*
X188980000Y-111822000D02*
X188980000Y-113222000D01*
%TO.C,Q1*%
X185354000Y-111822000D02*
X182904000Y-111822000D01*
X185924000Y-112372000D02*
X185924000Y-113222000D01*
X185354000Y-111822000D02*
X185924000Y-112372000D01*
X185924000Y-113222000D02*
X182884000Y-113222000D01*
X182884000Y-111822000D02*
X182884000Y-113222000D01*
%TO.C,SW2*%
X215308000Y-105922000D02*
X215308000Y-99922000D01*
X209308000Y-105922000D02*
X209308000Y-99922000D01*
X209308000Y-99922000D02*
X215308000Y-99922000D01*
X209308000Y-105922000D02*
X215308000Y-105922000D01*
%TO.C,J2*%
X215670000Y-92946000D02*
X215670000Y-96146000D01*
X215670000Y-96146000D02*
X226170000Y-96146000D01*
X226170000Y-96146000D02*
X226170000Y-92946000D01*
X226170000Y-92946000D02*
X215670000Y-92946000D01*
X216670000Y-96146000D02*
X217170000Y-95438893D01*
X217170000Y-95438893D02*
X217670000Y-96146000D01*
%TO.C,U3*%
X194157000Y-106796000D02*
X197257000Y-106796000D01*
X197257000Y-106796000D02*
X197257000Y-108596000D01*
X194807000Y-108596000D02*
X197257000Y-108596000D01*
X194157000Y-106796000D02*
X194157000Y-107946000D01*
X194807000Y-108596000D02*
X194157000Y-107946000D01*
%TO.C,C2*%
X242433000Y-95520000D02*
X242433000Y-97520000D01*
X241183000Y-95520000D02*
X242433000Y-95520000D01*
X241183000Y-97520000D02*
X241183000Y-95520000D01*
X242433000Y-97520000D02*
X241183000Y-97520000D01*
%TO.C,J9*%
X209042000Y-95438893D02*
X209542000Y-96146000D01*
X208542000Y-96146000D02*
X209042000Y-95438893D01*
X214292000Y-92946000D02*
X207542000Y-92946000D01*
X214292000Y-96146000D02*
X214292000Y-92946000D01*
X207542000Y-96146000D02*
X214292000Y-96146000D01*
X207542000Y-92946000D02*
X207542000Y-96146000D01*
%TO.C,R11*%
X187356500Y-111722000D02*
X187356500Y-113322000D01*
X186531500Y-111722000D02*
X187356500Y-111722000D01*
X186531500Y-113322000D02*
X186531500Y-111722000D01*
X187356500Y-113322000D02*
X186531500Y-113322000D01*
%TO.C,R10*%
X193452500Y-111722000D02*
X193452500Y-113322000D01*
X192627500Y-111722000D02*
X193452500Y-111722000D01*
X192627500Y-113322000D02*
X192627500Y-111722000D01*
X193452500Y-113322000D02*
X192627500Y-113322000D01*
%TO.C,R8*%
X200056500Y-111722000D02*
X200056500Y-113322000D01*
X199231500Y-111722000D02*
X200056500Y-111722000D01*
X199231500Y-113322000D02*
X199231500Y-111722000D01*
X200056500Y-113322000D02*
X199231500Y-113322000D01*
%TO.C,U1*%
X188984000Y-105916000D02*
X188234000Y-105166000D01*
X191234000Y-105916000D02*
X188984000Y-105916000D01*
X191234000Y-102916000D02*
X191234000Y-105916000D01*
X188234000Y-102916000D02*
X191234000Y-102916000D01*
X188234000Y-105166000D02*
X188234000Y-102916000D01*
%TO.C,R4*%
X186321500Y-107466000D02*
X186321500Y-105866000D01*
X187146500Y-107466000D02*
X186321500Y-107466000D01*
X187146500Y-105866000D02*
X187146500Y-107466000D01*
X186321500Y-105866000D02*
X187146500Y-105866000D01*
%TO.C,R2*%
X186321500Y-103966000D02*
X186321500Y-102366000D01*
X187146500Y-103966000D02*
X186321500Y-103966000D01*
X187146500Y-102366000D02*
X187146500Y-103966000D01*
X186321500Y-102366000D02*
X187146500Y-102366000D01*
%TO.C,R1*%
X192071500Y-103716000D02*
X192071500Y-102116000D01*
X192896500Y-103716000D02*
X192071500Y-103716000D01*
X192896500Y-102116000D02*
X192896500Y-103716000D01*
X192071500Y-102116000D02*
X192896500Y-102116000D01*
%TO.C,L1*%
X189408000Y-99022000D02*
X192608000Y-99022000D01*
X189408000Y-100622000D02*
X189408000Y-99022000D01*
X192608000Y-100622000D02*
X189408000Y-100622000D01*
X192608000Y-99022000D02*
X192608000Y-100622000D01*
%TO.C,C7*%
X186652000Y-109100000D02*
X188252000Y-109100000D01*
X186652000Y-109900000D02*
X186652000Y-109100000D01*
X188252000Y-109900000D02*
X186652000Y-109900000D01*
X188252000Y-109100000D02*
X188252000Y-109900000D01*
%TO.C,C5*%
X184033000Y-104378000D02*
X185283000Y-104378000D01*
X184033000Y-102378000D02*
X184033000Y-104378000D01*
X184970500Y-102378000D02*
X184033000Y-102378000D01*
X185283000Y-102690500D02*
X184970500Y-102378000D01*
X185283000Y-104378000D02*
X185283000Y-102690500D01*
%TO.C,C1*%
X189855000Y-93488000D02*
X188605000Y-93488000D01*
X189855000Y-95488000D02*
X189855000Y-93488000D01*
X188917500Y-95488000D02*
X189855000Y-95488000D01*
X188605000Y-95175500D02*
X188917500Y-95488000D01*
X188605000Y-93488000D02*
X188605000Y-95175500D01*
%TO.C,R3*%
X192071500Y-105616000D02*
X192896500Y-105616000D01*
X192896500Y-105616000D02*
X192896500Y-107216000D01*
X192896500Y-107216000D02*
X192071500Y-107216000D01*
X192071500Y-107216000D02*
X192071500Y-105616000D01*
%TO.C,C6*%
X190716000Y-109874000D02*
X190716000Y-109074000D01*
X190716000Y-109074000D02*
X192316000Y-109074000D01*
X192316000Y-109074000D02*
X192316000Y-109874000D01*
X192316000Y-109874000D02*
X190716000Y-109874000D01*
%TD*%
%TO.C,R13*%
D15*
X208231851Y-103937637D02*
X208231851Y-104082779D01*
X208268137Y-104155351D01*
X208304422Y-104191637D01*
X208413279Y-104264208D01*
X208558422Y-104300494D01*
X208848708Y-104300494D01*
X208921279Y-104264208D01*
X208957565Y-104227922D01*
X208993851Y-104155351D01*
X208993851Y-104010208D01*
X208957565Y-103937637D01*
X208921279Y-103901351D01*
X208848708Y-103865065D01*
X208667279Y-103865065D01*
X208594708Y-103901351D01*
X208558422Y-103937637D01*
X208522137Y-104010208D01*
X208522137Y-104155351D01*
X208558422Y-104227922D01*
X208594708Y-104264208D01*
X208667279Y-104300494D01*
X208231851Y-103611065D02*
X208231851Y-103139351D01*
X208522137Y-103393351D01*
X208522137Y-103284494D01*
X208558422Y-103211922D01*
X208594708Y-103175637D01*
X208667279Y-103139351D01*
X208848708Y-103139351D01*
X208921279Y-103175637D01*
X208957565Y-103211922D01*
X208993851Y-103284494D01*
X208993851Y-103502208D01*
X208957565Y-103574779D01*
X208921279Y-103611065D01*
X208485851Y-102486208D02*
X208993851Y-102486208D01*
X208195565Y-102667637D02*
X208739851Y-102849065D01*
X208739851Y-102377351D01*
X208993851Y-102087065D02*
X208231851Y-102087065D01*
X208703565Y-102014494D02*
X208993851Y-101796779D01*
X208485851Y-101796779D02*
X208776137Y-102087065D01*
X208993851Y-101034779D02*
X208630994Y-101288779D01*
X208993851Y-101470208D02*
X208231851Y-101470208D01*
X208231851Y-101179922D01*
X208268137Y-101107351D01*
X208304422Y-101071065D01*
X208376994Y-101034779D01*
X208485851Y-101034779D01*
X208558422Y-101071065D01*
X208594708Y-101107351D01*
X208630994Y-101179922D01*
X208630994Y-101470208D01*
X207850851Y-105189494D02*
X207487994Y-105443494D01*
X207850851Y-105624922D02*
X207088851Y-105624922D01*
X207088851Y-105334637D01*
X207125137Y-105262065D01*
X207161422Y-105225779D01*
X207233994Y-105189494D01*
X207342851Y-105189494D01*
X207415422Y-105225779D01*
X207451708Y-105262065D01*
X207487994Y-105334637D01*
X207487994Y-105624922D01*
X207850851Y-104463779D02*
X207850851Y-104899208D01*
X207850851Y-104681494D02*
X207088851Y-104681494D01*
X207197708Y-104754065D01*
X207270279Y-104826637D01*
X207306565Y-104899208D01*
X207088851Y-104209779D02*
X207088851Y-103738065D01*
X207379137Y-103992065D01*
X207379137Y-103883208D01*
X207415422Y-103810637D01*
X207451708Y-103774351D01*
X207524279Y-103738065D01*
X207705708Y-103738065D01*
X207778279Y-103774351D01*
X207814565Y-103810637D01*
X207850851Y-103883208D01*
X207850851Y-104100922D01*
X207814565Y-104173494D01*
X207778279Y-104209779D01*
%TO.C,U4*%
X198431568Y-98970066D02*
X198970383Y-98431251D01*
X198765120Y-98995724D01*
X199329593Y-98790461D01*
X198790778Y-99329277D01*
X199175646Y-99406250D02*
X199432225Y-99662829D01*
X198970383Y-99508882D02*
X199688804Y-99149671D01*
X199329593Y-99868092D01*
X199996698Y-99457566D02*
X199817093Y-100355592D01*
X200355908Y-99816776D02*
X199457883Y-99996381D01*
X200048014Y-100586512D02*
X200150645Y-100689144D01*
X200227619Y-100714802D01*
X200278935Y-100714802D01*
X200407224Y-100689144D01*
X200535513Y-100612170D01*
X200740776Y-100406907D01*
X200766434Y-100329934D01*
X200766434Y-100278618D01*
X200740776Y-100201644D01*
X200638145Y-100099013D01*
X200561171Y-100073355D01*
X200509856Y-100073355D01*
X200432882Y-100099013D01*
X200304593Y-100227302D01*
X200278935Y-100304276D01*
X200278935Y-100355592D01*
X200304593Y-100432565D01*
X200407224Y-100535197D01*
X200484198Y-100560855D01*
X200535513Y-100560855D01*
X200612487Y-100535197D01*
X200920382Y-100843091D02*
X200894724Y-100766118D01*
X200894724Y-100714802D01*
X200920382Y-100637828D01*
X200946039Y-100612170D01*
X201023013Y-100586512D01*
X201074329Y-100586512D01*
X201151302Y-100612170D01*
X201253934Y-100714802D01*
X201279592Y-100791775D01*
X201279592Y-100843091D01*
X201253934Y-100920065D01*
X201228276Y-100945723D01*
X201151302Y-100971381D01*
X201099987Y-100971381D01*
X201023013Y-100945723D01*
X200920382Y-100843091D01*
X200843408Y-100817433D01*
X200792092Y-100817433D01*
X200715119Y-100843091D01*
X200612487Y-100945723D01*
X200586829Y-101022696D01*
X200586829Y-101074012D01*
X200612487Y-101150986D01*
X200715119Y-101253617D01*
X200792092Y-101279275D01*
X200843408Y-101279275D01*
X200920382Y-101253617D01*
X201023013Y-101150986D01*
X201048671Y-101074012D01*
X201048671Y-101022696D01*
X201023013Y-100945723D01*
X201536171Y-100997038D02*
X201869723Y-101330591D01*
X201484855Y-101356249D01*
X201561828Y-101433222D01*
X201587486Y-101510196D01*
X201587486Y-101561512D01*
X201561828Y-101638485D01*
X201433539Y-101766775D01*
X201356565Y-101792433D01*
X201305250Y-101792433D01*
X201228276Y-101766775D01*
X201074329Y-101612827D01*
X201048671Y-101535854D01*
X201048671Y-101484538D01*
X202357223Y-101818090D02*
X202100644Y-101561512D01*
X201818407Y-101792433D01*
X201869723Y-101792433D01*
X201946697Y-101818090D01*
X202074986Y-101946380D01*
X202100644Y-102023353D01*
X202100644Y-102074669D01*
X202074986Y-102151643D01*
X201946697Y-102279932D01*
X201869723Y-102305590D01*
X201818407Y-102305590D01*
X201741434Y-102279932D01*
X201613144Y-102151643D01*
X201587486Y-102074669D01*
X201587486Y-102023353D01*
X202562486Y-102023353D02*
X202921696Y-102382564D01*
X202151960Y-102690458D01*
X202716433Y-102947037D02*
X202973012Y-103203616D01*
X202511170Y-103049668D02*
X203229590Y-102690458D01*
X202870380Y-103408879D01*
X203332222Y-103306247D02*
X203511827Y-103485852D01*
X203306564Y-103845063D02*
X203049985Y-103588484D01*
X203588801Y-103049668D01*
X203845379Y-103306247D01*
X203999327Y-103460194D02*
X204307221Y-103768089D01*
X203614458Y-104152957D02*
X204153274Y-103614142D01*
X204230247Y-104204273D02*
X204409853Y-104383878D01*
X204204590Y-104743088D02*
X203948011Y-104486509D01*
X204486826Y-103947694D01*
X204743405Y-104204273D01*
X203719539Y-100132408D02*
X203283355Y-100568592D01*
X203257697Y-100645565D01*
X203257697Y-100696881D01*
X203283355Y-100773855D01*
X203385987Y-100876486D01*
X203462960Y-100902144D01*
X203514276Y-100902144D01*
X203591250Y-100876486D01*
X204027434Y-100440302D01*
X204335328Y-101107407D02*
X203976118Y-101466617D01*
X204412302Y-100773855D02*
X203899144Y-101030434D01*
X204232697Y-101363986D01*
%TO.C,J5*%
X191516000Y-115660714D02*
X191516000Y-116205000D01*
X191479714Y-116313857D01*
X191407142Y-116386428D01*
X191298285Y-116422714D01*
X191225714Y-116422714D01*
X192241714Y-115660714D02*
X191878857Y-115660714D01*
X191842571Y-116023571D01*
X191878857Y-115987285D01*
X191951428Y-115951000D01*
X192132857Y-115951000D01*
X192205428Y-115987285D01*
X192241714Y-116023571D01*
X192278000Y-116096142D01*
X192278000Y-116277571D01*
X192241714Y-116350142D01*
X192205428Y-116386428D01*
X192132857Y-116422714D01*
X191951428Y-116422714D01*
X191878857Y-116386428D01*
X191842571Y-116350142D01*
%TO.C,J10*%
X184549142Y-115660714D02*
X184549142Y-116205000D01*
X184512857Y-116313857D01*
X184440285Y-116386428D01*
X184331428Y-116422714D01*
X184258857Y-116422714D01*
X185311142Y-116422714D02*
X184875714Y-116422714D01*
X185093428Y-116422714D02*
X185093428Y-115660714D01*
X185020857Y-115769571D01*
X184948285Y-115842142D01*
X184875714Y-115878428D01*
X185782857Y-115660714D02*
X185855428Y-115660714D01*
X185928000Y-115697000D01*
X185964285Y-115733285D01*
X186000571Y-115805857D01*
X186036857Y-115951000D01*
X186036857Y-116132428D01*
X186000571Y-116277571D01*
X185964285Y-116350142D01*
X185928000Y-116386428D01*
X185855428Y-116422714D01*
X185782857Y-116422714D01*
X185710285Y-116386428D01*
X185674000Y-116350142D01*
X185637714Y-116277571D01*
X185601428Y-116132428D01*
X185601428Y-115951000D01*
X185637714Y-115805857D01*
X185674000Y-115733285D01*
X185710285Y-115697000D01*
X185782857Y-115660714D01*
%TO.C,J4*%
X203200000Y-93562714D02*
X203200000Y-94107000D01*
X203163714Y-94215857D01*
X203091142Y-94288428D01*
X202982285Y-94324714D01*
X202909714Y-94324714D01*
X203889428Y-93816714D02*
X203889428Y-94324714D01*
X203708000Y-93526428D02*
X203526571Y-94070714D01*
X203998285Y-94070714D01*
%TO.C,J3*%
X198120000Y-115660714D02*
X198120000Y-116205000D01*
X198083714Y-116313857D01*
X198011142Y-116386428D01*
X197902285Y-116422714D01*
X197829714Y-116422714D01*
X198410285Y-115660714D02*
X198882000Y-115660714D01*
X198628000Y-115951000D01*
X198736857Y-115951000D01*
X198809428Y-115987285D01*
X198845714Y-116023571D01*
X198882000Y-116096142D01*
X198882000Y-116277571D01*
X198845714Y-116350142D01*
X198809428Y-116386428D01*
X198736857Y-116422714D01*
X198519142Y-116422714D01*
X198446571Y-116386428D01*
X198410285Y-116350142D01*
%TO.C,J1*%
X184658000Y-93816714D02*
X184658000Y-94361000D01*
X184621714Y-94469857D01*
X184549142Y-94542428D01*
X184440285Y-94578714D01*
X184367714Y-94578714D01*
X185420000Y-94578714D02*
X184984571Y-94578714D01*
X185202285Y-94578714D02*
X185202285Y-93816714D01*
X185129714Y-93925571D01*
X185057142Y-93998142D01*
X184984571Y-94034428D01*
%TO.C,U2*%
X232451857Y-125628571D02*
X232705857Y-125628571D01*
X232814714Y-126027714D02*
X232451857Y-126027714D01*
X232451857Y-125265714D01*
X232814714Y-125265714D01*
X233105000Y-125991428D02*
X233213857Y-126027714D01*
X233395285Y-126027714D01*
X233467857Y-125991428D01*
X233504142Y-125955142D01*
X233540428Y-125882571D01*
X233540428Y-125810000D01*
X233504142Y-125737428D01*
X233467857Y-125701142D01*
X233395285Y-125664857D01*
X233250142Y-125628571D01*
X233177571Y-125592285D01*
X233141285Y-125556000D01*
X233105000Y-125483428D01*
X233105000Y-125410857D01*
X233141285Y-125338285D01*
X233177571Y-125302000D01*
X233250142Y-125265714D01*
X233431571Y-125265714D01*
X233540428Y-125302000D01*
X233867000Y-126027714D02*
X233867000Y-125265714D01*
X234157285Y-125265714D01*
X234229857Y-125302000D01*
X234266142Y-125338285D01*
X234302428Y-125410857D01*
X234302428Y-125519714D01*
X234266142Y-125592285D01*
X234229857Y-125628571D01*
X234157285Y-125664857D01*
X233867000Y-125664857D01*
X234629000Y-125737428D02*
X235209571Y-125737428D01*
X235971571Y-126027714D02*
X235536142Y-126027714D01*
X235753857Y-126027714D02*
X235753857Y-125265714D01*
X235681285Y-125374571D01*
X235608714Y-125447142D01*
X235536142Y-125483428D01*
X236261857Y-125338285D02*
X236298142Y-125302000D01*
X236370714Y-125265714D01*
X236552142Y-125265714D01*
X236624714Y-125302000D01*
X236661000Y-125338285D01*
X236697285Y-125410857D01*
X236697285Y-125483428D01*
X236661000Y-125592285D01*
X236225571Y-126027714D01*
X236697285Y-126027714D01*
X237277857Y-125628571D02*
X237023857Y-125628571D01*
X237023857Y-126027714D02*
X237023857Y-125265714D01*
X237386714Y-125265714D01*
X233752428Y-113285714D02*
X233752428Y-113902571D01*
X233788714Y-113975142D01*
X233825000Y-114011428D01*
X233897571Y-114047714D01*
X234042714Y-114047714D01*
X234115285Y-114011428D01*
X234151571Y-113975142D01*
X234187857Y-113902571D01*
X234187857Y-113285714D01*
X234514428Y-113358285D02*
X234550714Y-113322000D01*
X234623285Y-113285714D01*
X234804714Y-113285714D01*
X234877285Y-113322000D01*
X234913571Y-113358285D01*
X234949857Y-113430857D01*
X234949857Y-113503428D01*
X234913571Y-113612285D01*
X234478142Y-114047714D01*
X234949857Y-114047714D01*
%TO.C,TP6*%
X205957714Y-112794142D02*
X205195714Y-112794142D01*
X205268285Y-112467571D02*
X205232000Y-112431285D01*
X205195714Y-112358714D01*
X205195714Y-112177285D01*
X205232000Y-112104714D01*
X205268285Y-112068428D01*
X205340857Y-112032142D01*
X205413428Y-112032142D01*
X205522285Y-112068428D01*
X205957714Y-112503857D01*
X205957714Y-112032142D01*
X205921428Y-111741857D02*
X205957714Y-111633000D01*
X205957714Y-111451571D01*
X205921428Y-111379000D01*
X205885142Y-111342714D01*
X205812571Y-111306428D01*
X205740000Y-111306428D01*
X205667428Y-111342714D01*
X205631142Y-111379000D01*
X205594857Y-111451571D01*
X205558571Y-111596714D01*
X205522285Y-111669285D01*
X205486000Y-111705571D01*
X205413428Y-111741857D01*
X205340857Y-111741857D01*
X205268285Y-111705571D01*
X205232000Y-111669285D01*
X205195714Y-111596714D01*
X205195714Y-111415285D01*
X205232000Y-111306428D01*
X206030285Y-111161285D02*
X206030285Y-110580714D01*
X205957714Y-110399285D02*
X205195714Y-110399285D01*
X205195714Y-110217857D01*
X205232000Y-110109000D01*
X205304571Y-110036428D01*
X205377142Y-110000142D01*
X205522285Y-109963857D01*
X205631142Y-109963857D01*
X205776285Y-110000142D01*
X205848857Y-110036428D01*
X205921428Y-110109000D01*
X205957714Y-110217857D01*
X205957714Y-110399285D01*
X205957714Y-109637285D02*
X205195714Y-109637285D01*
X205957714Y-109274428D02*
X205195714Y-109274428D01*
X205957714Y-108839000D01*
X205195714Y-108839000D01*
X206030285Y-108657571D02*
X206030285Y-108077000D01*
X205195714Y-108004428D02*
X205195714Y-107569000D01*
X205957714Y-107786714D02*
X205195714Y-107786714D01*
X205957714Y-107315000D02*
X205195714Y-107315000D01*
X205195714Y-107024714D01*
X205232000Y-106952142D01*
X205268285Y-106915857D01*
X205340857Y-106879571D01*
X205449714Y-106879571D01*
X205522285Y-106915857D01*
X205558571Y-106952142D01*
X205594857Y-107024714D01*
X205594857Y-107315000D01*
X205032428Y-104357714D02*
X205467857Y-104357714D01*
X205250142Y-105119714D02*
X205250142Y-104357714D01*
X205721857Y-105119714D02*
X205721857Y-104357714D01*
X206012142Y-104357714D01*
X206084714Y-104394000D01*
X206121000Y-104430285D01*
X206157285Y-104502857D01*
X206157285Y-104611714D01*
X206121000Y-104684285D01*
X206084714Y-104720571D01*
X206012142Y-104756857D01*
X205721857Y-104756857D01*
X206810428Y-104357714D02*
X206665285Y-104357714D01*
X206592714Y-104394000D01*
X206556428Y-104430285D01*
X206483857Y-104539142D01*
X206447571Y-104684285D01*
X206447571Y-104974571D01*
X206483857Y-105047142D01*
X206520142Y-105083428D01*
X206592714Y-105119714D01*
X206737857Y-105119714D01*
X206810428Y-105083428D01*
X206846714Y-105047142D01*
X206883000Y-104974571D01*
X206883000Y-104793142D01*
X206846714Y-104720571D01*
X206810428Y-104684285D01*
X206737857Y-104648000D01*
X206592714Y-104648000D01*
X206520142Y-104684285D01*
X206483857Y-104720571D01*
X206447571Y-104793142D01*
%TO.C,TP5*%
X204814714Y-112776000D02*
X204052714Y-112776000D01*
X204125285Y-112449428D02*
X204089000Y-112413142D01*
X204052714Y-112340571D01*
X204052714Y-112159142D01*
X204089000Y-112086571D01*
X204125285Y-112050285D01*
X204197857Y-112014000D01*
X204270428Y-112014000D01*
X204379285Y-112050285D01*
X204814714Y-112485714D01*
X204814714Y-112014000D01*
X204778428Y-111723714D02*
X204814714Y-111614857D01*
X204814714Y-111433428D01*
X204778428Y-111360857D01*
X204742142Y-111324571D01*
X204669571Y-111288285D01*
X204597000Y-111288285D01*
X204524428Y-111324571D01*
X204488142Y-111360857D01*
X204451857Y-111433428D01*
X204415571Y-111578571D01*
X204379285Y-111651142D01*
X204343000Y-111687428D01*
X204270428Y-111723714D01*
X204197857Y-111723714D01*
X204125285Y-111687428D01*
X204089000Y-111651142D01*
X204052714Y-111578571D01*
X204052714Y-111397142D01*
X204089000Y-111288285D01*
X204887285Y-111143142D02*
X204887285Y-110562571D01*
X204415571Y-110127142D02*
X204451857Y-110018285D01*
X204488142Y-109982000D01*
X204560714Y-109945714D01*
X204669571Y-109945714D01*
X204742142Y-109982000D01*
X204778428Y-110018285D01*
X204814714Y-110090857D01*
X204814714Y-110381142D01*
X204052714Y-110381142D01*
X204052714Y-110127142D01*
X204089000Y-110054571D01*
X204125285Y-110018285D01*
X204197857Y-109982000D01*
X204270428Y-109982000D01*
X204343000Y-110018285D01*
X204379285Y-110054571D01*
X204415571Y-110127142D01*
X204415571Y-110381142D01*
X204742142Y-109183714D02*
X204778428Y-109220000D01*
X204814714Y-109328857D01*
X204814714Y-109401428D01*
X204778428Y-109510285D01*
X204705857Y-109582857D01*
X204633285Y-109619142D01*
X204488142Y-109655428D01*
X204379285Y-109655428D01*
X204234142Y-109619142D01*
X204161571Y-109582857D01*
X204089000Y-109510285D01*
X204052714Y-109401428D01*
X204052714Y-109328857D01*
X204089000Y-109220000D01*
X204125285Y-109183714D01*
X204814714Y-108494285D02*
X204814714Y-108857142D01*
X204052714Y-108857142D01*
X204814714Y-108240285D02*
X204052714Y-108240285D01*
X204814714Y-107804857D02*
X204379285Y-108131428D01*
X204052714Y-107804857D02*
X204488142Y-108240285D01*
X204887285Y-107659714D02*
X204887285Y-107079142D01*
X204052714Y-107006571D02*
X204052714Y-106571142D01*
X204814714Y-106788857D02*
X204052714Y-106788857D01*
X204814714Y-106317142D02*
X204052714Y-106317142D01*
X204052714Y-106026857D01*
X204089000Y-105954285D01*
X204125285Y-105918000D01*
X204197857Y-105881714D01*
X204306714Y-105881714D01*
X204379285Y-105918000D01*
X204415571Y-105954285D01*
X204451857Y-106026857D01*
X204451857Y-106317142D01*
X201857428Y-104611714D02*
X202292857Y-104611714D01*
X202075142Y-105373714D02*
X202075142Y-104611714D01*
X202546857Y-105373714D02*
X202546857Y-104611714D01*
X202837142Y-104611714D01*
X202909714Y-104648000D01*
X202946000Y-104684285D01*
X202982285Y-104756857D01*
X202982285Y-104865714D01*
X202946000Y-104938285D01*
X202909714Y-104974571D01*
X202837142Y-105010857D01*
X202546857Y-105010857D01*
X203671714Y-104611714D02*
X203308857Y-104611714D01*
X203272571Y-104974571D01*
X203308857Y-104938285D01*
X203381428Y-104902000D01*
X203562857Y-104902000D01*
X203635428Y-104938285D01*
X203671714Y-104974571D01*
X203708000Y-105047142D01*
X203708000Y-105228571D01*
X203671714Y-105301142D01*
X203635428Y-105337428D01*
X203562857Y-105373714D01*
X203381428Y-105373714D01*
X203308857Y-105337428D01*
X203272571Y-105301142D01*
%TO.C,TP4*%
X203671714Y-112848571D02*
X202909714Y-112848571D01*
X202982285Y-112522000D02*
X202946000Y-112485714D01*
X202909714Y-112413142D01*
X202909714Y-112231714D01*
X202946000Y-112159142D01*
X202982285Y-112122857D01*
X203054857Y-112086571D01*
X203127428Y-112086571D01*
X203236285Y-112122857D01*
X203671714Y-112558285D01*
X203671714Y-112086571D01*
X203635428Y-111796285D02*
X203671714Y-111687428D01*
X203671714Y-111506000D01*
X203635428Y-111433428D01*
X203599142Y-111397142D01*
X203526571Y-111360857D01*
X203454000Y-111360857D01*
X203381428Y-111397142D01*
X203345142Y-111433428D01*
X203308857Y-111506000D01*
X203272571Y-111651142D01*
X203236285Y-111723714D01*
X203200000Y-111760000D01*
X203127428Y-111796285D01*
X203054857Y-111796285D01*
X202982285Y-111760000D01*
X202946000Y-111723714D01*
X202909714Y-111651142D01*
X202909714Y-111469714D01*
X202946000Y-111360857D01*
X203744285Y-111215714D02*
X203744285Y-110635142D01*
X203671714Y-110090857D02*
X203671714Y-110453714D01*
X202909714Y-110453714D01*
X203671714Y-109401428D02*
X203308857Y-109655428D01*
X203671714Y-109836857D02*
X202909714Y-109836857D01*
X202909714Y-109546571D01*
X202946000Y-109474000D01*
X202982285Y-109437714D01*
X203054857Y-109401428D01*
X203163714Y-109401428D01*
X203236285Y-109437714D01*
X203272571Y-109474000D01*
X203308857Y-109546571D01*
X203308857Y-109836857D01*
X203599142Y-108639428D02*
X203635428Y-108675714D01*
X203671714Y-108784571D01*
X203671714Y-108857142D01*
X203635428Y-108966000D01*
X203562857Y-109038571D01*
X203490285Y-109074857D01*
X203345142Y-109111142D01*
X203236285Y-109111142D01*
X203091142Y-109074857D01*
X203018571Y-109038571D01*
X202946000Y-108966000D01*
X202909714Y-108857142D01*
X202909714Y-108784571D01*
X202946000Y-108675714D01*
X202982285Y-108639428D01*
X203671714Y-108312857D02*
X202909714Y-108312857D01*
X203671714Y-107950000D02*
X202909714Y-107950000D01*
X203671714Y-107514571D01*
X202909714Y-107514571D01*
X203744285Y-107333142D02*
X203744285Y-106752571D01*
X202909714Y-106680000D02*
X202909714Y-106244571D01*
X203671714Y-106462285D02*
X202909714Y-106462285D01*
X203671714Y-105990571D02*
X202909714Y-105990571D01*
X202909714Y-105700285D01*
X202946000Y-105627714D01*
X202982285Y-105591428D01*
X203054857Y-105555142D01*
X203163714Y-105555142D01*
X203236285Y-105591428D01*
X203272571Y-105627714D01*
X203308857Y-105700285D01*
X203308857Y-105990571D01*
X199698428Y-102960714D02*
X200133857Y-102960714D01*
X199916142Y-103722714D02*
X199916142Y-102960714D01*
X200387857Y-103722714D02*
X200387857Y-102960714D01*
X200678142Y-102960714D01*
X200750714Y-102997000D01*
X200787000Y-103033285D01*
X200823285Y-103105857D01*
X200823285Y-103214714D01*
X200787000Y-103287285D01*
X200750714Y-103323571D01*
X200678142Y-103359857D01*
X200387857Y-103359857D01*
X201476428Y-103214714D02*
X201476428Y-103722714D01*
X201295000Y-102924428D02*
X201113571Y-103468714D01*
X201585285Y-103468714D01*
%TO.C,C12*%
X189726428Y-96737714D02*
X189291000Y-96737714D01*
X189508714Y-96737714D02*
X189508714Y-95975714D01*
X189436142Y-96084571D01*
X189363571Y-96157142D01*
X189291000Y-96193428D01*
X190379571Y-96229714D02*
X190379571Y-96737714D01*
X190053000Y-96229714D02*
X190053000Y-96628857D01*
X190089285Y-96701428D01*
X190161857Y-96737714D01*
X190270714Y-96737714D01*
X190343285Y-96701428D01*
X190379571Y-96665142D01*
X190996428Y-96338571D02*
X190742428Y-96338571D01*
X190742428Y-96737714D02*
X190742428Y-95975714D01*
X191105285Y-95975714D01*
X189690142Y-97808142D02*
X189653857Y-97844428D01*
X189545000Y-97880714D01*
X189472428Y-97880714D01*
X189363571Y-97844428D01*
X189291000Y-97771857D01*
X189254714Y-97699285D01*
X189218428Y-97554142D01*
X189218428Y-97445285D01*
X189254714Y-97300142D01*
X189291000Y-97227571D01*
X189363571Y-97155000D01*
X189472428Y-97118714D01*
X189545000Y-97118714D01*
X189653857Y-97155000D01*
X189690142Y-97191285D01*
X190415857Y-97880714D02*
X189980428Y-97880714D01*
X190198142Y-97880714D02*
X190198142Y-97118714D01*
X190125571Y-97227571D01*
X190053000Y-97300142D01*
X189980428Y-97336428D01*
X190706142Y-97191285D02*
X190742428Y-97155000D01*
X190815000Y-97118714D01*
X190996428Y-97118714D01*
X191069000Y-97155000D01*
X191105285Y-97191285D01*
X191141571Y-97263857D01*
X191141571Y-97336428D01*
X191105285Y-97445285D01*
X190669857Y-97880714D01*
X191141571Y-97880714D01*
%TO.C,Q4*%
X178235428Y-98842285D02*
X178162857Y-98806000D01*
X178090285Y-98733428D01*
X177981428Y-98624571D01*
X177908857Y-98588285D01*
X177836285Y-98588285D01*
X177872571Y-98769714D02*
X177800000Y-98733428D01*
X177727428Y-98660857D01*
X177691142Y-98515714D01*
X177691142Y-98261714D01*
X177727428Y-98116571D01*
X177800000Y-98044000D01*
X177872571Y-98007714D01*
X178017714Y-98007714D01*
X178090285Y-98044000D01*
X178162857Y-98116571D01*
X178199142Y-98261714D01*
X178199142Y-98515714D01*
X178162857Y-98660857D01*
X178090285Y-98733428D01*
X178017714Y-98769714D01*
X177872571Y-98769714D01*
X178344285Y-98842285D02*
X178924857Y-98842285D01*
X179106285Y-98769714D02*
X179106285Y-98007714D01*
X179396571Y-98007714D01*
X179469142Y-98044000D01*
X179505428Y-98080285D01*
X179541714Y-98152857D01*
X179541714Y-98261714D01*
X179505428Y-98334285D01*
X179469142Y-98370571D01*
X179396571Y-98406857D01*
X179106285Y-98406857D01*
X179868285Y-98769714D02*
X179868285Y-98007714D01*
X180122285Y-98552000D01*
X180376285Y-98007714D01*
X180376285Y-98769714D01*
X180884285Y-98007714D02*
X181029428Y-98007714D01*
X181102000Y-98044000D01*
X181174571Y-98116571D01*
X181210857Y-98261714D01*
X181210857Y-98515714D01*
X181174571Y-98660857D01*
X181102000Y-98733428D01*
X181029428Y-98769714D01*
X180884285Y-98769714D01*
X180811714Y-98733428D01*
X180739142Y-98660857D01*
X180702857Y-98515714D01*
X180702857Y-98261714D01*
X180739142Y-98116571D01*
X180811714Y-98044000D01*
X180884285Y-98007714D01*
X181501142Y-98733428D02*
X181610000Y-98769714D01*
X181791428Y-98769714D01*
X181864000Y-98733428D01*
X181900285Y-98697142D01*
X181936571Y-98624571D01*
X181936571Y-98552000D01*
X181900285Y-98479428D01*
X181864000Y-98443142D01*
X181791428Y-98406857D01*
X181646285Y-98370571D01*
X181573714Y-98334285D01*
X181537428Y-98298000D01*
X181501142Y-98225428D01*
X181501142Y-98152857D01*
X181537428Y-98080285D01*
X181573714Y-98044000D01*
X181646285Y-98007714D01*
X181827714Y-98007714D01*
X181936571Y-98044000D01*
X182081714Y-98842285D02*
X182662285Y-98842285D01*
X182843714Y-98769714D02*
X182843714Y-98007714D01*
X183025142Y-98007714D01*
X183134000Y-98044000D01*
X183206571Y-98116571D01*
X183242857Y-98189142D01*
X183279142Y-98334285D01*
X183279142Y-98443142D01*
X183242857Y-98588285D01*
X183206571Y-98660857D01*
X183134000Y-98733428D01*
X183025142Y-98769714D01*
X182843714Y-98769714D01*
X184004857Y-98044000D02*
X183932285Y-98007714D01*
X183823428Y-98007714D01*
X183714571Y-98044000D01*
X183642000Y-98116571D01*
X183605714Y-98189142D01*
X183569428Y-98334285D01*
X183569428Y-98443142D01*
X183605714Y-98588285D01*
X183642000Y-98660857D01*
X183714571Y-98733428D01*
X183823428Y-98769714D01*
X183896000Y-98769714D01*
X184004857Y-98733428D01*
X184041142Y-98697142D01*
X184041142Y-98443142D01*
X183896000Y-98443142D01*
X184331428Y-98733428D02*
X184440285Y-98769714D01*
X184621714Y-98769714D01*
X184694285Y-98733428D01*
X184730571Y-98697142D01*
X184766857Y-98624571D01*
X184766857Y-98552000D01*
X184730571Y-98479428D01*
X184694285Y-98443142D01*
X184621714Y-98406857D01*
X184476571Y-98370571D01*
X184404000Y-98334285D01*
X184367714Y-98298000D01*
X184331428Y-98225428D01*
X184331428Y-98152857D01*
X184367714Y-98080285D01*
X184404000Y-98044000D01*
X184476571Y-98007714D01*
X184658000Y-98007714D01*
X184766857Y-98044000D01*
X186218285Y-98497571D02*
X186182000Y-98570142D01*
X186109428Y-98642714D01*
X186000571Y-98751571D01*
X185964285Y-98824142D01*
X185964285Y-98896714D01*
X186145714Y-98860428D02*
X186109428Y-98933000D01*
X186036857Y-99005571D01*
X185891714Y-99041857D01*
X185637714Y-99041857D01*
X185492571Y-99005571D01*
X185420000Y-98933000D01*
X185383714Y-98860428D01*
X185383714Y-98715285D01*
X185420000Y-98642714D01*
X185492571Y-98570142D01*
X185637714Y-98533857D01*
X185891714Y-98533857D01*
X186036857Y-98570142D01*
X186109428Y-98642714D01*
X186145714Y-98715285D01*
X186145714Y-98860428D01*
X185637714Y-97880714D02*
X186145714Y-97880714D01*
X185347428Y-98062142D02*
X185891714Y-98243571D01*
X185891714Y-97771857D01*
%TO.C,C9*%
X217351428Y-99785714D02*
X216916000Y-99785714D01*
X217133714Y-99785714D02*
X217133714Y-99023714D01*
X217061142Y-99132571D01*
X216988571Y-99205142D01*
X216916000Y-99241428D01*
X218004571Y-99277714D02*
X218004571Y-99785714D01*
X217678000Y-99277714D02*
X217678000Y-99676857D01*
X217714285Y-99749428D01*
X217786857Y-99785714D01*
X217895714Y-99785714D01*
X217968285Y-99749428D01*
X218004571Y-99713142D01*
X218621428Y-99386571D02*
X218367428Y-99386571D01*
X218367428Y-99785714D02*
X218367428Y-99023714D01*
X218730285Y-99023714D01*
X217805000Y-98443142D02*
X217768714Y-98479428D01*
X217659857Y-98515714D01*
X217587285Y-98515714D01*
X217478428Y-98479428D01*
X217405857Y-98406857D01*
X217369571Y-98334285D01*
X217333285Y-98189142D01*
X217333285Y-98080285D01*
X217369571Y-97935142D01*
X217405857Y-97862571D01*
X217478428Y-97790000D01*
X217587285Y-97753714D01*
X217659857Y-97753714D01*
X217768714Y-97790000D01*
X217805000Y-97826285D01*
X218167857Y-98515714D02*
X218313000Y-98515714D01*
X218385571Y-98479428D01*
X218421857Y-98443142D01*
X218494428Y-98334285D01*
X218530714Y-98189142D01*
X218530714Y-97898857D01*
X218494428Y-97826285D01*
X218458142Y-97790000D01*
X218385571Y-97753714D01*
X218240428Y-97753714D01*
X218167857Y-97790000D01*
X218131571Y-97826285D01*
X218095285Y-97898857D01*
X218095285Y-98080285D01*
X218131571Y-98152857D01*
X218167857Y-98189142D01*
X218240428Y-98225428D01*
X218385571Y-98225428D01*
X218458142Y-98189142D01*
X218494428Y-98152857D01*
X218530714Y-98080285D01*
%TO.C,C8*%
X195253428Y-106672714D02*
X194818000Y-106672714D01*
X195035714Y-106672714D02*
X195035714Y-105910714D01*
X194963142Y-106019571D01*
X194890571Y-106092142D01*
X194818000Y-106128428D01*
X195906571Y-106164714D02*
X195906571Y-106672714D01*
X195580000Y-106164714D02*
X195580000Y-106563857D01*
X195616285Y-106636428D01*
X195688857Y-106672714D01*
X195797714Y-106672714D01*
X195870285Y-106636428D01*
X195906571Y-106600142D01*
X196523428Y-106273571D02*
X196269428Y-106273571D01*
X196269428Y-106672714D02*
X196269428Y-105910714D01*
X196632285Y-105910714D01*
X195580000Y-104920142D02*
X195543714Y-104956428D01*
X195434857Y-104992714D01*
X195362285Y-104992714D01*
X195253428Y-104956428D01*
X195180857Y-104883857D01*
X195144571Y-104811285D01*
X195108285Y-104666142D01*
X195108285Y-104557285D01*
X195144571Y-104412142D01*
X195180857Y-104339571D01*
X195253428Y-104267000D01*
X195362285Y-104230714D01*
X195434857Y-104230714D01*
X195543714Y-104267000D01*
X195580000Y-104303285D01*
X196015428Y-104557285D02*
X195942857Y-104521000D01*
X195906571Y-104484714D01*
X195870285Y-104412142D01*
X195870285Y-104375857D01*
X195906571Y-104303285D01*
X195942857Y-104267000D01*
X196015428Y-104230714D01*
X196160571Y-104230714D01*
X196233142Y-104267000D01*
X196269428Y-104303285D01*
X196305714Y-104375857D01*
X196305714Y-104412142D01*
X196269428Y-104484714D01*
X196233142Y-104521000D01*
X196160571Y-104557285D01*
X196015428Y-104557285D01*
X195942857Y-104593571D01*
X195906571Y-104629857D01*
X195870285Y-104702428D01*
X195870285Y-104847571D01*
X195906571Y-104920142D01*
X195942857Y-104956428D01*
X196015428Y-104992714D01*
X196160571Y-104992714D01*
X196233142Y-104956428D01*
X196269428Y-104920142D01*
X196305714Y-104847571D01*
X196305714Y-104702428D01*
X196269428Y-104629857D01*
X196233142Y-104593571D01*
X196160571Y-104557285D01*
%TO.C,C3*%
X204458836Y-99753214D02*
X204150942Y-99445319D01*
X204304889Y-99599267D02*
X204843704Y-99060451D01*
X204715415Y-99086109D01*
X204612784Y-99086109D01*
X204535810Y-99060451D01*
X205279888Y-99855845D02*
X204920678Y-100215056D01*
X205048967Y-99624925D02*
X204766731Y-99907161D01*
X204741073Y-99984135D01*
X204766731Y-100061108D01*
X204843704Y-100138082D01*
X204920678Y-100163740D01*
X204971994Y-100163740D01*
X205639098Y-100369003D02*
X205459493Y-100189398D01*
X205177257Y-100471634D02*
X205716072Y-99932819D01*
X205972651Y-100189398D01*
X205929012Y-98744880D02*
X205877696Y-98744880D01*
X205775065Y-98693564D01*
X205723749Y-98642249D01*
X205672433Y-98539617D01*
X205672433Y-98436986D01*
X205698091Y-98360012D01*
X205775065Y-98231723D01*
X205852038Y-98154749D01*
X205980328Y-98077775D01*
X206057301Y-98052117D01*
X206159933Y-98052117D01*
X206262564Y-98103433D01*
X206313880Y-98154749D01*
X206365196Y-98257380D01*
X206365196Y-98308696D01*
X206596117Y-98436986D02*
X206929669Y-98770538D01*
X206544801Y-98796196D01*
X206621774Y-98873169D01*
X206647432Y-98950143D01*
X206647432Y-99001459D01*
X206621774Y-99078432D01*
X206493485Y-99206722D01*
X206416511Y-99232380D01*
X206365196Y-99232380D01*
X206288222Y-99206722D01*
X206134275Y-99052774D01*
X206108617Y-98975801D01*
X206108617Y-98924485D01*
%TO.C,C11*%
X238850714Y-97336428D02*
X238850714Y-97771857D01*
X238850714Y-97554142D02*
X238088714Y-97554142D01*
X238197571Y-97626714D01*
X238270142Y-97699285D01*
X238306428Y-97771857D01*
X238088714Y-96864714D02*
X238088714Y-96792142D01*
X238125000Y-96719571D01*
X238161285Y-96683285D01*
X238233857Y-96647000D01*
X238379000Y-96610714D01*
X238560428Y-96610714D01*
X238705571Y-96647000D01*
X238778142Y-96683285D01*
X238814428Y-96719571D01*
X238850714Y-96792142D01*
X238850714Y-96864714D01*
X238814428Y-96937285D01*
X238778142Y-96973571D01*
X238705571Y-97009857D01*
X238560428Y-97046142D01*
X238379000Y-97046142D01*
X238233857Y-97009857D01*
X238161285Y-96973571D01*
X238125000Y-96937285D01*
X238088714Y-96864714D01*
X238342714Y-95957571D02*
X238850714Y-95957571D01*
X238342714Y-96284142D02*
X238741857Y-96284142D01*
X238814428Y-96247857D01*
X238850714Y-96175285D01*
X238850714Y-96066428D01*
X238814428Y-95993857D01*
X238778142Y-95957571D01*
X238451571Y-95340714D02*
X238451571Y-95594714D01*
X238850714Y-95594714D02*
X238088714Y-95594714D01*
X238088714Y-95231857D01*
X240048142Y-97009857D02*
X240084428Y-97046142D01*
X240120714Y-97155000D01*
X240120714Y-97227571D01*
X240084428Y-97336428D01*
X240011857Y-97409000D01*
X239939285Y-97445285D01*
X239794142Y-97481571D01*
X239685285Y-97481571D01*
X239540142Y-97445285D01*
X239467571Y-97409000D01*
X239395000Y-97336428D01*
X239358714Y-97227571D01*
X239358714Y-97155000D01*
X239395000Y-97046142D01*
X239431285Y-97009857D01*
X240120714Y-96284142D02*
X240120714Y-96719571D01*
X240120714Y-96501857D02*
X239358714Y-96501857D01*
X239467571Y-96574428D01*
X239540142Y-96647000D01*
X239576428Y-96719571D01*
X240120714Y-95558428D02*
X240120714Y-95993857D01*
X240120714Y-95776142D02*
X239358714Y-95776142D01*
X239467571Y-95848714D01*
X239540142Y-95921285D01*
X239576428Y-95993857D01*
%TO.C,SW1*%
X209241571Y-116767428D02*
X209350428Y-116803714D01*
X209531857Y-116803714D01*
X209604428Y-116767428D01*
X209640714Y-116731142D01*
X209677000Y-116658571D01*
X209677000Y-116586000D01*
X209640714Y-116513428D01*
X209604428Y-116477142D01*
X209531857Y-116440857D01*
X209386714Y-116404571D01*
X209314142Y-116368285D01*
X209277857Y-116332000D01*
X209241571Y-116259428D01*
X209241571Y-116186857D01*
X209277857Y-116114285D01*
X209314142Y-116078000D01*
X209386714Y-116041714D01*
X209568142Y-116041714D01*
X209677000Y-116078000D01*
X209931000Y-116041714D02*
X210112428Y-116803714D01*
X210257571Y-116259428D01*
X210402714Y-116803714D01*
X210584142Y-116041714D01*
X210693000Y-116876285D02*
X211273571Y-116876285D01*
X211455000Y-116803714D02*
X211455000Y-116041714D01*
X211709000Y-116586000D01*
X211963000Y-116041714D01*
X211963000Y-116803714D01*
X212325857Y-116404571D02*
X212579857Y-116404571D01*
X212688714Y-116803714D02*
X212325857Y-116803714D01*
X212325857Y-116041714D01*
X212688714Y-116041714D01*
X213450714Y-116731142D02*
X213414428Y-116767428D01*
X213305571Y-116803714D01*
X213233000Y-116803714D01*
X213124142Y-116767428D01*
X213051571Y-116694857D01*
X213015285Y-116622285D01*
X212979000Y-116477142D01*
X212979000Y-116368285D01*
X213015285Y-116223142D01*
X213051571Y-116150571D01*
X213124142Y-116078000D01*
X213233000Y-116041714D01*
X213305571Y-116041714D01*
X213414428Y-116078000D01*
X213450714Y-116114285D01*
X213595857Y-116876285D02*
X214176428Y-116876285D01*
X214720714Y-116041714D02*
X214357857Y-116041714D01*
X214321571Y-116404571D01*
X214357857Y-116368285D01*
X214430428Y-116332000D01*
X214611857Y-116332000D01*
X214684428Y-116368285D01*
X214720714Y-116404571D01*
X214757000Y-116477142D01*
X214757000Y-116658571D01*
X214720714Y-116731142D01*
X214684428Y-116767428D01*
X214611857Y-116803714D01*
X214430428Y-116803714D01*
X214357857Y-116767428D01*
X214321571Y-116731142D01*
X215083571Y-116404571D02*
X215337571Y-116404571D01*
X215446428Y-116803714D02*
X215083571Y-116803714D01*
X215083571Y-116041714D01*
X215446428Y-116041714D01*
X211292000Y-113136428D02*
X211400857Y-113172714D01*
X211582285Y-113172714D01*
X211654857Y-113136428D01*
X211691142Y-113100142D01*
X211727428Y-113027571D01*
X211727428Y-112955000D01*
X211691142Y-112882428D01*
X211654857Y-112846142D01*
X211582285Y-112809857D01*
X211437142Y-112773571D01*
X211364571Y-112737285D01*
X211328285Y-112701000D01*
X211292000Y-112628428D01*
X211292000Y-112555857D01*
X211328285Y-112483285D01*
X211364571Y-112447000D01*
X211437142Y-112410714D01*
X211618571Y-112410714D01*
X211727428Y-112447000D01*
X211981428Y-112410714D02*
X212162857Y-113172714D01*
X212308000Y-112628428D01*
X212453142Y-113172714D01*
X212634571Y-112410714D01*
X213324000Y-113172714D02*
X212888571Y-113172714D01*
X213106285Y-113172714D02*
X213106285Y-112410714D01*
X213033714Y-112519571D01*
X212961142Y-112592142D01*
X212888571Y-112628428D01*
%TO.C,R6*%
X216970428Y-117565714D02*
X216535000Y-117565714D01*
X216752714Y-117565714D02*
X216752714Y-116803714D01*
X216680142Y-116912571D01*
X216607571Y-116985142D01*
X216535000Y-117021428D01*
X217442142Y-116803714D02*
X217514714Y-116803714D01*
X217587285Y-116840000D01*
X217623571Y-116876285D01*
X217659857Y-116948857D01*
X217696142Y-117094000D01*
X217696142Y-117275428D01*
X217659857Y-117420571D01*
X217623571Y-117493142D01*
X217587285Y-117529428D01*
X217514714Y-117565714D01*
X217442142Y-117565714D01*
X217369571Y-117529428D01*
X217333285Y-117493142D01*
X217297000Y-117420571D01*
X217260714Y-117275428D01*
X217260714Y-117094000D01*
X217297000Y-116948857D01*
X217333285Y-116876285D01*
X217369571Y-116840000D01*
X217442142Y-116803714D01*
X218022714Y-117565714D02*
X218022714Y-116803714D01*
X218095285Y-117275428D02*
X218313000Y-117565714D01*
X218313000Y-117057714D02*
X218022714Y-117348000D01*
X219075000Y-116422714D02*
X218821000Y-116059857D01*
X218639571Y-116422714D02*
X218639571Y-115660714D01*
X218929857Y-115660714D01*
X219002428Y-115697000D01*
X219038714Y-115733285D01*
X219075000Y-115805857D01*
X219075000Y-115914714D01*
X219038714Y-115987285D01*
X219002428Y-116023571D01*
X218929857Y-116059857D01*
X218639571Y-116059857D01*
X219728142Y-115660714D02*
X219583000Y-115660714D01*
X219510428Y-115697000D01*
X219474142Y-115733285D01*
X219401571Y-115842142D01*
X219365285Y-115987285D01*
X219365285Y-116277571D01*
X219401571Y-116350142D01*
X219437857Y-116386428D01*
X219510428Y-116422714D01*
X219655571Y-116422714D01*
X219728142Y-116386428D01*
X219764428Y-116350142D01*
X219800714Y-116277571D01*
X219800714Y-116096142D01*
X219764428Y-116023571D01*
X219728142Y-115987285D01*
X219655571Y-115951000D01*
X219510428Y-115951000D01*
X219437857Y-115987285D01*
X219401571Y-116023571D01*
X219365285Y-116096142D01*
%TO.C,Q3*%
X195688857Y-113864571D02*
X195797714Y-113900857D01*
X195834000Y-113937142D01*
X195870285Y-114009714D01*
X195870285Y-114118571D01*
X195834000Y-114191142D01*
X195797714Y-114227428D01*
X195725142Y-114263714D01*
X195434857Y-114263714D01*
X195434857Y-113501714D01*
X195688857Y-113501714D01*
X195761428Y-113538000D01*
X195797714Y-113574285D01*
X195834000Y-113646857D01*
X195834000Y-113719428D01*
X195797714Y-113792000D01*
X195761428Y-113828285D01*
X195688857Y-113864571D01*
X195434857Y-113864571D01*
X196160571Y-114227428D02*
X196269428Y-114263714D01*
X196450857Y-114263714D01*
X196523428Y-114227428D01*
X196559714Y-114191142D01*
X196596000Y-114118571D01*
X196596000Y-114046000D01*
X196559714Y-113973428D01*
X196523428Y-113937142D01*
X196450857Y-113900857D01*
X196305714Y-113864571D01*
X196233142Y-113828285D01*
X196196857Y-113792000D01*
X196160571Y-113719428D01*
X196160571Y-113646857D01*
X196196857Y-113574285D01*
X196233142Y-113538000D01*
X196305714Y-113501714D01*
X196487142Y-113501714D01*
X196596000Y-113538000D01*
X196850000Y-113501714D02*
X197321714Y-113501714D01*
X197067714Y-113792000D01*
X197176571Y-113792000D01*
X197249142Y-113828285D01*
X197285428Y-113864571D01*
X197321714Y-113937142D01*
X197321714Y-114118571D01*
X197285428Y-114191142D01*
X197249142Y-114227428D01*
X197176571Y-114263714D01*
X196958857Y-114263714D01*
X196886285Y-114227428D01*
X196850000Y-114191142D01*
X198047428Y-114263714D02*
X197612000Y-114263714D01*
X197829714Y-114263714D02*
X197829714Y-113501714D01*
X197757142Y-113610571D01*
X197684571Y-113683142D01*
X197612000Y-113719428D01*
X198700571Y-113501714D02*
X198555428Y-113501714D01*
X198482857Y-113538000D01*
X198446571Y-113574285D01*
X198374000Y-113683142D01*
X198337714Y-113828285D01*
X198337714Y-114118571D01*
X198374000Y-114191142D01*
X198410285Y-114227428D01*
X198482857Y-114263714D01*
X198628000Y-114263714D01*
X198700571Y-114227428D01*
X198736857Y-114191142D01*
X198773142Y-114118571D01*
X198773142Y-113937142D01*
X198736857Y-113864571D01*
X198700571Y-113828285D01*
X198628000Y-113792000D01*
X198482857Y-113792000D01*
X198410285Y-113828285D01*
X198374000Y-113864571D01*
X198337714Y-113937142D01*
X199099714Y-114263714D02*
X199099714Y-113501714D01*
X199535142Y-114263714D01*
X199535142Y-113501714D01*
X197031428Y-112939285D02*
X196958857Y-112903000D01*
X196886285Y-112830428D01*
X196777428Y-112721571D01*
X196704857Y-112685285D01*
X196632285Y-112685285D01*
X196668571Y-112866714D02*
X196596000Y-112830428D01*
X196523428Y-112757857D01*
X196487142Y-112612714D01*
X196487142Y-112358714D01*
X196523428Y-112213571D01*
X196596000Y-112141000D01*
X196668571Y-112104714D01*
X196813714Y-112104714D01*
X196886285Y-112141000D01*
X196958857Y-112213571D01*
X196995142Y-112358714D01*
X196995142Y-112612714D01*
X196958857Y-112757857D01*
X196886285Y-112830428D01*
X196813714Y-112866714D01*
X196668571Y-112866714D01*
X197249142Y-112104714D02*
X197720857Y-112104714D01*
X197466857Y-112395000D01*
X197575714Y-112395000D01*
X197648285Y-112431285D01*
X197684571Y-112467571D01*
X197720857Y-112540142D01*
X197720857Y-112721571D01*
X197684571Y-112794142D01*
X197648285Y-112830428D01*
X197575714Y-112866714D01*
X197358000Y-112866714D01*
X197285428Y-112830428D01*
X197249142Y-112794142D01*
%TO.C,Q2*%
X189211857Y-113737571D02*
X189320714Y-113773857D01*
X189357000Y-113810142D01*
X189393285Y-113882714D01*
X189393285Y-113991571D01*
X189357000Y-114064142D01*
X189320714Y-114100428D01*
X189248142Y-114136714D01*
X188957857Y-114136714D01*
X188957857Y-113374714D01*
X189211857Y-113374714D01*
X189284428Y-113411000D01*
X189320714Y-113447285D01*
X189357000Y-113519857D01*
X189357000Y-113592428D01*
X189320714Y-113665000D01*
X189284428Y-113701285D01*
X189211857Y-113737571D01*
X188957857Y-113737571D01*
X189683571Y-114100428D02*
X189792428Y-114136714D01*
X189973857Y-114136714D01*
X190046428Y-114100428D01*
X190082714Y-114064142D01*
X190119000Y-113991571D01*
X190119000Y-113919000D01*
X190082714Y-113846428D01*
X190046428Y-113810142D01*
X189973857Y-113773857D01*
X189828714Y-113737571D01*
X189756142Y-113701285D01*
X189719857Y-113665000D01*
X189683571Y-113592428D01*
X189683571Y-113519857D01*
X189719857Y-113447285D01*
X189756142Y-113411000D01*
X189828714Y-113374714D01*
X190010142Y-113374714D01*
X190119000Y-113411000D01*
X190373000Y-113374714D02*
X190844714Y-113374714D01*
X190590714Y-113665000D01*
X190699571Y-113665000D01*
X190772142Y-113701285D01*
X190808428Y-113737571D01*
X190844714Y-113810142D01*
X190844714Y-113991571D01*
X190808428Y-114064142D01*
X190772142Y-114100428D01*
X190699571Y-114136714D01*
X190481857Y-114136714D01*
X190409285Y-114100428D01*
X190373000Y-114064142D01*
X191570428Y-114136714D02*
X191135000Y-114136714D01*
X191352714Y-114136714D02*
X191352714Y-113374714D01*
X191280142Y-113483571D01*
X191207571Y-113556142D01*
X191135000Y-113592428D01*
X192223571Y-113374714D02*
X192078428Y-113374714D01*
X192005857Y-113411000D01*
X191969571Y-113447285D01*
X191897000Y-113556142D01*
X191860714Y-113701285D01*
X191860714Y-113991571D01*
X191897000Y-114064142D01*
X191933285Y-114100428D01*
X192005857Y-114136714D01*
X192151000Y-114136714D01*
X192223571Y-114100428D01*
X192259857Y-114064142D01*
X192296142Y-113991571D01*
X192296142Y-113810142D01*
X192259857Y-113737571D01*
X192223571Y-113701285D01*
X192151000Y-113665000D01*
X192005857Y-113665000D01*
X191933285Y-113701285D01*
X191897000Y-113737571D01*
X191860714Y-113810142D01*
X192622714Y-114136714D02*
X192622714Y-113374714D01*
X193058142Y-114136714D01*
X193058142Y-113374714D01*
X190427428Y-112939285D02*
X190354857Y-112903000D01*
X190282285Y-112830428D01*
X190173428Y-112721571D01*
X190100857Y-112685285D01*
X190028285Y-112685285D01*
X190064571Y-112866714D02*
X189992000Y-112830428D01*
X189919428Y-112757857D01*
X189883142Y-112612714D01*
X189883142Y-112358714D01*
X189919428Y-112213571D01*
X189992000Y-112141000D01*
X190064571Y-112104714D01*
X190209714Y-112104714D01*
X190282285Y-112141000D01*
X190354857Y-112213571D01*
X190391142Y-112358714D01*
X190391142Y-112612714D01*
X190354857Y-112757857D01*
X190282285Y-112830428D01*
X190209714Y-112866714D01*
X190064571Y-112866714D01*
X190681428Y-112177285D02*
X190717714Y-112141000D01*
X190790285Y-112104714D01*
X190971714Y-112104714D01*
X191044285Y-112141000D01*
X191080571Y-112177285D01*
X191116857Y-112249857D01*
X191116857Y-112322428D01*
X191080571Y-112431285D01*
X190645142Y-112866714D01*
X191116857Y-112866714D01*
%TO.C,Q1*%
X182099857Y-113737571D02*
X182208714Y-113773857D01*
X182245000Y-113810142D01*
X182281285Y-113882714D01*
X182281285Y-113991571D01*
X182245000Y-114064142D01*
X182208714Y-114100428D01*
X182136142Y-114136714D01*
X181845857Y-114136714D01*
X181845857Y-113374714D01*
X182099857Y-113374714D01*
X182172428Y-113411000D01*
X182208714Y-113447285D01*
X182245000Y-113519857D01*
X182245000Y-113592428D01*
X182208714Y-113665000D01*
X182172428Y-113701285D01*
X182099857Y-113737571D01*
X181845857Y-113737571D01*
X182571571Y-114100428D02*
X182680428Y-114136714D01*
X182861857Y-114136714D01*
X182934428Y-114100428D01*
X182970714Y-114064142D01*
X183007000Y-113991571D01*
X183007000Y-113919000D01*
X182970714Y-113846428D01*
X182934428Y-113810142D01*
X182861857Y-113773857D01*
X182716714Y-113737571D01*
X182644142Y-113701285D01*
X182607857Y-113665000D01*
X182571571Y-113592428D01*
X182571571Y-113519857D01*
X182607857Y-113447285D01*
X182644142Y-113411000D01*
X182716714Y-113374714D01*
X182898142Y-113374714D01*
X183007000Y-113411000D01*
X183261000Y-113374714D02*
X183732714Y-113374714D01*
X183478714Y-113665000D01*
X183587571Y-113665000D01*
X183660142Y-113701285D01*
X183696428Y-113737571D01*
X183732714Y-113810142D01*
X183732714Y-113991571D01*
X183696428Y-114064142D01*
X183660142Y-114100428D01*
X183587571Y-114136714D01*
X183369857Y-114136714D01*
X183297285Y-114100428D01*
X183261000Y-114064142D01*
X184458428Y-114136714D02*
X184023000Y-114136714D01*
X184240714Y-114136714D02*
X184240714Y-113374714D01*
X184168142Y-113483571D01*
X184095571Y-113556142D01*
X184023000Y-113592428D01*
X185111571Y-113374714D02*
X184966428Y-113374714D01*
X184893857Y-113411000D01*
X184857571Y-113447285D01*
X184785000Y-113556142D01*
X184748714Y-113701285D01*
X184748714Y-113991571D01*
X184785000Y-114064142D01*
X184821285Y-114100428D01*
X184893857Y-114136714D01*
X185039000Y-114136714D01*
X185111571Y-114100428D01*
X185147857Y-114064142D01*
X185184142Y-113991571D01*
X185184142Y-113810142D01*
X185147857Y-113737571D01*
X185111571Y-113701285D01*
X185039000Y-113665000D01*
X184893857Y-113665000D01*
X184821285Y-113701285D01*
X184785000Y-113737571D01*
X184748714Y-113810142D01*
X185510714Y-114136714D02*
X185510714Y-113374714D01*
X185946142Y-114136714D01*
X185946142Y-113374714D01*
X184331428Y-112939285D02*
X184258857Y-112903000D01*
X184186285Y-112830428D01*
X184077428Y-112721571D01*
X184004857Y-112685285D01*
X183932285Y-112685285D01*
X183968571Y-112866714D02*
X183896000Y-112830428D01*
X183823428Y-112757857D01*
X183787142Y-112612714D01*
X183787142Y-112358714D01*
X183823428Y-112213571D01*
X183896000Y-112141000D01*
X183968571Y-112104714D01*
X184113714Y-112104714D01*
X184186285Y-112141000D01*
X184258857Y-112213571D01*
X184295142Y-112358714D01*
X184295142Y-112612714D01*
X184258857Y-112757857D01*
X184186285Y-112830428D01*
X184113714Y-112866714D01*
X183968571Y-112866714D01*
X185020857Y-112866714D02*
X184585428Y-112866714D01*
X184803142Y-112866714D02*
X184803142Y-112104714D01*
X184730571Y-112213571D01*
X184658000Y-112286142D01*
X184585428Y-112322428D01*
%TO.C,SW2*%
X209241571Y-106988428D02*
X209350428Y-107024714D01*
X209531857Y-107024714D01*
X209604428Y-106988428D01*
X209640714Y-106952142D01*
X209677000Y-106879571D01*
X209677000Y-106807000D01*
X209640714Y-106734428D01*
X209604428Y-106698142D01*
X209531857Y-106661857D01*
X209386714Y-106625571D01*
X209314142Y-106589285D01*
X209277857Y-106553000D01*
X209241571Y-106480428D01*
X209241571Y-106407857D01*
X209277857Y-106335285D01*
X209314142Y-106299000D01*
X209386714Y-106262714D01*
X209568142Y-106262714D01*
X209677000Y-106299000D01*
X209931000Y-106262714D02*
X210112428Y-107024714D01*
X210257571Y-106480428D01*
X210402714Y-107024714D01*
X210584142Y-106262714D01*
X210693000Y-107097285D02*
X211273571Y-107097285D01*
X211455000Y-107024714D02*
X211455000Y-106262714D01*
X211709000Y-106807000D01*
X211963000Y-106262714D01*
X211963000Y-107024714D01*
X212325857Y-106625571D02*
X212579857Y-106625571D01*
X212688714Y-107024714D02*
X212325857Y-107024714D01*
X212325857Y-106262714D01*
X212688714Y-106262714D01*
X213450714Y-106952142D02*
X213414428Y-106988428D01*
X213305571Y-107024714D01*
X213233000Y-107024714D01*
X213124142Y-106988428D01*
X213051571Y-106915857D01*
X213015285Y-106843285D01*
X212979000Y-106698142D01*
X212979000Y-106589285D01*
X213015285Y-106444142D01*
X213051571Y-106371571D01*
X213124142Y-106299000D01*
X213233000Y-106262714D01*
X213305571Y-106262714D01*
X213414428Y-106299000D01*
X213450714Y-106335285D01*
X213595857Y-107097285D02*
X214176428Y-107097285D01*
X214720714Y-106262714D02*
X214357857Y-106262714D01*
X214321571Y-106625571D01*
X214357857Y-106589285D01*
X214430428Y-106553000D01*
X214611857Y-106553000D01*
X214684428Y-106589285D01*
X214720714Y-106625571D01*
X214757000Y-106698142D01*
X214757000Y-106879571D01*
X214720714Y-106952142D01*
X214684428Y-106988428D01*
X214611857Y-107024714D01*
X214430428Y-107024714D01*
X214357857Y-106988428D01*
X214321571Y-106952142D01*
X215083571Y-106625571D02*
X215337571Y-106625571D01*
X215446428Y-107024714D02*
X215083571Y-107024714D01*
X215083571Y-106262714D01*
X215446428Y-106262714D01*
X211292000Y-103230428D02*
X211400857Y-103266714D01*
X211582285Y-103266714D01*
X211654857Y-103230428D01*
X211691142Y-103194142D01*
X211727428Y-103121571D01*
X211727428Y-103049000D01*
X211691142Y-102976428D01*
X211654857Y-102940142D01*
X211582285Y-102903857D01*
X211437142Y-102867571D01*
X211364571Y-102831285D01*
X211328285Y-102795000D01*
X211292000Y-102722428D01*
X211292000Y-102649857D01*
X211328285Y-102577285D01*
X211364571Y-102541000D01*
X211437142Y-102504714D01*
X211618571Y-102504714D01*
X211727428Y-102541000D01*
X211981428Y-102504714D02*
X212162857Y-103266714D01*
X212308000Y-102722428D01*
X212453142Y-103266714D01*
X212634571Y-102504714D01*
X212888571Y-102577285D02*
X212924857Y-102541000D01*
X212997428Y-102504714D01*
X213178857Y-102504714D01*
X213251428Y-102541000D01*
X213287714Y-102577285D01*
X213324000Y-102649857D01*
X213324000Y-102722428D01*
X213287714Y-102831285D01*
X212852285Y-103266714D01*
X213324000Y-103266714D01*
%TO.C,J2*%
X220666000Y-93228714D02*
X220666000Y-93773000D01*
X220629714Y-93881857D01*
X220557142Y-93954428D01*
X220448285Y-93990714D01*
X220375714Y-93990714D01*
X220992571Y-93301285D02*
X221028857Y-93265000D01*
X221101428Y-93228714D01*
X221282857Y-93228714D01*
X221355428Y-93265000D01*
X221391714Y-93301285D01*
X221428000Y-93373857D01*
X221428000Y-93446428D01*
X221391714Y-93555285D01*
X220956285Y-93990714D01*
X221428000Y-93990714D01*
%TO.C,U3*%
X192967428Y-109564714D02*
X192967428Y-108802714D01*
X193221428Y-109347000D01*
X193475428Y-108802714D01*
X193475428Y-109564714D01*
X193838285Y-109564714D02*
X193838285Y-108802714D01*
X194636571Y-109492142D02*
X194600285Y-109528428D01*
X194491428Y-109564714D01*
X194418857Y-109564714D01*
X194310000Y-109528428D01*
X194237428Y-109455857D01*
X194201142Y-109383285D01*
X194164857Y-109238142D01*
X194164857Y-109129285D01*
X194201142Y-108984142D01*
X194237428Y-108911571D01*
X194310000Y-108839000D01*
X194418857Y-108802714D01*
X194491428Y-108802714D01*
X194600285Y-108839000D01*
X194636571Y-108875285D01*
X195326000Y-108802714D02*
X194963142Y-108802714D01*
X194926857Y-109165571D01*
X194963142Y-109129285D01*
X195035714Y-109093000D01*
X195217142Y-109093000D01*
X195289714Y-109129285D01*
X195326000Y-109165571D01*
X195362285Y-109238142D01*
X195362285Y-109419571D01*
X195326000Y-109492142D01*
X195289714Y-109528428D01*
X195217142Y-109564714D01*
X195035714Y-109564714D01*
X194963142Y-109528428D01*
X194926857Y-109492142D01*
X196051714Y-108802714D02*
X195688857Y-108802714D01*
X195652571Y-109165571D01*
X195688857Y-109129285D01*
X195761428Y-109093000D01*
X195942857Y-109093000D01*
X196015428Y-109129285D01*
X196051714Y-109165571D01*
X196088000Y-109238142D01*
X196088000Y-109419571D01*
X196051714Y-109492142D01*
X196015428Y-109528428D01*
X195942857Y-109564714D01*
X195761428Y-109564714D01*
X195688857Y-109528428D01*
X195652571Y-109492142D01*
X196559714Y-108802714D02*
X196632285Y-108802714D01*
X196704857Y-108839000D01*
X196741142Y-108875285D01*
X196777428Y-108947857D01*
X196813714Y-109093000D01*
X196813714Y-109274428D01*
X196777428Y-109419571D01*
X196741142Y-109492142D01*
X196704857Y-109528428D01*
X196632285Y-109564714D01*
X196559714Y-109564714D01*
X196487142Y-109528428D01*
X196450857Y-109492142D01*
X196414571Y-109419571D01*
X196378285Y-109274428D01*
X196378285Y-109093000D01*
X196414571Y-108947857D01*
X196450857Y-108875285D01*
X196487142Y-108839000D01*
X196559714Y-108802714D01*
X197466857Y-109056714D02*
X197466857Y-109564714D01*
X197285428Y-108766428D02*
X197104000Y-109310714D01*
X197575714Y-109310714D01*
X197866000Y-109274428D02*
X198446571Y-109274428D01*
X198736857Y-108802714D02*
X199208571Y-108802714D01*
X198954571Y-109093000D01*
X199063428Y-109093000D01*
X199136000Y-109129285D01*
X199172285Y-109165571D01*
X199208571Y-109238142D01*
X199208571Y-109419571D01*
X199172285Y-109492142D01*
X199136000Y-109528428D01*
X199063428Y-109564714D01*
X198845714Y-109564714D01*
X198773142Y-109528428D01*
X198736857Y-109492142D01*
X199535142Y-109492142D02*
X199571428Y-109528428D01*
X199535142Y-109564714D01*
X199498857Y-109528428D01*
X199535142Y-109492142D01*
X199535142Y-109564714D01*
X199825428Y-108802714D02*
X200297142Y-108802714D01*
X200043142Y-109093000D01*
X200152000Y-109093000D01*
X200224571Y-109129285D01*
X200260857Y-109165571D01*
X200297142Y-109238142D01*
X200297142Y-109419571D01*
X200260857Y-109492142D01*
X200224571Y-109528428D01*
X200152000Y-109564714D01*
X199934285Y-109564714D01*
X199861714Y-109528428D01*
X199825428Y-109492142D01*
X200768857Y-109201857D02*
X200768857Y-109564714D01*
X200514857Y-108802714D02*
X200768857Y-109201857D01*
X201022857Y-108802714D01*
X201276857Y-109564714D02*
X201276857Y-108802714D01*
X201530857Y-109347000D01*
X201784857Y-108802714D01*
X201784857Y-109564714D01*
X202510571Y-108802714D02*
X202147714Y-108802714D01*
X202111428Y-109165571D01*
X202147714Y-109129285D01*
X202220285Y-109093000D01*
X202401714Y-109093000D01*
X202474285Y-109129285D01*
X202510571Y-109165571D01*
X202546857Y-109238142D01*
X202546857Y-109419571D01*
X202510571Y-109492142D01*
X202474285Y-109528428D01*
X202401714Y-109564714D01*
X202220285Y-109564714D01*
X202147714Y-109528428D01*
X202111428Y-109492142D01*
X195126428Y-107278714D02*
X195126428Y-107895571D01*
X195162714Y-107968142D01*
X195199000Y-108004428D01*
X195271571Y-108040714D01*
X195416714Y-108040714D01*
X195489285Y-108004428D01*
X195525571Y-107968142D01*
X195561857Y-107895571D01*
X195561857Y-107278714D01*
X195852142Y-107278714D02*
X196323857Y-107278714D01*
X196069857Y-107569000D01*
X196178714Y-107569000D01*
X196251285Y-107605285D01*
X196287571Y-107641571D01*
X196323857Y-107714142D01*
X196323857Y-107895571D01*
X196287571Y-107968142D01*
X196251285Y-108004428D01*
X196178714Y-108040714D01*
X195961000Y-108040714D01*
X195888428Y-108004428D01*
X195852142Y-107968142D01*
%TO.C,C2*%
X243422714Y-96973571D02*
X243422714Y-97409000D01*
X243422714Y-97191285D02*
X242660714Y-97191285D01*
X242769571Y-97263857D01*
X242842142Y-97336428D01*
X242878428Y-97409000D01*
X242914714Y-96320428D02*
X243422714Y-96320428D01*
X242914714Y-96647000D02*
X243313857Y-96647000D01*
X243386428Y-96610714D01*
X243422714Y-96538142D01*
X243422714Y-96429285D01*
X243386428Y-96356714D01*
X243350142Y-96320428D01*
X243023571Y-95703571D02*
X243023571Y-95957571D01*
X243422714Y-95957571D02*
X242660714Y-95957571D01*
X242660714Y-95594714D01*
X242080142Y-96647000D02*
X242116428Y-96683285D01*
X242152714Y-96792142D01*
X242152714Y-96864714D01*
X242116428Y-96973571D01*
X242043857Y-97046142D01*
X241971285Y-97082428D01*
X241826142Y-97118714D01*
X241717285Y-97118714D01*
X241572142Y-97082428D01*
X241499571Y-97046142D01*
X241427000Y-96973571D01*
X241390714Y-96864714D01*
X241390714Y-96792142D01*
X241427000Y-96683285D01*
X241463285Y-96647000D01*
X241463285Y-96356714D02*
X241427000Y-96320428D01*
X241390714Y-96247857D01*
X241390714Y-96066428D01*
X241427000Y-95993857D01*
X241463285Y-95957571D01*
X241535857Y-95921285D01*
X241608428Y-95921285D01*
X241717285Y-95957571D01*
X242152714Y-96393000D01*
X242152714Y-95921285D01*
%TO.C,J9*%
X210668000Y-93228714D02*
X210668000Y-93773000D01*
X210631714Y-93881857D01*
X210559142Y-93954428D01*
X210450285Y-93990714D01*
X210377714Y-93990714D01*
X211067142Y-93990714D02*
X211212285Y-93990714D01*
X211284857Y-93954428D01*
X211321142Y-93918142D01*
X211393714Y-93809285D01*
X211430000Y-93664142D01*
X211430000Y-93373857D01*
X211393714Y-93301285D01*
X211357428Y-93265000D01*
X211284857Y-93228714D01*
X211139714Y-93228714D01*
X211067142Y-93265000D01*
X211030857Y-93301285D01*
X210994571Y-93373857D01*
X210994571Y-93555285D01*
X211030857Y-93627857D01*
X211067142Y-93664142D01*
X211139714Y-93700428D01*
X211284857Y-93700428D01*
X211357428Y-93664142D01*
X211393714Y-93627857D01*
X211430000Y-93555285D01*
%TO.C,H2*%
X220969428Y-110086614D02*
X220969428Y-109324614D01*
X220969428Y-109687471D02*
X221404857Y-109687471D01*
X221404857Y-110086614D02*
X221404857Y-109324614D01*
X221731428Y-109397185D02*
X221767714Y-109360900D01*
X221840285Y-109324614D01*
X222021714Y-109324614D01*
X222094285Y-109360900D01*
X222130571Y-109397185D01*
X222166857Y-109469757D01*
X222166857Y-109542328D01*
X222130571Y-109651185D01*
X221695142Y-110086614D01*
X222166857Y-110086614D01*
%TO.C,R11*%
X187615285Y-112830428D02*
X187579000Y-112794142D01*
X187542714Y-112721571D01*
X187542714Y-112540142D01*
X187579000Y-112467571D01*
X187615285Y-112431285D01*
X187687857Y-112395000D01*
X187760428Y-112395000D01*
X187869285Y-112431285D01*
X188304714Y-112866714D01*
X188304714Y-112395000D01*
X187542714Y-111923285D02*
X187542714Y-111850714D01*
X187579000Y-111778142D01*
X187615285Y-111741857D01*
X187687857Y-111705571D01*
X187833000Y-111669285D01*
X188014428Y-111669285D01*
X188159571Y-111705571D01*
X188232142Y-111741857D01*
X188268428Y-111778142D01*
X188304714Y-111850714D01*
X188304714Y-111923285D01*
X188268428Y-111995857D01*
X188232142Y-112032142D01*
X188159571Y-112068428D01*
X188014428Y-112104714D01*
X187833000Y-112104714D01*
X187687857Y-112068428D01*
X187615285Y-112032142D01*
X187579000Y-111995857D01*
X187542714Y-111923285D01*
X187542714Y-111197571D02*
X187542714Y-111125000D01*
X187579000Y-111052428D01*
X187615285Y-111016142D01*
X187687857Y-110979857D01*
X187833000Y-110943571D01*
X188014428Y-110943571D01*
X188159571Y-110979857D01*
X188232142Y-111016142D01*
X188268428Y-111052428D01*
X188304714Y-111125000D01*
X188304714Y-111197571D01*
X188268428Y-111270142D01*
X188232142Y-111306428D01*
X188159571Y-111342714D01*
X188014428Y-111379000D01*
X187833000Y-111379000D01*
X187687857Y-111342714D01*
X187615285Y-111306428D01*
X187579000Y-111270142D01*
X187542714Y-111197571D01*
X188304714Y-114535857D02*
X187941857Y-114789857D01*
X188304714Y-114971285D02*
X187542714Y-114971285D01*
X187542714Y-114681000D01*
X187579000Y-114608428D01*
X187615285Y-114572142D01*
X187687857Y-114535857D01*
X187796714Y-114535857D01*
X187869285Y-114572142D01*
X187905571Y-114608428D01*
X187941857Y-114681000D01*
X187941857Y-114971285D01*
X188304714Y-113810142D02*
X188304714Y-114245571D01*
X188304714Y-114027857D02*
X187542714Y-114027857D01*
X187651571Y-114100428D01*
X187724142Y-114173000D01*
X187760428Y-114245571D01*
X188304714Y-113084428D02*
X188304714Y-113519857D01*
X188304714Y-113302142D02*
X187542714Y-113302142D01*
X187651571Y-113374714D01*
X187724142Y-113447285D01*
X187760428Y-113519857D01*
%TO.C,R10*%
X193711285Y-112195428D02*
X193675000Y-112159142D01*
X193638714Y-112086571D01*
X193638714Y-111905142D01*
X193675000Y-111832571D01*
X193711285Y-111796285D01*
X193783857Y-111760000D01*
X193856428Y-111760000D01*
X193965285Y-111796285D01*
X194400714Y-112231714D01*
X194400714Y-111760000D01*
X193638714Y-111288285D02*
X193638714Y-111215714D01*
X193675000Y-111143142D01*
X193711285Y-111106857D01*
X193783857Y-111070571D01*
X193929000Y-111034285D01*
X194110428Y-111034285D01*
X194255571Y-111070571D01*
X194328142Y-111106857D01*
X194364428Y-111143142D01*
X194400714Y-111215714D01*
X194400714Y-111288285D01*
X194364428Y-111360857D01*
X194328142Y-111397142D01*
X194255571Y-111433428D01*
X194110428Y-111469714D01*
X193929000Y-111469714D01*
X193783857Y-111433428D01*
X193711285Y-111397142D01*
X193675000Y-111360857D01*
X193638714Y-111288285D01*
X193638714Y-110562571D02*
X193638714Y-110490000D01*
X193675000Y-110417428D01*
X193711285Y-110381142D01*
X193783857Y-110344857D01*
X193929000Y-110308571D01*
X194110428Y-110308571D01*
X194255571Y-110344857D01*
X194328142Y-110381142D01*
X194364428Y-110417428D01*
X194400714Y-110490000D01*
X194400714Y-110562571D01*
X194364428Y-110635142D01*
X194328142Y-110671428D01*
X194255571Y-110707714D01*
X194110428Y-110744000D01*
X193929000Y-110744000D01*
X193783857Y-110707714D01*
X193711285Y-110671428D01*
X193675000Y-110635142D01*
X193638714Y-110562571D01*
X194400714Y-114154857D02*
X194037857Y-114408857D01*
X194400714Y-114590285D02*
X193638714Y-114590285D01*
X193638714Y-114300000D01*
X193675000Y-114227428D01*
X193711285Y-114191142D01*
X193783857Y-114154857D01*
X193892714Y-114154857D01*
X193965285Y-114191142D01*
X194001571Y-114227428D01*
X194037857Y-114300000D01*
X194037857Y-114590285D01*
X194400714Y-113429142D02*
X194400714Y-113864571D01*
X194400714Y-113646857D02*
X193638714Y-113646857D01*
X193747571Y-113719428D01*
X193820142Y-113792000D01*
X193856428Y-113864571D01*
X193638714Y-112957428D02*
X193638714Y-112884857D01*
X193675000Y-112812285D01*
X193711285Y-112776000D01*
X193783857Y-112739714D01*
X193929000Y-112703428D01*
X194110428Y-112703428D01*
X194255571Y-112739714D01*
X194328142Y-112776000D01*
X194364428Y-112812285D01*
X194400714Y-112884857D01*
X194400714Y-112957428D01*
X194364428Y-113030000D01*
X194328142Y-113066285D01*
X194255571Y-113102571D01*
X194110428Y-113138857D01*
X193929000Y-113138857D01*
X193783857Y-113102571D01*
X193711285Y-113066285D01*
X193675000Y-113030000D01*
X193638714Y-112957428D01*
%TO.C,R8*%
X200315285Y-112449428D02*
X200279000Y-112413142D01*
X200242714Y-112340571D01*
X200242714Y-112159142D01*
X200279000Y-112086571D01*
X200315285Y-112050285D01*
X200387857Y-112014000D01*
X200460428Y-112014000D01*
X200569285Y-112050285D01*
X201004714Y-112485714D01*
X201004714Y-112014000D01*
X200242714Y-111542285D02*
X200242714Y-111469714D01*
X200279000Y-111397142D01*
X200315285Y-111360857D01*
X200387857Y-111324571D01*
X200533000Y-111288285D01*
X200714428Y-111288285D01*
X200859571Y-111324571D01*
X200932142Y-111360857D01*
X200968428Y-111397142D01*
X201004714Y-111469714D01*
X201004714Y-111542285D01*
X200968428Y-111614857D01*
X200932142Y-111651142D01*
X200859571Y-111687428D01*
X200714428Y-111723714D01*
X200533000Y-111723714D01*
X200387857Y-111687428D01*
X200315285Y-111651142D01*
X200279000Y-111614857D01*
X200242714Y-111542285D01*
X200242714Y-110816571D02*
X200242714Y-110744000D01*
X200279000Y-110671428D01*
X200315285Y-110635142D01*
X200387857Y-110598857D01*
X200533000Y-110562571D01*
X200714428Y-110562571D01*
X200859571Y-110598857D01*
X200932142Y-110635142D01*
X200968428Y-110671428D01*
X201004714Y-110744000D01*
X201004714Y-110816571D01*
X200968428Y-110889142D01*
X200932142Y-110925428D01*
X200859571Y-110961714D01*
X200714428Y-110998000D01*
X200533000Y-110998000D01*
X200387857Y-110961714D01*
X200315285Y-110925428D01*
X200279000Y-110889142D01*
X200242714Y-110816571D01*
X201004714Y-113538000D02*
X200641857Y-113792000D01*
X201004714Y-113973428D02*
X200242714Y-113973428D01*
X200242714Y-113683142D01*
X200279000Y-113610571D01*
X200315285Y-113574285D01*
X200387857Y-113538000D01*
X200496714Y-113538000D01*
X200569285Y-113574285D01*
X200605571Y-113610571D01*
X200641857Y-113683142D01*
X200641857Y-113973428D01*
X200569285Y-113102571D02*
X200533000Y-113175142D01*
X200496714Y-113211428D01*
X200424142Y-113247714D01*
X200387857Y-113247714D01*
X200315285Y-113211428D01*
X200279000Y-113175142D01*
X200242714Y-113102571D01*
X200242714Y-112957428D01*
X200279000Y-112884857D01*
X200315285Y-112848571D01*
X200387857Y-112812285D01*
X200424142Y-112812285D01*
X200496714Y-112848571D01*
X200533000Y-112884857D01*
X200569285Y-112957428D01*
X200569285Y-113102571D01*
X200605571Y-113175142D01*
X200641857Y-113211428D01*
X200714428Y-113247714D01*
X200859571Y-113247714D01*
X200932142Y-113211428D01*
X200968428Y-113175142D01*
X201004714Y-113102571D01*
X201004714Y-112957428D01*
X200968428Y-112884857D01*
X200932142Y-112848571D01*
X200859571Y-112812285D01*
X200714428Y-112812285D01*
X200641857Y-112848571D01*
X200605571Y-112884857D01*
X200569285Y-112957428D01*
%TO.C,H1*%
X196904428Y-100928714D02*
X196904428Y-100166714D01*
X196904428Y-100529571D02*
X197339857Y-100529571D01*
X197339857Y-100928714D02*
X197339857Y-100166714D01*
X198101857Y-100928714D02*
X197666428Y-100928714D01*
X197884142Y-100928714D02*
X197884142Y-100166714D01*
X197811571Y-100275571D01*
X197739000Y-100348142D01*
X197666428Y-100384428D01*
%TO.C,U1*%
X188050714Y-106825142D02*
X187288714Y-106825142D01*
X188050714Y-106389714D01*
X187288714Y-106389714D01*
X187978142Y-105591428D02*
X188014428Y-105627714D01*
X188050714Y-105736571D01*
X188050714Y-105809142D01*
X188014428Y-105918000D01*
X187941857Y-105990571D01*
X187869285Y-106026857D01*
X187724142Y-106063142D01*
X187615285Y-106063142D01*
X187470142Y-106026857D01*
X187397571Y-105990571D01*
X187325000Y-105918000D01*
X187288714Y-105809142D01*
X187288714Y-105736571D01*
X187325000Y-105627714D01*
X187361285Y-105591428D01*
X188050714Y-105264857D02*
X187288714Y-105264857D01*
X187288714Y-104974571D01*
X187325000Y-104902000D01*
X187361285Y-104865714D01*
X187433857Y-104829428D01*
X187542714Y-104829428D01*
X187615285Y-104865714D01*
X187651571Y-104902000D01*
X187687857Y-104974571D01*
X187687857Y-105264857D01*
X188050714Y-104103714D02*
X188050714Y-104539142D01*
X188050714Y-104321428D02*
X187288714Y-104321428D01*
X187397571Y-104394000D01*
X187470142Y-104466571D01*
X187506428Y-104539142D01*
X187542714Y-103450571D02*
X188050714Y-103450571D01*
X187252428Y-103632000D02*
X187796714Y-103813428D01*
X187796714Y-103341714D01*
X187361285Y-103087714D02*
X187325000Y-103051428D01*
X187288714Y-102978857D01*
X187288714Y-102797428D01*
X187325000Y-102724857D01*
X187361285Y-102688571D01*
X187433857Y-102652285D01*
X187506428Y-102652285D01*
X187615285Y-102688571D01*
X188050714Y-103124000D01*
X188050714Y-102652285D01*
X188050714Y-101926571D02*
X188050714Y-102362000D01*
X188050714Y-102144285D02*
X187288714Y-102144285D01*
X187397571Y-102216857D01*
X187470142Y-102289428D01*
X187506428Y-102362000D01*
X189316714Y-104996571D02*
X189933571Y-104996571D01*
X190006142Y-104960285D01*
X190042428Y-104924000D01*
X190078714Y-104851428D01*
X190078714Y-104706285D01*
X190042428Y-104633714D01*
X190006142Y-104597428D01*
X189933571Y-104561142D01*
X189316714Y-104561142D01*
X190078714Y-103799142D02*
X190078714Y-104234571D01*
X190078714Y-104016857D02*
X189316714Y-104016857D01*
X189425571Y-104089428D01*
X189498142Y-104162000D01*
X189534428Y-104234571D01*
%TO.C,R4*%
X186018714Y-107496428D02*
X186018714Y-107931857D01*
X186018714Y-107714142D02*
X185256714Y-107714142D01*
X185365571Y-107786714D01*
X185438142Y-107859285D01*
X185474428Y-107931857D01*
X185329285Y-107206142D02*
X185293000Y-107169857D01*
X185256714Y-107097285D01*
X185256714Y-106915857D01*
X185293000Y-106843285D01*
X185329285Y-106807000D01*
X185401857Y-106770714D01*
X185474428Y-106770714D01*
X185583285Y-106807000D01*
X186018714Y-107242428D01*
X186018714Y-106770714D01*
X185256714Y-106299000D02*
X185256714Y-106226428D01*
X185293000Y-106153857D01*
X185329285Y-106117571D01*
X185401857Y-106081285D01*
X185547000Y-106045000D01*
X185728428Y-106045000D01*
X185873571Y-106081285D01*
X185946142Y-106117571D01*
X185982428Y-106153857D01*
X186018714Y-106226428D01*
X186018714Y-106299000D01*
X185982428Y-106371571D01*
X185946142Y-106407857D01*
X185873571Y-106444142D01*
X185728428Y-106480428D01*
X185547000Y-106480428D01*
X185401857Y-106444142D01*
X185329285Y-106407857D01*
X185293000Y-106371571D01*
X185256714Y-106299000D01*
X186018714Y-105718428D02*
X185256714Y-105718428D01*
X185728428Y-105645857D02*
X186018714Y-105428142D01*
X185510714Y-105428142D02*
X185801000Y-105718428D01*
X185002714Y-106793000D02*
X184639857Y-107047000D01*
X185002714Y-107228428D02*
X184240714Y-107228428D01*
X184240714Y-106938142D01*
X184277000Y-106865571D01*
X184313285Y-106829285D01*
X184385857Y-106793000D01*
X184494714Y-106793000D01*
X184567285Y-106829285D01*
X184603571Y-106865571D01*
X184639857Y-106938142D01*
X184639857Y-107228428D01*
X184494714Y-106139857D02*
X185002714Y-106139857D01*
X184204428Y-106321285D02*
X184748714Y-106502714D01*
X184748714Y-106031000D01*
%TO.C,R2*%
X186272714Y-102126142D02*
X186272714Y-101654428D01*
X186563000Y-101908428D01*
X186563000Y-101799571D01*
X186599285Y-101727000D01*
X186635571Y-101690714D01*
X186708142Y-101654428D01*
X186889571Y-101654428D01*
X186962142Y-101690714D01*
X186998428Y-101727000D01*
X187034714Y-101799571D01*
X187034714Y-102017285D01*
X186998428Y-102089857D01*
X186962142Y-102126142D01*
X186599285Y-101219000D02*
X186563000Y-101291571D01*
X186526714Y-101327857D01*
X186454142Y-101364142D01*
X186417857Y-101364142D01*
X186345285Y-101327857D01*
X186309000Y-101291571D01*
X186272714Y-101219000D01*
X186272714Y-101073857D01*
X186309000Y-101001285D01*
X186345285Y-100965000D01*
X186417857Y-100928714D01*
X186454142Y-100928714D01*
X186526714Y-100965000D01*
X186563000Y-101001285D01*
X186599285Y-101073857D01*
X186599285Y-101219000D01*
X186635571Y-101291571D01*
X186671857Y-101327857D01*
X186744428Y-101364142D01*
X186889571Y-101364142D01*
X186962142Y-101327857D01*
X186998428Y-101291571D01*
X187034714Y-101219000D01*
X187034714Y-101073857D01*
X186998428Y-101001285D01*
X186962142Y-100965000D01*
X186889571Y-100928714D01*
X186744428Y-100928714D01*
X186671857Y-100965000D01*
X186635571Y-101001285D01*
X186599285Y-101073857D01*
X186272714Y-100674714D02*
X186272714Y-100203000D01*
X186563000Y-100457000D01*
X186563000Y-100348142D01*
X186599285Y-100275571D01*
X186635571Y-100239285D01*
X186708142Y-100203000D01*
X186889571Y-100203000D01*
X186962142Y-100239285D01*
X186998428Y-100275571D01*
X187034714Y-100348142D01*
X187034714Y-100565857D01*
X186998428Y-100638428D01*
X186962142Y-100674714D01*
X187034714Y-99876428D02*
X186272714Y-99876428D01*
X186744428Y-99803857D02*
X187034714Y-99586142D01*
X186526714Y-99586142D02*
X186817000Y-99876428D01*
X186018714Y-101219000D02*
X185655857Y-101473000D01*
X186018714Y-101654428D02*
X185256714Y-101654428D01*
X185256714Y-101364142D01*
X185293000Y-101291571D01*
X185329285Y-101255285D01*
X185401857Y-101219000D01*
X185510714Y-101219000D01*
X185583285Y-101255285D01*
X185619571Y-101291571D01*
X185655857Y-101364142D01*
X185655857Y-101654428D01*
X185329285Y-100928714D02*
X185293000Y-100892428D01*
X185256714Y-100819857D01*
X185256714Y-100638428D01*
X185293000Y-100565857D01*
X185329285Y-100529571D01*
X185401857Y-100493285D01*
X185474428Y-100493285D01*
X185583285Y-100529571D01*
X186018714Y-100965000D01*
X186018714Y-100493285D01*
%TO.C,R1*%
X193130714Y-103359857D02*
X193130714Y-103722714D01*
X193493571Y-103759000D01*
X193457285Y-103722714D01*
X193421000Y-103650142D01*
X193421000Y-103468714D01*
X193457285Y-103396142D01*
X193493571Y-103359857D01*
X193566142Y-103323571D01*
X193747571Y-103323571D01*
X193820142Y-103359857D01*
X193856428Y-103396142D01*
X193892714Y-103468714D01*
X193892714Y-103650142D01*
X193856428Y-103722714D01*
X193820142Y-103759000D01*
X193130714Y-102670428D02*
X193130714Y-102815571D01*
X193167000Y-102888142D01*
X193203285Y-102924428D01*
X193312142Y-102997000D01*
X193457285Y-103033285D01*
X193747571Y-103033285D01*
X193820142Y-102997000D01*
X193856428Y-102960714D01*
X193892714Y-102888142D01*
X193892714Y-102743000D01*
X193856428Y-102670428D01*
X193820142Y-102634142D01*
X193747571Y-102597857D01*
X193566142Y-102597857D01*
X193493571Y-102634142D01*
X193457285Y-102670428D01*
X193421000Y-102743000D01*
X193421000Y-102888142D01*
X193457285Y-102960714D01*
X193493571Y-102997000D01*
X193566142Y-103033285D01*
X193892714Y-102271285D02*
X193130714Y-102271285D01*
X193602428Y-102198714D02*
X193892714Y-101981000D01*
X193384714Y-101981000D02*
X193675000Y-102271285D01*
X192876714Y-101473000D02*
X192513857Y-101727000D01*
X192876714Y-101908428D02*
X192114714Y-101908428D01*
X192114714Y-101618142D01*
X192151000Y-101545571D01*
X192187285Y-101509285D01*
X192259857Y-101473000D01*
X192368714Y-101473000D01*
X192441285Y-101509285D01*
X192477571Y-101545571D01*
X192513857Y-101618142D01*
X192513857Y-101908428D01*
X192876714Y-100747285D02*
X192876714Y-101182714D01*
X192876714Y-100965000D02*
X192114714Y-100965000D01*
X192223571Y-101037571D01*
X192296142Y-101110142D01*
X192332428Y-101182714D01*
%TO.C,L1*%
X190119000Y-98896714D02*
X189683571Y-98896714D01*
X189901285Y-98896714D02*
X189901285Y-98134714D01*
X189828714Y-98243571D01*
X189756142Y-98316142D01*
X189683571Y-98352428D01*
X190590714Y-98134714D02*
X190663285Y-98134714D01*
X190735857Y-98171000D01*
X190772142Y-98207285D01*
X190808428Y-98279857D01*
X190844714Y-98425000D01*
X190844714Y-98606428D01*
X190808428Y-98751571D01*
X190772142Y-98824142D01*
X190735857Y-98860428D01*
X190663285Y-98896714D01*
X190590714Y-98896714D01*
X190518142Y-98860428D01*
X190481857Y-98824142D01*
X190445571Y-98751571D01*
X190409285Y-98606428D01*
X190409285Y-98425000D01*
X190445571Y-98279857D01*
X190481857Y-98207285D01*
X190518142Y-98171000D01*
X190590714Y-98134714D01*
X191497857Y-98388714D02*
X191497857Y-98896714D01*
X191171285Y-98388714D02*
X191171285Y-98787857D01*
X191207571Y-98860428D01*
X191280142Y-98896714D01*
X191389000Y-98896714D01*
X191461571Y-98860428D01*
X191497857Y-98824142D01*
X191860714Y-98896714D02*
X191860714Y-98134714D01*
X191860714Y-98497571D02*
X192296142Y-98497571D01*
X192296142Y-98896714D02*
X192296142Y-98134714D01*
X190881000Y-100166714D02*
X190518142Y-100166714D01*
X190518142Y-99404714D01*
X191534142Y-100166714D02*
X191098714Y-100166714D01*
X191316428Y-100166714D02*
X191316428Y-99404714D01*
X191243857Y-99513571D01*
X191171285Y-99586142D01*
X191098714Y-99622428D01*
%TO.C,C7*%
X185619571Y-110834714D02*
X185184142Y-110834714D01*
X185401857Y-110834714D02*
X185401857Y-110072714D01*
X185329285Y-110181571D01*
X185256714Y-110254142D01*
X185184142Y-110290428D01*
X186091285Y-110072714D02*
X186163857Y-110072714D01*
X186236428Y-110109000D01*
X186272714Y-110145285D01*
X186309000Y-110217857D01*
X186345285Y-110363000D01*
X186345285Y-110544428D01*
X186309000Y-110689571D01*
X186272714Y-110762142D01*
X186236428Y-110798428D01*
X186163857Y-110834714D01*
X186091285Y-110834714D01*
X186018714Y-110798428D01*
X185982428Y-110762142D01*
X185946142Y-110689571D01*
X185909857Y-110544428D01*
X185909857Y-110363000D01*
X185946142Y-110217857D01*
X185982428Y-110145285D01*
X186018714Y-110109000D01*
X186091285Y-110072714D01*
X186671857Y-110326714D02*
X186671857Y-111088714D01*
X186671857Y-110363000D02*
X186744428Y-110326714D01*
X186889571Y-110326714D01*
X186962142Y-110363000D01*
X186998428Y-110399285D01*
X187034714Y-110471857D01*
X187034714Y-110689571D01*
X186998428Y-110762142D01*
X186962142Y-110798428D01*
X186889571Y-110834714D01*
X186744428Y-110834714D01*
X186671857Y-110798428D01*
X187615285Y-110435571D02*
X187361285Y-110435571D01*
X187361285Y-110834714D02*
X187361285Y-110072714D01*
X187724142Y-110072714D01*
X185674000Y-109746142D02*
X185637714Y-109782428D01*
X185528857Y-109818714D01*
X185456285Y-109818714D01*
X185347428Y-109782428D01*
X185274857Y-109709857D01*
X185238571Y-109637285D01*
X185202285Y-109492142D01*
X185202285Y-109383285D01*
X185238571Y-109238142D01*
X185274857Y-109165571D01*
X185347428Y-109093000D01*
X185456285Y-109056714D01*
X185528857Y-109056714D01*
X185637714Y-109093000D01*
X185674000Y-109129285D01*
X185928000Y-109056714D02*
X186436000Y-109056714D01*
X186109428Y-109818714D01*
%TO.C,C5*%
X183732714Y-103940428D02*
X183732714Y-104375857D01*
X183732714Y-104158142D02*
X182970714Y-104158142D01*
X183079571Y-104230714D01*
X183152142Y-104303285D01*
X183188428Y-104375857D01*
X182970714Y-103468714D02*
X182970714Y-103396142D01*
X183007000Y-103323571D01*
X183043285Y-103287285D01*
X183115857Y-103251000D01*
X183261000Y-103214714D01*
X183442428Y-103214714D01*
X183587571Y-103251000D01*
X183660142Y-103287285D01*
X183696428Y-103323571D01*
X183732714Y-103396142D01*
X183732714Y-103468714D01*
X183696428Y-103541285D01*
X183660142Y-103577571D01*
X183587571Y-103613857D01*
X183442428Y-103650142D01*
X183261000Y-103650142D01*
X183115857Y-103613857D01*
X183043285Y-103577571D01*
X183007000Y-103541285D01*
X182970714Y-103468714D01*
X183224714Y-102561571D02*
X183732714Y-102561571D01*
X183224714Y-102888142D02*
X183623857Y-102888142D01*
X183696428Y-102851857D01*
X183732714Y-102779285D01*
X183732714Y-102670428D01*
X183696428Y-102597857D01*
X183660142Y-102561571D01*
X183333571Y-101944714D02*
X183333571Y-102198714D01*
X183732714Y-102198714D02*
X182970714Y-102198714D01*
X182970714Y-101835857D01*
X184930142Y-103505000D02*
X184966428Y-103541285D01*
X185002714Y-103650142D01*
X185002714Y-103722714D01*
X184966428Y-103831571D01*
X184893857Y-103904142D01*
X184821285Y-103940428D01*
X184676142Y-103976714D01*
X184567285Y-103976714D01*
X184422142Y-103940428D01*
X184349571Y-103904142D01*
X184277000Y-103831571D01*
X184240714Y-103722714D01*
X184240714Y-103650142D01*
X184277000Y-103541285D01*
X184313285Y-103505000D01*
X184240714Y-102815571D02*
X184240714Y-103178428D01*
X184603571Y-103214714D01*
X184567285Y-103178428D01*
X184531000Y-103105857D01*
X184531000Y-102924428D01*
X184567285Y-102851857D01*
X184603571Y-102815571D01*
X184676142Y-102779285D01*
X184857571Y-102779285D01*
X184930142Y-102815571D01*
X184966428Y-102851857D01*
X185002714Y-102924428D01*
X185002714Y-103105857D01*
X184966428Y-103178428D01*
X184930142Y-103214714D01*
%TO.C,C1*%
X190844714Y-94669428D02*
X190844714Y-95104857D01*
X190844714Y-94887142D02*
X190082714Y-94887142D01*
X190191571Y-94959714D01*
X190264142Y-95032285D01*
X190300428Y-95104857D01*
X190082714Y-94197714D02*
X190082714Y-94125142D01*
X190119000Y-94052571D01*
X190155285Y-94016285D01*
X190227857Y-93980000D01*
X190373000Y-93943714D01*
X190554428Y-93943714D01*
X190699571Y-93980000D01*
X190772142Y-94016285D01*
X190808428Y-94052571D01*
X190844714Y-94125142D01*
X190844714Y-94197714D01*
X190808428Y-94270285D01*
X190772142Y-94306571D01*
X190699571Y-94342857D01*
X190554428Y-94379142D01*
X190373000Y-94379142D01*
X190227857Y-94342857D01*
X190155285Y-94306571D01*
X190119000Y-94270285D01*
X190082714Y-94197714D01*
X190336714Y-93290571D02*
X190844714Y-93290571D01*
X190336714Y-93617142D02*
X190735857Y-93617142D01*
X190808428Y-93580857D01*
X190844714Y-93508285D01*
X190844714Y-93399428D01*
X190808428Y-93326857D01*
X190772142Y-93290571D01*
X190445571Y-92673714D02*
X190445571Y-92927714D01*
X190844714Y-92927714D02*
X190082714Y-92927714D01*
X190082714Y-92564857D01*
X189502142Y-94615000D02*
X189538428Y-94651285D01*
X189574714Y-94760142D01*
X189574714Y-94832714D01*
X189538428Y-94941571D01*
X189465857Y-95014142D01*
X189393285Y-95050428D01*
X189248142Y-95086714D01*
X189139285Y-95086714D01*
X188994142Y-95050428D01*
X188921571Y-95014142D01*
X188849000Y-94941571D01*
X188812714Y-94832714D01*
X188812714Y-94760142D01*
X188849000Y-94651285D01*
X188885285Y-94615000D01*
X189574714Y-93889285D02*
X189574714Y-94324714D01*
X189574714Y-94107000D02*
X188812714Y-94107000D01*
X188921571Y-94179571D01*
X188994142Y-94252142D01*
X189030428Y-94324714D01*
%TO.C,R3*%
X193384714Y-106952142D02*
X193892714Y-106952142D01*
X193094428Y-107133571D02*
X193638714Y-107315000D01*
X193638714Y-106843285D01*
X193130714Y-106625571D02*
X193130714Y-106117571D01*
X193892714Y-106444142D01*
X193892714Y-105827285D02*
X193130714Y-105827285D01*
X193602428Y-105754714D02*
X193892714Y-105537000D01*
X193384714Y-105537000D02*
X193675000Y-105827285D01*
X192876714Y-108077000D02*
X192513857Y-108331000D01*
X192876714Y-108512428D02*
X192114714Y-108512428D01*
X192114714Y-108222142D01*
X192151000Y-108149571D01*
X192187285Y-108113285D01*
X192259857Y-108077000D01*
X192368714Y-108077000D01*
X192441285Y-108113285D01*
X192477571Y-108149571D01*
X192513857Y-108222142D01*
X192513857Y-108512428D01*
X192114714Y-107823000D02*
X192114714Y-107351285D01*
X192405000Y-107605285D01*
X192405000Y-107496428D01*
X192441285Y-107423857D01*
X192477571Y-107387571D01*
X192550142Y-107351285D01*
X192731571Y-107351285D01*
X192804142Y-107387571D01*
X192840428Y-107423857D01*
X192876714Y-107496428D01*
X192876714Y-107714142D01*
X192840428Y-107786714D01*
X192804142Y-107823000D01*
%TO.C,C6*%
X189139285Y-110145285D02*
X189175571Y-110109000D01*
X189248142Y-110072714D01*
X189429571Y-110072714D01*
X189502142Y-110109000D01*
X189538428Y-110145285D01*
X189574714Y-110217857D01*
X189574714Y-110290428D01*
X189538428Y-110399285D01*
X189103000Y-110834714D01*
X189574714Y-110834714D01*
X190046428Y-110072714D02*
X190119000Y-110072714D01*
X190191571Y-110109000D01*
X190227857Y-110145285D01*
X190264142Y-110217857D01*
X190300428Y-110363000D01*
X190300428Y-110544428D01*
X190264142Y-110689571D01*
X190227857Y-110762142D01*
X190191571Y-110798428D01*
X190119000Y-110834714D01*
X190046428Y-110834714D01*
X189973857Y-110798428D01*
X189937571Y-110762142D01*
X189901285Y-110689571D01*
X189865000Y-110544428D01*
X189865000Y-110363000D01*
X189901285Y-110217857D01*
X189937571Y-110145285D01*
X189973857Y-110109000D01*
X190046428Y-110072714D01*
X190772142Y-110072714D02*
X190844714Y-110072714D01*
X190917285Y-110109000D01*
X190953571Y-110145285D01*
X190989857Y-110217857D01*
X191026142Y-110363000D01*
X191026142Y-110544428D01*
X190989857Y-110689571D01*
X190953571Y-110762142D01*
X190917285Y-110798428D01*
X190844714Y-110834714D01*
X190772142Y-110834714D01*
X190699571Y-110798428D01*
X190663285Y-110762142D01*
X190627000Y-110689571D01*
X190590714Y-110544428D01*
X190590714Y-110363000D01*
X190627000Y-110217857D01*
X190663285Y-110145285D01*
X190699571Y-110109000D01*
X190772142Y-110072714D01*
X191352714Y-110326714D02*
X191352714Y-110834714D01*
X191352714Y-110399285D02*
X191389000Y-110363000D01*
X191461571Y-110326714D01*
X191570428Y-110326714D01*
X191643000Y-110363000D01*
X191679285Y-110435571D01*
X191679285Y-110834714D01*
X192296142Y-110435571D02*
X192042142Y-110435571D01*
X192042142Y-110834714D02*
X192042142Y-110072714D01*
X192405000Y-110072714D01*
X189611000Y-109746142D02*
X189574714Y-109782428D01*
X189465857Y-109818714D01*
X189393285Y-109818714D01*
X189284428Y-109782428D01*
X189211857Y-109709857D01*
X189175571Y-109637285D01*
X189139285Y-109492142D01*
X189139285Y-109383285D01*
X189175571Y-109238142D01*
X189211857Y-109165571D01*
X189284428Y-109093000D01*
X189393285Y-109056714D01*
X189465857Y-109056714D01*
X189574714Y-109093000D01*
X189611000Y-109129285D01*
X190264142Y-109056714D02*
X190119000Y-109056714D01*
X190046428Y-109093000D01*
X190010142Y-109129285D01*
X189937571Y-109238142D01*
X189901285Y-109383285D01*
X189901285Y-109673571D01*
X189937571Y-109746142D01*
X189973857Y-109782428D01*
X190046428Y-109818714D01*
X190191571Y-109818714D01*
X190264142Y-109782428D01*
X190300428Y-109746142D01*
X190336714Y-109673571D01*
X190336714Y-109492142D01*
X190300428Y-109419571D01*
X190264142Y-109383285D01*
X190191571Y-109347000D01*
X190046428Y-109347000D01*
X189973857Y-109383285D01*
X189937571Y-109419571D01*
X189901285Y-109492142D01*
%TD*%
M02*
