M48
; DRILL file {KiCad 5.1.9-73d0e3b20d~88~ubuntu20.04.1} date Mon Mar 15 23:00:23 2021
; FORMAT={-:-/ absolute / inch / decimal}
; #@! TF.CreationDate,2021-03-15T23:00:23-05:00
; #@! TF.GenerationSoftware,Kicad,Pcbnew,5.1.9-73d0e3b20d~88~ubuntu20.04.1
; #@! TF.FileFunction,Plated,1,4,PTH
FMAT,2
INCH
T1C0.0150
T2C0.0157
T3C0.0197
T4C0.0315
T5C0.0394
%
G90
G05
T1
X7.91Y-3.83
X8.18Y-3.91
X8.18Y-4.15
T2
X7.22Y-3.82
X7.23Y-4.36
X7.2551Y-3.7651
X7.27Y-4.0
X7.27Y-4.14
X7.31Y-4.03
X7.31Y-4.36
X7.32Y-4.24
X7.32Y-4.31
X7.3249Y-3.7751
X7.38Y-3.82
X7.38Y-4.38
X7.3943Y-4.0257
X7.43Y-4.08
X7.449Y-3.819
X7.46Y-4.39
X7.4847Y-4.0774
X7.57Y-4.42
X7.5781Y-4.2619
X7.61Y-4.31
X7.64Y-4.38
X7.7Y-4.36
X7.705Y-4.205
X7.71Y-4.14
X7.74Y-4.29
X7.74Y-4.36
X7.77Y-4.14
X7.78Y-4.36
X7.84Y-4.17
X7.84Y-4.21
X7.84Y-4.25
X7.885Y-3.71
X7.885Y-4.045
X7.91Y-4.21
X7.92Y-4.46
X7.98Y-4.37
X8.01Y-4.37
X8.03Y-3.89
X8.03Y-4.26
X8.04Y-4.03
X8.04Y-4.37
X8.06Y-4.05
X8.115Y-4.6
X8.27Y-4.03
X8.34Y-4.1
X8.36Y-4.27
X8.36Y-4.23
X8.38Y-4.1
X8.425Y-4.04
X8.49Y-4.09
X8.515Y-3.99
X8.5324Y-4.266
X8.54Y-4.48
X8.6Y-4.05
X8.6Y-4.23
X8.64Y-4.5
X8.65Y-4.15
X8.66Y-4.04
X8.72Y-4.04
X8.78Y-3.91
X8.82Y-4.15
X8.83Y-4.36
X8.84Y-4.47
X8.85Y-3.91
X8.87Y-4.58
X8.8891Y-4.1891
X8.8896Y-4.1104
X9.0Y-4.03
X9.05Y-4.22
X9.09Y-4.07
X9.15Y-4.37
X9.15Y-4.5
X9.19Y-4.22
X9.22Y-4.41
X9.3Y-3.68
X9.3Y-3.8
X9.38Y-4.15
X9.4Y-4.23
X9.45Y-4.35
X9.45Y-4.5
X9.46Y-4.27
X9.47Y-4.05
X9.47Y-4.19
X9.48Y-4.11
X9.48Y-4.43
X9.52Y-3.89
X9.57Y-3.68
T3
X8.23Y-3.74
X8.2792Y-3.74
X8.3284Y-3.74
X8.3776Y-3.74
X8.55Y-3.74
X8.5992Y-3.74
X8.6484Y-3.74
X8.6976Y-3.74
X8.7469Y-3.74
X8.7961Y-3.74
X8.8453Y-3.74
T4
X7.2513Y-3.71
X7.2638Y-4.5669
X7.33Y-3.71
X7.3425Y-4.5669
X7.554Y-4.5697
X7.6328Y-4.5697
X7.8057Y-4.5697
X7.8844Y-4.5697
X7.9713Y-3.71
X8.05Y-3.71
T5
X8.27Y-3.9241
X8.27Y-4.18
X8.27Y-4.3141
X8.27Y-4.57
X8.4472Y-3.9241
X8.4472Y-4.18
X8.4472Y-4.3141
X8.4472Y-4.57
T0
M30
